<svg width="12" height="13" viewBox="0 0 12 13" fill="none" xmlns="http://www.w3.org/2000/svg">
<path d="M6.85427 1.45117C6.63628 1.45117 6.41403 1.52641 6.23244 1.69439L3.61141 4.12006H2.00345C1.63344 4.12006 1.3335 4.40071 1.3335 4.74694V8.19462C1.3335 8.5408 1.63344 8.8215 2.00345 8.8215H3.61141L6.23244 11.2472C6.41397 11.4152 6.63634 11.4904 6.85427 11.4904C7.31364 11.4904 7.75388 11.1564 7.75388 10.6529V2.28865C7.75394 1.78515 7.31364 1.45117 6.85427 1.45117ZM10.2681 6.75598H8.78718C8.68143 6.75598 8.58002 6.71392 8.50524 6.63904C8.43047 6.56416 8.38846 6.4626 8.38846 6.3567C8.38846 6.2508 8.43047 6.14924 8.50524 6.07436C8.58002 5.99948 8.68143 5.95741 8.78718 5.95741H10.2681C10.3739 5.95741 10.4753 5.99948 10.55 6.07436C10.6248 6.14924 10.6668 6.2508 10.6668 6.3567C10.6668 6.4626 10.6248 6.56416 10.55 6.63904C10.4753 6.71392 10.3739 6.75598 10.2681 6.75598ZM10.3865 3.70783L9.10393 4.44936C9.05856 4.47599 9.00839 4.49338 8.95629 4.50051C8.90419 4.50764 8.8512 4.50439 8.80037 4.49093C8.74953 4.47747 8.70186 4.45407 8.66009 4.42208C8.61832 4.3901 8.58328 4.35015 8.55698 4.30455C8.53069 4.25895 8.51367 4.20859 8.50689 4.15637C8.50011 4.10415 8.50372 4.0511 8.51749 4.00029C8.53127 3.94947 8.55495 3.90188 8.58716 3.86026C8.61938 3.81865 8.6595 3.78382 8.70521 3.7578L9.98776 3.01626C10.0331 2.98963 10.0833 2.97225 10.1354 2.96511C10.1875 2.95798 10.2405 2.96124 10.2913 2.9747C10.3422 2.98816 10.3898 3.01155 10.4316 3.04354C10.4734 3.07553 10.5084 3.11547 10.5347 3.16107C10.561 3.20668 10.578 3.25704 10.5848 3.30926C10.5916 3.36147 10.588 3.41452 10.5742 3.46534C10.5604 3.51616 10.5367 3.56374 10.5045 3.60536C10.4723 3.64698 10.4322 3.6818 10.3865 3.70783ZM9.98776 9.64009L8.70521 8.89856C8.6595 8.87253 8.61938 8.83771 8.58716 8.79609C8.55495 8.75447 8.53127 8.70689 8.51749 8.65607C8.50372 8.60525 8.50011 8.5522 8.50689 8.49999C8.51367 8.44777 8.53069 8.39741 8.55698 8.3518C8.58328 8.3062 8.61832 8.26626 8.66009 8.23427C8.70186 8.20228 8.74953 8.17889 8.80037 8.16543C8.8512 8.15197 8.90419 8.14871 8.95629 8.15585C9.00839 8.16298 9.05856 8.18036 9.10393 8.20699L10.3865 8.94853C10.4322 8.97455 10.4723 9.00938 10.5045 9.05099C10.5367 9.09261 10.5604 9.1402 10.5742 9.19102C10.588 9.24184 10.5916 9.29488 10.5848 9.3471C10.578 9.39932 10.561 9.44968 10.5347 9.49528C10.5084 9.54088 10.4734 9.58083 10.4316 9.61281C10.3898 9.6448 10.3422 9.6682 10.2913 9.68166C10.2405 9.69512 10.1875 9.69837 10.1354 9.69124C10.0833 9.68411 10.0331 9.66672 9.98776 9.64009Z" fill="white"/>
</svg>
