<svg width="68" height="54" viewBox="0 0 68 54" fill="none" xmlns="http://www.w3.org/2000/svg">
<g filter="url(#filter0_f_1163_5379)">
<ellipse cx="33.8021" cy="38.798" rx="23.6" ry="4.4" fill="#17181F" fill-opacity="0.1"/>
</g>
<g filter="url(#filter1_f_1163_5379)">
<path fill-rule="evenodd" clip-rule="evenodd" d="M33.5842 39.1976C43.2046 39.1976 51.0036 38.3022 51.0036 37.1976C51.0036 36.0931 43.2046 35.1976 33.5842 35.1976C26.8701 35.1976 21.0433 35.6338 18.1354 36.2727L8.60352 35.9979C8.60381 37.1975 9.53631 40.9561 16.379 41.5959C16.494 41.5959 16.6172 41.5963 16.7477 41.5968C19.1177 41.6052 23.9283 41.6222 26.8762 39.1968C27.1609 39.161 27.4651 39.1234 27.7867 39.0842C29.6003 39.1577 31.5516 39.1976 33.5842 39.1976Z" fill="#17181F" fill-opacity="0.3"/>
</g>
<path d="M48.0845 1.59721C50.9365 1.59721 52.2131 3.74796 52.5536 4.99448C52.5899 5.12727 52.6021 5.26431 52.6021 5.40197V35.5756C52.6021 37.996 51.0298 38.4605 50.1163 38.3907C50.0162 38.3831 49.9164 38.3739 49.816 38.3739H17.9669C15.2563 38.3739 14.3276 36.2419 14.2021 35.1759V3.99569C14.2021 2.07691 15.4571 1.59721 16.0845 1.59721H48.0845Z" fill="url(#paint0_linear_1163_5379)" fill-opacity="0.6"/>
<g filter="url(#filter2_f_1163_5379)">
<path d="M16.6021 5.59721C16.6021 4.63721 17.6688 4.13055 18.2021 3.99721L16.2021 1.59721C14.6021 1.59721 14.2021 3.19721 14.2021 3.99721L16.6021 5.59721Z" fill="url(#paint1_linear_1163_5379)" fill-opacity="0.6"/>
</g>
<path d="M48.0845 1.59721C50.9365 1.59721 52.2131 3.74796 52.5536 4.99448C52.5899 5.12727 52.6021 5.26431 52.6021 5.40197V35.5756C52.6021 37.996 51.0298 38.4605 50.1163 38.3907C50.0162 38.3831 49.9164 38.3739 49.816 38.3739H17.9669C15.2563 38.3739 14.3276 36.2419 14.2021 35.1759V3.99569C14.2021 2.07691 15.4571 1.59721 16.0845 1.59721H48.0845Z" fill="url(#paint2_linear_1163_5379)" fill-opacity="0.8"/>
<g filter="url(#filter3_dii_1163_5379)">
<path d="M16.6025 5.99847C16.6025 4.89391 17.4979 3.99849 18.6025 3.99847L50.6025 3.99794C51.7071 3.99792 52.6025 4.89336 52.6025 5.99794V36.3974C52.6025 37.5019 51.7071 38.3973 50.6026 38.3973L18.6026 38.3979C17.498 38.3979 16.6025 37.5025 16.6025 36.3979V5.99847Z" fill="white"/>
<path d="M16.8417 5.99847C16.8417 5.02598 17.63 4.23762 18.6025 4.23761L50.6025 4.23708C51.575 4.23706 52.3634 5.02543 52.3634 5.99794V36.3974C52.3634 37.3698 51.5751 38.1582 50.6026 38.1582L18.6026 38.1587C17.6301 38.1588 16.8417 37.3704 16.8417 36.3979V5.99847Z" stroke="#E1E1E1" stroke-width="0.478275"/>
</g>
<g filter="url(#filter4_i_1163_5379)">
<path fill-rule="evenodd" clip-rule="evenodd" d="M23.8027 13.7986C23.8027 13.2463 24.2504 12.7986 24.8027 12.7986H45.2027C45.755 12.7986 46.2027 13.2463 46.2027 13.7986V14.1986C46.2027 14.7509 45.755 15.1986 45.2027 15.1986H24.8027C24.2504 15.1986 23.8027 14.7509 23.8027 14.1986V13.7986ZM23.8027 20.9978C23.8027 20.4455 24.2504 19.9978 24.8027 19.9978H33.2027C33.755 19.9978 34.2027 20.4455 34.2027 20.9978V21.3978C34.2027 21.9501 33.755 22.3978 33.2027 22.3978H24.8027C24.2505 22.3978 23.8027 21.9501 23.8027 21.3978V20.9978ZM24.8027 27.1999C24.2504 27.1999 23.8027 27.6476 23.8027 28.1999V28.5999C23.8027 29.1522 24.2505 29.5999 24.8027 29.5999H33.2027C33.755 29.5999 34.2027 29.1522 34.2027 28.5999V28.1999C34.2027 27.6476 33.755 27.1999 33.2027 27.1999H24.8027Z" fill="#4A4B55" fill-opacity="0.1"/>
</g>
<g filter="url(#filter5_dii_1163_5379)">
<circle cx="43.8031" cy="24.798" r="5.6" fill="#34C8AA"/>
</g>
<g filter="url(#filter6_d_1163_5379)">
<path d="M41.4971 24.8361L43.6532 26.4495L46.7677 23.1554" stroke="white"/>
</g>
<g filter="url(#filter7_b_1163_5379)">
<path d="M8.95356 35.9879L9.01504 34.0859L24.1978 35.0161C24.1978 35.0161 24.7038 36.0638 24.3153 38.0215C24.235 38.4262 24.1113 39.0285 23.4837 39.6773C21.2877 41.9471 12.978 42.6162 9.66625 38.1343C8.95544 37.3487 8.89495 36.376 8.95356 35.9879Z" fill="url(#paint3_linear_1163_5379)" fill-opacity="0.8"/>
</g>
<path d="M8.95356 35.9879L9.01504 34.0859L24.1978 35.0161C24.1978 35.0161 24.7038 36.0638 24.3153 38.0215C24.235 38.4262 24.1113 39.0285 23.4837 39.6773C21.2877 41.9471 12.978 42.6162 9.66625 38.1343C8.95544 37.3487 8.89495 36.376 8.95356 35.9879Z" fill="url(#paint4_linear_1163_5379)" fill-opacity="0.8"/>
<g filter="url(#filter8_bd_1163_5379)">
<ellipse rx="4.95561" ry="7.92489" transform="matrix(0.128255 -0.998147 0.983415 0.139919 16.724 34.6891)" fill="#E0A66A"/>
<path d="M17.338 29.9101C19.4642 30.2126 21.3108 31.0326 22.5785 32.105C23.8483 33.1792 24.5179 34.487 24.3525 35.7745C24.1871 37.0619 23.2114 38.1357 21.7161 38.8164C20.2233 39.4961 18.236 39.7706 16.1099 39.4681C13.9838 39.1656 12.1371 38.3456 10.8694 37.2732C9.59962 36.199 8.93001 34.8911 9.09543 33.6037C9.26085 32.3163 10.2365 31.2425 11.7318 30.5617C13.2246 29.8821 15.2119 29.6076 17.338 29.9101Z" stroke="#EEB67E" stroke-width="0.335417"/>
</g>
<g filter="url(#filter9_i_1163_5379)">
<path fill-rule="evenodd" clip-rule="evenodd" d="M16.5588 33.8391L15.8454 31.6881L20.4939 34.2215L16.5588 33.8391ZM16.3981 34.1122L20.5122 34.5128L13.9013 36.1773L16.3981 34.1122ZM15.8089 33.9632L13.4778 35.94L14.1668 32.6554L15.8089 33.9632ZM14.3673 32.3246L15.3234 31.6404L15.9606 33.568L14.3673 32.3246ZM13.8165 32.2244L12.8281 36.772L21.7966 34.5244L15.4431 31.0676L13.8165 32.2244Z" fill="white"/>
</g>
<path fill-rule="evenodd" clip-rule="evenodd" d="M16.5588 33.8391L15.8454 31.6881L20.4939 34.2215L16.5588 33.8391ZM16.3981 34.1122L20.5122 34.5128L13.9013 36.1773L16.3981 34.1122ZM15.8089 33.9632L13.4778 35.94L14.1668 32.6554L15.8089 33.9632ZM14.3673 32.3246L15.3234 31.6404L15.9606 33.568L14.3673 32.3246ZM13.8165 32.2244L12.8281 36.772L21.7966 34.5244L15.4431 31.0676L13.8165 32.2244Z" stroke="#AD6668" stroke-width="0.559615"/>
<path fill-rule="evenodd" clip-rule="evenodd" d="M16.5588 33.8391L15.8454 31.6881L20.4939 34.2215L16.5588 33.8391ZM16.3981 34.1122L20.5122 34.5128L13.9013 36.1773L16.3981 34.1122ZM15.8089 33.9632L13.4778 35.94L14.1668 32.6554L15.8089 33.9632ZM14.3673 32.3246L15.3234 31.6404L15.9606 33.568L14.3673 32.3246ZM13.8165 32.2244L12.8281 36.772L21.7966 34.5244L15.4431 31.0676L13.8165 32.2244Z" fill="white"/>
<g filter="url(#filter10_f_1163_5379)">
<ellipse rx="3.91817" ry="6.21733" transform="matrix(0.126578 -0.994615 0.987587 0.139215 16.6312 34.3602)" fill="#2C180D" fill-opacity="0.4"/>
</g>
<g filter="url(#filter11_b_1163_5379)">
<path d="M7.35297 31.9914L7.41445 30.0894L22.5973 31.0197C22.5973 31.0197 23.1032 32.0673 22.7147 34.025C22.6344 34.4297 22.5107 35.032 21.8831 35.6808C19.6871 37.9506 11.3774 38.6197 8.06567 34.1378C7.35485 33.3522 7.29437 32.3795 7.35297 31.9914Z" fill="url(#paint5_linear_1163_5379)" fill-opacity="0.8"/>
</g>
<path d="M7.35297 31.9914L7.41445 30.0894L22.5973 31.0197C22.5973 31.0197 23.1032 32.0673 22.7147 34.025C22.6344 34.4297 22.5107 35.032 21.8831 35.6808C19.6871 37.9506 11.3774 38.6197 8.06567 34.1378C7.35485 33.3522 7.29437 32.3795 7.35297 31.9914Z" fill="url(#paint6_linear_1163_5379)" fill-opacity="0.8"/>
<g filter="url(#filter12_bd_1163_5379)">
<ellipse rx="4.95561" ry="7.92489" transform="matrix(0.128255 -0.998147 0.983415 0.139919 15.1234 30.6926)" fill="#DA6F6F" fill-opacity="0.9" shape-rendering="crispEdges"/>
<path d="M15.741 25.8858C17.8714 26.1889 19.7232 27.0108 20.9954 28.087C22.2695 29.1648 22.9463 30.4814 22.7792 31.7819C22.6121 33.0823 21.6273 34.1625 20.127 34.8455C18.6288 35.5276 16.6362 35.8025 14.5057 35.4994C12.3753 35.1963 10.5235 34.3744 9.2513 33.2982C7.97728 32.2204 7.3004 30.9038 7.4675 29.6033C7.6346 28.3029 8.61945 27.2227 10.1197 26.5396C11.6179 25.8576 13.6106 25.5827 15.741 25.8858Z" stroke="#F49A9A" stroke-width="0.279808" shape-rendering="crispEdges"/>
</g>
<g filter="url(#filter13_i_1163_5379)">
<path fill-rule="evenodd" clip-rule="evenodd" d="M14.9592 29.8404L14.2457 27.6894L18.8943 30.2228L14.9592 29.8404ZM14.7985 30.1136L18.9126 30.5142L12.3017 32.1787L14.7985 30.1136ZM14.2092 29.9646L11.8782 31.9413L12.5671 28.6568L14.2092 29.9646ZM12.7677 28.3259L13.7238 27.6418L14.361 29.5693L12.7677 28.3259ZM12.2169 28.2258L11.2285 32.7734L20.197 30.5258L13.8435 27.0689L12.2169 28.2258Z" fill="white"/>
</g>
<path fill-rule="evenodd" clip-rule="evenodd" d="M14.9592 29.8404L14.2457 27.6894L18.8943 30.2228L14.9592 29.8404ZM14.7985 30.1136L18.9126 30.5142L12.3017 32.1787L14.7985 30.1136ZM14.2092 29.9646L11.8782 31.9413L12.5671 28.6568L14.2092 29.9646ZM12.7677 28.3259L13.7238 27.6418L14.361 29.5693L12.7677 28.3259ZM12.2169 28.2258L11.2285 32.7734L20.197 30.5258L13.8435 27.0689L12.2169 28.2258Z" stroke="#E18E8E" stroke-width="0.559615"/>
<path fill-rule="evenodd" clip-rule="evenodd" d="M14.9592 29.8404L14.2457 27.6894L18.8943 30.2228L14.9592 29.8404ZM14.7985 30.1136L18.9126 30.5142L12.3017 32.1787L14.7985 30.1136ZM14.2092 29.9646L11.8782 31.9413L12.5671 28.6568L14.2092 29.9646ZM12.7677 28.3259L13.7238 27.6418L14.361 29.5693L12.7677 28.3259ZM12.2169 28.2258L11.2285 32.7734L20.197 30.5258L13.8435 27.0689L12.2169 28.2258Z" fill="white"/>
<defs>
<filter id="filter0_f_1163_5379" x="0.202148" y="24.398" width="67.2002" height="28.8" filterUnits="userSpaceOnUse" color-interpolation-filters="sRGB">
<feFlood flood-opacity="0" result="BackgroundImageFix"/>
<feBlend mode="normal" in="SourceGraphic" in2="BackgroundImageFix" result="shape"/>
<feGaussianBlur stdDeviation="5" result="effect1_foregroundBlur_1163_5379"/>
</filter>
<filter id="filter1_f_1163_5379" x="6.60352" y="33.1976" width="46.4004" height="10.4002" filterUnits="userSpaceOnUse" color-interpolation-filters="sRGB">
<feFlood flood-opacity="0" result="BackgroundImageFix"/>
<feBlend mode="normal" in="SourceGraphic" in2="BackgroundImageFix" result="shape"/>
<feGaussianBlur stdDeviation="1" result="effect1_foregroundBlur_1163_5379"/>
</filter>
<filter id="filter2_f_1163_5379" x="13.2021" y="0.597214" width="6" height="6" filterUnits="userSpaceOnUse" color-interpolation-filters="sRGB">
<feFlood flood-opacity="0" result="BackgroundImageFix"/>
<feBlend mode="normal" in="SourceGraphic" in2="BackgroundImageFix" result="shape"/>
<feGaussianBlur stdDeviation="0.5" result="effect1_foregroundBlur_1163_5379"/>
</filter>
<filter id="filter3_dii_1163_5379" x="12.6025" y="1.99794" width="44" height="44.3999" filterUnits="userSpaceOnUse" color-interpolation-filters="sRGB">
<feFlood flood-opacity="0" result="BackgroundImageFix"/>
<feColorMatrix in="SourceAlpha" type="matrix" values="0 0 0 0 0 0 0 0 0 0 0 0 0 0 0 0 0 0 127 0" result="hardAlpha"/>
<feOffset dy="4"/>
<feGaussianBlur stdDeviation="2"/>
<feComposite in2="hardAlpha" operator="out"/>
<feColorMatrix type="matrix" values="0 0 0 0 0 0 0 0 0 0 0 0 0 0 0 0 0 0 0.15 0"/>
<feBlend mode="normal" in2="BackgroundImageFix" result="effect1_dropShadow_1163_5379"/>
<feBlend mode="normal" in="SourceGraphic" in2="effect1_dropShadow_1163_5379" result="shape"/>
<feColorMatrix in="SourceAlpha" type="matrix" values="0 0 0 0 0 0 0 0 0 0 0 0 0 0 0 0 0 0 127 0" result="hardAlpha"/>
<feOffset dy="-2"/>
<feGaussianBlur stdDeviation="3"/>
<feComposite in2="hardAlpha" operator="arithmetic" k2="-1" k3="1"/>
<feColorMatrix type="matrix" values="0 0 0 0 0.177969 0 0 0 0 0.237768 0 0 0 0 0.279167 0 0 0 0.2 0"/>
<feBlend mode="normal" in2="shape" result="effect2_innerShadow_1163_5379"/>
<feColorMatrix in="SourceAlpha" type="matrix" values="0 0 0 0 0 0 0 0 0 0 0 0 0 0 0 0 0 0 127 0" result="hardAlpha"/>
<feOffset dy="2"/>
<feGaussianBlur stdDeviation="3"/>
<feComposite in2="hardAlpha" operator="arithmetic" k2="-1" k3="1"/>
<feColorMatrix type="matrix" values="0 0 0 0 1 0 0 0 0 1 0 0 0 0 1 0 0 0 0.25 0"/>
<feBlend mode="normal" in2="effect2_innerShadow_1163_5379" result="effect3_innerShadow_1163_5379"/>
</filter>
<filter id="filter4_i_1163_5379" x="23.8027" y="12.7986" width="22.4004" height="17.8013" filterUnits="userSpaceOnUse" color-interpolation-filters="sRGB">
<feFlood flood-opacity="0" result="BackgroundImageFix"/>
<feBlend mode="normal" in="SourceGraphic" in2="BackgroundImageFix" result="shape"/>
<feColorMatrix in="SourceAlpha" type="matrix" values="0 0 0 0 0 0 0 0 0 0 0 0 0 0 0 0 0 0 127 0" result="hardAlpha"/>
<feOffset dy="1"/>
<feGaussianBlur stdDeviation="1"/>
<feComposite in2="hardAlpha" operator="arithmetic" k2="-1" k3="1"/>
<feColorMatrix type="matrix" values="0 0 0 0 0 0 0 0 0 0 0 0 0 0 0 0 0 0 0.1 0"/>
<feBlend mode="normal" in2="shape" result="effect1_innerShadow_1163_5379"/>
</filter>
<filter id="filter5_dii_1163_5379" x="36.2031" y="17.198" width="15.2002" height="16.2" filterUnits="userSpaceOnUse" color-interpolation-filters="sRGB">
<feFlood flood-opacity="0" result="BackgroundImageFix"/>
<feColorMatrix in="SourceAlpha" type="matrix" values="0 0 0 0 0 0 0 0 0 0 0 0 0 0 0 0 0 0 127 0" result="hardAlpha"/>
<feOffset dy="1"/>
<feGaussianBlur stdDeviation="1"/>
<feComposite in2="hardAlpha" operator="out"/>
<feColorMatrix type="matrix" values="0 0 0 0 0 0 0 0 0 0 0 0 0 0 0 0 0 0 0.1 0"/>
<feBlend mode="normal" in2="BackgroundImageFix" result="effect1_dropShadow_1163_5379"/>
<feBlend mode="normal" in="SourceGraphic" in2="effect1_dropShadow_1163_5379" result="shape"/>
<feColorMatrix in="SourceAlpha" type="matrix" values="0 0 0 0 0 0 0 0 0 0 0 0 0 0 0 0 0 0 127 0" result="hardAlpha"/>
<feOffset dx="-2" dy="-2"/>
<feGaussianBlur stdDeviation="1.5"/>
<feComposite in2="hardAlpha" operator="arithmetic" k2="-1" k3="1"/>
<feColorMatrix type="matrix" values="0 0 0 0 0 0 0 0 0 0 0 0 0 0 0 0 0 0 0.15 0"/>
<feBlend mode="normal" in2="shape" result="effect2_innerShadow_1163_5379"/>
<feColorMatrix in="SourceAlpha" type="matrix" values="0 0 0 0 0 0 0 0 0 0 0 0 0 0 0 0 0 0 127 0" result="hardAlpha"/>
<feOffset dx="1" dy="1"/>
<feGaussianBlur stdDeviation="2.5"/>
<feComposite in2="hardAlpha" operator="arithmetic" k2="-1" k3="1"/>
<feColorMatrix type="matrix" values="0 0 0 0 1 0 0 0 0 1 0 0 0 0 1 0 0 0 0.6 0"/>
<feBlend mode="normal" in2="effect2_innerShadow_1163_5379" result="effect3_innerShadow_1163_5379"/>
</filter>
<filter id="filter6_d_1163_5379" x="39.1973" y="21.8119" width="9.93359" height="8.30492" filterUnits="userSpaceOnUse" color-interpolation-filters="sRGB">
<feFlood flood-opacity="0" result="BackgroundImageFix"/>
<feColorMatrix in="SourceAlpha" type="matrix" values="0 0 0 0 0 0 0 0 0 0 0 0 0 0 0 0 0 0 127 0" result="hardAlpha"/>
<feOffset dy="1"/>
<feGaussianBlur stdDeviation="1"/>
<feComposite in2="hardAlpha" operator="out"/>
<feColorMatrix type="matrix" values="0 0 0 0 0 0 0 0 0 0 0 0 0 0 0 0 0 0 0.3 0"/>
<feBlend mode="normal" in2="BackgroundImageFix" result="effect1_dropShadow_1163_5379"/>
<feBlend mode="normal" in="SourceGraphic" in2="effect1_dropShadow_1163_5379" result="shape"/>
</filter>
<filter id="filter7_b_1163_5379" x="4.99227" y="30.1417" width="23.4139" height="15.251" filterUnits="userSpaceOnUse" color-interpolation-filters="sRGB">
<feFlood flood-opacity="0" result="BackgroundImageFix"/>
<feGaussianBlur in="BackgroundImageFix" stdDeviation="1.97213"/>
<feComposite in2="SourceAlpha" operator="in" result="effect1_backgroundBlur_1163_5379"/>
<feBlend mode="normal" in="SourceGraphic" in2="effect1_backgroundBlur_1163_5379" result="shape"/>
</filter>
<filter id="filter8_bd_1163_5379" x="-2.27627" y="18.4382" width="38.0008" height="32.5017" filterUnits="userSpaceOnUse" color-interpolation-filters="sRGB">
<feFlood flood-opacity="0" result="BackgroundImageFix"/>
<feGaussianBlur in="BackgroundImageFix" stdDeviation="5.59029"/>
<feComposite in2="SourceAlpha" operator="in" result="effect1_backgroundBlur_1163_5379"/>
<feColorMatrix in="SourceAlpha" type="matrix" values="0 0 0 0 0 0 0 0 0 0 0 0 0 0 0 0 0 0 127 0" result="hardAlpha"/>
<feOffset dy="1.11806"/>
<feGaussianBlur stdDeviation="1.11806"/>
<feComposite in2="hardAlpha" operator="out"/>
<feColorMatrix type="matrix" values="0 0 0 0 0 0 0 0 0 0 0 0 0 0 0 0 0 0 0.1 0"/>
<feBlend mode="normal" in2="effect1_backgroundBlur_1163_5379" result="effect2_dropShadow_1163_5379"/>
<feBlend mode="normal" in="SourceGraphic" in2="effect2_dropShadow_1163_5379" result="shape"/>
</filter>
<filter id="filter9_i_1163_5379" x="12.4541" y="30.7377" width="10.1035" height="7.35652" filterUnits="userSpaceOnUse" color-interpolation-filters="sRGB">
<feFlood flood-opacity="0" result="BackgroundImageFix"/>
<feBlend mode="normal" in="SourceGraphic" in2="BackgroundImageFix" result="shape"/>
<feColorMatrix in="SourceAlpha" type="matrix" values="0 0 0 0 0 0 0 0 0 0 0 0 0 0 0 0 0 0 127 0" result="hardAlpha"/>
<feOffset dy="0.932692"/>
<feGaussianBlur stdDeviation="0.932692"/>
<feComposite in2="hardAlpha" operator="arithmetic" k2="-1" k3="1"/>
<feColorMatrix type="matrix" values="0 0 0 0 0 0 0 0 0 0 0 0 0 0 0 0 0 0 0.5 0"/>
<feBlend mode="normal" in2="shape" result="effect1_innerShadow_1163_5379"/>
</filter>
<filter id="filter10_f_1163_5379" x="6.93218" y="26.8288" width="19.3983" height="15.0628" filterUnits="userSpaceOnUse" color-interpolation-filters="sRGB">
<feFlood flood-opacity="0" result="BackgroundImageFix"/>
<feBlend mode="normal" in="SourceGraphic" in2="BackgroundImageFix" result="shape"/>
<feGaussianBlur stdDeviation="1.76926" result="effect1_foregroundBlur_1163_5379"/>
</filter>
<filter id="filter11_b_1163_5379" x="3.39168" y="26.1452" width="23.4139" height="15.251" filterUnits="userSpaceOnUse" color-interpolation-filters="sRGB">
<feFlood flood-opacity="0" result="BackgroundImageFix"/>
<feGaussianBlur in="BackgroundImageFix" stdDeviation="1.97213"/>
<feComposite in2="SourceAlpha" operator="in" result="effect1_backgroundBlur_1163_5379"/>
<feBlend mode="normal" in="SourceGraphic" in2="effect1_backgroundBlur_1163_5379" result="shape"/>
</filter>
<filter id="filter12_bd_1163_5379" x="-2.02321" y="16.2954" width="34.2935" height="28.7944" filterUnits="userSpaceOnUse" color-interpolation-filters="sRGB">
<feFlood flood-opacity="0" result="BackgroundImageFix"/>
<feGaussianBlur in="BackgroundImageFix" stdDeviation="4.66346"/>
<feComposite in2="SourceAlpha" operator="in" result="effect1_backgroundBlur_1163_5379"/>
<feColorMatrix in="SourceAlpha" type="matrix" values="0 0 0 0 0 0 0 0 0 0 0 0 0 0 0 0 0 0 127 0" result="hardAlpha"/>
<feOffset dy="0.932692"/>
<feGaussianBlur stdDeviation="0.932692"/>
<feComposite in2="hardAlpha" operator="out"/>
<feColorMatrix type="matrix" values="0 0 0 0 0 0 0 0 0 0 0 0 0 0 0 0 0 0 0.1 0"/>
<feBlend mode="normal" in2="effect1_backgroundBlur_1163_5379" result="effect2_dropShadow_1163_5379"/>
<feBlend mode="normal" in="SourceGraphic" in2="effect2_dropShadow_1163_5379" result="shape"/>
</filter>
<filter id="filter13_i_1163_5379" x="10.8545" y="26.739" width="10.1035" height="7.35652" filterUnits="userSpaceOnUse" color-interpolation-filters="sRGB">
<feFlood flood-opacity="0" result="BackgroundImageFix"/>
<feBlend mode="normal" in="SourceGraphic" in2="BackgroundImageFix" result="shape"/>
<feColorMatrix in="SourceAlpha" type="matrix" values="0 0 0 0 0 0 0 0 0 0 0 0 0 0 0 0 0 0 127 0" result="hardAlpha"/>
<feOffset dy="0.932692"/>
<feGaussianBlur stdDeviation="0.932692"/>
<feComposite in2="hardAlpha" operator="arithmetic" k2="-1" k3="1"/>
<feColorMatrix type="matrix" values="0 0 0 0 0 0 0 0 0 0 0 0 0 0 0 0 0 0 0.5 0"/>
<feBlend mode="normal" in2="shape" result="effect1_innerShadow_1163_5379"/>
</filter>
<linearGradient id="paint0_linear_1163_5379" x1="14.2021" y1="6.79391" x2="-3.02482" y2="22.6068" gradientUnits="userSpaceOnUse">
<stop offset="0.0768632" stop-color="#737373"/>
<stop offset="0.134224" stop-color="#FDFDFD"/>
<stop offset="0.210088" stop-color="#737373" stop-opacity="0.19"/>
<stop offset="0.304868" stop-color="#626161"/>
<stop offset="0.473832" stop-color="#9A9DA0"/>
<stop offset="0.601534" stop-color="#737373" stop-opacity="0.27"/>
<stop offset="1" stop-color="#4B4D48" stop-opacity="0"/>
</linearGradient>
<linearGradient id="paint1_linear_1163_5379" x1="17.4021" y1="4.79721" x2="15.0021" y2="2.39721" gradientUnits="userSpaceOnUse">
<stop stop-color="white"/>
<stop offset="0.993439" stop-color="white" stop-opacity="0"/>
</linearGradient>
<linearGradient id="paint2_linear_1163_5379" x1="17.8023" y1="-26.9997" x2="0.420266" y2="17.762" gradientUnits="userSpaceOnUse">
<stop stop-color="#3EBDA4"/>
<stop offset="1" stop-color="#4C54FF" stop-opacity="0"/>
</linearGradient>
<linearGradient id="paint3_linear_1163_5379" x1="7.04363" y1="39.8535" x2="28.1477" y2="44.2076" gradientUnits="userSpaceOnUse">
<stop offset="0.0768632" stop-color="#737373"/>
<stop offset="0.134224" stop-color="#FDFDFD"/>
<stop offset="0.210088" stop-color="#737373" stop-opacity="0.19"/>
<stop offset="0.304868" stop-color="#626161"/>
<stop offset="0.473832" stop-color="#9A9DA0"/>
<stop offset="0.601534" stop-color="#737373" stop-opacity="0.27"/>
<stop offset="1" stop-color="#4B4D48" stop-opacity="0"/>
</linearGradient>
<linearGradient id="paint4_linear_1163_5379" x1="9.27504" y1="38.554" x2="24.2855" y2="36.1395" gradientUnits="userSpaceOnUse">
<stop stop-color="#E1AF7C"/>
<stop offset="1" stop-color="#D2A272" stop-opacity="0"/>
</linearGradient>
<linearGradient id="paint5_linear_1163_5379" x1="5.44304" y1="35.857" x2="26.5471" y2="40.2111" gradientUnits="userSpaceOnUse">
<stop offset="0.0768632" stop-color="#737373"/>
<stop offset="0.134224" stop-color="#FDFDFD"/>
<stop offset="0.210088" stop-color="#737373" stop-opacity="0.19"/>
<stop offset="0.304868" stop-color="#626161"/>
<stop offset="0.473832" stop-color="#9A9DA0"/>
<stop offset="0.601534" stop-color="#737373" stop-opacity="0.27"/>
<stop offset="1" stop-color="#4B4D48" stop-opacity="0"/>
</linearGradient>
<linearGradient id="paint6_linear_1163_5379" x1="7.67445" y1="34.5575" x2="22.6849" y2="32.143" gradientUnits="userSpaceOnUse">
<stop stop-color="#D56060"/>
<stop offset="1" stop-color="#BE6363" stop-opacity="0.28"/>
</linearGradient>
</defs>
</svg>
