<svg viewBox="0 0 80 80" fill="none" xmlns="http://www.w3.org/2000/svg">
<circle cx="40" cy="40" r="40" fill="white" fill-opacity="0.04"/>
<g filter="url(#filter0_f_889_463)">
<ellipse cx="42.7973" cy="58.8023" rx="23.6" ry="4.4" fill="#17181F" fill-opacity="0.6"/>
</g>
<g filter="url(#filter1_f_889_463)">
<path fill-rule="evenodd" clip-rule="evenodd" d="M43.3783 60.002C52.9988 60.002 60.7977 59.1065 60.7977 58.002C60.7977 56.8974 52.9988 56.002 43.3783 56.002C36.6448 56.002 30.8036 56.4406 27.9043 57.0826L18.2168 56.802C18.2171 58.002 19.1455 61.762 25.9584 62.402C26.073 62.402 26.1956 62.4024 26.3256 62.4029C28.6853 62.4112 33.475 62.4283 36.4101 60.002C36.7146 59.9636 37.0416 59.923 37.3885 59.8806C39.2562 59.9591 41.2737 60.002 43.3783 60.002Z" fill="#17181F" fill-opacity="0.6"/>
</g>
<path d="M57.0796 21.6016C59.9316 21.6016 61.2082 23.7523 61.5487 24.9988C61.585 25.1316 61.5973 25.2687 61.5973 25.4063V55.58C61.5973 58.0003 60.0249 58.4648 59.1114 58.3951C59.0113 58.3874 58.9116 58.3782 58.8111 58.3782H26.962C24.2514 58.3782 23.3228 56.2462 23.1973 55.1802V24C23.1973 22.0813 24.4522 21.6016 25.0796 21.6016H57.0796Z" fill="url(#paint0_linear_889_463)" fill-opacity="0.6"/>
<g filter="url(#filter2_f_889_463)">
<path d="M25.5973 25.6016C25.5973 24.6416 26.6639 24.1349 27.1973 24.0016L25.1973 21.6016C23.5973 21.6016 23.1973 23.2016 23.1973 24.0016L25.5973 25.6016Z" fill="url(#paint1_linear_889_463)" fill-opacity="0.6"/>
</g>
<path d="M57.0796 21.6016C59.9316 21.6016 61.2082 23.7523 61.5487 24.9988C61.585 25.1316 61.5973 25.2687 61.5973 25.4063V55.58C61.5973 58.0003 60.0249 58.4648 59.1114 58.3951C59.0113 58.3874 58.9116 58.3782 58.8111 58.3782H26.962C24.2514 58.3782 23.3228 56.2462 23.1973 55.1802V24C23.1973 22.0813 24.4522 21.6016 25.0796 21.6016H57.0796Z" fill="url(#paint2_linear_889_463)" fill-opacity="0.8"/>
<path d="M25.8368 26.0025C25.8368 25.03 26.6251 24.2417 27.5976 24.2417L59.5976 24.2411C60.5701 24.2411 61.3585 25.0295 61.3585 26.002V56.4014C61.3585 57.3739 60.5702 58.1622 59.5977 58.1623L27.5977 58.1628C26.6252 58.1628 25.8368 57.3744 25.8368 56.4019V26.0025Z" fill="#282931" stroke="#4A4B55" stroke-width="0.478275"/>
<path d="M32.7988 33.8008C32.7988 33.2485 33.2465 32.8008 33.7988 32.8008H54.1988C54.7511 32.8008 55.1988 33.2485 55.1988 33.8008V34.2008C55.1988 34.7531 54.7511 35.2008 54.1988 35.2008H33.7988C33.2465 35.2008 32.7988 34.7531 32.7988 34.2008V33.8008Z" fill="#4A4B55"/>
<path d="M32.7988 41.002C32.7988 40.4497 33.2465 40.002 33.7988 40.002H42.1988C42.7511 40.002 43.1988 40.4497 43.1988 41.002V41.402C43.1988 41.9542 42.7511 42.402 42.1988 42.402H33.7988C33.2465 42.402 32.7988 41.9542 32.7988 41.402V41.002Z" fill="#4A4B55"/>
<path d="M32.7988 48.2012C32.7988 47.6489 33.2465 47.2012 33.7988 47.2012H42.1988C42.7511 47.2012 43.1988 47.6489 43.1988 48.2012V48.6012C43.1988 49.1535 42.7511 49.6012 42.1988 49.6012H33.7988C33.2465 49.6012 32.7988 49.1535 32.7988 48.6012V48.2012Z" fill="#4A4B55"/>
<g filter="url(#filter3_bd_889_463)">
<circle cx="52.7992" cy="44.8031" r="5.6" fill="#216C58" fill-opacity="0.5" shape-rendering="crispEdges"/>
</g>
<path d="M50.4922 44.8389L52.6483 46.4523L55.7628 43.1582" stroke="white"/>
<g filter="url(#filter4_b_889_463)">
<path d="M17.9487 55.9896L18.0102 54.0877L33.193 55.0179C33.193 55.0179 33.6989 56.0656 33.3104 58.0233C33.2301 58.428 33.1064 59.0303 32.4788 59.679C30.2828 61.9489 21.9731 62.618 18.6614 58.136C17.9506 57.3505 17.8901 56.3778 17.9487 55.9896Z" fill="url(#paint3_linear_889_463)" fill-opacity="0.8"/>
</g>
<path d="M17.9487 55.9896L18.0102 54.0877L33.193 55.0179C33.193 55.0179 33.6989 56.0656 33.3104 58.0233C33.2301 58.428 33.1064 59.0303 32.4788 59.679C30.2828 61.9489 21.9731 62.618 18.6614 58.136C17.9506 57.3505 17.8901 56.3778 17.9487 55.9896Z" fill="url(#paint4_linear_889_463)" fill-opacity="0.8"/>
<g filter="url(#filter5_bd_889_463)">
<ellipse rx="4.95561" ry="7.92489" transform="matrix(0.128255 -0.998147 0.983415 0.139919 25.7181 54.6917)" fill="#BA8E62"/>
<path d="M26.3322 49.9127C28.4583 50.2152 30.305 51.0352 31.5726 52.1076C32.8424 53.1818 33.512 54.4897 33.3466 55.7771C33.1812 57.0645 32.2056 58.1383 30.7103 58.8191C29.2175 59.4987 27.2301 59.7732 25.104 59.4707C22.9779 59.1682 21.1312 58.3482 19.8636 57.2758C18.5938 56.2016 17.9241 54.8937 18.0896 53.6063C18.255 52.3189 19.2306 51.2451 20.7259 50.5644C22.2187 49.8847 24.206 49.6102 26.3322 49.9127Z" stroke="#EEB67E" stroke-width="0.335417"/>
</g>
<g filter="url(#filter6_i_889_463)">
<path fill-rule="evenodd" clip-rule="evenodd" d="M25.5549 53.8444L24.8414 51.6934L29.49 54.2268L25.5549 53.8444ZM25.3942 54.1175L29.5083 54.5181L22.8974 56.1826L25.3942 54.1175ZM24.8049 53.9686L22.4739 55.9453L23.1629 52.6607L24.8049 53.9686ZM23.3634 52.3299L24.3195 51.6457L24.9567 53.5733L23.3634 52.3299ZM22.8126 52.2297L21.8242 56.7773L30.7927 54.5298L24.4392 51.0729L22.8126 52.2297Z" fill="white"/>
</g>
<path fill-rule="evenodd" clip-rule="evenodd" d="M25.5549 53.8444L24.8414 51.6934L29.49 54.2268L25.5549 53.8444ZM25.3942 54.1175L29.5083 54.5181L22.8974 56.1826L25.3942 54.1175ZM24.8049 53.9686L22.4739 55.9453L23.1629 52.6607L24.8049 53.9686ZM23.3634 52.3299L24.3195 51.6457L24.9567 53.5733L23.3634 52.3299ZM22.8126 52.2297L21.8242 56.7773L30.7927 54.5298L24.4392 51.0729L22.8126 52.2297Z" stroke="#AD6668" stroke-width="0.559615"/>
<path fill-rule="evenodd" clip-rule="evenodd" d="M25.5549 53.8444L24.8414 51.6934L29.49 54.2268L25.5549 53.8444ZM25.3942 54.1175L29.5083 54.5181L22.8974 56.1826L25.3942 54.1175ZM24.8049 53.9686L22.4739 55.9453L23.1629 52.6607L24.8049 53.9686ZM23.3634 52.3299L24.3195 51.6457L24.9567 53.5733L23.3634 52.3299ZM22.8126 52.2297L21.8242 56.7773L30.7927 54.5298L24.4392 51.0729L22.8126 52.2297Z" fill="white"/>
<g filter="url(#filter7_f_889_463)">
<ellipse rx="3.91817" ry="6.21733" transform="matrix(0.126578 -0.994615 0.987587 0.139215 25.6283 54.363)" fill="#2C180D"/>
</g>
<g filter="url(#filter8_b_889_463)">
<path d="M16.3491 51.9896L16.4105 50.0877L31.5934 51.0179C31.5934 51.0179 32.0993 52.0656 31.7108 54.0233C31.6305 54.428 31.5068 55.0303 30.8792 55.679C28.6832 57.9489 20.3735 58.618 17.0618 54.136C16.3509 53.3505 16.2905 52.3778 16.3491 51.9896Z" fill="url(#paint5_linear_889_463)" fill-opacity="0.8"/>
</g>
<path d="M16.3491 51.9896L16.4105 50.0877L31.5934 51.0179C31.5934 51.0179 32.0993 52.0656 31.7108 54.0233C31.6305 54.428 31.5068 55.0303 30.8792 55.679C28.6832 57.9489 20.3735 58.618 17.0618 54.136C16.3509 53.3505 16.2905 52.3778 16.3491 51.9896Z" fill="url(#paint6_linear_889_463)" fill-opacity="0.8"/>
<g filter="url(#filter9_bd_889_463)">
<ellipse rx="4.95561" ry="7.92489" transform="matrix(0.128255 -0.998147 0.983415 0.139919 24.1185 50.6917)" fill="#A74F4F" fill-opacity="0.9" shape-rendering="crispEdges"/>
<path d="M24.7361 45.8849C26.8666 46.188 28.7183 47.0099 29.9906 48.0862C31.2646 49.1639 31.9415 50.4805 31.7744 51.781C31.6073 53.0814 30.6224 54.1616 29.1221 54.8447C27.624 55.5268 25.6313 55.8016 23.5009 55.4985C21.3704 55.1954 19.5187 54.3735 18.2464 53.2973C16.9724 52.2195 16.2955 50.9029 16.4626 49.6024C16.6297 48.302 17.6146 47.2218 19.1148 46.5388C20.613 45.8567 22.6057 45.5818 24.7361 45.8849Z" stroke="#AA5959" stroke-width="0.279808" shape-rendering="crispEdges"/>
</g>
<g filter="url(#filter10_i_889_463)">
<path fill-rule="evenodd" clip-rule="evenodd" d="M23.9533 49.8444L23.2399 47.6934L27.8884 50.2268L23.9533 49.8444ZM23.7926 50.1175L27.9068 50.5181L21.2958 52.1826L23.7926 50.1175ZM23.2034 49.9686L20.8723 51.9453L21.5613 48.6607L23.2034 49.9686ZM21.7618 48.3299L22.7179 47.6457L23.3551 49.5733L21.7618 48.3299ZM21.2111 48.2297L20.2227 52.7773L29.1911 50.5298L22.8376 47.0729L21.2111 48.2297Z" fill="white"/>
</g>
<path fill-rule="evenodd" clip-rule="evenodd" d="M23.9533 49.8444L23.2399 47.6934L27.8884 50.2268L23.9533 49.8444ZM23.7926 50.1175L27.9068 50.5181L21.2958 52.1826L23.7926 50.1175ZM23.2034 49.9686L20.8723 51.9453L21.5613 48.6607L23.2034 49.9686ZM21.7618 48.3299L22.7179 47.6457L23.3551 49.5733L21.7618 48.3299ZM21.2111 48.2297L20.2227 52.7773L29.1911 50.5298L22.8376 47.0729L21.2111 48.2297Z" stroke="#AD6668" stroke-width="0.559615"/>
<path fill-rule="evenodd" clip-rule="evenodd" d="M23.9533 49.8444L23.2399 47.6934L27.8884 50.2268L23.9533 49.8444ZM23.7926 50.1175L27.9068 50.5181L21.2958 52.1826L23.7926 50.1175ZM23.2034 49.9686L20.8723 51.9453L21.5613 48.6607L23.2034 49.9686ZM21.7618 48.3299L22.7179 47.6457L23.3551 49.5733L21.7618 48.3299ZM21.2111 48.2297L20.2227 52.7773L29.1911 50.5298L22.8376 47.0729L21.2111 48.2297Z" fill="white"/>
<defs>
<filter id="filter0_f_889_463" x="9.19727" y="44.4023" width="67.1992" height="28.8008" filterUnits="userSpaceOnUse" color-interpolation-filters="sRGB">
<feFlood flood-opacity="0" result="BackgroundImageFix"/>
<feBlend mode="normal" in="SourceGraphic" in2="BackgroundImageFix" result="shape"/>
<feGaussianBlur stdDeviation="5" result="effect1_foregroundBlur_889_463"/>
</filter>
<filter id="filter1_f_889_463" x="16.2168" y="54.002" width="46.5801" height="10.4023" filterUnits="userSpaceOnUse" color-interpolation-filters="sRGB">
<feFlood flood-opacity="0" result="BackgroundImageFix"/>
<feBlend mode="normal" in="SourceGraphic" in2="BackgroundImageFix" result="shape"/>
<feGaussianBlur stdDeviation="1" result="effect1_foregroundBlur_889_463"/>
</filter>
<filter id="filter2_f_889_463" x="22.1973" y="20.6016" width="6" height="6" filterUnits="userSpaceOnUse" color-interpolation-filters="sRGB">
<feFlood flood-opacity="0" result="BackgroundImageFix"/>
<feBlend mode="normal" in="SourceGraphic" in2="BackgroundImageFix" result="shape"/>
<feGaussianBlur stdDeviation="0.5" result="effect1_foregroundBlur_889_463"/>
</filter>
<filter id="filter3_bd_889_463" x="38.3605" y="30.3644" width="28.8767" height="28.8767" filterUnits="userSpaceOnUse" color-interpolation-filters="sRGB">
<feFlood flood-opacity="0" result="BackgroundImageFix"/>
<feGaussianBlur in="BackgroundImageFix" stdDeviation="4.41937"/>
<feComposite in2="SourceAlpha" operator="in" result="effect1_backgroundBlur_889_463"/>
<feColorMatrix in="SourceAlpha" type="matrix" values="0 0 0 0 0 0 0 0 0 0 0 0 0 0 0 0 0 0 127 0" result="hardAlpha"/>
<feOffset dy="0.883874"/>
<feGaussianBlur stdDeviation="0.883874"/>
<feComposite in2="hardAlpha" operator="out"/>
<feColorMatrix type="matrix" values="0 0 0 0 0 0 0 0 0 0 0 0 0 0 0 0 0 0 0.1 0"/>
<feBlend mode="normal" in2="effect1_backgroundBlur_889_463" result="effect2_dropShadow_889_463"/>
<feBlend mode="normal" in="SourceGraphic" in2="effect2_dropShadow_889_463" result="shape"/>
</filter>
<filter id="filter4_b_889_463" x="13.9874" y="50.1436" width="23.4139" height="15.2498" filterUnits="userSpaceOnUse" color-interpolation-filters="sRGB">
<feFlood flood-opacity="0" result="BackgroundImageFix"/>
<feGaussianBlur in="BackgroundImageFix" stdDeviation="1.97213"/>
<feComposite in2="SourceAlpha" operator="in" result="effect1_backgroundBlur_889_463"/>
<feBlend mode="normal" in="SourceGraphic" in2="effect1_backgroundBlur_889_463" result="shape"/>
</filter>
<filter id="filter5_bd_889_463" x="6.71787" y="38.4405" width="37.9998" height="32.5018" filterUnits="userSpaceOnUse" color-interpolation-filters="sRGB">
<feFlood flood-opacity="0" result="BackgroundImageFix"/>
<feGaussianBlur in="BackgroundImageFix" stdDeviation="5.59029"/>
<feComposite in2="SourceAlpha" operator="in" result="effect1_backgroundBlur_889_463"/>
<feColorMatrix in="SourceAlpha" type="matrix" values="0 0 0 0 0 0 0 0 0 0 0 0 0 0 0 0 0 0 127 0" result="hardAlpha"/>
<feOffset dy="1.11806"/>
<feGaussianBlur stdDeviation="1.11806"/>
<feComposite in2="hardAlpha" operator="out"/>
<feColorMatrix type="matrix" values="0 0 0 0 0 0 0 0 0 0 0 0 0 0 0 0 0 0 0.1 0"/>
<feBlend mode="normal" in2="effect1_backgroundBlur_889_463" result="effect2_dropShadow_889_463"/>
<feBlend mode="normal" in="SourceGraphic" in2="effect2_dropShadow_889_463" result="shape"/>
</filter>
<filter id="filter6_i_889_463" x="21.4512" y="50.7422" width="10.1035" height="7.35652" filterUnits="userSpaceOnUse" color-interpolation-filters="sRGB">
<feFlood flood-opacity="0" result="BackgroundImageFix"/>
<feBlend mode="normal" in="SourceGraphic" in2="BackgroundImageFix" result="shape"/>
<feColorMatrix in="SourceAlpha" type="matrix" values="0 0 0 0 0 0 0 0 0 0 0 0 0 0 0 0 0 0 127 0" result="hardAlpha"/>
<feOffset dy="0.932692"/>
<feGaussianBlur stdDeviation="0.932692"/>
<feComposite in2="hardAlpha" operator="arithmetic" k2="-1" k3="1"/>
<feColorMatrix type="matrix" values="0 0 0 0 0 0 0 0 0 0 0 0 0 0 0 0 0 0 0.5 0"/>
<feBlend mode="normal" in2="shape" result="effect1_innerShadow_889_463"/>
</filter>
<filter id="filter7_f_889_463" x="15.9302" y="46.8306" width="19.3974" height="15.0634" filterUnits="userSpaceOnUse" color-interpolation-filters="sRGB">
<feFlood flood-opacity="0" result="BackgroundImageFix"/>
<feBlend mode="normal" in="SourceGraphic" in2="BackgroundImageFix" result="shape"/>
<feGaussianBlur stdDeviation="1.76926" result="effect1_foregroundBlur_889_463"/>
</filter>
<filter id="filter8_b_889_463" x="12.3878" y="46.1436" width="23.4139" height="15.2498" filterUnits="userSpaceOnUse" color-interpolation-filters="sRGB">
<feFlood flood-opacity="0" result="BackgroundImageFix"/>
<feGaussianBlur in="BackgroundImageFix" stdDeviation="1.97213"/>
<feComposite in2="SourceAlpha" operator="in" result="effect1_backgroundBlur_889_463"/>
<feBlend mode="normal" in="SourceGraphic" in2="effect1_backgroundBlur_889_463" result="shape"/>
</filter>
<filter id="filter9_bd_889_463" x="6.97191" y="36.2942" width="34.2925" height="28.7945" filterUnits="userSpaceOnUse" color-interpolation-filters="sRGB">
<feFlood flood-opacity="0" result="BackgroundImageFix"/>
<feGaussianBlur in="BackgroundImageFix" stdDeviation="4.66346"/>
<feComposite in2="SourceAlpha" operator="in" result="effect1_backgroundBlur_889_463"/>
<feColorMatrix in="SourceAlpha" type="matrix" values="0 0 0 0 0 0 0 0 0 0 0 0 0 0 0 0 0 0 127 0" result="hardAlpha"/>
<feOffset dy="0.932692"/>
<feGaussianBlur stdDeviation="0.932692"/>
<feComposite in2="hardAlpha" operator="out"/>
<feColorMatrix type="matrix" values="0 0 0 0 0 0 0 0 0 0 0 0 0 0 0 0 0 0 0.1 0"/>
<feBlend mode="normal" in2="effect1_backgroundBlur_889_463" result="effect2_dropShadow_889_463"/>
<feBlend mode="normal" in="SourceGraphic" in2="effect2_dropShadow_889_463" result="shape"/>
</filter>
<filter id="filter10_i_889_463" x="19.8496" y="46.7422" width="10.1035" height="7.35652" filterUnits="userSpaceOnUse" color-interpolation-filters="sRGB">
<feFlood flood-opacity="0" result="BackgroundImageFix"/>
<feBlend mode="normal" in="SourceGraphic" in2="BackgroundImageFix" result="shape"/>
<feColorMatrix in="SourceAlpha" type="matrix" values="0 0 0 0 0 0 0 0 0 0 0 0 0 0 0 0 0 0 127 0" result="hardAlpha"/>
<feOffset dy="0.932692"/>
<feGaussianBlur stdDeviation="0.932692"/>
<feComposite in2="hardAlpha" operator="arithmetic" k2="-1" k3="1"/>
<feColorMatrix type="matrix" values="0 0 0 0 0 0 0 0 0 0 0 0 0 0 0 0 0 0 0.5 0"/>
<feBlend mode="normal" in2="shape" result="effect1_innerShadow_889_463"/>
</filter>
<linearGradient id="paint0_linear_889_463" x1="23.1973" y1="26.7983" x2="5.9703" y2="42.6111" gradientUnits="userSpaceOnUse">
<stop offset="0.0768632" stop-color="#737373"/>
<stop offset="0.134224" stop-color="#FDFDFD"/>
<stop offset="0.210088" stop-color="#737373" stop-opacity="0.19"/>
<stop offset="0.304868" stop-color="#626161"/>
<stop offset="0.473832" stop-color="#9A9DA0"/>
<stop offset="0.601534" stop-color="#737373" stop-opacity="0.27"/>
<stop offset="1" stop-color="#4B4D48" stop-opacity="0"/>
</linearGradient>
<linearGradient id="paint1_linear_889_463" x1="26.3973" y1="24.8016" x2="23.9973" y2="22.4016" gradientUnits="userSpaceOnUse">
<stop stop-color="white"/>
<stop offset="0.993439" stop-color="white" stop-opacity="0"/>
</linearGradient>
<linearGradient id="paint2_linear_889_463" x1="26.7974" y1="-6.9953" x2="9.41538" y2="37.7664" gradientUnits="userSpaceOnUse">
<stop stop-color="#3EBDA4"/>
<stop offset="1" stop-color="#4C54FF" stop-opacity="0"/>
</linearGradient>
<linearGradient id="paint3_linear_889_463" x1="16.0387" y1="59.8553" x2="37.1428" y2="64.2094" gradientUnits="userSpaceOnUse">
<stop offset="0.0768632" stop-color="#737373"/>
<stop offset="0.134224" stop-color="#FDFDFD"/>
<stop offset="0.210088" stop-color="#737373" stop-opacity="0.19"/>
<stop offset="0.304868" stop-color="#626161"/>
<stop offset="0.473832" stop-color="#9A9DA0"/>
<stop offset="0.601534" stop-color="#737373" stop-opacity="0.27"/>
<stop offset="1" stop-color="#4B4D48" stop-opacity="0"/>
</linearGradient>
<linearGradient id="paint4_linear_889_463" x1="18.2702" y1="58.5558" x2="33.2806" y2="56.1412" gradientUnits="userSpaceOnUse">
<stop stop-color="#BA8E62"/>
<stop offset="1" stop-color="#BA8E62" stop-opacity="0"/>
</linearGradient>
<linearGradient id="paint5_linear_889_463" x1="14.4391" y1="55.8553" x2="35.5432" y2="60.2094" gradientUnits="userSpaceOnUse">
<stop offset="0.0768632" stop-color="#737373"/>
<stop offset="0.134224" stop-color="#FDFDFD"/>
<stop offset="0.210088" stop-color="#737373" stop-opacity="0.19"/>
<stop offset="0.304868" stop-color="#626161"/>
<stop offset="0.473832" stop-color="#9A9DA0"/>
<stop offset="0.601534" stop-color="#737373" stop-opacity="0.27"/>
<stop offset="1" stop-color="#4B4D48" stop-opacity="0"/>
</linearGradient>
<linearGradient id="paint6_linear_889_463" x1="16.6705" y1="54.5558" x2="31.681" y2="52.1412" gradientUnits="userSpaceOnUse">
<stop stop-color="#862828"/>
<stop offset="1" stop-color="#A74F4F" stop-opacity="0"/>
</linearGradient>
</defs>
</svg>
