<svg width="345" height="196" viewBox="0 0 345 196" fill="none" xmlns="http://www.w3.org/2000/svg">
<rect width="345" height="196" rx="10" fill="#31333A"/>
<g style="mix-blend-mode:exclusion">
<rect width="345" height="196" rx="10" fill="url(#paint0_linear_1601_506)"/>
</g>
<mask id="mask0_1601_506" style="mask-type:alpha" maskUnits="userSpaceOnUse" x="0" y="0" width="345" height="196">
<g style="mix-blend-mode:exclusion">
<rect y="9.15527e-05" width="345" height="196" rx="10" fill="url(#paint1_linear_1601_506)"/>
</g>
</mask>
<g mask="url(#mask0_1601_506)">
<g opacity="0.15">
<path d="M229.107 -36.7476C231.373 -51.6534 228.066 -63.5287 220.35 -69.6991L233.237 -58.525C240.956 -52.3556 244.598 -41.0847 242.332 -26.1753L229.107 -36.7476Z" fill="url(#paint2_linear_1601_506)" fill-opacity="0.8"/>
<path d="M136.495 35.3843C144.213 41.5522 156.007 42.6211 170.048 37.1292L183.273 47.7015C169.231 53.1934 157.438 52.1245 149.72 45.9566L136.495 35.3843Z" fill="url(#paint3_linear_1601_506)" fill-opacity="0.8"/>
<path d="M170.047 37.1303C198.132 26.1451 224.574 -6.93011 229.105 -36.7453L242.33 -26.1729C237.799 3.64223 211.357 36.7175 183.271 47.7027L170.047 37.1303Z" fill="url(#paint4_linear_1601_506)" fill-opacity="0.8"/>
<circle cx="54.6051" cy="54.6051" r="54.6051" transform="matrix(0.931297 -0.364261 -0.150264 0.988646 135.832 -51.1243)" fill="white"/>
<g filter="url(#filter0_bd_1601_506)">
<circle cx="54.6051" cy="54.6051" r="54.6051" transform="matrix(0.931297 -0.364261 -0.150264 0.988646 135.832 -51.1243)" fill="url(#paint5_linear_1601_506)"/>
<circle cx="54.6051" cy="54.6051" r="54.1051" transform="matrix(0.931297 -0.364261 -0.150264 0.988646 135.832 -51.1243)" stroke="url(#paint6_linear_1601_506)"/>
</g>
<g filter="url(#filter1_bd_1601_506)">
<circle cx="47.1717" cy="47.1717" r="47.1717" transform="matrix(0.931297 -0.364261 -0.150264 0.988646 141.524 -45.6836)" fill="url(#paint7_linear_1601_506)" fill-opacity="0.5" shape-rendering="crispEdges"/>
</g>
<g opacity="0.4">
<mask id="mask1_1601_506" style="mask-type:alpha" maskUnits="userSpaceOnUse" x="156" y="-15" width="36" height="31">
<path d="M156.848 15.8491L191.961 -6.81138L179.837 -14.8371L162.316 -7.93005L156.848 15.8491Z" fill="url(#paint8_linear_1601_506)"/>
</mask>
<g mask="url(#mask1_1601_506)">
<path opacity="0.5" d="M153.995 18.3163L191.962 -6.81148L179.837 -14.8372L149.483 18.3419L153.995 18.3163Z" fill="url(#paint9_linear_1601_506)"/>
</g>
<path fill-rule="evenodd" clip-rule="evenodd" d="M178.116 -18.5713C178.117 -18.5248 178.103 -18.4792 178.074 -18.4424L149.708 18.4093C149.568 18.5909 149.282 18.4329 149.362 18.218L176.477 -55.1336C176.553 -55.3393 176.857 -55.2903 176.865 -55.0711L178.116 -18.5713Z" fill="white"/>
<path fill-rule="evenodd" clip-rule="evenodd" d="M211.488 -26.4648L211.673 -25.6935L189.44 -14.3268C189.303 -14.2571 189.293 -14.0664 189.42 -13.9819L198.755 -7.8028C198.878 -7.72173 198.874 -7.54071 198.748 -7.46481L146.64 23.9924L145.39 23.1649L190.94 -6.61629C191.061 -6.69497 191.061 -6.87111 190.941 -6.95046L179.573 -14.476C179.436 -14.5666 179.46 -14.7743 179.614 -14.8306L211.488 -26.4648Z" fill="url(#paint10_linear_1601_506)"/>
</g>
</g>
</g>
<defs>
<filter id="filter0_bd_1601_506" x="116.718" y="-84.8218" width="123.524" height="135.584" filterUnits="userSpaceOnUse" color-interpolation-filters="sRGB">
<feFlood flood-opacity="0" result="BackgroundImageFix"/>
<feGaussianBlur in="BackgroundImageFix" stdDeviation="5.12184"/>
<feComposite in2="SourceAlpha" operator="in" result="effect1_backgroundBlur_1601_506"/>
<feColorMatrix in="SourceAlpha" type="matrix" values="0 0 0 0 0 0 0 0 0 0 0 0 0 0 0 0 0 0 127 0" result="hardAlpha"/>
<feOffset dy="1.02437"/>
<feGaussianBlur stdDeviation="1.02437"/>
<feComposite in2="hardAlpha" operator="out"/>
<feColorMatrix type="matrix" values="0 0 0 0 0 0 0 0 0 0 0 0 0 0 0 0 0 0 0.1 0"/>
<feBlend mode="normal" in2="effect1_backgroundBlur_1601_506" result="effect2_dropShadow_1601_506"/>
<feBlend mode="normal" in="SourceGraphic" in2="effect2_dropShadow_1601_506" result="shape"/>
</filter>
<filter id="filter1_bd_1601_506" x="123.618" y="-76.1884" width="109.499" height="120.697" filterUnits="userSpaceOnUse" color-interpolation-filters="sRGB">
<feFlood flood-opacity="0" result="BackgroundImageFix"/>
<feGaussianBlur in="BackgroundImageFix" stdDeviation="5.12184"/>
<feComposite in2="SourceAlpha" operator="in" result="effect1_backgroundBlur_1601_506"/>
<feColorMatrix in="SourceAlpha" type="matrix" values="0 0 0 0 0 0 0 0 0 0 0 0 0 0 0 0 0 0 127 0" result="hardAlpha"/>
<feOffset dy="1.02437"/>
<feGaussianBlur stdDeviation="5"/>
<feComposite in2="hardAlpha" operator="out"/>
<feColorMatrix type="matrix" values="0 0 0 0 0 0 0 0 0 0 0 0 0 0 0 0 0 0 0.1 0"/>
<feBlend mode="normal" in2="effect1_backgroundBlur_1601_506" result="effect2_dropShadow_1601_506"/>
<feBlend mode="normal" in="SourceGraphic" in2="effect2_dropShadow_1601_506" result="shape"/>
</filter>
<linearGradient id="paint0_linear_1601_506" x1="227.052" y1="157.785" x2="288.302" y2="-34.7211" gradientUnits="userSpaceOnUse">
<stop stop-color="#444CFF" stop-opacity="0"/>
<stop offset="0.445737" stop-color="#2521FF" stop-opacity="0.28"/>
<stop offset="1" stop-color="#37DAFF"/>
</linearGradient>
<linearGradient id="paint1_linear_1601_506" x1="227.052" y1="157.785" x2="288.302" y2="-34.721" gradientUnits="userSpaceOnUse">
<stop stop-color="#444CFF" stop-opacity="0"/>
<stop offset="0.445737" stop-color="#2521FF" stop-opacity="0.28"/>
<stop offset="1" stop-color="#37DAFF"/>
</linearGradient>
<linearGradient id="paint2_linear_1601_506" x1="154.367" y1="43.5001" x2="220.799" y2="-49.4314" gradientUnits="userSpaceOnUse">
<stop stop-color="#0F134A"/>
<stop offset="1" stop-color="#3A40AD" stop-opacity="0"/>
</linearGradient>
<linearGradient id="paint3_linear_1601_506" x1="154.367" y1="43.5001" x2="220.799" y2="-49.4314" gradientUnits="userSpaceOnUse">
<stop stop-color="#0F134A"/>
<stop offset="1" stop-color="#3A40AD" stop-opacity="0"/>
</linearGradient>
<linearGradient id="paint4_linear_1601_506" x1="154.367" y1="43.5001" x2="220.799" y2="-49.4314" gradientUnits="userSpaceOnUse">
<stop stop-color="#0F134A"/>
<stop offset="1" stop-color="#3A40AD" stop-opacity="0"/>
</linearGradient>
<linearGradient id="paint5_linear_1601_506" x1="72.3929" y1="-15.8105" x2="69.2548" y2="105.79" gradientUnits="userSpaceOnUse">
<stop stop-color="#549797"/>
<stop offset="0.958231" stop-color="#295183"/>
</linearGradient>
<linearGradient id="paint6_linear_1601_506" x1="54.6051" y1="0" x2="54.6051" y2="109.21" gradientUnits="userSpaceOnUse">
<stop stop-color="#6496B8"/>
<stop offset="1" stop-color="#6496B8" stop-opacity="0"/>
</linearGradient>
<linearGradient id="paint7_linear_1601_506" x1="62.538" y1="-13.6582" x2="59.8272" y2="91.389" gradientUnits="userSpaceOnUse">
<stop stop-color="#191F86" stop-opacity="0.9"/>
<stop offset="1" stop-color="#5DD7DE" stop-opacity="0.7"/>
</linearGradient>
<linearGradient id="paint8_linear_1601_506" x1="189.405" y1="-4.57949" x2="156.746" y2="-2.03633" gradientUnits="userSpaceOnUse">
<stop stop-color="white"/>
<stop offset="1" stop-color="white" stop-opacity="0"/>
</linearGradient>
<linearGradient id="paint9_linear_1601_506" x1="171.962" y1="6.11134" x2="166.218" y2="-0.805408" gradientUnits="userSpaceOnUse">
<stop stop-color="#1204D3" stop-opacity="0.8"/>
<stop offset="1" stop-color="#0012F0" stop-opacity="0"/>
</linearGradient>
<linearGradient id="paint10_linear_1601_506" x1="206.158" y1="-22.4617" x2="144.291" y2="-7.05243" gradientUnits="userSpaceOnUse">
<stop stop-color="white" stop-opacity="0"/>
<stop offset="0.124501" stop-color="white" stop-opacity="0.71"/>
<stop offset="0.256651" stop-color="white"/>
<stop offset="0.578781" stop-color="white" stop-opacity="0.97"/>
<stop offset="0.79384" stop-color="#9EBAFE"/>
<stop offset="0.986914" stop-color="#7DF7E9" stop-opacity="0"/>
</linearGradient>
</defs>
</svg>
