<svg width="345" height="196" viewBox="0 0 345 196" fill="none" xmlns="http://www.w3.org/2000/svg">
<rect width="345" height="196" rx="10" fill="white"/>
<rect width="345" height="196" rx="10" fill="url(#paint0_linear_1601_503)" fill-opacity="0.4"/>
<mask id="mask0_1601_503" style="mask-type:alpha" maskUnits="userSpaceOnUse" x="0" y="0" width="345" height="196">
<rect width="345" height="196" rx="10" fill="url(#paint1_linear_1601_503)" fill-opacity="0.4"/>
</mask>
<g mask="url(#mask0_1601_503)">
<g opacity="0.2">
<path d="M227.041 -41.6752C226.986 -41.7198 226.958 -41.7916 226.969 -41.8623C229.2 -56.7141 225.89 -68.5442 218.194 -74.6988L231.08 -63.5247C238.74 -57.4029 242.385 -46.2583 240.227 -31.52C240.205 -31.3676 240.026 -31.2951 239.905 -31.3912L227.041 -41.6752Z" fill="url(#paint2_linear_1601_503)"/>
<path d="M134.339 30.3846C142.037 36.5366 153.79 37.6159 167.783 32.1718C167.85 32.1459 167.926 32.157 167.982 32.2016L180.846 42.4855C180.966 42.5817 180.935 42.7727 180.791 42.828C166.893 48.1769 155.222 47.0772 147.564 40.957L134.339 30.3846Z" fill="url(#paint3_linear_1601_503)"/>
<path d="M168.161 32.347C168.041 32.2508 168.068 32.0612 168.211 32.0044C196.07 20.9363 222.234 -11.792 226.897 -41.4046C226.92 -41.5567 227.099 -41.6248 227.22 -41.5286L240.084 -31.2447C240.14 -31.2001 240.167 -31.1298 240.157 -31.0591C235.581 -1.3114 209.232 31.6479 181.222 42.6611C181.156 42.6873 181.081 42.6755 181.025 42.6309L168.161 32.347Z" fill="url(#paint4_linear_1601_503)"/>
<circle cx="54.6051" cy="54.6051" r="54.6051" transform="matrix(0.931297 -0.364261 -0.150264 0.988646 133.676 -56.1239)" fill="white"/>
<g filter="url(#filter0_bd_1601_503)">
<circle cx="54.6051" cy="54.6051" r="54.6051" transform="matrix(0.931297 -0.364261 -0.150264 0.988646 133.676 -56.1239)" fill="#5E94DD"/>
</g>
<circle cx="47.1717" cy="47.1717" r="47.1717" transform="matrix(0.931297 -0.364261 -0.150264 0.988646 139.368 -50.6832)" fill="white"/>
<mask id="mask1_1601_503" style="mask-type:alpha" maskUnits="userSpaceOnUse" x="155" y="-22" width="36" height="32">
<path d="M155.011 9.50265L190.273 -12.687L175.448 -21.1223L157.117 -14.5188L155.011 9.50265Z" fill="url(#paint5_linear_1601_503)"/>
</mask>
<g mask="url(#mask1_1601_503)">
<path opacity="0.5" d="M152.248 11.9415L190.272 -12.6868L175.447 -21.1222L147.235 11.8617L152.248 11.9415Z" fill="url(#paint6_linear_1601_503)"/>
</g>
<path fill-rule="evenodd" clip-rule="evenodd" d="M172.907 -24.9657C172.917 -24.9125 172.906 -24.8571 172.875 -24.8124L147.392 12.0866C147.266 12.2691 146.981 12.1414 147.033 11.9258L164.996 -62.2112C165.046 -62.4191 165.344 -62.4134 165.386 -62.2037L172.907 -24.9657Z" fill="url(#paint7_linear_1601_503)"/>
<path fill-rule="evenodd" clip-rule="evenodd" d="M208.704 -32.1889L209.039 -31.4012L186.243 -20.3935C186.097 -20.3234 186.091 -20.1193 186.231 -20.0396L197.684 -13.523C197.818 -13.4468 197.819 -13.254 197.686 -13.1764L145.02 17.533L143.491 16.6632L189.146 -12.4977C189.273 -12.5787 189.268 -12.7656 189.137 -12.8401L175.201 -20.7695C175.051 -20.8552 175.073 -21.0788 175.237 -21.1332L208.704 -32.1889Z" fill="url(#paint8_linear_1601_503)"/>
</g>
</g>
<defs>
<filter id="filter0_bd_1601_503" x="112.661" y="-91.7223" width="127.326" height="139.386" filterUnits="userSpaceOnUse" color-interpolation-filters="sRGB">
<feFlood flood-opacity="0" result="BackgroundImageFix"/>
<feGaussianBlur in="BackgroundImageFix" stdDeviation="6.07228"/>
<feComposite in2="SourceAlpha" operator="in" result="effect1_backgroundBlur_1601_503"/>
<feColorMatrix in="SourceAlpha" type="matrix" values="0 0 0 0 0 0 0 0 0 0 0 0 0 0 0 0 0 0 127 0" result="hardAlpha"/>
<feOffset dy="1.21446"/>
<feGaussianBlur stdDeviation="1.21446"/>
<feComposite in2="hardAlpha" operator="out"/>
<feColorMatrix type="matrix" values="0 0 0 0 0 0 0 0 0 0 0 0 0 0 0 0 0 0 0.1 0"/>
<feBlend mode="normal" in2="effect1_backgroundBlur_1601_503" result="effect2_dropShadow_1601_503"/>
<feBlend mode="normal" in="SourceGraphic" in2="effect2_dropShadow_1601_503" result="shape"/>
</filter>
<linearGradient id="paint0_linear_1601_503" x1="204.369" y1="116.053" x2="295.658" y2="-49.3399" gradientUnits="userSpaceOnUse">
<stop stop-color="#444CFF" stop-opacity="0"/>
<stop offset="0.445737" stop-color="#2521FF" stop-opacity="0.28"/>
<stop offset="1" stop-color="#37B7FF"/>
</linearGradient>
<linearGradient id="paint1_linear_1601_503" x1="204.369" y1="116.053" x2="295.658" y2="-49.3399" gradientUnits="userSpaceOnUse">
<stop stop-color="#444CFF" stop-opacity="0"/>
<stop offset="0.445737" stop-color="#2521FF" stop-opacity="0.28"/>
<stop offset="1" stop-color="#37B7FF"/>
</linearGradient>
<linearGradient id="paint2_linear_1601_503" x1="144.711" y1="39.5003" x2="224.406" y2="10.8327" gradientUnits="userSpaceOnUse">
<stop stop-color="#272D9A"/>
<stop offset="1" stop-color="#272D9A" stop-opacity="0.42"/>
</linearGradient>
<linearGradient id="paint3_linear_1601_503" x1="144.711" y1="39.5003" x2="224.406" y2="10.8327" gradientUnits="userSpaceOnUse">
<stop stop-color="#272D9A"/>
<stop offset="1" stop-color="#272D9A" stop-opacity="0.42"/>
</linearGradient>
<linearGradient id="paint4_linear_1601_503" x1="144.711" y1="39.5003" x2="224.406" y2="10.8327" gradientUnits="userSpaceOnUse">
<stop stop-color="#272D9A"/>
<stop offset="1" stop-color="#272D9A" stop-opacity="0.42"/>
</linearGradient>
<linearGradient id="paint5_linear_1601_503" x1="187.804" y1="-10.4803" x2="153.583" y2="-1.94529" gradientUnits="userSpaceOnUse">
<stop stop-color="white"/>
<stop offset="1" stop-color="white" stop-opacity="0"/>
</linearGradient>
<linearGradient id="paint6_linear_1601_503" x1="170.191" y1="-0.0319508" x2="163.531" y2="-7.93686" gradientUnits="userSpaceOnUse">
<stop stop-color="#1204D3"/>
<stop offset="1" stop-color="#0012F0" stop-opacity="0"/>
</linearGradient>
<linearGradient id="paint7_linear_1601_503" x1="145.279" y1="6.23344" x2="124.571" y2="-10.5647" gradientUnits="userSpaceOnUse">
<stop stop-color="#4950D4"/>
<stop offset="1" stop-color="#7CF6E8"/>
</linearGradient>
<linearGradient id="paint8_linear_1601_503" x1="203.446" y1="-28.2484" x2="142.556" y2="-1.77199" gradientUnits="userSpaceOnUse">
<stop stop-color="#7DF7E9" stop-opacity="0"/>
<stop offset="0.124501" stop-color="#4955D3" stop-opacity="0.71"/>
<stop offset="0.256651" stop-color="#4856D3"/>
<stop offset="0.578781" stop-color="#4A51D5" stop-opacity="0.97"/>
<stop offset="0.79384" stop-color="#9EBAFE"/>
<stop offset="0.986914" stop-color="#7DF7E9" stop-opacity="0"/>
</linearGradient>
</defs>
</svg>
