<svg width="14" height="10" viewBox="0 0 14 10" fill="none" xmlns="http://www.w3.org/2000/svg">
<g clip-path="url(#clip0_71_2472)">
<path d="M9.29486 4.16751L1.71153 4.16751C1.38778 4.16751 1.1282 4.35585 1.1282 4.58835L1.1282 5.41335C1.12743 5.46841 1.14194 5.52304 1.17091 5.57408C1.19988 5.62511 1.24273 5.67154 1.29697 5.71067C1.35122 5.74981 1.41579 5.78087 1.48694 5.80207C1.5581 5.82327 1.63443 5.83418 1.71153 5.83418L9.29486 5.83418L9.29486 6.66376C9.29486 7.12501 9.71253 7.2771 10.2282 7.00126L13.0282 5.50085C13.5474 5.22251 13.5439 4.7771 13.0282 4.50085L10.2282 3.00085C9.70903 2.72251 9.29486 2.87585 9.29486 3.33793L9.29486 4.16751Z" fill="#545669"/>
</g>
<defs>
<clipPath id="clip0_71_2472">
<rect width="10" height="14" fill="white" transform="translate(14) rotate(90)"/>
</clipPath>
</defs>
</svg>
