<svg width="20" height="20" viewBox="0 0 20 20" fill="none" xmlns="http://www.w3.org/2000/svg">
<g clip-path="url(#clip0_505_465)">
<path d="M19.7959 0H0.204102V19.5918H19.7959V0Z" fill="white" fill-opacity="0.01"/>
<path d="M19.5918 0H0V19.5918H19.5918V0Z" fill="white" fill-opacity="0.01"/>
<path d="M3 4.05096L10.0277 2L17.0486 4.05096V8.25698C17.0486 12.6778 14.2195 16.6025 10.0253 18C5.83005 16.6026 3 12.6769 3 8.25503V4.05096Z" stroke="#0F134F" stroke-width="1.1" stroke-linejoin="round"/>
<path d="M9.51663 12.0604C9.39426 12.0604 9.27101 12.0604 9.14864 11.9389L7.18456 10.1096C7.12629 10.0548 7.07986 9.98863 7.04812 9.9152C7.01637 9.84178 7 9.76263 7 9.68264C7 9.60264 7.01637 9.52349 7.04812 9.45007C7.07986 9.37664 7.12629 9.31049 7.18456 9.25568C7.24017 9.19783 7.30688 9.1518 7.3807 9.12037C7.45453 9.08893 7.53394 9.07272 7.61418 9.07272C7.69442 9.07272 7.77383 9.08893 7.84765 9.12037C7.92148 9.1518 7.98819 9.19783 8.04379 9.25568L9.88551 10.9626C9.94378 11.0174 9.99021 11.0836 10.022 11.157C10.0537 11.2304 10.0701 11.3096 10.0701 11.3896C10.0701 11.4696 10.0537 11.5487 10.022 11.6221C9.99021 11.6956 9.94378 11.7617 9.88551 11.8165C9.88551 11.938 9.63988 12.0604 9.51663 12.0604ZM9.51663 12.0604C9.39426 12.0604 9.14864 11.9389 9.02539 11.8165C8.96712 11.7617 8.92068 11.6956 8.88894 11.6221C8.8572 11.5487 8.84082 11.4696 8.84082 11.3896C8.84082 11.3096 8.8572 11.2304 8.88894 11.157C8.92068 11.0836 8.96712 11.0174 9.02539 10.9626L12.9553 7.18342C13.0109 7.12543 13.0777 7.07929 13.1516 7.04777C13.2255 7.01625 13.305 7 13.3854 7C13.4657 7 13.5452 7.01625 13.6191 7.04777C13.6931 7.07929 13.7598 7.12543 13.8154 7.18342C13.8737 7.23823 13.9201 7.30438 13.9519 7.37781C13.9836 7.45123 14 7.53038 14 7.61038C14 7.69037 13.9836 7.76952 13.9519 7.84295C13.9201 7.91637 13.8737 7.98253 13.8154 8.03733L9.88639 11.9389C9.76314 12.0604 9.63988 12.0604 9.51663 12.0604Z" fill="#0F134F"/>
</g>
<defs>
<clipPath id="clip0_505_465">
<rect width="20" height="20" fill="white"/>
</clipPath>
</defs>
</svg>
