<svg width="390" height="89" viewBox="0 0 390 89" fill="none" xmlns="http://www.w3.org/2000/svg">
<g opacity="0.5">
<mask id="mask0_365_32080" style="mask-type:alpha" maskUnits="userSpaceOnUse" x="0" y="0" width="390" height="89">
<rect width="390" height="89" fill="#262842"/>
</mask>
<g mask="url(#mask0_365_32080)">
<path fill-rule="evenodd" clip-rule="evenodd" d="M245.9 71.7502C247.945 70.5906 250.333 70.1884 252.644 70.6142L275.322 74.7915C278.029 75.2901 280.821 74.6511 283.042 73.0249L342.738 29.308C346.243 26.741 351.005 26.7311 354.521 29.2835L392.47 56.833C397.725 60.6481 398.007 68.3822 393.043 72.5693L371.994 90.3242C357.119 80.4905 342.245 70.6571 327.371 60.8234C327.371 60.8234 313.558 68.5498 297.622 77.681L327.371 60.8234C368.8 88.2125 371.994 90.3242 371.994 90.3242L404.756 72.8757C408.115 71.0871 412.197 71.3594 415.288 73.5782L422.176 78.5221C430.07 84.188 426.061 96.6459 416.345 96.6459H209.581C207.527 96.6459 206.807 93.9196 208.594 92.9062L245.9 71.7502Z" fill="#8287FF" fill-opacity="0.1"/>
<path d="M261.762 23.6461L273.659 11.7425C274.649 10.7525 276.283 10.7525 277.295 11.7425C278.285 12.7326 278.285 14.3673 277.295 15.3804L274.81 17.867L281.023 24.1066L283.393 21.7351C285.073 20.0543 287.812 20.0543 289.491 21.7351L294.324 26.5702C299.225 31.4743 299.225 39.4177 294.324 44.3219C289.422 49.226 281.483 49.226 276.582 44.3219L271.749 39.4868C270.07 37.806 270.07 35.0661 271.749 33.3853L274.097 31.0369L267.86 24.7973L265.375 27.2839C264.386 28.274 262.752 28.274 261.739 27.2839C260.75 26.2708 260.75 24.6361 261.762 23.6461ZM280.356 32.4414L289.307 41.3978C289.606 41.6971 289.975 41.8353 290.366 41.8353C290.757 41.8353 291.125 41.6971 291.424 41.3978C292 40.8222 292 39.8782 291.424 39.2796L282.473 30.3231C281.898 29.7475 280.954 29.7475 280.356 30.3231C279.757 30.9217 279.757 31.8657 280.356 32.4414Z" fill="#8287FF" fill-opacity="0.1"/>
</g>
</g>
</svg>
