<svg width="12" height="10" viewBox="0 0 12 10" fill="none" xmlns="http://www.w3.org/2000/svg">
<path d="M9.40094 9.31408C9.50009 9.40964 9.62411 9.45747 9.74811 9.45747C9.75215 9.45747 9.86372 9.4707 9.92165 9.43356C9.99601 9.38579 10.0456 9.33787 10.0952 9.2901L11.5993 7.74634C11.7976 7.55512 11.7976 7.26819 11.5993 7.10086C11.5001 7.00527 11.3761 6.95747 11.2522 6.95747C11.1282 6.95747 11.0042 7.00527 10.9051 7.10086L10.1944 7.87979L10.1944 3.91164C10.1944 3.64868 9.97118 3.45747 9.72325 3.45747C9.4753 3.45747 9.25219 3.67266 9.25219 3.91164L9.25219 8.95544C9.2522 9.07504 9.30174 9.21843 9.40094 9.31408Z" fill="#4C54FF"/>
<rect x="0.252075" y="0.459808" width="11" height="1" rx="0.5" fill="#4C54FF"/>
<rect x="0.252075" y="4.45981" width="7" height="1" rx="0.5" fill="#4C54FF"/>
<rect x="0.252075" y="8.45981" width="7" height="1" rx="0.5" fill="#4C54FF"/>
</svg>
