<svg width="12" height="10" viewBox="0 0 12 10" fill="none" xmlns="http://www.w3.org/2000/svg">
<path d="M9.40082 9.31408C9.49996 9.40964 9.62399 9.45747 9.74799 9.45747C9.75203 9.45747 9.8636 9.4707 9.92153 9.43356C9.99589 9.38579 10.0455 9.33787 10.0951 9.2901L11.5992 7.74634C11.7975 7.55512 11.7975 7.26819 11.5992 7.10086C11.5 7.00527 11.376 6.95747 11.2521 6.95747C11.1281 6.95747 11.0041 7.00527 10.905 7.10086L10.1943 7.87979L10.1943 3.91164C10.1943 3.64868 9.97106 3.45747 9.72313 3.45747C9.47518 3.45747 9.25207 3.67266 9.25207 3.91164L9.25207 8.95544C9.25208 9.07504 9.30161 9.21843 9.40082 9.31408Z" fill="white"/>
<rect x="0.252075" y="0.459808" width="11" height="1" rx="0.5" fill="white"/>
<rect x="0.252075" y="4.45981" width="7" height="1" rx="0.5" fill="white"/>
<rect x="0.252075" y="8.45981" width="7" height="1" rx="0.5" fill="white"/>
</svg>
