<svg width="12" height="10" viewBox="0 0 12 10" fill="none" xmlns="http://www.w3.org/2000/svg">
<path d="M9.40082 3.64338C9.49996 3.54782 9.62399 3.49999 9.74799 3.49999C9.75203 3.49999 9.8636 3.48676 9.92153 3.5239C9.99589 3.57167 10.0455 3.61959 10.0951 3.66735L11.5992 5.21112C11.7975 5.40234 11.7975 5.68927 11.5992 5.8566C11.5 5.95219 11.376 5.99999 11.2521 5.99999C11.1281 5.99999 11.0041 5.95219 10.905 5.8566L10.1943 5.07767L10.1943 9.04582C10.1943 9.30878 9.97106 9.49999 9.72313 9.49999C9.47518 9.49999 9.25207 9.2848 9.25207 9.04582L9.25207 4.00202C9.25208 3.88242 9.30161 3.73903 9.40082 3.64338Z" fill="white"/>
<rect x="0.252075" y="0.5" width="11" height="1" rx="0.5" fill="white"/>
<rect x="0.252075" y="4.5" width="7" height="1" rx="0.5" fill="white"/>
<rect x="0.252075" y="8.5" width="7" height="1" rx="0.5" fill="white"/>
</svg>
