<svg width="12" height="10" viewBox="0 0 12 10" fill="none" xmlns="http://www.w3.org/2000/svg">
<path d="M9.40094 3.64338C9.50009 3.54782 9.62411 3.49999 9.74811 3.49999C9.75215 3.49999 9.86372 3.48676 9.92165 3.5239C9.99601 3.57167 10.0456 3.61959 10.0952 3.66735L11.5993 5.21112C11.7976 5.40234 11.7976 5.68927 11.5993 5.8566C11.5001 5.95219 11.3761 5.99999 11.2522 5.99999C11.1282 5.99999 11.0042 5.95219 10.9051 5.8566L10.1944 5.07767L10.1944 9.04582C10.1944 9.30878 9.97118 9.49999 9.72325 9.49999C9.4753 9.49999 9.25219 9.2848 9.25219 9.04582L9.25219 4.00202C9.2522 3.88242 9.30174 3.73903 9.40094 3.64338Z" fill="#4C54FF"/>
<rect x="0.252075" y="0.5" width="11" height="1" rx="0.5" fill="#4C54FF"/>
<rect x="0.252075" y="4.5" width="7" height="1" rx="0.5" fill="#4C54FF"/>
<rect x="0.252075" y="8.5" width="7" height="1" rx="0.5" fill="#4C54FF"/>
</svg>
