<svg width="13" height="14" viewBox="0 0 13 14" fill="none" xmlns="http://www.w3.org/2000/svg">
<path d="M9.08656 5.62158C10.9725 5.62158 12.2484 6.33708 12.3065 7.28625L12.3083 7.35449V11.6886C12.2864 12.6644 11.0091 13.4 9.08656 13.4C7.20468 13.4 5.92923 12.6831 5.87064 11.7354L5.86841 11.6676V7.35402C5.86841 6.3726 7.15907 5.62158 9.08656 5.62158V5.62158ZM6.9131 10.8259V11.6671C6.9131 11.9055 7.87774 12.3144 9.08656 12.3144C10.2565 12.3144 11.201 11.9307 11.2591 11.691L11.2618 11.6676V10.8273L11.2059 10.8553C10.7019 11.089 10.0454 11.2222 9.26813 11.24L9.08656 11.2418C8.24356 11.2418 7.52444 11.1049 6.97392 10.8549L6.9131 10.8259V10.8259ZM6.9131 8.66351V9.5094C6.9131 9.74868 7.87685 10.1576 9.08656 10.1576C10.2569 10.159 11.201 9.77438 11.2591 9.53277L11.2618 9.5094V8.66398L11.2028 8.69342C10.693 8.92709 10.0355 9.06169 9.26634 9.07945L9.08656 9.08178C8.2449 9.08178 7.52578 8.94392 6.97437 8.69296L6.9131 8.66351V8.66351ZM9.08656 6.70535C7.87819 6.70535 6.9131 7.11568 6.9131 7.35449C6.9131 7.59236 7.87774 8.00129 9.08656 8.00129C10.2967 8.00129 11.2618 7.5933 11.2618 7.35449C11.2618 7.11474 10.2976 6.70535 9.08656 6.70535Z" fill="#3D56D6"/>
<path d="M5.29843 0.599976C7.81803 0.599976 9.93872 1.51503 10.0165 2.91519L10.0183 2.9951V4.63875C10.0183 4.93878 9.78398 5.1818 9.49508 5.1818C9.22586 5.1818 9.00315 4.97009 8.97497 4.6981L8.97184 4.63875V4.54154L8.92444 4.57051C8.11632 5.04253 6.92718 5.33228 5.67677 5.38089L5.4791 5.38649L5.29843 5.38836C3.96528 5.38836 2.67507 5.11403 1.80121 4.6266L1.67913 4.55556L1.63753 4.52939V6.34501C1.63753 6.87545 2.92104 7.50496 4.64281 7.63161L4.77966 7.64048L4.91472 7.64703C5.10076 7.6545 5.26891 7.76433 5.35567 7.93538C5.44288 8.10689 5.43527 8.31392 5.33555 8.47749C5.23582 8.64106 5.06006 8.73687 4.87402 8.72939C3.71395 8.68406 2.61112 8.42655 1.82089 8.00735L1.68494 7.93164L1.63038 7.89892V9.71361C1.63038 10.244 2.91433 10.8736 4.6361 11.0002L4.77295 11.0091L4.90801 11.0156C5.09405 11.024 5.26175 11.1348 5.34807 11.3063C5.43438 11.4778 5.42588 11.6849 5.32571 11.848C5.27609 11.9282 5.2072 11.9935 5.1259 12.0373C5.04461 12.0811 4.95376 12.1019 4.86239 12.0975C2.49797 11.983 0.654111 11.1026 0.581215 9.78886L0.578979 9.70801V2.9951C0.578979 1.54728 2.72829 0.599976 5.29843 0.599976V0.599976ZM5.29843 1.68608C3.24885 1.68608 1.62367 2.38522 1.62367 2.99137C1.62367 3.59751 3.25511 4.30039 5.29843 4.30039C7.34309 4.30039 8.97184 3.60031 8.97184 2.9951C8.97184 2.38756 7.34711 1.68608 5.29843 1.68608V1.68608Z" fill="#3D56D6"/>
</svg>
