<svg width="315" height="40" viewBox="0 0 315 40" fill="none" xmlns="http://www.w3.org/2000/svg">
<mask id="mask0_55_5071" style="mask-type:alpha" maskUnits="userSpaceOnUse" x="0" y="0" width="315" height="40">
<rect width="315" height="40" rx="2" fill="#FFC34E"/>
</mask>
<g mask="url(#mask0_55_5071)">
<path d="M15.6049 10.9106C15.2432 10.7961 14.8471 10.7661 14.4167 10.8206C13.9932 10.8711 13.5702 11.0184 13.1475 11.2624C12.718 11.5104 12.376 11.814 12.1216 12.1734C11.8632 12.5258 11.6907 12.9071 11.6042 13.3173C11.5178 13.7275 11.5127 14.1507 11.5891 14.587C11.6614 15.0163 11.8136 15.4319 12.0456 15.8338C12.2816 16.2425 12.5694 16.589 12.9091 16.8733C13.2487 17.1576 13.6178 17.3648 14.0162 17.495C14.4107 17.6183 14.8286 17.6541 15.27 17.6026C15.7113 17.551 16.1502 17.3992 16.5867 17.1472C16.9331 16.9472 17.2338 16.732 17.4888 16.5017C17.7438 16.2713 17.9447 16.0352 18.0914 15.7935L16.9094 13.7462L15.2778 14.6882L14.7738 13.8152L17.4239 12.2852L19.4819 15.8498C19.2139 16.2816 18.8833 16.685 18.49 17.0598C18.0968 17.4347 17.6299 17.7781 17.0895 18.0901C16.5145 18.4221 15.9305 18.6346 15.3375 18.7275C14.7475 18.8095 14.1812 18.7808 13.6388 18.6413C13.0924 18.4949 12.5862 18.2421 12.1202 17.883C11.6502 17.517 11.2512 17.0499 10.9232 16.4818C10.5912 15.9067 10.3862 15.3276 10.3082 14.7445C10.2331 14.1505 10.2728 13.5872 10.4272 13.0546C10.5846 12.5111 10.8482 12.0079 11.2183 11.5448C11.5883 11.0818 12.054 10.6882 12.6151 10.3642C13.204 10.0242 13.7771 9.80882 14.3344 9.71803C14.8986 9.62323 15.4171 9.63333 15.8899 9.74831L15.6049 10.9106ZM22.6877 10.3547C22.4757 9.98748 22.2088 9.78128 21.8871 9.73608C21.5614 9.68394 21.215 9.76388 20.8478 9.97588C20.5706 10.1359 20.3394 10.3433 20.154 10.5982C19.9715 10.8421 19.8451 11.0952 19.7748 11.3575L18.8952 11.0339C19.0057 10.6653 19.1961 10.3152 19.4665 9.98351C19.7439 9.64788 20.0835 9.36406 20.4853 9.13206C20.8386 8.92806 21.1735 8.80402 21.4898 8.75995C21.8091 8.70494 22.1019 8.71604 22.3682 8.79324C22.6344 8.87045 22.8771 9.00283 23.0963 9.19039C23.3154 9.37795 23.503 9.60683 23.659 9.87703L24.901 12.0282C24.997 12.1945 25.1024 12.3692 25.2174 12.5522C25.3352 12.7244 25.442 12.8613 25.5377 12.9631L24.6544 13.4731C24.463 13.2696 24.2992 13.05 24.1632 12.8144L24.1321 12.8324C24.1039 13.1997 23.9933 13.5361 23.8002 13.8416C23.614 14.1431 23.3338 14.4018 22.9597 14.6178C22.7657 14.7298 22.5453 14.8201 22.2985 14.8887C22.0627 14.9602 21.8242 14.987 21.583 14.9693C21.3418 14.9515 21.1063 14.8796 20.8765 14.7536C20.6536 14.6236 20.4602 14.4166 20.2962 14.1325C20.0802 13.7584 20.0107 13.406 20.0876 13.0752C20.1605 12.7375 20.3278 12.4192 20.5894 12.1204C20.847 11.8146 21.1702 11.5264 21.559 11.2557C21.9478 10.9851 22.35 10.7298 22.7657 10.4898L22.6877 10.3547ZM22.9347 11.3345C22.6922 11.4745 22.4453 11.6308 22.194 11.8036C21.9497 11.9724 21.7381 12.15 21.5593 12.3363C21.3875 12.5187 21.2683 12.7122 21.2017 12.9169C21.1352 13.1216 21.1619 13.3279 21.2819 13.5358C21.3659 13.6813 21.4636 13.7865 21.575 13.8515C21.6934 13.9125 21.819 13.9462 21.952 13.9525C22.085 13.9589 22.2184 13.9419 22.3522 13.9016C22.482 13.8544 22.6092 13.7948 22.7339 13.7228C23.1912 13.4588 23.4631 13.1217 23.5496 12.7115C23.639 12.2904 23.5637 11.872 23.3237 11.4563L23.1737 11.1965L22.9347 11.3345ZM27.6329 6.84828C27.4181 6.73215 27.1782 6.67666 26.9133 6.68181C26.6443 6.68003 26.3852 6.75114 26.1358 6.89514C26.0249 6.95914 25.9221 7.03699 25.8272 7.12871C25.7284 7.21349 25.6499 7.3096 25.5918 7.41702C25.5367 7.51352 25.5054 7.61934 25.498 7.73448C25.4935 7.83869 25.5252 7.94968 25.5932 8.06746C25.7132 8.27531 25.8968 8.37719 26.1438 8.37311C26.3869 8.36211 26.7195 8.29018 27.1416 8.15731C27.4092 8.07674 27.6654 8.01656 27.9103 7.97677C28.1552 7.93698 28.3845 7.93397 28.5979 7.96775C28.8144 7.9906 29.0101 8.0577 29.1853 8.16905C29.3604 8.2804 29.51 8.44346 29.634 8.65824C29.802 8.94922 29.8886 9.22717 29.8937 9.49209C29.8989 9.75701 29.8459 10.0093 29.7348 10.2489C29.6267 10.4776 29.4709 10.6877 29.2673 10.8791C29.0637 11.0705 28.8373 11.2383 28.5878 11.3823C28.2137 11.5983 27.8045 11.7375 27.3603 11.8C26.9229 11.8585 26.5005 11.8068 26.0929 11.6449L26.4472 10.6506C26.6908 10.7685 26.965 10.8274 27.2696 10.827C27.5812 10.8226 27.8755 10.7404 28.1526 10.5804C28.2773 10.5084 28.3891 10.4301 28.488 10.3453C28.5897 10.2496 28.6697 10.148 28.7277 10.0406C28.7927 9.92913 28.8269 9.81239 28.8304 9.69032C28.8338 9.56826 28.7955 9.43794 28.7155 9.29938C28.5835 9.07075 28.3747 8.965 28.089 8.98215C27.8102 8.9953 27.4315 9.07538 26.9529 9.22238C26.7626 9.27681 26.5648 9.32632 26.3596 9.37089C26.1574 9.40454 25.9569 9.4094 25.7584 9.38548C25.5598 9.36155 25.3715 9.29938 25.1934 9.19896C25.0183 9.08761 24.8647 8.91762 24.7327 8.68899C24.5807 8.42572 24.5027 8.17055 24.4986 7.92349C24.4975 7.6655 24.5495 7.42762 24.6547 7.20984C24.7559 6.98513 24.9014 6.78106 25.0911 6.59764C25.2768 6.40728 25.4874 6.24411 25.7229 6.10811C26.0763 5.90411 26.4558 5.77739 26.8614 5.72795C27.2739 5.67452 27.6463 5.72744 27.9784 5.88671L27.6329 6.84828ZM35.393 7.27314L34.3642 7.86714L30.1162 0.509393L34.7096 -2.14261L35.2316 -1.23848L31.667 0.819523L32.987 3.10583L36.323 1.17983L36.833 2.06318L33.497 3.98918L35.393 7.27314ZM37.5504 0.873004C37.4744 0.741368 37.3729 0.573627 37.246 0.369781C37.1191 0.165935 37.0027 -0.0116628 36.8968 -0.163011L37.8218 -0.697011C37.9076 -0.580304 38.002 -0.440811 38.1049 -0.278534C38.2039 -0.123186 38.2833 0.00645013 38.3433 0.110373L38.3745 0.092373C38.3451 -0.278611 38.412 -0.626706 38.5753 -0.951911C38.7415 -1.28804 38.9908 -1.55211 39.3234 -1.74411C39.4758 -1.83211 39.612 -1.89225 39.7319 -1.92454L40.2123 -0.996412C40.0538 -0.951053 39.8948 -0.882373 39.7355 -0.790373C39.4999 -0.654373 39.3215 -0.49134 39.2003 -0.301273C39.0751 -0.118135 38.9956 0.0801807 38.9618 0.293673C38.935 0.503165 38.9499 0.720906 39.0064 0.946896C39.059 1.16596 39.1453 1.37941 39.2653 1.58726L40.7593 4.17494L39.7824 4.73894L37.5504 0.873004ZM45.297 -2.31087C45.1781 -2.50086 45.0395 -2.66099 44.8811 -2.79127C44.7257 -2.93248 44.5531 -3.03143 44.3633 -3.08814C44.1805 -3.14885 43.9824 -3.16384 43.7692 -3.13312C43.559 -3.11333 43.3395 -3.03744 43.1109 -2.90544C42.903 -2.78544 42.7276 -2.63333 42.5845 -2.44912C42.4444 -2.27584 42.341 -2.08685 42.2745 -1.88214C42.2148 -1.68143 42.19 -1.46848 42.1999 -1.24327C42.2128 -1.02899 42.2683 -0.820861 42.3664 -0.618871L45.297 -2.31087ZM46.5123 -2.48596C46.5443 -2.43054 46.5763 -2.37511 46.6083 -2.31969C46.6403 -2.26426 46.6688 -2.20684 46.6939 -2.14741L42.7864 0.10859C42.9133 0.312436 43.0724 0.48389 43.2635 0.622952C43.4576 0.751085 43.6674 0.842434 43.8929 0.896998C44.1143 0.944633 44.3406 0.952556 44.5717 0.920767C44.8097 0.884977 45.0361 0.805082 45.2508 0.681082C45.5834 0.489082 45.8289 0.250336 45.9874 -0.0351563C46.1459 -0.320649 46.2344 -0.607318 46.253 -0.895164L47.2569 -0.740372C47.1936 -0.241962 47.0298 0.194382 46.7656 0.568659C46.5042 0.932008 46.1553 1.23968 45.7188 1.49168C45.3447 1.70768 44.9623 1.84533 44.5716 1.90462C44.1809 1.96391 43.8072 1.94871 43.4506 1.85901C43.09 1.76237 42.7518 1.59271 42.4362 1.35001C42.1206 1.10732 41.8508 0.791977 41.6268 0.403998C41.4068 0.0229468 41.2671 -0.362927 41.2078 -0.753625C41.1514 -1.15525 41.1716 -1.53638 41.2682 -1.89701C41.3648 -2.25764 41.533 -2.59031 41.7728 -2.89502C42.0086 -3.20665 42.3066 -3.46647 42.6669 -3.67447C43.0271 -3.88247 43.3868 -4.01158 43.7457 -4.0618C44.1117 -4.11602 44.4591 -4.09028 44.788 -3.98458C45.1238 -3.88288 45.4392 -3.70468 45.734 -3.44998C46.0249 -3.20221 46.2843 -2.88087 46.5123 -2.48596ZM51.2544 -5.75032C51.1354 -5.94031 50.9968 -6.10045 50.8384 -6.23072C50.683 -6.37193 50.5104 -6.47089 50.3206 -6.52759C50.1378 -6.5883 49.9397 -6.6033 49.7265 -6.57258C49.5163 -6.55279 49.2968 -6.47689 49.0682 -6.34489C48.8603 -6.22489 48.6849 -6.07279 48.5418 -5.88858C48.4017 -5.7153 48.2983 -5.5263 48.2318 -5.32159C48.1721 -5.12089 48.1473 -4.90793 48.1572 -4.68272C48.1701 -4.46845 48.2256 -4.26031 48.3237 -4.05832L51.2544 -5.75032ZM52.4696 -5.92542C52.5016 -5.86999 52.5336 -5.81457 52.5656 -5.75914C52.5976 -5.70371 52.6262 -5.64629 52.6512 -5.58686L48.7437 -3.33086C48.8706 -3.12702 49.0297 -2.95556 49.2208 -2.8165C49.4149 -2.68837 49.6247 -2.59702 49.8502 -2.54246C50.0717 -2.49482 50.2979 -2.4869 50.529 -2.51869C50.767 -2.55448 50.9934 -2.63437 51.2081 -2.75837C51.5407 -2.95037 51.7862 -3.18912 51.9447 -3.47461C52.1032 -3.7601 52.1917 -4.04677 52.2103 -4.33462L53.2142 -4.17982C53.1509 -3.68141 52.9871 -3.24507 52.7229 -2.87079C52.4615 -2.50745 52.1126 -2.19977 51.6761 -1.94777C51.302 -1.73177 50.9196 -1.59413 50.5289 -1.53483C50.1382 -1.47554 49.7645 -1.49075 49.4079 -1.58045C49.0473 -1.67708 48.7091 -1.84674 48.3935 -2.08944C48.0779 -2.33214 47.8081 -2.64748 47.5841 -3.03546C47.3641 -3.41651 47.2244 -3.80238 47.1651 -4.19308C47.1088 -4.5947 47.1289 -4.97583 47.2255 -5.33646C47.3222 -5.69709 47.4904 -6.02976 47.7301 -6.33447C47.9659 -6.64611 48.2639 -6.90592 48.6242 -7.11392C48.9844 -7.32192 49.3441 -7.45103 49.7031 -7.50125C50.069 -7.55548 50.4164 -7.52973 50.7453 -7.42403C51.0811 -7.32233 51.3965 -7.14413 51.6913 -6.88943C51.9822 -6.64166 52.2416 -6.32032 52.4696 -5.92542Z" fill="white" fill-opacity="0.2"/>
<path d="M58.6049 27.9106C58.2432 27.7961 57.8471 27.7661 57.4167 27.8206C56.9932 27.8711 56.5702 28.0184 56.1475 28.2624C55.718 28.5104 55.376 28.814 55.1216 29.1734C54.8632 29.5258 54.6907 29.9071 54.6042 30.3173C54.5178 30.7275 54.5127 31.1507 54.5891 31.587C54.6614 32.0163 54.8136 32.4319 55.0456 32.8338C55.2816 33.2425 55.5694 33.589 55.9091 33.8733C56.2487 34.1576 56.6178 34.3648 57.0162 34.495C57.4107 34.6183 57.8286 34.6541 58.27 34.6026C58.7113 34.551 59.1502 34.3992 59.5867 34.1472C59.9331 33.9472 60.2338 33.732 60.4888 33.5017C60.7438 33.2713 60.9447 33.0352 61.0914 32.7935L59.9094 30.7462L58.2778 31.6882L57.7738 30.8152L60.4239 29.2852L62.4819 32.8498C62.2139 33.2816 61.8833 33.685 61.49 34.0598C61.0968 34.4347 60.6299 34.7781 60.0895 35.0901C59.5145 35.4221 58.9305 35.6346 58.3375 35.7275C57.7475 35.8095 57.1812 35.7808 56.6388 35.6413C56.0924 35.4949 55.5862 35.2421 55.1202 34.883C54.6502 34.517 54.2512 34.0499 53.9232 33.4818C53.5912 32.9067 53.3862 32.3276 53.3082 31.7445C53.2331 31.1505 53.2728 30.5872 53.4272 30.0546C53.5846 29.5111 53.8482 29.0079 54.2183 28.5448C54.5883 28.0818 55.054 27.6882 55.6151 27.3642C56.204 27.0242 56.7771 26.8088 57.3344 26.718C57.8986 26.6232 58.4171 26.6333 58.8899 26.7483L58.6049 27.9106ZM65.6877 27.3547C65.4757 26.9875 65.2088 26.7813 64.8871 26.7361C64.5614 26.6839 64.215 26.7639 63.8478 26.9759C63.5706 27.1359 63.3394 27.3433 63.154 27.5982C62.9715 27.8421 62.8451 28.0952 62.7748 28.3575L61.8952 28.0339C62.0057 27.6653 62.1961 27.3152 62.4665 26.9835C62.7439 26.6479 63.0835 26.3641 63.4853 26.1321C63.8386 25.9281 64.1735 25.804 64.4898 25.7599C64.8091 25.7049 65.1019 25.716 65.3682 25.7932C65.6344 25.8705 65.8771 26.0028 66.0963 26.1904C66.3154 26.378 66.503 26.6068 66.659 26.877L67.901 29.0282C67.997 29.1945 68.1024 29.3692 68.2174 29.5522C68.3352 29.7244 68.442 29.8613 68.5377 29.9631L67.6544 30.4731C67.463 30.2696 67.2992 30.05 67.1632 29.8144L67.1321 29.8324C67.1039 30.1997 66.9933 30.5361 66.8002 30.8416C66.614 31.1431 66.3338 31.4018 65.9597 31.6178C65.7657 31.7298 65.5453 31.8201 65.2985 31.8887C65.0627 31.9602 64.8242 31.987 64.583 31.9693C64.3418 31.9515 64.1063 31.8796 63.8765 31.7536C63.6536 31.6236 63.4602 31.4166 63.2962 31.1325C63.0802 30.7584 63.0107 30.406 63.0876 30.0752C63.1605 29.7375 63.3278 29.4192 63.5894 29.1204C63.847 28.8146 64.1702 28.5264 64.559 28.2557C64.9478 27.9851 65.35 27.7298 65.7657 27.4898L65.6877 27.3547ZM65.9347 28.3345C65.6922 28.4745 65.4453 28.6308 65.194 28.8036C64.9497 28.9724 64.7381 29.15 64.5593 29.3363C64.3875 29.5187 64.2683 29.7122 64.2017 29.9169C64.1352 30.1216 64.1619 30.3279 64.2819 30.5358C64.3659 30.6813 64.4636 30.7865 64.575 30.8515C64.6934 30.9125 64.819 30.9462 64.952 30.9525C65.085 30.9589 65.2184 30.9419 65.3522 30.9016C65.482 30.8544 65.6092 30.7948 65.7339 30.7228C66.1912 30.4588 66.4631 30.1217 66.5496 29.7115C66.639 29.2904 66.5637 28.872 66.3237 28.4563L66.1737 28.1965L65.9347 28.3345ZM70.6329 23.8483C70.4181 23.7322 70.1782 23.6767 69.9133 23.6818C69.6443 23.68 69.3852 23.7511 69.1358 23.8951C69.0249 23.9591 68.9221 24.037 68.8272 24.1287C68.7284 24.2135 68.6499 24.3096 68.5918 24.417C68.5367 24.5135 68.5054 24.6193 68.498 24.7345C68.4935 24.8387 68.5252 24.9497 68.5932 25.0675C68.7132 25.2753 68.8968 25.3772 69.1438 25.3731C69.3869 25.3621 69.7195 25.2902 70.1416 25.1573C70.4092 25.0767 70.6654 25.0166 70.9103 24.9768C71.1552 24.937 71.3845 24.934 71.5979 24.9678C71.8144 24.9906 72.0101 25.0577 72.1853 25.1691C72.3604 25.2804 72.51 25.4435 72.634 25.6582C72.802 25.9492 72.8886 26.2272 72.8937 26.4921C72.8989 26.757 72.8459 27.0093 72.7348 27.2489C72.6267 27.4776 72.4709 27.6877 72.2673 27.8791C72.0637 28.0705 71.8373 28.2383 71.5878 28.3823C71.2137 28.5983 70.8045 28.7375 70.3603 28.8C69.9229 28.8585 69.5005 28.8068 69.0929 28.6449L69.4472 27.6506C69.6908 27.7685 69.965 27.8274 70.2696 27.827C70.5812 27.8226 70.8755 27.7404 71.1526 27.5804C71.2773 27.5084 71.3891 27.4301 71.488 27.3453C71.5897 27.2496 71.6697 27.148 71.7277 27.0406C71.7927 26.9291 71.8269 26.8124 71.8304 26.6903C71.8338 26.5683 71.7955 26.4379 71.7155 26.2994C71.5835 26.0707 71.3747 25.965 71.089 25.9822C70.8102 25.9953 70.4315 26.0754 69.9529 26.2224C69.7626 26.2768 69.5648 26.3263 69.3596 26.3709C69.1574 26.4045 68.9569 26.4094 68.7584 26.3855C68.5598 26.3616 68.3715 26.2994 68.1934 26.199C68.0183 26.0876 67.8647 25.9176 67.7327 25.689C67.5807 25.4257 67.5027 25.1706 67.4986 24.9235C67.4975 24.6655 67.5495 24.4276 67.6547 24.2098C67.7559 23.9851 67.9014 23.7811 68.0911 23.5976C68.2768 23.4073 68.4874 23.2441 68.7229 23.1081C69.0763 22.9041 69.4558 22.7774 69.8614 22.728C70.2739 22.6745 70.6463 22.7274 70.9784 22.8867L70.6329 23.8483ZM78.393 24.2731L77.3642 24.8671L73.1162 17.5094L77.7096 14.8574L78.2316 15.7615L74.667 17.8195L75.987 20.1058L79.323 18.1798L79.833 19.0632L76.497 20.9892L78.393 24.2731ZM80.5504 17.873C80.4744 17.7414 80.3729 17.5736 80.246 17.3698C80.1191 17.1659 80.0027 16.9883 79.8968 16.837L80.8218 16.303C80.9076 16.4197 81.002 16.5592 81.1049 16.7215C81.2039 16.8768 81.2833 17.0065 81.3433 17.1104L81.3745 17.0924C81.3451 16.7214 81.412 16.3733 81.5753 16.0481C81.7415 15.712 81.9908 15.4479 82.3234 15.2559C82.4758 15.1679 82.612 15.1077 82.7319 15.0755L83.2123 16.0036C83.0538 16.0489 82.8948 16.1176 82.7355 16.2096C82.4999 16.3456 82.3215 16.5087 82.2003 16.6987C82.0751 16.8819 81.9956 17.0802 81.9618 17.2937C81.935 17.5032 81.9499 17.7209 82.0064 17.9469C82.059 18.166 82.1453 18.3794 82.2653 18.5873L83.7593 21.1749L82.7824 21.7389L80.5504 17.873ZM88.297 14.6891C88.1781 14.4991 88.0395 14.339 87.8811 14.2087C87.7257 14.0675 87.5531 13.9686 87.3633 13.9119C87.1805 13.8512 86.9824 13.8362 86.7692 13.8669C86.559 13.8867 86.3395 13.9626 86.1109 14.0946C85.903 14.2146 85.7276 14.3667 85.5845 14.5509C85.4444 14.7242 85.341 14.9132 85.2745 15.1179C85.2148 15.3186 85.19 15.5315 85.1999 15.7567C85.2128 15.971 85.2683 16.1791 85.3664 16.3811L88.297 14.6891ZM89.5123 14.514C89.5443 14.5695 89.5763 14.6249 89.6083 14.6803C89.6403 14.7357 89.6688 14.7932 89.6939 14.8526L85.7864 17.1086C85.9133 17.3124 86.0724 17.4839 86.2635 17.623C86.4576 17.7511 86.6674 17.8424 86.8929 17.897C87.1143 17.9446 87.3406 17.9526 87.5717 17.9208C87.8097 17.885 88.0361 17.8051 88.2508 17.6811C88.5834 17.4891 88.8289 17.2503 88.9874 16.9648C89.1459 16.6794 89.2344 16.3927 89.253 16.1048L90.2569 16.2596C90.1936 16.758 90.0298 17.1944 89.7656 17.5687C89.5042 17.932 89.1553 18.2397 88.7188 18.4917C88.3447 18.7077 87.9623 18.8453 87.5716 18.9046C87.1809 18.9639 86.8072 18.9487 86.4506 18.859C86.09 18.7624 85.7518 18.5927 85.4362 18.35C85.1206 18.1073 84.8508 17.792 84.6268 17.404C84.4068 17.0229 84.2671 16.6371 84.2078 16.2464C84.1514 15.8447 84.1716 15.4636 84.2682 15.103C84.3648 14.7424 84.533 14.4097 84.7728 14.105C85.0086 13.7933 85.3066 13.5335 85.6669 13.3255C86.0271 13.1175 86.3868 12.9884 86.7457 12.9382C87.1117 12.884 87.4591 12.9097 87.788 13.0154C88.1238 13.1171 88.4392 13.2953 88.734 13.55C89.0249 13.7978 89.2843 14.1191 89.5123 14.514ZM94.2544 11.2497C94.1354 11.0597 93.9968 10.8996 93.8384 10.7693C93.683 10.6281 93.5104 10.5291 93.3206 10.4724C93.1378 10.4117 92.9397 10.3967 92.7265 10.4274C92.5163 10.4472 92.2968 10.5231 92.0682 10.6551C91.8603 10.7751 91.6849 10.9272 91.5418 11.1114C91.4017 11.2847 91.2983 11.4737 91.2318 11.6784C91.1721 11.8791 91.1473 12.0921 91.1572 12.3173C91.1701 12.5316 91.2256 12.7397 91.3237 12.9417L94.2544 11.2497ZM95.4696 11.0746C95.5016 11.13 95.5336 11.1854 95.5656 11.2409C95.5976 11.2963 95.6262 11.3537 95.6512 11.4131L91.7437 13.6691C91.8706 13.873 92.0297 14.0444 92.2208 14.1835C92.4149 14.3116 92.6247 14.403 92.8502 14.4575C93.0717 14.5052 93.2979 14.5131 93.529 14.4813C93.767 14.4455 93.9934 14.3656 94.2081 14.2416C94.5407 14.0496 94.7862 13.8109 94.9447 13.5254C95.1032 13.2399 95.1917 12.9532 95.2103 12.6654L96.2142 12.8202C96.1509 13.3186 95.9871 13.7549 95.7229 14.1292C95.4615 14.4926 95.1126 14.8002 94.6761 15.0522C94.302 15.2682 93.9196 15.4059 93.5289 15.4652C93.1382 15.5245 92.7645 15.5093 92.4079 15.4196C92.0473 15.3229 91.7091 15.1533 91.3935 14.9106C91.0779 14.6679 90.8081 14.3525 90.5841 13.9645C90.3641 13.5835 90.2244 13.1976 90.1651 12.8069C90.1088 12.4053 90.1289 12.0242 90.2255 11.6635C90.3222 11.3029 90.4904 10.9702 90.7301 10.6655C90.9659 10.3539 91.2639 10.0941 91.6242 9.88608C91.9844 9.67808 92.3441 9.54897 92.7031 9.49875C93.069 9.44452 93.4164 9.47027 93.7453 9.57597C94.0811 9.67767 94.3965 9.85587 94.6913 10.1106C94.9822 10.3583 95.2416 10.6797 95.4696 11.0746Z" fill="white" fill-opacity="0.2"/>
<path d="M280.605 18.9106C280.243 18.7961 279.847 18.7661 279.417 18.8206C278.993 18.8711 278.57 19.0184 278.148 19.2624C277.718 19.5104 277.376 19.814 277.122 20.1734C276.863 20.5258 276.691 20.9071 276.604 21.3173C276.518 21.7275 276.513 22.1507 276.589 22.587C276.661 23.0163 276.814 23.4319 277.046 23.8338C277.282 24.2425 277.569 24.589 277.909 24.8733C278.249 25.1576 278.618 25.3648 279.016 25.495C279.411 25.6183 279.829 25.6541 280.27 25.6026C280.711 25.551 281.15 25.3992 281.587 25.1472C281.933 24.9472 282.234 24.732 282.489 24.5017C282.744 24.2713 282.945 24.0352 283.091 23.7935L281.909 21.7462L280.278 22.6882L279.774 21.8152L282.424 20.2852L284.482 23.8498C284.214 24.2816 283.883 24.685 283.49 25.0598C283.097 25.4347 282.63 25.7781 282.09 26.0901C281.514 26.4221 280.93 26.6346 280.338 26.7275C279.747 26.8095 279.181 26.7808 278.639 26.6413C278.092 26.4949 277.586 26.2421 277.12 25.883C276.65 25.517 276.251 25.0499 275.923 24.4818C275.591 23.9067 275.386 23.3276 275.308 22.7445C275.233 22.1505 275.273 21.5872 275.427 21.0546C275.585 20.5111 275.848 20.0079 276.218 19.5448C276.588 19.0818 277.054 18.6882 277.615 18.3642C278.204 18.0242 278.777 17.8088 279.334 17.718C279.899 17.6232 280.417 17.6333 280.89 17.7483L280.605 18.9106ZM287.688 18.3547C287.476 17.9875 287.209 17.7813 286.887 17.7361C286.561 17.6839 286.215 17.7639 285.848 17.9759C285.571 18.1359 285.339 18.3433 285.154 18.5982C284.971 18.8421 284.845 19.0952 284.775 19.3575L283.895 19.0339C284.006 18.6653 284.196 18.3152 284.467 17.9835C284.744 17.6479 285.083 17.3641 285.485 17.1321C285.839 16.9281 286.173 16.804 286.49 16.7599C286.809 16.7049 287.102 16.716 287.368 16.7932C287.634 16.8705 287.877 17.0028 288.096 17.1904C288.315 17.378 288.503 17.6068 288.659 17.877L289.901 20.0282C289.997 20.1945 290.102 20.3692 290.217 20.5522C290.335 20.7244 290.442 20.8613 290.538 20.9631L289.654 21.4731C289.463 21.2696 289.299 21.05 289.163 20.8144L289.132 20.8324C289.104 21.1997 288.993 21.5361 288.8 21.8416C288.614 22.1431 288.334 22.4018 287.96 22.6178C287.766 22.7298 287.545 22.8201 287.299 22.8887C287.063 22.9602 286.824 22.987 286.583 22.9693C286.342 22.9515 286.106 22.8796 285.876 22.7536C285.654 22.6236 285.46 22.4166 285.296 22.1325C285.08 21.7584 285.011 21.406 285.088 21.0752C285.161 20.7375 285.328 20.4192 285.589 20.1204C285.847 19.8146 286.17 19.5264 286.559 19.2557C286.948 18.9851 287.35 18.7298 287.766 18.4898L287.688 18.3547ZM287.935 19.3345C287.692 19.4745 287.445 19.6308 287.194 19.8036C286.95 19.9724 286.738 20.15 286.559 20.3363C286.387 20.5187 286.268 20.7122 286.202 20.9169C286.135 21.1216 286.162 21.3279 286.282 21.5358C286.366 21.6813 286.464 21.7865 286.575 21.8515C286.693 21.9125 286.819 21.9462 286.952 21.9525C287.085 21.9589 287.218 21.9419 287.352 21.9016C287.482 21.8544 287.609 21.7948 287.734 21.7228C288.191 21.4588 288.463 21.1217 288.55 20.7115C288.639 20.2904 288.564 19.872 288.324 19.4563L288.174 19.1965L287.935 19.3345ZM292.633 14.8483C292.418 14.7322 292.178 14.6767 291.913 14.6818C291.644 14.68 291.385 14.7511 291.136 14.8951C291.025 14.9591 290.922 15.037 290.827 15.1287C290.728 15.2135 290.65 15.3096 290.592 15.417C290.537 15.5135 290.505 15.6193 290.498 15.7345C290.493 15.8387 290.525 15.9497 290.593 16.0675C290.713 16.2753 290.897 16.3772 291.144 16.3731C291.387 16.3621 291.719 16.2902 292.142 16.1573C292.409 16.0767 292.665 16.0166 292.91 15.9768C293.155 15.937 293.384 15.934 293.598 15.9678C293.814 15.9906 294.01 16.0577 294.185 16.1691C294.36 16.2804 294.51 16.4435 294.634 16.6582C294.802 16.9492 294.889 17.2272 294.894 17.4921C294.899 17.757 294.846 18.0093 294.735 18.2489C294.627 18.4776 294.471 18.6877 294.267 18.8791C294.064 19.0705 293.837 19.2383 293.588 19.3823C293.214 19.5983 292.805 19.7375 292.36 19.8C291.923 19.8585 291.5 19.8068 291.093 19.6449L291.447 18.6506C291.691 18.7685 291.965 18.8274 292.27 18.827C292.581 18.8226 292.876 18.7404 293.153 18.5804C293.277 18.5084 293.389 18.4301 293.488 18.3453C293.59 18.2496 293.67 18.148 293.728 18.0406C293.793 17.9291 293.827 17.8124 293.83 17.6903C293.834 17.5683 293.796 17.4379 293.716 17.2994C293.584 17.0707 293.375 16.965 293.089 16.9822C292.81 16.9953 292.431 17.0754 291.953 17.2224C291.763 17.2768 291.565 17.3263 291.36 17.3709C291.157 17.4045 290.957 17.4094 290.758 17.3855C290.56 17.3616 290.371 17.2994 290.193 17.199C290.018 17.0876 289.865 16.9176 289.733 16.689C289.581 16.4257 289.503 16.1706 289.499 15.9235C289.497 15.6655 289.549 15.4276 289.655 15.2098C289.756 14.9851 289.901 14.7811 290.091 14.5976C290.277 14.4073 290.487 14.2441 290.723 14.1081C291.076 13.9041 291.456 13.7774 291.861 13.728C292.274 13.6745 292.646 13.7274 292.978 13.8867L292.633 14.8483ZM300.393 15.2731L299.364 15.8671L295.116 8.50939L299.71 5.85739L300.232 6.76152L296.667 8.81952L297.987 11.1058L301.323 9.17983L301.833 10.0632L298.497 11.9892L300.393 15.2731ZM302.55 8.873C302.474 8.74137 302.373 8.57363 302.246 8.36978C302.119 8.16593 302.003 7.98834 301.897 7.83699L302.822 7.30299C302.908 7.4197 303.002 7.55919 303.105 7.72147C303.204 7.87681 303.283 8.00645 303.343 8.11037L303.375 8.09237C303.345 7.72139 303.412 7.37329 303.575 7.04809C303.741 6.71196 303.991 6.44789 304.323 6.25589C304.476 6.16789 304.612 6.10775 304.732 6.07546L305.212 7.00359C305.054 7.04895 304.895 7.11763 304.735 7.20963C304.5 7.34563 304.322 7.50866 304.2 7.69873C304.075 7.88187 303.996 8.08018 303.962 8.29367C303.935 8.50317 303.95 8.72091 304.006 8.9469C304.059 9.16596 304.145 9.37941 304.265 9.58726L305.759 12.1749L304.782 12.7389L302.55 8.873ZM310.297 5.68913C310.178 5.49914 310.039 5.33901 309.881 5.20873C309.726 5.06752 309.553 4.96857 309.363 4.91186C309.18 4.85115 308.982 4.83616 308.769 4.86688C308.559 4.88667 308.339 4.96256 308.111 5.09456C307.903 5.21456 307.728 5.36667 307.585 5.55088C307.444 5.72416 307.341 5.91315 307.274 6.11786C307.215 6.31857 307.19 6.53152 307.2 6.75673C307.213 6.97101 307.268 7.17914 307.366 7.38113L310.297 5.68913ZM311.512 5.51404C311.544 5.56946 311.576 5.62489 311.608 5.68031C311.64 5.73574 311.669 5.79316 311.694 5.85259L307.786 8.10859C307.913 8.31244 308.072 8.48389 308.264 8.62295C308.458 8.75108 308.667 8.84243 308.893 8.897C309.114 8.94463 309.341 8.95256 309.572 8.92077C309.81 8.88498 310.036 8.80508 310.251 8.68108C310.583 8.48908 310.829 8.25034 310.987 7.96484C311.146 7.67935 311.234 7.39268 311.253 7.10484L312.257 7.25963C312.194 7.75804 312.03 8.19438 311.766 8.56866C311.504 8.93201 311.155 9.23968 310.719 9.49168C310.345 9.70768 309.962 9.84533 309.572 9.90462C309.181 9.96391 308.807 9.94871 308.451 9.85901C308.09 9.76237 307.752 9.59271 307.436 9.35001C307.121 9.10732 306.851 8.79198 306.627 8.404C306.407 8.02295 306.267 7.63707 306.208 7.24638C306.151 6.84475 306.172 6.46362 306.268 6.10299C306.365 5.74236 306.533 5.40969 306.773 5.10498C307.009 4.79335 307.307 4.53353 307.667 4.32553C308.027 4.11753 308.387 3.98842 308.746 3.9382C309.112 3.88398 309.459 3.90972 309.788 4.01542C310.124 4.11712 310.439 4.29532 310.734 4.55002C311.025 4.79779 311.284 5.11913 311.512 5.51404ZM316.254 2.24968C316.135 2.05969 315.997 1.89955 315.838 1.76928C315.683 1.62807 315.51 1.52911 315.321 1.47241C315.138 1.4117 314.94 1.3967 314.727 1.42742C314.516 1.44721 314.297 1.52311 314.068 1.65511C313.86 1.77511 313.685 1.92721 313.542 2.11142C313.402 2.2847 313.298 2.4737 313.232 2.67841C313.172 2.87911 313.147 3.09207 313.157 3.31728C313.17 3.53155 313.226 3.73969 313.324 3.94168L316.254 2.24968ZM317.47 2.07458C317.502 2.13001 317.534 2.18543 317.566 2.24086C317.598 2.29629 317.626 2.35371 317.651 2.41314L313.744 4.66914C313.871 4.87298 314.03 5.04444 314.221 5.1835C314.415 5.31163 314.625 5.40298 314.85 5.45754C315.072 5.50518 315.298 5.5131 315.529 5.48131C315.767 5.44552 315.993 5.36563 316.208 5.24163C316.541 5.04963 316.786 4.81088 316.945 4.52539C317.103 4.2399 317.192 3.95323 317.21 3.66538L318.214 3.82018C318.151 4.31859 317.987 4.75493 317.723 5.12921C317.462 5.49255 317.113 5.80023 316.676 6.05223C316.302 6.26823 315.92 6.40587 315.529 6.46517C315.138 6.52446 314.765 6.50925 314.408 6.41955C314.047 6.32292 313.709 6.15326 313.394 5.91056C313.078 5.66786 312.808 5.35252 312.584 4.96454C312.364 4.58349 312.224 4.19762 312.165 3.80692C312.109 3.4053 312.129 3.02417 312.226 2.66354C312.322 2.30291 312.49 1.97024 312.73 1.66553C312.966 1.35389 313.264 1.09408 313.624 0.886076C313.984 0.678076 314.344 0.548966 314.703 0.498745C315.069 0.444525 315.416 0.470266 315.745 0.575968C316.081 0.677671 316.396 0.855871 316.691 1.11057C316.982 1.35834 317.242 1.67968 317.47 2.07458Z" fill="white" fill-opacity="0.2"/>
</g>
</svg>
