<svg width="360" height="40" viewBox="0 0 360 40" fill="none" xmlns="http://www.w3.org/2000/svg">
<mask id="mask0_262_1157" style="mask-type:alpha" maskUnits="userSpaceOnUse" x="0" y="0" width="360" height="40">
<rect width="360" height="40" rx="2" fill="#FFC34E"/>
</mask>
<g mask="url(#mask0_262_1157)">
<path d="M15.6049 10.9106C15.2432 10.7961 14.8471 10.7661 14.4167 10.8206C13.9932 10.8711 13.5702 11.0184 13.1475 11.2624C12.718 11.5104 12.376 11.814 12.1216 12.1734C11.8632 12.5258 11.6907 12.9071 11.6042 13.3173C11.5178 13.7275 11.5127 14.1507 11.5891 14.587C11.6614 15.0163 11.8136 15.4319 12.0456 15.8338C12.2816 16.2425 12.5694 16.589 12.9091 16.8733C13.2487 17.1576 13.6178 17.3648 14.0162 17.495C14.4107 17.6183 14.8286 17.6541 15.27 17.6026C15.7113 17.551 16.1502 17.3992 16.5867 17.1472C16.9331 16.9472 17.2338 16.732 17.4888 16.5017C17.7438 16.2713 17.9447 16.0352 18.0914 15.7935L16.9094 13.7462L15.2778 14.6882L14.7738 13.8152L17.4239 12.2852L19.4819 15.8498C19.2139 16.2816 18.8833 16.685 18.49 17.0598C18.0968 17.4347 17.6299 17.7781 17.0895 18.0901C16.5145 18.4221 15.9305 18.6346 15.3375 18.7275C14.7475 18.8095 14.1812 18.7808 13.6388 18.6413C13.0924 18.4949 12.5862 18.2421 12.1202 17.883C11.6502 17.517 11.2512 17.0499 10.9232 16.4818C10.5912 15.9067 10.3862 15.3276 10.3082 14.7445C10.2331 14.1505 10.2728 13.5872 10.4272 13.0546C10.5846 12.5111 10.8482 12.0079 11.2183 11.5448C11.5883 11.0818 12.054 10.6882 12.6151 10.3642C13.204 10.0242 13.7771 9.80882 14.3344 9.71803C14.8986 9.62323 15.4171 9.63333 15.8899 9.74831L15.6049 10.9106ZM22.6877 10.3547C22.4757 9.98748 22.2088 9.78128 21.8871 9.73608C21.5614 9.68394 21.215 9.76388 20.8478 9.97588C20.5706 10.1359 20.3394 10.3433 20.154 10.5982C19.9715 10.8421 19.8451 11.0952 19.7748 11.3575L18.8952 11.0339C19.0057 10.6653 19.1961 10.3152 19.4665 9.98351C19.7439 9.64788 20.0835 9.36406 20.4853 9.13206C20.8386 8.92806 21.1735 8.80402 21.4898 8.75995C21.8091 8.70494 22.1019 8.71604 22.3682 8.79324C22.6344 8.87045 22.8771 9.00283 23.0963 9.19039C23.3154 9.37795 23.503 9.60683 23.659 9.87703L24.901 12.0282C24.997 12.1945 25.1024 12.3692 25.2174 12.5522C25.3352 12.7244 25.442 12.8613 25.5377 12.9631L24.6544 13.4731C24.463 13.2696 24.2992 13.05 24.1632 12.8144L24.1321 12.8324C24.1039 13.1997 23.9933 13.5361 23.8002 13.8416C23.614 14.1431 23.3338 14.4018 22.9597 14.6178C22.7657 14.7298 22.5453 14.8201 22.2985 14.8887C22.0627 14.9602 21.8242 14.987 21.583 14.9693C21.3418 14.9515 21.1063 14.8796 20.8765 14.7536C20.6536 14.6236 20.4602 14.4166 20.2962 14.1325C20.0802 13.7584 20.0107 13.406 20.0876 13.0752C20.1605 12.7375 20.3278 12.4192 20.5894 12.1204C20.847 11.8146 21.1702 11.5264 21.559 11.2557C21.9478 10.9851 22.35 10.7298 22.7657 10.4898L22.6877 10.3547ZM22.9347 11.3345C22.6922 11.4745 22.4453 11.6308 22.194 11.8036C21.9497 11.9724 21.7381 12.15 21.5593 12.3363C21.3875 12.5187 21.2683 12.7122 21.2017 12.9169C21.1352 13.1216 21.1619 13.3279 21.2819 13.5358C21.3659 13.6813 21.4636 13.7865 21.575 13.8515C21.6934 13.9125 21.819 13.9462 21.952 13.9525C22.085 13.9589 22.2184 13.9419 22.3522 13.9016C22.482 13.8544 22.6092 13.7948 22.7339 13.7228C23.1912 13.4588 23.4631 13.1217 23.5496 12.7115C23.639 12.2904 23.5637 11.872 23.3237 11.4563L23.1737 11.1965L22.9347 11.3345ZM27.6329 6.84828C27.4181 6.73215 27.1782 6.67666 26.9133 6.68181C26.6443 6.68003 26.3852 6.75114 26.1358 6.89514C26.0249 6.95914 25.9221 7.03699 25.8272 7.12871C25.7284 7.21349 25.6499 7.3096 25.5918 7.41702C25.5367 7.51352 25.5054 7.61934 25.498 7.73448C25.4935 7.83869 25.5252 7.94968 25.5932 8.06746C25.7132 8.27531 25.8968 8.37719 26.1438 8.37311C26.3869 8.36211 26.7195 8.29018 27.1416 8.15731C27.4092 8.07674 27.6654 8.01656 27.9103 7.97677C28.1552 7.93698 28.3845 7.93397 28.5979 7.96775C28.8144 7.9906 29.0101 8.0577 29.1853 8.16905C29.3604 8.2804 29.51 8.44346 29.634 8.65824C29.802 8.94922 29.8886 9.22717 29.8937 9.49209C29.8989 9.75701 29.8459 10.0093 29.7348 10.2489C29.6267 10.4776 29.4709 10.6877 29.2673 10.8791C29.0637 11.0705 28.8373 11.2383 28.5878 11.3823C28.2137 11.5983 27.8045 11.7375 27.3603 11.8C26.9229 11.8585 26.5005 11.8068 26.0929 11.6449L26.4472 10.6506C26.6908 10.7685 26.965 10.8274 27.2696 10.827C27.5812 10.8226 27.8755 10.7404 28.1526 10.5804C28.2773 10.5084 28.3891 10.4301 28.488 10.3453C28.5897 10.2496 28.6697 10.148 28.7277 10.0406C28.7927 9.92913 28.8269 9.81239 28.8304 9.69032C28.8338 9.56826 28.7955 9.43794 28.7155 9.29938C28.5835 9.07075 28.3747 8.965 28.089 8.98215C27.8102 8.9953 27.4315 9.07538 26.9529 9.22238C26.7626 9.27681 26.5648 9.32632 26.3596 9.37089C26.1574 9.40454 25.9569 9.4094 25.7584 9.38548C25.5598 9.36155 25.3715 9.29938 25.1934 9.19896C25.0183 9.08761 24.8647 8.91762 24.7327 8.68899C24.5807 8.42572 24.5027 8.17055 24.4986 7.92349C24.4975 7.6655 24.5495 7.42762 24.6547 7.20984C24.7559 6.98513 24.9014 6.78106 25.0911 6.59764C25.2768 6.40728 25.4874 6.24411 25.7229 6.10811C26.0763 5.90411 26.4558 5.77739 26.8614 5.72795C27.2739 5.67452 27.6463 5.72744 27.9784 5.88671L27.6329 6.84828ZM35.393 7.27314L34.3642 7.86714L30.1162 0.509393L34.7096 -2.14261L35.2316 -1.23848L31.667 0.819523L32.987 3.10583L36.323 1.17983L36.833 2.06318L33.497 3.98918L35.393 7.27314ZM37.5504 0.873004C37.4744 0.741368 37.3729 0.573627 37.246 0.369781C37.1191 0.165935 37.0027 -0.0116628 36.8968 -0.163011L37.8218 -0.697011C37.9076 -0.580304 38.002 -0.440811 38.1049 -0.278534C38.2039 -0.123186 38.2833 0.00645013 38.3433 0.110373L38.3745 0.092373C38.3451 -0.278611 38.412 -0.626706 38.5753 -0.951911C38.7415 -1.28804 38.9908 -1.55211 39.3234 -1.74411C39.4758 -1.83211 39.612 -1.89225 39.7319 -1.92454L40.2123 -0.996412C40.0538 -0.951053 39.8948 -0.882373 39.7355 -0.790373C39.4999 -0.654373 39.3215 -0.49134 39.2003 -0.301273C39.0751 -0.118135 38.9956 0.0801807 38.9618 0.293673C38.935 0.503165 38.9499 0.720906 39.0064 0.946896C39.059 1.16596 39.1453 1.37941 39.2653 1.58726L40.7593 4.17494L39.7824 4.73894L37.5504 0.873004ZM45.297 -2.31087C45.1781 -2.50086 45.0395 -2.66099 44.8811 -2.79127C44.7257 -2.93248 44.5531 -3.03143 44.3633 -3.08814C44.1805 -3.14885 43.9824 -3.16384 43.7692 -3.13312C43.559 -3.11333 43.3395 -3.03744 43.1109 -2.90544C42.903 -2.78544 42.7276 -2.63333 42.5845 -2.44912C42.4444 -2.27584 42.341 -2.08685 42.2745 -1.88214C42.2148 -1.68143 42.19 -1.46848 42.1999 -1.24327C42.2128 -1.02899 42.2683 -0.820861 42.3664 -0.618871L45.297 -2.31087ZM46.5123 -2.48596C46.5443 -2.43054 46.5763 -2.37511 46.6083 -2.31969C46.6403 -2.26426 46.6688 -2.20684 46.6939 -2.14741L42.7864 0.10859C42.9133 0.312436 43.0724 0.48389 43.2635 0.622952C43.4576 0.751085 43.6674 0.842434 43.8929 0.896998C44.1143 0.944633 44.3406 0.952556 44.5717 0.920767C44.8097 0.884977 45.0361 0.805082 45.2508 0.681082C45.5834 0.489082 45.8289 0.250336 45.9874 -0.0351563C46.1459 -0.320649 46.2344 -0.607318 46.253 -0.895164L47.2569 -0.740372C47.1936 -0.241962 47.0298 0.194382 46.7656 0.568659C46.5042 0.932008 46.1553 1.23968 45.7188 1.49168C45.3447 1.70768 44.9623 1.84533 44.5716 1.90462C44.1809 1.96391 43.8072 1.94871 43.4506 1.85901C43.09 1.76237 42.7518 1.59271 42.4362 1.35001C42.1206 1.10732 41.8508 0.791977 41.6268 0.403998C41.4068 0.0229468 41.2671 -0.362927 41.2078 -0.753625C41.1514 -1.15525 41.1716 -1.53638 41.2682 -1.89701C41.3648 -2.25764 41.533 -2.59031 41.7728 -2.89502C42.0086 -3.20665 42.3066 -3.46647 42.6669 -3.67447C43.0271 -3.88247 43.3868 -4.01158 43.7457 -4.0618C44.1117 -4.11602 44.4591 -4.09028 44.788 -3.98458C45.1238 -3.88288 45.4392 -3.70468 45.734 -3.44998C46.0249 -3.20221 46.2843 -2.88087 46.5123 -2.48596ZM51.2544 -5.75032C51.1354 -5.94031 50.9968 -6.10045 50.8384 -6.23072C50.683 -6.37193 50.5104 -6.47089 50.3206 -6.52759C50.1378 -6.5883 49.9397 -6.6033 49.7265 -6.57258C49.5163 -6.55279 49.2968 -6.47689 49.0682 -6.34489C48.8603 -6.22489 48.6849 -6.07279 48.5418 -5.88858C48.4017 -5.7153 48.2983 -5.5263 48.2318 -5.32159C48.1721 -5.12089 48.1473 -4.90793 48.1572 -4.68272C48.1701 -4.46845 48.2256 -4.26031 48.3237 -4.05832L51.2544 -5.75032ZM52.4696 -5.92542C52.5016 -5.86999 52.5336 -5.81457 52.5656 -5.75914C52.5976 -5.70371 52.6262 -5.64629 52.6512 -5.58686L48.7437 -3.33086C48.8706 -3.12702 49.0297 -2.95556 49.2208 -2.8165C49.4149 -2.68837 49.6247 -2.59702 49.8502 -2.54246C50.0717 -2.49482 50.2979 -2.4869 50.529 -2.51869C50.767 -2.55448 50.9934 -2.63437 51.2081 -2.75837C51.5407 -2.95037 51.7862 -3.18912 51.9447 -3.47461C52.1032 -3.7601 52.1917 -4.04677 52.2103 -4.33462L53.2142 -4.17982C53.1509 -3.68141 52.9871 -3.24507 52.7229 -2.87079C52.4615 -2.50745 52.1126 -2.19977 51.6761 -1.94777C51.302 -1.73177 50.9196 -1.59413 50.5289 -1.53483C50.1382 -1.47554 49.7645 -1.49075 49.4079 -1.58045C49.0473 -1.67708 48.7091 -1.84674 48.3935 -2.08944C48.0779 -2.33214 47.8081 -2.64748 47.5841 -3.03546C47.3641 -3.41651 47.2244 -3.80238 47.1651 -4.19308C47.1088 -4.5947 47.1289 -4.97583 47.2255 -5.33646C47.3222 -5.69709 47.4904 -6.02976 47.7301 -6.33447C47.9659 -6.64611 48.2639 -6.90592 48.6242 -7.11392C48.9844 -7.32192 49.3441 -7.45103 49.7031 -7.50125C50.069 -7.55548 50.4164 -7.52973 50.7453 -7.42403C51.0811 -7.32233 51.3965 -7.14413 51.6913 -6.88943C51.9822 -6.64166 52.2416 -6.32032 52.4696 -5.92542Z" fill="white" fill-opacity="0.2"/>
<path d="M58.6049 27.9106C58.2432 27.7961 57.8471 27.7661 57.4167 27.8206C56.9932 27.8711 56.5702 28.0184 56.1475 28.2624C55.718 28.5104 55.376 28.814 55.1216 29.1734C54.8632 29.5258 54.6907 29.9071 54.6042 30.3173C54.5178 30.7275 54.5127 31.1507 54.5891 31.587C54.6614 32.0163 54.8136 32.4319 55.0456 32.8338C55.2816 33.2425 55.5694 33.589 55.9091 33.8733C56.2487 34.1576 56.6178 34.3648 57.0162 34.495C57.4107 34.6183 57.8286 34.6541 58.27 34.6026C58.7113 34.551 59.1502 34.3992 59.5867 34.1472C59.9331 33.9472 60.2338 33.732 60.4888 33.5017C60.7438 33.2713 60.9447 33.0352 61.0914 32.7935L59.9094 30.7462L58.2778 31.6882L57.7738 30.8152L60.4239 29.2852L62.4819 32.8498C62.2139 33.2816 61.8833 33.685 61.49 34.0598C61.0968 34.4347 60.6299 34.7781 60.0895 35.0901C59.5145 35.4221 58.9305 35.6346 58.3375 35.7275C57.7475 35.8095 57.1812 35.7808 56.6388 35.6413C56.0924 35.4949 55.5862 35.2421 55.1202 34.883C54.6502 34.517 54.2512 34.0499 53.9232 33.4818C53.5912 32.9067 53.3862 32.3276 53.3082 31.7445C53.2331 31.1505 53.2728 30.5872 53.4272 30.0546C53.5846 29.5111 53.8482 29.0079 54.2183 28.5448C54.5883 28.0818 55.054 27.6882 55.6151 27.3642C56.204 27.0242 56.7771 26.8088 57.3344 26.718C57.8986 26.6232 58.4171 26.6333 58.8899 26.7483L58.6049 27.9106ZM65.6877 27.3547C65.4757 26.9875 65.2088 26.7813 64.8871 26.7361C64.5614 26.6839 64.215 26.7639 63.8478 26.9759C63.5706 27.1359 63.3394 27.3433 63.154 27.5982C62.9715 27.8421 62.8451 28.0952 62.7748 28.3575L61.8952 28.0339C62.0057 27.6653 62.1961 27.3152 62.4665 26.9835C62.7439 26.6479 63.0835 26.3641 63.4853 26.1321C63.8386 25.9281 64.1735 25.804 64.4898 25.7599C64.8091 25.7049 65.1019 25.716 65.3682 25.7932C65.6344 25.8705 65.8771 26.0028 66.0963 26.1904C66.3154 26.378 66.503 26.6068 66.659 26.877L67.901 29.0282C67.997 29.1945 68.1024 29.3692 68.2174 29.5522C68.3352 29.7244 68.442 29.8613 68.5377 29.9631L67.6544 30.4731C67.463 30.2696 67.2992 30.05 67.1632 29.8144L67.1321 29.8324C67.1039 30.1997 66.9933 30.5361 66.8002 30.8416C66.614 31.1431 66.3338 31.4018 65.9597 31.6178C65.7657 31.7298 65.5453 31.8201 65.2985 31.8887C65.0627 31.9602 64.8242 31.987 64.583 31.9693C64.3418 31.9515 64.1063 31.8796 63.8765 31.7536C63.6536 31.6236 63.4602 31.4166 63.2962 31.1325C63.0802 30.7584 63.0107 30.406 63.0876 30.0752C63.1605 29.7375 63.3278 29.4192 63.5894 29.1204C63.847 28.8146 64.1702 28.5264 64.559 28.2557C64.9478 27.9851 65.35 27.7298 65.7657 27.4898L65.6877 27.3547ZM65.9347 28.3345C65.6922 28.4745 65.4453 28.6308 65.194 28.8036C64.9497 28.9724 64.7381 29.15 64.5593 29.3363C64.3875 29.5187 64.2683 29.7122 64.2017 29.9169C64.1352 30.1216 64.1619 30.3279 64.2819 30.5358C64.3659 30.6813 64.4636 30.7865 64.575 30.8515C64.6934 30.9125 64.819 30.9462 64.952 30.9525C65.085 30.9589 65.2184 30.9419 65.3522 30.9016C65.482 30.8544 65.6092 30.7948 65.7339 30.7228C66.1912 30.4588 66.4631 30.1217 66.5496 29.7115C66.639 29.2904 66.5637 28.872 66.3237 28.4563L66.1737 28.1965L65.9347 28.3345ZM70.6329 23.8483C70.4181 23.7322 70.1782 23.6767 69.9133 23.6818C69.6443 23.68 69.3852 23.7511 69.1358 23.8951C69.0249 23.9591 68.9221 24.037 68.8272 24.1287C68.7284 24.2135 68.6499 24.3096 68.5918 24.417C68.5367 24.5135 68.5054 24.6193 68.498 24.7345C68.4935 24.8387 68.5252 24.9497 68.5932 25.0675C68.7132 25.2753 68.8968 25.3772 69.1438 25.3731C69.3869 25.3621 69.7195 25.2902 70.1416 25.1573C70.4092 25.0767 70.6654 25.0166 70.9103 24.9768C71.1552 24.937 71.3845 24.934 71.5979 24.9678C71.8144 24.9906 72.0101 25.0577 72.1853 25.1691C72.3604 25.2804 72.51 25.4435 72.634 25.6582C72.802 25.9492 72.8886 26.2272 72.8937 26.4921C72.8989 26.757 72.8459 27.0093 72.7348 27.2489C72.6267 27.4776 72.4709 27.6877 72.2673 27.8791C72.0637 28.0705 71.8373 28.2383 71.5878 28.3823C71.2137 28.5983 70.8045 28.7375 70.3603 28.8C69.9229 28.8585 69.5005 28.8068 69.0929 28.6449L69.4472 27.6506C69.6908 27.7685 69.965 27.8274 70.2696 27.827C70.5812 27.8226 70.8755 27.7404 71.1526 27.5804C71.2773 27.5084 71.3891 27.4301 71.488 27.3453C71.5897 27.2496 71.6697 27.148 71.7277 27.0406C71.7927 26.9291 71.8269 26.8124 71.8304 26.6903C71.8338 26.5683 71.7955 26.4379 71.7155 26.2994C71.5835 26.0707 71.3747 25.965 71.089 25.9822C70.8102 25.9953 70.4315 26.0754 69.9529 26.2224C69.7626 26.2768 69.5648 26.3263 69.3596 26.3709C69.1574 26.4045 68.9569 26.4094 68.7584 26.3855C68.5598 26.3616 68.3715 26.2994 68.1934 26.199C68.0183 26.0876 67.8647 25.9176 67.7327 25.689C67.5807 25.4257 67.5027 25.1706 67.4986 24.9235C67.4975 24.6655 67.5495 24.4276 67.6547 24.2098C67.7559 23.9851 67.9014 23.7811 68.0911 23.5976C68.2768 23.4073 68.4874 23.2441 68.7229 23.1081C69.0763 22.9041 69.4558 22.7774 69.8614 22.728C70.2739 22.6745 70.6463 22.7274 70.9784 22.8867L70.6329 23.8483ZM78.393 24.2731L77.3642 24.8671L73.1162 17.5094L77.7096 14.8574L78.2316 15.7615L74.667 17.8195L75.987 20.1058L79.323 18.1798L79.833 19.0632L76.497 20.9892L78.393 24.2731ZM80.5504 17.873C80.4744 17.7414 80.3729 17.5736 80.246 17.3698C80.1191 17.1659 80.0027 16.9883 79.8968 16.837L80.8218 16.303C80.9076 16.4197 81.002 16.5592 81.1049 16.7215C81.2039 16.8768 81.2833 17.0065 81.3433 17.1104L81.3745 17.0924C81.3451 16.7214 81.412 16.3733 81.5753 16.0481C81.7415 15.712 81.9908 15.4479 82.3234 15.2559C82.4758 15.1679 82.612 15.1077 82.7319 15.0755L83.2123 16.0036C83.0538 16.0489 82.8948 16.1176 82.7355 16.2096C82.4999 16.3456 82.3215 16.5087 82.2003 16.6987C82.0751 16.8819 81.9956 17.0802 81.9618 17.2937C81.935 17.5032 81.9499 17.7209 82.0064 17.9469C82.059 18.166 82.1453 18.3794 82.2653 18.5873L83.7593 21.1749L82.7824 21.7389L80.5504 17.873ZM88.297 14.6891C88.1781 14.4991 88.0395 14.339 87.8811 14.2087C87.7257 14.0675 87.5531 13.9686 87.3633 13.9119C87.1805 13.8512 86.9824 13.8362 86.7692 13.8669C86.559 13.8867 86.3395 13.9626 86.1109 14.0946C85.903 14.2146 85.7276 14.3667 85.5845 14.5509C85.4444 14.7242 85.341 14.9132 85.2745 15.1179C85.2148 15.3186 85.19 15.5315 85.1999 15.7567C85.2128 15.971 85.2683 16.1791 85.3664 16.3811L88.297 14.6891ZM89.5123 14.514C89.5443 14.5695 89.5763 14.6249 89.6083 14.6803C89.6403 14.7357 89.6688 14.7932 89.6939 14.8526L85.7864 17.1086C85.9133 17.3124 86.0724 17.4839 86.2635 17.623C86.4576 17.7511 86.6674 17.8424 86.8929 17.897C87.1143 17.9446 87.3406 17.9526 87.5717 17.9208C87.8097 17.885 88.0361 17.8051 88.2508 17.6811C88.5834 17.4891 88.8289 17.2503 88.9874 16.9648C89.1459 16.6794 89.2344 16.3927 89.253 16.1048L90.2569 16.2596C90.1936 16.758 90.0298 17.1944 89.7656 17.5687C89.5042 17.932 89.1553 18.2397 88.7188 18.4917C88.3447 18.7077 87.9623 18.8453 87.5716 18.9046C87.1809 18.9639 86.8072 18.9487 86.4506 18.859C86.09 18.7624 85.7518 18.5927 85.4362 18.35C85.1206 18.1073 84.8508 17.792 84.6268 17.404C84.4068 17.0229 84.2671 16.6371 84.2078 16.2464C84.1514 15.8447 84.1716 15.4636 84.2682 15.103C84.3648 14.7424 84.533 14.4097 84.7728 14.105C85.0086 13.7933 85.3066 13.5335 85.6669 13.3255C86.0271 13.1175 86.3868 12.9884 86.7457 12.9382C87.1117 12.884 87.4591 12.9097 87.788 13.0154C88.1238 13.1171 88.4392 13.2953 88.734 13.55C89.0249 13.7978 89.2843 14.1191 89.5123 14.514ZM94.2544 11.2497C94.1354 11.0597 93.9968 10.8996 93.8384 10.7693C93.683 10.6281 93.5104 10.5291 93.3206 10.4724C93.1378 10.4117 92.9397 10.3967 92.7265 10.4274C92.5163 10.4472 92.2968 10.5231 92.0682 10.6551C91.8603 10.7751 91.6849 10.9272 91.5418 11.1114C91.4017 11.2847 91.2983 11.4737 91.2318 11.6784C91.1721 11.8791 91.1473 12.0921 91.1572 12.3173C91.1701 12.5316 91.2256 12.7397 91.3237 12.9417L94.2544 11.2497ZM95.4696 11.0746C95.5016 11.13 95.5336 11.1854 95.5656 11.2409C95.5976 11.2963 95.6262 11.3537 95.6512 11.4131L91.7437 13.6691C91.8706 13.873 92.0297 14.0444 92.2208 14.1835C92.4149 14.3116 92.6247 14.403 92.8502 14.4575C93.0717 14.5052 93.2979 14.5131 93.529 14.4813C93.767 14.4455 93.9934 14.3656 94.2081 14.2416C94.5407 14.0496 94.7862 13.8109 94.9447 13.5254C95.1032 13.2399 95.1917 12.9532 95.2103 12.6654L96.2142 12.8202C96.1509 13.3186 95.9871 13.7549 95.7229 14.1292C95.4615 14.4926 95.1126 14.8002 94.6761 15.0522C94.302 15.2682 93.9196 15.4059 93.5289 15.4652C93.1382 15.5245 92.7645 15.5093 92.4079 15.4196C92.0473 15.3229 91.7091 15.1533 91.3935 14.9106C91.0779 14.6679 90.8081 14.3525 90.5841 13.9645C90.3641 13.5835 90.2244 13.1976 90.1651 12.8069C90.1088 12.4053 90.1289 12.0242 90.2255 11.6635C90.3222 11.3029 90.4904 10.9702 90.7301 10.6655C90.9659 10.3539 91.2639 10.0941 91.6242 9.88608C91.9844 9.67808 92.3441 9.54897 92.7031 9.49875C93.069 9.44452 93.4164 9.47027 93.7453 9.57597C94.0811 9.67767 94.3965 9.85587 94.6913 10.1106C94.9822 10.3583 95.2416 10.6797 95.4696 11.0746Z" fill="white" fill-opacity="0.2"/>
<path d="M232.337 39.9106C231.975 39.7961 231.579 39.7661 231.149 39.8206C230.725 39.8711 230.302 40.0184 229.879 40.2624C229.45 40.5104 229.108 40.814 228.854 41.1734C228.595 41.5258 228.423 41.9071 228.336 42.3173C228.25 42.7275 228.245 43.1507 228.321 43.587C228.393 44.0163 228.546 44.4319 228.778 44.8338C229.014 45.2425 229.301 45.589 229.641 45.8733C229.981 46.1576 230.35 46.3648 230.748 46.495C231.143 46.6183 231.561 46.6541 232.002 46.6026C232.443 46.551 232.882 46.3992 233.319 46.1472C233.665 45.9472 233.966 45.732 234.221 45.5017C234.476 45.2713 234.677 45.0352 234.823 44.7935L233.641 42.7462L232.01 43.6882L231.506 42.8152L234.156 41.2852L236.214 44.8498C235.946 45.2816 235.615 45.685 235.222 46.0598C234.829 46.4347 234.362 46.7781 233.821 47.0901C233.246 47.4221 232.662 47.6346 232.069 47.7275C231.479 47.8095 230.913 47.7808 230.371 47.6413C229.824 47.4949 229.318 47.2421 228.852 46.883C228.382 46.517 227.983 46.0499 227.655 45.4818C227.323 44.9067 227.118 44.3276 227.04 43.7445C226.965 43.1505 227.005 42.5872 227.159 42.0546C227.316 41.5111 227.58 41.0079 227.95 40.5448C228.32 40.0818 228.786 39.6882 229.347 39.3642C229.936 39.0242 230.509 38.8088 231.066 38.718C231.631 38.6232 232.149 38.6333 232.622 38.7483L232.337 39.9106ZM239.42 39.3547C239.208 38.9875 238.941 38.7813 238.619 38.7361C238.293 38.6839 237.947 38.7639 237.58 38.9759C237.303 39.1359 237.071 39.3433 236.886 39.5982C236.703 39.8421 236.577 40.0952 236.507 40.3575L235.627 40.0339C235.738 39.6653 235.928 39.3152 236.198 38.9835C236.476 38.6479 236.815 38.3641 237.217 38.1321C237.571 37.9281 237.905 37.804 238.222 37.7599C238.541 37.7049 238.834 37.716 239.1 37.7932C239.366 37.8705 239.609 38.0028 239.828 38.1904C240.047 38.378 240.235 38.6068 240.391 38.877L241.633 41.0282C241.729 41.1945 241.834 41.3692 241.949 41.5522C242.067 41.7244 242.174 41.8613 242.27 41.9631L241.386 42.4731C241.195 42.2696 241.031 42.05 240.895 41.8144L240.864 41.8324C240.836 42.1997 240.725 42.5361 240.532 42.8416C240.346 43.1431 240.066 43.4018 239.692 43.6178C239.498 43.7298 239.277 43.8201 239.03 43.8887C238.795 43.9602 238.556 43.987 238.315 43.9693C238.074 43.9515 237.838 43.8796 237.608 43.7536C237.386 43.6236 237.192 43.4166 237.028 43.1325C236.812 42.7584 236.743 42.406 236.82 42.0752C236.892 41.7375 237.06 41.4192 237.321 41.1204C237.579 40.8146 237.902 40.5264 238.291 40.2557C238.68 39.9851 239.082 39.7298 239.498 39.4898L239.42 39.3547ZM239.667 40.3345C239.424 40.4745 239.177 40.6308 238.926 40.8036C238.682 40.9724 238.47 41.15 238.291 41.3363C238.119 41.5187 238 41.7122 237.934 41.9169C237.867 42.1216 237.894 42.3279 238.014 42.5358C238.098 42.6813 238.196 42.7865 238.307 42.8515C238.425 42.9125 238.551 42.9462 238.684 42.9525C238.817 42.9589 238.95 42.9419 239.084 42.9016C239.214 42.8544 239.341 42.7948 239.466 42.7228C239.923 42.4588 240.195 42.1217 240.281 41.7115C240.371 41.2904 240.296 40.872 240.056 40.4563L239.906 40.1965L239.667 40.3345ZM244.365 35.8483C244.15 35.7322 243.91 35.6767 243.645 35.6818C243.376 35.68 243.117 35.7511 242.868 35.8951C242.757 35.9591 242.654 36.037 242.559 36.1287C242.46 36.2135 242.382 36.3096 242.324 36.417C242.269 36.5135 242.237 36.6193 242.23 36.7345C242.225 36.8387 242.257 36.9497 242.325 37.0675C242.445 37.2753 242.629 37.3772 242.876 37.3731C243.119 37.3621 243.451 37.2902 243.874 37.1573C244.141 37.0767 244.397 37.0166 244.642 36.9768C244.887 36.937 245.116 36.934 245.33 36.9678C245.546 36.9906 245.742 37.0577 245.917 37.1691C246.092 37.2804 246.242 37.4435 246.366 37.6582C246.534 37.9492 246.62 38.2272 246.626 38.4921C246.631 38.757 246.578 39.0093 246.467 39.2489C246.359 39.4776 246.203 39.6877 245.999 39.8791C245.796 40.0705 245.569 40.2383 245.32 40.3823C244.946 40.5983 244.536 40.7375 244.092 40.8C243.655 40.8585 243.232 40.8068 242.825 40.6449L243.179 39.6506C243.423 39.7685 243.697 39.8274 244.002 39.827C244.313 39.8226 244.607 39.7404 244.885 39.5804C245.009 39.5084 245.121 39.4301 245.22 39.3453C245.322 39.2496 245.402 39.148 245.46 39.0406C245.525 38.9291 245.559 38.8124 245.562 38.6903C245.566 38.5683 245.527 38.4379 245.447 38.2994C245.315 38.0707 245.107 37.965 244.821 37.9822C244.542 37.9953 244.163 38.0754 243.685 38.2224C243.495 38.2768 243.297 38.3263 243.092 38.3709C242.889 38.4045 242.689 38.4094 242.49 38.3855C242.292 38.3616 242.103 38.2994 241.925 38.199C241.75 38.0876 241.597 37.9176 241.465 37.689C241.313 37.4257 241.235 37.1706 241.231 36.9235C241.229 36.6655 241.281 36.4276 241.387 36.2098C241.488 35.9851 241.633 35.7811 241.823 35.5976C242.009 35.4073 242.219 35.2441 242.455 35.1081C242.808 34.9041 243.188 34.7774 243.593 34.728C244.006 34.6745 244.378 34.7274 244.71 34.8867L244.365 35.8483ZM252.125 36.2731L251.096 36.8671L246.848 29.5094L251.442 26.8574L251.964 27.7615L248.399 29.8195L249.719 32.1058L253.055 30.1798L253.565 31.0632L250.229 32.9892L252.125 36.2731ZM254.282 29.873C254.206 29.7414 254.105 29.5736 253.978 29.3698C253.851 29.1659 253.735 28.9883 253.629 28.837L254.554 28.303C254.64 28.4197 254.734 28.5592 254.837 28.7215C254.936 28.8768 255.015 29.0065 255.075 29.1104L255.106 29.0924C255.077 28.7214 255.144 28.3733 255.307 28.0481C255.473 27.712 255.723 27.4479 256.055 27.2559C256.208 27.1679 256.344 27.1077 256.464 27.0755L256.944 28.0036C256.786 28.0489 256.627 28.1176 256.467 28.2096C256.232 28.3456 256.053 28.5087 255.932 28.6987C255.807 28.8819 255.728 29.0802 255.694 29.2937C255.667 29.5032 255.682 29.7209 255.738 29.9469C255.791 30.166 255.877 30.3794 255.997 30.5873L257.491 33.1749L256.514 33.7389L254.282 29.873ZM262.029 26.6891C261.91 26.4991 261.771 26.339 261.613 26.2087C261.458 26.0675 261.285 25.9686 261.095 25.9119C260.912 25.8512 260.714 25.8362 260.501 25.8669C260.291 25.8867 260.071 25.9626 259.843 26.0946C259.635 26.2146 259.46 26.3667 259.316 26.5509C259.176 26.7242 259.073 26.9132 259.006 27.1179C258.947 27.3186 258.922 27.5315 258.932 27.7567C258.945 27.971 259 28.1791 259.098 28.3811L262.029 26.6891ZM263.244 26.514C263.276 26.5695 263.308 26.6249 263.34 26.6803C263.372 26.7357 263.401 26.7932 263.426 26.8526L259.518 29.1086C259.645 29.3124 259.804 29.4839 259.995 29.623C260.19 29.7511 260.399 29.8424 260.625 29.897C260.846 29.9446 261.073 29.9526 261.304 29.9208C261.542 29.885 261.768 29.8051 261.983 29.6811C262.315 29.4891 262.561 29.2503 262.719 28.9648C262.878 28.6794 262.966 28.3927 262.985 28.1048L263.989 28.2596C263.926 28.758 263.762 29.1944 263.497 29.5687C263.236 29.932 262.887 30.2397 262.451 30.4917C262.077 30.7077 261.694 30.8453 261.304 30.9046C260.913 30.9639 260.539 30.9487 260.183 30.859C259.822 30.7624 259.484 30.5927 259.168 30.35C258.853 30.1073 258.583 29.792 258.359 29.404C258.139 29.0229 257.999 28.6371 257.94 28.2464C257.883 27.8447 257.904 27.4636 258 27.103C258.097 26.7424 258.265 26.4097 258.505 26.105C258.741 25.7933 259.039 25.5335 259.399 25.3255C259.759 25.1175 260.119 24.9884 260.478 24.9382C260.844 24.884 261.191 24.9097 261.52 25.0154C261.856 25.1171 262.171 25.2953 262.466 25.55C262.757 25.7978 263.016 26.1191 263.244 26.514ZM267.986 23.2497C267.867 23.0597 267.729 22.8996 267.57 22.7693C267.415 22.6281 267.242 22.5291 267.053 22.4724C266.87 22.4117 266.672 22.3967 266.458 22.4274C266.248 22.4472 266.029 22.5231 265.8 22.6551C265.592 22.7751 265.417 22.9272 265.274 23.1114C265.134 23.2847 265.03 23.4737 264.964 23.6784C264.904 23.8791 264.879 24.0921 264.889 24.3173C264.902 24.5316 264.958 24.7397 265.056 24.9417L267.986 23.2497ZM269.202 23.0746C269.234 23.13 269.266 23.1854 269.298 23.2409C269.33 23.2963 269.358 23.3537 269.383 23.4131L265.476 25.6691C265.603 25.873 265.762 26.0444 265.953 26.1835C266.147 26.3116 266.357 26.403 266.582 26.4575C266.804 26.5052 267.03 26.5131 267.261 26.4813C267.499 26.4455 267.725 26.3656 267.94 26.2416C268.273 26.0496 268.518 25.8109 268.677 25.5254C268.835 25.2399 268.924 24.9532 268.942 24.6654L269.946 24.8202C269.883 25.3186 269.719 25.7549 269.455 26.1292C269.193 26.4926 268.845 26.8002 268.408 27.0522C268.034 27.2682 267.652 27.4059 267.261 27.4652C266.87 27.5245 266.496 27.5093 266.14 27.4196C265.779 27.3229 265.441 27.1533 265.125 26.9106C264.81 26.6679 264.54 26.3525 264.316 25.9645C264.096 25.5835 263.956 25.1976 263.897 24.8069C263.841 24.4053 263.861 24.0242 263.957 23.6635C264.054 23.3029 264.222 22.9702 264.462 22.6655C264.698 22.3539 264.996 22.0941 265.356 21.8861C265.716 21.6781 266.076 21.549 266.435 21.4987C266.801 21.4445 267.148 21.4703 267.477 21.576C267.813 21.6777 268.128 21.8559 268.423 22.1106C268.714 22.3583 268.974 22.6797 269.202 23.0746Z" fill="white" fill-opacity="0.2"/>
<path d="M305.337 15.9106C304.975 15.7961 304.579 15.7661 304.149 15.8206C303.725 15.8711 303.302 16.0184 302.879 16.2624C302.45 16.5104 302.108 16.814 301.854 17.1734C301.595 17.5258 301.423 17.9071 301.336 18.3173C301.25 18.7275 301.245 19.1507 301.321 19.587C301.393 20.0163 301.546 20.4319 301.778 20.8338C302.014 21.2425 302.301 21.589 302.641 21.8733C302.981 22.1576 303.35 22.3648 303.748 22.495C304.143 22.6183 304.561 22.6541 305.002 22.6026C305.443 22.551 305.882 22.3992 306.319 22.1472C306.665 21.9472 306.966 21.732 307.221 21.5017C307.476 21.2713 307.677 21.0352 307.823 20.7935L306.641 18.7462L305.01 19.6882L304.506 18.8152L307.156 17.2852L309.214 20.8498C308.946 21.2816 308.615 21.685 308.222 22.0598C307.829 22.4347 307.362 22.7781 306.821 23.0901C306.246 23.4221 305.662 23.6346 305.069 23.7275C304.479 23.8095 303.913 23.7808 303.371 23.6413C302.824 23.4949 302.318 23.2421 301.852 22.883C301.382 22.517 300.983 22.0499 300.655 21.4818C300.323 20.9067 300.118 20.3276 300.04 19.7445C299.965 19.1505 300.005 18.5872 300.159 18.0546C300.316 17.5111 300.58 17.0079 300.95 16.5448C301.32 16.0818 301.786 15.6882 302.347 15.3642C302.936 15.0242 303.509 14.8088 304.066 14.718C304.631 14.6232 305.149 14.6333 305.622 14.7483L305.337 15.9106ZM312.42 15.3547C312.208 14.9875 311.941 14.7813 311.619 14.7361C311.293 14.6839 310.947 14.7639 310.58 14.9759C310.303 15.1359 310.071 15.3433 309.886 15.5982C309.703 15.8421 309.577 16.0952 309.507 16.3575L308.627 16.0339C308.738 15.6653 308.928 15.3152 309.198 14.9835C309.476 14.6479 309.815 14.3641 310.217 14.1321C310.571 13.9281 310.905 13.804 311.222 13.7599C311.541 13.7049 311.834 13.716 312.1 13.7932C312.366 13.8705 312.609 14.0028 312.828 14.1904C313.047 14.378 313.235 14.6068 313.391 14.877L314.633 17.0282C314.729 17.1945 314.834 17.3692 314.949 17.5522C315.067 17.7244 315.174 17.8613 315.27 17.9631L314.386 18.4731C314.195 18.2696 314.031 18.05 313.895 17.8144L313.864 17.8324C313.836 18.1997 313.725 18.5361 313.532 18.8416C313.346 19.1431 313.066 19.4018 312.692 19.6178C312.498 19.7298 312.277 19.8201 312.03 19.8887C311.795 19.9602 311.556 19.987 311.315 19.9693C311.074 19.9515 310.838 19.8796 310.608 19.7536C310.386 19.6236 310.192 19.4166 310.028 19.1325C309.812 18.7584 309.743 18.406 309.82 18.0752C309.892 17.7375 310.06 17.4192 310.321 17.1204C310.579 16.8146 310.902 16.5264 311.291 16.2557C311.68 15.9851 312.082 15.7298 312.498 15.4898L312.42 15.3547ZM312.667 16.3345C312.424 16.4745 312.177 16.6308 311.926 16.8036C311.682 16.9724 311.47 17.15 311.291 17.3363C311.119 17.5187 311 17.7122 310.934 17.9169C310.867 18.1216 310.894 18.3279 311.014 18.5358C311.098 18.6813 311.196 18.7865 311.307 18.8515C311.425 18.9125 311.551 18.9462 311.684 18.9525C311.817 18.9589 311.95 18.9419 312.084 18.9016C312.214 18.8544 312.341 18.7948 312.466 18.7228C312.923 18.4588 313.195 18.1217 313.281 17.7115C313.371 17.2904 313.296 16.872 313.056 16.4563L312.906 16.1965L312.667 16.3345ZM317.365 11.8483C317.15 11.7322 316.91 11.6767 316.645 11.6818C316.376 11.68 316.117 11.7511 315.868 11.8951C315.757 11.9591 315.654 12.037 315.559 12.1287C315.46 12.2135 315.382 12.3096 315.324 12.417C315.269 12.5135 315.237 12.6193 315.23 12.7345C315.225 12.8387 315.257 12.9497 315.325 13.0675C315.445 13.2753 315.629 13.3772 315.876 13.3731C316.119 13.3621 316.451 13.2902 316.874 13.1573C317.141 13.0767 317.397 13.0166 317.642 12.9768C317.887 12.937 318.116 12.934 318.33 12.9678C318.546 12.9906 318.742 13.0577 318.917 13.1691C319.092 13.2804 319.242 13.4435 319.366 13.6582C319.534 13.9492 319.62 14.2272 319.626 14.4921C319.631 14.757 319.578 15.0093 319.467 15.2489C319.359 15.4776 319.203 15.6877 318.999 15.8791C318.796 16.0705 318.569 16.2383 318.32 16.3823C317.946 16.5983 317.536 16.7375 317.092 16.8C316.655 16.8585 316.232 16.8068 315.825 16.6449L316.179 15.6506C316.423 15.7685 316.697 15.8274 317.002 15.827C317.313 15.8226 317.607 15.7404 317.885 15.5804C318.009 15.5084 318.121 15.4301 318.22 15.3453C318.322 15.2496 318.402 15.148 318.46 15.0406C318.525 14.9291 318.559 14.8124 318.562 14.6903C318.566 14.5683 318.527 14.4379 318.447 14.2994C318.315 14.0707 318.107 13.965 317.821 13.9822C317.542 13.9953 317.163 14.0754 316.685 14.2224C316.495 14.2768 316.297 14.3263 316.092 14.3709C315.889 14.4045 315.689 14.4094 315.49 14.3855C315.292 14.3616 315.103 14.2994 314.925 14.199C314.75 14.0876 314.597 13.9176 314.465 13.689C314.313 13.4257 314.235 13.1706 314.231 12.9235C314.229 12.6655 314.281 12.4276 314.387 12.2098C314.488 11.9851 314.633 11.7811 314.823 11.5976C315.009 11.4073 315.219 11.2441 315.455 11.1081C315.808 10.9041 316.188 10.7774 316.593 10.728C317.006 10.6745 317.378 10.7274 317.71 10.8867L317.365 11.8483ZM325.125 12.2731L324.096 12.8671L319.848 5.50939L324.442 2.85739L324.964 3.76152L321.399 5.81952L322.719 8.10583L326.055 6.17983L326.565 7.06318L323.229 8.98918L325.125 12.2731ZM327.282 5.873C327.206 5.74137 327.105 5.57363 326.978 5.36978C326.851 5.16593 326.735 4.98834 326.629 4.83699L327.554 4.30299C327.64 4.4197 327.734 4.55919 327.837 4.72147C327.936 4.87681 328.015 5.00645 328.075 5.11037L328.106 5.09237C328.077 4.72139 328.144 4.37329 328.307 4.04809C328.473 3.71196 328.723 3.44789 329.055 3.25589C329.208 3.16789 329.344 3.10775 329.464 3.07546L329.944 4.00359C329.786 4.04895 329.627 4.11763 329.467 4.20963C329.232 4.34563 329.053 4.50866 328.932 4.69873C328.807 4.88187 328.728 5.08018 328.694 5.29367C328.667 5.50317 328.682 5.72091 328.738 5.9469C328.791 6.16596 328.877 6.37941 328.997 6.58726L330.491 9.17494L329.514 9.73894L327.282 5.873ZM335.029 2.68913C334.91 2.49914 334.771 2.33901 334.613 2.20873C334.458 2.06752 334.285 1.96857 334.095 1.91186C333.912 1.85115 333.714 1.83616 333.501 1.86688C333.291 1.88667 333.071 1.96256 332.843 2.09456C332.635 2.21456 332.46 2.36667 332.316 2.55088C332.176 2.72416 332.073 2.91315 332.006 3.11786C331.947 3.31857 331.922 3.53152 331.932 3.75673C331.945 3.97101 332 4.17914 332.098 4.38113L335.029 2.68913ZM336.244 2.51404C336.276 2.56946 336.308 2.62489 336.34 2.68031C336.372 2.73574 336.401 2.79316 336.426 2.85259L332.518 5.10859C332.645 5.31244 332.804 5.48389 332.995 5.62295C333.19 5.75108 333.399 5.84243 333.625 5.897C333.846 5.94463 334.073 5.95256 334.304 5.92077C334.542 5.88498 334.768 5.80508 334.983 5.68108C335.315 5.48908 335.561 5.25034 335.719 4.96484C335.878 4.67935 335.966 4.39268 335.985 4.10484L336.989 4.25963C336.926 4.75804 336.762 5.19438 336.497 5.56866C336.236 5.93201 335.887 6.23968 335.451 6.49168C335.077 6.70768 334.694 6.84533 334.304 6.90462C333.913 6.96391 333.539 6.94871 333.183 6.85901C332.822 6.76237 332.484 6.59271 332.168 6.35001C331.853 6.10732 331.583 5.79198 331.359 5.404C331.139 5.02295 330.999 4.63707 330.94 4.24638C330.883 3.84475 330.904 3.46362 331 3.10299C331.097 2.74236 331.265 2.40969 331.505 2.10498C331.741 1.79335 332.039 1.53353 332.399 1.32553C332.759 1.11753 333.119 0.988419 333.478 0.938198C333.844 0.883978 334.191 0.909719 334.52 1.01542C334.856 1.11712 335.171 1.29532 335.466 1.55002C335.757 1.79779 336.016 2.11913 336.244 2.51404ZM340.986 -0.750324C340.867 -0.940314 340.729 -1.10045 340.57 -1.23072C340.415 -1.37193 340.242 -1.47089 340.053 -1.52759C339.87 -1.5883 339.672 -1.6033 339.458 -1.57258C339.248 -1.55279 339.029 -1.47689 338.8 -1.34489C338.592 -1.22489 338.417 -1.07279 338.274 -0.888578C338.134 -0.715296 338.03 -0.526301 337.964 -0.321593C337.904 -0.120886 337.879 0.0920708 337.889 0.317276C337.902 0.531553 337.958 0.739686 338.056 0.941676L340.986 -0.750324ZM342.202 -0.925417C342.234 -0.869991 342.266 -0.814565 342.298 -0.75914C342.33 -0.703714 342.358 -0.646289 342.383 -0.586863L338.476 1.66914C338.603 1.87298 338.762 2.04444 338.953 2.1835C339.147 2.31163 339.357 2.40298 339.582 2.45754C339.804 2.50518 340.03 2.5131 340.261 2.48131C340.499 2.44552 340.725 2.36563 340.94 2.24163C341.273 2.04963 341.518 1.81088 341.677 1.52539C341.835 1.2399 341.924 0.953229 341.942 0.665383L342.946 0.820175C342.883 1.31859 342.719 1.75493 342.455 2.12921C342.193 2.49255 341.845 2.80023 341.408 3.05223C341.034 3.26823 340.652 3.40587 340.261 3.46517C339.87 3.52446 339.496 3.50925 339.14 3.41955C338.779 3.32292 338.441 3.15326 338.125 2.91056C337.81 2.66786 337.54 2.35252 337.316 1.96454C337.096 1.58349 336.956 1.19762 336.897 0.806922C336.841 0.405297 336.861 0.0241684 336.957 -0.336462C337.054 -0.697093 337.222 -1.02976 337.462 -1.33447C337.698 -1.64611 337.996 -1.90592 338.356 -2.11392C338.716 -2.32192 339.076 -2.45103 339.435 -2.50125C339.801 -2.55548 340.148 -2.52973 340.477 -2.42403C340.813 -2.32233 341.128 -2.14413 341.423 -1.88943C341.714 -1.64166 341.974 -1.32032 342.202 -0.925417Z" fill="white" fill-opacity="0.2"/>
</g>
</svg>
