<svg width="40" height="40" viewBox="0 0 40 40" fill="none" xmlns="http://www.w3.org/2000/svg">
<rect width="40" height="40" rx="4.63658" fill="white"/>
<path d="M24.5066 17.8462C27.7223 17.8462 29.8979 18.9642 29.9971 20.4472L30.0001 20.5539V27.3259C29.9627 28.8506 27.7849 30 24.5066 30C21.2978 30 19.1229 28.8798 19.023 27.399L19.0192 27.2931V20.5531C19.0192 19.0197 21.22 17.8462 24.5066 17.8462ZM20.8006 25.9779V27.2923C20.8006 27.6648 22.4454 28.3037 24.5066 28.3037C26.5015 28.3037 28.112 27.7042 28.2111 27.3296L28.2157 27.2931V25.9801L28.1204 26.0239C27.261 26.3891 26.1415 26.5972 24.8162 26.6249L24.5066 26.6278C23.0692 26.6278 21.843 26.4139 20.9043 26.0232L20.8006 25.9779ZM20.8006 22.5992V23.9209C20.8006 24.2948 22.4439 24.9337 24.5066 24.9337C26.5022 24.9359 28.112 24.3349 28.2111 23.9574L28.2157 23.9209V22.5999L28.1151 22.6459C27.2457 23.0111 26.1248 23.2214 24.8132 23.2491L24.5066 23.2528C23.0715 23.2528 21.8453 23.0373 20.905 22.6452L20.8006 22.5992ZM24.5066 19.5396C22.4462 19.5396 20.8006 20.1807 20.8006 20.5539C20.8006 20.9255 22.4454 21.5645 24.5066 21.5645C26.5701 21.5645 28.2157 20.927 28.2157 20.5539C28.2157 20.1793 26.5716 19.5396 24.5066 19.5396Z" fill="#0F134F"/>
<path d="M18.0473 10C22.3436 10 25.9596 11.4298 26.0923 13.6175L26.0954 13.7424V16.3106C26.0954 16.7794 25.6958 17.1591 25.2032 17.1591C24.7441 17.1591 24.3644 16.8283 24.3163 16.4033L24.311 16.3106V16.1587L24.2302 16.204C22.8522 16.9415 20.8246 17.3942 18.6924 17.4702L18.3554 17.4789L18.0473 17.4819C15.7741 17.4819 13.5741 17.0532 12.0841 16.2916L11.8759 16.1806L11.805 16.1397V18.9766C11.805 19.8054 13.9935 20.789 16.9294 20.9869L17.1627 21.0008L17.393 21.011C17.7103 21.0227 17.997 21.1943 18.1449 21.4616C18.2936 21.7296 18.2807 22.053 18.1106 22.3086C17.9405 22.5642 17.6409 22.7139 17.3236 22.7022C15.3456 22.6314 13.4651 22.229 12.1176 21.574L11.8858 21.4557L11.7928 21.4046V24.2401C11.7928 25.0689 13.9821 26.0525 16.918 26.2504L17.1513 26.2642L17.3816 26.2745C17.6988 26.2876 17.9848 26.4607 18.132 26.7287C18.2791 26.9966 18.2646 27.3201 18.0938 27.575C18.0092 27.7004 17.8917 27.8024 17.7531 27.8709C17.6145 27.9393 17.4596 27.9717 17.3038 27.9649C13.2722 27.786 10.1281 26.4103 10.0038 24.3576L10 24.2313V13.7424C10 11.4802 13.6649 10 18.0473 10ZM18.0473 11.697C14.5525 11.697 11.7813 12.7894 11.7813 13.7365C11.7813 14.6836 14.5632 15.7819 18.0473 15.7819C21.5337 15.7819 24.311 14.688 24.311 13.7424C24.311 12.7931 21.5406 11.697 18.0473 11.697Z" fill="#0F134F"/>
</svg>
