<svg width="14" height="14" viewBox="0 0 14 14" fill="none" xmlns="http://www.w3.org/2000/svg">
<path opacity="0.6" d="M1.5 2V11C1.5 11.5523 1.94772 12 2.5 12H12.5" stroke="white" stroke-linecap="round"/>
<path opacity="0.6" fill-rule="evenodd" clip-rule="evenodd" d="M10.5 3C10.2239 3 10 3.22386 10 3.5V9.5C10 9.77614 10.2239 10 10.5 10C10.7761 10 11 9.77614 11 9.5V3.5C11 3.22386 10.7761 3 10.5 3ZM6.5 4C6.22386 4 6 4.22386 6 4.5V9.5C6 9.77614 6.22386 10 6.5 10C6.77614 10 7 9.77614 7 9.5V4.5C7 4.22386 6.77614 4 6.5 4ZM4.5 6C4.22386 6 4 6.22386 4 6.5V9.5C4 9.77614 4.22386 10 4.5 10C4.77614 10 5 9.77614 5 9.5V6.5C5 6.22386 4.77614 6 4.5 6ZM8 6.5C8 6.22386 8.22386 6 8.5 6C8.77614 6 9 6.22386 9 6.5V9.5C9 9.77614 8.77614 10 8.5 10C8.22386 10 8 9.77614 8 9.5V6.5Z" fill="white"/>
</svg>
