<svg width="14" height="14" viewBox="0 0 14 14" fill="none" xmlns="http://www.w3.org/2000/svg">
<g id="&#229;&#133;&#179;&#233;&#151;&#173;">
<path id="Rectangle" fill-rule="evenodd" clip-rule="evenodd" d="M0.53033 13.257C0.237437 12.9641 0.237437 12.4892 0.53033 12.1964L12.1966 0.530099C12.4895 0.237205 12.9644 0.237206 13.2572 0.530099C13.5501 0.822992 13.5501 1.29787 13.2572 1.59076L1.59099 13.257C1.2981 13.5499 0.823223 13.5499 0.53033 13.257Z" fill="#0F134F"/>
<path id="Rectangle Copy 2" fill-rule="evenodd" clip-rule="evenodd" d="M0.742985 0.53033C1.03588 0.237437 1.51075 0.237437 1.80365 0.53033L13.4699 12.1966C13.7628 12.4895 13.7628 12.9644 13.4699 13.2572C13.177 13.5501 12.7021 13.5501 12.4092 13.2572L0.742985 1.59099C0.450091 1.2981 0.450092 0.823223 0.742985 0.53033Z" fill="#0F134F"/>
</g>
</svg>
