<svg width="14" height="14" viewBox="0 0 14 14" fill="none" xmlns="http://www.w3.org/2000/svg">
<rect width="14" height="14" rx="1" fill="#22232B" fill-opacity="0.06"/>
<path fill-rule="evenodd" clip-rule="evenodd" d="M6.36021 9.24539H7.65163V8.45313C7.65163 8.24363 7.66709 8.07346 7.69502 7.93938C7.72253 7.80736 7.76633 7.69367 7.82443 7.59581L7.82758 7.59015C7.8886 7.48054 7.96748 7.37573 8.06577 7.27597C8.18134 7.16714 8.32136 7.04532 8.48643 6.91029L8.48975 6.90747C8.64414 6.77609 8.79067 6.64874 8.92915 6.52527L8.9344 6.52028C9.08367 6.37832 9.21219 6.2221 9.31916 6.05162C9.43754 5.87595 9.52733 5.67928 9.58963 5.46342C9.65367 5.24154 9.68359 4.99034 9.68359 4.71317C9.68359 4.34151 9.61356 4.00104 9.46813 3.69684C9.33445 3.40057 9.15029 3.14996 8.91535 2.94859C8.68104 2.73962 8.40431 2.58724 8.08904 2.4894C7.78324 2.38391 7.45801 2.33203 7.11478 2.33203C6.44129 2.33203 5.85783 2.52953 5.378 2.93353C4.90477 3.3306 4.6071 3.87816 4.47758 4.55873L4.43359 4.78985L5.70214 5.01607L5.73781 4.78631C5.7954 4.41529 5.94028 4.11992 6.16834 3.88895C6.39471 3.66753 6.69135 3.54989 7.07849 3.54989C7.26564 3.54989 7.43367 3.57896 7.5846 3.63442L7.58751 3.63544C7.74818 3.69192 7.88393 3.77158 7.99766 3.87298C8.10951 3.97272 8.1997 4.09663 8.26779 4.248C8.3328 4.39252 8.36798 4.56229 8.36798 4.76205C8.36798 5.04553 8.30702 5.26288 8.19987 5.42848L8.19659 5.43387C8.08202 5.62201 7.93425 5.78963 7.75172 5.93718L7.40398 6.25085L7.40037 6.25426C7.27747 6.37017 7.15466 6.49013 7.03195 6.61414C6.90767 6.73972 6.79338 6.88188 6.68904 7.04003L6.68434 7.0478C6.58428 7.21326 6.50412 7.39869 6.44275 7.60245L6.44097 7.60905C6.38609 7.81238 6.36021 8.03748 6.36021 8.28202V9.24539ZM7.53483 7.68789C7.51129 7.75253 7.49206 7.82065 7.47714 7.89226C7.44489 8.04707 7.42876 8.23448 7.42876 8.45447V9.01534H7.42925V8.45313C7.42925 8.23313 7.44537 8.04572 7.47763 7.89091C7.49244 7.8198 7.51151 7.75213 7.53483 7.68789ZM9.37654 5.3976C9.36369 5.44214 9.34957 5.48563 9.33421 5.52806C9.34939 5.48606 9.36333 5.44302 9.37605 5.39895C9.4325 5.2034 9.46072 4.97525 9.46072 4.71451C9.46072 4.3723 9.39621 4.06674 9.2672 3.79786C9.14625 3.52897 8.98095 3.3049 8.7713 3.12564C8.56166 2.93824 8.31169 2.79972 8.02141 2.71009C7.7392 2.61231 7.43682 2.56343 7.11429 2.56343C6.48535 2.56343 5.95317 2.74676 5.51775 3.11342C5.20481 3.37595 4.97402 3.71276 4.82538 4.12384C4.974 3.71215 5.20495 3.37489 5.51824 3.11207C5.95366 2.74541 6.48584 2.56208 7.11478 2.56208C7.43731 2.56208 7.73969 2.61097 8.0219 2.70874C8.31218 2.79837 8.56215 2.93689 8.77179 3.12429C8.98144 3.30355 9.14674 3.52762 9.26769 3.79651C9.3967 4.0654 9.46121 4.37095 9.46121 4.71317C9.46121 4.9739 9.43299 5.20205 9.37654 5.3976ZM8.50222 5.31813C8.47123 5.40389 8.43208 5.48335 8.38475 5.55649C8.25574 5.76834 8.09044 5.95575 7.88886 6.11871L7.5502 6.42426C7.42925 6.53833 7.3083 6.65648 7.18735 6.7787C7.07446 6.89277 6.96964 7.02314 6.87288 7.16981C6.80555 7.28114 6.74751 7.4042 6.69877 7.53901C6.74741 7.40473 6.80529 7.28211 6.87239 7.17115C6.96915 7.02449 7.07397 6.89412 7.18686 6.78005C7.30781 6.65783 7.42876 6.53968 7.54971 6.42561L7.88837 6.12005C8.08995 5.95709 8.25525 5.76969 8.38426 5.55784C8.43184 5.48431 8.47116 5.40441 8.50222 5.31813ZM7.09059 11.6654C7.33746 11.6654 7.55511 11.5797 7.72274 11.3991L7.72732 11.394C7.88155 11.2173 7.9661 11.0088 7.9661 10.7753C7.9661 10.5424 7.8818 10.3364 7.72504 10.1663C7.55889 9.97745 7.34074 9.88528 7.09059 9.88528C6.84044 9.88528 6.62228 9.97745 6.45613 10.1663C6.29937 10.3364 6.21507 10.5424 6.21507 10.7753C6.21507 11.0088 6.29955 11.2174 6.45378 11.394L6.45843 11.3991C6.62606 11.5797 6.84371 11.6654 7.09059 11.6654ZM6.47523 10.5538C6.50524 10.4709 6.55312 10.394 6.61888 10.3231C6.73983 10.1846 6.89707 10.1153 7.09059 10.1153C7.28411 10.1153 7.44134 10.1846 7.56229 10.3231C7.68324 10.4535 7.74372 10.6042 7.74372 10.7753C7.74372 10.855 7.73061 10.9311 7.70439 11.0037C7.73029 10.9315 7.74323 10.8558 7.74323 10.7767C7.74323 10.6056 7.68275 10.4548 7.5618 10.3245C7.44085 10.1859 7.28362 10.1167 7.0901 10.1167C6.89658 10.1167 6.73934 10.1859 6.61839 10.3245C6.55299 10.395 6.50527 10.4714 6.47523 10.5538Z" fill="#22232B" fill-opacity="0.6"/>
</svg>
