<svg width="20" height="20" viewBox="0 0 20 20" fill="none" xmlns="http://www.w3.org/2000/svg">
<circle cx="10" cy="10" r="10" fill="#843F4C" fill-opacity="0.8"/>
<circle cx="10" cy="10" r="9.75" stroke="#A9515F" stroke-opacity="0.8" stroke-width="0.5"/>
<path transform="translate(9, 5)"
 d="M0.180176 0.57373L0.481815 6.59109H1.51788L1.81952 0.57373H0.180176ZM0.994272 7.59398C0.771232 7.59398 0.581648 7.6571 0.425519 7.80438C0.25824 7.94114 0.180176 8.11997 0.180176 8.34089C0.180176 8.55129 0.25824 8.73013 0.425519 8.8774C0.581648 9.02468 0.771232 9.09832 0.994272 9.09832C1.21731 9.09832 1.41805 9.02468 1.58533 8.88792C1.74146 8.74065 1.81952 8.56181 1.81952 8.34089C1.81952 8.11997 1.74146 7.94114 1.58533 7.80438C1.4292 7.6571 1.22846 7.59398 0.994272 7.59398Z" fill="white"/>
</svg>