<svg width="346" height="109" viewBox="0 0 346 109" fill="none" xmlns="http://www.w3.org/2000/svg">
<g filter="url(#filter0_d_214_19219)">
<ellipse cx="184.5" cy="61.5" rx="137.5" ry="16.5" fill="white" fill-opacity="0.02" shape-rendering="crispEdges"/>
<path d="M184.5 78.375C222.48 78.375 256.87 76.5278 281.772 73.5396C294.22 72.0458 304.311 70.2653 311.297 68.2833C314.787 67.2931 317.524 66.2467 319.396 65.1488C321.238 64.0686 322.375 62.8599 322.375 61.5C322.375 60.1401 321.238 58.9314 319.396 57.8512C317.524 56.7533 314.787 55.7069 311.297 54.7167C304.311 52.7347 294.22 50.9542 281.772 49.4604C256.87 46.4722 222.48 44.625 184.5 44.625C146.52 44.625 112.13 46.4722 87.2281 49.4604C74.7799 50.9542 64.689 52.7347 57.7031 54.7167C54.213 55.7069 51.476 56.7533 49.6038 57.8512C47.7618 58.9314 46.625 60.1401 46.625 61.5C46.625 62.8599 47.7618 64.0686 49.6038 65.1488C51.476 66.2467 54.213 67.2931 57.7031 68.2833C64.689 70.2653 74.7799 72.0458 87.2281 73.5396C112.13 76.5278 146.52 78.375 184.5 78.375Z" stroke="url(#paint0_angular_214_19219)" stroke-opacity="0.5" stroke-width="0.75" stroke-linecap="round" stroke-linejoin="round" shape-rendering="crispEdges"/>
</g>
<g filter="url(#filter1_b_214_19219)">
<path d="M90.4631 5.02193C90.4631 3.90525 89.5579 3 88.4412 3H2.02193C0.905243 3 0 3.90525 0 5.02193V28.0498C0 29.1665 0.905243 30.0717 2.02193 30.0717H85.7001L89.2638 34.5072C89.6623 35.0033 90.4631 34.7214 90.4631 34.0851V30.0717V5.02193Z" fill="white" fill-opacity="0.06"/>
</g>
<rect x="6.60001" y="9.59998" width="14.52" height="14.52" rx="1.79928" fill="#22232B"/>
<ellipse cx="13.8598" cy="16.8603" rx="3.85" ry="3.85" fill="#A74F4F" fill-opacity="0.9"/>
<circle cx="13.86" cy="16.86" r="4.52" stroke="white" stroke-opacity="0.1" stroke-width="0.2"/>
<path fill-rule="evenodd" clip-rule="evenodd" d="M14.3051 14.9903C14.3051 15.2333 14.108 15.4303 13.865 15.4303C13.6219 15.4303 13.4248 15.2333 13.4248 14.9903C13.4248 14.7472 13.6219 14.5502 13.865 14.5502C14.108 14.5502 14.3051 14.7472 14.3051 14.9903ZM13.8607 15.9805C12.9115 15.9805 12.2102 15.3046 12.2102 14.5502H11.55C11.55 15.7402 12.6222 16.6406 13.8607 16.6406C15.0992 16.6406 16.1714 15.7402 16.1714 14.5502H15.5112C15.5112 15.3046 14.8099 15.9805 13.8607 15.9805ZM16.065 17.1847H11.6637V17.8448H16.065V17.1847ZM13.865 19.1694C14.108 19.1694 14.3051 18.9724 14.3051 18.7293C14.3051 18.4863 14.108 18.2893 13.865 18.2893C13.6219 18.2893 13.4248 18.4863 13.4248 18.7293C13.4248 18.9724 13.6219 19.1694 13.865 19.1694Z" fill="white"/>
<rect x="25.5334" y="11.5858" width="42.0988" height="2.36771" rx="0.673976" fill="#22232B"/>
<rect x="75.0992" y="9.80603" width="6.14581" height="5.91928" rx="0.673976" fill="#22232B"/>
<rect x="75.0992" y="17.2035" width="6.14581" height="5.91928" rx="0.673976" fill="#22232B"/>
<rect x="25.5334" y="18.986" width="42.0988" height="2.36771" rx="0.673976" fill="#22232B"/>
<g filter="url(#filter2_b_214_19219)">
<path d="M174 2.57708C174 1.1538 175.154 0 176.577 0H242.423C243.846 0 245 1.1538 245 2.57708V18.8137C245 20.237 243.846 21.3908 242.423 21.3908H178.611L175.469 24.5633C174.929 25.1085 174 24.7262 174 23.9589V21.3908V2.57708Z" fill="white" fill-opacity="0.06"/>
</g>
<rect x="194.15" y="6.48035" width="34.1465" height="1.92053" rx="0.859027" fill="#22232B"/>
<rect x="233.878" y="5.04089" width="4.98489" height="4.80132" rx="0.859027" fill="#22232B"/>
<rect x="233.878" y="11.0417" width="4.98489" height="4.80132" rx="0.859027" fill="#22232B"/>
<rect x="194.15" y="12.4833" width="34.1465" height="1.92053" rx="0.859027" fill="#22232B"/>
<rect x="179" y="5" width="11" height="11" rx="1.79928" fill="#22232B"/>
<ellipse cx="184.5" cy="10.5002" rx="2.91667" ry="2.91667" fill="#A74F4F" fill-opacity="0.9"/>
<circle cx="184.5" cy="10.5" r="3.4" stroke="white" stroke-opacity="0.1" stroke-width="0.2"/>
<path fill-rule="evenodd" clip-rule="evenodd" d="M184.837 9.08352C184.837 9.26765 184.688 9.41692 184.504 9.41692C184.32 9.41692 184.17 9.26765 184.17 9.08352C184.17 8.89939 184.32 8.75012 184.504 8.75012C184.688 8.75012 184.837 8.89939 184.837 9.08352ZM184.501 9.83369C183.781 9.83369 183.25 9.3217 183.25 8.75014H182.75C182.75 9.65164 183.562 10.3338 184.501 10.3338C185.439 10.3338 186.251 9.65164 186.251 8.75014H185.751C185.751 9.3217 185.22 9.83369 184.501 9.83369ZM186.17 10.7461H182.836V11.2462H186.17V10.7461ZM184.504 12.2496C184.688 12.2496 184.837 12.1004 184.837 11.9162C184.837 11.7321 184.688 11.5828 184.504 11.5828C184.32 11.5828 184.17 11.7321 184.17 11.9162C184.17 12.1004 184.32 12.2496 184.504 12.2496Z" fill="white"/>
<g filter="url(#filter3_b_214_19219)">
<rect x="140" y="27" width="28.3123" height="27.2693" rx="13.6346" fill="white" fill-opacity="0.06"/>
</g>
<path d="M158.107 38.6542L160.986 37.101L161.324 36.5345C161.576 34.3105 161.205 34.1199 161.205 34.1199C161.205 34.1199 161.322 33.9346 161.197 33.4203C161.07 32.9061 157.481 28.9331 153.633 31.0631C152.562 31.6557 151.86 32.4023 151.391 33.1932C149.356 38.4871 153.646 39.8262 153.646 39.8262L155.215 42.4914L158.107 38.6542Z" fill="#187E6A"/>
<path d="M152.898 42.6611C152.898 42.6611 147.656 45.496 146.759 47.4016C145.862 49.3072 145.637 51.1475 145.637 51.1475H162.98C162.98 51.1475 163.335 46.9552 161.541 45.9398C159.747 44.9243 158.776 44.6476 158.324 43.8906C157.874 43.1388 152.898 42.6611 152.898 42.6611Z" fill="url(#paint1_linear_214_19219)"/>
<path d="M153.337 39.7022C153.337 39.7022 153.454 41.8192 152.849 42.6571C152.811 42.7093 152.825 42.7798 152.876 42.8164C155.768 44.8316 157.587 44.3565 158.123 44.1372C158.221 44.0981 158.28 44.0041 158.275 43.9023C158.264 43.6778 158.267 43.2628 158.432 42.9991C158.535 42.832 155.183 40.4853 153.874 39.7022C153.565 39.5142 153.337 39.7022 153.337 39.7022Z" fill="#CF9C94"/>
<path d="M153.819 40.2502C153.819 40.2502 155.632 44.1657 157.765 43.5419C160.066 42.8684 154.686 39.1277 154.686 39.1277L153.819 40.2502Z" fill="#C7776A"/>
<path d="M153.646 39.8261C153.646 39.8261 154.194 41.6952 156.297 42.5435C156.866 42.7759 158.037 43.2536 158.438 43.3293C158.687 43.3763 159.766 43.4989 160.051 42.815C160.265 42.3425 160.351 41.7891 160.506 41.4472C160.66 41.1052 161.145 38.7454 161.197 38.4661C161.248 38.1868 161.216 37.6804 161.227 37.4794C161.238 37.2784 161.414 36.819 161.414 36.6493C161.414 36.4796 161.349 36.2656 161.33 36.1115C161.297 35.8583 161.265 34.7072 161.189 34.4905C161.113 34.2738 161.026 33.8066 160.509 33.6891C157.571 33.1409 154.088 36.7694 153.744 37.422C153.692 37.3254 153.576 37.1505 153.495 37.0539C153.394 36.9077 152.952 36.6023 152.706 36.584C152.462 36.5631 152.104 36.6728 151.963 36.819C151.825 36.9651 151.746 37.529 151.855 38.1085C151.963 38.688 152.698 39.6695 152.787 39.7504C153.24 40.1785 153.646 39.8261 153.646 39.8261Z" fill="#EFBBB4"/>
<path d="M159.733 31.9078C159.733 31.9078 161.484 32.9859 161.972 32.0645C161.972 32.0645 161.923 33.5968 159.861 34.2807" fill="#187E6A"/>
<path d="M161.35 35.0932C161.299 34.5685 161.174 34.3362 161.174 34.3362L161.112 33.6366L159.017 33.1954L155.64 33.4852L153.569 35.5291L153.661 37.017C153.661 37.017 153.713 37.466 153.862 37.7166C153.862 37.7166 154.382 36.9518 155.206 37.017C156.03 37.0849 157.656 36.4167 158.58 35.4847C159.171 34.887 159.605 34.4275 159.973 34.2083C159.962 34.2004 159.957 34.1952 159.957 34.1952L160.32 33.9002L160.472 33.929C160.461 33.9159 160.448 33.9055 160.431 33.8976C160.504 33.8637 161.141 33.989 161.163 34.9627C161.198 36.3671 161.393 36.4871 161.393 36.4871C161.393 36.4871 161.312 35.9233 161.35 35.0932Z" fill="#187E6A"/>
<path d="M160.852 33.3945C160.852 33.3945 161.41 33.3632 161.76 33.0343C161.76 33.0343 161.296 33.8983 161.377 34.6058C161.459 35.3132 160.852 33.3945 160.852 33.3945Z" fill="#187E6A"/>
<g filter="url(#filter4_b_214_19219)">
<rect x="203" y="39" width="30.0241" height="30.1019" rx="15.012" fill="white" fill-opacity="0.06"/>
</g>
<path d="M223.279 47.1172C223.279 47.1172 223.379 46.9581 223.272 46.5167C223.165 46.0753 220.083 42.6651 216.78 44.4934C214.716 45.6361 214.247 47.4465 214.067 48.8514C214.058 48.932 214.049 49.0127 214.039 49.0911C213.956 49.4384 213.677 50.2876 212.781 52.331C212.409 53.4244 212.558 54.175 212.716 54.5089C212.718 55.7905 213 56 213 56L213.325 56.1273C213.2 55.7173 213.295 55.3356 213.4 54.9323C213.4 54.9323 213.01 55.9597 213.5 56L216.5 54.5L218.5 55L220.5 55.3289L221.5 56L222.351 56.5948C222.351 56.5948 222.351 56.5948 222.775 55.3289C223.64 53.3572 223.212 50.8029 223.212 50.8029H223.028L223.005 49.8238L223.384 49.1942C223.598 47.283 223.279 47.1172 223.279 47.1172ZM212.716 54.4484C212.688 54.3498 212.655 54.2198 212.641 54.1548C212.618 54.0428 212.465 53.0054 213.325 51.6454C212.872 52.7276 212.723 53.6776 212.716 54.4484ZM222 56.5C221.94 55.7427 222.351 55.5171 222.351 55.5171C222.06 56.0369 222 56.5 222 56.5Z" fill="#187E6A"/>
<path d="M216.148 54.449C216.148 54.449 211.649 56.8822 210.879 58.5179C210.109 60.1535 209.916 61.7331 209.916 61.7331H224.802C224.802 61.7331 225.107 58.1347 223.567 57.2631C222.027 56.3916 221.194 56.1541 220.806 55.5043C220.42 54.859 216.148 54.449 216.148 54.449Z" fill="url(#paint2_linear_214_19219)"/>
<path d="M216.526 51.9047C216.526 51.9047 216.626 53.7218 216.107 54.441C216.075 54.4859 216.086 54.5464 216.131 54.5777C218.613 56.3075 220.174 55.8997 220.634 55.7115C220.718 55.6779 220.769 55.5972 220.765 55.5098C220.755 55.3171 220.758 54.9609 220.899 54.7346C220.988 54.5912 218.11 52.5769 216.987 51.9047C216.721 51.7434 216.526 51.9047 216.526 51.9047Z" fill="#CF9C94"/>
<path d="M216.94 52.3778C216.94 52.3778 218.496 55.7386 220.327 55.2031C222.302 54.6251 217.684 51.4143 217.684 51.4143L216.94 52.3778Z" fill="#C7776A"/>
<path d="M216.791 52.0136C216.791 52.0136 217.261 53.6178 219.066 54.346C219.555 54.5454 220.56 54.9555 220.904 55.0205C221.118 55.0608 222.044 55.1661 222.288 54.5791C222.472 54.1735 222.546 53.6985 222.679 53.405C222.811 53.1115 223.228 51.086 223.272 50.8462C223.316 50.6065 223.288 50.1718 223.298 49.9993C223.307 49.8268 223.458 49.4324 223.458 49.2868C223.458 49.1412 223.402 48.9574 223.386 48.8252C223.358 48.6079 223.33 47.6198 223.265 47.4338C223.2 47.2456 223.125 46.8468 222.681 46.746C220.159 46.2754 217.17 49.3899 216.875 49.95C216.831 49.8671 216.731 49.717 216.661 49.6341C216.575 49.5086 216.195 49.2465 215.984 49.2308C215.774 49.2129 215.467 49.307 215.346 49.4324C215.228 49.5579 215.16 50.0419 215.253 50.5393C215.346 51.0367 215.977 51.8792 216.054 51.9486C216.442 52.3161 216.791 52.0136 216.791 52.0136Z" fill="#EFBBB4"/>
<path d="M216.808 49.6024C216.808 49.6024 216.852 49.9877 216.98 50.2028C216.98 50.2028 217.427 49.5463 218.134 49.6024C218.841 49.6606 220.237 49.087 221.03 48.2871C221.824 47.4872 222.284 46.9719 222.717 47.0862C222.717 47.0862 222.691 46.9585 222.622 46.9249C222.684 46.8957 223.231 47.0033 223.25 47.839C223.28 49.0445 223.447 49.1475 223.447 49.1475C223.447 49.1475 223.375 48.6658 223.408 47.951C223.364 47.5007 223.257 47.3013 223.257 47.3013L223.203 46.7008L221.405 46.3221L218.504 46.5708L216.727 48.3252L216.808 49.6024Z" fill="#187E6A"/>
<path d="M217.122 49.7482C217.122 49.7482 218.469 51.0051 220.293 48.8699L219.92 48.769C219.92 48.769 218.352 50.7766 217.15 49.5801C215.947 48.3837 217.122 49.7482 217.122 49.7482Z" fill="#187E6A"/>
<g filter="url(#filter5_b_214_19219)">
<rect x="84" y="38" width="28.3123" height="27.2693" rx="13.6346" fill="white" fill-opacity="0.06"/>
</g>
<path d="M104.279 46.1172C104.279 46.1172 104.379 45.9581 104.272 45.5167C104.165 45.0753 101.083 41.6651 97.7798 43.4934C95.7164 44.6361 95.2465 46.4465 95.0674 47.8514C95.0581 47.932 95.0488 48.0127 95.0395 48.0911C94.9557 48.4384 94.6766 49.2876 93.781 51.331C93.4088 52.4244 93.5576 53.175 93.7158 53.5089C93.7182 54.7905 94.0004 55 94.0004 55L94.3253 55.1273C94.1997 54.7173 94.2951 54.3356 94.3998 53.9323C94.3998 53.9323 94.0096 54.9597 94.5004 55L97.5004 53.5L99.5004 54L101.5 54.3289L102.5 55L103.351 55.5948C103.351 55.5948 103.351 55.5948 103.775 54.3289C104.64 52.3572 104.212 49.8029 104.212 49.8029H104.028L104.005 48.8238L104.384 48.1942C104.598 46.283 104.279 46.1172 104.279 46.1172ZM93.7158 53.4484C93.6879 53.3498 93.6553 53.2198 93.6414 53.1548C93.6181 53.0428 93.4646 52.0054 94.3253 50.6454C93.8717 51.7276 93.7228 52.6776 93.7158 53.4484ZM103 55.5C102.94 54.7427 103.351 54.5171 103.351 54.5171C103.06 55.0369 103 55.5 103 55.5Z" fill="#3054A8"/>
<path d="M97.1485 53.449C97.1485 53.449 92.6495 55.8822 91.8795 57.5179C91.1095 59.1535 90.9164 60.7331 90.9164 60.7331H105.802C105.802 60.7331 106.107 57.1347 104.567 56.2631C103.027 55.3916 102.194 55.1541 101.806 54.5043C101.42 53.859 97.1485 53.449 97.1485 53.449Z" fill="url(#paint3_linear_214_19219)"/>
<path d="M97.5261 50.9047C97.5261 50.9047 97.6261 52.7218 97.1074 53.441C97.0748 53.4859 97.0864 53.5464 97.1306 53.5777C99.6128 55.3075 101.174 54.8997 101.634 54.7115C101.718 54.6779 101.769 54.5972 101.765 54.5098C101.755 54.3171 101.758 53.9609 101.899 53.7346C101.988 53.5912 99.1103 51.5769 97.9867 50.9047C97.7215 50.7434 97.5261 50.9047 97.5261 50.9047Z" fill="#CF9C94"/>
<path d="M97.9397 51.3778C97.9397 51.3778 99.496 54.7386 101.327 54.2031C103.302 53.6251 98.6841 50.4143 98.6841 50.4143L97.9397 51.3778Z" fill="#C7776A"/>
<path d="M97.791 51.0136C97.791 51.0136 98.2609 52.6178 100.066 53.346C100.555 53.5454 101.56 53.9555 101.904 54.0205C102.118 54.0608 103.044 54.1661 103.288 53.5791C103.472 53.1735 103.546 52.6985 103.679 52.405C103.811 52.1115 104.228 50.086 104.272 49.8462C104.316 49.6065 104.288 49.1718 104.298 48.9993C104.307 48.8268 104.458 48.4324 104.458 48.2868C104.458 48.1412 104.402 47.9574 104.386 47.8252C104.358 47.6079 104.33 46.6198 104.265 46.4338C104.2 46.2456 104.125 45.8468 103.681 45.746C101.159 45.2754 98.1702 48.3899 97.8748 48.95C97.8306 48.8671 97.7305 48.717 97.6607 48.6341C97.5747 48.5086 97.1955 48.2465 96.9838 48.2308C96.7744 48.2129 96.4674 48.307 96.3464 48.4324C96.2277 48.5579 96.1603 49.0419 96.2533 49.5393C96.3464 50.0367 96.9768 50.8792 97.0536 50.9486C97.4421 51.3161 97.791 51.0136 97.791 51.0136Z" fill="#EFBBB4"/>
<path d="M97.8083 48.6024C97.8083 48.6024 97.8525 48.9877 97.9804 49.2028C97.9804 49.2028 98.4271 48.5463 99.1343 48.6024C99.8414 48.6606 101.237 48.087 102.03 47.2871C102.824 46.4872 103.284 45.9719 103.717 46.0862C103.717 46.0862 103.691 45.9585 103.622 45.9249C103.684 45.8957 104.231 46.0033 104.25 46.839C104.28 48.0445 104.447 48.1475 104.447 48.1475C104.447 48.1475 104.375 47.6658 104.408 46.951C104.364 46.5007 104.257 46.3013 104.257 46.3013L104.203 45.7008L102.405 45.3221L99.5041 45.5708L97.7269 47.3252L97.8083 48.6024Z" fill="#3054A8"/>
<path d="M98.1218 48.7482C98.1218 48.7482 99.4688 50.0051 101.293 47.8699L100.92 47.769C100.92 47.769 99.3524 49.7766 98.1497 48.5801C96.9471 47.3837 98.1218 48.7482 98.1218 48.7482Z" fill="#3054A8"/>
<g filter="url(#filter6_b_214_19219)">
<rect x="264" y="31" width="29.5432" height="28.4549" rx="14.2275" fill="white" fill-opacity="0.06"/>
</g>
<path d="M282.017 42.1538L284.835 40.633L285.167 40.0783C285.414 37.9006 285.05 37.714 285.05 37.714C285.05 37.714 285.164 37.5326 285.042 37.029C284.918 36.5255 281.404 32.6352 277.636 34.7209C276.587 35.3012 275.9 36.0322 275.441 36.8066C273.448 41.9902 277.649 43.3015 277.649 43.3015L279.186 45.9111L282.017 42.1538Z" fill="#3054A8"/>
<path d="M276.628 46.3375C276.628 46.3375 271.496 49.1133 270.617 50.9792C269.739 52.8451 269.519 54.6471 269.519 54.6471H286.5C286.5 54.6471 286.848 50.5422 285.091 49.5479C283.334 48.5536 282.384 48.2826 281.941 47.5414C281.501 46.8053 276.628 46.3375 276.628 46.3375Z" fill="url(#paint4_linear_214_19219)"/>
<path d="M277.06 43.4384C277.06 43.4384 277.174 45.5113 276.582 46.3318C276.545 46.3829 276.558 46.4519 276.609 46.4877C279.44 48.4609 281.221 47.9957 281.746 47.781C281.842 47.7427 281.9 47.6507 281.895 47.551C281.884 47.3312 281.887 46.9248 282.049 46.6666C282.15 46.503 278.867 44.2052 277.585 43.4384C277.283 43.2543 277.06 43.4384 277.06 43.4384Z" fill="#CF9C94"/>
<path d="M277.531 43.9753C277.531 43.9753 279.306 47.8093 281.395 47.1984C283.648 46.539 278.38 42.8762 278.38 42.8762L277.531 43.9753Z" fill="#C7776A"/>
<path d="M277.361 43.5611C277.361 43.5611 277.897 45.3912 279.957 46.2219C280.514 46.4494 281.66 46.9172 282.053 46.9913C282.297 47.0373 283.353 47.1574 283.632 46.4877C283.842 46.0251 283.927 45.4832 284.078 45.1484C284.229 44.8136 284.704 42.5029 284.755 42.2294C284.805 41.9559 284.773 41.4601 284.784 41.2633C284.794 41.0665 284.967 40.6166 284.967 40.4505C284.967 40.2843 284.903 40.0747 284.885 39.9239C284.853 39.676 284.821 38.5488 284.747 38.3366C284.672 38.1245 284.587 37.667 284.081 37.552C281.204 37.0152 277.794 40.568 277.457 41.207C277.406 41.1125 277.292 40.9412 277.213 40.8466C277.114 40.7035 276.682 40.4045 276.44 40.3866C276.202 40.3661 275.851 40.4735 275.713 40.6166C275.578 40.7597 275.501 41.3118 275.607 41.8793C275.713 42.4467 276.432 43.4078 276.52 43.487C276.963 43.9062 277.361 43.5611 277.361 43.5611Z" fill="#EFBBB4"/>
<path d="M283.322 35.8093C283.322 35.8093 285.036 36.865 285.514 35.9627C285.514 35.9627 285.466 37.4631 283.447 38.1327" fill="#3054A8"/>
<path d="M284.905 38.9285C284.854 38.4148 284.732 38.1873 284.732 38.1873L284.671 37.5023L282.62 37.0703L279.313 37.354L277.286 39.3554L277.376 40.8123C277.376 40.8123 277.426 41.2519 277.572 41.4973C277.572 41.4973 278.082 40.7484 278.889 40.8123C279.695 40.8788 281.288 40.2244 282.193 39.3119C282.771 38.7266 283.196 38.2767 283.557 38.062C283.546 38.0544 283.541 38.0493 283.541 38.0493L283.896 37.7604L284.045 37.7885C284.034 37.7758 284.021 37.7655 284.005 37.7579C284.077 37.7246 284.7 37.8473 284.722 38.8007C284.756 40.1759 284.947 40.2934 284.947 40.2934C284.947 40.2934 284.868 39.7413 284.905 38.9285Z" fill="#3054A8"/>
<path d="M284.418 37.2647C284.418 37.2647 284.964 37.234 285.307 36.912C285.307 36.912 284.853 37.758 284.933 38.4507C285.012 39.1434 284.418 37.2647 284.418 37.2647Z" fill="#3054A8"/>
<defs>
<filter id="filter0_d_214_19219" x="23.75" y="29.25" width="321.5" height="79.5" filterUnits="userSpaceOnUse" color-interpolation-filters="sRGB">
<feFlood flood-opacity="0" result="BackgroundImageFix"/>
<feColorMatrix in="SourceAlpha" type="matrix" values="0 0 0 0 0 0 0 0 0 0 0 0 0 0 0 0 0 0 127 0" result="hardAlpha"/>
<feOffset dy="7.5"/>
<feGaussianBlur stdDeviation="11.25"/>
<feComposite in2="hardAlpha" operator="out"/>
<feColorMatrix type="matrix" values="0 0 0 0 0 0 0 0 0 0 0 0 0 0 0 0 0 0 0.2 0"/>
<feBlend mode="normal" in2="BackgroundImageFix" result="effect1_dropShadow_214_19219"/>
<feBlend mode="normal" in="SourceGraphic" in2="effect1_dropShadow_214_19219" result="shape"/>
</filter>
<filter id="filter1_b_214_19219" x="-12.5864" y="-9.58637" width="115.636" height="56.9331" filterUnits="userSpaceOnUse" color-interpolation-filters="sRGB">
<feFlood flood-opacity="0" result="BackgroundImageFix"/>
<feGaussianBlur in="BackgroundImageFix" stdDeviation="6.29318"/>
<feComposite in2="SourceAlpha" operator="in" result="effect1_backgroundBlur_214_19219"/>
<feBlend mode="normal" in="SourceGraphic" in2="effect1_backgroundBlur_214_19219" result="shape"/>
</filter>
<filter id="filter2_b_214_19219" x="160.017" y="-13.9831" width="98.9661" height="52.7857" filterUnits="userSpaceOnUse" color-interpolation-filters="sRGB">
<feFlood flood-opacity="0" result="BackgroundImageFix"/>
<feGaussianBlur in="BackgroundImageFix" stdDeviation="6.99153"/>
<feComposite in2="SourceAlpha" operator="in" result="effect1_backgroundBlur_214_19219"/>
<feBlend mode="normal" in="SourceGraphic" in2="effect1_backgroundBlur_214_19219" result="shape"/>
</filter>
<filter id="filter3_b_214_19219" x="135.841" y="22.8411" width="36.6301" height="35.5871" filterUnits="userSpaceOnUse" color-interpolation-filters="sRGB">
<feFlood flood-opacity="0" result="BackgroundImageFix"/>
<feGaussianBlur in="BackgroundImageFix" stdDeviation="2.07945"/>
<feComposite in2="SourceAlpha" operator="in" result="effect1_backgroundBlur_214_19219"/>
<feBlend mode="normal" in="SourceGraphic" in2="effect1_backgroundBlur_214_19219" result="shape"/>
</filter>
<filter id="filter4_b_214_19219" x="199.39" y="35.3904" width="37.2433" height="37.3212" filterUnits="userSpaceOnUse" color-interpolation-filters="sRGB">
<feFlood flood-opacity="0" result="BackgroundImageFix"/>
<feGaussianBlur in="BackgroundImageFix" stdDeviation="1.80481"/>
<feComposite in2="SourceAlpha" operator="in" result="effect1_backgroundBlur_214_19219"/>
<feBlend mode="normal" in="SourceGraphic" in2="effect1_backgroundBlur_214_19219" result="shape"/>
</filter>
<filter id="filter5_b_214_19219" x="80.3904" y="34.3904" width="35.5315" height="34.4885" filterUnits="userSpaceOnUse" color-interpolation-filters="sRGB">
<feFlood flood-opacity="0" result="BackgroundImageFix"/>
<feGaussianBlur in="BackgroundImageFix" stdDeviation="1.80481"/>
<feComposite in2="SourceAlpha" operator="in" result="effect1_backgroundBlur_214_19219"/>
<feBlend mode="normal" in="SourceGraphic" in2="effect1_backgroundBlur_214_19219" result="shape"/>
</filter>
<filter id="filter6_b_214_19219" x="260.39" y="27.3904" width="36.7625" height="35.6742" filterUnits="userSpaceOnUse" color-interpolation-filters="sRGB">
<feFlood flood-opacity="0" result="BackgroundImageFix"/>
<feGaussianBlur in="BackgroundImageFix" stdDeviation="1.80481"/>
<feComposite in2="SourceAlpha" operator="in" result="effect1_backgroundBlur_214_19219"/>
<feBlend mode="normal" in="SourceGraphic" in2="effect1_backgroundBlur_214_19219" result="shape"/>
</filter>
<radialGradient id="paint0_angular_214_19219" cx="0" cy="0" r="1" gradientUnits="userSpaceOnUse" gradientTransform="translate(204.143 59.6143) rotate(2.4819) scale(195.958 32.1181)">
<stop offset="0.095705" stop-color="#B9C4FF" stop-opacity="0.34"/>
<stop offset="0.226547" stop-color="#78FFE4" stop-opacity="0.95"/>
<stop offset="0.370431" stop-color="#546FFA"/>
<stop offset="0.587672" stop-color="#282931"/>
<stop offset="0.798701" stop-color="#282931"/>
</radialGradient>
<linearGradient id="paint1_linear_214_19219" x1="161.738" y1="43.0751" x2="162.178" y2="51.2215" gradientUnits="userSpaceOnUse">
<stop offset="0.045688" stop-color="#49FFDA"/>
<stop offset="0.598615" stop-color="#4449B3" stop-opacity="0.6"/>
<stop offset="0.936631" stop-color="#282931" stop-opacity="0"/>
</linearGradient>
<linearGradient id="paint2_linear_214_19219" x1="223.737" y1="54.8043" x2="224.114" y2="61.7966" gradientUnits="userSpaceOnUse">
<stop offset="0.045688" stop-color="#49FFDA"/>
<stop offset="0.598615" stop-color="#4449B3" stop-opacity="0.6"/>
<stop offset="0.936631" stop-color="#282931" stop-opacity="0"/>
</linearGradient>
<linearGradient id="paint3_linear_214_19219" x1="104.737" y1="53.8043" x2="105.114" y2="60.7966" gradientUnits="userSpaceOnUse">
<stop offset="0.045688" stop-color="#49FFDA"/>
<stop offset="0.598615" stop-color="#4449B3" stop-opacity="0.6"/>
<stop offset="0.936631" stop-color="#282931" stop-opacity="0"/>
</linearGradient>
<linearGradient id="paint4_linear_214_19219" x1="285.285" y1="46.7429" x2="285.715" y2="54.7196" gradientUnits="userSpaceOnUse">
<stop offset="0.045688" stop-color="#49FFDA"/>
<stop offset="0.598615" stop-color="#4449B3" stop-opacity="0.6"/>
<stop offset="0.936631" stop-color="#282931" stop-opacity="0"/>
</linearGradient>
</defs>
</svg>
