<svg width="10" height="11" viewBox="0 0 10 11" fill="none" xmlns="http://www.w3.org/2000/svg">
<path fill-rule="evenodd" clip-rule="evenodd" d="M5 0C5.46024 0 5.83333 0.351776 5.83333 0.785714H7.19901C7.61151 0.785714 7.96193 1.07025 8.02312 1.45488L9.02312 7.74059C9.02937 7.77984 9.03243 7.81876 9.03251 7.85714H9.58333C9.81345 7.85714 10 8.03303 10 8.25C10 8.46697 9.81345 8.64286 9.58333 8.64286H8.19901H1.80099H0.416667C0.186548 8.64286 0 8.46697 0 8.25C0 8.03303 0.186548 7.85714 0.416667 7.85714H0.967487C0.967567 7.81876 0.970632 7.77984 0.976876 7.74059L1.97688 1.45487C2.03807 1.07025 2.38849 0.785714 2.80099 0.785714H4.16667C4.16667 0.351776 4.53976 0 5 0ZM5 11C4.07953 11 3.33333 10.2964 3.33333 9.42857H6.66667C6.66667 10.2964 5.92047 11 5 11Z" fill="#22232B" fill-opacity="0.8"/>
</svg>
