<svg width="30" height="30" viewBox="0 0 30 30" fill="none" xmlns="http://www.w3.org/2000/svg">
<circle cx="15" cy="15" r="15" fill="white" fill-opacity="0.08"/>
<g opacity="0.8">
<path d="M12.2131 19.2054L23.9359 12.8276L23.9998 15.5008L12.2131 21.9366V19.2054Z" fill="#9C9DA5"/>
<path d="M18.4389 22.6337L18.4389 19.917L15.9766 21.2681L15.9589 23.9993L18.4389 22.6337Z" fill="#9C9DA5"/>
<path fill-rule="evenodd" clip-rule="evenodd" d="M21.5199 11.4902L9.80994 17.897L12.2133 19.2191L12.2535 19.1972L12.2132 19.2194L15.9766 21.2678L18.4389 19.9167L14.7052 17.8603L23.936 12.8268L21.5199 11.4902Z" fill="#E1DDDD"/>
<path d="M9.80981 17.8813L15.9716 21.2373V23.9685L9.80981 20.6126V17.8813Z" fill="#63646D"/>
<path d="M6 11.2886L12.1618 14.6445V17.3758L6 14.0198V11.2886Z" fill="#63646D"/>
<path d="M17.1732 12.6967L18.963 13.6265L18.9885 8.29478L17.1732 7.33594V12.6967Z" fill="#63646D"/>
<path d="M12.1619 14.6439L23.8846 8.26611L23.9485 10.9392L12.1619 17.3751V14.6439Z" fill="#9C9DA5"/>
<path fill-rule="evenodd" clip-rule="evenodd" d="M21.4686 6.92979L19.6788 6L17.1732 7.33657L18.9809 8.29139L10.8162 12.7585L12.2257 11.9851L8.50562 9.95118L6 11.2877L9.76188 13.3354L9.75878 13.337L12.1621 14.6591L23.8849 8.2668L21.4687 6.93024L21.3148 7.01447L21.4686 6.92979Z" fill="#FAFAFA"/>
</g>
</svg>
