<svg width="19" height="20" viewBox="0 0 19 20" fill="none" xmlns="http://www.w3.org/2000/svg">
<g clip-path="url(#clip0_235_812)">
<path d="M15.7801 14.7864L15.7698 14.78C15.7062 14.7364 15.6519 14.6804 15.6102 14.6155C15.5685 14.5505 15.5402 14.4779 15.5271 14.4018C15.5139 14.3258 15.5161 14.2478 15.5335 14.1726C15.5509 14.0974 15.5832 14.0265 15.6284 13.964C16.5082 12.4351 16.7994 10.6377 16.4475 8.90927C16.0956 7.18085 15.1247 5.64039 13.7172 4.57725C12.3097 3.51411 10.5625 3.00145 8.80369 3.13556C7.04491 3.26968 5.39561 4.04133 4.16559 5.30559C2.93557 6.56985 2.20948 8.23971 2.12369 10.0015C2.0379 11.7633 2.59833 13.4958 3.6997 14.8736C4.80107 16.2514 6.3676 17.1796 8.10503 17.484C9.84246 17.7883 11.6312 17.4478 13.1354 16.5265C13.3924 16.3684 13.7265 16.4365 13.9026 16.6807L13.9051 16.682C13.9473 16.7405 13.9773 16.807 13.9931 16.8774C14.0089 16.9478 14.0103 17.0207 13.9972 17.0916C13.9842 17.1626 13.9568 17.2302 13.9169 17.2903C13.877 17.3504 13.8254 17.4018 13.765 17.4415L13.6571 17.5121C11.9109 18.562 9.84115 18.9373 7.83746 18.5676C5.83378 18.1979 4.03431 17.1086 2.77773 15.5047C1.52115 13.9009 0.894113 11.893 1.01464 9.85905C1.13516 7.82511 1.99493 5.90535 3.43213 4.46109C4.86933 3.01682 6.78485 2.14765 8.81817 2.01716C10.8515 1.88667 12.8624 2.50385 14.4724 3.75255C16.0825 5.00125 17.1806 6.79536 17.5601 8.79721C17.9396 10.7991 17.5744 12.8706 16.5332 14.622C16.4963 14.6841 16.447 14.7381 16.3884 14.7804C16.3297 14.8227 16.263 14.8525 16.1924 14.868C16.1218 14.8834 16.0487 14.8841 15.9778 14.8701C15.9068 14.8561 15.8395 14.8276 15.7801 14.7864ZM6.33461 7.78008C6.46055 7.65543 6.76897 7.61045 6.91933 7.78008C7.10567 7.9767 7.04527 8.29798 6.91933 8.43291L4.97497 10.322L6.87178 12.1186C6.99772 12.2432 7.01442 12.5992 6.87178 12.7406C6.69958 12.9115 6.34746 12.8845 6.23051 12.7676L4.01372 10.5585C3.95353 10.4978 3.91975 10.4158 3.91975 10.3304C3.91975 10.2449 3.95353 10.1629 4.01372 10.1023L6.33461 7.78137V7.78008ZM12.3694 7.78008L14.6903 10.101C14.7505 10.1616 14.7843 10.2436 14.7843 10.3291C14.7843 10.4145 14.7505 10.4965 14.6903 10.5572L12.4748 12.7688C12.3579 12.8845 12.025 12.9577 11.8323 12.7688C11.6511 12.5889 11.7076 12.2188 11.8323 12.0942L13.7368 10.3246L11.7706 8.41492C11.6446 8.27999 11.6035 7.94715 11.7706 7.78137C11.9338 7.62073 12.2435 7.65671 12.3694 7.78137V7.78008ZM9.98686 7.31745C10.0498 7.15038 10.3621 7.04501 10.5613 7.11954C10.7515 7.19022 10.8633 7.45367 10.8119 7.62073L8.70433 13.4165C8.64264 13.5836 8.34193 13.6504 8.17358 13.5874C7.99496 13.5258 7.8009 13.279 7.86516 13.1132L9.98557 7.31745H9.98686Z" fill="#3D56D6"/>
</g>
<defs>
<clipPath id="clip0_235_812">
<rect width="19" height="20" fill="white"/>
</clipPath>
</defs>
</svg>
