<svg width="19" height="15" viewBox="0 0 19 15" fill="none" xmlns="http://www.w3.org/2000/svg">
<path d="M15.6896 1.18022C14.4666 0.623833 13.1933 0.219184 11.8698 0C11.7022 0.303486 11.5179 0.691274 11.3839 1.01162C9.97658 0.792436 8.55251 0.792436 7.14518 1.01162C6.9944 0.657553 6.82686 0.320346 6.64257 0C5.31901 0.219184 4.02896 0.623832 2.82269 1.19708C0.410131 4.82206 -0.24327 8.34587 0.0750533 11.836C1.49913 12.8982 3.07399 13.7075 4.76613 14.2133C5.15147 13.6906 5.48655 13.1511 5.77137 12.5778C5.21849 12.3755 4.69912 12.1226 4.1965 11.8191C4.33053 11.7179 4.44781 11.6168 4.58184 11.5156C7.54728 12.9319 10.9986 12.9319 13.964 11.5156C14.098 11.6168 14.2153 11.7179 14.3493 11.8191C13.8467 12.1226 13.3106 12.3755 12.7577 12.5778C13.0425 13.1511 13.3776 13.6906 13.763 14.2133C15.4551 13.6906 17.0467 12.8982 18.454 11.836C18.8226 7.78948 17.7839 4.28253 15.6896 1.18022ZM6.17346 9.67783C5.252 9.67783 4.51483 8.83482 4.51483 7.80634C4.51483 6.77786 5.252 5.91798 6.17346 5.91798C7.11168 5.91798 7.84885 6.761 7.84885 7.80634C7.83209 8.83482 7.11168 9.67783 6.17346 9.67783ZM12.3389 9.67783C11.4174 9.67783 10.6802 8.83482 10.6802 7.80634C10.6802 6.77786 11.4174 5.91798 12.3389 5.91798C13.2771 5.91798 14.0143 6.761 13.9975 7.80634C13.9808 8.85168 13.2603 9.67783 12.3389 9.67783Z" fill="#22232B"/>
</svg>
