<svg width="15" height="16" viewBox="0 0 15 16" fill="none" xmlns="http://www.w3.org/2000/svg">
<path fill-rule="evenodd" clip-rule="evenodd" d="M11.6682 2.80057C11.6682 2.58918 11.5117 2.41761 11.3207 2.41761H3.68011C3.4883 2.41761 3.33262 2.58918 3.33262 2.80057V13.2004C3.33284 13.3019 3.36953 13.3991 3.43465 13.4709C3.49977 13.5427 3.58802 13.5831 3.68011 13.5833H8.5V12C8.5 11.1716 9.17157 10.5 10 10.5H11.6682V2.80057ZM11.6682 11.5H10C9.72386 11.5 9.5 11.7239 9.5 12V13.5833H11.3207C11.413 13.5831 11.5014 13.5425 11.5665 13.4706C11.6317 13.3986 11.6682 13.3011 11.6682 13.1994V11.5ZM3.68011 1.5H11.3207C11.9719 1.5 12.5 2.08204 12.5 2.80057V13.2004C12.5 13.918 11.9719 14.5 11.3207 14.5H3.68011C3.02813 14.5 2.5 13.918 2.5 13.1994V2.80057C2.49977 2.62971 2.53014 2.46048 2.58937 2.30257C2.6486 2.14467 2.73551 2.00119 2.84514 1.88037C2.95477 1.75956 3.08496 1.66377 3.22824 1.59849C3.37152 1.53322 3.52508 1.49975 3.68011 1.5ZM10.2196 8.28964H4.77837C4.66818 8.28939 4.56255 8.2411 4.48455 8.15532C4.40655 8.06954 4.36251 7.95323 4.36206 7.83179C4.36206 7.57964 4.54957 7.37299 4.77837 7.37299H10.2196C10.33 7.37299 10.4359 7.42132 10.514 7.50737C10.5921 7.59341 10.6359 7.7101 10.6359 7.83179C10.6359 7.95347 10.5921 8.07017 10.514 8.15621C10.4359 8.24225 10.33 8.28964 10.2196 8.28964ZM7.80005 10.7192H4.77837C4.66818 10.7189 4.56255 10.6707 4.48455 10.5849C4.40655 10.4991 4.36251 10.3828 4.36206 10.2613C4.36206 10.0092 4.54957 9.80254 4.77837 9.80254H7.80005C8.02884 9.80254 8.21549 10.0092 8.21549 10.2613C8.21504 10.3826 8.17113 10.4988 8.09331 10.5845C8.0155 10.6703 7.91009 10.7187 7.80005 10.7192ZM4.77837 5.91665H10.2196C10.33 5.91665 10.4359 5.86926 10.514 5.78322C10.5921 5.69718 10.6359 5.58048 10.6359 5.4588C10.6359 5.33712 10.5921 5.22042 10.514 5.13438C10.4359 5.04834 10.33 5 10.2196 5H4.77837C4.54957 5 4.36206 5.20665 4.36206 5.4588C4.36251 5.58024 4.40655 5.69655 4.48455 5.78233C4.56255 5.86812 4.66818 5.9164 4.77837 5.91665Z" fill="#0F134F"/>
</svg>
