<svg width="100" height="100" viewBox="0 0 100 100" fill="none" xmlns="http://www.w3.org/2000/svg">
<path d="M18.9678 86.6197C18.2537 87.4624 16.9886 87.5695 16.1751 86.8223C11.0061 82.074 6.89437 76.2902 4.10818 69.848C3.66971 68.8341 4.18657 67.6745 5.2171 67.2769L21.748 60.8994C22.7785 60.5018 23.9298 61.0187 24.3992 62.0186C25.8379 65.0831 27.8153 67.8647 30.2369 70.2304C31.0271 71.0022 31.1369 72.2594 30.4228 73.1021L18.9678 86.6197Z" fill="white" fill-opacity="0.1"/>
<path d="M4.35118 64.8387C3.30072 65.1801 2.16825 64.6063 1.86906 63.543C0.0775475 57.1761 -0.434725 50.5103 0.369586 43.9319C1.1739 37.3535 3.27709 31.0074 6.5498 25.2597C7.09635 24.2999 8.33372 24.0158 9.27097 24.6003L24.287 33.9647C25.2242 34.5492 25.5033 35.7798 24.9865 36.756C23.372 39.8052 22.326 43.1292 21.9059 46.565C21.4858 50.0009 21.7002 53.479 22.5324 56.8273C22.7989 57.8993 22.2315 59.0265 21.181 59.3679L4.35118 64.8387Z" fill="white" fill-opacity="0.1"/>
<path d="M10.8398 22.2425C9.93866 21.6037 9.72276 20.3527 10.397 19.4778C14.2068 14.5345 18.9123 10.3433 24.2739 7.12615C29.6355 3.90895 35.5478 1.72904 41.7023 0.693326C42.7915 0.510019 43.7939 1.2892 43.9335 2.38491L46.1788 20.0078C46.3184 21.1035 45.5412 22.0978 44.4581 22.3146C41.2909 22.9486 38.2508 24.1224 35.4726 25.7894C32.6944 27.4565 30.2282 29.5866 28.1785 32.083C27.4776 32.9367 26.2346 33.1546 25.3335 32.5159L10.8398 22.2425Z" fill="white" fill-opacity="0.1"/>
<path d="M46.2136 2.14958C46.1264 1.04845 46.9485 0.0809765 48.0523 0.0379377C57.3737 -0.325543 66.626 1.92617 74.7542 6.55773C83.4624 11.5199 90.4784 18.9846 94.8918 27.9834C99.3051 36.9822 100.912 47.0997 99.5043 57.0231C98.1902 66.2855 94.3063 74.9797 88.3121 82.1276C87.6024 82.974 86.3341 83.0317 85.5168 82.2887L72.6066 70.5519C71.7893 69.8089 71.7353 68.5481 72.4193 67.6808C75.535 63.7301 77.5592 59.0156 78.2692 54.0105C79.0732 48.3438 78.1555 42.5663 75.6352 37.4275C73.115 32.2888 69.1086 28.0261 64.1358 25.1925C59.7436 22.6898 54.7767 21.4039 49.7454 21.4488C48.6409 21.4587 47.677 20.6441 47.5899 19.5429L46.2136 2.14958Z" fill="white" fill-opacity="0.1"/>
<path d="M83.9411 83.9411C84.7222 84.7222 84.7247 85.9919 83.9131 86.7411C75.5664 94.4457 64.8263 99.0929 53.4547 99.8805C42.0832 100.668 30.805 97.5459 21.4758 91.0655C20.5686 90.4353 20.3961 89.1774 21.062 88.2961L31.5191 74.4574C32.185 73.5762 33.4357 73.4081 34.3613 74.0109C39.5653 77.4006 45.7481 79.0178 51.9799 78.5862C58.2116 78.1546 64.1124 75.7005 68.7995 71.6258C69.6331 70.9011 70.8951 70.8951 71.6761 71.6762L83.9411 83.9411Z" fill="white" fill-opacity="0.1"/>
</svg>
