<svg width="20" height="11" viewBox="0 0 20 11" fill="none" xmlns="http://www.w3.org/2000/svg">
<path fill-rule="evenodd" clip-rule="evenodd" d="M18 0C19.1046 0 20 0.895431 20 2V6C20 8.76142 17.7614 11 15 11H2C0.89543 11 0 10.1046 0 9V5C0 2.23858 2.23858 0 5 0H18ZM3.62402 2.33594H4.63202V4.62394H7.28002V2.33594H8.28802V7.99994H7.28002V5.48794H4.63202V7.99994H3.62402V2.33594ZM9.26609 6.06394C9.26609 5.75994 9.31942 5.48527 9.42609 5.23994C9.53809 4.98927 9.68742 4.77594 9.87409 4.59994C10.0608 4.42394 10.2821 4.28794 10.5381 4.19194C10.7941 4.09594 11.0661 4.04794 11.3541 4.04794C11.6421 4.04794 11.9141 4.09594 12.1701 4.19194C12.4261 4.28794 12.6474 4.42394 12.8341 4.59994C13.0208 4.77594 13.1674 4.98927 13.2741 5.23994C13.3861 5.48527 13.4421 5.75994 13.4421 6.06394C13.4421 6.36794 13.3861 6.64527 13.2741 6.89594C13.1674 7.1466 13.0208 7.3626 12.8341 7.54394C12.6474 7.71994 12.4261 7.8586 12.1701 7.95994C11.9141 8.06127 11.6421 8.11194 11.3541 8.11194C11.0661 8.11194 10.7941 8.06127 10.5381 7.95994C10.2821 7.8586 10.0608 7.71994 9.87409 7.54394C9.68742 7.3626 9.53809 7.1466 9.42609 6.89594C9.31942 6.64527 9.26609 6.36794 9.26609 6.06394ZM10.2421 6.06394C10.2421 6.21327 10.2634 6.3626 10.3061 6.51194C10.3541 6.66127 10.4234 6.7946 10.5141 6.91194C10.6048 7.02927 10.7194 7.12527 10.8581 7.19994C10.9968 7.2746 11.1621 7.31194 11.3541 7.31194C11.5461 7.31194 11.7114 7.2746 11.8501 7.19994C11.9888 7.12527 12.1034 7.02927 12.1941 6.91194C12.2848 6.7946 12.3514 6.66127 12.3941 6.51194C12.4421 6.3626 12.4661 6.21327 12.4661 6.06394C12.4661 5.9146 12.4421 5.76794 12.3941 5.62394C12.3514 5.4746 12.2848 5.34127 12.1941 5.22394C12.1034 5.1066 11.9888 5.01327 11.8501 4.94394C11.7114 4.86927 11.5461 4.83194 11.3541 4.83194C11.1621 4.83194 10.9968 4.86927 10.8581 4.94394C10.7194 5.01327 10.6048 5.1066 10.5141 5.22394C10.4234 5.34127 10.3541 5.4746 10.3061 5.62394C10.2634 5.76794 10.2421 5.9146 10.2421 6.06394ZM13.8209 4.15994V4.92794H14.4929V6.71994C14.4929 6.9066 14.5089 7.0826 14.5409 7.24794C14.5782 7.40794 14.6422 7.55194 14.7329 7.67994C14.8289 7.8026 14.9569 7.90127 15.1169 7.97594C15.2769 8.04527 15.4849 8.07994 15.7409 8.07994C15.8476 8.07994 15.9596 8.06927 16.0769 8.04794C16.1942 8.03194 16.2956 8.00794 16.3809 7.97594L16.3489 7.22394C16.2902 7.2506 16.2236 7.27194 16.1489 7.28794C16.0742 7.2986 16.0049 7.30394 15.9409 7.30394C15.7276 7.30394 15.5889 7.24794 15.5249 7.13594C15.4662 7.02394 15.4369 6.8826 15.4369 6.71194V4.92794H16.3969V4.15994H15.4369V3.04794H14.4929V4.15994H13.8209Z" fill="url(#paint0_linear_425_21)"/>
<defs>
<linearGradient id="paint0_linear_425_21" x1="17.25" y1="-0.366676" x2="-13.6299" y2="5.7533" gradientUnits="userSpaceOnUse">
<stop stop-color="#53EFDE"/>
<stop offset="1" stop-color="#FFD583"/>
</linearGradient>
</defs>
</svg>
