<svg width="60" height="60" viewBox="0 0 60 60" fill="none" xmlns="http://www.w3.org/2000/svg">
<circle cx="30" cy="30" r="30" fill="#FF1F70"/>
<path d="M26.25 15L27.285 37.5H30.84L31.875 15H26.25ZM29.0434 41.25C28.2781 41.25 27.6276 41.486 27.0918 42.0367C26.5179 42.5481 26.25 43.2168 26.25 44.0428C26.25 44.8295 26.5179 45.4983 27.0918 46.049C27.6276 46.5996 28.2781 46.875 29.0434 46.875C29.8087 46.875 30.4974 46.5996 31.0714 46.0883C31.6071 45.5376 31.875 44.8689 31.875 44.0428C31.875 43.2168 31.6071 42.5481 31.0714 42.0367C30.5357 41.486 29.8469 41.25 29.0434 41.25Z" fill="white"/>
</svg>
