<svg width="12" height="14" viewBox="0 0 12 14" fill="none" xmlns="http://www.w3.org/2000/svg">
<path d="M4.61841 13.9777C4.61841 13.9777 -1.81612 12.4756 0.514506 5.78264C0.514506 5.78264 1.04366 6.52643 0.970753 6.88431C0.970753 6.88431 1.38561 5.19462 2.28117 4.18567C3.04973 3.31846 3.831 0.881221 3.11041 0C3.11041 0 6.67854 0.881221 7.07553 5.28733C7.07553 5.28733 7.53177 5.81175 8.46919 5.67323C8.46919 5.67323 12.5345 11.4298 7.44055 13.4401C7.44055 13.4401 7.24916 14.1313 4.61841 13.9777Z" fill="#FFEFA2"/>
<path d="M4.07597 13.8241C4.07597 13.8241 -2.02516 12.4756 0.701554 5.78264C0.701554 5.78264 1.32064 6.52642 1.23534 6.8843C1.23534 6.8843 1.7207 5.19462 2.76847 4.18566C3.66765 3.31846 4.58169 0.881221 3.73864 0C3.73864 0 7.91318 0.881221 8.37763 5.28732C8.37763 5.28732 8.91142 3.8833 10.0082 3.74478C10.0082 3.74478 9.67138 4.51552 10.0082 5.67323C10.0082 5.67323 13.4662 11.6208 7.50651 13.6312C7.50651 13.6312 9.79409 10.4038 5.50289 7.00665C5.50289 7.00665 4.40233 8.60167 3.73864 9.91926C3.73699 9.92087 2.58577 12.3091 4.07597 13.8241Z" fill="#FF5266"/>
</svg>
