<svg width="12" height="14" viewBox="0 0 12 14" fill="none" xmlns="http://www.w3.org/2000/svg">
<path d="M5.39647 13.9777C5.39647 13.9777 -2.13162 12.4756 0.595092 5.78264C0.595092 5.78264 1.21417 6.52642 1.12888 6.8843C1.12888 6.8843 1.61424 5.19462 2.662 4.18566C3.56119 3.31846 4.47523 0.881221 3.63217 0C3.63217 0 7.80672 0.881221 8.27117 5.28732C8.27117 5.28732 8.80495 5.81175 9.90169 5.67323C9.90169 5.67323 14.6579 11.4297 8.69823 13.4401C8.69823 13.4401 8.47432 14.1313 5.39647 13.9777Z" fill="#FDE052"/>
<path d="M5.07016 13.8241C5.07016 13.8241 -1.03098 12.4756 1.69574 5.78264C1.69574 5.78264 2.31482 6.52642 2.22953 6.8843C2.22953 6.8843 2.71489 5.19462 3.76265 4.18566C4.66184 3.31846 5.57588 0.881221 4.73282 0C4.73282 0 8.90737 0.881221 9.37182 5.28732C9.37182 5.28732 9.9056 3.8833 11.0023 3.74478C11.0023 3.74478 10.6656 4.51552 11.0023 5.67323C11.0023 5.67323 14.4604 11.6208 8.5007 13.6312C8.5007 13.6312 10.7883 10.4038 6.49707 7.00665C6.49707 7.00665 5.39652 8.60167 4.73282 9.91926C4.73117 9.92087 3.57995 12.3091 5.07016 13.8241Z" fill="#FF1F70"/>
</svg>
