<svg width="78" height="18" viewBox="0 0 78 18" fill="none" xmlns="http://www.w3.org/2000/svg">
<path d="M5.5 2.1957C5.5 0.983048 6.48305 0 7.6957 0L72.5 0C75.2614 0 77.5 2.23858 77.5 5V13C77.5 15.7614 75.2614 18 72.5 18H7.62132C6.44975 18 5.5 17.0503 5.5 15.8787C5.5 15.3161 5.2765 14.7765 4.87868 14.3787L1.30127 10.8013C0.565749 10.0657 0.516811 8.88922 1.18871 8.09517L4.98047 3.61399C5.31592 3.21755 5.5 2.71503 5.5 2.1957Z" fill="url(#paint0_linear_225_695)"/>
<path d="M15.48 12.13C15.12 12.3033 14.7233 12.4367 14.29 12.53C13.8633 12.63 13.37 12.68 12.81 12.68C12.2367 12.68 11.7133 12.59 11.24 12.41C10.7667 12.2233 10.36 11.9667 10.02 11.64C9.68 11.3067 9.41333 10.9133 9.22 10.46C9.03333 10 8.94 9.49333 8.94 8.94C8.94 8.37333 9.03667 7.86333 9.23 7.41C9.43 6.95 9.7 6.56 10.04 6.24C10.3867 5.92 10.7933 5.67333 11.26 5.5C11.7267 5.32667 12.2333 5.24 12.78 5.24C13.3467 5.24 13.8633 5.32333 14.33 5.49C14.8033 5.65 15.1833 5.86333 15.47 6.13L14.6 7.07C14.42 6.87 14.1667 6.7 13.84 6.56C13.52 6.42 13.17 6.35 12.79 6.35C12.4167 6.35 12.0767 6.41667 11.77 6.55C11.47 6.68333 11.2133 6.86667 11 7.1C10.7867 7.33333 10.62 7.60667 10.5 7.92C10.3867 8.23333 10.33 8.57333 10.33 8.94C10.33 9.32 10.3867 9.67 10.5 9.99C10.62 10.3033 10.7867 10.5767 11 10.81C11.22 11.0433 11.4833 11.2267 11.79 11.36C12.1033 11.4867 12.4567 11.55 12.85 11.55C13.39 11.55 13.86 11.4667 14.26 11.3V9.5H12.77V8.46H15.48V12.13ZM19.9344 11.89H19.9044C19.7844 12.1033 19.591 12.28 19.3244 12.42C19.0577 12.5533 18.7544 12.62 18.4144 12.62C18.221 12.62 18.0177 12.5933 17.8044 12.54C17.5977 12.4933 17.4044 12.4133 17.2244 12.3C17.051 12.18 16.9044 12.0267 16.7844 11.84C16.671 11.6467 16.6144 11.41 16.6144 11.13C16.6144 10.77 16.7144 10.4833 16.9144 10.27C17.121 10.0567 17.3844 9.89333 17.7044 9.78C18.0244 9.66667 18.3777 9.59333 18.7644 9.56C19.1577 9.52 19.541 9.5 19.9144 9.5V9.38C19.9144 9.08 19.8044 8.86 19.5844 8.72C19.371 8.57333 19.1144 8.5 18.8144 8.5C18.561 8.5 18.3177 8.55333 18.0844 8.66C17.851 8.76667 17.6577 8.89667 17.5044 9.05L16.8844 8.32C17.1577 8.06667 17.471 7.87667 17.8244 7.75C18.1844 7.62333 18.5477 7.56 18.9144 7.56C19.341 7.56 19.691 7.62 19.9644 7.74C20.2444 7.86 20.4644 8.01667 20.6244 8.21C20.7844 8.40333 20.8944 8.62 20.9544 8.86C21.021 9.1 21.0544 9.34 21.0544 9.58V12.5H19.9344V11.89ZM19.9144 10.31H19.6444C19.451 10.31 19.2477 10.32 19.0344 10.34C18.821 10.3533 18.6244 10.39 18.4444 10.45C18.2644 10.5033 18.1144 10.5833 17.9944 10.69C17.8744 10.79 17.8144 10.93 17.8144 11.11C17.8144 11.2233 17.8377 11.32 17.8844 11.4C17.9377 11.4733 18.0044 11.5333 18.0844 11.58C18.1644 11.6267 18.2544 11.66 18.3544 11.68C18.4544 11.7 18.5544 11.71 18.6544 11.71C19.0677 11.71 19.381 11.6 19.5944 11.38C19.8077 11.16 19.9144 10.86 19.9144 10.48V10.31ZM25.0824 8.98C24.9758 8.84 24.8291 8.72 24.6424 8.62C24.4558 8.51333 24.2524 8.46 24.0324 8.46C23.8391 8.46 23.6624 8.5 23.5024 8.58C23.3424 8.66 23.2624 8.79333 23.2624 8.98C23.2624 9.16667 23.3491 9.3 23.5224 9.38C23.7024 9.45333 23.9624 9.53 24.3024 9.61C24.4824 9.65 24.6624 9.70333 24.8424 9.77C25.0291 9.83667 25.1958 9.92667 25.3424 10.04C25.4958 10.1467 25.6191 10.2833 25.7124 10.45C25.8058 10.61 25.8524 10.8067 25.8524 11.04C25.8524 11.3333 25.7958 11.5833 25.6824 11.79C25.5758 11.99 25.4291 12.1533 25.2424 12.28C25.0624 12.4067 24.8491 12.4967 24.6024 12.55C24.3624 12.61 24.1124 12.64 23.8524 12.64C23.4791 12.64 23.1158 12.5733 22.7624 12.44C22.4091 12.3 22.1158 12.1033 21.8824 11.85L22.6724 11.11C22.8058 11.2833 22.9791 11.4267 23.1924 11.54C23.4058 11.6533 23.6424 11.71 23.9024 11.71C23.9891 11.71 24.0758 11.7 24.1624 11.68C24.2558 11.66 24.3391 11.63 24.4124 11.59C24.4924 11.5433 24.5558 11.4833 24.6024 11.41C24.6491 11.3367 24.6724 11.2467 24.6724 11.14C24.6724 10.94 24.5791 10.7967 24.3924 10.71C24.2124 10.6233 23.9391 10.5367 23.5724 10.45C23.3924 10.41 23.2158 10.36 23.0424 10.3C22.8758 10.2333 22.7258 10.15 22.5924 10.05C22.4591 9.94333 22.3524 9.81333 22.2724 9.66C22.1924 9.50667 22.1524 9.31667 22.1524 9.09C22.1524 8.82333 22.2058 8.59333 22.3124 8.4C22.4258 8.20667 22.5724 8.05 22.7524 7.93C22.9324 7.80333 23.1358 7.71 23.3624 7.65C23.5891 7.59 23.8224 7.56 24.0624 7.56C24.4091 7.56 24.7458 7.62 25.0724 7.74C25.4058 7.86 25.6691 8.04333 25.8624 8.29L25.0824 8.98ZM30.3558 12.5L32.1758 9.87L32.1658 9.86C32.0658 9.90667 31.9424 9.94 31.7958 9.96C31.6558 9.98 31.5258 9.99 31.4058 9.99C31.0924 9.99 30.7991 9.93333 30.5258 9.82C30.2524 9.7 30.0124 9.54 29.8058 9.34C29.5991 9.13333 29.4358 8.89333 29.3158 8.62C29.2024 8.34 29.1458 8.04 29.1458 7.72C29.1458 7.34667 29.2124 7.00667 29.3458 6.7C29.4791 6.39333 29.6591 6.13333 29.8858 5.92C30.1191 5.7 30.3924 5.53333 30.7058 5.42C31.0258 5.3 31.3658 5.24 31.7258 5.24C32.0924 5.24 32.4324 5.30333 32.7458 5.43C33.0658 5.55 33.3424 5.72 33.5758 5.94C33.8091 6.16 33.9891 6.42 34.1158 6.72C34.2491 7.01333 34.3158 7.33 34.3158 7.67C34.3158 7.87 34.2991 8.06 34.2658 8.24C34.2324 8.41333 34.1824 8.58333 34.1158 8.75C34.0558 8.91 33.9791 9.07333 33.8858 9.24C33.7991 9.40667 33.6991 9.58 33.5858 9.76L31.8158 12.5H30.3558ZM33.0958 7.64C33.0958 7.45333 33.0624 7.27667 32.9958 7.11C32.9358 6.94333 32.8458 6.79667 32.7258 6.67C32.6058 6.53667 32.4624 6.43333 32.2958 6.36C32.1291 6.28 31.9424 6.24 31.7358 6.24C31.3291 6.24 30.9991 6.37333 30.7458 6.64C30.4991 6.9 30.3758 7.24 30.3758 7.66C30.3758 7.86 30.4058 8.04667 30.4658 8.22C30.5324 8.38667 30.6258 8.53 30.7458 8.65C30.8658 8.77 31.0058 8.86667 31.1658 8.94C31.3324 9.00667 31.5158 9.04 31.7158 9.04C31.9158 9.04 32.0991 9.00667 32.2658 8.94C32.4391 8.87333 32.5858 8.78 32.7058 8.66C32.8324 8.53333 32.9291 8.38333 32.9958 8.21C33.0624 8.03667 33.0958 7.84667 33.0958 7.64ZM40.3293 8.96C40.3293 9.53333 40.2726 10.05 40.1593 10.51C40.0526 10.97 39.8926 11.36 39.6793 11.68C39.4726 12 39.2126 12.2467 38.8993 12.42C38.5926 12.5933 38.2393 12.68 37.8393 12.68C37.4393 12.68 37.0826 12.5933 36.7693 12.42C36.456 12.2467 36.1926 12 35.9793 11.68C35.766 11.36 35.6026 10.97 35.4893 10.51C35.3826 10.05 35.3293 9.53333 35.3293 8.96C35.3293 8.38667 35.3826 7.87 35.4893 7.41C35.6026 6.95 35.766 6.56 35.9793 6.24C36.1926 5.92 36.456 5.67333 36.7693 5.5C37.0826 5.32667 37.4393 5.24 37.8393 5.24C38.2393 5.24 38.5926 5.32667 38.8993 5.5C39.2126 5.67333 39.4726 5.92 39.6793 6.24C39.8926 6.56 40.0526 6.95 40.1593 7.41C40.2726 7.87 40.3293 8.38667 40.3293 8.96ZM39.0993 8.96C39.0993 8.71333 39.0826 8.43333 39.0493 8.12C39.0226 7.80667 38.9626 7.51 38.8693 7.23C38.7826 6.95 38.656 6.71667 38.4893 6.53C38.3226 6.33667 38.106 6.24 37.8393 6.24C37.566 6.24 37.346 6.33667 37.1793 6.53C37.0126 6.71667 36.8826 6.95 36.7893 7.23C36.7026 7.51 36.6426 7.80667 36.6093 8.12C36.576 8.43333 36.5593 8.71333 36.5593 8.96C36.5593 9.20667 36.576 9.48667 36.6093 9.8C36.6426 10.1133 36.7026 10.4067 36.7893 10.68C36.8826 10.9533 37.0126 11.1867 37.1793 11.38C37.346 11.5667 37.566 11.66 37.8393 11.66C38.106 11.66 38.3226 11.5667 38.4893 11.38C38.656 11.1867 38.7826 10.9533 38.8693 10.68C38.9626 10.4067 39.0226 10.1133 39.0493 9.8C39.0826 9.48667 39.0993 9.20667 39.0993 8.96ZM46.0628 10.76C46.0628 10.5 46.1095 10.26 46.2028 10.04C46.3028 9.81333 46.4361 9.61667 46.6028 9.45C46.7761 9.27667 46.9728 9.14333 47.1928 9.05C47.4195 8.95 47.6628 8.9 47.9228 8.9C48.1828 8.9 48.4228 8.95 48.6428 9.05C48.8695 9.14333 49.0661 9.27667 49.2328 9.45C49.4061 9.61667 49.5395 9.81333 49.6328 10.04C49.7328 10.26 49.7828 10.5 49.7828 10.76C49.7828 11.02 49.7328 11.2633 49.6328 11.49C49.5395 11.71 49.4061 11.9067 49.2328 12.08C49.0661 12.2467 48.8695 12.38 48.6428 12.48C48.4228 12.5733 48.1828 12.62 47.9228 12.62C47.6628 12.62 47.4195 12.5733 47.1928 12.48C46.9728 12.38 46.7761 12.2467 46.6028 12.08C46.4361 11.9067 46.3028 11.71 46.2028 11.49C46.1095 11.2633 46.0628 11.02 46.0628 10.76ZM48.8228 10.76C48.8228 10.5067 48.7361 10.2933 48.5628 10.12C48.3895 9.94667 48.1761 9.86 47.9228 9.86C47.6695 9.86 47.4561 9.94667 47.2828 10.12C47.1095 10.2933 47.0228 10.5067 47.0228 10.76C47.0228 11.0133 47.1095 11.2267 47.2828 11.4C47.4561 11.5733 47.6695 11.66 47.9228 11.66C48.1761 11.66 48.3895 11.5733 48.5628 11.4C48.7361 11.2267 48.8228 11.0133 48.8228 10.76ZM41.2828 7.16C41.2828 6.9 41.3295 6.66 41.4228 6.44C41.5228 6.21333 41.6561 6.01667 41.8228 5.85C41.9961 5.67667 42.1928 5.54333 42.4128 5.45C42.6395 5.35 42.8828 5.3 43.1428 5.3C43.4028 5.3 43.6428 5.35 43.8628 5.45C44.0895 5.54333 44.2861 5.67667 44.4528 5.85C44.6261 6.01667 44.7595 6.21333 44.8528 6.44C44.9528 6.66 45.0028 6.9 45.0028 7.16C45.0028 7.42 44.9528 7.66333 44.8528 7.89C44.7595 8.11 44.6261 8.30667 44.4528 8.48C44.2861 8.64667 44.0895 8.78 43.8628 8.88C43.6428 8.97333 43.4028 9.02 43.1428 9.02C42.8828 9.02 42.6395 8.97333 42.4128 8.88C42.1928 8.78 41.9961 8.64667 41.8228 8.48C41.6561 8.30667 41.5228 8.11 41.4228 7.89C41.3295 7.66333 41.2828 7.42 41.2828 7.16ZM44.0428 7.16C44.0428 6.90667 43.9561 6.69333 43.7828 6.52C43.6095 6.34667 43.3961 6.26 43.1428 6.26C42.8895 6.26 42.6761 6.34667 42.5028 6.52C42.3295 6.69333 42.2428 6.90667 42.2428 7.16C42.2428 7.41333 42.3295 7.62667 42.5028 7.8C42.6761 7.97333 42.8895 8.06 43.1428 8.06C43.3961 8.06 43.6095 7.97333 43.7828 7.8C43.9561 7.62667 44.0428 7.41333 44.0428 7.16ZM47.1928 5.1L48.0228 5.48L43.8628 12.82L43.0328 12.44L47.1928 5.1ZM53.1197 8.94C53.1197 8.37333 53.213 7.86333 53.3997 7.41C53.593 6.95 53.8564 6.56 54.1897 6.24C54.5297 5.92 54.9297 5.67333 55.3897 5.5C55.8564 5.32667 56.363 5.24 56.9097 5.24C57.463 5.24 57.973 5.32667 58.4397 5.5C58.9064 5.67333 59.3097 5.92 59.6497 6.24C59.9897 6.56 60.253 6.95 60.4397 7.41C60.633 7.86333 60.7297 8.37333 60.7297 8.94C60.7297 9.49333 60.633 10 60.4397 10.46C60.253 10.9133 59.9897 11.3067 59.6497 11.64C59.3097 11.9667 58.9064 12.2233 58.4397 12.41C57.973 12.59 57.463 12.68 56.9097 12.68C56.363 12.68 55.8564 12.59 55.3897 12.41C54.9297 12.2233 54.5297 11.9667 54.1897 11.64C53.8564 11.3067 53.593 10.9133 53.3997 10.46C53.213 10 53.1197 9.49333 53.1197 8.94ZM54.4897 8.94C54.4897 9.32 54.5464 9.67 54.6597 9.99C54.7797 10.3033 54.9464 10.5767 55.1597 10.81C55.3797 11.0433 55.6364 11.2267 55.9297 11.36C56.2297 11.4867 56.5597 11.55 56.9197 11.55C57.2797 11.55 57.6097 11.4867 57.9097 11.36C58.2097 11.2267 58.4664 11.0433 58.6797 10.81C58.8997 10.5767 59.0664 10.3033 59.1797 9.99C59.2997 9.67 59.3597 9.32 59.3597 8.94C59.3597 8.57333 59.2997 8.23333 59.1797 7.92C59.0664 7.60667 58.903 7.33333 58.6897 7.1C58.4764 6.86667 58.2197 6.68333 57.9197 6.55C57.6197 6.41667 57.2864 6.35 56.9197 6.35C56.553 6.35 56.2197 6.41667 55.9197 6.55C55.6264 6.68333 55.373 6.86667 55.1597 7.1C54.9464 7.33333 54.7797 7.60667 54.6597 7.92C54.5464 8.23333 54.4897 8.57333 54.4897 8.94ZM61.946 5.42H66.516V6.52H63.206V8.46H66.326V9.52H63.206V12.5H61.946V5.42ZM67.6784 5.42H72.2484V6.52H68.9384V8.46H72.0584V9.52H68.9384V12.5H67.6784V5.42Z" fill="#1F2027"/>
<defs>
<linearGradient id="paint0_linear_225_695" x1="5.5" y1="9" x2="50.7045" y2="9" gradientUnits="userSpaceOnUse">
<stop stop-color="#FFD584"/>
<stop offset="1" stop-color="#FB6871"/>
</linearGradient>
</defs>
</svg>
