<svg width="20" height="20" viewBox="0 0 20 20" fill="none" xmlns="http://www.w3.org/2000/svg">
<path d="M18.9895 9.71921C18.7927 5.00743 15.0262 1.18089 10.3883 1.00955C7.91472 0.895328 5.55359 1.80913 3.75464 3.55106C1.9838 5.29299 1 7.63461 1 10.1476C1 14.2597 3.72653 17.8863 7.60552 18.9429C7.71796 18.9714 7.83039 19 7.94282 19C8.22391 19 8.505 18.9143 8.72986 18.7144C9.03906 18.4574 9.23582 18.0862 9.23582 17.6864V16.7441C9.23582 16.487 9.26393 15.3448 9.26393 15.1163C9.29204 14.9736 9.32015 14.8593 9.40447 14.7737C9.60123 14.5167 9.62934 14.174 9.4888 13.8884C9.34825 13.6314 9.12339 13.4601 8.8423 13.4315C8.64554 13.403 8.44878 13.3744 8.30824 13.3173C8.08337 13.2602 7.8585 13.146 7.63363 13.0317C7.46498 12.9461 7.29633 12.8033 7.15578 12.632C7.04335 12.4892 6.93091 12.2607 6.84659 11.9752C6.73415 11.6325 6.67794 11.2613 6.67794 10.8615C6.67794 10.3475 6.84659 9.91911 7.15578 9.57643L7.46498 9.23376L7.29633 8.80541C7.24011 8.66263 7.18389 8.46274 7.212 8.12006C7.60552 8.26284 7.71796 8.34851 7.71796 8.34851L7.74606 8.37707C7.8585 8.43418 7.94282 8.51985 8.02715 8.54841L8.36445 8.7483L8.64554 8.66263C9.12339 8.51985 9.60123 8.46274 10.1072 8.46274C10.6131 8.46274 11.091 8.51985 11.5688 8.66263L11.8499 8.7483L12.4402 8.37707C12.637 8.26284 12.8337 8.14862 13.0586 8.06295C13.0867 8.31996 13.0586 8.54841 12.9743 8.77686L12.8056 9.2052L13.1148 9.54788C13.424 9.89055 13.5927 10.3189 13.5927 10.8329C13.5927 11.2613 13.5364 11.6039 13.4521 11.918C13.3397 12.2607 13.2272 12.4606 13.1148 12.6034C13.0024 12.7462 12.8337 12.889 12.6089 13.0317C12.3559 13.1745 12.1591 13.2316 11.9342 13.3173C11.7937 13.3744 11.5688 13.403 11.3721 13.4315H11.344C11.0629 13.4886 10.838 13.6885 10.7256 13.9455C10.6131 14.2025 10.6413 14.4881 10.8099 14.7451C10.9223 14.8879 10.9786 15.1163 10.9786 15.4019V17.6579C10.9786 18.0576 11.1753 18.4574 11.4845 18.6859C11.7937 18.9143 12.2153 19 12.6089 18.8858C16.6003 17.6864 19.1863 13.8884 18.9895 9.71921ZM12.4402 17.4865V15.4305C12.4402 15.1735 12.4121 14.945 12.3559 14.7451C12.6651 14.6594 12.9743 14.5452 13.3116 14.3453L13.3397 14.3168C13.7051 14.0883 13.9862 13.8599 14.211 13.5743C14.4921 13.2316 14.6608 12.8318 14.8013 12.4321C14.9419 11.9752 15.0262 11.4897 15.0262 10.89C15.0262 10.1476 14.8294 9.51932 14.4359 8.94819C14.5483 8.34851 14.4921 7.74883 14.2392 7.09204L14.1267 6.77792L13.8175 6.66369C13.5083 6.54947 13.1148 6.57803 12.637 6.77792C12.3278 6.89214 12.0467 7.03493 11.7375 7.20626L11.6813 7.26338C10.6975 7.03492 9.62934 7.03492 8.61743 7.26338C8.58932 7.23482 8.56121 7.23482 8.5331 7.20626C8.36445 7.09204 8.11148 6.94926 7.71796 6.80647C7.24011 6.57802 6.81848 6.54947 6.48118 6.66369L6.17198 6.77792L6.05955 7.09204C5.80657 7.77739 5.75035 8.37707 5.8909 8.94819C5.49738 9.49076 5.30062 10.1476 5.30062 10.89C5.30062 11.4326 5.35683 11.918 5.52548 12.4035C5.66603 12.889 5.86279 13.2887 6.08766 13.5743C6.36874 13.8884 6.64983 14.1454 6.98713 14.3168C7.29633 14.4881 7.60552 14.6309 7.94282 14.7166C7.91472 14.8022 7.91472 14.8879 7.88661 15.0021V15.9159C7.212 15.6875 6.64983 15.4019 6.20009 14.9165C5.8909 14.5738 5.55359 14.2311 5.38494 14.1169C5.01953 13.9455 4.79466 14.3168 4.87899 14.4881C4.96331 14.7451 5.32872 14.8879 5.52548 15.0878C5.75035 15.3162 5.77846 15.6304 5.97522 15.8874C6.25631 16.2872 7.24011 16.7726 7.91472 16.6298V17.5436C4.62601 16.6013 2.40543 13.5743 2.40543 10.1476C2.40543 8.03439 3.22058 6.06401 4.73844 4.57909C6.17198 3.17983 8.02715 2.43737 10.0229 2.43737H10.3321C14.2392 2.58015 17.4154 5.80701 17.5841 9.77633C17.7527 13.2316 15.6446 16.3728 12.4402 17.4865Z" fill="#0F134F" stroke="#F0F2F7" stroke-width="0.2"/>
</svg>
