<svg width="26" height="11" viewBox="0 0 26 11" fill="none" xmlns="http://www.w3.org/2000/svg">
<path d="M26 2C26 0.895431 25.1046 0 24 0H5C2.23858 0 0 2.23858 0 5V9C0 10.1046 0.895431 11 2 11H21C23.7614 11 26 8.76142 26 6V2Z" fill="url(#paint0_linear_545_9853)"/>
<path d="M3.624 2.336H4.96L7.592 6.576H7.608V2.336H8.616V8H7.336L4.648 3.624H4.632V8H3.624V2.336ZM9.86619 2.336H13.6182V3.216H10.8742V4.656H13.4742V5.504H10.8742V7.104H13.7622V8H9.86619V2.336ZM14.173 2.336H15.277L16.373 6.496H16.389L17.637 2.336H18.677L19.901 6.496H19.917L21.037 2.336H22.109L20.453 8H19.477L18.149 3.752H18.133L16.805 8H15.829L14.173 2.336Z" fill="#1F2027"/>
<defs>
<linearGradient id="paint0_linear_545_9853" x1="19.1667" y1="-0.36666" x2="0.0291038" y2="8.42731" gradientUnits="userSpaceOnUse">
<stop stop-color="#9DA2FF"/>
<stop offset="1" stop-color="#55ADFF"/>
</linearGradient>
</defs>
</svg>
