<svg width="26" height="26" viewBox="0 0 26 26" fill="none" xmlns="http://www.w3.org/2000/svg">
<rect width="26" height="26" fill="#F8F8F8" fill-opacity="0.01"/>
<path d="M15.9527 3.4447L14.1871 3.62817L13.3052 11.6087L15.1754 11.0457L15.9527 3.4447Z" fill="url(#paint0_linear_3511_10845)"/>
<path d="M15.1672 11.0371L13.2808 11.6115L18.9818 12.6475L19.2087 12.8159L21.0004 12.1812L15.1672 11.0371Z" fill="url(#paint1_linear_3511_10845)"/>
<path d="M10.3613 23.3653L19.1237 12.8322L20.9999 12.1796L12.3075 22.3848L10.3613 23.3653Z" fill="url(#paint2_linear_3511_10845)"/>
<g filter="url(#filter0_b_3511_10845)">
<path d="M18.8191 12.4481L13.505 11.5129L14.3947 3.8452C14.3987 3.80893 14.3905 3.76994 14.3713 3.73425C14.3521 3.69856 14.323 3.66814 14.2884 3.64767C14.2539 3.62721 14.2158 3.61783 14.18 3.62099C14.1443 3.62414 14.1128 3.63966 14.0906 3.66514L5.32248 13.8246C5.27661 13.8778 5.24903 13.9463 5.24286 14.0223C5.2367 14.0982 5.25219 14.1786 5.28759 14.2543C5.32299 14.33 5.37688 14.398 5.44315 14.4506C5.50942 14.5032 5.58541 14.5383 5.66252 14.5519L10.9767 15.4871L10.087 23.1548C10.083 23.1911 10.0912 23.2301 10.1104 23.2657C10.1296 23.3014 10.1587 23.3319 10.1933 23.3523C10.2278 23.3728 10.2659 23.3822 10.3017 23.379C10.3374 23.3759 10.3688 23.3603 10.3911 23.3349L19.1592 13.1754C19.2051 13.1222 19.2326 13.0537 19.2388 12.9777C19.245 12.9018 19.2295 12.8214 19.1941 12.7457C19.1587 12.67 19.1048 12.602 19.0385 12.5494C18.9723 12.4968 18.8963 12.4617 18.8191 12.4481Z" fill="url(#paint3_linear_3511_10845)" fill-opacity="0.8"/>
<path d="M18.8161 12.2981L18.8162 12.2981C18.9207 12.3165 19.0237 12.3641 19.1137 12.4355C19.2036 12.5069 19.2769 12.5993 19.3251 12.7025C19.3734 12.8056 19.3945 12.9152 19.3861 13.0187L19.2388 12.9777L19.3861 13.0187C19.3777 13.1223 19.3401 13.2155 19.2777 13.2879L19.2776 13.288L10.5095 23.4475L10.5091 23.448C10.4673 23.4958 10.4084 23.5248 10.3417 23.5307C10.275 23.5366 10.204 23.5191 10.1394 23.4809C10.0749 23.4427 10.0202 23.3857 9.98412 23.3186L10.1104 23.2657L9.98412 23.3186C9.94801 23.2514 9.9325 23.178 9.94012 23.1096L9.94019 23.1089L10.8106 15.6073L5.66553 14.7019L5.66548 14.7019C5.561 14.6835 5.45795 14.6359 5.36801 14.5645L5.44286 14.4511L5.36801 14.5645C5.27805 14.4931 5.20474 14.4007 5.15653 14.2975C5.10831 14.1944 5.08717 14.0848 5.09558 13.9813C5.10399 13.8777 5.14159 13.7845 5.204 13.7121L5.20405 13.712L13.9722 3.55252L13.9726 3.552C14.0144 3.50416 14.0733 3.47519 14.14 3.4693L14.18 3.62099L14.14 3.4693C14.2067 3.46341 14.2777 3.48089 14.3423 3.51911C14.4068 3.55734 14.4614 3.6143 14.4975 3.68142M18.8161 12.2981L14.3947 3.8452L13.522 11.3665L13.671 11.3927M18.8161 12.2981L13.671 11.3927M18.8161 12.2981L13.6541 11.5392M14.4975 3.68142L14.3713 3.73424L14.4975 3.68141C14.4975 3.68141 14.4975 3.68142 14.4975 3.68142ZM14.4975 3.68142C14.5337 3.74856 14.5492 3.82202 14.5416 3.89043L14.5415 3.89108L13.671 11.3927M13.671 11.3927L13.6541 11.5392M13.6541 11.5392L18.8191 12.4481L13.6541 11.5392Z" stroke="url(#paint4_linear_3511_10845)" stroke-width="0.3"/>
</g>
<defs>
<filter id="filter0_b_3511_10845" x="3.2658" y="1.63592" width="17.9498" height="23.7282" filterUnits="userSpaceOnUse" color-interpolation-filters="sRGB">
<feFlood flood-opacity="0" result="BackgroundImageFix"/>
<feGaussianBlur in="BackgroundImageFix" stdDeviation="0.84"/>
<feComposite in2="SourceAlpha" operator="in" result="effect1_backgroundBlur_3511_10845"/>
<feBlend mode="normal" in="SourceGraphic" in2="effect1_backgroundBlur_3511_10845" result="shape"/>
</filter>
<linearGradient id="paint0_linear_3511_10845" x1="14.1056" y1="5.20185" x2="15.7966" y2="5.44605" gradientUnits="userSpaceOnUse">
<stop stop-color="#45CDB8"/>
<stop offset="1" stop-color="#619CDC" stop-opacity="0"/>
</linearGradient>
<linearGradient id="paint1_linear_3511_10845" x1="16.5" y1="12" x2="16.4977" y2="11" gradientUnits="userSpaceOnUse">
<stop stop-color="#45CDB8" stop-opacity="0.42"/>
<stop offset="1" stop-color="#619CDC" stop-opacity="0"/>
</linearGradient>
<linearGradient id="paint2_linear_3511_10845" x1="13.5779" y1="14.5871" x2="19.4595" y2="17.0782" gradientUnits="userSpaceOnUse">
<stop stop-color="#45CDB8"/>
<stop offset="1" stop-color="#619CDC" stop-opacity="0"/>
</linearGradient>
<linearGradient id="paint3_linear_3511_10845" x1="14.1018" y1="1.41042" x2="1.45025" y2="20.0625" gradientUnits="userSpaceOnUse">
<stop offset="0.00504314" stop-color="#49FFDA"/>
<stop offset="1" stop-color="#5A87DF" stop-opacity="0.86"/>
</linearGradient>
<linearGradient id="paint4_linear_3511_10845" x1="15.5293" y1="5.42626" x2="4.86555" y2="7.71799" gradientUnits="userSpaceOnUse">
<stop stop-color="#ADFFF0"/>
<stop offset="1" stop-color="#E3E6F8"/>
</linearGradient>
</defs>
</svg>
