<svg width="26" height="26" viewBox="0 0 26 26" fill="none" xmlns="http://www.w3.org/2000/svg">
<rect width="26" height="26" fill="#F8F8F8" fill-opacity="0.01"/>
<g filter="url(#filter0_b_3507_2870)">
<mask id="path-2-inside-1_3507_2870" fill="white">
<path fill-rule="evenodd" clip-rule="evenodd" d="M2.99997 6.5C2.99997 6.22386 3.22383 6 3.49997 6H22.4993C22.7754 6 22.9993 6.22386 22.9993 6.5L22.9993 10.1707C21.8348 10.583 21.0005 11.694 21.0004 12.9998C21.0002 14.3058 21.8346 15.4169 22.9993 15.829L22.9993 19.5C22.9993 19.7761 22.7754 20 22.4993 20H3.49997C3.22383 20 2.99997 19.7761 2.99997 19.5L2.99997 15.8293C4.16525 15.4176 5.00023 14.3064 5.00039 13.0003C5.00054 11.6939 4.16551 10.5825 2.99997 10.1709L2.99997 6.5Z"/>
</mask>
<path fill-rule="evenodd" clip-rule="evenodd" d="M2.99997 6.5C2.99997 6.22386 3.22383 6 3.49997 6H22.4993C22.7754 6 22.9993 6.22386 22.9993 6.5L22.9993 10.1707C21.8348 10.583 21.0005 11.694 21.0004 12.9998C21.0002 14.3058 21.8346 15.4169 22.9993 15.829L22.9993 19.5C22.9993 19.7761 22.7754 20 22.4993 20H3.49997C3.22383 20 2.99997 19.7761 2.99997 19.5L2.99997 15.8293C4.16525 15.4176 5.00023 14.3064 5.00039 13.0003C5.00054 11.6939 4.16551 10.5825 2.99997 10.1709L2.99997 6.5Z" fill="url(#paint0_linear_3507_2870)"/>
<path d="M2.99997 6.5L2.49997 6.50003L2.99997 6.5ZM22.9993 6.5L23.4993 6.49997L23.4993 6.49997L22.9993 6.5ZM22.9993 10.1707L23.1661 10.6421L23.4993 10.5241L23.4993 10.1707L22.9993 10.1707ZM21.0004 12.9998L21.5004 12.9998L21.5004 12.9998L21.0004 12.9998ZM22.9993 15.829L23.4993 15.829L23.4993 15.4755L23.1661 15.3576L22.9993 15.829ZM22.9993 19.5L22.4993 19.5L22.4993 19.5L22.9993 19.5ZM2.99997 19.5L3.49997 19.5L2.99997 19.5ZM2.99997 15.8293L2.8334 15.3579L2.49997 15.4757L2.49997 15.8294L2.99997 15.8293ZM5.00039 13.0003L5.50039 13.0003L5.00039 13.0003ZM2.99997 10.1709L2.49997 10.171L2.49997 10.5246L2.83345 10.6424L2.99997 10.1709ZM3.5 5.5C2.9477 5.5 2.49997 5.94773 2.49997 6.50003L3.49997 6.49997L3.49994 6.5L3.5 5.5ZM22.4993 5.5H3.5L3.49994 6.5H22.4993L22.4993 5.5ZM23.4993 6.49997C23.4993 5.9477 23.0516 5.5 22.4993 5.5L22.4993 6.5L22.4993 6.50003L23.4993 6.49997ZM23.4993 10.1707L23.4993 6.49997L22.4993 6.50003L22.4993 10.1708L23.4993 10.1707ZM22.8325 9.69939C21.4746 10.1801 20.5006 11.4756 20.5004 12.9997L21.5004 12.9998C21.5005 11.9123 22.1951 10.9859 23.1661 10.6421L22.8325 9.69939ZM20.5004 12.9997C20.5002 14.5242 21.4743 15.8199 22.8325 16.3004L23.1661 15.3576C22.1948 15.014 21.5003 14.0874 21.5004 12.9998L20.5004 12.9997ZM23.4993 19.5L23.4993 15.829L22.4993 15.829L22.4993 19.5L23.4993 19.5ZM22.4993 20.5C23.0516 20.5 23.4993 20.0523 23.4993 19.5L22.4993 19.5L22.4993 19.5L22.4993 20.5ZM3.49994 20.5H22.4993L22.4993 19.5H3.5L3.49994 20.5ZM2.49997 19.5C2.49997 20.0523 2.94767 20.5 3.49994 20.5L3.5 19.5L3.49997 19.5L2.49997 19.5ZM2.49997 15.8294L2.49997 19.5L3.49997 19.5L3.49997 15.8293L2.49997 15.8294ZM4.50039 13.0002C4.50026 14.0879 3.80518 15.0145 2.8334 15.3579L3.16653 16.3008C4.52533 15.8206 5.50021 14.5249 5.50039 13.0003L4.50039 13.0002ZM2.83345 10.6424C3.80541 10.9856 4.50052 11.9124 4.50039 13.0002L5.50039 13.0003C5.50057 11.4753 4.52561 10.1794 3.16649 9.69946L2.83345 10.6424ZM2.49997 6.50003L2.49997 10.171L3.49997 10.1709L3.49997 6.49997L2.49997 6.50003Z" fill="url(#paint1_linear_3507_2870)" mask="url(#path-2-inside-1_3507_2870)"/>
</g>
<path d="M6 13H20" stroke="#31333A" stroke-opacity="0.3" stroke-width="0.3" stroke-dasharray="1 1"/>
<path d="M10.2133 10.8643L9.56836 10.8643L11.2961 12.92L11.8376 12.569L10.2133 10.8643Z" fill="#35373D"/>
<path d="M17.9973 10.9875L17.1895 10.8645L11.3144 15.9944L12.4838 15.9944L17.9973 10.9875Z" fill="#202129"/>
<g filter="url(#filter1_i_3507_2870)">
<path d="M9.56628 10.8644L8.0258 12.097L11.3179 16L17.1892 10.8646L15.6656 9.01574L11.2921 12.9186L9.56628 10.8644Z" fill="#393B44"/>
</g>
<path d="M17.1896 10.8642L15.6416 9L16.3889 9.15407L18.0174 11.0029L17.1896 10.8642Z" fill="#363742"/>
<defs>
<filter id="filter0_b_3507_2870" x="1.32" y="4.32" width="23.3595" height="17.36" filterUnits="userSpaceOnUse" color-interpolation-filters="sRGB">
<feFlood flood-opacity="0" result="BackgroundImageFix"/>
<feGaussianBlur in="BackgroundImageFix" stdDeviation="0.84"/>
<feComposite in2="SourceAlpha" operator="in" result="effect1_backgroundBlur_3507_2870"/>
<feBlend mode="normal" in="SourceGraphic" in2="effect1_backgroundBlur_3507_2870" result="shape"/>
</filter>
<filter id="filter1_i_3507_2870" x="7.86857" y="9.01575" width="9.32039" height="7.14107" filterUnits="userSpaceOnUse" color-interpolation-filters="sRGB">
<feFlood flood-opacity="0" result="BackgroundImageFix"/>
<feBlend mode="normal" in="SourceGraphic" in2="BackgroundImageFix" result="shape"/>
<feColorMatrix in="SourceAlpha" type="matrix" values="0 0 0 0 0 0 0 0 0 0 0 0 0 0 0 0 0 0 127 0" result="hardAlpha"/>
<feOffset dx="-0.156816" dy="0.156816"/>
<feGaussianBlur stdDeviation="0.19602"/>
<feComposite in2="hardAlpha" operator="arithmetic" k2="-1" k3="1"/>
<feColorMatrix type="matrix" values="0 0 0 0 0.472083 0 0 0 0 0.498056 0 0 0 0 0.55 0 0 0 1 0"/>
<feBlend mode="normal" in2="shape" result="effect1_innerShadow_3507_2870"/>
</filter>
<linearGradient id="paint0_linear_3507_2870" x1="12.9997" y1="1.5" x2="13.8764" y2="21.9624" gradientUnits="userSpaceOnUse">
<stop stop-color="white"/>
<stop offset="1" stop-color="white" stop-opacity="0"/>
</linearGradient>
<linearGradient id="paint1_linear_3507_2870" x1="17.545" y1="3.5" x2="17.888" y2="20.4193" gradientUnits="userSpaceOnUse">
<stop stop-color="white"/>
<stop offset="1" stop-color="white" stop-opacity="0"/>
</linearGradient>
</defs>
</svg>
