<svg width="26" height="26" viewBox="0 0 26 26" fill="none" xmlns="http://www.w3.org/2000/svg">
<rect width="26" height="26" fill="#F8F8F8" fill-opacity="0.01"/>
<mask id="path-2-outside-1_3481_1111" maskUnits="userSpaceOnUse" x="1.99909" y="5" width="22.001" height="16" fill="black">
<rect fill="white" x="1.99909" y="5" width="22.001" height="16"/>
<path fill-rule="evenodd" clip-rule="evenodd" d="M2.99994 6.5C2.99994 6.22386 3.2238 6 3.49994 6H22.4993C22.7754 6 22.9993 6.22386 22.9993 6.5L22.9993 10.17C22.9993 10.1704 22.999 10.1708 22.9986 10.171C21.8345 10.5834 21.0005 11.6942 21.0004 12.9998C21.0002 14.3055 21.8342 15.4165 22.9986 15.8288C22.999 15.8289 22.9993 15.8293 22.9993 15.8297L22.9993 19.5C22.9993 19.7761 22.7754 20 22.4993 20H3.49994C3.2238 20 2.99994 19.7761 2.99994 19.5L2.99994 15.83C2.99994 15.8296 3.00021 15.8292 3.00061 15.8291C4.16554 15.4171 5.0002 14.3061 5.00036 13.0003C5.00051 11.6941 4.1658 10.5829 3.00061 10.1712C3.00021 10.171 2.99994 10.1706 2.99994 10.1702L2.99994 6.5Z"/>
</mask>
<path fill-rule="evenodd" clip-rule="evenodd" d="M2.99994 6.5C2.99994 6.22386 3.2238 6 3.49994 6H22.4993C22.7754 6 22.9993 6.22386 22.9993 6.5L22.9993 10.17C22.9993 10.1704 22.999 10.1708 22.9986 10.171C21.8345 10.5834 21.0005 11.6942 21.0004 12.9998C21.0002 14.3055 21.8342 15.4165 22.9986 15.8288C22.999 15.8289 22.9993 15.8293 22.9993 15.8297L22.9993 19.5C22.9993 19.7761 22.7754 20 22.4993 20H3.49994C3.2238 20 2.99994 19.7761 2.99994 19.5L2.99994 15.83C2.99994 15.8296 3.00021 15.8292 3.00061 15.8291C4.16554 15.4171 5.0002 14.3061 5.00036 13.0003C5.00051 11.6941 4.1658 10.5829 3.00061 10.1712C3.00021 10.171 2.99994 10.1706 2.99994 10.1702L2.99994 6.5Z" fill="url(#paint0_linear_3481_1111)"/>
<path d="M2.99994 6.5L2.49994 6.50003L2.99994 6.5ZM22.9993 6.5L23.4993 6.49997L23.4993 6.49997L22.9993 6.5ZM21.0004 12.9998L21.5004 12.9998L21.5004 12.9998L21.0004 12.9998ZM22.9993 19.5L22.4993 19.5L22.4993 19.5L22.9993 19.5ZM2.99994 19.5L3.49994 19.5L2.99994 19.5ZM5.00036 13.0003L5.50036 13.0003L5.00036 13.0003ZM3.00061 10.1712L3.16724 9.69973L3.00061 10.1712ZM3.00061 15.8291L2.83393 15.3577L3.00061 15.8291ZM22.9986 15.8288L22.8317 16.3001L22.9986 15.8288ZM22.9993 15.8297L23.4993 15.8297L22.9993 15.8297ZM22.9993 10.17L23.4993 10.17L22.9993 10.17ZM22.9986 10.171L22.8317 9.69967L22.9986 10.171ZM3.49997 5.5C2.94767 5.5 2.49994 5.94773 2.49994 6.50003L3.49994 6.49997L3.49991 6.5L3.49997 5.5ZM22.4993 5.5H3.49997L3.49991 6.5H22.4992L22.4993 5.5ZM23.4993 6.49997C23.4993 5.9477 23.0516 5.5 22.4993 5.5L22.4992 6.5L22.4993 6.50003L23.4993 6.49997ZM23.4993 10.17L23.4993 6.49997L22.4993 6.50003L22.4993 10.17L23.4993 10.17ZM22.8317 9.69967C21.4742 10.1806 20.5005 11.4758 20.5004 12.9997L21.5004 12.9998C21.5005 11.9126 22.1948 10.9862 23.1656 10.6423L22.8317 9.69967ZM20.5004 12.9997C20.5002 14.5239 21.4739 15.8194 22.8317 16.3001L23.1655 15.3574C22.1945 15.0137 21.5002 14.0872 21.5004 12.9998L20.5004 12.9997ZM23.4993 19.5L23.4993 15.8297L22.4993 15.8298L22.4993 19.5L23.4993 19.5ZM22.4992 20.5C23.0515 20.5 23.4993 20.0523 23.4993 19.5L22.4993 19.5L22.4993 19.5L22.4992 20.5ZM3.49991 20.5H22.4992L22.4993 19.5H3.49997L3.49991 20.5ZM2.49994 19.5C2.49994 20.0523 2.94763 20.5 3.49991 20.5L3.49997 19.5L3.49994 19.5L2.49994 19.5ZM2.49994 15.8301L2.49994 19.5L3.49994 19.5L3.49994 15.83L2.49994 15.8301ZM4.50036 13.0002C4.50023 14.0876 3.80542 15.0142 2.83393 15.3577L3.16728 16.3005C4.52567 15.8201 5.50018 14.5246 5.50036 13.0003L4.50036 13.0002ZM2.83398 10.6426C3.80564 10.986 4.50049 11.9126 4.50036 13.0002L5.50036 13.0003C5.50054 11.4756 4.52595 10.1799 3.16724 9.69973L2.83398 10.6426ZM2.49994 6.50003L2.49994 10.1702L3.49994 10.1702L3.49994 6.49997L2.49994 6.50003ZM3.16724 9.69973C3.36583 9.76992 3.49994 9.95786 3.49994 10.1702L2.49994 10.1702C2.49994 10.3834 2.63459 10.5721 2.83398 10.6426L3.16724 9.69973ZM3.49994 15.83C3.49994 16.0423 3.36592 16.2302 3.16728 16.3005L2.83393 15.3577C2.6345 15.4282 2.49994 15.617 2.49994 15.8301L3.49994 15.83ZM22.8317 16.3001C22.6332 16.2298 22.4993 16.042 22.4993 15.8298L23.4993 15.8297C23.4993 15.6166 23.3648 15.428 23.1655 15.3574L22.8317 16.3001ZM22.4993 10.17C22.4993 9.95782 22.6333 9.76996 22.8317 9.69967L23.1656 10.6423C23.3648 10.5717 23.4993 10.3831 23.4993 10.17L22.4993 10.17Z" fill="url(#paint1_linear_3481_1111)" mask="url(#path-2-outside-1_3481_1111)"/>
<path d="M6 13H20" stroke="#31333A" stroke-opacity="0.3" stroke-width="0.3" stroke-dasharray="1 1"/>
<path d="M10.2128 10.8643L9.56787 10.8643L11.2956 12.92L11.8371 12.569L10.2128 10.8643Z" fill="url(#paint2_linear_3481_1111)"/>
<path d="M17.9969 10.9875L17.189 10.8645L11.314 15.9944L12.4834 15.9944L17.9969 10.9875Z" fill="url(#paint3_linear_3481_1111)"/>
<g filter="url(#filter0_i_3481_1111)">
<path d="M9.56628 10.8644L8.0258 12.097L11.3179 16L17.1892 10.8646L15.6656 9.01574L11.2921 12.9186L9.56628 10.8644Z" fill="#6E727C"/>
</g>
<path d="M17.1891 10.8642L15.6411 9L16.3885 9.15407L18.0169 11.0029L17.1891 10.8642Z" fill="url(#paint4_linear_3481_1111)"/>
<defs>
<filter id="filter0_i_3481_1111" x="7.86906" y="9.01575" width="9.3199" height="7.14107" filterUnits="userSpaceOnUse" color-interpolation-filters="sRGB">
<feFlood flood-opacity="0" result="BackgroundImageFix"/>
<feBlend mode="normal" in="SourceGraphic" in2="BackgroundImageFix" result="shape"/>
<feColorMatrix in="SourceAlpha" type="matrix" values="0 0 0 0 0 0 0 0 0 0 0 0 0 0 0 0 0 0 127 0" result="hardAlpha"/>
<feOffset dx="-0.156816" dy="0.156816"/>
<feGaussianBlur stdDeviation="0.19602"/>
<feComposite in2="hardAlpha" operator="arithmetic" k2="-1" k3="1"/>
<feColorMatrix type="matrix" values="0 0 0 0 0.472083 0 0 0 0 0.498056 0 0 0 0 0.55 0 0 0 1 0"/>
<feBlend mode="normal" in2="shape" result="effect1_innerShadow_3481_1111"/>
</filter>
<linearGradient id="paint0_linear_3481_1111" x1="11.7501" y1="3.53825" x2="12.5117" y2="22.0274" gradientUnits="userSpaceOnUse">
<stop stop-color="#B2BFCB"/>
<stop offset="1" stop-color="#CCD7E2" stop-opacity="0.38"/>
</linearGradient>
<linearGradient id="paint1_linear_3481_1111" x1="24.4128" y1="10.4959" x2="21.6591" y2="22.9447" gradientUnits="userSpaceOnUse">
<stop stop-color="#828B94"/>
<stop offset="1" stop-color="#828B94" stop-opacity="0.49"/>
</linearGradient>
<linearGradient id="paint2_linear_3481_1111" x1="9.91169" y1="11.3775" x2="12.4861" y2="12.4927" gradientUnits="userSpaceOnUse">
<stop stop-color="#B5C1CC"/>
<stop offset="1" stop-color="#DEE5EC" stop-opacity="0"/>
</linearGradient>
<linearGradient id="paint3_linear_3481_1111" x1="14" y1="13.5" x2="14.6343" y2="16.4713" gradientUnits="userSpaceOnUse">
<stop stop-color="#B5C1CC"/>
<stop offset="1" stop-color="#DEE5EC" stop-opacity="0"/>
</linearGradient>
<linearGradient id="paint4_linear_3481_1111" x1="16" y1="9.5" x2="18.6284" y2="10.7242" gradientUnits="userSpaceOnUse">
<stop stop-color="#B5C1CC"/>
<stop offset="1" stop-color="#DEE5EC" stop-opacity="0"/>
</linearGradient>
</defs>
</svg>
