<svg width="26" height="26" viewBox="0 0 26 26" fill="none" xmlns="http://www.w3.org/2000/svg">
<rect width="26" height="26" fill="#EFEFEF" fill-opacity="0.01"/>
<path d="M9.98469 11.6409V19.4343C9.98469 20.2219 9.16107 20.4274 8.73134 20.481C8.65461 20.4944 8.56943 20.5 8.47705 20.5C8.47705 20.5 8.57966 20.5 8.73134 20.481C8.98854 20.4362 9.15075 20.3034 9.17056 19.9966V11.6409H9.98469Z" fill="url(#paint0_linear_3511_10881)"/>
<path d="M8.97981 5.50002L7.47217 5.5L11.2834 11.4396H13.0002L8.97981 5.50002Z" fill="url(#paint1_linear_3511_10881)"/>
<g filter="url(#filter0_b_3511_10881)">
<mask id="path-4-outside-1_3511_10881" maskUnits="userSpaceOnUse" x="3.00049" y="4.94836" width="9" height="16" fill="black">
<rect fill="white" x="3.00049" y="4.94836" width="9" height="16"/>
<path fill-rule="evenodd" clip-rule="evenodd" d="M4.10066 11.167C4.0206 11.167 3.973 11.0776 4.01768 11.0112L7.39302 5.99256C7.43264 5.93363 7.51934 5.93363 7.55897 5.99256L10.9343 11.0112C10.979 11.0776 10.9314 11.167 10.8513 11.167H8.76432C8.7091 11.167 8.66432 11.2118 8.66432 11.267V19.8966C8.66432 19.9519 8.61955 19.9966 8.56432 19.9966H6.38892C6.33369 19.9966 6.28892 19.9519 6.28892 19.8966V11.267C6.28892 11.2118 6.24415 11.167 6.18892 11.167H4.10066Z"/>
</mask>
<path fill-rule="evenodd" clip-rule="evenodd" d="M4.10066 11.167C4.0206 11.167 3.973 11.0776 4.01768 11.0112L7.39302 5.99256C7.43264 5.93363 7.51934 5.93363 7.55897 5.99256L10.9343 11.0112C10.979 11.0776 10.9314 11.167 10.8513 11.167H8.76432C8.7091 11.167 8.66432 11.2118 8.66432 11.267V19.8966C8.66432 19.9519 8.61955 19.9966 8.56432 19.9966H6.38892C6.33369 19.9966 6.28892 19.9519 6.28892 19.8966V11.267C6.28892 11.2118 6.24415 11.167 6.18892 11.167H4.10066Z" fill="url(#paint2_linear_3511_10881)" fill-opacity="0.8"/>
<path d="M10.9343 11.0112L11.3492 10.7322L10.9343 11.0112ZM7.39302 5.99256L6.97812 5.71352L7.39302 5.99256ZM7.55897 5.99256L7.14408 6.2716L7.55897 5.99256ZM6.97812 5.71352L3.60279 10.7322L4.43257 11.2902L7.80791 6.2716L6.97812 5.71352ZM11.3492 10.7322L7.97387 5.71352L7.14408 6.2716L10.5194 11.2902L11.3492 10.7322ZM8.76432 11.667H10.8513V10.667H8.76432V11.667ZM8.16432 11.267V19.8966H9.16432V11.267H8.16432ZM8.56432 19.4966H6.38892V20.4966H8.56432V19.4966ZM6.78892 19.8966V11.267H5.78892V19.8966H6.78892ZM4.10066 11.667H6.18892V10.667H4.10066V11.667ZM6.78892 11.267C6.78892 10.9356 6.52029 10.667 6.18892 10.667V11.667C5.96801 11.667 5.78892 11.4879 5.78892 11.267H6.78892ZM6.38892 19.4966C6.60984 19.4966 6.78892 19.6757 6.78892 19.8966H5.78892C5.78892 20.228 6.05755 20.4966 6.38892 20.4966V19.4966ZM8.16432 19.8966C8.16432 19.6757 8.34341 19.4966 8.56432 19.4966V20.4966C8.8957 20.4966 9.16432 20.228 9.16432 19.8966H8.16432ZM8.76432 10.667C8.43295 10.667 8.16432 10.9356 8.16432 11.267H9.16432C9.16432 11.4879 8.98524 11.667 8.76432 11.667V10.667ZM10.5194 11.2902C10.3407 11.0245 10.5311 10.667 10.8513 10.667V11.667C11.3317 11.667 11.6173 11.1307 11.3492 10.7322L10.5194 11.2902ZM3.60279 10.7322C3.33473 11.1307 3.62033 11.667 4.10066 11.667V10.667C4.42087 10.667 4.61128 11.0245 4.43257 11.2902L3.60279 10.7322ZM7.80791 6.2716C7.6494 6.50728 7.3026 6.50729 7.14408 6.2716L7.97387 5.71352C7.73609 5.35998 7.21589 5.35998 6.97812 5.71352L7.80791 6.2716Z" fill="url(#paint3_linear_3511_10881)" mask="url(#path-4-outside-1_3511_10881)"/>
</g>
<path d="M18.9842 14.3591V6.56573C18.9842 5.77806 18.1606 5.57257 17.7309 5.51896C17.6541 5.50558 17.5689 5.50004 17.4766 5.50004C17.4766 5.50004 17.5792 5.50004 17.7309 5.51896C17.9881 5.5638 18.1503 5.69661 18.1701 6.00344V14.3591H18.9842Z" fill="url(#paint4_linear_3511_10881)"/>
<path d="M17.9793 20.5L16.4717 20.5L20.2829 14.5604H21.9997L17.9793 20.5Z" fill="url(#paint5_linear_3511_10881)"/>
<g filter="url(#filter1_b_3511_10881)">
<mask id="path-8-outside-2_3511_10881" maskUnits="userSpaceOnUse" x="12" y="5.05164" width="9" height="16" fill="black">
<rect fill="white" x="12" y="5.05164" width="9" height="16"/>
<path fill-rule="evenodd" clip-rule="evenodd" d="M13.1002 14.833C13.0201 14.833 12.9725 14.9224 13.0172 14.9888L16.3925 20.0074C16.4322 20.0664 16.5189 20.0664 16.5585 20.0074L19.9338 14.9888C19.9785 14.9224 19.9309 14.833 19.8508 14.833H17.7638C17.7086 14.833 17.6638 14.7882 17.6638 14.733V6.10336C17.6638 6.04813 17.6191 6.00336 17.5638 6.00336H15.3884C15.3332 6.00336 15.2884 6.04813 15.2884 6.10336V14.733C15.2884 14.7882 15.2437 14.833 15.1884 14.833H13.1002Z"/>
</mask>
<path fill-rule="evenodd" clip-rule="evenodd" d="M13.1002 14.833C13.0201 14.833 12.9725 14.9224 13.0172 14.9888L16.3925 20.0074C16.4322 20.0664 16.5189 20.0664 16.5585 20.0074L19.9338 14.9888C19.9785 14.9224 19.9309 14.833 19.8508 14.833H17.7638C17.7086 14.833 17.6638 14.7882 17.6638 14.733V6.10336C17.6638 6.04813 17.6191 6.00336 17.5638 6.00336H15.3884C15.3332 6.00336 15.2884 6.04813 15.2884 6.10336V14.733C15.2884 14.7882 15.2437 14.833 15.1884 14.833H13.1002Z" fill="url(#paint6_linear_3511_10881)" fill-opacity="0.8"/>
<path d="M19.9338 14.9888L20.3487 15.2678L19.9338 14.9888ZM16.3925 20.0074L15.9776 20.2865L16.3925 20.0074ZM16.5585 20.0074L16.1436 19.7284L16.5585 20.0074ZM15.9776 20.2865L12.6023 15.2678L13.4321 14.7098L16.8074 19.7284L15.9776 20.2865ZM20.3487 15.2678L16.9734 20.2865L16.1436 19.7284L19.5189 14.7098L20.3487 15.2678ZM17.7638 14.333H19.8508V15.333H17.7638V14.333ZM17.1638 14.733V6.10336H18.1638V14.733H17.1638ZM17.5638 6.50336H15.3884V5.50336H17.5638V6.50336ZM15.7884 6.10336V14.733H14.7884V6.10336H15.7884ZM13.1002 14.333H15.1884V15.333H13.1002V14.333ZM15.7884 14.733C15.7884 15.0644 15.5198 15.333 15.1884 15.333V14.333C14.9675 14.333 14.7884 14.5121 14.7884 14.733H15.7884ZM15.3884 6.50336C15.6093 6.50336 15.7884 6.32428 15.7884 6.10336H14.7884C14.7884 5.77199 15.0571 5.50336 15.3884 5.50336V6.50336ZM17.1638 6.10336C17.1638 6.32427 17.3429 6.50336 17.5638 6.50336V5.50336C17.8952 5.50336 18.1638 5.77199 18.1638 6.10336H17.1638ZM17.7638 15.333C17.4325 15.333 17.1638 15.0644 17.1638 14.733H18.1638C18.1638 14.5121 17.9848 14.333 17.7638 14.333V15.333ZM19.5189 14.7098C19.3402 14.9755 19.5306 15.333 19.8508 15.333V14.333C20.3312 14.333 20.6168 14.8693 20.3487 15.2678L19.5189 14.7098ZM12.6023 15.2678C12.3342 14.8693 12.6198 14.333 13.1002 14.333V15.333C13.4204 15.333 13.6108 14.9755 13.4321 14.7098L12.6023 15.2678ZM16.8074 19.7284C16.6489 19.4927 16.3021 19.4927 16.1436 19.7284L16.9734 20.2865C16.7356 20.64 16.2154 20.64 15.9776 20.2865L16.8074 19.7284Z" fill="url(#paint7_linear_3511_10881)" mask="url(#path-8-outside-2_3511_10881)"/>
</g>
<defs>
<filter id="filter0_b_3511_10881" x="1.81951" y="3.76836" width="11.3126" height="18.4082" filterUnits="userSpaceOnUse" color-interpolation-filters="sRGB">
<feFlood flood-opacity="0" result="BackgroundImageFix"/>
<feGaussianBlur in="BackgroundImageFix" stdDeviation="0.84"/>
<feComposite in2="SourceAlpha" operator="in" result="effect1_backgroundBlur_3511_10881"/>
<feBlend mode="normal" in="SourceGraphic" in2="effect1_backgroundBlur_3511_10881" result="shape"/>
</filter>
<filter id="filter1_b_3511_10881" x="10.819" y="3.82342" width="11.3126" height="18.4082" filterUnits="userSpaceOnUse" color-interpolation-filters="sRGB">
<feFlood flood-opacity="0" result="BackgroundImageFix"/>
<feGaussianBlur in="BackgroundImageFix" stdDeviation="0.84"/>
<feComposite in2="SourceAlpha" operator="in" result="effect1_backgroundBlur_3511_10881"/>
<feBlend mode="normal" in="SourceGraphic" in2="effect1_backgroundBlur_3511_10881" result="shape"/>
</filter>
<linearGradient id="paint0_linear_3511_10881" x1="8.89373" y1="16.8612" x2="10.0106" y2="16.8525" gradientUnits="userSpaceOnUse">
<stop stop-color="#45CDB8"/>
<stop offset="1" stop-color="#619CDC" stop-opacity="0"/>
</linearGradient>
<linearGradient id="paint1_linear_3511_10881" x1="9" y1="9" x2="10.8402" y2="7.76245" gradientUnits="userSpaceOnUse">
<stop stop-color="#45CDB8"/>
<stop offset="1" stop-color="#619CDC" stop-opacity="0"/>
</linearGradient>
<linearGradient id="paint2_linear_3511_10881" x1="8.51861" y1="4.44319" x2="-0.383336" y2="17.0597" gradientUnits="userSpaceOnUse">
<stop offset="0.00504314" stop-color="#49FFDA"/>
<stop offset="1" stop-color="#5A87DF" stop-opacity="0.86"/>
</linearGradient>
<linearGradient id="paint3_linear_3511_10881" x1="9.18644" y1="7.02913" x2="3.57835" y2="7.84891" gradientUnits="userSpaceOnUse">
<stop stop-color="#ADFFF0"/>
<stop offset="1" stop-color="#E3E6F8"/>
</linearGradient>
<linearGradient id="paint4_linear_3511_10881" x1="17.8932" y1="9.13878" x2="19.0101" y2="9.14754" gradientUnits="userSpaceOnUse">
<stop stop-color="#45CDB8"/>
<stop offset="1" stop-color="#619CDC" stop-opacity="0"/>
</linearGradient>
<linearGradient id="paint5_linear_3511_10881" x1="17.9995" y1="17" x2="19.8398" y2="18.2376" gradientUnits="userSpaceOnUse">
<stop stop-color="#45CDB8"/>
<stop offset="1" stop-color="#619CDC" stop-opacity="0"/>
</linearGradient>
<linearGradient id="paint6_linear_3511_10881" x1="17.5181" y1="21.5568" x2="8.61618" y2="8.94029" gradientUnits="userSpaceOnUse">
<stop offset="0.00504314" stop-color="#49FFDA"/>
<stop offset="1" stop-color="#5A87DF" stop-opacity="0.86"/>
</linearGradient>
<linearGradient id="paint7_linear_3511_10881" x1="18.1859" y1="18.9709" x2="12.5779" y2="18.1511" gradientUnits="userSpaceOnUse">
<stop stop-color="#ADFFF0"/>
<stop offset="1" stop-color="#E3E6F8"/>
</linearGradient>
</defs>
</svg>
