<svg width="26" height="26" viewBox="0 0 26 26" fill="none" xmlns="http://www.w3.org/2000/svg">
<rect width="26" height="26" fill="#F8F8F8" fill-opacity="0.01"/>
<g filter="url(#filter0_b_3511_10857)">
<mask id="path-2-outside-1_3511_10857" maskUnits="userSpaceOnUse" x="2.00006" y="5" width="22.001" height="16" fill="black">
<rect fill="white" x="2.00006" y="5" width="22.001" height="16"/>
<path fill-rule="evenodd" clip-rule="evenodd" d="M3.00097 6.10001C3.00097 6.04478 3.04575 6 3.10098 6H22.9003C22.9555 6 23.0003 6.04477 23.0003 6.09999L23.0003 10.1C23.0003 10.1424 22.9735 10.18 22.9339 10.1951C21.8042 10.6255 21.0015 11.7189 21.0014 12.9998C21.0012 14.2808 21.804 15.3744 22.9339 15.8046C22.9735 15.8197 23.0003 15.8573 23.0003 15.8997L23.0003 19.9C23.0003 19.9552 22.9555 20 22.9003 20H3.10096C3.04574 20 3.00097 19.9552 3.00097 19.9L3.00097 15.9001C3.00097 15.8577 3.02781 15.82 3.06742 15.805C4.19787 15.375 5.00124 14.2814 5.00139 13.0003C5.00154 11.7188 4.19812 10.6251 3.06743 10.1953C3.02781 10.1802 3.00097 10.1426 3.00097 10.1002L3.00097 6.10001Z"/>
</mask>
<path fill-rule="evenodd" clip-rule="evenodd" d="M3.00097 6.10001C3.00097 6.04478 3.04575 6 3.10098 6H22.9003C22.9555 6 23.0003 6.04477 23.0003 6.09999L23.0003 10.1C23.0003 10.1424 22.9735 10.18 22.9339 10.1951C21.8042 10.6255 21.0015 11.7189 21.0014 12.9998C21.0012 14.2808 21.804 15.3744 22.9339 15.8046C22.9735 15.8197 23.0003 15.8573 23.0003 15.8997L23.0003 19.9C23.0003 19.9552 22.9555 20 22.9003 20H3.10096C3.04574 20 3.00097 19.9552 3.00097 19.9L3.00097 15.9001C3.00097 15.8577 3.02781 15.82 3.06742 15.805C4.19787 15.375 5.00124 14.2814 5.00139 13.0003C5.00154 11.7188 4.19812 10.6251 3.06743 10.1953C3.02781 10.1802 3.00097 10.1426 3.00097 10.1002L3.00097 6.10001Z" fill="url(#paint0_linear_3511_10857)" fill-opacity="0.8"/>
<path d="M21.0014 12.9998L21.3014 12.9998L21.3014 12.9998L21.0014 12.9998ZM5.00139 13.0003L5.30139 13.0003L5.00139 13.0003ZM3.06743 10.1953L2.96083 10.4757L3.06743 10.1953ZM3.06742 15.805L3.17406 16.0854H3.17406L3.06742 15.805ZM22.9339 15.8046L22.8271 16.085L22.9339 15.8046ZM23.0003 15.8997L23.3003 15.8997L23.0003 15.8997ZM23.0003 10.1L23.3003 10.1L23.0003 10.1ZM22.9339 10.1951L23.0407 10.4755L22.9339 10.1951ZM23.0003 19.9L23.3003 19.9L23.0003 19.9ZM23.0003 6.09999L23.3003 6.09998L23.0003 6.09999ZM22.9003 5.7H3.10099L3.10096 6.3H22.9003L22.9003 5.7ZM23.3003 10.1L23.3003 6.09998L22.7003 6.10001L22.7003 10.1001L23.3003 10.1ZM22.8271 9.91478C21.585 10.388 20.7016 11.5904 20.7014 12.9997L21.3014 12.9998C21.3015 11.8475 22.0235 10.863 23.0407 10.4755L22.8271 9.91478ZM20.7014 12.9997C20.7012 14.4094 21.5847 15.6119 22.8271 16.085L23.0407 15.5243C22.0233 15.1369 21.3013 14.1523 21.3014 12.9998L20.7014 12.9997ZM23.3003 19.9L23.3003 15.8997L22.7003 15.8997L22.7003 19.9L23.3003 19.9ZM3.10095 20.3H22.9003L22.9003 19.7H3.10098L3.10095 20.3ZM2.70097 15.9001L2.70097 19.9L3.30097 19.9L3.30097 15.9L2.70097 15.9001ZM4.70139 13.0002C4.70125 14.1528 3.97869 15.1374 2.96079 15.5246L3.17406 16.0854C4.41704 15.6126 5.30122 14.4101 5.30139 13.0003L4.70139 13.0002ZM2.96083 10.4757C3.97893 10.8627 4.70153 11.8475 4.70139 13.0002L5.30139 13.0003C5.30156 11.5902 4.41731 10.3874 3.17404 9.91486L2.96083 10.4757ZM2.70097 6.10002L2.70097 10.1002L3.30097 10.1002L3.30097 6.09999L2.70097 6.10002ZM3.17404 9.91486C3.24678 9.94251 3.30097 10.0137 3.30097 10.1002L2.70097 10.1002C2.70097 10.2714 2.80884 10.4179 2.96083 10.4757L3.17404 9.91486ZM3.30097 15.9C3.30097 15.9865 3.24679 16.0577 3.17406 16.0854L2.96079 15.5246C2.80882 15.5824 2.70097 15.7289 2.70097 15.9001L3.30097 15.9ZM3.10098 19.7C3.21143 19.7 3.30097 19.7895 3.30097 19.9L2.70097 19.9C2.70097 20.1209 2.88004 20.3 3.10095 20.3L3.10098 19.7ZM22.8271 16.085C22.7544 16.0573 22.7003 15.9861 22.7003 15.8997L23.3003 15.8997C23.3003 15.7285 23.1925 15.5821 23.0407 15.5243L22.8271 16.085ZM22.7003 10.1001C22.7003 10.0137 22.7544 9.94247 22.8271 9.91478L23.0407 10.4755C23.1926 10.4176 23.3003 10.2712 23.3003 10.1L22.7003 10.1001ZM3.10099 5.7C2.88007 5.7 2.70097 5.8791 2.70097 6.10002L3.30097 6.09999C3.30097 6.21045 3.21142 6.3 3.10096 6.3L3.10099 5.7ZM22.7003 19.9C22.7003 19.7895 22.7899 19.7 22.9003 19.7L22.9003 20.3C23.1212 20.3 23.3003 20.1209 23.3003 19.9L22.7003 19.9ZM22.9003 6.3C22.7898 6.3 22.7003 6.21047 22.7003 6.10001L23.3003 6.09998C23.3003 5.87907 23.1212 5.7 22.9003 5.7L22.9003 6.3Z" fill="url(#paint1_linear_3511_10857)" mask="url(#path-2-outside-1_3511_10857)"/>
</g>
<path d="M6.00098 13H20.001" stroke="white" stroke-opacity="0.3" stroke-width="0.3" stroke-dasharray="1 1"/>
<path d="M10.2137 10.8643L9.56885 10.8643L11.2966 12.92L11.8381 12.569L10.2137 10.8643Z" fill="#A7C2C9"/>
<path d="M17.9978 10.9875L17.1899 10.8645L11.3149 15.9944L12.4843 15.9944L17.9978 10.9875Z" fill="#8EAFB8"/>
<g filter="url(#filter1_i_3511_10857)">
<path d="M9.56726 10.8644L8.02678 12.097L11.3188 16L17.1902 10.8646L15.6666 9.01574L11.293 12.9186L9.56726 10.8644Z" fill="white"/>
</g>
<path d="M17.1901 10.8642L15.6421 9L16.3894 9.15407L18.0179 11.0029L17.1901 10.8642Z" fill="#A7C2C9"/>
<defs>
<filter id="filter0_b_3511_10857" x="1.02117" y="4.01995" width="23.9591" height="17.9601" filterUnits="userSpaceOnUse" color-interpolation-filters="sRGB">
<feFlood flood-opacity="0" result="BackgroundImageFix"/>
<feGaussianBlur in="BackgroundImageFix" stdDeviation="0.84"/>
<feComposite in2="SourceAlpha" operator="in" result="effect1_backgroundBlur_3511_10857"/>
<feBlend mode="normal" in="SourceGraphic" in2="effect1_backgroundBlur_3511_10857" result="shape"/>
</filter>
<filter id="filter1_i_3511_10857" x="7.87004" y="9.01575" width="9.3199" height="7.14107" filterUnits="userSpaceOnUse" color-interpolation-filters="sRGB">
<feFlood flood-opacity="0" result="BackgroundImageFix"/>
<feBlend mode="normal" in="SourceGraphic" in2="BackgroundImageFix" result="shape"/>
<feColorMatrix in="SourceAlpha" type="matrix" values="0 0 0 0 0 0 0 0 0 0 0 0 0 0 0 0 0 0 127 0" result="hardAlpha"/>
<feOffset dx="-0.156816" dy="0.156816"/>
<feGaussianBlur stdDeviation="0.19602"/>
<feComposite in2="hardAlpha" operator="arithmetic" k2="-1" k3="1"/>
<feColorMatrix type="matrix" values="0 0 0 0 0.472083 0 0 0 0 0.498056 0 0 0 0 0.55 0 0 0 0.5 0"/>
<feBlend mode="normal" in2="shape" result="effect1_innerShadow_3511_10857"/>
</filter>
<linearGradient id="paint0_linear_3511_10857" x1="16.001" y1="4.5" x2="11.6579" y2="22.2715" gradientUnits="userSpaceOnUse">
<stop offset="0.00504314" stop-color="#49FFDA"/>
<stop offset="1" stop-color="#5A87DF" stop-opacity="0.86"/>
</linearGradient>
<linearGradient id="paint1_linear_3511_10857" x1="17.9223" y1="7.07705" x2="3.93267" y2="12.9805" gradientUnits="userSpaceOnUse">
<stop stop-color="#ADFFF0"/>
<stop offset="1" stop-color="#E3E6F8"/>
</linearGradient>
</defs>
</svg>
