<svg width="26" height="26" viewBox="0 0 26 26" fill="none" xmlns="http://www.w3.org/2000/svg">
<rect width="26" height="26" transform="matrix(-1 0 0 1 26 0)" fill="#F8F8F8" fill-opacity="0.01"/>
<rect x="4.25" y="4.25" width="17.5" height="17.5" rx="8.75" fill="url(#paint0_linear_3507_2882)" stroke="url(#paint1_linear_3507_2882)" stroke-width="0.5"/>
<path d="M11.8157 19.0849L12.6968 12.7231C12.6988 12.7084 12.7073 12.6954 12.7198 12.6876L13.463 12.2231C13.4775 12.214 13.496 12.2262 13.4934 12.2431L12.503 18.6791C12.501 18.6924 12.4936 18.7044 12.4827 18.7122L11.8943 19.1324C11.8586 19.1579 11.8097 19.1284 11.8157 19.0849Z" fill="url(#paint2_linear_3507_2882)"/>
<path d="M14.2958 11.3033L13 11.875L16.5928 9.01332C16.5977 9.00937 16.6034 9.0064 16.6095 9.00456L18.4379 8.45259C18.4488 8.44928 18.4559 8.46397 18.4464 8.47042L14.3038 11.2989C14.3013 11.3006 14.2986 11.3021 14.2958 11.3033Z" fill="url(#paint3_linear_3507_2882)"/>
<path d="M8.98889 7.00354L7.69682 7.41522C7.64684 7.43115 7.65198 7.50348 7.70371 7.51217L16.5885 9.00539C16.5961 9.00666 16.6038 9.00617 16.6112 9.00395L18.415 8.45947C18.4354 8.45331 18.4333 8.42373 18.4122 8.42055L9.01153 7.00174C9.00395 7.0006 8.9962 7.00121 8.98889 7.00354Z" fill="url(#paint4_linear_3507_2882)" fill-opacity="0.6"/>
<path d="M8.27899 8.43749L7.31421 8.60519C7.27104 8.6127 7.25772 8.66816 7.29277 8.69445L12.6535 12.7154C12.6695 12.7274 12.6913 12.7287 12.7087 12.7186L13.4342 12.2957C13.4653 12.2776 13.4676 12.2335 13.4386 12.2122L8.31718 8.44647C8.3062 8.4384 8.29241 8.43516 8.27899 8.43749Z" fill="url(#paint5_linear_3507_2882)" fill-opacity="0.6"/>
<path fill-rule="evenodd" clip-rule="evenodd" d="M13.0253 11.8195C12.989 11.8472 12.9386 11.8469 12.9027 11.8186L7.58589 7.62542C7.50451 7.56123 7.56251 7.43086 7.66468 7.44833L16.4937 8.9585C16.5798 8.97322 16.6069 9.08351 16.5375 9.13653L13.0253 11.8195Z" fill="#202129"/>
<path fill-rule="evenodd" clip-rule="evenodd" d="M12.6669 12.7C12.6958 12.7218 12.7107 12.7575 12.7058 12.7934L11.8681 18.9107C11.8545 19.0104 11.7186 19.0297 11.6777 18.9378L7.15718 8.78678C7.11519 8.69249 7.22621 8.60413 7.30867 8.66621L12.6669 12.7Z" fill="url(#paint6_linear_3507_2882)"/>
<path fill-rule="evenodd" clip-rule="evenodd" d="M18.8052 8.5731C18.8317 8.55293 18.8675 8.54991 18.897 8.56536C18.9483 8.59225 18.9588 8.66127 18.9178 8.7022L15.9163 11.6938C15.8532 11.7567 15.8978 11.8646 15.9869 11.8646H18.6334C18.7184 11.8646 18.7647 11.9641 18.7098 12.0291L12.0124 19.9645C11.9934 19.9871 11.9654 20 11.936 20H11.7926C11.7097 20 11.6628 19.905 11.7132 19.8392L17.1392 12.7648C17.1896 12.699 17.1427 12.6039 17.0598 12.6039H13.8058C13.71 12.6039 13.669 12.4823 13.7452 12.4244L18.8052 8.5731Z" fill="url(#paint7_linear_3507_2882)"/>
<defs>
<linearGradient id="paint0_linear_3507_2882" x1="11.875" y1="-1.82353" x2="13.4882" y2="24.5484" gradientUnits="userSpaceOnUse">
<stop stop-color="white"/>
<stop offset="1" stop-color="white" stop-opacity="0"/>
</linearGradient>
<linearGradient id="paint1_linear_3507_2882" x1="16.9375" y1="-4.47059" x2="19.1752" y2="21.615" gradientUnits="userSpaceOnUse">
<stop stop-color="white"/>
<stop offset="1" stop-color="white" stop-opacity="0"/>
</linearGradient>
<linearGradient id="paint2_linear_3507_2882" x1="12.3831" y1="20.9999" x2="13.9805" y2="20.9484" gradientUnits="userSpaceOnUse">
<stop stop-color="#35373D" stop-opacity="0"/>
<stop offset="1" stop-color="#696B70"/>
<stop offset="1" stop-color="#797B80"/>
</linearGradient>
<linearGradient id="paint3_linear_3507_2882" x1="14" y1="12.7353" x2="18.0478" y2="12.0224" gradientUnits="userSpaceOnUse">
<stop stop-color="#35373D" stop-opacity="0"/>
<stop offset="1" stop-color="#696B70"/>
<stop offset="1" stop-color="#797B80"/>
</linearGradient>
<linearGradient id="paint4_linear_3507_2882" x1="12.5" y1="6.52206" x2="12.0408" y2="8.44356" gradientUnits="userSpaceOnUse">
<stop stop-color="#35373D" stop-opacity="0"/>
<stop offset="1" stop-color="#565960"/>
</linearGradient>
<linearGradient id="paint5_linear_3507_2882" x1="15.6006" y1="11.3015" x2="12.5386" y2="5.21855" gradientUnits="userSpaceOnUse">
<stop stop-color="#35373D" stop-opacity="0"/>
<stop offset="1" stop-color="#565960"/>
</linearGradient>
<linearGradient id="paint6_linear_3507_2882" x1="10" y1="12.2573" x2="10.9149" y2="19.9145" gradientUnits="userSpaceOnUse">
<stop stop-color="#202129"/>
<stop offset="1" stop-color="#202129" stop-opacity="0.29"/>
</linearGradient>
<linearGradient id="paint7_linear_3507_2882" x1="18.2636" y1="9.46423" x2="13.0807" y2="19.5232" gradientUnits="userSpaceOnUse">
<stop stop-color="white" stop-opacity="0"/>
<stop offset="0.124501" stop-color="#202129"/>
<stop offset="0.328125" stop-color="#202129"/>
<stop offset="0.578781" stop-color="#383944"/>
<stop offset="0.986914" stop-color="#7DF7E9" stop-opacity="0"/>
</linearGradient>
</defs>
</svg>
