<svg width="26" height="26" viewBox="0 0 26 26" fill="none" xmlns="http://www.w3.org/2000/svg">
<rect width="26" height="26" fill="#F8F8F8" fill-opacity="0.01"/>
<path d="M15.9527 3.4447L14.1871 3.62817L13.3052 11.6087L15.1754 11.0457L15.9527 3.4447Z" fill="url(#paint0_linear_3511_10729)"/>
<path d="M15.1672 11.0371L13.2808 11.6115L18.9818 12.6475L19.2087 12.8159L21.0004 12.1812L15.1672 11.0371Z" fill="url(#paint1_linear_3511_10729)"/>
<path d="M10.3613 23.3653L19.1237 12.8322L20.9999 12.1796L12.3075 22.3848L10.3613 23.3653Z" fill="url(#paint2_linear_3511_10729)"/>
<mask id="path-5-inside-1_3511_10729" fill="white">
<path d="M18.8191 12.4481L13.505 11.5129L14.3947 3.8452C14.3987 3.80893 14.3905 3.76994 14.3713 3.73425C14.3521 3.69856 14.323 3.66814 14.2884 3.64767C14.2539 3.62721 14.2158 3.61783 14.18 3.62099C14.1443 3.62414 14.1128 3.63966 14.0906 3.66514L5.32248 13.8246C5.27661 13.8778 5.24903 13.9463 5.24286 14.0223C5.2367 14.0982 5.25219 14.1786 5.28759 14.2543C5.32299 14.33 5.37688 14.398 5.44315 14.4506C5.50942 14.5032 5.58541 14.5383 5.66252 14.5519L10.9767 15.4871L10.087 23.1548C10.083 23.1911 10.0912 23.2301 10.1104 23.2657C10.1296 23.3014 10.1587 23.3319 10.1933 23.3523C10.2278 23.3728 10.2659 23.3822 10.3017 23.379C10.3374 23.3759 10.3688 23.3603 10.3911 23.3349L19.1592 13.1754C19.2051 13.1222 19.2326 13.0537 19.2388 12.9777C19.245 12.9018 19.2295 12.8214 19.1941 12.7457C19.1587 12.67 19.1048 12.602 19.0385 12.5494C18.9723 12.4968 18.8963 12.4617 18.8191 12.4481Z"/>
</mask>
<path d="M18.8191 12.4481L13.505 11.5129L14.3947 3.8452C14.3987 3.80893 14.3905 3.76994 14.3713 3.73425C14.3521 3.69856 14.323 3.66814 14.2884 3.64767C14.2539 3.62721 14.2158 3.61783 14.18 3.62099C14.1443 3.62414 14.1128 3.63966 14.0906 3.66514L5.32248 13.8246C5.27661 13.8778 5.24903 13.9463 5.24286 14.0223C5.2367 14.0982 5.25219 14.1786 5.28759 14.2543C5.32299 14.33 5.37688 14.398 5.44315 14.4506C5.50942 14.5032 5.58541 14.5383 5.66252 14.5519L10.9767 15.4871L10.087 23.1548C10.083 23.1911 10.0912 23.2301 10.1104 23.2657C10.1296 23.3014 10.1587 23.3319 10.1933 23.3523C10.2278 23.3728 10.2659 23.3822 10.3017 23.379C10.3374 23.3759 10.3688 23.3603 10.3911 23.3349L19.1592 13.1754C19.2051 13.1222 19.2326 13.0537 19.2388 12.9777C19.245 12.9018 19.2295 12.8214 19.1941 12.7457C19.1587 12.67 19.1048 12.602 19.0385 12.5494C18.9723 12.4968 18.8963 12.4617 18.8191 12.4481Z" fill="url(#paint3_linear_3511_10729)" fill-opacity="0.8"/>
<path d="M18.8191 12.4481L18.8093 11.9482L18.8091 11.9482L18.8191 12.4481ZM13.505 11.5129L13.0157 11.36L12.9514 11.9137L13.515 12.0128L13.505 11.5129ZM14.3947 3.8452L14.884 3.99813L14.8843 3.99596L14.3947 3.8452ZM14.0906 3.66514L13.6973 3.28801L13.6958 3.28973L14.0906 3.66514ZM5.32248 13.8246L4.92772 13.4492L4.92754 13.4494L5.32248 13.8246ZM5.66252 14.5519L5.67239 15.0518L5.67254 15.0518L5.66252 14.5519ZM10.9767 15.4871L11.466 15.64L11.5303 15.0863L10.9667 14.9872L10.9767 15.4871ZM10.087 23.1548L9.59766 23.0019L9.59742 23.004L10.087 23.1548ZM10.3911 23.3349L10.7844 23.712L10.7859 23.7103L10.3911 23.3349ZM19.1592 13.1754L19.554 13.5508L19.5541 13.5506L19.1592 13.1754ZM18.8091 11.9482L13.495 11.013L13.515 12.0128L18.8292 12.948L18.8091 11.9482ZM13.9943 11.6659L14.884 3.99813L13.9054 3.69228L13.0157 11.36L13.9943 11.6659ZM14.8843 3.99596C14.9002 3.85256 14.8677 3.69865 14.7921 3.55813L13.9505 3.91037C13.9133 3.84123 13.8972 3.76529 13.9051 3.69445L14.8843 3.99596ZM14.7921 3.55813C14.7166 3.41769 14.6024 3.2988 14.4679 3.21913L14.109 4.07621C14.0436 4.03747 13.9877 3.97943 13.9505 3.91037L14.7921 3.55813ZM14.4679 3.21913C14.3334 3.13949 14.1854 3.1031 14.0465 3.11536L14.3136 4.12661C14.2462 4.13256 14.1744 4.11492 14.109 4.07621L14.4679 3.21913ZM14.0465 3.11536C13.9075 3.12763 13.7847 3.18799 13.6973 3.28802L14.4839 4.04226C14.441 4.09133 14.381 4.12066 14.3136 4.12661L14.0465 3.11536ZM13.6958 3.28973L4.92772 13.4492L5.71724 14.2L14.4853 4.04056L13.6958 3.28973ZM4.92754 13.4494C4.82656 13.5666 4.76557 13.7177 4.75193 13.8857L5.7338 14.1589C5.73249 14.175 5.72666 14.1891 5.71741 14.1998L4.92754 13.4494ZM4.75193 13.8857C4.73829 14.0537 4.7726 14.2313 4.85072 14.3984L5.72447 14.1102C5.73179 14.1258 5.73511 14.1427 5.7338 14.1589L4.75193 13.8857ZM4.85072 14.3984C4.92882 14.5655 5.04744 14.7149 5.19267 14.8302L5.69363 14.071C5.70632 14.0811 5.71716 14.0946 5.72447 14.1102L4.85072 14.3984ZM5.19267 14.8302C5.33786 14.9455 5.50403 15.0221 5.67239 15.0518L5.65265 14.052C5.6668 14.0545 5.68098 14.061 5.69363 14.071L5.19267 14.8302ZM5.67254 15.0518L10.9867 15.987L10.9667 14.9872L5.65251 14.052L5.67254 15.0518ZM10.4874 15.3341L9.59766 23.0019L10.5763 23.3077L11.466 15.64L10.4874 15.3341ZM9.59742 23.004C9.58145 23.1474 9.61397 23.3014 9.68956 23.4419L10.5312 23.0896C10.5684 23.1588 10.5845 23.2347 10.5766 23.3056L9.59742 23.004ZM9.68956 23.4419C9.76511 23.5823 9.87925 23.7012 10.0138 23.7809L10.3727 22.9238C10.4381 22.9625 10.494 23.0206 10.5312 23.0896L9.68956 23.4419ZM10.0138 23.7809C10.1483 23.8605 10.2963 23.8969 10.4352 23.8846L10.1681 22.8734C10.2355 22.8674 10.3073 22.8851 10.3727 22.9238L10.0138 23.7809ZM10.4352 23.8846C10.5741 23.8724 10.697 23.812 10.7844 23.712L9.99781 22.9577C10.0407 22.9087 10.1007 22.8793 10.1681 22.8734L10.4352 23.8846ZM10.7859 23.7103L19.554 13.5508L18.7644 12.8L9.99633 22.9594L10.7859 23.7103ZM19.5541 13.5506C19.6551 13.4334 19.7161 13.2823 19.7297 13.1143L18.7479 12.8411C18.7492 12.8251 18.755 12.8109 18.7643 12.8002L19.5541 13.5506ZM19.7297 13.1143C19.7434 12.9464 19.7091 12.7687 19.631 12.6016L18.7572 12.8898C18.7499 12.8742 18.7466 12.8572 18.7479 12.8411L19.7297 13.1143ZM19.631 12.6016C19.5528 12.4345 19.4342 12.2851 19.289 12.1698L18.788 12.929C18.7754 12.9189 18.7645 12.9054 18.7572 12.8898L19.631 12.6016ZM19.289 12.1698C19.1438 12.0545 18.9776 11.9779 18.8093 11.9482L18.829 12.948C18.8149 12.9455 18.8007 12.939 18.788 12.929L19.289 12.1698Z" fill="url(#paint4_linear_3511_10729)" mask="url(#path-5-inside-1_3511_10729)"/>
<defs>
<linearGradient id="paint0_linear_3511_10729" x1="13" y1="7.5" x2="15.5" y2="8" gradientUnits="userSpaceOnUse">
<stop stop-color="#45CDB8"/>
<stop offset="1" stop-color="#436E9D" stop-opacity="0"/>
</linearGradient>
<linearGradient id="paint1_linear_3511_10729" x1="19" y1="13" x2="19.1168" y2="11.3659" gradientUnits="userSpaceOnUse">
<stop stop-color="#45CDB8"/>
<stop offset="1" stop-color="#436E9D" stop-opacity="0"/>
</linearGradient>
<linearGradient id="paint2_linear_3511_10729" x1="11.1442" y1="16.3657" x2="15.1822" y2="20.0127" gradientUnits="userSpaceOnUse">
<stop stop-color="#45CDB8"/>
<stop offset="1" stop-color="#436E9D" stop-opacity="0"/>
</linearGradient>
<linearGradient id="paint3_linear_3511_10729" x1="14.8908" y1="6.16456" x2="2.69048" y2="18.423" gradientUnits="userSpaceOnUse">
<stop offset="0.00504314" stop-color="#49FFDA"/>
<stop offset="0.670678" stop-color="#4449B3" stop-opacity="0.86"/>
<stop offset="0.936631" stop-color="#282931" stop-opacity="0.83"/>
</linearGradient>
<linearGradient id="paint4_linear_3511_10729" x1="12.0304" y1="2.9929" x2="2.41931" y2="13.5316" gradientUnits="userSpaceOnUse">
<stop stop-color="#7BFFE7"/>
<stop offset="1" stop-color="#34374A"/>
</linearGradient>
</defs>
</svg>
