<svg width="26" height="26" viewBox="0 0 26 26" fill="none" xmlns="http://www.w3.org/2000/svg">
<rect width="26" height="26" fill="#EFEFEF" fill-opacity="0.01"/>
<path d="M10.0129 11.7V19.4414C10.0129 20.2238 9.19707 20.428 8.77141 20.4812C8.69541 20.4945 8.61103 20.5 8.51953 20.5C8.51953 20.5 8.62117 20.5 8.77141 20.4812C9.02617 20.4367 9.18684 20.3047 9.20647 20V11.7H10.0129Z" fill="url(#paint0_linear_3507_2893)"/>
<path d="M9.01776 5.5H7.52441L11.5067 11.5H13L9.01776 5.5Z" fill="url(#paint1_linear_3507_2893)"/>
<mask id="path-4-outside-1_3507_2893" maskUnits="userSpaceOnUse" x="3" y="4.96753" width="9" height="16" fill="black">
<rect fill="white" x="3" y="4.96753" width="9" height="16"/>
<path fill-rule="evenodd" clip-rule="evenodd" d="M4.001 11.2293C4.0002 11.2293 3.99973 11.2284 4.00017 11.2277L7.52764 5.96797C7.52803 5.96738 7.5289 5.96738 7.5293 5.96797L11.0568 11.2277C11.0572 11.2284 11.0567 11.2293 11.0559 11.2293H8.70643C8.70588 11.2293 8.70543 11.2297 8.70543 11.2303V19.999C8.70543 19.9996 8.70498 20 8.70443 20H6.35354C6.35299 20 6.35254 19.9996 6.35254 19.999V11.2303C6.35254 11.2297 6.35209 11.2293 6.35154 11.2293H4.001Z"/>
</mask>
<path fill-rule="evenodd" clip-rule="evenodd" d="M4.001 11.2293C4.0002 11.2293 3.99973 11.2284 4.00017 11.2277L7.52764 5.96797C7.52803 5.96738 7.5289 5.96738 7.5293 5.96797L11.0568 11.2277C11.0572 11.2284 11.0567 11.2293 11.0559 11.2293H8.70643C8.70588 11.2293 8.70543 11.2297 8.70543 11.2303V19.999C8.70543 19.9996 8.70498 20 8.70443 20H6.35354C6.35299 20 6.35254 19.9996 6.35254 19.999V11.2303C6.35254 11.2297 6.35209 11.2293 6.35154 11.2293H4.001Z" fill="url(#paint2_linear_3507_2893)"/>
<path d="M11.0568 11.2277L10.6415 11.5062L11.0568 11.2277ZM4.00017 11.2277L4.41543 11.5062L4.00017 11.2277ZM7.52764 5.96797L7.11238 5.68948L7.52764 5.96797ZM7.5293 5.96797L7.94456 5.68948L7.5293 5.96797ZM7.11238 5.68948L3.58491 10.9492L4.41543 11.5062L7.94289 6.24647L7.11238 5.68948ZM11.472 10.9492L7.94456 5.68948L7.11404 6.24647L10.6415 11.5062L11.472 10.9492ZM8.70643 11.7293H11.0559V10.7293H8.70643V11.7293ZM8.20543 11.2303V19.999H9.20543V11.2303H8.20543ZM8.70443 19.5H6.35354V20.5H8.70443V19.5ZM6.85254 19.999V11.2303H5.85254V19.999H6.85254ZM4.001 11.7293H6.35154V10.7293H4.001V11.7293ZM6.85254 11.2303C6.85254 10.954 6.6287 10.7293 6.35154 10.7293V11.7293C6.07548 11.7293 5.85254 11.5054 5.85254 11.2303H6.85254ZM6.35354 19.5C6.62917 19.5 6.85254 19.7235 6.85254 19.999H5.85254C5.85254 20.2757 6.0768 20.5 6.35354 20.5V19.5ZM8.20543 19.999C8.20543 19.7238 8.42845 19.5 8.70443 19.5V20.5C8.98152 20.5 9.20543 20.2753 9.20543 19.999H8.20543ZM8.70643 10.7293C8.42974 10.7293 8.20543 10.9536 8.20543 11.2303H9.20543C9.20543 11.5059 8.98202 11.7293 8.70643 11.7293V10.7293ZM10.6415 11.5062C10.4192 11.1747 10.6567 10.7293 11.0559 10.7293V11.7293C11.4568 11.7293 11.6952 11.282 11.472 10.9492L10.6415 11.5062ZM3.58491 10.9492C3.36173 11.282 3.60015 11.7293 4.001 11.7293V10.7293C4.40025 10.7293 4.63772 11.1747 4.41543 11.5062L3.58491 10.9492ZM7.94289 6.24647C7.74522 6.54122 7.31171 6.54121 7.11404 6.24647L7.94456 5.68948C7.74609 5.39355 7.31085 5.39354 7.11238 5.68948L7.94289 6.24647Z" fill="url(#paint3_linear_3507_2893)" mask="url(#path-4-outside-1_3507_2893)"/>
<path d="M19.0129 14.3V6.55859C19.0129 5.77617 18.1971 5.57205 17.7714 5.5188C17.6954 5.50551 17.611 5.5 17.5195 5.5C17.5195 5.5 17.6212 5.5 17.7714 5.5188C18.0262 5.56333 18.1868 5.69527 18.2065 6.00005V14.3H19.0129Z" fill="url(#paint4_linear_3507_2893)"/>
<path d="M18.0178 20.5H16.5244L20.5067 14.5H22L18.0178 20.5Z" fill="url(#paint5_linear_3507_2893)"/>
<mask id="path-8-outside-2_3507_2893" maskUnits="userSpaceOnUse" x="12" y="5.03247" width="9" height="16" fill="black">
<rect fill="white" x="12" y="5.03247" width="9" height="16"/>
<path fill-rule="evenodd" clip-rule="evenodd" d="M13.001 14.7707C13.0002 14.7707 12.9997 14.7716 13.0002 14.7723L16.5276 20.032C16.528 20.0326 16.5289 20.0326 16.5293 20.032L20.0568 14.7723C20.0572 14.7716 20.0567 14.7707 20.0559 14.7707H17.7064C17.7059 14.7707 17.7054 14.7703 17.7054 14.7697V6.00098C17.7054 6.00043 17.705 5.99998 17.7044 5.99998H15.3535C15.353 5.99998 15.3525 6.00043 15.3525 6.00098V14.7697C15.3525 14.7703 15.3521 14.7707 15.3515 14.7707H13.001Z"/>
</mask>
<path fill-rule="evenodd" clip-rule="evenodd" d="M13.001 14.7707C13.0002 14.7707 12.9997 14.7716 13.0002 14.7723L16.5276 20.032C16.528 20.0326 16.5289 20.0326 16.5293 20.032L20.0568 14.7723C20.0572 14.7716 20.0567 14.7707 20.0559 14.7707H17.7064C17.7059 14.7707 17.7054 14.7703 17.7054 14.7697V6.00098C17.7054 6.00043 17.705 5.99998 17.7044 5.99998H15.3535C15.353 5.99998 15.3525 6.00043 15.3525 6.00098V14.7697C15.3525 14.7703 15.3521 14.7707 15.3515 14.7707H13.001Z" fill="url(#paint6_linear_3507_2893)"/>
<path d="M20.0568 14.7723L19.6415 14.4938L20.0568 14.7723ZM13.0002 14.7723L13.4154 14.4938L13.0002 14.7723ZM16.5276 20.032L16.1124 20.3105L16.5276 20.032ZM16.5293 20.032L16.9446 20.3105L16.5293 20.032ZM16.1124 20.3105L12.5849 15.0508L13.4154 14.4938L16.9429 19.7535L16.1124 20.3105ZM20.472 15.0508L16.9446 20.3105L16.114 19.7535L19.6415 14.4938L20.472 15.0508ZM17.7064 14.2707H20.0559V15.2707H17.7064V14.2707ZM17.2054 14.7697V6.00098H18.2054V14.7697H17.2054ZM17.7044 6.49998H15.3535V5.49998H17.7044V6.49998ZM15.8525 6.00098V14.7697H14.8525V6.00098H15.8525ZM13.001 14.2707H15.3515V15.2707H13.001V14.2707ZM15.8525 14.7697C15.8525 15.046 15.6287 15.2707 15.3515 15.2707V14.2707C15.0755 14.2707 14.8525 14.4946 14.8525 14.7697H15.8525ZM15.3535 6.49998C15.6292 6.49998 15.8525 6.27653 15.8525 6.00098H14.8525C14.8525 5.72433 15.0768 5.49998 15.3535 5.49998V6.49998ZM17.2054 6.00098C17.2054 6.27618 17.4285 6.49998 17.7044 6.49998V5.49998C17.9815 5.49998 18.2054 5.72467 18.2054 6.00098H17.2054ZM17.7064 15.2707C17.4297 15.2707 17.2054 15.0464 17.2054 14.7697H18.2054C18.2054 14.4941 17.982 14.2707 17.7064 14.2707V15.2707ZM19.6415 14.4938C19.4192 14.8253 19.6567 15.2707 20.0559 15.2707V14.2707C20.4568 14.2707 20.6952 14.718 20.472 15.0508L19.6415 14.4938ZM12.5849 15.0508C12.3617 14.718 12.6002 14.2707 13.001 14.2707V15.2707C13.4003 15.2707 13.6377 14.8253 13.4154 14.4938L12.5849 15.0508ZM16.9429 19.7535C16.7452 19.4588 16.3117 19.4588 16.114 19.7535L16.9446 20.3105C16.7461 20.6065 16.3108 20.6065 16.1124 20.3105L16.9429 19.7535Z" fill="url(#paint7_linear_3507_2893)" mask="url(#path-8-outside-2_3507_2893)"/>
<defs>
<linearGradient id="paint0_linear_3507_2893" x1="7.52396" y1="16.5" x2="10.0129" y2="16.5" gradientUnits="userSpaceOnUse">
<stop stop-color="white" stop-opacity="0.51"/>
<stop offset="1" stop-color="white" stop-opacity="0"/>
</linearGradient>
<linearGradient id="paint1_linear_3507_2893" x1="8.74378" y1="8.6283" x2="10.8113" y2="7.60869" gradientUnits="userSpaceOnUse">
<stop stop-color="white" stop-opacity="0.51"/>
<stop offset="1" stop-color="white" stop-opacity="0"/>
</linearGradient>
<linearGradient id="paint2_linear_3507_2893" x1="7.52855" y1="0.225623" x2="9.61414" y2="21.8196" gradientUnits="userSpaceOnUse">
<stop stop-color="white"/>
<stop offset="1" stop-color="white" stop-opacity="0"/>
</linearGradient>
<linearGradient id="paint3_linear_3507_2893" x1="11.5555" y1="10.4739" x2="5.65946" y2="19.8572" gradientUnits="userSpaceOnUse">
<stop stop-color="white"/>
<stop offset="1" stop-color="white" stop-opacity="0"/>
</linearGradient>
<linearGradient id="paint4_linear_3507_2893" x1="16.524" y1="9.5" x2="19.0129" y2="9.5" gradientUnits="userSpaceOnUse">
<stop stop-color="white" stop-opacity="0.51"/>
<stop offset="1" stop-color="white" stop-opacity="0"/>
</linearGradient>
<linearGradient id="paint5_linear_3507_2893" x1="17.7438" y1="17.3717" x2="19.8113" y2="18.3913" gradientUnits="userSpaceOnUse">
<stop stop-color="white" stop-opacity="0.51"/>
<stop offset="1" stop-color="white" stop-opacity="0"/>
</linearGradient>
<linearGradient id="paint6_linear_3507_2893" x1="16.5285" y1="25.7744" x2="18.6141" y2="4.18037" gradientUnits="userSpaceOnUse">
<stop stop-color="white"/>
<stop offset="1" stop-color="white" stop-opacity="0"/>
</linearGradient>
<linearGradient id="paint7_linear_3507_2893" x1="20.5555" y1="15.5261" x2="14.6595" y2="6.14281" gradientUnits="userSpaceOnUse">
<stop stop-color="white"/>
<stop offset="1" stop-color="white" stop-opacity="0"/>
</linearGradient>
</defs>
</svg>
