<svg width="26" height="26" viewBox="0 0 26 26" fill="none" xmlns="http://www.w3.org/2000/svg">
<rect width="26" height="26" fill="#F8F8F8" fill-opacity="0.01"/>
<g filter="url(#filter0_b_3511_10755)">
<mask id="path-2-inside-1_3511_10755" fill="white">
<path fill-rule="evenodd" clip-rule="evenodd" d="M2.99999 6.20001C2.99999 6.08955 3.08954 6 3.2 6H22.7993C22.9098 6 22.9993 6.08954 22.9993 6.19999L22.9993 10.0294C22.9993 10.1141 22.9456 10.189 22.8672 10.2211C21.7722 10.6683 21.0006 11.7439 21.0004 12.9998C21.0003 14.2559 21.772 15.3317 22.8672 15.7787C22.9456 15.8107 22.9993 15.8857 22.9993 15.9704L22.9993 19.8C22.9993 19.9104 22.9098 20 22.7993 20H3.19998C3.08952 20 2.99999 19.9105 2.99999 19.8L2.99999 15.9708C2.99999 15.886 3.05373 15.8111 3.13223 15.779C4.22793 15.3323 5.00026 14.2564 5.00041 13.0003C5.00056 11.7438 4.22818 10.6678 3.13225 10.2212C3.05374 10.1892 2.99999 10.1142 2.99999 10.0295L2.99999 6.20001Z"/>
</mask>
<path fill-rule="evenodd" clip-rule="evenodd" d="M2.99999 6.20001C2.99999 6.08955 3.08954 6 3.2 6H22.7993C22.9098 6 22.9993 6.08954 22.9993 6.19999L22.9993 10.0294C22.9993 10.1141 22.9456 10.189 22.8672 10.2211C21.7722 10.6683 21.0006 11.7439 21.0004 12.9998C21.0003 14.2559 21.772 15.3317 22.8672 15.7787C22.9456 15.8107 22.9993 15.8857 22.9993 15.9704L22.9993 19.8C22.9993 19.9104 22.9098 20 22.7993 20H3.19998C3.08952 20 2.99999 19.9105 2.99999 19.8L2.99999 15.9708C2.99999 15.886 3.05373 15.8111 3.13223 15.779C4.22793 15.3323 5.00026 14.2564 5.00041 13.0003C5.00056 11.7438 4.22818 10.6678 3.13225 10.2212C3.05374 10.1892 2.99999 10.1142 2.99999 10.0295L2.99999 6.20001Z" fill="url(#paint0_linear_3511_10755)" fill-opacity="0.8"/>
<path d="M21.0004 12.9998L21.5004 12.9998L21.5004 12.9998L21.0004 12.9998ZM5.00041 13.0003L5.50041 13.0003L5.00041 13.0003ZM3.13225 10.2212L3.32097 9.75817L3.13225 10.2212ZM3.13223 15.779L3.32099 16.242L3.13223 15.779ZM22.8672 15.7787L22.6782 16.2416L22.8672 15.7787ZM22.9993 15.9704L22.4993 15.9704L22.9993 15.9704ZM22.9993 10.0294L22.4993 10.0294L22.9993 10.0294ZM22.8672 10.2211L23.0562 10.6839L22.8672 10.2211ZM22.9993 6.19999L23.4993 6.19996L22.9993 6.19999ZM22.7994 5.5H3.20003L3.19997 6.5H22.7993L22.7994 5.5ZM23.4993 10.0293L23.4993 6.19996L22.4993 6.20002L22.4993 10.0294L23.4993 10.0293ZM22.6782 9.75818C21.4017 10.2795 20.5006 11.5338 20.5004 12.9997L21.5004 12.9998C21.5005 11.954 22.1428 11.057 23.0562 10.6839L22.6782 9.75818ZM20.5004 12.9997C20.5002 14.4659 21.4014 15.7205 22.6782 16.2416L23.0562 15.3158C22.1426 14.9429 21.5003 14.0458 21.5004 12.9998L20.5004 12.9997ZM23.4993 19.8L23.4993 15.9704L22.4993 15.9704L22.4993 19.8L23.4993 19.8ZM3.19995 20.5H22.7993L22.7993 19.5H3.20001L3.19995 20.5ZM2.49999 15.9708L2.49999 19.8L3.49999 19.8L3.49999 15.9708L2.49999 15.9708ZM4.50041 13.0002C4.50028 14.0462 3.85751 14.9433 2.94347 15.3161L3.32099 16.242C4.59835 15.7212 5.50023 14.4666 5.50041 13.0003L4.50041 13.0002ZM2.94353 10.6842C3.85774 11.0568 4.50053 11.954 4.50041 13.0002L5.50041 13.0003C5.50058 11.5336 4.59863 10.2788 3.32097 9.75817L2.94353 10.6842ZM2.49999 6.20004L2.49999 10.0295L3.49999 10.0294L3.49999 6.19998L2.49999 6.20004ZM3.32097 9.75817C3.4178 9.79763 3.49999 9.89737 3.49999 10.0294L2.49999 10.0295C2.49999 10.3311 2.68969 10.5808 2.94353 10.6842L3.32097 9.75817ZM3.49999 15.9708C3.49999 16.1028 3.41781 16.2026 3.32099 16.242L2.94347 15.3161C2.68965 15.4195 2.49999 15.6692 2.49999 15.9708L3.49999 15.9708ZM3.20001 19.5C3.36568 19.5 3.49999 19.6343 3.49999 19.8L2.49999 19.8C2.49999 20.1866 2.81336 20.5 3.19995 20.5L3.20001 19.5ZM22.6782 16.2416C22.5814 16.2021 22.4993 16.1024 22.4993 15.9704L23.4993 15.9704C23.4993 15.6689 23.3098 15.4193 23.0562 15.3158L22.6782 16.2416ZM22.4993 10.0294C22.4993 9.89741 22.5814 9.79769 22.6782 9.75818L23.0562 10.6839C23.3098 10.5804 23.4993 10.3308 23.4993 10.0293L22.4993 10.0294ZM3.20003 5.5C2.81341 5.5 2.49999 5.81343 2.49999 6.20004L3.49999 6.19998C3.49999 6.36567 3.36566 6.5 3.19997 6.5L3.20003 5.5ZM22.4993 19.8C22.4993 19.6343 22.6337 19.5 22.7993 19.5L22.7993 20.5C23.1859 20.5 23.4993 20.1866 23.4993 19.8L22.4993 19.8ZM22.7993 6.5C22.6336 6.5 22.4993 6.3657 22.4993 6.20002L23.4993 6.19996C23.4993 5.81337 23.1859 5.5 22.7994 5.5L22.7993 6.5Z" fill="url(#paint1_linear_3511_10755)" mask="url(#path-2-inside-1_3511_10755)"/>
</g>
<path d="M6 13H20" stroke="#31333A" stroke-opacity="0.3" stroke-width="0.3" stroke-dasharray="1 1"/>
<path d="M10.2128 10.8643L9.56787 10.8643L11.2956 12.92L11.8371 12.569L10.2128 10.8643Z" fill="#A4A6A9"/>
<path d="M17.9969 10.9875L17.189 10.8645L11.314 15.9944L12.4834 15.9944L17.9969 10.9875Z" fill="#A4A6A9"/>
<g filter="url(#filter1_i_3511_10755)">
<path d="M9.56628 10.8644L8.0258 12.097L11.3179 16L17.1892 10.8646L15.6656 9.01574L11.2921 12.9186L9.56628 10.8644Z" fill="white"/>
</g>
<path d="M17.1891 10.8642L15.6411 9L16.3885 9.15407L18.0169 11.0029L17.1891 10.8642Z" fill="#A4A6A9"/>
<defs>
<filter id="filter0_b_3511_10755" x="1.32" y="4.32" width="23.3595" height="17.36" filterUnits="userSpaceOnUse" color-interpolation-filters="sRGB">
<feFlood flood-opacity="0" result="BackgroundImageFix"/>
<feGaussianBlur in="BackgroundImageFix" stdDeviation="0.84"/>
<feComposite in2="SourceAlpha" operator="in" result="effect1_backgroundBlur_3511_10755"/>
<feBlend mode="normal" in="SourceGraphic" in2="effect1_backgroundBlur_3511_10755" result="shape"/>
</filter>
<filter id="filter1_i_3511_10755" x="7.86906" y="9.01575" width="9.3199" height="7.14107" filterUnits="userSpaceOnUse" color-interpolation-filters="sRGB">
<feFlood flood-opacity="0" result="BackgroundImageFix"/>
<feBlend mode="normal" in="SourceGraphic" in2="BackgroundImageFix" result="shape"/>
<feColorMatrix in="SourceAlpha" type="matrix" values="0 0 0 0 0 0 0 0 0 0 0 0 0 0 0 0 0 0 127 0" result="hardAlpha"/>
<feOffset dx="-0.156816" dy="0.156816"/>
<feGaussianBlur stdDeviation="0.19602"/>
<feComposite in2="hardAlpha" operator="arithmetic" k2="-1" k3="1"/>
<feColorMatrix type="matrix" values="0 0 0 0 0.472083 0 0 0 0 0.498056 0 0 0 0 0.55 0 0 0 0.5 0"/>
<feBlend mode="normal" in2="shape" result="effect1_innerShadow_3511_10755"/>
</filter>
<linearGradient id="paint0_linear_3511_10755" x1="16" y1="4.5" x2="11.6569" y2="22.2715" gradientUnits="userSpaceOnUse">
<stop offset="0.00504314" stop-color="#49FFDA"/>
<stop offset="1" stop-color="#4449B3" stop-opacity="0.86"/>
</linearGradient>
<linearGradient id="paint1_linear_3511_10755" x1="13" y1="5.83279" x2="11.6352" y2="21.7263" gradientUnits="userSpaceOnUse">
<stop stop-color="#7BFFE7"/>
<stop offset="1" stop-color="#34374A"/>
</linearGradient>
</defs>
</svg>
