<svg width="194" height="62" viewBox="0 0 194 62" fill="none" xmlns="http://www.w3.org/2000/svg">
<g opacity="0.5">
<mask id="path-1-inside-1_2137_6254" fill="white">
<path fill-rule="evenodd" clip-rule="evenodd" d="M37.6466 40.1286C38.0553 39.8971 38.5324 39.8168 38.9944 39.9018L62.236 44.1784C62.7769 44.2779 63.3349 44.1503 63.7788 43.8256L118.073 4.10714C118.774 3.59454 119.726 3.59256 120.428 4.10224L161.248 33.7036C162.3 34.4666 162.357 36.0147 161.363 36.8522L138.259 56.319C126.161 48.3297 114.064 40.3407 101.966 32.3514C101.966 32.3514 90.7324 38.6286 77.7713 46.0472L101.966 32.3514C135.661 54.6034 138.259 56.319 138.259 56.319L168.144 40.4203C168.879 40.0292 169.78 40.1345 170.405 40.6848L190.023 57.9538C191.407 59.1721 190.545 61.455 188.701 61.455H7.58819C5.5333 61.455 4.81445 58.7277 6.60239 57.7148L37.6466 40.1286Z"/>
</mask>
<path fill-rule="evenodd" clip-rule="evenodd" d="M37.6466 40.1286C38.0553 39.8971 38.5324 39.8168 38.9944 39.9018L62.236 44.1784C62.7769 44.2779 63.3349 44.1503 63.7788 43.8256L118.073 4.10714C118.774 3.59454 119.726 3.59256 120.428 4.10224L161.248 33.7036C162.3 34.4666 162.357 36.0147 161.363 36.8522L138.259 56.319C126.161 48.3297 114.064 40.3407 101.966 32.3514C101.966 32.3514 90.7324 38.6286 77.7713 46.0472L101.966 32.3514C135.661 54.6034 138.259 56.319 138.259 56.319L168.144 40.4203C168.879 40.0292 169.78 40.1345 170.405 40.6848L190.023 57.9538C191.407 59.1721 190.545 61.455 188.701 61.455H7.58819C5.5333 61.455 4.81445 58.7277 6.60239 57.7148L37.6466 40.1286Z" fill="#4C54FF" fill-opacity="0.1"/>
<path d="M138.259 56.319L120.625 83.0216C130.407 89.4818 142.939 90.0759 153.288 84.5699L138.259 56.319ZM101.966 32.3514L119.601 5.64876C109.62 -0.942095 96.7979 -1.41737 86.3572 4.41658L101.966 32.3514ZM77.7713 46.0472L61.8751 18.2747C46.5627 27.0391 41.2331 46.5437 49.961 61.8771C58.6889 77.2104 78.1807 82.5864 93.5348 73.8952L77.7713 46.0472ZM6.60239 57.7148L-9.17026 29.872L6.60239 57.7148ZM190.023 57.9538L168.879 81.9733L190.023 57.9538ZM161.248 33.7036L142.462 59.609L161.248 33.7036ZM161.363 36.8522L181.982 61.3235V61.3235L161.363 36.8522ZM168.144 40.4203L153.115 12.1693L168.144 40.4203ZM170.405 40.6848L191.549 16.6652L170.405 40.6848ZM118.073 4.10714L99.18 -21.72L118.073 4.10714ZM120.428 4.10224L139.214 -21.8031L120.428 4.10224ZM62.236 44.1784L56.4451 75.65L62.236 44.1784ZM63.7788 43.8256L82.6722 69.6527L63.7788 43.8256ZM38.9944 39.9018L44.7853 8.43016L38.9944 39.9018ZM37.6466 40.1286L53.4193 67.9715L37.6466 40.1286ZM33.2034 71.3735L56.4451 75.65L68.0269 12.7067L44.7853 8.43016L33.2034 71.3735ZM82.6722 69.6527L136.967 29.9342L99.18 -21.72L44.8853 17.9985L82.6722 69.6527ZM101.642 30.0076L142.462 59.609L180.034 7.79823L139.214 -21.8031L101.642 30.0076ZM140.743 12.3808L117.64 31.8477L158.878 80.7903L181.982 61.3235L140.743 12.3808ZM155.893 29.6163C149.845 25.6217 143.796 21.6271 137.747 17.6325C131.698 13.638 125.65 9.6434 119.601 5.64876L84.3321 59.0541C90.3809 63.0487 96.4297 67.0433 102.478 71.0378C108.527 75.0324 114.576 79.027 120.625 83.0216L155.893 29.6163ZM101.966 32.3514C86.3572 4.41658 86.357 4.4167 86.3568 4.41683C86.3566 4.41691 86.3563 4.41708 86.3561 4.41723C86.3555 4.41755 86.3548 4.41795 86.3539 4.41846C86.3521 4.41947 86.3496 4.42086 86.3464 4.42263C86.3401 4.42616 86.331 4.43122 86.3193 4.43777C86.2959 4.45087 86.2617 4.46996 86.2172 4.49488C86.1281 4.54472 85.9973 4.61788 85.8272 4.71311C85.4869 4.90357 84.9893 5.18236 84.3528 5.53941C83.0799 6.25343 81.2508 7.28104 79.0145 8.54175C74.5453 11.0613 68.4331 14.5211 61.8751 18.2747L93.6675 73.8197C100.071 70.1547 106.056 66.7666 110.444 64.2929C112.636 63.057 114.426 62.0516 115.664 61.3569C116.284 61.0095 116.765 60.7399 117.09 60.5581C117.252 60.4672 117.375 60.3983 117.457 60.3526C117.498 60.3297 117.528 60.3126 117.548 60.3015C117.558 60.296 117.565 60.2919 117.57 60.2893C117.572 60.2881 117.574 60.2872 117.575 60.2867C117.575 60.2864 117.576 60.2862 117.576 60.2862C117.576 60.2861 117.576 60.2861 117.576 60.2861C117.576 60.2862 117.576 60.2862 101.966 32.3514ZM84.3321 59.0541C101.18 70.18 110.253 76.1719 115.114 79.3823C117.545 80.9875 118.922 81.8973 119.692 82.4059C120.077 82.6601 120.31 82.814 120.447 82.9044C120.516 82.9496 120.56 82.9789 120.587 82.9969C120.601 83.0059 120.61 83.0121 120.616 83.016C120.619 83.018 120.621 83.0194 120.623 83.0203C120.623 83.0207 120.624 83.021 120.624 83.0213C120.624 83.0214 120.625 83.0215 120.625 83.0215C120.625 83.0215 120.625 83.0216 120.625 83.0216C120.625 83.0216 120.625 83.0216 138.259 56.319C155.893 29.6163 155.893 29.6163 155.893 29.6163C155.893 29.6163 155.893 29.6163 155.893 29.6163C155.893 29.6162 155.893 29.6161 155.893 29.616C155.893 29.6158 155.892 29.6155 155.891 29.615C155.89 29.6141 155.888 29.6127 155.885 29.6107C155.879 29.6068 155.87 29.6006 155.856 29.5916C155.829 29.5736 155.784 29.5443 155.716 29.4992C155.579 29.4088 155.346 29.2548 154.961 29.0006C154.191 28.492 152.813 27.5822 150.383 25.977C145.521 22.7666 136.448 16.7747 119.601 5.64876L84.3321 59.0541ZM153.288 84.5699L183.173 68.6713L153.115 12.1693L123.23 28.068L153.288 84.5699ZM149.261 64.7043L168.879 81.9733L211.166 33.9343L191.549 16.6652L149.261 64.7043ZM188.701 29.455H7.58819V93.455H188.701V29.455ZM22.375 85.5577L53.4193 67.9715L21.874 12.2858L-9.17026 29.872L22.375 85.5577ZM93.5348 73.8952L117.73 60.1994L86.2028 4.50341L62.0078 18.1992L93.5348 73.8952ZM7.58819 29.455C38.4112 29.455 49.1943 70.3648 22.375 85.5577L-9.17026 29.872C-39.5654 47.0905 -27.3446 93.455 7.58819 93.455V29.455ZM168.879 81.9733C148.119 63.6992 161.044 29.455 188.701 29.455V93.455C220.046 93.455 234.694 54.6449 211.166 33.9343L168.879 81.9733ZM142.462 59.609C126.68 48.1642 125.835 24.9425 140.743 12.3808L181.982 61.3235C198.878 47.0869 197.92 20.769 180.034 7.79823L142.462 59.609ZM183.173 68.6713C172.146 74.5379 158.637 72.9577 149.261 64.7043L191.549 16.6652C180.923 7.31139 165.613 5.52042 153.115 12.1693L183.173 68.6713ZM136.967 29.9342C126.456 37.6232 112.185 37.6529 101.642 30.0076L139.214 -21.8031C127.266 -30.4678 111.092 -30.4341 99.18 -21.72L136.967 29.9342ZM56.4451 75.65C65.6402 77.342 75.1263 75.1728 82.6722 69.6527L44.8853 17.9985C51.5435 13.1278 59.9136 11.2138 68.0269 12.7067L56.4451 75.65ZM44.7853 8.43016C36.9323 6.98519 28.8214 8.35016 21.874 12.2858L53.4193 67.9715C47.2892 71.4441 40.1325 72.6485 33.2034 71.3735L44.7853 8.43016Z" fill="white" fill-opacity="0.05" mask="url(#path-1-inside-1_2137_6254)"/>
<path d="M40.4726 10.2742L50.1487 0.603262C50.9534 -0.201087 52.2823 -0.201087 53.1058 0.603262C53.9106 1.40761 53.9106 2.73572 53.1058 3.55878L51.0845 5.57901L56.1377 10.6483L58.0655 8.72158C59.4317 7.35606 61.6589 7.35606 63.0252 8.72158L66.9555 12.6498C70.942 16.6341 70.942 23.0876 66.9555 27.072C62.969 31.0563 56.5121 31.0563 52.5256 27.072L48.5952 23.1438C47.229 21.7782 47.229 19.5522 48.5952 18.1867L50.5043 16.2787L45.4323 11.2095L43.411 13.2297C42.6062 14.034 41.2773 14.034 40.4538 13.2297C39.6491 12.4066 39.6491 11.0785 40.4726 10.2742ZM55.595 17.4198L62.8755 24.6963C63.1188 24.9395 63.4182 25.0517 63.7364 25.0517C64.0546 25.0517 64.354 24.9395 64.5973 24.6963C65.0652 24.2287 65.0652 23.4618 64.5973 22.9754L57.3168 15.6988C56.8489 15.2312 56.0816 15.2312 55.595 15.6988C55.1084 16.1852 55.1084 16.9521 55.595 17.4198Z" fill="#4C54FF" fill-opacity="0.1"/>
</g>
</svg>
