<svg width="13" height="12" viewBox="0 0 13 12" fill="none" xmlns="http://www.w3.org/2000/svg">
<path fill-rule="evenodd" clip-rule="evenodd" d="M6.20801 12C9.52172 12 12.208 9.31371 12.208 6C12.208 2.68629 9.52172 0 6.20801 0C2.8943 0 0.208008 2.68629 0.208008 6C0.208008 9.31371 2.8943 12 6.20801 12ZM6.42619 9C6.72744 9 6.97164 8.75579 6.97164 8.45455C6.97164 8.1533 6.72744 7.90909 6.42619 7.90909H6.20801C5.90676 7.90909 5.66255 8.1533 5.66255 8.45455C5.66255 8.75579 5.90676 9 6.20801 9H6.42619ZM5.66255 6.43636C5.66255 6.79786 5.9556 7.09091 6.3171 7.09091C6.6786 7.09091 6.97164 6.79786 6.97164 6.43636V3.92727C6.97164 3.56578 6.6786 3.27273 6.3171 3.27273C5.9556 3.27273 5.66255 3.56578 5.66255 3.92727V6.43636Z" fill="#F58721"/>
</svg>
