<svg width="119" height="90" viewBox="0 0 119 90" fill="none" xmlns="http://www.w3.org/2000/svg">
<path fill-rule="evenodd" clip-rule="evenodd" d="M58.9904 0.371094V3.67975H59.6548V0.371094H58.9904ZM31.1404 11.3845L29.4995 8.51913L30.0749 8.18421L31.7158 11.0496L31.1404 11.3845ZM7.99981 30.4401L10.8418 32.0944L11.174 31.5143L8.332 29.86L7.99981 30.4401ZM3.53365 60.2621H0.251953V59.5922H3.53365V60.2621ZM11.174 88.3425L8.332 89.9968L7.99981 89.4167L10.8418 87.7623L11.174 88.3425ZM86.9293 11.0496L88.5702 8.18421L89.1455 8.51913L87.5047 11.3845L86.9293 11.0496ZM110.313 29.86L107.471 31.5143L107.803 32.0944L110.645 30.4401L110.313 29.86ZM115.111 59.5922H118.393V60.2621H115.111V59.5922ZM110.645 89.4167L107.803 87.7623L107.471 88.3425L110.313 89.9968L110.645 89.4167Z" fill="#22232B" fill-opacity="0.3"/>
<path fill-rule="evenodd" clip-rule="evenodd" d="M55.9021 0.476463L56.0052 2.45894L56.6687 2.42388L56.5656 0.441406L55.9021 0.476463ZM53.0263 2.71422L52.8204 0.739903L53.4812 0.669885L53.687 2.64421L53.0263 2.71422ZM49.7566 1.16286L50.0646 3.12361L50.7208 3.01882L50.4128 1.05807L49.7566 1.16286ZM47.1284 3.68971L46.719 1.7479L47.3689 1.60863L47.7782 3.55044L47.1284 3.68971ZM43.7159 2.49236L44.2255 4.40991L44.8673 4.23654L44.3577 2.31899L43.7159 2.49236ZM41.3641 5.28422L40.7556 3.39619L41.3875 3.1892L41.996 5.07723L41.3641 5.28422ZM37.8462 4.45412L38.5519 6.30746L39.1721 6.06741L38.4665 4.21407L37.8462 4.45412ZM35.7966 7.47705L34.9958 5.66348L35.6027 5.39103L36.4036 7.2046L35.7966 7.47705ZM32.2119 7.02162L33.1058 8.79044L33.6978 8.48633L32.8039 6.71751L32.2119 7.02162ZM27.947 11.8333L26.8746 10.1683L27.4318 9.8035L28.5042 11.4684L27.947 11.8333ZM24.3358 11.949L25.4932 13.555L26.0307 13.1613L24.8733 11.5552L24.3358 11.949ZM23.132 15.4027L21.8929 13.8599L22.4092 13.4384L23.6484 14.9811L23.132 15.4027ZM19.5526 15.8985L20.8701 17.3738L21.3638 16.9255L20.0463 15.4503L19.5526 15.8985ZM18.7136 19.4605L17.3213 18.0568L17.7911 17.5831L19.1834 18.9869L18.7136 19.4605ZM15.2051 20.3322L16.6684 21.6606L17.1129 21.1628L15.6497 19.8344L15.2051 20.3322ZM14.7401 23.9635L13.2099 22.7142L13.628 22.1936L15.1582 23.443L14.7401 23.9635ZM11.341 25.1976L12.934 26.3644L13.3245 25.8225L11.7315 24.6556L11.341 25.1976ZM11.255 28.8608L9.60368 27.7796L9.96554 27.2178L11.6169 28.299L11.255 28.8608ZM6.54229 33.1925L8.2967 34.0938L8.59833 33.4969L6.84392 32.5957L6.54229 33.1925ZM7.02539 36.8256L5.2266 36.0181L5.49683 35.4062L7.29562 36.2136L7.02539 36.8256ZM4.05919 38.9031L5.89743 39.6145L6.13552 38.9892L4.29728 38.2777L4.05919 38.9031ZM4.9159 42.4608L3.04325 41.8474L3.24856 41.2103L5.12121 41.8237L4.9159 42.4608ZM2.1816 44.8431L4.08352 45.3569L4.25548 44.7099L2.35355 44.1961L2.1816 44.8431ZM3.40255 48.2899L1.47656 47.8772L1.61469 47.222L3.54068 47.6347L3.40255 48.2899ZM0.93008 50.947L2.87486 51.2576L2.97879 50.596L1.03401 50.2854L0.93008 50.947ZM2.50191 54.2496L0.543678 54.0421L0.613126 53.3759L2.57136 53.5834L2.50191 54.2496ZM0.318359 57.152L2.28468 57.2559L2.31945 56.587L0.353131 56.4831L0.318359 57.152ZM2.31945 63.2826L0.353131 63.3865L0.318359 62.7176L2.28468 62.6137L2.31945 63.2826ZM0.613126 66.4926L2.57136 66.2851L2.50191 65.6189L0.543678 65.8264L0.613126 66.4926ZM2.97879 69.2683L1.03401 69.5789L0.93008 68.9173L2.87486 68.6067L2.97879 69.2683ZM1.61469 72.6425L3.54068 72.2297L3.40255 71.5745L1.47656 71.9873L1.61469 72.6425ZM4.25548 75.1562L2.35355 75.67L2.1816 75.023L4.08352 74.5092L4.25548 75.1562ZM3.24856 78.656L5.12121 78.0425L4.9159 77.4055L3.04325 78.0189L3.24856 78.656ZM6.13552 80.8783L4.29728 81.5897L4.05919 80.9644L5.89743 80.2529L6.13552 80.8783ZM5.49683 84.4631L7.29562 83.6556L7.02539 83.0437L5.2266 83.8512L5.49683 84.4631ZM8.59833 86.3693L6.84392 87.2706L6.54229 86.6738L8.2967 85.7725L8.59833 86.3693ZM61.9821 2.42388L62.0852 0.441406L62.7486 0.476463L62.6456 2.45894L61.9821 2.42388ZM65.1696 0.669885L64.9638 2.64421L65.6245 2.71422L65.8303 0.739903L65.1696 0.669885ZM67.9299 3.01882L68.238 1.05807L68.8942 1.16286L68.5862 3.12361L67.9299 3.01882ZM71.2819 1.60863L70.8725 3.55044L71.5224 3.68971L71.9318 1.7479L71.2819 1.60863ZM73.7835 4.23654L74.2931 2.31899L74.9349 2.49236L74.4252 4.40991L73.7835 4.23654ZM77.2633 3.1892L76.6548 5.07723L77.2867 5.28422L77.8951 3.39619L77.2633 3.1892ZM79.4786 6.06741L80.1843 4.21407L80.8045 4.45412L80.0989 6.30746L79.4786 6.06741ZM83.0481 5.39103L82.2472 7.2046L82.8542 7.47705L83.655 5.66348L83.0481 5.39103ZM84.953 8.48633L85.8469 6.71751L86.4389 7.02162L85.5449 8.79044L84.953 8.48633ZM91.219 9.8035L90.1466 11.4684L90.7038 11.8333L91.7762 10.1683L91.219 9.8035ZM92.6201 13.1613L93.7775 11.5552L94.315 11.949L93.1576 13.555L92.6201 13.1613ZM96.2416 13.4384L95.0024 14.9811L95.5187 15.4027L96.7579 13.8599L96.2416 13.4384ZM97.287 16.9255L98.6045 15.4503L99.0982 15.8985L97.7807 17.3738L97.287 16.9255ZM100.86 17.5831L99.4674 18.9869L99.9372 19.4605L101.329 18.0568L100.86 17.5831ZM101.538 21.1628L103.001 19.8344L103.446 20.3322L101.982 21.6606L101.538 21.1628ZM105.023 22.1936L103.493 23.443L103.911 23.9635L105.441 22.7142L105.023 22.1936ZM105.326 25.8225L106.919 24.6556L107.31 25.1976L105.717 26.3644L105.326 25.8225ZM108.685 27.2178L107.034 28.299L107.396 28.8608L109.047 27.7796L108.685 27.2178ZM110.052 33.4969L111.807 32.5957L112.108 33.1925L110.354 34.0938L110.052 33.4969ZM113.154 35.4062L111.355 36.2136L111.625 36.8256L113.424 36.0181L113.154 35.4062ZM112.515 38.9892L114.354 38.2777L114.592 38.9031L112.753 39.6145L112.515 38.9892ZM115.402 41.2103L113.53 41.8237L113.735 42.4608L115.608 41.8474L115.402 41.2103ZM114.395 44.7099L116.297 44.1961L116.469 44.8431L114.567 45.3569L114.395 44.7099ZM117.036 47.222L115.11 47.6347L115.248 48.2899L117.174 47.8772L117.036 47.222ZM115.672 50.596L117.617 50.2854L117.721 50.947L115.776 51.2576L115.672 50.596ZM118.038 53.3759L116.079 53.5834L116.149 54.2496L118.107 54.0421L118.038 53.3759ZM116.331 56.587L118.298 56.4831L118.332 57.152L116.366 57.2559L116.331 56.587ZM118.332 62.7176L116.366 62.6137L116.331 63.2826L118.298 63.3865L118.332 62.7176ZM116.149 65.6189L118.107 65.8264L118.038 66.4926L116.079 66.2851L116.149 65.6189ZM117.721 68.9173L115.776 68.6067L115.672 69.2683L117.617 69.5789L117.721 68.9173ZM115.248 71.5745L117.174 71.9873L117.036 72.6425L115.11 72.2297L115.248 71.5745ZM116.469 75.023L114.567 74.5092L114.395 75.1562L116.297 75.67L116.469 75.023ZM113.735 77.4055L115.608 78.0189L115.402 78.656L113.53 78.0425L113.735 77.4055ZM114.592 80.9644L112.753 80.2529L112.515 80.8783L114.354 81.5897L114.592 80.9644ZM111.625 83.0437L113.424 83.8512L113.154 84.4631L111.355 83.6556L111.625 83.0437ZM112.108 86.6738L110.354 85.7725L110.052 86.3693L111.807 87.2706L112.108 86.6738Z" fill="#22232B" fill-opacity="0.3"/>
</svg>
