<svg width="125" height="94" viewBox="0 0 125 94" fill="none" xmlns="http://www.w3.org/2000/svg">
<path fill-rule="evenodd" clip-rule="evenodd" d="M62.4636 0V3.44371H63.1597V0H62.4636ZM33.2873 11.463L31.5683 8.48061L32.1711 8.13202L33.8901 11.1144L33.2873 11.463ZM9.04459 31.2963L12.022 33.0182L12.37 32.4144L9.3926 30.6925L9.04459 31.2963ZM4.36573 62.3355H0.927734V61.6383H4.36573V62.3355ZM12.37 91.562L9.3926 93.2839L9.04459 92.6801L12.022 90.9582L12.37 91.562ZM91.7332 11.1144L93.4522 8.13202L94.055 8.48061L92.336 11.463L91.7332 11.1144ZM116.231 30.6925L113.253 32.4144L113.601 33.0182L116.579 31.2963L116.231 30.6925ZM121.258 61.6383H124.696V62.3355H121.258V61.6383ZM116.579 92.6801L113.601 90.9582L113.253 91.562L116.231 93.2839L116.579 92.6801Z" fill="white" fill-opacity="0.5"/>
<path fill-rule="evenodd" clip-rule="evenodd" d="M59.2252 0.1068L59.3331 2.17019L60.0282 2.1337L59.9202 0.0703125L59.2252 0.1068ZM56.2123 2.4359L55.9967 0.380992L56.6889 0.308116L56.9045 2.36302L56.2123 2.4359ZM52.787 0.821211L53.1097 2.862L53.7971 2.75293L53.4744 0.712147L52.787 0.821211ZM50.0335 3.4512L49.6047 1.43013L50.2855 1.28518L50.7144 3.30625L50.0335 3.4512ZM46.4586 2.20498L46.9925 4.20079L47.6648 4.02035L47.1309 2.02453L46.4586 2.20498ZM43.9947 5.1108L43.3573 3.1457L44.0193 2.93026L44.6567 4.89535L43.9947 5.1108ZM40.3093 4.24681L41.0486 6.1758L41.6984 5.92595L40.9591 3.99696L40.3093 4.24681ZM38.1621 7.39312L37.3231 5.50553L37.9589 5.22196L38.798 7.10955L38.1621 7.39312ZM34.4067 6.9191L35.3432 8.76012L35.9633 8.4436L35.0268 6.60258L34.4067 6.9191ZM29.9387 11.9271L28.8152 10.1942L29.3989 9.81453L30.5224 11.5474L29.9387 11.9271ZM26.1555 12.0476L27.368 13.7192L27.9311 13.3094L26.7186 11.6378L26.1555 12.0476ZM24.8944 15.6423L23.5962 14.0365L24.1371 13.5977L25.4353 15.2035L24.8944 15.6423ZM21.1444 16.1583L22.5247 17.6938L23.0419 17.2273L21.6617 15.6918L21.1444 16.1583ZM20.2655 19.8657L18.8068 18.4047L19.299 17.9117L20.7576 19.3727L20.2655 19.8657ZM16.5899 20.773L18.1228 22.1556L18.5886 21.6374L17.0556 20.2549L16.5899 20.773ZM16.1027 24.5525L14.4996 23.2522L14.9376 22.7104L16.5407 24.0107L16.1027 24.5525ZM12.5418 25.8369L14.2106 27.0514L14.6197 26.4874L12.9509 25.2729L12.5418 25.8369ZM12.4517 29.6497L10.7217 28.5243L11.1008 27.9396L12.8308 29.065L12.4517 29.6497ZM7.5145 34.1582L9.35246 35.0962L9.66845 34.475L7.83049 33.537L7.5145 34.1582ZM8.0206 37.9395L6.13614 37.0991L6.41924 36.4622L8.3037 37.3026L8.0206 37.9395ZM4.91313 40.1018L6.83892 40.8423L7.08835 40.1914L5.16256 39.451L4.91313 40.1018ZM5.81065 43.8048L3.84881 43.1663L4.0639 42.5032L6.02573 43.1417L5.81065 43.8048ZM2.94612 46.2843L4.93862 46.8191L5.11877 46.1456L3.12626 45.6109L2.94612 46.2843ZM4.22522 49.8718L2.2075 49.4422L2.35221 48.7603L4.36993 49.1899L4.22522 49.8718ZM1.635 52.6374L3.6724 52.9606L3.78128 52.272L1.74388 51.9488L1.635 52.6374ZM3.28169 56.0748L1.23019 55.8588L1.30295 55.1654L3.35444 55.3814L3.28169 56.0748ZM0.994141 59.0956L3.05411 59.2037L3.09054 58.5075L1.03057 58.3994L0.994141 59.0956ZM3.09054 65.4765L1.03057 65.5846L0.994141 64.8884L3.05411 64.7803L3.09054 65.4765ZM1.30295 68.8175L3.35444 68.6015L3.28169 67.9081L1.23019 68.1241L1.30295 68.8175ZM3.78128 71.7065L1.74388 72.0297L1.635 71.3411L3.6724 71.0179L3.78128 71.7065ZM2.35221 75.2184L4.36993 74.7888L4.22522 74.1068L2.2075 74.5364L2.35221 75.2184ZM5.11877 77.8347L3.12626 78.3695L2.94612 77.696L4.93862 77.1613L5.11877 77.8347ZM4.0639 81.4773L6.02573 80.8388L5.81065 80.1758L3.84881 80.8143L4.0639 81.4773ZM7.08835 83.7903L5.16256 84.5308L4.91313 83.8799L6.83892 83.1395L7.08835 83.7903ZM6.41924 87.5214L8.3037 86.681L8.0206 86.0441L6.13614 86.8845L6.41924 87.5214ZM9.66845 89.5055L7.83049 90.4435L7.5145 89.8223L9.35246 88.8843L9.66845 89.5055ZM65.5947 2.1337L65.7027 0.0703125L66.3977 0.1068L66.2898 2.17019L65.5947 2.1337ZM68.934 0.308116L68.7184 2.36302L69.4106 2.4359L69.6262 0.380992L68.934 0.308116ZM71.8258 2.75293L72.1485 0.712147L72.836 0.821211L72.5133 2.862L71.8258 2.75293ZM75.3374 1.28518L74.9086 3.30625L75.5894 3.4512L76.0183 1.43013L75.3374 1.28518ZM77.9581 4.02035L78.492 2.02453L79.1644 2.20498L78.6305 4.20079L77.9581 4.02035ZM81.6037 2.93026L80.9662 4.89535L81.6282 5.1108L82.2656 3.1457L81.6037 2.93026ZM83.9245 5.92595L84.6638 3.99696L85.3136 4.24681L84.5743 6.1758L83.9245 5.92595ZM87.664 5.22196L86.825 7.10955L87.4608 7.39312L88.2998 5.50553L87.664 5.22196ZM89.6596 8.4436L90.5961 6.60258L91.2162 6.9191L90.2798 8.76012L89.6596 8.4436ZM96.224 9.81453L95.1005 11.5474L95.6843 11.9271L96.8078 10.1942L96.224 9.81453ZM97.6919 13.3094L98.9044 11.6378L99.4675 12.0476L98.255 13.7192L97.6919 13.3094ZM101.486 13.5977L100.188 15.2035L100.729 15.6423L102.027 14.0365L101.486 13.5977ZM102.581 17.2273L103.961 15.6918L104.479 16.1583L103.098 17.6938L102.581 17.2273ZM106.324 17.9117L104.865 19.3727L105.357 19.8657L106.816 18.4047L106.324 17.9117ZM107.034 21.6374L108.567 20.2549L109.033 20.773L107.5 22.1556L107.034 21.6374ZM110.685 22.7104L109.082 24.0107L109.52 24.5525L111.123 23.2522L110.685 22.7104ZM111.003 26.4874L112.672 25.2729L113.081 25.8369L111.412 27.0514L111.003 26.4874ZM114.522 27.9396L112.792 29.065L113.171 29.6497L114.901 28.5243L114.522 27.9396ZM115.954 34.475L117.792 33.537L118.108 34.1582L116.27 35.0962L115.954 34.475ZM119.204 36.4622L117.319 37.3026L117.602 37.9395L119.487 37.0991L119.204 36.4622ZM118.535 40.1914L120.46 39.451L120.71 40.1018L118.784 40.8423L118.535 40.1914ZM121.559 42.5032L119.597 43.1417L119.812 43.8048L121.774 43.1663L121.559 42.5032ZM120.504 46.1456L122.497 45.6109L122.677 46.2843L120.684 46.8191L120.504 46.1456ZM123.271 48.7603L121.253 49.1899L121.398 49.8718L123.415 49.4422L123.271 48.7603ZM121.842 52.272L123.879 51.9488L123.988 52.6374L121.951 52.9606L121.842 52.272ZM124.32 55.1654L122.269 55.3814L122.341 56.0748L124.393 55.8588L124.32 55.1654ZM122.532 58.5075L124.592 58.3994L124.629 59.0956L122.569 59.2037L122.532 58.5075ZM124.629 64.8884L122.569 64.7803L122.532 65.4765L124.592 65.5846L124.629 64.8884ZM122.341 67.9081L124.393 68.1241L124.32 68.8175L122.269 68.6015L122.341 67.9081ZM123.988 71.3411L121.951 71.0179L121.842 71.7065L123.879 72.0297L123.988 71.3411ZM121.398 74.1068L123.415 74.5364L123.271 75.2184L121.253 74.7888L121.398 74.1068ZM122.677 77.696L120.684 77.1613L120.504 77.8347L122.497 78.3695L122.677 77.696ZM119.812 80.1758L121.774 80.8143L121.559 81.4773L119.597 80.8388L119.812 80.1758ZM120.71 83.8799L118.784 83.1395L118.535 83.7903L120.46 84.5308L120.71 83.8799ZM117.602 86.0441L119.487 86.8845L119.204 87.5214L117.319 86.681L117.602 86.0441ZM118.108 89.8223L116.27 88.8843L115.954 89.5055L117.792 90.4435L118.108 89.8223Z" fill="white" fill-opacity="0.3"/>
</svg>
