<svg width="23" height="22" viewBox="0 0 23 22" fill="none" xmlns="http://www.w3.org/2000/svg">
<circle cx="11.208" cy="11" r="11" fill="url(#paint0_linear_455_8701)"/>
<circle cx="11.208" cy="11" r="11" fill="url(#paint1_linear_455_8701)"/>
<mask id="mask0_455_8701" style="mask-type:alpha" maskUnits="userSpaceOnUse" x="9" y="11" width="8" height="7">
<path d="M11.7794 17.9725L16.7013 11.2676H12.4342L9.2655 13.9705L11.7794 17.9725Z" fill="url(#paint2_linear_455_8701)"/>
</mask>
<g mask="url(#mask0_455_8701)">
<path opacity="0.5" d="M11.4805 18.6089L16.7013 11.2676H12.4342L10.3805 19.0489L11.4805 18.6089Z" fill="url(#paint3_linear_455_8701)"/>
</g>
<path opacity="0.5" d="M12.581 11.3489L17.421 7.43573H8.401L12.581 11.3489Z" fill="url(#paint4_radial_455_8701)"/>
<path fill-rule="evenodd" clip-rule="evenodd" d="M11.8288 10.365C11.7545 10.4253 11.6478 10.4245 11.5744 10.363L5.90679 5.61637C5.74942 5.48458 5.86899 5.22958 6.07095 5.26626L15.4824 6.97577C15.6506 7.00632 15.7054 7.22017 15.5727 7.32787L11.8288 10.365Z" fill="white"/>
<path fill-rule="evenodd" clip-rule="evenodd" d="M11.3376 10.8293C11.3894 10.8727 11.4158 10.9393 11.4077 11.0064L10.5137 18.4789C10.489 18.6852 10.205 18.7217 10.129 18.5283L5.30421 6.26415C5.22832 6.07125 5.45989 5.9045 5.61877 6.03763L11.3376 10.8293Z" fill="white"/>
<path fill-rule="evenodd" clip-rule="evenodd" d="M18.2967 6.50891L18.467 6.60363L15.1368 10.1285C15.0163 10.2561 15.1067 10.4659 15.2822 10.4659H17.8823C18.0497 10.4659 18.143 10.6593 18.0388 10.7903L10.601 20.1489H10.161L16.29 11.663C16.3855 11.5307 16.291 11.3459 16.1278 11.3459H12.8779C12.6894 11.3459 12.6055 11.1088 12.7522 10.9903L18.2967 6.50891Z" fill="url(#paint5_linear_455_8701)"/>
<defs>
<linearGradient id="paint0_linear_455_8701" x1="14.7827" y1="20.3633" x2="-3.94314" y2="11.1813" gradientUnits="userSpaceOnUse">
<stop stop-color="#4950D4"/>
<stop offset="1" stop-color="#7CF6E8"/>
</linearGradient>
<linearGradient id="paint1_linear_455_8701" x1="14.7827" y1="20.3633" x2="-3.94314" y2="11.1813" gradientUnits="userSpaceOnUse">
<stop stop-color="#4950D4"/>
<stop offset="1" stop-color="#7CF6E8"/>
</linearGradient>
<linearGradient id="paint2_linear_455_8701" x1="16.4375" y1="11.8407" x2="11.9347" y2="17.7251" gradientUnits="userSpaceOnUse">
<stop stop-color="white"/>
<stop offset="1" stop-color="white" stop-opacity="0"/>
</linearGradient>
<linearGradient id="paint3_linear_455_8701" x1="13.9005" y1="15.0889" x2="11.7054" y2="13.9793" gradientUnits="userSpaceOnUse">
<stop stop-color="#1204D3" stop-opacity="0.8"/>
<stop offset="1" stop-color="#0012F0" stop-opacity="0"/>
</linearGradient>
<radialGradient id="paint4_radial_455_8701" cx="0" cy="0" r="1" gradientUnits="userSpaceOnUse" gradientTransform="translate(13.2742 10.6032) rotate(-119.906) scale(2.04392 4.36714)">
<stop stop-color="#425BCC"/>
<stop offset="1" stop-color="white" stop-opacity="0"/>
</radialGradient>
<linearGradient id="paint5_linear_455_8701" x1="17.641" y1="7.60891" x2="11.261" y2="19.2689" gradientUnits="userSpaceOnUse">
<stop stop-color="white" stop-opacity="0"/>
<stop offset="0.124501" stop-color="white" stop-opacity="0.71"/>
<stop offset="0.256651" stop-color="white"/>
<stop offset="0.578781" stop-color="white" stop-opacity="0.97"/>
<stop offset="0.79384" stop-color="#9EBAFE"/>
<stop offset="0.986914" stop-color="#7DF7E9" stop-opacity="0"/>
</linearGradient>
</defs>
</svg>
