<svg width="143" height="23" viewBox="0 0 143 23" fill="none" xmlns="http://www.w3.org/2000/svg">
<path d="M8.58447 16.8746L24.7816 8.72534L24.8699 12.141L8.58447 20.3645V16.8746Z" fill="#23B49A"/>
<path d="M12.0111 15.1484L17.1864 17.7844L13.7843 19.5108L8.58447 16.8934L12.0111 15.1484Z" fill="#2CCDB0"/>
<path d="M17.1864 21.2555L17.1864 17.7842L13.7843 19.5106L13.7598 23.0004L17.1864 21.2555Z" fill="#46EFD1"/>
<path d="M5.26367 15.2037L21.4431 7.01733L24.7815 8.72515L8.58435 16.893L5.26367 15.2037Z" fill="#2CCDB0"/>
<path d="M5.26367 15.1833L13.7773 19.4715V22.9613L5.26367 18.6732V15.1833Z" fill="#177867"/>
<path d="M0 6.75781L8.51364 11.0459V14.5358L0 10.2477V6.75781Z" fill="#131766"/>
<path d="M15.4375 8.55783L17.9103 9.74588L17.9457 2.93318L15.4375 1.70801V8.55783Z" fill="#1B1F6D"/>
<path d="M8.51367 11.0457L24.7108 2.89648L24.7991 6.31212L8.51367 14.5356V11.0457Z" fill="#262C96"/>
<path d="M5.19287 9.37485L21.3723 1.18848L24.7107 2.89629L8.51355 11.0641L5.19287 9.37485Z" fill="#4950D4"/>
<path d="M3.46198 5.04785L8.60196 7.6467L5.19984 9.37308L0 6.75567L3.46198 5.04785Z" fill="#4950D4"/>
<path d="M18.8997 0L21.3726 1.18805L17.9459 2.93299L15.4377 1.70782L18.8997 0Z" fill="#4950D4"/>
<path d="M36.166 14.7895V6.1776H32.5029V4.42334H38.0173V15.0486C38.0173 16.0321 37.7087 16.8228 37.0916 17.4209C36.6715 17.8195 36.1988 18.0787 35.6737 18.1983C35.1485 18.3179 34.5052 18.3777 33.7437 18.3777H30.1987V16.6235H33.9997C35.4439 16.6235 36.166 16.0121 36.166 14.7895Z" fill="black"/>
<path d="M48.3135 18.3777H44.9065C43.4491 18.3777 42.4053 18.1584 41.7751 17.7199C41.2106 17.3345 40.8495 16.876 40.692 16.3444C40.5475 15.7995 40.4753 15.0885 40.4753 14.2113V8.809H42.2084V14.1914C42.2084 14.4306 42.215 14.6366 42.2281 14.8094C42.2412 14.9689 42.2872 15.1815 42.3659 15.4473C42.4447 15.6998 42.5563 15.9124 42.7007 16.0852C42.8452 16.2447 43.0552 16.3909 43.331 16.5238C43.6067 16.6434 43.9415 16.7032 44.3353 16.7032H46.5805V8.809H48.3135V18.3777Z" fill="black"/>
<path d="M57.342 8.809V10.4835H53.8562C53.4754 10.4835 53.1472 10.5566 52.8715 10.7028C52.5958 10.849 52.4579 11.055 52.4579 11.3208C52.4579 11.4803 52.4907 11.6265 52.5564 11.7594C52.622 11.879 52.6942 11.9786 52.773 12.0584C52.8649 12.1381 52.9962 12.2245 53.1669 12.3175C53.3507 12.3973 53.4886 12.4571 53.5805 12.4969C53.6855 12.5235 54.1056 12.6564 54.8409 12.8956C55.5761 13.1349 56.121 13.3342 56.4755 13.4937C56.83 13.6532 57.0991 13.8725 57.2829 14.1515C57.4799 14.4173 57.6046 14.6831 57.6571 14.9489C57.7096 15.2014 57.7359 15.4539 57.7359 15.7065C57.7359 17.4873 56.528 18.3777 54.1122 18.3777H50.7051V16.7032H54.1122C55.3464 16.7032 55.9634 16.371 55.9634 15.7065C55.9634 15.3875 55.7796 15.1217 55.412 14.9091C55.0575 14.6964 54.6177 14.517 54.0925 14.3708C53.5805 14.2246 53.0619 14.0585 52.5367 13.8725C52.0246 13.6731 51.5848 13.3608 51.2172 12.9355C50.8627 12.4969 50.6854 11.9587 50.6854 11.3208C50.6854 10.5101 50.994 9.89213 51.6111 9.46685C52.2281 9.02829 52.9765 8.809 53.8562 8.809H57.342Z" fill="black"/>
<path d="M60.4758 10.4835V6.91519H62.2483V8.809H64.907V10.4835H62.2483V14.5901C62.2483 15.0553 62.3205 15.4407 62.4649 15.7463C62.6225 16.052 62.8457 16.2713 63.1345 16.4042C63.4234 16.5238 63.6925 16.6035 63.942 16.6434C64.2046 16.6833 64.5262 16.7032 64.907 16.7032V18.3777C63.3971 18.3777 62.2811 18.0853 61.559 17.5006C60.8369 16.9158 60.4758 15.9457 60.4758 14.5901V10.4835Z" fill="black"/>
<path d="M74.6038 16.6235V18.3777H71.7285C71.1902 18.3777 70.7635 18.3711 70.4484 18.3578C70.1464 18.3312 69.7657 18.2515 69.3061 18.1186C68.8466 17.9724 68.4593 17.7597 68.1442 17.4807C67.6584 17.0288 67.3433 16.4906 67.1989 15.8659C67.0545 15.228 66.9823 14.4838 66.9823 13.6332V4.42334H68.8335V13.5934C68.8335 14.3642 68.9188 14.9689 69.0895 15.4074C69.4309 16.2181 70.1464 16.6235 71.2362 16.6235H74.6038Z" fill="black"/>
<path d="M80.9142 8.60966C83.1462 8.70268 84.2622 9.63962 84.2622 11.4205C84.2622 13.6399 82.8246 14.7496 79.9492 14.7496H79.1418V13.2146H80.0871C80.9668 13.2146 81.5773 13.0817 81.9186 12.8159C82.26 12.5368 82.4307 12.0783 82.4307 11.4404C82.4307 11.0284 82.2797 10.7227 81.9777 10.5234C81.6757 10.3108 81.2884 10.2044 80.8158 10.2044C79.8836 10.2044 79.1483 10.5367 78.61 11.2012C78.0849 11.8657 77.8223 12.6631 77.8223 13.5934C77.8223 14.5768 78.1046 15.3742 78.6691 15.9855C79.2468 16.5969 79.9952 16.9025 80.9142 16.9025C81.7414 16.9025 82.4175 16.6966 82.9427 16.2846L84.1244 17.4607C83.2184 18.205 82.1484 18.5771 80.9142 18.5771C79.4175 18.5771 78.2227 18.1319 77.3299 17.2414C76.4371 16.351 75.9907 15.2014 75.9907 13.7927C75.9907 12.2245 76.4306 10.9553 77.3102 9.98516C78.1899 9.015 79.3912 8.5565 80.9142 8.60966Z" fill="black"/>
<path d="M86.3278 8.809H89.7348C91.1922 8.809 92.236 9.02829 92.8662 9.46685C93.4308 9.85226 93.7853 10.3174 93.9297 10.8623C94.0872 11.3939 94.166 12.0983 94.166 12.9754V18.3777H92.4329V12.9953C92.4329 12.7561 92.4264 12.5568 92.4132 12.3973C92.4001 12.2245 92.3542 12.0119 92.2754 11.7594C92.1966 11.4936 92.085 11.2809 91.9406 11.1214C91.7962 10.9487 91.5861 10.8025 91.3104 10.6829C91.0347 10.55 90.6999 10.4835 90.306 10.4835H88.0609V18.3777H86.3278V8.809Z" fill="black"/>
<path d="M103.923 4.42334H105.696V18.3777H101.068C99.6364 18.3777 98.4745 17.9192 97.5817 17.0022C96.6889 16.0719 96.2425 14.9024 96.2425 13.4937C96.2425 12.1115 96.702 10.9553 97.6211 10.025C98.5533 9.08145 99.6561 8.60966 100.93 8.60966C101.744 8.60966 102.505 8.809 103.214 9.2077V11.0018C102.558 10.5234 101.796 10.2842 100.93 10.2842C100.142 10.2842 99.4723 10.5832 98.9209 11.1812C98.3826 11.766 98.1134 12.5368 98.1134 13.4937C98.1134 14.4639 98.3694 15.2413 98.8815 15.8261C99.4067 16.4108 100.135 16.7032 101.068 16.7032H103.923V4.42334Z" fill="black"/>
<path d="M119.82 11.8893C119.807 14.0166 119.212 15.6662 118.036 16.8382C116.872 17.9973 115.26 18.5769 113.201 18.5769H110.592V5.20166H113.201C115.26 5.20166 116.872 5.78762 118.036 6.95955C119.212 8.11874 119.807 9.76199 119.82 11.8893ZM113.431 16.8955C114.851 16.8955 115.938 16.4305 116.693 15.5006C117.46 14.558 117.857 13.3542 117.882 11.8893C117.857 10.4244 117.46 9.22698 116.693 8.29708C115.938 7.35444 114.851 6.88312 113.431 6.88312H112.395V16.8955H113.431Z" fill="black"/>
<path d="M141.364 11.7778C141.353 11.0669 141.262 10.394 141.089 9.75921C140.927 9.12442 140.684 8.57216 140.36 8.10241C140.047 7.61997 139.663 7.2391 139.21 6.95979C138.756 6.68049 138.243 6.54083 137.671 6.54083C137.099 6.54083 136.586 6.68049 136.132 6.95979C135.679 7.2391 135.29 7.61997 134.966 8.10241C134.653 8.57216 134.41 9.12442 134.237 9.75921C134.075 10.394 133.989 11.0669 133.978 11.7778C133.989 12.5015 134.075 13.1744 134.237 13.7965C134.41 14.4186 134.653 14.9581 134.966 15.4152C135.29 15.8722 135.679 16.2341 136.132 16.5007C136.586 16.7673 137.099 16.9006 137.671 16.9006C138.243 16.9006 138.756 16.7673 139.21 16.5007C139.663 16.2341 140.047 15.8722 140.36 15.4152C140.684 14.9581 140.927 14.4186 141.089 13.7965C141.262 13.1744 141.353 12.5015 141.364 11.7778ZM132.342 11.7778C132.353 10.7241 132.488 9.7719 132.747 8.92129C133.006 8.07067 133.368 7.34701 133.832 6.75031C134.296 6.14092 134.853 5.67752 135.5 5.36013C136.148 5.03004 136.872 4.86499 137.671 4.86499C138.459 4.86499 139.177 5.03004 139.825 5.36013C140.484 5.67752 141.046 6.14092 141.51 6.75031C141.974 7.34701 142.336 8.07067 142.595 8.92129C142.854 9.7719 142.989 10.7241 143 11.7778C142.989 12.8316 142.854 13.7774 142.595 14.6153C142.347 15.4533 141.99 16.1642 141.526 16.7482C141.062 17.3322 140.5 17.7829 139.842 18.1003C139.194 18.4177 138.47 18.5764 137.671 18.5764C136.872 18.5764 136.143 18.4177 135.484 18.1003C134.836 17.7829 134.28 17.3322 133.816 16.7482C133.351 16.1642 132.99 15.4533 132.731 14.6153C132.482 13.7774 132.353 12.8316 132.342 11.7778Z" fill="black"/>
<path fill-rule="evenodd" clip-rule="evenodd" d="M126.253 4.86499C124.211 4.86499 122.498 6.40153 122.286 8.42449L121.244 18.3706L121.239 18.4163V18.4624V18.5764H123.016V18.5084L123.5 13.888H128.345V12.3842H123.657L124.053 8.60815C124.171 7.48631 125.12 6.63421 126.253 6.63421C127.385 6.63421 128.335 7.48629 128.452 8.60812L129.49 18.5069V18.5764H131.266V18.4608V18.4148L131.261 18.369L130.219 8.42444C130.007 6.4015 128.295 4.86499 126.253 4.86499Z" fill="black"/>
</svg>
