<svg width="136" height="22" viewBox="0 0 136 22" fill="none" xmlns="http://www.w3.org/2000/svg">
<path d="M8.55994 16.0106L24.7113 8.27832L24.7994 11.5192L8.55994 19.3219V16.0106Z" fill="#23B49A"/>
<path d="M11.9769 14.3723L17.1376 16.8734L13.7451 18.5114L8.55994 16.028L11.9769 14.3723Z" fill="#2CCDB0"/>
<path d="M17.1377 20.1672L17.1377 16.8735L13.7452 18.5116L13.7208 21.8229L17.1377 20.1672Z" fill="#46EFD1"/>
<path d="M5.24866 14.4252L21.3824 6.65771L24.7114 8.27814L8.55996 16.028L5.24866 14.4252Z" fill="#2CCDB0"/>
<path d="M5.24866 14.4077L13.7383 18.4764V21.7877L5.24866 17.719V14.4077Z" fill="#177867"/>
<path d="M0 6.41113L8.48961 10.4798V13.7911L0 9.72243V6.41113Z" fill="#131766"/>
<path d="M15.394 8.11991L17.8599 9.24716L17.8951 2.78308L15.394 1.62061V8.11991Z" fill="#1B1F6D"/>
<path d="M8.48962 10.4798L24.641 2.74756L24.7291 5.98841L8.48962 13.7911V10.4798Z" fill="#262C96"/>
<path d="M5.17834 8.89466L21.3121 1.1272L24.641 2.74762L8.48965 10.4975L5.17834 8.89466Z" fill="#4950D4"/>
<path d="M3.45221 4.79077L8.57767 7.25663L5.18516 8.89467L0 6.4112L3.45221 4.79077Z" fill="#4950D4"/>
<path d="M18.8462 0L21.3121 1.12725L17.8951 2.7829L15.394 1.62042L18.8462 0Z" fill="#4950D4"/>
<path d="M35.3852 13.386V5.77702H32.1091V4.22705H37.0408V13.6149C37.0408 14.4839 36.7649 15.1825 36.213 15.7109C35.8372 16.0632 35.4145 16.2922 34.9448 16.3978C34.4751 16.5035 33.8998 16.5564 33.2187 16.5564H30.0483V15.0064H33.4477C34.7393 15.0064 35.3852 14.4662 35.3852 13.386Z" fill="black"/>
<path d="M46.2493 16.5564H43.2022C41.8988 16.5564 40.9653 16.3626 40.4017 15.9751C39.8967 15.6346 39.5738 15.2295 39.4329 14.7598C39.3038 14.2784 39.2392 13.6502 39.2392 12.8752V8.10198H40.7891V12.8576C40.7891 13.0689 40.795 13.2509 40.8068 13.4036C40.8185 13.5445 40.8596 13.7324 40.9301 13.9672C41.0005 14.1903 41.1003 14.3782 41.2295 14.5308C41.3586 14.6717 41.5465 14.8009 41.7931 14.9183C42.0397 15.024 42.3391 15.0768 42.6914 15.0768H44.6993V8.10198H46.2493V16.5564Z" fill="black"/>
<path d="M54.3239 8.10198V9.58149H51.2063C50.8658 9.58149 50.5722 9.64608 50.3256 9.77524C50.0791 9.9044 49.9558 10.0864 49.9558 10.3213C49.9558 10.4622 49.9851 10.5913 50.0438 10.7087C50.1025 10.8144 50.1671 10.9025 50.2376 10.9729C50.3198 11.0434 50.4372 11.1197 50.5898 11.2019C50.7542 11.2724 50.8775 11.3252 50.9597 11.3604C51.0537 11.3839 51.4294 11.5013 52.087 11.7127C52.7445 11.9241 53.2318 12.1002 53.5489 12.2411C53.8659 12.382 54.1066 12.5758 54.271 12.8223C54.4472 13.0572 54.5587 13.292 54.6057 13.5269C54.6526 13.75 54.6761 13.9731 54.6761 14.1962C54.6761 15.7696 53.5958 16.5564 51.4353 16.5564H48.3882V15.0768H51.4353C52.5391 15.0768 53.0909 14.7833 53.0909 14.1962C53.0909 13.9144 52.9265 13.6795 52.5978 13.4916C52.2807 13.3038 51.8874 13.1453 51.4177 13.0161C50.9597 12.8869 50.4959 12.7401 50.0262 12.5758C49.5683 12.3996 49.1749 12.1237 48.8461 11.7479C48.5291 11.3604 48.3706 10.8849 48.3706 10.3213C48.3706 9.60498 48.6465 9.05897 49.1984 8.68322C49.7503 8.29572 50.4196 8.10198 51.2063 8.10198H54.3239Z" fill="black"/>
<path d="M57.1266 9.58149V6.42871H58.7118V8.10198H61.0896V9.58149H58.7118V13.2098C58.7118 13.6208 58.7764 13.9613 58.9055 14.2314C59.0464 14.5015 59.246 14.6952 59.5044 14.8126C59.7627 14.9183 60.0034 14.9888 60.2265 15.024C60.4614 15.0592 60.749 15.0768 61.0896 15.0768V16.5564C59.7392 16.5564 58.7411 16.298 58.0953 15.7814C57.4495 15.2647 57.1266 14.4075 57.1266 13.2098V9.58149Z" fill="black"/>
<path d="M69.7619 15.0064V16.5564H67.1904C66.7089 16.5564 66.3273 16.5505 66.0455 16.5387C65.7754 16.5153 65.4349 16.4448 65.0239 16.3274C64.613 16.1982 64.2666 16.0103 63.9848 15.7638C63.5503 15.3645 63.2685 14.889 63.1393 14.3371C63.0102 13.7735 62.9456 13.1159 62.9456 12.3644V4.22705H64.6012V12.3292C64.6012 13.0102 64.6775 13.5445 64.8302 13.932C65.1355 14.6483 65.7754 15.0064 66.75 15.0064H69.7619Z" fill="black"/>
<path d="M75.4056 7.92584C77.4018 8.00804 78.3999 8.83586 78.3999 10.4093C78.3999 12.3703 77.1141 13.3507 74.5426 13.3507H73.8204V11.9945H74.6658C75.4526 11.9945 75.9986 11.8771 76.3039 11.6423C76.6092 11.3957 76.7618 10.9906 76.7618 10.4269C76.7618 10.0629 76.6268 9.79285 76.3567 9.61672C76.0867 9.42885 75.7403 9.33491 75.3175 9.33491C74.4838 9.33491 73.8263 9.62846 73.3448 10.2156C72.8752 10.8027 72.6403 11.5072 72.6403 12.3292C72.6403 13.1981 72.8928 13.9026 73.3977 14.4428C73.9143 14.9829 74.5836 15.253 75.4056 15.253C76.1454 15.253 76.7501 15.071 77.2198 14.707L78.2766 15.7461C77.4664 16.4037 76.5094 16.7325 75.4056 16.7325C74.067 16.7325 72.9985 16.3391 72.2 15.5524C71.4015 14.7657 71.0023 13.75 71.0023 12.5053C71.0023 11.1197 71.3956 9.99834 72.1824 9.14116C72.9691 8.28398 74.0435 7.87888 75.4056 7.92584Z" fill="black"/>
<path d="M80.2472 8.10198H83.2943C84.5977 8.10198 85.5312 8.29572 86.0948 8.68322C86.5997 9.02374 86.9168 9.43472 87.0459 9.91615C87.1868 10.3858 87.2573 11.0082 87.2573 11.7832V16.5564H85.7073V11.8008C85.7073 11.5894 85.7014 11.4133 85.6897 11.2724C85.678 11.1197 85.6369 10.9318 85.5664 10.7087C85.496 10.4739 85.3961 10.286 85.267 10.1451C85.1378 9.99247 84.9499 9.86331 84.7034 9.75763C84.4568 9.6402 84.1573 9.58149 83.8051 9.58149H81.7972V16.5564H80.2472V8.10198Z" fill="black"/>
<path d="M95.9836 4.22705H97.5688V16.5564H93.4296C92.1497 16.5564 91.1106 16.1513 90.3121 15.341C89.5136 14.5191 89.1144 13.4858 89.1144 12.2411C89.1144 11.0199 89.5254 9.99834 90.3473 9.17639C91.181 8.34269 92.1674 7.92584 93.3064 7.92584C94.0344 7.92584 94.7154 8.10198 95.3495 8.45424V10.0394C94.7624 9.61672 94.0813 9.40536 93.3064 9.40536C92.6018 9.40536 92.003 9.66956 91.5098 10.198C91.0284 10.7146 90.7877 11.3957 90.7877 12.2411C90.7877 13.0983 91.0166 13.7852 91.4746 14.3019C91.9443 14.8185 92.596 15.0768 93.4296 15.0768H95.9836V4.22705Z" fill="black"/>
<path d="M102.05 5.497V16.8857H106.165C107.999 16.8857 109.387 16.3753 110.344 15.3545C111.253 14.3655 111.716 12.9778 111.716 11.1914C111.716 9.38895 111.269 8.00125 110.376 7.04421C109.419 6.00742 108.031 5.497 106.197 5.497H102.05ZM103.788 6.98041H105.878C107.313 6.98041 108.366 7.31537 109.036 8.00125C109.674 8.67117 110.009 9.72391 110.009 11.1914C110.009 12.6269 109.674 13.6797 109.02 14.3655C108.35 15.0514 107.281 15.4023 105.846 15.4023H103.788V6.98041ZM116.753 5.497L112.366 16.8857H114.217L115.285 13.9508H120.182L121.251 16.8857H123.117L118.731 5.497H116.753ZM115.812 12.5153L117.71 7.36322H117.774L119.656 12.5153H115.812ZM129.271 5.27369C127.533 5.27369 126.161 5.83196 125.172 6.98041C124.215 8.06505 123.752 9.4687 123.752 11.2073C123.752 12.93 124.215 14.3336 125.172 15.4183C126.161 16.5348 127.533 17.1091 129.271 17.1091C130.994 17.1091 132.366 16.5508 133.371 15.4342C134.328 14.3496 134.806 12.9459 134.806 11.2073C134.806 9.45275 134.328 8.03315 133.371 6.96446C132.366 5.83196 130.994 5.27369 129.271 5.27369ZM129.271 6.80495C130.484 6.80495 131.425 7.18777 132.079 7.9853C132.717 8.76688 133.052 9.83557 133.052 11.2073C133.052 12.5631 132.717 13.6318 132.079 14.3974C131.425 15.179 130.484 15.5778 129.271 15.5778C128.059 15.5778 127.118 15.1631 126.448 14.3655C125.81 13.584 125.491 12.5312 125.491 11.2073C125.491 9.86747 125.81 8.81473 126.448 8.03315C127.118 7.20372 128.059 6.80495 129.271 6.80495Z" fill="black"/>
</svg>
