<svg width="530" height="40" viewBox="0 0 530 40" fill="none" xmlns="http://www.w3.org/2000/svg">
<mask id="mask0_55_4914" style="mask-type:alpha" maskUnits="userSpaceOnUse" x="0" y="0" width="530" height="40">
<rect width="530" height="40" rx="2" fill="white"/>
</mask>
<g mask="url(#mask0_55_4914)">
<path d="M33.0687 10.4106C32.707 10.2961 32.311 10.2661 31.8806 10.3206C31.4571 10.3711 31.034 10.5184 30.6114 10.7624C30.1818 11.0104 29.8399 11.314 29.5855 11.6734C29.3271 12.0258 29.1546 12.4071 29.0681 12.8173C28.9816 13.2275 28.9766 13.6507 29.0529 14.087C29.1253 14.5163 29.2775 14.9319 29.5095 15.3338C29.7455 15.7425 30.0333 16.089 30.3729 16.3733C30.7126 16.6576 31.0816 16.8648 31.4801 16.995C31.8746 17.1183 32.2925 17.1541 32.7339 17.1026C33.1752 17.051 33.6141 16.8992 34.0506 16.6472C34.397 16.4472 34.6977 16.232 34.9527 16.0017C35.2077 15.7713 35.4085 15.5352 35.5553 15.2935L34.3733 13.2462L32.7417 14.1882L32.2377 13.3152L34.8878 11.7852L36.9458 15.3498C36.6778 15.7816 36.3472 16.185 35.9539 16.5598C35.5606 16.9347 35.0938 17.2781 34.5534 17.5901C33.9784 17.9221 33.3944 18.1346 32.8014 18.2275C32.2113 18.3095 31.6451 18.2808 31.1027 18.1413C30.5563 17.9949 30.0501 17.7421 29.5841 17.383C29.1141 17.017 28.7151 16.5499 28.3871 15.9818C28.0551 15.4067 27.8501 14.8276 27.7721 14.2445C27.697 13.6505 27.7367 13.0872 27.8911 12.5546C28.0484 12.0111 28.3121 11.5079 28.6822 11.0448C29.0522 10.5818 29.5178 10.1882 30.079 9.86422C30.6679 9.52422 31.241 9.30882 31.7982 9.21803C32.3624 9.12323 32.8809 9.13333 33.3538 9.24831L33.0687 10.4106ZM40.1515 9.85468C39.9395 9.48748 39.6727 9.28128 39.351 9.23608C39.0253 9.18394 38.6788 9.26388 38.3116 9.47588C38.0345 9.63588 37.8032 9.8433 37.6178 10.0982C37.4353 10.3421 37.309 10.5952 37.2387 10.8575L36.3591 10.5339C36.4696 10.1653 36.66 9.81515 36.9304 9.48351C37.2077 9.14788 37.5473 8.86406 37.9492 8.63206C38.3025 8.42806 38.6374 8.30402 38.9537 8.25995C39.273 8.20494 39.5657 8.21604 39.832 8.29324C40.0983 8.37045 40.341 8.50283 40.5601 8.69039C40.7793 8.87795 40.9668 9.10683 41.1228 9.37703L42.3648 11.5282C42.4608 11.6945 42.5663 11.8692 42.6812 12.0522C42.7991 12.2244 42.9059 12.3613 43.0016 12.4631L42.1182 12.9731C41.9268 12.7696 41.7631 12.55 41.6271 12.3144L41.5959 12.3324C41.5678 12.6997 41.4572 13.0361 41.264 13.3416C41.0778 13.6431 40.7977 13.9018 40.4236 14.1178C40.2296 14.2298 40.0092 14.3201 39.7624 14.3887C39.5266 14.4602 39.288 14.487 39.0468 14.4693C38.8056 14.4515 38.5701 14.3796 38.3404 14.2536C38.1175 14.1236 37.9241 13.9166 37.7601 13.6325C37.5441 13.2584 37.4745 12.906 37.5515 12.5752C37.6244 12.2375 37.7916 11.9192 38.0533 11.6204C38.3109 11.3146 38.6341 11.0264 39.0229 10.7557C39.4116 10.4851 39.8138 10.2298 40.2295 9.98978L40.1515 9.85468ZM40.3985 10.8345C40.156 10.9745 39.9092 11.1308 39.6579 11.3036C39.4135 11.4724 39.202 11.65 39.0232 11.8363C38.8514 12.0187 38.7322 12.2122 38.6656 12.4169C38.599 12.6216 38.6257 12.8279 38.7457 13.0358C38.8297 13.1813 38.9275 13.2865 39.0389 13.3515C39.1572 13.4125 39.2829 13.4462 39.4159 13.4525C39.5489 13.4589 39.6823 13.4419 39.8161 13.4016C39.9458 13.3544 40.0731 13.2948 40.1978 13.2228C40.6551 12.9588 40.9269 12.6217 41.0134 12.2115C41.1028 11.7904 41.0275 11.372 40.7875 10.9563L40.6375 10.6965L40.3985 10.8345ZM45.0968 6.34828C44.8819 6.23215 44.6421 6.17666 44.3771 6.18181C44.1082 6.18003 43.8491 6.25114 43.5996 6.39514C43.4888 6.45914 43.3859 6.53699 43.2911 6.62871C43.1922 6.71349 43.1138 6.8096 43.0557 6.91702C43.0006 7.01352 42.9693 7.11934 42.9619 7.23448C42.9574 7.33869 42.9891 7.44968 43.0571 7.56746C43.1771 7.77531 43.3606 7.87719 43.6077 7.87311C43.8508 7.86211 44.1834 7.79018 44.6055 7.65731C44.873 7.57674 45.1293 7.51656 45.3742 7.47677C45.6191 7.43698 45.8483 7.43397 46.0618 7.46775C46.2782 7.4906 46.474 7.5577 46.6492 7.66905C46.8243 7.7804 46.9739 7.94346 47.0979 8.15824C47.2659 8.44922 47.3524 8.72717 47.3576 8.99209C47.3627 9.25701 47.3098 9.50929 47.1987 9.74892C47.0906 9.97763 46.9347 10.1877 46.7312 10.3791C46.5276 10.5705 46.3011 10.7383 46.0517 10.8823C45.6776 11.0983 45.2684 11.2375 44.8241 11.3C44.3868 11.3585 43.9643 11.3068 43.5568 11.1449L43.9111 10.1506C44.1547 10.2685 44.4288 10.3274 44.7335 10.327C45.045 10.3226 45.3394 10.2404 45.6165 10.0804C45.7412 10.0084 45.853 9.93005 45.9518 9.84527C46.0536 9.74956 46.1335 9.64799 46.1916 9.54056C46.2566 9.42913 46.2908 9.31239 46.2942 9.19032C46.2977 9.06826 46.2594 8.93794 46.1794 8.79938C46.0474 8.57075 45.8385 8.465 45.5528 8.48215C45.274 8.4953 44.8953 8.57538 44.4167 8.72238C44.2265 8.77681 44.0287 8.82632 43.8235 8.87089C43.6212 8.90454 43.4208 8.9094 43.2222 8.88548C43.0237 8.86155 42.8354 8.79938 42.6573 8.69896C42.4822 8.58761 42.3286 8.41762 42.1966 8.18899C42.0446 7.92572 41.9666 7.67055 41.9625 7.42349C41.9613 7.1655 42.0134 6.92762 42.1186 6.70984C42.2198 6.48513 42.3652 6.28106 42.5549 6.09764C42.7406 5.90728 42.9513 5.74411 43.1868 5.60811C43.5402 5.40411 43.9196 5.27739 44.3253 5.22795C44.7378 5.17452 45.1102 5.22744 45.4423 5.38671L45.0968 6.34828ZM52.8569 6.77314L51.8281 7.36714L47.5801 0.00939274L52.1735 -2.64261L52.6955 -1.73848L49.1309 0.319523L50.4509 2.60583L53.7868 0.67983L54.2968 1.56318L50.9609 3.48918L52.8569 6.77314ZM55.0143 0.373004C54.9383 0.241368 54.8368 0.0736269 54.7099 -0.130219C54.583 -0.334065 54.4666 -0.511663 54.3607 -0.663011L55.2856 -1.19701C55.3715 -1.0803 55.4659 -0.940811 55.5688 -0.778534C55.6677 -0.623186 55.7472 -0.49355 55.8072 -0.389627L55.8384 -0.407627C55.8089 -0.778611 55.8759 -1.12671 56.0391 -1.45191C56.2053 -1.78804 56.4547 -2.05211 56.7873 -2.24411C56.9397 -2.33211 57.0758 -2.39225 57.1958 -2.42454L57.6762 -1.49641C57.5176 -1.45105 57.3587 -1.38237 57.1993 -1.29037C56.9638 -1.15437 56.7854 -0.99134 56.6642 -0.801273C56.539 -0.618135 56.4595 -0.419819 56.4257 -0.206327C56.3989 0.00316518 56.4137 0.220906 56.4703 0.446896C56.5229 0.665957 56.6092 0.879411 56.7292 1.08726L58.2232 3.67494L57.2463 4.23894L55.0143 0.373004ZM62.7609 -2.81087C62.642 -3.00086 62.5033 -3.16099 62.345 -3.29127C62.1896 -3.43248 62.017 -3.53143 61.8272 -3.58814C61.6443 -3.64885 61.4463 -3.66384 61.2331 -3.63312C61.0228 -3.61333 60.8034 -3.53744 60.5747 -3.40544C60.3669 -3.28544 60.1914 -3.13333 60.0484 -2.94912C59.9082 -2.77584 59.8049 -2.58685 59.7383 -2.38214C59.6787 -2.18143 59.6538 -1.96848 59.6638 -1.74327C59.6766 -1.52899 59.7321 -1.32086 59.8303 -1.11887L62.7609 -2.81087ZM63.9762 -2.98596C64.0082 -2.93054 64.0402 -2.87511 64.0722 -2.81969C64.1042 -2.76426 64.1327 -2.70684 64.1578 -2.64741L60.2503 -0.39141C60.3772 -0.187564 60.5362 -0.0161099 60.7274 0.122952C60.9214 0.251085 61.1312 0.342434 61.3567 0.396998C61.5782 0.444633 61.8045 0.452556 62.0355 0.420767C62.2735 0.384977 62.4999 0.305082 62.7147 0.181082C63.0472 -0.010918 63.2928 -0.249664 63.4513 -0.535156C63.6097 -0.820649 63.6983 -1.10732 63.7168 -1.39516L64.7207 -1.24037C64.6575 -0.741962 64.4937 -0.305618 64.2294 0.0686587C63.9681 0.432008 63.6192 0.739682 63.1827 0.991682C62.8086 1.20768 62.4262 1.34533 62.0355 1.40462C61.6448 1.46391 61.2711 1.44871 60.9145 1.35901C60.5538 1.26237 60.2157 1.09271 59.9001 0.850013C59.5844 0.607316 59.3146 0.291977 59.0906 -0.0960021C58.8706 -0.477053 58.731 -0.862927 58.6717 -1.25362C58.6153 -1.65525 58.6354 -2.03638 58.7321 -2.39701C58.8287 -2.75764 58.9969 -3.09031 59.2367 -3.39502C59.4724 -3.70665 59.7705 -3.96647 60.1307 -4.17447C60.491 -4.38247 60.8506 -4.51158 61.2096 -4.5618C61.5755 -4.61602 61.9229 -4.59028 62.2519 -4.48458C62.5877 -4.38288 62.9031 -4.20468 63.1979 -3.94998C63.4888 -3.70221 63.7482 -3.38087 63.9762 -2.98596ZM68.7182 -6.25032C68.5993 -6.44031 68.4606 -6.60045 68.3023 -6.73072C68.1469 -6.87193 67.9743 -6.97089 67.7845 -7.02759C67.6016 -7.0883 67.4036 -7.1033 67.1904 -7.07258C66.9801 -7.05279 66.7607 -6.97689 66.532 -6.84489C66.3242 -6.72489 66.1487 -6.57279 66.0057 -6.38858C65.8655 -6.2153 65.7622 -6.0263 65.6956 -5.82159C65.636 -5.62089 65.6111 -5.40793 65.6211 -5.18272C65.6339 -4.96845 65.6894 -4.76031 65.7876 -4.55832L68.7182 -6.25032ZM69.9335 -6.42542C69.9655 -6.36999 69.9975 -6.31457 70.0295 -6.25914C70.0615 -6.20371 70.09 -6.14629 70.1151 -6.08686L66.2076 -3.83086C66.3345 -3.62702 66.4935 -3.45556 66.6847 -3.3165C66.8788 -3.18837 67.0885 -3.09702 67.314 -3.04246C67.5355 -2.99482 67.7618 -2.9869 67.9929 -3.01869C68.2308 -3.05448 68.4572 -3.13437 68.672 -3.25837C69.0046 -3.45037 69.2501 -3.68912 69.4086 -3.97461C69.5671 -4.2601 69.6556 -4.54677 69.6741 -4.83462L70.678 -4.67982C70.6148 -4.18141 70.451 -3.74507 70.1867 -3.37079C69.9254 -3.00745 69.5765 -2.69977 69.14 -2.44777C68.7659 -2.23177 68.3835 -2.09413 67.9928 -2.03483C67.6021 -1.97554 67.2284 -1.99075 66.8718 -2.08045C66.5111 -2.17708 66.173 -2.34674 65.8574 -2.58944C65.5417 -2.83214 65.2719 -3.14748 65.0479 -3.53546C64.8279 -3.91651 64.6883 -4.30238 64.629 -4.69308C64.5726 -5.0947 64.5928 -5.47583 64.6894 -5.83646C64.786 -6.19709 64.9542 -6.52976 65.194 -6.83447C65.4298 -7.14611 65.7278 -7.40592 66.088 -7.61392C66.4483 -7.82192 66.8079 -7.95103 67.1669 -8.00125C67.5328 -8.05548 67.8802 -8.02973 68.2092 -7.92403C68.545 -7.82233 68.8604 -7.64413 69.1552 -7.38943C69.4461 -7.14166 69.7055 -6.82032 69.9335 -6.42542Z" fill="white" fill-opacity="0.3"/>
<path d="M86.6049 22.9106C86.2432 22.7961 85.8471 22.7661 85.4167 22.8206C84.9932 22.8711 84.5702 23.0184 84.1475 23.2624C83.718 23.5104 83.376 23.814 83.1216 24.1734C82.8632 24.5258 82.6907 24.9071 82.6042 25.3173C82.5178 25.7275 82.5127 26.1507 82.5891 26.587C82.6614 27.0163 82.8136 27.4319 83.0456 27.8338C83.2816 28.2425 83.5694 28.589 83.9091 28.8733C84.2487 29.1576 84.6178 29.3648 85.0162 29.495C85.4107 29.6183 85.8286 29.6541 86.27 29.6026C86.7113 29.551 87.1502 29.3992 87.5867 29.1472C87.9331 28.9472 88.2338 28.732 88.4888 28.5017C88.7438 28.2713 88.9447 28.0352 89.0914 27.7935L87.9094 25.7462L86.2778 26.6882L85.7738 25.8152L88.4239 24.2852L90.4819 27.8498C90.2139 28.2816 89.8833 28.685 89.49 29.0598C89.0968 29.4347 88.6299 29.7781 88.0895 30.0901C87.5145 30.4221 86.9305 30.6346 86.3375 30.7275C85.7475 30.8095 85.1812 30.7808 84.6388 30.6413C84.0924 30.4949 83.5862 30.2421 83.1202 29.883C82.6502 29.517 82.2512 29.0499 81.9232 28.4818C81.5912 27.9067 81.3862 27.3276 81.3082 26.7445C81.2331 26.1505 81.2728 25.5872 81.4272 25.0546C81.5846 24.5111 81.8482 24.0079 82.2183 23.5448C82.5883 23.0818 83.054 22.6882 83.6151 22.3642C84.204 22.0242 84.7771 21.8088 85.3344 21.718C85.8986 21.6232 86.4171 21.6333 86.8899 21.7483L86.6049 22.9106ZM93.6877 22.3547C93.4757 21.9875 93.2088 21.7813 92.8871 21.7361C92.5614 21.6839 92.215 21.7639 91.8478 21.9759C91.5706 22.1359 91.3394 22.3433 91.154 22.5982C90.9715 22.8421 90.8451 23.0952 90.7748 23.3575L89.8952 23.0339C90.0057 22.6653 90.1961 22.3152 90.4665 21.9835C90.7439 21.6479 91.0835 21.3641 91.4853 21.1321C91.8386 20.9281 92.1735 20.804 92.4898 20.7599C92.8091 20.7049 93.1019 20.716 93.3682 20.7932C93.6344 20.8705 93.8771 21.0028 94.0963 21.1904C94.3154 21.378 94.503 21.6068 94.659 21.877L95.901 24.0282C95.997 24.1945 96.1024 24.3692 96.2174 24.5522C96.3352 24.7244 96.442 24.8613 96.5377 24.9631L95.6544 25.4731C95.463 25.2696 95.2992 25.05 95.1632 24.8144L95.1321 24.8324C95.1039 25.1997 94.9933 25.5361 94.8002 25.8416C94.614 26.1431 94.3338 26.4018 93.9597 26.6178C93.7657 26.7298 93.5453 26.8201 93.2985 26.8887C93.0627 26.9602 92.8242 26.987 92.583 26.9693C92.3418 26.9515 92.1063 26.8796 91.8765 26.7536C91.6536 26.6236 91.4602 26.4166 91.2962 26.1325C91.0802 25.7584 91.0107 25.406 91.0876 25.0752C91.1605 24.7375 91.3278 24.4192 91.5894 24.1204C91.847 23.8146 92.1702 23.5264 92.559 23.2557C92.9478 22.9851 93.35 22.7298 93.7657 22.4898L93.6877 22.3547ZM93.9347 23.3345C93.6922 23.4745 93.4453 23.6308 93.194 23.8036C92.9497 23.9724 92.7381 24.15 92.5593 24.3363C92.3875 24.5187 92.2683 24.7122 92.2017 24.9169C92.1352 25.1216 92.1619 25.3279 92.2819 25.5358C92.3659 25.6813 92.4636 25.7865 92.575 25.8515C92.6934 25.9125 92.819 25.9462 92.952 25.9525C93.085 25.9589 93.2184 25.9419 93.3522 25.9016C93.482 25.8544 93.6092 25.7948 93.7339 25.7228C94.1912 25.4588 94.4631 25.1217 94.5496 24.7115C94.639 24.2904 94.5637 23.872 94.3237 23.4563L94.1737 23.1965L93.9347 23.3345ZM98.6329 18.8483C98.4181 18.7322 98.1782 18.6767 97.9133 18.6818C97.6443 18.68 97.3852 18.7511 97.1358 18.8951C97.0249 18.9591 96.9221 19.037 96.8272 19.1287C96.7284 19.2135 96.6499 19.3096 96.5918 19.417C96.5367 19.5135 96.5054 19.6193 96.498 19.7345C96.4935 19.8387 96.5252 19.9497 96.5932 20.0675C96.7132 20.2753 96.8968 20.3772 97.1438 20.3731C97.3869 20.3621 97.7195 20.2902 98.1416 20.1573C98.4092 20.0767 98.6654 20.0166 98.9103 19.9768C99.1552 19.937 99.3845 19.934 99.5979 19.9678C99.8144 19.9906 100.01 20.0577 100.185 20.1691C100.36 20.2804 100.51 20.4435 100.634 20.6582C100.802 20.9492 100.889 21.2272 100.894 21.4921C100.899 21.757 100.846 22.0093 100.735 22.2489C100.627 22.4776 100.471 22.6877 100.267 22.8791C100.064 23.0705 99.8373 23.2383 99.5878 23.3823C99.2137 23.5983 98.8045 23.7375 98.3603 23.8C97.9229 23.8585 97.5005 23.8068 97.0929 23.6449L97.4472 22.6506C97.6908 22.7685 97.965 22.8274 98.2696 22.827C98.5812 22.8226 98.8755 22.7404 99.1526 22.5804C99.2773 22.5084 99.3891 22.4301 99.488 22.3453C99.5897 22.2496 99.6697 22.148 99.7277 22.0406C99.7927 21.9291 99.8269 21.8124 99.8304 21.6903C99.8338 21.5683 99.7955 21.4379 99.7155 21.2994C99.5835 21.0707 99.3747 20.965 99.089 20.9822C98.8102 20.9953 98.4315 21.0754 97.9529 21.2224C97.7626 21.2768 97.5648 21.3263 97.3596 21.3709C97.1574 21.4045 96.9569 21.4094 96.7584 21.3855C96.5598 21.3616 96.3715 21.2994 96.1934 21.199C96.0183 21.0876 95.8647 20.9176 95.7327 20.689C95.5807 20.4257 95.5027 20.1706 95.4986 19.9235C95.4975 19.6655 95.5495 19.4276 95.6547 19.2098C95.7559 18.9851 95.9014 18.7811 96.0911 18.5976C96.2768 18.4073 96.4874 18.2441 96.7229 18.1081C97.0763 17.9041 97.4558 17.7774 97.8614 17.728C98.2739 17.6745 98.6463 17.7274 98.9784 17.8867L98.6329 18.8483ZM106.393 19.2731L105.364 19.8671L101.116 12.5094L105.71 9.85739L106.232 10.7615L102.667 12.8195L103.987 15.1058L107.323 13.1798L107.833 14.0632L104.497 15.9892L106.393 19.2731ZM108.55 12.873C108.474 12.7414 108.373 12.5736 108.246 12.3698C108.119 12.1659 108.003 11.9883 107.897 11.837L108.822 11.303C108.908 11.4197 109.002 11.5592 109.105 11.7215C109.204 11.8768 109.283 12.0065 109.343 12.1104L109.375 12.0924C109.345 11.7214 109.412 11.3733 109.575 11.0481C109.741 10.712 109.991 10.4479 110.323 10.2559C110.476 10.1679 110.612 10.1077 110.732 10.0755L111.212 11.0036C111.054 11.0489 110.895 11.1176 110.735 11.2096C110.5 11.3456 110.322 11.5087 110.2 11.6987C110.075 11.8819 109.996 12.0802 109.962 12.2937C109.935 12.5032 109.95 12.7209 110.006 12.9469C110.059 13.166 110.145 13.3794 110.265 13.5873L111.759 16.1749L110.782 16.7389L108.55 12.873ZM116.297 9.68913C116.178 9.49914 116.039 9.33901 115.881 9.20873C115.726 9.06752 115.553 8.96857 115.363 8.91186C115.18 8.85115 114.982 8.83616 114.769 8.86688C114.559 8.88667 114.339 8.96256 114.111 9.09456C113.903 9.21456 113.728 9.36667 113.585 9.55088C113.444 9.72416 113.341 9.91315 113.274 10.1179C113.215 10.3186 113.19 10.5315 113.2 10.7567C113.213 10.971 113.268 11.1791 113.366 11.3811L116.297 9.68913ZM117.512 9.51404C117.544 9.56946 117.576 9.62489 117.608 9.68031C117.64 9.73574 117.669 9.79316 117.694 9.85259L113.786 12.1086C113.913 12.3124 114.072 12.4839 114.264 12.623C114.458 12.7511 114.667 12.8424 114.893 12.897C115.114 12.9446 115.341 12.9526 115.572 12.9208C115.81 12.885 116.036 12.8051 116.251 12.6811C116.583 12.4891 116.829 12.2503 116.987 11.9648C117.146 11.6794 117.234 11.3927 117.253 11.1048L118.257 11.2596C118.194 11.758 118.03 12.1944 117.766 12.5687C117.504 12.932 117.155 13.2397 116.719 13.4917C116.345 13.7077 115.962 13.8453 115.572 13.9046C115.181 13.9639 114.807 13.9487 114.451 13.859C114.09 13.7624 113.752 13.5927 113.436 13.35C113.121 13.1073 112.851 12.792 112.627 12.404C112.407 12.0229 112.267 11.6371 112.208 11.2464C112.151 10.8447 112.172 10.4636 112.268 10.103C112.365 9.74236 112.533 9.40969 112.773 9.10498C113.009 8.79335 113.307 8.53353 113.667 8.32553C114.027 8.11753 114.387 7.98842 114.746 7.9382C115.112 7.88398 115.459 7.90972 115.788 8.01542C116.124 8.11712 116.439 8.29532 116.734 8.55002C117.025 8.79779 117.284 9.11913 117.512 9.51404ZM122.254 6.24968C122.135 6.05969 121.997 5.89955 121.838 5.76928C121.683 5.62807 121.51 5.52911 121.321 5.47241C121.138 5.4117 120.94 5.3967 120.727 5.42742C120.516 5.44721 120.297 5.52311 120.068 5.65511C119.86 5.77511 119.685 5.92721 119.542 6.11142C119.402 6.2847 119.298 6.4737 119.232 6.67841C119.172 6.87911 119.147 7.09207 119.157 7.31728C119.17 7.53155 119.226 7.73969 119.324 7.94168L122.254 6.24968ZM123.47 6.07458C123.502 6.13001 123.534 6.18543 123.566 6.24086C123.598 6.29629 123.626 6.35371 123.651 6.41314L119.744 8.66914C119.871 8.87298 120.03 9.04444 120.221 9.1835C120.415 9.31163 120.625 9.40298 120.85 9.45754C121.072 9.50518 121.298 9.5131 121.529 9.48131C121.767 9.44552 121.993 9.36563 122.208 9.24163C122.541 9.04963 122.786 8.81088 122.945 8.52539C123.103 8.2399 123.192 7.95323 123.21 7.66538L124.214 7.82018C124.151 8.31859 123.987 8.75493 123.723 9.12921C123.462 9.49255 123.113 9.80023 122.676 10.0522C122.302 10.2682 121.92 10.4059 121.529 10.4652C121.138 10.5245 120.765 10.5093 120.408 10.4196C120.047 10.3229 119.709 10.1533 119.394 9.91056C119.078 9.66786 118.808 9.35252 118.584 8.96454C118.364 8.58349 118.224 8.19762 118.165 7.80692C118.109 7.4053 118.129 7.02417 118.226 6.66354C118.322 6.30291 118.49 5.97024 118.73 5.66553C118.966 5.35389 119.264 5.09408 119.624 4.88608C119.984 4.67808 120.344 4.54897 120.703 4.49875C121.069 4.44452 121.416 4.47027 121.745 4.57597C122.081 4.67767 122.396 4.85587 122.691 5.11057C122.982 5.35834 123.242 5.67968 123.47 6.07458Z" fill="white" fill-opacity="0.3"/>
<path d="M456.605 24.9106C456.243 24.7961 455.847 24.7661 455.417 24.8206C454.993 24.8711 454.57 25.0184 454.148 25.2624C453.718 25.5104 453.376 25.814 453.122 26.1734C452.863 26.5258 452.691 26.9071 452.604 27.3173C452.518 27.7275 452.513 28.1507 452.589 28.587C452.661 29.0163 452.814 29.4319 453.046 29.8338C453.282 30.2425 453.569 30.589 453.909 30.8733C454.249 31.1576 454.618 31.3648 455.016 31.495C455.411 31.6183 455.829 31.6541 456.27 31.6026C456.711 31.551 457.15 31.3992 457.587 31.1472C457.933 30.9472 458.234 30.732 458.489 30.5017C458.744 30.2713 458.945 30.0352 459.091 29.7935L457.909 27.7462L456.278 28.6882L455.774 27.8152L458.424 26.2852L460.482 29.8498C460.214 30.2816 459.883 30.685 459.49 31.0598C459.097 31.4347 458.63 31.7781 458.09 32.0901C457.514 32.4221 456.93 32.6346 456.338 32.7275C455.747 32.8095 455.181 32.7808 454.639 32.6413C454.092 32.4949 453.586 32.2421 453.12 31.883C452.65 31.517 452.251 31.0499 451.923 30.4818C451.591 29.9067 451.386 29.3276 451.308 28.7445C451.233 28.1505 451.273 27.5872 451.427 27.0546C451.585 26.5111 451.848 26.0079 452.218 25.5448C452.588 25.0818 453.054 24.6882 453.615 24.3642C454.204 24.0242 454.777 23.8088 455.334 23.718C455.899 23.6232 456.417 23.6333 456.89 23.7483L456.605 24.9106ZM463.688 24.3547C463.476 23.9875 463.209 23.7813 462.887 23.7361C462.561 23.6839 462.215 23.7639 461.848 23.9759C461.571 24.1359 461.339 24.3433 461.154 24.5982C460.971 24.8421 460.845 25.0952 460.775 25.3575L459.895 25.0339C460.006 24.6653 460.196 24.3152 460.467 23.9835C460.744 23.6479 461.083 23.3641 461.485 23.1321C461.839 22.9281 462.173 22.804 462.49 22.7599C462.809 22.7049 463.102 22.716 463.368 22.7932C463.634 22.8705 463.877 23.0028 464.096 23.1904C464.315 23.378 464.503 23.6068 464.659 23.877L465.901 26.0282C465.997 26.1945 466.102 26.3692 466.217 26.5522C466.335 26.7244 466.442 26.8613 466.538 26.9631L465.654 27.4731C465.463 27.2696 465.299 27.05 465.163 26.8144L465.132 26.8324C465.104 27.1997 464.993 27.5361 464.8 27.8416C464.614 28.1431 464.334 28.4018 463.96 28.6178C463.766 28.7298 463.545 28.8201 463.299 28.8887C463.063 28.9602 462.824 28.987 462.583 28.9693C462.342 28.9515 462.106 28.8796 461.876 28.7536C461.654 28.6236 461.46 28.4166 461.296 28.1325C461.08 27.7584 461.011 27.406 461.088 27.0752C461.161 26.7375 461.328 26.4192 461.589 26.1204C461.847 25.8146 462.17 25.5264 462.559 25.2557C462.948 24.9851 463.35 24.7298 463.766 24.4898L463.688 24.3547ZM463.935 25.3345C463.692 25.4745 463.445 25.6308 463.194 25.8036C462.95 25.9724 462.738 26.15 462.559 26.3363C462.387 26.5187 462.268 26.7122 462.202 26.9169C462.135 27.1216 462.162 27.3279 462.282 27.5358C462.366 27.6813 462.464 27.7865 462.575 27.8515C462.693 27.9125 462.819 27.9462 462.952 27.9525C463.085 27.9589 463.218 27.9419 463.352 27.9016C463.482 27.8544 463.609 27.7948 463.734 27.7228C464.191 27.4588 464.463 27.1217 464.55 26.7115C464.639 26.2904 464.564 25.872 464.324 25.4563L464.174 25.1965L463.935 25.3345ZM468.633 20.8483C468.418 20.7322 468.178 20.6767 467.913 20.6818C467.644 20.68 467.385 20.7511 467.136 20.8951C467.025 20.9591 466.922 21.037 466.827 21.1287C466.728 21.2135 466.65 21.3096 466.592 21.417C466.537 21.5135 466.505 21.6193 466.498 21.7345C466.493 21.8387 466.525 21.9497 466.593 22.0675C466.713 22.2753 466.897 22.3772 467.144 22.3731C467.387 22.3621 467.719 22.2902 468.142 22.1573C468.409 22.0767 468.665 22.0166 468.91 21.9768C469.155 21.937 469.384 21.934 469.598 21.9678C469.814 21.9906 470.01 22.0577 470.185 22.1691C470.36 22.2804 470.51 22.4435 470.634 22.6582C470.802 22.9492 470.889 23.2272 470.894 23.4921C470.899 23.757 470.846 24.0093 470.735 24.2489C470.627 24.4776 470.471 24.6877 470.267 24.8791C470.064 25.0705 469.837 25.2383 469.588 25.3823C469.214 25.5983 468.805 25.7375 468.36 25.8C467.923 25.8585 467.5 25.8068 467.093 25.6449L467.447 24.6506C467.691 24.7685 467.965 24.8274 468.27 24.827C468.581 24.8226 468.876 24.7404 469.153 24.5804C469.277 24.5084 469.389 24.4301 469.488 24.3453C469.59 24.2496 469.67 24.148 469.728 24.0406C469.793 23.9291 469.827 23.8124 469.83 23.6903C469.834 23.5683 469.796 23.4379 469.716 23.2994C469.584 23.0707 469.375 22.965 469.089 22.9822C468.81 22.9953 468.431 23.0754 467.953 23.2224C467.763 23.2768 467.565 23.3263 467.36 23.3709C467.157 23.4045 466.957 23.4094 466.758 23.3855C466.56 23.3616 466.371 23.2994 466.193 23.199C466.018 23.0876 465.865 22.9176 465.733 22.689C465.581 22.4257 465.503 22.1706 465.499 21.9235C465.497 21.6655 465.549 21.4276 465.655 21.2098C465.756 20.9851 465.901 20.7811 466.091 20.5976C466.277 20.4073 466.487 20.2441 466.723 20.1081C467.076 19.9041 467.456 19.7774 467.861 19.728C468.274 19.6745 468.646 19.7274 468.978 19.8867L468.633 20.8483ZM476.393 21.2731L475.364 21.8671L471.116 14.5094L475.71 11.8574L476.232 12.7615L472.667 14.8195L473.987 17.1058L477.323 15.1798L477.833 16.0632L474.497 17.9892L476.393 21.2731ZM478.55 14.873C478.474 14.7414 478.373 14.5736 478.246 14.3698C478.119 14.1659 478.003 13.9883 477.897 13.837L478.822 13.303C478.908 13.4197 479.002 13.5592 479.105 13.7215C479.204 13.8768 479.283 14.0065 479.343 14.1104L479.375 14.0924C479.345 13.7214 479.412 13.3733 479.575 13.0481C479.741 12.712 479.991 12.4479 480.323 12.2559C480.476 12.1679 480.612 12.1077 480.732 12.0755L481.212 13.0036C481.054 13.0489 480.895 13.1176 480.735 13.2096C480.5 13.3456 480.322 13.5087 480.2 13.6987C480.075 13.8819 479.996 14.0802 479.962 14.2937C479.935 14.5032 479.95 14.7209 480.006 14.9469C480.059 15.166 480.145 15.3794 480.265 15.5873L481.759 18.1749L480.782 18.7389L478.55 14.873ZM486.297 11.6891C486.178 11.4991 486.039 11.339 485.881 11.2087C485.726 11.0675 485.553 10.9686 485.363 10.9119C485.18 10.8512 484.982 10.8362 484.769 10.8669C484.559 10.8867 484.339 10.9626 484.111 11.0946C483.903 11.2146 483.728 11.3667 483.585 11.5509C483.444 11.7242 483.341 11.9132 483.274 12.1179C483.215 12.3186 483.19 12.5315 483.2 12.7567C483.213 12.971 483.268 13.1791 483.366 13.3811L486.297 11.6891ZM487.512 11.514C487.544 11.5695 487.576 11.6249 487.608 11.6803C487.64 11.7357 487.669 11.7932 487.694 11.8526L483.786 14.1086C483.913 14.3124 484.072 14.4839 484.264 14.623C484.458 14.7511 484.667 14.8424 484.893 14.897C485.114 14.9446 485.341 14.9526 485.572 14.9208C485.81 14.885 486.036 14.8051 486.251 14.6811C486.583 14.4891 486.829 14.2503 486.987 13.9648C487.146 13.6794 487.234 13.3927 487.253 13.1048L488.257 13.2596C488.194 13.758 488.03 14.1944 487.766 14.5687C487.504 14.932 487.155 15.2397 486.719 15.4917C486.345 15.7077 485.962 15.8453 485.572 15.9046C485.181 15.9639 484.807 15.9487 484.451 15.859C484.09 15.7624 483.752 15.5927 483.436 15.35C483.121 15.1073 482.851 14.792 482.627 14.404C482.407 14.0229 482.267 13.6371 482.208 13.2464C482.151 12.8447 482.172 12.4636 482.268 12.103C482.365 11.7424 482.533 11.4097 482.773 11.105C483.009 10.7933 483.307 10.5335 483.667 10.3255C484.027 10.1175 484.387 9.98842 484.746 9.9382C485.112 9.88398 485.459 9.90972 485.788 10.0154C486.124 10.1171 486.439 10.2953 486.734 10.55C487.025 10.7978 487.284 11.1191 487.512 11.514ZM492.254 8.24968C492.135 8.05969 491.997 7.89955 491.838 7.76928C491.683 7.62807 491.51 7.52911 491.321 7.47241C491.138 7.4117 490.94 7.3967 490.727 7.42742C490.516 7.44721 490.297 7.52311 490.068 7.65511C489.86 7.77511 489.685 7.92721 489.542 8.11142C489.402 8.2847 489.298 8.4737 489.232 8.67841C489.172 8.87911 489.147 9.09207 489.157 9.31728C489.17 9.53155 489.226 9.73969 489.324 9.94168L492.254 8.24968ZM493.47 8.07458C493.502 8.13001 493.534 8.18543 493.566 8.24086C493.598 8.29629 493.626 8.35371 493.651 8.41314L489.744 10.6691C489.871 10.873 490.03 11.0444 490.221 11.1835C490.415 11.3116 490.625 11.403 490.85 11.4575C491.072 11.5052 491.298 11.5131 491.529 11.4813C491.767 11.4455 491.993 11.3656 492.208 11.2416C492.541 11.0496 492.786 10.8109 492.945 10.5254C493.103 10.2399 493.192 9.95323 493.21 9.66538L494.214 9.82018C494.151 10.3186 493.987 10.7549 493.723 11.1292C493.462 11.4926 493.113 11.8002 492.676 12.0522C492.302 12.2682 491.92 12.4059 491.529 12.4652C491.138 12.5245 490.765 12.5093 490.408 12.4196C490.047 12.3229 489.709 12.1533 489.394 11.9106C489.078 11.6679 488.808 11.3525 488.584 10.9645C488.364 10.5835 488.224 10.1976 488.165 9.80692C488.109 9.4053 488.129 9.02417 488.226 8.66354C488.322 8.30291 488.49 7.97024 488.73 7.66553C488.966 7.35389 489.264 7.09408 489.624 6.88608C489.984 6.67808 490.344 6.54897 490.703 6.49875C491.069 6.44452 491.416 6.47027 491.745 6.57597C492.081 6.67767 492.396 6.85587 492.691 7.11057C492.982 7.35834 493.242 7.67968 493.47 8.07458Z" fill="white" fill-opacity="0.3"/>
<path d="M400.605 8.91056C400.243 8.79607 399.847 8.76608 399.417 8.82059C398.993 8.8711 398.57 9.01835 398.148 9.26235C397.718 9.51035 397.376 9.81403 397.122 10.1734C396.863 10.5258 396.691 10.9071 396.604 11.3173C396.518 11.7275 396.513 12.1507 396.589 12.587C396.661 13.0163 396.814 13.4319 397.046 13.8338C397.282 14.2425 397.569 14.589 397.909 14.8733C398.249 15.1576 398.618 15.3648 399.016 15.495C399.411 15.6183 399.829 15.6541 400.27 15.6026C400.711 15.551 401.15 15.3992 401.587 15.1472C401.933 14.9472 402.234 14.732 402.489 14.5017C402.744 14.2713 402.945 14.0352 403.091 13.7935L401.909 11.7462L400.278 12.6882L399.774 11.8152L402.424 10.2852L404.482 13.8498C404.214 14.2816 403.883 14.685 403.49 15.0598C403.097 15.4347 402.63 15.7781 402.09 16.0901C401.514 16.4221 400.93 16.6346 400.338 16.7275C399.747 16.8095 399.181 16.7808 398.639 16.6413C398.092 16.4949 397.586 16.2421 397.12 15.883C396.65 15.517 396.251 15.0499 395.923 14.4818C395.591 13.9067 395.386 13.3276 395.308 12.7445C395.233 12.1505 395.273 11.5872 395.427 11.0546C395.585 10.5111 395.848 10.0079 396.218 9.54481C396.588 9.08175 397.054 8.68822 397.615 8.36422C398.204 8.02422 398.777 7.80882 399.334 7.71803C399.899 7.62323 400.417 7.63333 400.89 7.74831L400.605 8.91056ZM407.688 8.35468C407.476 7.98748 407.209 7.78128 406.887 7.73608C406.561 7.68394 406.215 7.76388 405.848 7.97588C405.571 8.13588 405.339 8.3433 405.154 8.59815C404.971 8.84208 404.845 9.09518 404.775 9.35745L403.895 9.03391C404.006 8.66528 404.196 8.31515 404.467 7.98351C404.744 7.64788 405.083 7.36406 405.485 7.13206C405.839 6.92806 406.173 6.80402 406.49 6.75995C406.809 6.70494 407.102 6.71604 407.368 6.79324C407.634 6.87045 407.877 7.00283 408.096 7.19039C408.315 7.37795 408.503 7.60683 408.659 7.87703L409.901 10.0282C409.997 10.1945 410.102 10.3692 410.217 10.5522C410.335 10.7244 410.442 10.8613 410.538 10.9631L409.654 11.4731C409.463 11.2696 409.299 11.05 409.163 10.8144L409.132 10.8324C409.104 11.1997 408.993 11.5361 408.8 11.8416C408.614 12.1431 408.334 12.4018 407.96 12.6178C407.766 12.7298 407.545 12.8201 407.299 12.8887C407.063 12.9602 406.824 12.987 406.583 12.9693C406.342 12.9515 406.106 12.8796 405.876 12.7536C405.654 12.6236 405.46 12.4166 405.296 12.1325C405.08 11.7584 405.011 11.406 405.088 11.0752C405.161 10.7375 405.328 10.4192 405.589 10.1204C405.847 9.81459 406.17 9.52638 406.559 9.25574C406.948 8.9851 407.35 8.72978 407.766 8.48978L407.688 8.35468ZM407.935 9.33445C407.692 9.47445 407.445 9.63084 407.194 9.80363C406.95 9.97241 406.738 10.15 406.559 10.3363C406.387 10.5187 406.268 10.7122 406.202 10.9169C406.135 11.1216 406.162 11.3279 406.282 11.5358C406.366 11.6813 406.464 11.7865 406.575 11.8515C406.693 11.9125 406.819 11.9462 406.952 11.9525C407.085 11.9589 407.218 11.9419 407.352 11.9016C407.482 11.8544 407.609 11.7948 407.734 11.7228C408.191 11.4588 408.463 11.1217 408.55 10.7115C408.639 10.2904 408.564 9.87195 408.324 9.45626L408.174 9.19645L407.935 9.33445ZM412.633 4.84828C412.418 4.73215 412.178 4.67666 411.913 4.68181C411.644 4.68003 411.385 4.75114 411.136 4.89514C411.025 4.95914 410.922 5.03699 410.827 5.12871C410.728 5.21349 410.65 5.3096 410.592 5.41702C410.537 5.51352 410.505 5.61934 410.498 5.73448C410.493 5.83869 410.525 5.94968 410.593 6.06746C410.713 6.27531 410.897 6.37719 411.144 6.37311C411.387 6.36211 411.719 6.29018 412.142 6.15731C412.409 6.07674 412.665 6.01656 412.91 5.97677C413.155 5.93698 413.384 5.93397 413.598 5.96775C413.814 5.9906 414.01 6.0577 414.185 6.16905C414.36 6.2804 414.51 6.44346 414.634 6.65824C414.802 6.94922 414.889 7.22717 414.894 7.49209C414.899 7.75701 414.846 8.00929 414.735 8.24892C414.627 8.47763 414.471 8.6877 414.267 8.87912C414.064 9.07055 413.837 9.23826 413.588 9.38226C413.214 9.59826 412.805 9.73751 412.36 9.80002C411.923 9.85853 411.5 9.80683 411.093 9.64491L411.447 8.65055C411.691 8.76854 411.965 8.82736 412.27 8.82699C412.581 8.82263 412.876 8.74044 413.153 8.58044C413.277 8.50844 413.389 8.43005 413.488 8.34527C413.59 8.24956 413.67 8.14799 413.728 8.04056C413.793 7.92913 413.827 7.81239 413.83 7.69032C413.834 7.56826 413.796 7.43794 413.716 7.29938C413.584 7.07075 413.375 6.965 413.089 6.98215C412.81 6.9953 412.431 7.07538 411.953 7.22238C411.763 7.27681 411.565 7.32632 411.36 7.37089C411.157 7.40454 410.957 7.4094 410.758 7.38548C410.56 7.36155 410.371 7.29938 410.193 7.19896C410.018 7.08761 409.865 6.91762 409.733 6.68899C409.581 6.42572 409.503 6.17055 409.499 5.92349C409.497 5.6655 409.549 5.42762 409.655 5.20984C409.756 4.98513 409.901 4.78106 410.091 4.59764C410.277 4.40728 410.487 4.24411 410.723 4.10811C411.076 3.90411 411.456 3.77739 411.861 3.72795C412.274 3.67452 412.646 3.72744 412.978 3.88671L412.633 4.84828ZM420.393 5.27314L419.364 5.86714L415.116 -1.49061L419.71 -4.14261L420.232 -3.23848L416.667 -1.18048L417.987 1.10583L421.323 -0.82017L421.833 0.0631758L418.497 1.98918L420.393 5.27314ZM422.55 -1.127C422.474 -1.25863 422.373 -1.42637 422.246 -1.63022C422.119 -1.83407 422.003 -2.01166 421.897 -2.16301L422.822 -2.69701C422.908 -2.5803 423.002 -2.44081 423.105 -2.27853C423.204 -2.12319 423.283 -1.99355 423.343 -1.88963L423.375 -1.90763C423.345 -2.27861 423.412 -2.62671 423.575 -2.95191C423.741 -3.28804 423.991 -3.55211 424.323 -3.74411C424.476 -3.83211 424.612 -3.89225 424.732 -3.92454L425.212 -2.99641C425.054 -2.95105 424.895 -2.88237 424.735 -2.79037C424.5 -2.65437 424.322 -2.49134 424.2 -2.30127C424.075 -2.11813 423.996 -1.91982 423.962 -1.70633C423.935 -1.49683 423.95 -1.27909 424.006 -1.0531C424.059 -0.834043 424.145 -0.620589 424.265 -0.412743L425.759 2.17494L424.782 2.73894L422.55 -1.127ZM430.297 -4.31087C430.178 -4.50086 430.039 -4.66099 429.881 -4.79127C429.726 -4.93248 429.553 -5.03143 429.363 -5.08814C429.18 -5.14885 428.982 -5.16384 428.769 -5.13312C428.559 -5.11333 428.339 -5.03744 428.111 -4.90544C427.903 -4.78544 427.728 -4.63333 427.585 -4.44912C427.444 -4.27584 427.341 -4.08685 427.274 -3.88214C427.215 -3.68143 427.19 -3.46848 427.2 -3.24327C427.213 -3.02899 427.268 -2.82086 427.366 -2.61887L430.297 -4.31087ZM431.512 -4.48596C431.544 -4.43054 431.576 -4.37511 431.608 -4.31969C431.64 -4.26426 431.669 -4.20684 431.694 -4.14741L427.786 -1.89141C427.913 -1.68756 428.072 -1.51611 428.264 -1.37705C428.458 -1.24892 428.667 -1.15757 428.893 -1.103C429.114 -1.05537 429.341 -1.04744 429.572 -1.07923C429.81 -1.11502 430.036 -1.19492 430.251 -1.31892C430.583 -1.51092 430.829 -1.74966 430.987 -2.03516C431.146 -2.32065 431.234 -2.60732 431.253 -2.89516L432.257 -2.74037C432.194 -2.24196 432.03 -1.80562 431.766 -1.43134C431.504 -1.06799 431.155 -0.760318 430.719 -0.508318C430.345 -0.292318 429.962 -0.154672 429.572 -0.0953795C429.181 -0.0360873 428.807 -0.0512924 428.451 -0.140995C428.09 -0.237626 427.752 -0.40729 427.436 -0.649987C427.121 -0.892684 426.851 -1.20802 426.627 -1.596C426.407 -1.97705 426.267 -2.36293 426.208 -2.75362C426.151 -3.15525 426.172 -3.53638 426.268 -3.89701C426.365 -4.25764 426.533 -4.59031 426.773 -4.89502C427.009 -5.20665 427.307 -5.46647 427.667 -5.67447C428.027 -5.88247 428.387 -6.01158 428.746 -6.0618C429.112 -6.11602 429.459 -6.09028 429.788 -5.98458C430.124 -5.88288 430.439 -5.70468 430.734 -5.44998C431.025 -5.20221 431.284 -4.88087 431.512 -4.48596ZM436.254 -7.75032C436.135 -7.94031 435.997 -8.10045 435.838 -8.23072C435.683 -8.37193 435.51 -8.47089 435.321 -8.52759C435.138 -8.5883 434.94 -8.6033 434.727 -8.57258C434.516 -8.55279 434.297 -8.47689 434.068 -8.34489C433.86 -8.22489 433.685 -8.07279 433.542 -7.88858C433.402 -7.7153 433.298 -7.5263 433.232 -7.32159C433.172 -7.12089 433.147 -6.90793 433.157 -6.68272C433.17 -6.46845 433.226 -6.26031 433.324 -6.05832L436.254 -7.75032ZM437.47 -7.92542C437.502 -7.86999 437.534 -7.81457 437.566 -7.75914C437.598 -7.70371 437.626 -7.64629 437.651 -7.58686L433.744 -5.33086C433.871 -5.12702 434.03 -4.95556 434.221 -4.8165C434.415 -4.68837 434.625 -4.59702 434.85 -4.54246C435.072 -4.49482 435.298 -4.4869 435.529 -4.51869C435.767 -4.55448 435.993 -4.63437 436.208 -4.75837C436.541 -4.95037 436.786 -5.18912 436.945 -5.47461C437.103 -5.7601 437.192 -6.04677 437.21 -6.33462L438.214 -6.17982C438.151 -5.68141 437.987 -5.24507 437.723 -4.87079C437.462 -4.50745 437.113 -4.19977 436.676 -3.94777C436.302 -3.73177 435.92 -3.59413 435.529 -3.53483C435.138 -3.47554 434.765 -3.49075 434.408 -3.58045C434.047 -3.67708 433.709 -3.84674 433.394 -4.08944C433.078 -4.33214 432.808 -4.64748 432.584 -5.03546C432.364 -5.41651 432.224 -5.80238 432.165 -6.19308C432.109 -6.5947 432.129 -6.97583 432.226 -7.33646C432.322 -7.69709 432.49 -8.02976 432.73 -8.33447C432.966 -8.64611 433.264 -8.90592 433.624 -9.11392C433.984 -9.32192 434.344 -9.45103 434.703 -9.50125C435.069 -9.55548 435.416 -9.52973 435.745 -9.42403C436.081 -9.32233 436.396 -9.14413 436.691 -8.88943C436.982 -8.64166 437.242 -8.32032 437.47 -7.92542Z" fill="white" fill-opacity="0.3"/>
<path d="M327.337 42.9106C326.975 42.7961 326.579 42.7661 326.149 42.8206C325.725 42.8711 325.302 43.0184 324.879 43.2624C324.45 43.5104 324.108 43.814 323.854 44.1734C323.595 44.5258 323.423 44.9071 323.336 45.3173C323.25 45.7275 323.245 46.1507 323.321 46.587C323.393 47.0163 323.546 47.4319 323.778 47.8338C324.014 48.2425 324.301 48.589 324.641 48.8733C324.981 49.1576 325.35 49.3648 325.748 49.495C326.143 49.6183 326.561 49.6541 327.002 49.6026C327.443 49.551 327.882 49.3992 328.319 49.1472C328.665 48.9472 328.966 48.732 329.221 48.5017C329.476 48.2713 329.677 48.0352 329.823 47.7935L328.641 45.7462L327.01 46.6882L326.506 45.8152L329.156 44.2852L331.214 47.8498C330.946 48.2816 330.615 48.685 330.222 49.0598C329.829 49.4347 329.362 49.7781 328.821 50.0901C328.246 50.4221 327.662 50.6346 327.069 50.7275C326.479 50.8095 325.913 50.7808 325.371 50.6413C324.824 50.4949 324.318 50.2421 323.852 49.883C323.382 49.517 322.983 49.0499 322.655 48.4818C322.323 47.9067 322.118 47.3276 322.04 46.7445C321.965 46.1505 322.005 45.5872 322.159 45.0546C322.316 44.5111 322.58 44.0079 322.95 43.5448C323.32 43.0818 323.786 42.6882 324.347 42.3642C324.936 42.0242 325.509 41.8088 326.066 41.718C326.631 41.6232 327.149 41.6333 327.622 41.7483L327.337 42.9106ZM334.42 42.3547C334.208 41.9875 333.941 41.7813 333.619 41.7361C333.293 41.6839 332.947 41.7639 332.58 41.9759C332.303 42.1359 332.071 42.3433 331.886 42.5982C331.703 42.8421 331.577 43.0952 331.507 43.3575L330.627 43.0339C330.738 42.6653 330.928 42.3152 331.198 41.9835C331.476 41.6479 331.815 41.3641 332.217 41.1321C332.571 40.9281 332.905 40.804 333.222 40.7599C333.541 40.7049 333.834 40.716 334.1 40.7932C334.366 40.8705 334.609 41.0028 334.828 41.1904C335.047 41.378 335.235 41.6068 335.391 41.877L336.633 44.0282C336.729 44.1945 336.834 44.3692 336.949 44.5522C337.067 44.7244 337.174 44.8613 337.27 44.9631L336.386 45.4731C336.195 45.2696 336.031 45.05 335.895 44.8144L335.864 44.8324C335.836 45.1997 335.725 45.5361 335.532 45.8416C335.346 46.1431 335.066 46.4018 334.692 46.6178C334.498 46.7298 334.277 46.8201 334.03 46.8887C333.795 46.9602 333.556 46.987 333.315 46.9693C333.074 46.9515 332.838 46.8796 332.608 46.7536C332.386 46.6236 332.192 46.4166 332.028 46.1325C331.812 45.7584 331.743 45.406 331.82 45.0752C331.892 44.7375 332.06 44.4192 332.321 44.1204C332.579 43.8146 332.902 43.5264 333.291 43.2557C333.68 42.9851 334.082 42.7298 334.498 42.4898L334.42 42.3547ZM334.667 43.3345C334.424 43.4745 334.177 43.6308 333.926 43.8036C333.682 43.9724 333.47 44.15 333.291 44.3363C333.119 44.5187 333 44.7122 332.934 44.9169C332.867 45.1216 332.894 45.3279 333.014 45.5358C333.098 45.6813 333.196 45.7865 333.307 45.8515C333.425 45.9125 333.551 45.9462 333.684 45.9525C333.817 45.9589 333.95 45.9419 334.084 45.9016C334.214 45.8544 334.341 45.7948 334.466 45.7228C334.923 45.4588 335.195 45.1217 335.281 44.7115C335.371 44.2904 335.296 43.872 335.056 43.4563L334.906 43.1965L334.667 43.3345ZM339.365 38.8483C339.15 38.7322 338.91 38.6767 338.645 38.6818C338.376 38.68 338.117 38.7511 337.868 38.8951C337.757 38.9591 337.654 39.037 337.559 39.1287C337.46 39.2135 337.382 39.3096 337.324 39.417C337.269 39.5135 337.237 39.6193 337.23 39.7345C337.225 39.8387 337.257 39.9497 337.325 40.0675C337.445 40.2753 337.629 40.3772 337.876 40.3731C338.119 40.3621 338.451 40.2902 338.874 40.1573C339.141 40.0767 339.397 40.0166 339.642 39.9768C339.887 39.937 340.116 39.934 340.33 39.9678C340.546 39.9906 340.742 40.0577 340.917 40.1691C341.092 40.2804 341.242 40.4435 341.366 40.6582C341.534 40.9492 341.62 41.2272 341.626 41.4921C341.631 41.757 341.578 42.0093 341.467 42.2489C341.359 42.4776 341.203 42.6877 340.999 42.8791C340.796 43.0705 340.569 43.2383 340.32 43.3823C339.946 43.5983 339.536 43.7375 339.092 43.8C338.655 43.8585 338.232 43.8068 337.825 43.6449L338.179 42.6506C338.423 42.7685 338.697 42.8274 339.002 42.827C339.313 42.8226 339.607 42.7404 339.885 42.5804C340.009 42.5084 340.121 42.4301 340.22 42.3453C340.322 42.2496 340.402 42.148 340.46 42.0406C340.525 41.9291 340.559 41.8124 340.562 41.6903C340.566 41.5683 340.527 41.4379 340.447 41.2994C340.315 41.0707 340.107 40.965 339.821 40.9822C339.542 40.9953 339.163 41.0754 338.685 41.2224C338.495 41.2768 338.297 41.3263 338.092 41.3709C337.889 41.4045 337.689 41.4094 337.49 41.3855C337.292 41.3616 337.103 41.2994 336.925 41.199C336.75 41.0876 336.597 40.9176 336.465 40.689C336.313 40.4257 336.235 40.1706 336.231 39.9235C336.229 39.6655 336.281 39.4276 336.387 39.2098C336.488 38.9851 336.633 38.7811 336.823 38.5976C337.009 38.4073 337.219 38.2441 337.455 38.1081C337.808 37.9041 338.188 37.7774 338.593 37.728C339.006 37.6745 339.378 37.7274 339.71 37.8867L339.365 38.8483ZM347.125 39.2731L346.096 39.8671L341.848 32.5094L346.442 29.8574L346.964 30.7615L343.399 32.8195L344.719 35.1058L348.055 33.1798L348.565 34.0632L345.229 35.9892L347.125 39.2731ZM349.282 32.873C349.206 32.7414 349.105 32.5736 348.978 32.3698C348.851 32.1659 348.735 31.9883 348.629 31.837L349.554 31.303C349.64 31.4197 349.734 31.5592 349.837 31.7215C349.936 31.8768 350.015 32.0065 350.075 32.1104L350.106 32.0924C350.077 31.7214 350.144 31.3733 350.307 31.0481C350.473 30.712 350.723 30.4479 351.055 30.2559C351.208 30.1679 351.344 30.1077 351.464 30.0755L351.944 31.0036C351.786 31.0489 351.627 31.1176 351.467 31.2096C351.232 31.3456 351.053 31.5087 350.932 31.6987C350.807 31.8819 350.728 32.0802 350.694 32.2937C350.667 32.5032 350.682 32.7209 350.738 32.9469C350.791 33.166 350.877 33.3794 350.997 33.5873L352.491 36.1749L351.514 36.7389L349.282 32.873ZM357.029 29.6891C356.91 29.4991 356.771 29.339 356.613 29.2087C356.458 29.0675 356.285 28.9686 356.095 28.9119C355.912 28.8512 355.714 28.8362 355.501 28.8669C355.291 28.8867 355.071 28.9626 354.843 29.0946C354.635 29.2146 354.46 29.3667 354.316 29.5509C354.176 29.7242 354.073 29.9132 354.006 30.1179C353.947 30.3186 353.922 30.5315 353.932 30.7567C353.945 30.971 354 31.1791 354.098 31.3811L357.029 29.6891ZM358.244 29.514C358.276 29.5695 358.308 29.6249 358.34 29.6803C358.372 29.7357 358.401 29.7932 358.426 29.8526L354.518 32.1086C354.645 32.3124 354.804 32.4839 354.995 32.623C355.19 32.7511 355.399 32.8424 355.625 32.897C355.846 32.9446 356.073 32.9526 356.304 32.9208C356.542 32.885 356.768 32.8051 356.983 32.6811C357.315 32.4891 357.561 32.2503 357.719 31.9648C357.878 31.6794 357.966 31.3927 357.985 31.1048L358.989 31.2596C358.926 31.758 358.762 32.1944 358.497 32.5687C358.236 32.932 357.887 33.2397 357.451 33.4917C357.077 33.7077 356.694 33.8453 356.304 33.9046C355.913 33.9639 355.539 33.9487 355.183 33.859C354.822 33.7624 354.484 33.5927 354.168 33.35C353.853 33.1073 353.583 32.792 353.359 32.404C353.139 32.0229 352.999 31.6371 352.94 31.2464C352.883 30.8447 352.904 30.4636 353 30.103C353.097 29.7424 353.265 29.4097 353.505 29.105C353.741 28.7933 354.039 28.5335 354.399 28.3255C354.759 28.1175 355.119 27.9884 355.478 27.9382C355.844 27.884 356.191 27.9097 356.52 28.0154C356.856 28.1171 357.171 28.2953 357.466 28.55C357.757 28.7978 358.016 29.1191 358.244 29.514ZM362.986 26.2497C362.867 26.0597 362.729 25.8996 362.57 25.7693C362.415 25.6281 362.242 25.5291 362.053 25.4724C361.87 25.4117 361.672 25.3967 361.458 25.4274C361.248 25.4472 361.029 25.5231 360.8 25.6551C360.592 25.7751 360.417 25.9272 360.274 26.1114C360.134 26.2847 360.03 26.4737 359.964 26.6784C359.904 26.8791 359.879 27.0921 359.889 27.3173C359.902 27.5316 359.958 27.7397 360.056 27.9417L362.986 26.2497ZM364.202 26.0746C364.234 26.13 364.266 26.1854 364.298 26.2409C364.33 26.2963 364.358 26.3537 364.383 26.4131L360.476 28.6691C360.603 28.873 360.762 29.0444 360.953 29.1835C361.147 29.3116 361.357 29.403 361.582 29.4575C361.804 29.5052 362.03 29.5131 362.261 29.4813C362.499 29.4455 362.725 29.3656 362.94 29.2416C363.273 29.0496 363.518 28.8109 363.677 28.5254C363.835 28.2399 363.924 27.9532 363.942 27.6654L364.946 27.8202C364.883 28.3186 364.719 28.7549 364.455 29.1292C364.193 29.4926 363.845 29.8002 363.408 30.0522C363.034 30.2682 362.652 30.4059 362.261 30.4652C361.87 30.5245 361.496 30.5093 361.14 30.4196C360.779 30.3229 360.441 30.1533 360.125 29.9106C359.81 29.6679 359.54 29.3525 359.316 28.9645C359.096 28.5835 358.956 28.1976 358.897 27.8069C358.841 27.4053 358.861 27.0242 358.957 26.6635C359.054 26.3029 359.222 25.9702 359.462 25.6655C359.698 25.3539 359.996 25.0941 360.356 24.8861C360.716 24.6781 361.076 24.549 361.435 24.4987C361.801 24.4445 362.148 24.4703 362.477 24.576C362.813 24.6777 363.128 24.8559 363.423 25.1106C363.714 25.3583 363.974 25.6797 364.202 26.0746Z" fill="white" fill-opacity="0.3"/>
<path d="M138.605 38.9106C138.243 38.7961 137.847 38.7661 137.417 38.8206C136.993 38.8711 136.57 39.0184 136.148 39.2624C135.718 39.5104 135.376 39.814 135.122 40.1734C134.863 40.5258 134.691 40.9071 134.604 41.3173C134.518 41.7275 134.513 42.1507 134.589 42.587C134.661 43.0163 134.814 43.4319 135.046 43.8338C135.282 44.2425 135.569 44.589 135.909 44.8733C136.249 45.1576 136.618 45.3648 137.016 45.495C137.411 45.6183 137.829 45.6541 138.27 45.6026C138.711 45.551 139.15 45.3992 139.587 45.1472C139.933 44.9472 140.234 44.732 140.489 44.5017C140.744 44.2713 140.945 44.0352 141.091 43.7935L139.909 41.7462L138.278 42.6882L137.774 41.8152L140.424 40.2852L142.482 43.8498C142.214 44.2816 141.883 44.685 141.49 45.0598C141.097 45.4347 140.63 45.7781 140.09 46.0901C139.514 46.4221 138.93 46.6346 138.338 46.7275C137.747 46.8095 137.181 46.7808 136.639 46.6413C136.092 46.4949 135.586 46.2421 135.12 45.883C134.65 45.517 134.251 45.0499 133.923 44.4818C133.591 43.9067 133.386 43.3276 133.308 42.7445C133.233 42.1505 133.273 41.5872 133.427 41.0546C133.585 40.5111 133.848 40.0079 134.218 39.5448C134.588 39.0818 135.054 38.6882 135.615 38.3642C136.204 38.0242 136.777 37.8088 137.334 37.718C137.899 37.6232 138.417 37.6333 138.89 37.7483L138.605 38.9106ZM145.688 38.3547C145.476 37.9875 145.209 37.7813 144.887 37.7361C144.561 37.6839 144.215 37.7639 143.848 37.9759C143.571 38.1359 143.339 38.3433 143.154 38.5982C142.971 38.8421 142.845 39.0952 142.775 39.3575L141.895 39.0339C142.006 38.6653 142.196 38.3152 142.467 37.9835C142.744 37.6479 143.083 37.3641 143.485 37.1321C143.839 36.9281 144.173 36.804 144.49 36.7599C144.809 36.7049 145.102 36.716 145.368 36.7932C145.634 36.8705 145.877 37.0028 146.096 37.1904C146.315 37.378 146.503 37.6068 146.659 37.877L147.901 40.0282C147.997 40.1945 148.102 40.3692 148.217 40.5522C148.335 40.7244 148.442 40.8613 148.538 40.9631L147.654 41.4731C147.463 41.2696 147.299 41.05 147.163 40.8144L147.132 40.8324C147.104 41.1997 146.993 41.5361 146.8 41.8416C146.614 42.1431 146.334 42.4018 145.96 42.6178C145.766 42.7298 145.545 42.8201 145.299 42.8887C145.063 42.9602 144.824 42.987 144.583 42.9693C144.342 42.9515 144.106 42.8796 143.876 42.7536C143.654 42.6236 143.46 42.4166 143.296 42.1325C143.08 41.7584 143.011 41.406 143.088 41.0752C143.161 40.7375 143.328 40.4192 143.589 40.1204C143.847 39.8146 144.17 39.5264 144.559 39.2557C144.948 38.9851 145.35 38.7298 145.766 38.4898L145.688 38.3547ZM145.935 39.3345C145.692 39.4745 145.445 39.6308 145.194 39.8036C144.95 39.9724 144.738 40.15 144.559 40.3363C144.387 40.5187 144.268 40.7122 144.202 40.9169C144.135 41.1216 144.162 41.3279 144.282 41.5358C144.366 41.6813 144.464 41.7865 144.575 41.8515C144.693 41.9125 144.819 41.9462 144.952 41.9525C145.085 41.9589 145.218 41.9419 145.352 41.9016C145.482 41.8544 145.609 41.7948 145.734 41.7228C146.191 41.4588 146.463 41.1217 146.55 40.7115C146.639 40.2904 146.564 39.872 146.324 39.4563L146.174 39.1965L145.935 39.3345ZM150.633 34.8483C150.418 34.7322 150.178 34.6767 149.913 34.6818C149.644 34.68 149.385 34.7511 149.136 34.8951C149.025 34.9591 148.922 35.037 148.827 35.1287C148.728 35.2135 148.65 35.3096 148.592 35.417C148.537 35.5135 148.505 35.6193 148.498 35.7345C148.493 35.8387 148.525 35.9497 148.593 36.0675C148.713 36.2753 148.897 36.3772 149.144 36.3731C149.387 36.3621 149.719 36.2902 150.142 36.1573C150.409 36.0767 150.665 36.0166 150.91 35.9768C151.155 35.937 151.384 35.934 151.598 35.9678C151.814 35.9906 152.01 36.0577 152.185 36.1691C152.36 36.2804 152.51 36.4435 152.634 36.6582C152.802 36.9492 152.889 37.2272 152.894 37.4921C152.899 37.757 152.846 38.0093 152.735 38.2489C152.627 38.4776 152.471 38.6877 152.267 38.8791C152.064 39.0705 151.837 39.2383 151.588 39.3823C151.214 39.5983 150.805 39.7375 150.36 39.8C149.923 39.8585 149.5 39.8068 149.093 39.6449L149.447 38.6506C149.691 38.7685 149.965 38.8274 150.27 38.827C150.581 38.8226 150.876 38.7404 151.153 38.5804C151.277 38.5084 151.389 38.4301 151.488 38.3453C151.59 38.2496 151.67 38.148 151.728 38.0406C151.793 37.9291 151.827 37.8124 151.83 37.6903C151.834 37.5683 151.796 37.4379 151.716 37.2994C151.584 37.0707 151.375 36.965 151.089 36.9822C150.81 36.9953 150.431 37.0754 149.953 37.2224C149.763 37.2768 149.565 37.3263 149.36 37.3709C149.157 37.4045 148.957 37.4094 148.758 37.3855C148.56 37.3616 148.371 37.2994 148.193 37.199C148.018 37.0876 147.865 36.9176 147.733 36.689C147.581 36.4257 147.503 36.1706 147.499 35.9235C147.497 35.6655 147.549 35.4276 147.655 35.2098C147.756 34.9851 147.901 34.7811 148.091 34.5976C148.277 34.4073 148.487 34.2441 148.723 34.1081C149.076 33.9041 149.456 33.7774 149.861 33.728C150.274 33.6745 150.646 33.7274 150.978 33.8867L150.633 34.8483ZM158.393 35.2731L157.364 35.8671L153.116 28.5094L157.71 25.8574L158.232 26.7615L154.667 28.8195L155.987 31.1058L159.323 29.1798L159.833 30.0632L156.497 31.9892L158.393 35.2731ZM160.55 28.873C160.474 28.7414 160.373 28.5736 160.246 28.3698C160.119 28.1659 160.003 27.9883 159.897 27.837L160.822 27.303C160.908 27.4197 161.002 27.5592 161.105 27.7215C161.204 27.8768 161.283 28.0065 161.343 28.1104L161.375 28.0924C161.345 27.7214 161.412 27.3733 161.575 27.0481C161.741 26.712 161.991 26.4479 162.323 26.2559C162.476 26.1679 162.612 26.1077 162.732 26.0755L163.212 27.0036C163.054 27.0489 162.895 27.1176 162.735 27.2096C162.5 27.3456 162.322 27.5087 162.2 27.6987C162.075 27.8819 161.996 28.0802 161.962 28.2937C161.935 28.5032 161.95 28.7209 162.006 28.9469C162.059 29.166 162.145 29.3794 162.265 29.5873L163.759 32.1749L162.782 32.7389L160.55 28.873ZM168.297 25.6891C168.178 25.4991 168.039 25.339 167.881 25.2087C167.726 25.0675 167.553 24.9686 167.363 24.9119C167.18 24.8512 166.982 24.8362 166.769 24.8669C166.559 24.8867 166.339 24.9626 166.111 25.0946C165.903 25.2146 165.728 25.3667 165.585 25.5509C165.444 25.7242 165.341 25.9132 165.274 26.1179C165.215 26.3186 165.19 26.5315 165.2 26.7567C165.213 26.971 165.268 27.1791 165.366 27.3811L168.297 25.6891ZM169.512 25.514C169.544 25.5695 169.576 25.6249 169.608 25.6803C169.64 25.7357 169.669 25.7932 169.694 25.8526L165.786 28.1086C165.913 28.3124 166.072 28.4839 166.264 28.623C166.458 28.7511 166.667 28.8424 166.893 28.897C167.114 28.9446 167.341 28.9526 167.572 28.9208C167.81 28.885 168.036 28.8051 168.251 28.6811C168.583 28.4891 168.829 28.2503 168.987 27.9648C169.146 27.6794 169.234 27.3927 169.253 27.1048L170.257 27.2596C170.194 27.758 170.03 28.1944 169.766 28.5687C169.504 28.932 169.155 29.2397 168.719 29.4917C168.345 29.7077 167.962 29.8453 167.572 29.9046C167.181 29.9639 166.807 29.9487 166.451 29.859C166.09 29.7624 165.752 29.5927 165.436 29.35C165.121 29.1073 164.851 28.792 164.627 28.404C164.407 28.0229 164.267 27.6371 164.208 27.2464C164.151 26.8447 164.172 26.4636 164.268 26.103C164.365 25.7424 164.533 25.4097 164.773 25.105C165.009 24.7933 165.307 24.5335 165.667 24.3255C166.027 24.1175 166.387 23.9884 166.746 23.9382C167.112 23.884 167.459 23.9097 167.788 24.0154C168.124 24.1171 168.439 24.2953 168.734 24.55C169.025 24.7978 169.284 25.1191 169.512 25.514ZM174.254 22.2497C174.135 22.0597 173.997 21.8996 173.838 21.7693C173.683 21.6281 173.51 21.5291 173.321 21.4724C173.138 21.4117 172.94 21.3967 172.727 21.4274C172.516 21.4472 172.297 21.5231 172.068 21.6551C171.86 21.7751 171.685 21.9272 171.542 22.1114C171.402 22.2847 171.298 22.4737 171.232 22.6784C171.172 22.8791 171.147 23.0921 171.157 23.3173C171.17 23.5316 171.226 23.7397 171.324 23.9417L174.254 22.2497ZM175.47 22.0746C175.502 22.13 175.534 22.1854 175.566 22.2409C175.598 22.2963 175.626 22.3537 175.651 22.4131L171.744 24.6691C171.871 24.873 172.03 25.0444 172.221 25.1835C172.415 25.3116 172.625 25.403 172.85 25.4575C173.072 25.5052 173.298 25.5131 173.529 25.4813C173.767 25.4455 173.993 25.3656 174.208 25.2416C174.541 25.0496 174.786 24.8109 174.945 24.5254C175.103 24.2399 175.192 23.9532 175.21 23.6654L176.214 23.8202C176.151 24.3186 175.987 24.7549 175.723 25.1292C175.462 25.4926 175.113 25.8002 174.676 26.0522C174.302 26.2682 173.92 26.4059 173.529 26.4652C173.138 26.5245 172.765 26.5093 172.408 26.4196C172.047 26.3229 171.709 26.1533 171.394 25.9106C171.078 25.6679 170.808 25.3525 170.584 24.9645C170.364 24.5835 170.224 24.1976 170.165 23.8069C170.109 23.4053 170.129 23.0242 170.226 22.6635C170.322 22.3029 170.49 21.9702 170.73 21.6655C170.966 21.3539 171.264 21.0941 171.624 20.8861C171.984 20.6781 172.344 20.549 172.703 20.4987C173.069 20.4445 173.416 20.4703 173.745 20.576C174.081 20.6777 174.396 20.8559 174.691 21.1106C174.982 21.3583 175.242 21.6797 175.47 22.0746Z" fill="white" fill-opacity="0.3"/>
<path d="M199.605 3.91056C199.243 3.79607 198.847 3.76608 198.417 3.82059C197.993 3.8711 197.57 4.01835 197.148 4.26235C196.718 4.51035 196.376 4.81403 196.122 5.17337C195.863 5.5258 195.691 5.90711 195.604 6.31731C195.518 6.72751 195.513 7.15074 195.589 7.58701C195.661 8.01634 195.814 8.43193 196.046 8.83377C196.282 9.24253 196.569 9.58905 196.909 9.87331C197.249 10.1576 197.618 10.3648 198.016 10.495C198.411 10.6183 198.829 10.6541 199.27 10.6026C199.711 10.551 200.15 10.3992 200.587 10.1472C200.933 9.94718 201.234 9.732 201.489 9.50165C201.744 9.2713 201.945 9.03523 202.091 8.79345L200.909 6.74617L199.278 7.68817L198.774 6.81521L201.424 5.28521L203.482 8.84977C203.214 9.28162 202.883 9.68497 202.49 10.0598C202.097 10.4347 201.63 10.7781 201.09 11.0901C200.514 11.4221 199.93 11.6346 199.338 11.7275C198.747 11.8095 198.181 11.7808 197.639 11.6413C197.092 11.4949 196.586 11.2421 196.12 10.883C195.65 10.517 195.251 10.0499 194.923 9.48177C194.591 8.90673 194.386 8.32765 194.308 7.74453C194.233 7.15048 194.273 6.58718 194.427 6.05463C194.585 5.51115 194.848 5.00788 195.218 4.54481C195.588 4.08175 196.054 3.68822 196.615 3.36422C197.204 3.02422 197.777 2.80882 198.334 2.71803C198.899 2.62323 199.417 2.63333 199.89 2.74831L199.605 3.91056ZM206.688 3.35468C206.476 2.98748 206.209 2.78128 205.887 2.73608C205.561 2.68394 205.215 2.76388 204.848 2.97588C204.571 3.13588 204.339 3.3433 204.154 3.59815C203.971 3.84208 203.845 4.09518 203.775 4.35745L202.895 4.03391C203.006 3.66528 203.196 3.31515 203.467 2.98351C203.744 2.64788 204.083 2.36406 204.485 2.13206C204.839 1.92806 205.173 1.80402 205.49 1.75995C205.809 1.70494 206.102 1.71604 206.368 1.79324C206.634 1.87045 206.877 2.00283 207.096 2.19039C207.315 2.37795 207.503 2.60683 207.659 2.87703L208.901 5.02824C208.997 5.19451 209.102 5.36918 209.217 5.55224C209.335 5.72438 209.442 5.86133 209.538 5.96311L208.654 6.47311C208.463 6.26955 208.299 6.05 208.163 5.81444L208.132 5.83244C208.104 6.19971 207.993 6.53609 207.8 6.84158C207.614 7.14307 207.334 7.40182 206.96 7.61782C206.766 7.72982 206.545 7.82011 206.299 7.88868C206.063 7.96018 205.824 7.98705 205.583 7.96927C205.342 7.95149 205.106 7.8796 204.876 7.75361C204.654 7.62362 204.46 7.4166 204.296 7.13254C204.08 6.75842 204.011 6.40597 204.088 6.0752C204.161 5.7375 204.328 5.41922 204.589 5.12037C204.847 4.81459 205.17 4.52638 205.559 4.25574C205.948 3.9851 206.35 3.72978 206.766 3.48978L206.688 3.35468ZM206.935 4.33445C206.692 4.47445 206.445 4.63084 206.194 4.80363C205.95 4.97241 205.738 5.14998 205.559 5.33634C205.387 5.51869 205.268 5.71222 205.202 5.91693C205.135 6.12164 205.162 6.32791 205.282 6.53576C205.366 6.68125 205.464 6.7865 205.575 6.85149C205.693 6.91249 205.819 6.94616 205.952 6.95251C206.085 6.95887 206.218 6.9419 206.352 6.90161C206.482 6.8544 206.609 6.79479 206.734 6.72279C207.191 6.45879 207.463 6.12169 207.55 5.71149C207.639 5.29036 207.564 4.87195 207.324 4.45626L207.174 4.19645L206.935 4.33445ZM211.633 -0.151716C211.418 -0.267849 211.178 -0.323342 210.913 -0.318193C210.644 -0.319972 210.385 -0.248862 210.136 -0.104862C210.025 -0.0408619 209.922 0.0369945 209.827 0.128707C209.728 0.213492 209.65 0.309597 209.592 0.417022C209.537 0.51352 209.505 0.619338 209.498 0.734476C209.493 0.838687 209.525 0.949681 209.593 1.06746C209.713 1.27531 209.897 1.37719 210.144 1.37311C210.387 1.36211 210.719 1.29018 211.142 1.15731C211.409 1.07674 211.665 1.01656 211.91 0.976769C212.155 0.936979 212.384 0.933974 212.598 0.967753C212.814 0.990604 213.01 1.0577 213.185 1.16905C213.36 1.2804 213.51 1.44346 213.634 1.65824C213.802 1.94922 213.889 2.22717 213.894 2.49209C213.899 2.75701 213.846 3.00929 213.735 3.24892C213.627 3.47763 213.471 3.6877 213.267 3.87912C213.064 4.07055 212.837 4.23826 212.588 4.38226C212.214 4.59826 211.805 4.73751 211.36 4.80002C210.923 4.85853 210.5 4.80683 210.093 4.64491L210.447 3.65055C210.691 3.76854 210.965 3.82736 211.27 3.82699C211.581 3.82263 211.876 3.74044 212.153 3.58044C212.277 3.50844 212.389 3.43005 212.488 3.34527C212.59 3.24956 212.67 3.14799 212.728 3.04056C212.793 2.92913 212.827 2.81239 212.83 2.69032C212.834 2.56826 212.796 2.43794 212.716 2.29938C212.584 2.07075 212.375 1.965 212.089 1.98215C211.81 1.9953 211.431 2.07538 210.953 2.22238C210.763 2.27681 210.565 2.32632 210.36 2.37089C210.157 2.40454 209.957 2.4094 209.758 2.38548C209.56 2.36155 209.371 2.29938 209.193 2.19896C209.018 2.08761 208.865 1.91762 208.733 1.68899C208.581 1.42572 208.503 1.17055 208.499 0.923492C208.497 0.665502 208.549 0.427618 208.655 0.209838C208.756 -0.0148695 208.901 -0.218936 209.091 -0.402362C209.277 -0.592716 209.487 -0.755892 209.723 -0.891892C210.076 -1.09589 210.456 -1.22261 210.861 -1.27205C211.274 -1.32548 211.646 -1.27256 211.978 -1.11329L211.633 -0.151716ZM219.393 0.273144L218.364 0.867144L214.116 -6.49061L218.71 -9.14261L219.232 -8.23848L215.667 -6.18048L216.987 -3.89417L220.323 -5.82017L220.833 -4.93682L217.497 -3.01082L219.393 0.273144ZM221.55 -6.127C221.474 -6.25863 221.373 -6.42637 221.246 -6.63022C221.119 -6.83407 221.003 -7.01166 220.897 -7.16301L221.822 -7.69701C221.908 -7.5803 222.002 -7.44081 222.105 -7.27853C222.204 -7.12319 222.283 -6.99355 222.343 -6.88963L222.375 -6.90763C222.345 -7.27861 222.412 -7.62671 222.575 -7.95191C222.741 -8.28804 222.991 -8.55211 223.323 -8.74411C223.476 -8.83211 223.612 -8.89225 223.732 -8.92454L224.212 -7.99641C224.054 -7.95105 223.895 -7.88237 223.735 -7.79037C223.5 -7.65437 223.322 -7.49134 223.2 -7.30127C223.075 -7.11813 222.996 -6.91982 222.962 -6.70633C222.935 -6.49683 222.95 -6.27909 223.006 -6.0531C223.059 -5.83404 223.145 -5.62059 223.265 -5.41274L224.759 -2.82506L223.782 -2.26106L221.55 -6.127ZM229.297 -9.31087C229.178 -9.50086 229.039 -9.66099 228.881 -9.79127C228.726 -9.93248 228.553 -10.0314 228.363 -10.0881C228.18 -10.1488 227.982 -10.1638 227.769 -10.1331C227.559 -10.1133 227.339 -10.0374 227.111 -9.90544C226.903 -9.78544 226.728 -9.63333 226.585 -9.44912C226.444 -9.27584 226.341 -9.08685 226.274 -8.88214C226.215 -8.68143 226.19 -8.46848 226.2 -8.24327C226.213 -8.02899 226.268 -7.82086 226.366 -7.61887L229.297 -9.31087ZM230.512 -9.48596C230.544 -9.43054 230.576 -9.37511 230.608 -9.31969C230.64 -9.26426 230.669 -9.20684 230.694 -9.14741L226.786 -6.89141C226.913 -6.68756 227.072 -6.51611 227.264 -6.37705C227.458 -6.24892 227.667 -6.15757 227.893 -6.103C228.114 -6.05537 228.341 -6.04744 228.572 -6.07923C228.81 -6.11502 229.036 -6.19492 229.251 -6.31892C229.583 -6.51092 229.829 -6.74966 229.987 -7.03516C230.146 -7.32065 230.234 -7.60732 230.253 -7.89516L231.257 -7.74037C231.194 -7.24196 231.03 -6.80562 230.766 -6.43134C230.504 -6.06799 230.155 -5.76032 229.719 -5.50832C229.345 -5.29232 228.962 -5.15467 228.572 -5.09538C228.181 -5.03609 227.807 -5.05129 227.451 -5.14099C227.09 -5.23763 226.752 -5.40729 226.436 -5.64999C226.121 -5.89268 225.851 -6.20802 225.627 -6.596C225.407 -6.97705 225.267 -7.36293 225.208 -7.75362C225.151 -8.15525 225.172 -8.53638 225.268 -8.89701C225.365 -9.25764 225.533 -9.59031 225.773 -9.89502C226.009 -10.2067 226.307 -10.4665 226.667 -10.6745C227.027 -10.8825 227.387 -11.0116 227.746 -11.0618C228.112 -11.116 228.459 -11.0903 228.788 -10.9846C229.124 -10.8829 229.439 -10.7047 229.734 -10.45C230.025 -10.2022 230.284 -9.88087 230.512 -9.48596ZM235.254 -12.7503C235.135 -12.9403 234.997 -13.1004 234.838 -13.2307C234.683 -13.3719 234.51 -13.4709 234.321 -13.5276C234.138 -13.5883 233.94 -13.6033 233.727 -13.5726C233.516 -13.5528 233.297 -13.4769 233.068 -13.3449C232.86 -13.2249 232.685 -13.0728 232.542 -12.8886C232.402 -12.7153 232.298 -12.5263 232.232 -12.3216C232.172 -12.1209 232.147 -11.9079 232.157 -11.6827C232.17 -11.4684 232.226 -11.2603 232.324 -11.0583L235.254 -12.7503ZM236.47 -12.9254C236.502 -12.87 236.534 -12.8146 236.566 -12.7591C236.598 -12.7037 236.626 -12.6463 236.651 -12.5869L232.744 -10.3309C232.871 -10.127 233.03 -9.95556 233.221 -9.8165C233.415 -9.68837 233.625 -9.59702 233.85 -9.54246C234.072 -9.49482 234.298 -9.4869 234.529 -9.51869C234.767 -9.55448 234.993 -9.63437 235.208 -9.75837C235.541 -9.95037 235.786 -10.1891 235.945 -10.4746C236.103 -10.7601 236.192 -11.0468 236.21 -11.3346L237.214 -11.1798C237.151 -10.6814 236.987 -10.2451 236.723 -9.87079C236.462 -9.50745 236.113 -9.19977 235.676 -8.94777C235.302 -8.73177 234.92 -8.59413 234.529 -8.53483C234.138 -8.47554 233.765 -8.49075 233.408 -8.58045C233.047 -8.67708 232.709 -8.84674 232.394 -9.08944C232.078 -9.33214 231.808 -9.64748 231.584 -10.0355C231.364 -10.4165 231.224 -10.8024 231.165 -11.1931C231.109 -11.5947 231.129 -11.9758 231.226 -12.3365C231.322 -12.6971 231.49 -13.0298 231.73 -13.3345C231.966 -13.6461 232.264 -13.9059 232.624 -14.1139C232.984 -14.3219 233.344 -14.451 233.703 -14.5013C234.069 -14.5555 234.416 -14.5297 234.745 -14.424C235.081 -14.3223 235.396 -14.1441 235.691 -13.8894C235.982 -13.6417 236.242 -13.3203 236.47 -12.9254Z" fill="white" fill-opacity="0.3"/>
</g>
</svg>
