<svg width="66" height="66" viewBox="0 0 66 66" fill="none" xmlns="http://www.w3.org/2000/svg">
<circle cx="33" cy="33" r="33" fill="white"/>
<path fill-rule="evenodd" clip-rule="evenodd" d="M19.48 15L24 15V24H15L15 19.48C15 17.0058 17.0058 15 19.48 15ZM15 28.4511L15 38H24L24 28.4511H15ZM15 42.4511H24L24 51H19.48C17.0058 51 15 48.9942 15 46.52L15 42.4511ZM37 42.4511H28.4511L28.4511 51H37L37 42.4511ZM41.4511 51L41.4511 42.4511L51 42.4511V46.52C51 48.9942 48.9942 51 46.52 51H41.4511ZM28.4511 38L51 38L51 19.48C51 17.0058 48.9942 15 46.52 15L28.4511 15L28.4511 38Z" fill="#0A0A0A"/>
</svg>
