<svg width="28" height="28" viewBox="0 0 28 28" fill="none" xmlns="http://www.w3.org/2000/svg">
<circle cx="14.5" cy="14.5" r="12.5" fill="#F7F8FB"/>
<path fill-rule="evenodd" clip-rule="evenodd" d="M18.0861 1.61444C18.2991 1.10486 18.8848 0.864393 19.3944 1.07734C24.4467 3.18863 28 8.17819 28 14C28 21.732 21.732 28 14 28C10.0298 28 6.44424 26.3461 3.89763 23.6924C3.51523 23.2939 3.52826 22.6609 3.92674 22.2785C4.32522 21.8961 4.95825 21.9091 5.34066 22.3076C7.52576 24.5846 10.5967 26 14 26C20.6274 26 26 20.6274 26 14C26 9.0128 22.9574 4.73388 18.6232 2.92269C18.1136 2.70975 17.8732 2.12402 18.0861 1.61444Z" fill="url(#paint0_angular_616_3)"/>
<circle cx="14.5" cy="1.5" r="1.5" fill="#3D56D6"/>
<rect x="10" y="7.5" width="8" height="1" rx="0.5" fill="#0F134F"/>
<path d="M13.8174 9L13.8174 20.5337C13.8174 20.7594 13.6344 20.9423 13.4087 20.9423C13.183 20.9423 13.0001 20.7594 13.0001 20.5337L13.0001 9L13.8174 9Z" fill="#0F134F"/>
<path d="M15.125 9L15.125 20.5337C15.125 20.7593 14.942 20.9423 14.7163 20.9423C14.4907 20.9423 14.3077 20.7593 14.3077 20.5337L14.3077 9L15.125 9Z" fill="#0F134F"/>
<path d="M13.2813 12.4124L13.2813 12.4124L13.2838 12.4115C13.4893 12.3384 13.7538 12.2977 14.084 12.2977C14.57 12.2977 14.924 12.3886 15.1693 12.545L15.1896 12.5582C15.2944 12.6282 15.4 12.7098 15.515 12.7988L15.5213 12.8036C15.6319 12.8893 15.751 12.9815 15.8742 13.0648C16.1233 13.2332 16.4212 13.388 16.7689 13.388C17.1375 13.388 17.4867 13.2291 17.7042 12.9736C17.9292 12.7094 18.0126 12.3365 17.8142 11.9702C17.7456 11.8435 17.6654 11.7222 17.574 11.6064C17.229 11.1693 16.752 10.8364 16.1563 10.6011C15.561 10.3646 14.8734 10.25 14.0988 10.25C13.3363 10.25 12.6467 10.3649 12.0339 10.6001C11.4228 10.8346 10.9288 11.166 10.5641 11.6006L10.5641 11.6006L10.5633 11.6015C10.1955 12.0441 10.0133 12.5644 10.0167 13.151C10.0134 13.8719 10.2919 14.4608 10.8495 14.8921C11.3824 15.3042 12.0944 15.5966 12.9699 15.781C12.9701 15.7811 12.9704 15.7812 12.9707 15.7812L14.0703 16.0203L14.0703 16.0203L14.0724 16.0207C14.4333 16.0961 14.7316 16.1785 14.9698 16.2669L14.9708 16.2673C15.2074 16.354 15.3646 16.4515 15.4612 16.5498L15.4612 16.5499L15.4634 16.552C15.5493 16.6373 15.592 16.738 15.592 16.8705C15.592 17.0163 15.5431 17.1436 15.435 17.2622C15.3226 17.3854 15.154 17.4928 14.9126 17.5743L14.9117 17.5746C14.6773 17.6548 14.3914 17.698 14.0494 17.698C13.7029 17.698 13.3997 17.6525 13.1368 17.5657C12.8816 17.4777 12.6888 17.3527 12.5476 17.1964L12.5453 17.1937C12.3997 17.0265 12.2252 16.826 12.025 16.6692C11.8204 16.5089 11.5676 16.3768 11.2641 16.3768H11.0886C10.7217 16.3768 10.3756 16.5333 10.1533 16.7862C9.92556 17.0453 9.82703 17.4112 9.9871 17.7853C10.0768 17.9949 10.1917 18.1892 10.3318 18.3675L10.3318 18.3675L10.333 18.3691C10.7058 18.8359 11.218 19.1809 11.8562 19.4103L11.8566 19.4105C12.4955 19.639 13.2363 19.75 14.0741 19.75C14.9175 19.75 15.6512 19.6406 16.2688 19.414L16.2694 19.4138C16.8875 19.1854 17.3773 18.8586 17.7217 18.4242C18.0716 17.984 18.2464 17.4642 18.25 16.8764L18.25 16.8726C18.2464 16.4733 18.1615 16.1094 17.9887 15.7871C17.8227 15.4712 17.5895 15.1991 17.2934 14.9709C17.0016 14.746 16.6605 14.5596 16.2728 14.4098C15.889 14.2615 15.4702 14.1437 15.017 14.0558L14.1099 13.868L14.1099 13.868L14.1068 13.8674C13.8948 13.8263 13.6966 13.7772 13.5123 13.7205C13.332 13.6622 13.1774 13.5961 13.0469 13.5234C12.9252 13.453 12.8374 13.3747 12.776 13.2915C12.7294 13.2245 12.7046 13.1438 12.709 13.0373L12.7093 13.0373V13.0268C12.7093 12.9002 12.7493 12.7891 12.8369 12.6848C12.9292 12.5788 13.0714 12.4846 13.2813 12.4124Z" fill="#0F134F" stroke="#F7F8FB" stroke-width="0.5"/>
<path d="M15.125 11.2422L15.125 13.0913C15.125 13.317 14.942 13.4999 14.7163 13.4999C14.4907 13.4999 14.3077 13.317 14.3077 13.0913L14.3077 11.2422L15.125 11.2422Z" fill="#0F134F"/>
<path d="M15.125 15L15.125 16.7577L14.3077 16.7577L14.3077 15L15.125 15Z" fill="#0F134F"/>
<path d="M15.125 18.5L15.125 20.2577L14.3077 20.2577L14.3077 18.5L15.125 18.5Z" fill="#0F134F"/>
<path d="M13.8174 11.7837L13.8174 12.8717C13.8174 13.0974 13.6344 13.2803 13.4087 13.2803C13.183 13.2803 13.0001 13.0974 13.0001 12.8717L13.0001 11.7837L13.8174 11.7837Z" fill="#0F134F"/>
<path d="M13.8174 15.5L13.8174 16.588C13.8174 16.8137 13.6344 16.9966 13.4087 16.9966C13.183 16.9966 13.0001 16.8137 13.0001 16.588L13.0001 15.5L13.8174 15.5Z" fill="#0F134F"/>
<path d="M13.8174 18.5L13.8174 19.8939C13.8174 20.1195 13.6344 20.3025 13.4087 20.3025C13.183 20.3025 13.0001 20.1195 13.0001 19.8939L13.0001 18.5L13.8174 18.5Z" fill="#0F134F"/>
<path fill-rule="evenodd" clip-rule="evenodd" d="M22.7242 14.5192C22.5865 14.5192 22.4729 14.627 22.4606 14.7643C22.0737 19.09 18.4335 22.4808 14 22.4808C9.56654 22.4808 5.92635 19.09 5.53936 14.7643C5.52708 14.627 5.41353 14.5192 5.27577 14.5192C5.12607 14.5192 5.00685 14.6457 5.01992 14.7948C5.42293 19.3931 9.28955 23 14 23C18.7104 23 22.5771 19.3931 22.9801 14.7948C22.9932 14.6457 22.8739 14.5192 22.7242 14.5192ZM5.27577 13.4808C5.41353 13.4808 5.52708 13.373 5.53936 13.2357C5.92635 8.91004 9.56654 5.51923 14 5.51923C18.4335 5.51923 22.0737 8.91004 22.4606 13.2357C22.4729 13.373 22.5865 13.4808 22.7242 13.4808C22.8739 13.4808 22.9932 13.3543 22.9801 13.2052C22.5771 8.60691 18.7104 5 14 5C9.28955 5 5.42293 8.60691 5.01992 13.2052C5.00685 13.3543 5.12607 13.4808 5.27577 13.4808Z" fill="#0F134F"/>
<defs>
<radialGradient id="paint0_angular_616_3" cx="0" cy="0" r="1" gradientUnits="userSpaceOnUse" gradientTransform="translate(17.6741 20.9517) rotate(90) scale(30.2424 16.501)">
<stop offset="0.200113" stop-color="#00C2FF"/>
<stop offset="0.591769" stop-color="#5E4BFF"/>
</radialGradient>
</defs>
</svg>
