<svg width="12" height="12" viewBox="0 0 12 12" fill="none" xmlns="http://www.w3.org/2000/svg">
<g clip-path="url(#clip0_365_27117)">
<path d="M9.33709 10.3358H2.67531V8.58736C1.93919 7.918 1.42256 7.04179 1.19316 6.07365C0.963764 5.10551 1.03232 4.09064 1.38983 3.16214C1.74734 2.23365 2.37712 1.43488 3.19657 0.870591C4.01602 0.306304 4.98688 0.00284721 5.98183 1.99372e-05C6.97677 -0.00280734 7.94934 0.295126 8.77199 0.854747C9.59463 1.41437 10.2289 2.20955 10.5917 3.136C10.9545 4.06244 11.0288 5.07691 10.8049 6.04634C10.581 7.01577 10.0694 7.8949 9.33709 8.56844V10.3358ZM8.73476 12H3.19504C3.05811 12 2.92679 11.9456 2.82997 11.8488C2.73315 11.752 2.67876 11.6206 2.67876 11.4837C2.67876 11.3468 2.73315 11.2155 2.82997 11.1186C2.92679 11.0218 3.05811 10.9674 3.19504 10.9674H8.73476C8.87169 10.9674 9.00301 11.0218 9.09983 11.1186C9.19665 11.2155 9.25105 11.3468 9.25105 11.4837C9.25105 11.6206 9.19665 11.752 9.09983 11.8488C9.00301 11.9456 8.87169 12 8.73476 12Z" fill="#F58721"/>
<path d="M8.5211 5.44577C8.38417 5.44577 8.25285 5.39138 8.15603 5.29455C8.05921 5.19773 8.00482 5.06641 8.00482 4.92949C8.00209 4.39984 7.78989 3.8928 7.41457 3.51908C7.03924 3.14537 6.53129 2.93536 6.00163 2.93491C5.86471 2.93491 5.73339 2.88052 5.63657 2.78369C5.53975 2.68687 5.48535 2.55555 5.48535 2.41863C5.48535 2.2817 5.53975 2.15038 5.63657 2.05356C5.73339 1.95674 5.86471 1.90234 6.00163 1.90234C6.805 1.90325 7.57533 2.22219 8.1442 2.78945C8.71307 3.35671 9.0342 4.12613 9.03738 4.92949C9.03738 4.99729 9.02403 5.06442 8.99808 5.12706C8.97214 5.1897 8.93411 5.24661 8.88617 5.29455C8.83823 5.3425 8.78131 5.38052 8.71867 5.40647C8.65603 5.43242 8.5889 5.44577 8.5211 5.44577Z" fill="white"/>
</g>
<defs>
<clipPath id="clip0_365_27117">
<rect width="12" height="12" fill="white"/>
</clipPath>
</defs>
</svg>
