<svg width="30" height="28" viewBox="0 0 30 28" fill="none" xmlns="http://www.w3.org/2000/svg">
<path d="M10.3555 20.542L29.8939 10.6211L30.0004 14.7793L10.3555 24.7906V20.542Z" fill="#23B49A"/>
<path d="M14.4888 18.4414L20.7317 21.6504L16.6278 23.7521L10.3552 20.5657L14.4888 18.4414Z" fill="#2CCDB0"/>
<path d="M20.7322 25.8764L20.7322 21.6504L16.6282 23.7521L16.5986 28.0007L20.7322 25.8764Z" fill="#46EFD1"/>
<path d="M6.34961 18.5091L25.8667 8.54297L29.8938 10.6221L10.3553 20.5655L6.34961 18.5091Z" fill="#2CCDB0"/>
<path d="M6.34961 18.4863L16.6195 23.7067V27.9552L6.34961 22.7349V18.4863Z" fill="#177867"/>
<path d="M0 8.22644L10.2699 13.4468V17.6953L0 12.475V8.22644Z" fill="#131766"/>
<path d="M18.6216 10.419L21.6046 11.8654L21.6472 3.5716L18.6216 2.08008V10.419Z" fill="#1B1F6D"/>
<path d="M10.2705 13.4463L29.809 3.52539L29.9155 7.68357L10.2705 17.6949V13.4463Z" fill="#262C96"/>
<path d="M6.26465 11.4133L25.7818 1.44727L29.8088 3.52636L10.2703 13.4698L6.26465 11.4133Z" fill="#4950D4"/>
<path d="M4.17616 6.14648L10.3765 9.31032L6.27253 11.412L0 8.22558L4.17616 6.14648Z" fill="#4950D4"/>
<path d="M22.7977 0L25.7807 1.44632L21.6472 3.57061L18.6216 2.07909L22.7977 0Z" fill="#4950D4"/>
</svg>
