<svg width="32" height="29" viewBox="0 0 32 29" fill="none" xmlns="http://www.w3.org/2000/svg">
<path d="M11.0454 20.6459L31.8863 10.6748L31.9999 14.8541L11.0454 24.916V20.6459Z" fill="#DCDDF5"/>
<path d="M15.4545 18.5332L22.1136 21.7585L17.7361 23.8708L11.0454 20.6683L15.4545 18.5332Z" fill="white"/>
<path d="M22.1137 26.0062L22.1137 21.7588L17.7362 23.8711L17.7046 28.1412L22.1137 26.0062Z" fill="white"/>
<path d="M6.77295 18.6015L27.5911 8.58496L31.8866 10.6746L11.0457 20.6684L6.77295 18.6015Z" fill="white"/>
<path d="M6.77289 18.579L17.7274 23.8258V28.0958L6.77289 22.8491V18.579Z" fill="#BFC0DF"/>
<path d="M0 8.26746L10.9545 13.5142V17.7843L0 12.5376V8.26746Z" fill="#C5C6EB"/>
<path d="M19.8638 10.4709L23.0456 11.9246L23.0911 3.5888L19.8638 2.08972V10.4709Z" fill="#C5C6EB"/>
<path d="M10.9546 13.5141L31.7955 3.54297L31.9091 7.72222L10.9546 17.7842V13.5141Z" fill="#DCDDF5"/>
<path d="M6.68164 11.4697L27.4998 1.45312L31.7952 3.54275L10.9544 13.5366L6.68164 11.4697Z" fill="white"/>
<path d="M4.45454 6.17773L11.0682 9.3576L6.69066 11.4699L0 8.26736L4.45454 6.17773Z" fill="white"/>
<path d="M24.3184 0L27.5002 1.45365L23.0911 3.5887L19.8638 2.08962L24.3184 0Z" fill="white"/>
</svg>
