<svg width="148" height="24" viewBox="0 0 148 24" fill="none" xmlns="http://www.w3.org/2000/svg">
<path d="M8.88484 17.6071L25.6483 9.10352L25.7397 12.6677L8.88484 21.2487V17.6071Z" fill="#23B49A"/>
<path d="M12.4313 15.8047L17.7876 18.5553L14.2665 20.3567L8.88484 17.6255L12.4313 15.8047Z" fill="#2CCDB0"/>
<path d="M17.7875 22.1789L17.7875 18.5566L14.2664 20.3581L14.241 23.9997L17.7875 22.1789Z" fill="#46EFD1"/>
<path d="M5.44809 15.8626L22.1933 7.32031L25.6483 9.10238L8.88487 17.6253L5.44809 15.8626Z" fill="#2CCDB0"/>
<path d="M5.44794 15.8418L14.2593 20.3163V23.958L5.44794 19.4834V15.8418Z" fill="#177867"/>
<path d="M0 7.05078L8.81132 11.5253V15.1669L0 10.6924V7.05078Z" fill="#131766"/>
<path d="M15.9776 8.92889L18.5369 10.1686L18.5735 3.05969L15.9776 1.78125V8.92889Z" fill="#1B1F6D"/>
<path d="M8.81157 11.5251L25.575 3.02148L25.6664 6.58562L8.81157 15.1667V11.5251Z" fill="#262C96"/>
<path d="M5.375 9.78254L22.1202 1.24023L25.5752 3.0223L8.81178 11.5452L5.375 9.78254Z" fill="#4950D4"/>
<path d="M3.58303 5.26758L8.90272 7.97942L5.38165 9.78086L0 7.04965L3.58303 5.26758Z" fill="#4950D4"/>
<path d="M19.5607 0L22.12 1.2397L18.5735 3.06051L15.9776 1.78207L19.5607 0Z" fill="#4950D4"/>
<path fill-rule="evenodd" clip-rule="evenodd" d="M37.4308 6.44577V15.432C37.4308 16.7079 36.6835 17.3458 35.1887 17.3458H31.2549V19.1763H34.9238C35.7119 19.1763 36.3777 19.1139 36.9213 18.9891C37.4648 18.8643 37.954 18.5939 38.3888 18.1779C39.0275 17.5538 39.3468 16.7287 39.3468 15.7025V4.61523H33.6397V6.44577H37.4308ZM46.4769 19.1763H50.0031V9.19158H48.2094V17.429H45.8858C45.4781 17.429 45.1316 17.3666 44.8463 17.2418C44.5609 17.1031 44.3435 16.9506 44.194 16.7842C44.0446 16.6039 43.9291 16.382 43.8475 16.1185C43.766 15.8411 43.7184 15.6193 43.7048 15.4529C43.6913 15.2726 43.6845 15.0576 43.6845 14.808V9.19158H41.8908V14.8288C41.8908 15.7441 41.9655 16.486 42.115 17.0546C42.2781 17.6093 42.6517 18.0877 43.236 18.4899C43.8883 18.9475 44.9686 19.1763 46.4769 19.1763ZM59.3472 9.19158V10.9389H55.7395C55.3455 10.9389 55.0057 11.0152 54.7204 11.1677C54.435 11.3203 54.2923 11.5352 54.2923 11.8126C54.2923 11.979 54.3263 12.1315 54.3943 12.2702C54.4622 12.395 54.5369 12.499 54.6185 12.5822C54.7136 12.6654 54.8495 12.7556 55.0261 12.8527L55.4542 13.0399C55.5629 13.0676 55.9977 13.2063 56.7586 13.4559C57.5196 13.7055 58.0835 13.9135 58.4504 14.0799C58.8173 14.2464 59.0959 14.4752 59.2861 14.7664C59.4899 15.0438 59.619 15.3211 59.6734 15.5985C59.7277 15.8619 59.7549 16.1254 59.7549 16.3889C59.7549 18.2472 58.5048 19.1763 56.0045 19.1763H52.4783V17.429H56.0045C57.2818 17.429 57.9205 17.0823 57.9205 16.3889C57.9205 16.0561 57.7302 15.7787 57.3497 15.5569C56.9829 15.335 56.5276 15.1478 55.9841 14.9952C55.4542 14.8427 54.9174 14.6693 54.3739 14.4752C53.8439 14.2672 53.3887 13.9413 53.0082 13.4975C52.6414 13.0399 52.4579 12.4782 52.4579 11.8126C52.4579 10.9666 52.7772 10.3218 53.4159 9.87803C54.0546 9.4204 54.8291 9.19158 55.7395 9.19158H59.3472ZM62.5906 7.21543V10.9389V15.224C62.5906 16.6385 62.9643 17.6509 63.7117 18.2611C64.459 18.8712 65.614 19.1763 67.1767 19.1763V17.429C66.7827 17.429 66.4497 17.4082 66.178 17.3666C65.9198 17.325 65.6412 17.2418 65.3423 17.117C65.0433 16.9783 64.8123 16.7495 64.6493 16.4305C64.4998 16.1116 64.4251 15.7094 64.4251 15.224V10.9389H67.1767V9.19158H64.4251V7.21543H62.5906ZM77.2126 19.1763H74.2368C73.6796 19.1763 73.238 19.1694 72.9119 19.1555C72.5993 19.1278 72.2053 19.0446 71.7297 18.9059C71.2541 18.7534 70.8532 18.5315 70.5271 18.2403C70.0243 17.7688 69.6982 17.2071 69.5487 16.5553C69.3993 15.8897 69.3245 15.1131 69.3245 14.2256V4.61523H71.2405V14.184C71.2405 14.9883 71.3288 15.6193 71.5055 16.0769C71.8588 16.9228 72.5993 17.3458 73.7272 17.3458H77.2126V19.1763ZM87.2087 11.9166C87.2087 10.0583 86.0537 9.08064 83.7437 8.98356C82.1674 8.92809 80.9241 9.40653 80.0136 10.4189C79.1032 11.4312 78.648 12.7556 78.648 14.392C78.648 15.8619 79.11 17.0615 80.034 17.9906C80.958 18.9198 82.1946 19.3843 83.7437 19.3843C85.021 19.3843 86.1284 18.9961 87.066 18.2195L85.8431 16.9922C85.2995 17.4221 84.5997 17.637 83.7437 17.637C82.7925 17.637 82.0179 17.3181 81.42 16.6801C80.8357 16.0422 80.5436 15.2102 80.5436 14.184C80.5436 13.2132 80.8154 12.3812 81.3589 11.6878C81.916 10.9944 82.677 10.6477 83.6417 10.6477C84.1309 10.6477 84.5318 10.7586 84.8443 10.9805C85.1569 11.1885 85.3131 11.5075 85.3131 11.9374C85.3131 12.603 85.1365 13.0815 84.7832 13.3727C84.4299 13.65 83.798 13.7887 82.8876 13.7887H81.9092V15.3904H82.7449C85.7208 15.3904 87.2087 14.2325 87.2087 11.9166ZM89.3465 9.19158H92.8727C94.381 9.19158 95.4613 9.4204 96.1135 9.87803C96.6978 10.2802 97.0647 10.7656 97.2142 11.3341C97.3772 11.8888 97.4588 12.6238 97.4588 13.5391V19.1763H95.6651V13.5599C95.6651 13.3103 95.6583 13.1023 95.6447 12.9359C95.6311 12.7556 95.5836 12.5337 95.502 12.2702C95.4205 11.9929 95.305 11.771 95.1555 11.6046C95.0061 11.4243 94.7887 11.2717 94.5033 11.1469C94.2179 11.0082 93.8714 10.9389 93.4638 10.9389H91.1402V19.1763H89.3465V9.19158ZM109.392 4.61523H107.557V17.429H104.602C103.637 17.429 102.883 17.1239 102.339 16.5137C101.809 15.9036 101.544 15.0923 101.544 14.0799C101.544 13.0815 101.823 12.2771 102.38 11.667C102.951 11.0429 103.644 10.7309 104.459 10.7309C105.356 10.7309 106.144 10.9805 106.823 11.4798V9.60761C106.09 9.19158 105.301 8.98356 104.459 8.98356C103.141 8.98356 101.999 9.47587 101.035 10.4605C100.083 11.4312 99.6079 12.6377 99.6079 14.0799C99.6079 15.5499 100.07 16.7703 100.994 17.741C101.918 18.6979 103.12 19.1763 104.602 19.1763H109.392V4.61523ZM122.163 17.5708C123.381 16.3479 123.996 14.6265 124.009 12.4067C123.996 10.1869 123.381 8.47224 122.163 7.26265C120.958 6.03977 119.29 5.42833 117.159 5.42833H114.459V19.3851H117.159C119.29 19.3851 120.958 18.7803 122.163 17.5708ZM120.773 16.1751C119.992 17.1454 118.867 17.6306 117.397 17.6306H116.325V7.1829H117.397C118.867 7.1829 119.992 7.67471 120.773 8.65833C121.567 9.62866 121.977 10.8781 122.004 12.4067C121.977 13.9353 121.567 15.1915 120.773 16.1751ZM146.307 12.2902C146.296 11.5483 146.201 10.8462 146.022 10.1838C145.854 9.52139 145.603 8.94512 145.268 8.45495C144.943 7.95153 144.547 7.5541 144.077 7.26265C143.608 6.9712 143.077 6.82547 142.485 6.82547C141.892 6.82547 141.361 6.9712 140.892 7.26265C140.423 7.5541 140.02 7.95153 139.685 8.45495C139.361 8.94512 139.109 9.52139 138.931 10.1838C138.763 10.8462 138.674 11.5483 138.662 12.2902C138.674 13.0453 138.763 13.7474 138.931 14.3966C139.109 15.0457 139.361 15.6087 139.685 16.0857C140.02 16.5626 140.423 16.9401 140.892 17.2183C141.361 17.4965 141.892 17.6356 142.485 17.6356C143.077 17.6356 143.608 17.4965 144.077 17.2183C144.547 16.9401 144.943 16.5626 145.268 16.0857C145.603 15.6087 145.854 15.0457 146.022 14.3966C146.201 13.7474 146.296 13.0453 146.307 12.2902ZM136.969 12.2902C136.98 11.1906 137.12 10.197 137.388 9.30943C137.657 8.42183 138.031 7.66671 138.512 7.04406C138.992 6.40817 139.568 5.92463 140.238 5.59343C140.909 5.24899 141.658 5.07677 142.485 5.07677C143.301 5.07677 144.044 5.24899 144.714 5.59343C145.396 5.92463 145.977 6.40817 146.458 7.04406C146.938 7.66671 147.313 8.42183 147.581 9.30943C147.849 10.197 147.989 11.1906 148 12.2902C147.989 13.3897 147.849 14.3767 147.581 15.251C147.324 16.1254 146.955 16.8673 146.475 17.4767C145.994 18.0861 145.413 18.5564 144.731 18.8876C144.061 19.2188 143.312 19.3843 142.485 19.3843C141.658 19.3843 140.903 19.2188 140.221 18.8876C139.551 18.5564 138.975 18.0861 138.495 17.4767C138.014 16.8673 137.64 16.1254 137.372 15.251C137.114 14.3767 136.98 13.3897 136.969 12.2902ZM126.562 8.79103C126.782 6.68012 128.554 5.07677 130.667 5.07677C132.781 5.07677 134.553 6.68009 134.772 8.79097L135.851 19.1679L135.856 19.2157V19.2637V19.3843H134.018V19.3118L132.944 8.98265C132.822 7.81204 131.839 6.92291 130.667 6.92291C129.495 6.92291 128.512 7.81206 128.391 8.98268L127.981 12.9229H132.833V14.4921H127.818L127.317 19.3134V19.3843H125.478V19.2654V19.2173L125.483 19.1695L126.562 8.79103Z" fill="white"/>
</svg>
