<svg width="30" height="26" viewBox="0 0 30 26" fill="none" xmlns="http://www.w3.org/2000/svg">
<path d="M10.1769 19.035L29.3794 9.8421L29.4841 13.6952L10.1769 22.9718V19.035Z" fill="#23B49A"/>
<path d="M14.2393 17.0875L20.3749 20.0611L16.3416 22.0086L10.1769 19.0559L14.2393 17.0875Z" fill="#2CCDB0"/>
<path d="M20.3751 23.977L20.3751 20.0611L16.3417 22.0086L16.3126 25.9454L20.3751 23.977Z" fill="#46EFD1"/>
<path d="M6.24011 17.1503L25.4217 7.91553L29.3794 9.84206L10.1769 19.0559L6.24011 17.1503Z" fill="#2CCDB0"/>
<path d="M6.24011 17.1294L16.3335 21.9667V25.9035L6.24011 21.0662V17.1294Z" fill="#177867"/>
<path d="M0 7.62238L10.0933 12.4596V16.3965L0 11.5592V7.62238Z" fill="#131766"/>
<path d="M18.3021 9.65358L21.2338 10.9938L21.2757 3.30859L18.3021 1.92651V9.65358Z" fill="#1B1F6D"/>
<path d="M10.0934 12.4596L29.2959 3.26672L29.4006 7.11979L10.0934 16.3965V12.4596Z" fill="#262C96"/>
<path d="M6.15662 10.575L25.3382 1.34021L29.2959 3.26674L10.0934 12.4806L6.15662 10.575Z" fill="#4950D4"/>
<path d="M4.10435 5.6958L10.198 8.62748L6.16467 10.5749L0 7.62233L4.10435 5.6958Z" fill="#4950D4"/>
<path d="M22.4065 0L25.3381 1.3402L21.2757 3.30861L18.3021 1.92653L22.4065 0Z" fill="#4950D4"/>
</svg>
