<svg width="26" height="24" viewBox="0 0 26 24" fill="none" xmlns="http://www.w3.org/2000/svg">
<path d="M8.97461 17.6051L25.9075 9.10156L25.9998 12.6657L8.97461 21.2467V17.6051Z" fill="#23B49A"/>
<path d="M12.5569 15.8047L17.9673 18.5553L14.4107 20.3567L8.97461 17.6255L12.5569 15.8047Z" fill="#2CCDB0"/>
<path d="M17.9671 22.1769L17.9671 18.5547L14.4104 20.3561L14.3848 23.9977L17.9671 22.1769Z" fill="#46EFD1"/>
<path d="M5.50195 15.8626L22.4164 7.32031L25.9063 9.10238L8.97347 17.6253L5.50195 15.8626Z" fill="#2CCDB0"/>
<path d="M5.50195 15.8438L14.4023 20.3183V23.9599L5.50195 19.4854V15.8438Z" fill="#177867"/>
<path d="M0 7.05078L8.90038 11.5253V15.1669L0 10.6924V7.05078Z" fill="#131766"/>
<path d="M16.1406 8.92889L18.7258 10.1686L18.7627 3.05969L16.1406 1.78125V8.92889Z" fill="#1B1F6D"/>
<path d="M8.90234 11.527L25.8352 3.02344L25.9275 6.58757L8.90234 15.1686V11.527Z" fill="#262C96"/>
<path d="M5.42969 9.78449L22.3441 1.24219L25.8341 3.02426L8.9012 11.5472L5.42969 9.78449Z" fill="#4950D4"/>
<path d="M3.61924 5.26562L8.9927 7.97747L5.43605 9.77891L0 7.04769L3.61924 5.26562Z" fill="#4950D4"/>
<path d="M19.7599 0L22.345 1.2397L18.7627 3.06051L16.1406 1.78207L19.7599 0Z" fill="#4950D4"/>
</svg>
