<svg width="148" height="24" viewBox="0 0 148 24" fill="none" xmlns="http://www.w3.org/2000/svg">
<path d="M8.88484 17.6051L25.6483 9.10156L25.7397 12.6657L8.88484 21.2467V17.6051Z" fill="#23B49A"/>
<path d="M12.4313 15.8047L17.7876 18.5553L14.2665 20.3567L8.88484 17.6255L12.4313 15.8047Z" fill="#2CCDB0"/>
<path d="M17.7875 22.1769L17.7875 18.5547L14.2664 20.3561L14.241 23.9977L17.7875 22.1769Z" fill="#46EFD1"/>
<path d="M5.44809 15.8626L22.1933 7.32031L25.6483 9.10238L8.88487 17.6253L5.44809 15.8626Z" fill="#2CCDB0"/>
<path d="M5.44794 15.8438L14.2593 20.3183V23.9599L5.44794 19.4854V15.8438Z" fill="#177867"/>
<path d="M0 7.05078L8.81132 11.5253V15.1669L0 10.6924V7.05078Z" fill="#131766"/>
<path d="M15.9776 8.92889L18.5369 10.1686L18.5735 3.05969L15.9776 1.78125V8.92889Z" fill="#1B1F6D"/>
<path d="M8.81157 11.527L25.575 3.02344L25.6664 6.58757L8.81157 15.1686V11.527Z" fill="#262C96"/>
<path d="M5.375 9.78449L22.1202 1.24219L25.5752 3.02426L8.81178 11.5472L5.375 9.78449Z" fill="#4950D4"/>
<path d="M3.58303 5.26562L8.90272 7.97747L5.38165 9.77891L0 7.04769L3.58303 5.26562Z" fill="#4950D4"/>
<path d="M19.5607 0L22.12 1.2397L18.5735 3.06051L15.9776 1.78207L19.5607 0Z" fill="#4950D4"/>
<path fill-rule="evenodd" clip-rule="evenodd" d="M37.4308 6.44773V15.434C37.4308 16.7098 36.6835 17.3477 35.1887 17.3477H31.2549V19.1783H34.9238C35.7119 19.1783 36.3777 19.1159 36.9213 18.9911C37.4648 18.8663 37.954 18.5958 38.3888 18.1798C39.0275 17.5558 39.3468 16.7306 39.3468 15.7044V4.61719H33.6397V6.44773H37.4308ZM46.4769 19.1783H50.0031V9.19353H48.2094V17.431H45.8858C45.4781 17.431 45.1316 17.3685 44.8463 17.2437C44.5609 17.1051 44.3435 16.9525 44.194 16.7861C44.0446 16.6058 43.9291 16.3839 43.8475 16.1205C43.766 15.8431 43.7184 15.6212 43.7048 15.4548C43.6913 15.2745 43.6845 15.0596 43.6845 14.81V9.19353H41.8908V14.8308C41.8908 15.746 41.9655 16.4879 42.115 17.0565C42.2781 17.6112 42.6517 18.0897 43.236 18.4918C43.8883 18.9495 44.9686 19.1783 46.4769 19.1783ZM59.3472 9.19353V10.9409H55.7395C55.3455 10.9409 55.0057 11.0171 54.7204 11.1697C54.435 11.3222 54.2923 11.5372 54.2923 11.8145C54.2923 11.9809 54.3263 12.1335 54.3943 12.2722C54.4622 12.397 54.5369 12.501 54.6185 12.5842C54.7136 12.6674 54.8495 12.7575 55.0261 12.8546L55.4542 13.0418C55.5629 13.0696 55.9977 13.2082 56.7586 13.4579C57.5196 13.7075 58.0835 13.9155 58.4504 14.0819C58.8173 14.2483 59.0959 14.4771 59.2861 14.7684C59.4899 15.0457 59.619 15.3231 59.6734 15.6004C59.7277 15.8639 59.7549 16.1274 59.7549 16.3909C59.7549 18.2491 58.5048 19.1783 56.0045 19.1783H52.4783V17.431H56.0045C57.2818 17.431 57.9205 17.0843 57.9205 16.3909C57.9205 16.0581 57.7302 15.7807 57.3497 15.5588C56.9829 15.3369 56.5276 15.1497 55.9841 14.9972C55.4542 14.8446 54.9174 14.6713 54.3739 14.4771C53.8439 14.2691 53.3887 13.9432 53.0082 13.4995C52.6414 13.0418 52.4579 12.4802 52.4579 11.8145C52.4579 10.9686 52.7772 10.3238 53.4159 9.87998C54.0546 9.42235 54.8291 9.19353 55.7395 9.19353H59.3472ZM62.5906 7.21738V10.9409V15.226C62.5906 16.6405 62.9643 17.6528 63.7117 18.263C64.459 18.8732 65.614 19.1783 67.1767 19.1783V17.431C66.7827 17.431 66.4497 17.4102 66.178 17.3685C65.9198 17.3269 65.6412 17.2437 65.3423 17.1189C65.0433 16.9803 64.8123 16.7514 64.6493 16.4325C64.4998 16.1135 64.4251 15.7114 64.4251 15.226V10.9409H67.1767V9.19353H64.4251V7.21738H62.5906ZM77.2126 19.1783H74.2368C73.6796 19.1783 73.238 19.1714 72.9119 19.1575C72.5993 19.1297 72.2053 19.0465 71.7297 18.9079C71.2541 18.7553 70.8532 18.5334 70.5271 18.2422C70.0243 17.7707 69.6982 17.2091 69.5487 16.5573C69.3993 15.8916 69.3245 15.115 69.3245 14.2275V4.61719H71.2405V14.1859C71.2405 14.9902 71.3288 15.6212 71.5055 16.0789C71.8588 16.9248 72.5993 17.3477 73.7272 17.3477H77.2126V19.1783ZM87.2087 11.9185C87.2087 10.0603 86.0537 9.08259 83.7437 8.98552C82.1674 8.93005 80.9241 9.40848 80.0136 10.4208C79.1032 11.4332 78.648 12.7575 78.648 14.3939C78.648 15.8639 79.11 17.0635 80.034 17.9926C80.958 18.9217 82.1946 19.3863 83.7437 19.3863C85.021 19.3863 86.1284 18.998 87.066 18.2214L85.8431 16.9941C85.2995 17.424 84.5997 17.639 83.7437 17.639C82.7925 17.639 82.0179 17.32 81.42 16.6821C80.8357 16.0442 80.5436 15.2121 80.5436 14.1859C80.5436 13.2152 80.8154 12.3831 81.3589 11.6897C81.916 10.9963 82.677 10.6496 83.6417 10.6496C84.1309 10.6496 84.5318 10.7606 84.8443 10.9825C85.1569 11.1905 85.3131 11.5094 85.3131 11.9393C85.3131 12.605 85.1365 13.0834 84.7832 13.3746C84.4299 13.652 83.798 13.7907 82.8876 13.7907H81.9092V15.3924H82.7449C85.7208 15.3924 87.2087 14.2344 87.2087 11.9185ZM89.3465 9.19353H92.8727C94.381 9.19353 95.4613 9.42235 96.1135 9.87998C96.6978 10.2821 97.0647 10.7675 97.2142 11.3361C97.3772 11.8908 97.4588 12.6258 97.4588 13.5411V19.1783H95.6651V13.5619C95.6651 13.3122 95.6583 13.1042 95.6447 12.9378C95.6311 12.7575 95.5836 12.5357 95.502 12.2722C95.4205 11.9948 95.305 11.7729 95.1555 11.6065C95.0061 11.4262 94.7887 11.2737 94.5033 11.1489C94.2179 11.0102 93.8714 10.9409 93.4638 10.9409H91.1402V19.1783H89.3465V9.19353ZM109.392 4.61719H107.557V17.431H104.602C103.637 17.431 102.883 17.1259 102.339 16.5157C101.809 15.9055 101.544 15.0942 101.544 14.0819C101.544 13.0834 101.823 12.2791 102.38 11.6689C102.951 11.0449 103.644 10.7328 104.459 10.7328C105.356 10.7328 106.144 10.9825 106.823 11.4817V9.60956C106.09 9.19353 105.301 8.98552 104.459 8.98552C103.141 8.98552 101.999 9.47782 101.035 10.4624C100.083 11.4332 99.6079 12.6397 99.6079 14.0819C99.6079 15.5519 100.07 16.7722 100.994 17.743C101.918 18.6998 103.12 19.1783 104.602 19.1783H109.392V4.61719ZM122.163 17.5727C123.381 16.3498 123.996 14.6285 124.009 12.4087C123.996 10.1889 123.381 8.4742 122.163 7.26461C120.958 6.04172 119.29 5.43028 117.159 5.43028H114.459V19.3871H117.159C119.29 19.3871 120.958 18.7823 122.163 17.5727ZM120.773 16.177C119.992 17.1474 118.867 17.6325 117.397 17.6325H116.325V7.18485H117.397C118.867 7.18485 119.992 7.67666 120.773 8.66029C121.567 9.63062 121.977 10.8801 122.004 12.4087C121.977 13.9373 121.567 15.1934 120.773 16.177ZM146.307 12.2921C146.296 11.5503 146.201 10.8481 146.022 10.1857C145.854 9.52335 145.603 8.94707 145.268 8.4569C144.943 7.95349 144.547 7.55605 144.077 7.2646C143.608 6.97315 143.077 6.82743 142.485 6.82743C141.892 6.82743 141.361 6.97315 140.892 7.2646C140.423 7.55605 140.02 7.95349 139.685 8.4569C139.361 8.94707 139.109 9.52335 138.931 10.1857C138.763 10.8481 138.674 11.5503 138.662 12.2921C138.674 13.0472 138.763 13.7494 138.931 14.3985C139.109 15.0477 139.361 15.6107 139.685 16.0876C140.02 16.5645 140.423 16.9421 140.892 17.2203C141.361 17.4985 141.892 17.6376 142.485 17.6376C143.077 17.6376 143.608 17.4985 144.077 17.2203C144.547 16.9421 144.943 16.5645 145.268 16.0876C145.603 15.6107 145.854 15.0477 146.022 14.3985C146.201 13.7494 146.296 13.0472 146.307 12.2921ZM136.969 12.2921C136.98 11.1926 137.12 10.199 137.388 9.31138C137.657 8.42378 138.031 7.66866 138.512 7.04602C138.992 6.41012 139.568 5.92658 140.238 5.59539C140.909 5.25094 141.658 5.07872 142.485 5.07872C143.301 5.07872 144.044 5.25094 144.714 5.59539C145.396 5.92658 145.977 6.41012 146.458 7.04602C146.938 7.66866 147.313 8.42378 147.581 9.31138C147.849 10.199 147.989 11.1926 148 12.2921C147.989 13.3917 147.849 14.3786 147.581 15.253C147.324 16.1274 146.955 16.8692 146.475 17.4786C145.994 18.088 145.413 18.5583 144.731 18.8895C144.061 19.2207 143.312 19.3863 142.485 19.3863C141.658 19.3863 140.903 19.2207 140.221 18.8895C139.551 18.5583 138.975 18.088 138.495 17.4786C138.014 16.8692 137.64 16.1274 137.372 15.253C137.114 14.3786 136.98 13.3917 136.969 12.2921ZM126.562 8.79298C126.782 6.68207 128.554 5.07872 130.667 5.07872C132.781 5.07872 134.553 6.68204 134.772 8.79293L135.851 19.1698L135.856 19.2176V19.2657V19.3863H134.018V19.3137L132.944 8.9846C132.822 7.81399 131.839 6.92486 130.667 6.92486C129.495 6.92486 128.512 7.81401 128.391 8.98463L127.981 12.9248H132.833V14.494H127.818L127.317 19.3154V19.3863H125.478V19.2673V19.2193L125.483 19.1715L126.562 8.79298Z" fill="#22232B"/>
</svg>
