<svg width="16" height="16" viewBox="0 0 16 16" fill="none" xmlns="http://www.w3.org/2000/svg">
<path d="M8 0C3.56923 0 0 3.56923 0 8C0 12.4308 3.56923 16 8 16C12.4308 16 16 12.4308 16 8C16 3.56923 12.4308 0 8 0ZM11.8769 5.72308C11.8154 5.78462 11.8154 5.84615 11.7538 5.84615C11.6308 5.96923 11.5077 6.03077 11.3846 6.09231C11.3231 6.09231 11.3231 6.15385 11.3231 6.21538C11.3846 6.89231 11.2615 7.56923 11.0154 8.24615C10.5846 9.41538 9.66154 10.3385 8.55385 10.8923C7.63077 11.4462 6.52308 11.6308 5.53846 11.3846C5.04615 11.3231 4.61538 11.1385 4.24615 10.8923L4.18462 10.8308C4.18462 10.7692 4.24615 10.7077 4.30769 10.7077C4.61539 10.7077 4.92308 10.6462 5.23077 10.5231C5.53846 10.4 5.84615 10.2154 6.09231 10.0308L6.15385 9.96923C6.15385 9.90769 6.15385 9.84615 6.09231 9.84615C5.84615 9.78462 5.66154 9.66154 5.47692 9.53846C5.23077 9.41538 5.04615 9.16923 4.92308 8.92308V8.86154C4.92308 8.8 4.98462 8.73846 5.04615 8.73846H5.23077C5.29231 8.73846 5.29231 8.73846 5.29231 8.67692C5.35385 8.61538 5.29231 8.55385 5.23077 8.49231C4.98462 8.36923 4.8 8.18462 4.61538 8C4.36923 7.75385 4.24615 7.44615 4.24615 7.13846V7.07692C4.24615 7.01538 4.36923 7.01538 4.36923 7.01538C4.43077 7.01538 4.49231 7.07692 4.55385 7.07692H4.67692C4.73846 7.07692 4.73846 7.07692 4.8 7.01538C4.86154 6.95385 4.86154 6.89231 4.8 6.83077C4.55385 6.58462 4.36923 6.27692 4.30769 5.90769C4.24615 5.6 4.30769 5.23077 4.43077 4.92308V4.86154C4.30769 4.92308 4.36923 4.92308 4.43077 4.98462C4.86154 5.41538 5.29231 5.78462 5.84615 6.09231C6.46154 6.4 7.13846 6.58462 7.81538 6.58462C7.87692 6.58462 7.93846 6.52308 7.93846 6.46154C7.93846 6.09231 8.06154 4.86154 9.16923 4.55385C9.72308 4.36923 10.4 4.49231 10.8308 4.98462C10.8308 4.98462 10.8923 5.04615 10.9538 5.04615C11.0769 5.04615 11.2 4.98462 11.3846 4.98462C11.5077 4.92308 11.6308 4.92308 11.7538 4.86154H11.8769C11.9385 4.86154 11.9385 4.98462 11.9385 5.04615C11.8769 5.16923 11.7538 5.29231 11.6308 5.41538L11.5692 5.47692C11.5077 5.47692 11.5077 5.53846 11.5077 5.6C11.5077 5.66154 11.5692 5.72308 11.6308 5.72308C11.6923 5.72308 11.7538 5.72308 11.8769 5.66154H12C11.9385 5.6 11.9385 5.72308 11.8769 5.72308Z" fill="#3D56D6"/>
</svg>
