<svg width="12" height="12" viewBox="0 0 12 12" fill="none" xmlns="http://www.w3.org/2000/svg">
<g clip-path="url(#clip0_71_532)">
<path d="M9.33697 10.3358H2.67519V8.58736C1.93907 7.918 1.42244 7.04179 1.19304 6.07365C0.963642 5.10551 1.03219 4.09064 1.38971 3.16214C1.74722 2.23365 2.377 1.43488 3.19645 0.870591C4.0159 0.306304 4.98676 0.00284721 5.98171 1.99372e-05C6.97665 -0.00280734 7.94922 0.295126 8.77186 0.854747C9.59451 1.41437 10.2288 2.20955 10.5916 3.136C10.9544 4.06244 11.0287 5.07691 10.8048 6.04634C10.5809 7.01577 10.0693 7.8949 9.33697 8.56844V10.3358ZM3.70776 9.30328H8.3044V8.09862L8.49026 7.94373C9.10152 7.43099 9.53989 6.74231 9.74567 5.97148C9.95145 5.20064 9.91465 4.38511 9.64028 3.63594C9.3659 2.88677 8.86729 2.24037 8.21234 1.78477C7.55739 1.32917 6.77793 1.08651 5.9801 1.08983C5.18228 1.09315 4.40486 1.34229 3.75372 1.80332C3.10258 2.26436 2.60937 2.91488 2.34124 3.66631C2.07311 4.41774 2.04309 5.23355 2.25528 6.00264C2.46748 6.77174 2.91156 7.45675 3.52706 7.96438L3.71464 8.11927L3.70776 9.30328ZM8.73464 12H3.19492C3.05799 12 2.92667 11.9456 2.82985 11.8488C2.73303 11.752 2.67863 11.6206 2.67863 11.4837C2.67863 11.3468 2.73303 11.2155 2.82985 11.1186C2.92667 11.0218 3.05799 10.9674 3.19492 10.9674H8.73464C8.87157 10.9674 9.00289 11.0218 9.09971 11.1186C9.19653 11.2155 9.25092 11.3468 9.25092 11.4837C9.25092 11.6206 9.19653 11.752 9.09971 11.8488C9.00289 11.9456 8.87157 12 8.73464 12Z" fill="#FF8718"/>
<path d="M8.52134 5.44662C8.38442 5.44662 8.2531 5.39223 8.15628 5.29541C8.05945 5.19859 8.00506 5.06727 8.00506 4.93034C8.00233 4.4007 7.79013 3.89365 7.41481 3.51994C7.03948 3.14623 6.53153 2.93621 6.00188 2.93577C5.86495 2.93577 5.73363 2.88137 5.63681 2.78455C5.53999 2.68773 5.4856 2.55641 5.4856 2.41948C5.4856 2.28255 5.53999 2.15124 5.63681 2.05441C5.73363 1.95759 5.86495 1.9032 6.00188 1.9032C6.80524 1.9041 7.57557 2.22305 8.14444 2.79031C8.71331 3.35756 9.03444 4.12698 9.03763 4.93034C9.03763 4.99814 9.02427 5.06528 8.99833 5.12791C8.97238 5.19055 8.93435 5.24747 8.88641 5.29541C8.83847 5.34335 8.78156 5.38138 8.71892 5.40732C8.65628 5.43327 8.58914 5.44662 8.52134 5.44662Z" fill="#FF8718"/>
</g>
<defs>
<clipPath id="clip0_71_532">
<rect width="12" height="12" fill="white"/>
</clipPath>
</defs>
</svg>
