<svg width="24" height="28" viewBox="0 0 24 28" fill="none" xmlns="http://www.w3.org/2000/svg">
<mask id="path-1-inside-1_426_8211" fill="white">
<path fill-rule="evenodd" clip-rule="evenodd" d="M10.0764 22.1032C9.73593 22.0543 4.63893 21.2326 3.64501 15.789C2.7615 10.95 6.20388 7.77455 6.20388 7.77455L6.71566 10.2791C6.71566 10.2791 8.72303 8.49257 9.78489 5.77095C10.5667 4.14686 10.2967 1.76514 10.2967 1.76514C10.2967 1.76514 12.0525 2.6316 13.3673 4.26824C15.0407 5.96951 16.0334 9.28107 16.0334 9.28107L16.438 5.27005C16.438 5.27005 20.8028 9.44907 20.4833 14.4567C20.1099 20.3081 14.7028 21.7282 14.028 21.8829C12.8055 22.2541 11.3949 22.3379 10.0764 22.1032Z"/>
</mask>
<path fill-rule="evenodd" clip-rule="evenodd" d="M10.0764 22.1032C9.73593 22.0543 4.63893 21.2326 3.64501 15.789C2.7615 10.95 6.20388 7.77455 6.20388 7.77455L6.71566 10.2791C6.71566 10.2791 8.72303 8.49257 9.78489 5.77095C10.5667 4.14686 10.2967 1.76514 10.2967 1.76514C10.2967 1.76514 12.0525 2.6316 13.3673 4.26824C15.0407 5.96951 16.0334 9.28107 16.0334 9.28107L16.438 5.27005C16.438 5.27005 20.8028 9.44907 20.4833 14.4567C20.1099 20.3081 14.7028 21.7282 14.028 21.8829C12.8055 22.2541 11.3949 22.3379 10.0764 22.1032Z" fill="url(#paint0_linear_426_8211)"/>
<path d="M10.0764 22.1032L10.129 21.8077L10.1191 21.8063L10.0764 22.1032ZM3.64501 15.789L3.34989 15.8428L3.64501 15.789ZM6.20388 7.77455L6.49781 7.71449L6.39135 7.19347L6.00047 7.55404L6.20388 7.77455ZM6.71566 10.2791L6.42173 10.3391L6.52601 10.8494L6.9151 10.5032L6.71566 10.2791ZM9.78489 5.77095L9.51458 5.64082L9.50959 5.65119L9.50541 5.66191L9.78489 5.77095ZM10.2967 1.76514L10.4294 1.49611L9.93668 1.25296L9.99857 1.79893L10.2967 1.76514ZM13.3673 4.26824L13.1334 4.45613L13.1429 4.46787L13.1534 4.47862L13.3673 4.26824ZM16.0334 9.28107L15.746 9.36721L16.3319 9.31118L16.0334 9.28107ZM16.438 5.27005L16.6454 5.05335L16.2012 4.62803L16.1395 5.23994L16.438 5.27005ZM20.4833 14.4567L20.7827 14.4758L20.4833 14.4567ZM14.028 21.8829L13.961 21.5905L13.9508 21.5928L13.9409 21.5958L14.028 21.8829ZM10.1191 21.8063C9.96912 21.7847 8.65539 21.5755 7.26365 20.714C5.88013 19.8576 4.41902 18.3579 3.94013 15.7351L3.34989 15.8428C3.86492 18.6636 5.44928 20.2966 6.94786 21.2242C8.43821 22.1467 9.84322 22.3728 10.0337 22.4002L10.1191 21.8063ZM3.94013 15.7351C3.51374 13.3997 4.13002 11.4654 4.85751 10.1089C5.22138 9.43048 5.61205 8.89878 5.91094 8.53759C6.06027 8.35713 6.18633 8.21967 6.27414 8.12817C6.31804 8.08244 6.35234 8.04822 6.37517 8.0259C6.38658 8.01475 6.39512 8.00656 6.40055 8.00141C6.40327 7.99883 6.40521 7.99701 6.40635 7.99595C6.40691 7.99542 6.40728 7.99508 6.40744 7.99493C6.40752 7.99485 6.40755 7.99483 6.40752 7.99485C6.40751 7.99486 6.40745 7.99491 6.40745 7.99492C6.40738 7.99498 6.4073 7.99506 6.20388 7.77455C6.00047 7.55404 6.00036 7.55414 6.00024 7.55425C6.00018 7.55431 6.00005 7.55443 5.99993 7.55454C5.9997 7.55476 5.99942 7.55502 5.99908 7.55533C5.99841 7.55596 5.99752 7.55678 5.99644 7.55779C5.99427 7.55982 5.99129 7.56263 5.98752 7.56621C5.97998 7.57336 5.9693 7.5836 5.95571 7.59688C5.92855 7.62344 5.88976 7.66218 5.84125 7.71272C5.74426 7.81378 5.60828 7.96221 5.44869 8.15507C5.12975 8.54049 4.71504 9.1051 4.32875 9.82537C3.55593 11.2664 2.89277 13.3393 3.34989 15.8428L3.94013 15.7351ZM5.90996 7.83461L6.42173 10.3391L7.00958 10.219L6.49781 7.71449L5.90996 7.83461ZM6.71566 10.2791C6.9151 10.5032 6.91516 10.5031 6.91523 10.503C6.91527 10.503 6.91534 10.5029 6.91541 10.5029C6.91554 10.5028 6.91571 10.5026 6.9159 10.5024C6.91629 10.5021 6.9168 10.5016 6.91743 10.5011C6.91869 10.4999 6.92043 10.4984 6.92264 10.4964C6.92707 10.4924 6.93337 10.4867 6.94145 10.4792C6.95763 10.4644 6.98095 10.4427 7.01071 10.4144C7.07022 10.3578 7.15548 10.2747 7.26069 10.1668C7.47103 9.95113 7.76155 9.63573 8.0856 9.23394C8.73263 8.43167 9.51891 7.27806 10.0644 5.87999L9.50541 5.66191C8.98902 6.98546 8.24068 8.0859 7.61856 8.85728C7.30803 9.24231 7.03034 9.54363 6.83112 9.74795C6.73154 9.85006 6.65168 9.92782 6.59726 9.97957C6.57006 10.0054 6.54922 10.0248 6.53547 10.0374C6.5286 10.0437 6.52349 10.0484 6.52025 10.0513C6.51864 10.0528 6.51748 10.0538 6.5168 10.0544C6.51647 10.0547 6.51625 10.0549 6.51615 10.055C6.5161 10.0551 6.51608 10.0551 6.51609 10.0551C6.5161 10.0551 6.51613 10.055 6.51613 10.055C6.51617 10.055 6.51622 10.0549 6.71566 10.2791ZM10.0552 5.90107C10.4728 5.0335 10.603 3.98302 10.6337 3.17035C10.6493 2.76021 10.6397 2.40248 10.6262 2.14688C10.6195 2.01895 10.6118 1.91627 10.6056 1.84502C10.6026 1.80938 10.5999 1.78158 10.598 1.76238C10.5971 1.75278 10.5963 1.74533 10.5957 1.74013C10.5954 1.73753 10.5952 1.73548 10.5951 1.73402C10.595 1.73328 10.5949 1.73269 10.5949 1.73224C10.5948 1.73202 10.5948 1.73183 10.5948 1.73168C10.5948 1.73161 10.5948 1.73152 10.5948 1.73149C10.5948 1.73141 10.5948 1.73134 10.2967 1.76514C9.99857 1.79893 9.99857 1.79888 9.99856 1.79884C9.99856 1.79884 9.99856 1.79881 9.99856 1.79881C9.99856 1.7988 9.99856 1.79883 9.99857 1.7989C9.99859 1.79903 9.99862 1.79931 9.99866 1.79972C9.99875 1.80056 9.99891 1.80195 9.99912 1.80391C9.99953 1.80781 10.0002 1.81394 10.001 1.82218C10.0027 1.83866 10.005 1.86362 10.0078 1.89628C10.0134 1.96162 10.0207 2.0577 10.0271 2.17844C10.0398 2.42016 10.0489 2.75936 10.0342 3.14766C10.0045 3.93188 9.87875 4.8843 9.51458 5.64082L10.0552 5.90107ZM10.2967 1.76514C10.1639 2.03416 10.1639 2.03414 10.1638 2.03412C10.1638 2.03411 10.1638 2.03409 10.1638 2.03409C10.1637 2.03407 10.1637 2.03407 10.1638 2.03409C10.1638 2.03411 10.164 2.03419 10.1642 2.03432C10.1648 2.03459 10.1657 2.03506 10.1671 2.03574C10.1698 2.0371 10.1741 2.0393 10.18 2.04233C10.1919 2.04839 10.21 2.05777 10.2339 2.07046C10.2816 2.09584 10.3523 2.1344 10.4417 2.18596C10.6205 2.28912 10.8737 2.44399 11.1672 2.64893C11.7558 3.05982 12.4995 3.66694 13.1334 4.45613L13.6012 4.08036C12.9204 3.2329 12.1288 2.58847 11.5107 2.15696C11.2009 1.94071 10.9329 1.77667 10.7415 1.66623C10.6457 1.61098 10.5689 1.56907 10.5155 1.54067C10.4888 1.52647 10.4679 1.51564 10.4534 1.50821C10.4461 1.50449 10.4404 1.50162 10.4364 1.49961C10.4344 1.4986 10.4328 1.4978 10.4317 1.49722C10.4311 1.49693 10.4306 1.49669 10.4302 1.4965C10.43 1.49641 10.4299 1.49633 10.4297 1.49627C10.4297 1.49623 10.4296 1.49619 10.4296 1.49618C10.4295 1.49614 10.4294 1.49611 10.2967 1.76514ZM13.1534 4.47862C13.9508 5.28932 14.5997 6.50155 15.0532 7.53334C15.2783 8.04536 15.452 8.50535 15.5693 8.83709C15.6279 9.00285 15.6724 9.13632 15.7021 9.22791C15.7169 9.2737 15.728 9.309 15.7354 9.33262C15.739 9.34443 15.7418 9.35332 15.7436 9.35914C15.7444 9.36204 15.7451 9.36418 15.7455 9.36553C15.7457 9.36621 15.7458 9.36669 15.7459 9.36697C15.746 9.36711 15.746 9.3672 15.746 9.36724C15.746 9.36726 15.746 9.36725 15.746 9.36726C15.746 9.36724 15.746 9.36721 16.0334 9.28107C16.3207 9.19493 16.3207 9.19487 16.3207 9.1948C16.3207 9.19476 16.3207 9.19467 16.3206 9.19459C16.3206 9.19443 16.3205 9.19422 16.3204 9.19396C16.3203 9.19343 16.3201 9.19271 16.3198 9.19179C16.3192 9.18994 16.3184 9.18731 16.3174 9.1839C16.3153 9.17707 16.3123 9.16716 16.3083 9.1543C16.3003 9.12858 16.2884 9.09107 16.2728 9.04299C16.2417 8.94684 16.1955 8.80829 16.1349 8.63702C16.0139 8.29468 15.8348 7.82045 15.6025 7.29192C15.1413 6.24261 14.4572 4.94843 13.5812 4.05787L13.1534 4.47862ZM16.3319 9.31118L16.7364 5.30015L16.1395 5.23994L15.7349 9.25096L16.3319 9.31118ZM16.438 5.27005C16.2305 5.48674 16.2304 5.48669 16.2304 5.48666C16.2304 5.48667 16.2304 5.48665 16.2304 5.48667C16.2305 5.48671 16.2306 5.48682 16.2307 5.48699C16.2311 5.48732 16.2317 5.48791 16.2326 5.48874C16.2343 5.49042 16.2371 5.4931 16.2408 5.49676C16.2483 5.5041 16.2598 5.51539 16.275 5.53053C16.3053 5.56083 16.3505 5.60653 16.4082 5.66682C16.5236 5.78743 16.6892 5.9663 16.8875 6.19687C17.2844 6.65834 17.8105 7.32522 18.3265 8.14528C19.3621 9.79104 20.3379 12.0235 20.1839 14.4376L20.7827 14.4758C20.9482 11.8823 19.9013 9.5214 18.8344 7.82574C18.2991 6.97509 17.754 6.28424 17.3424 5.80565C17.1365 5.5662 16.9636 5.37945 16.8416 5.25196C16.7806 5.18821 16.7323 5.13923 16.6988 5.10587C16.6821 5.08918 16.6691 5.0764 16.6601 5.06761C16.6556 5.06322 16.6521 5.05982 16.6497 5.05744C16.6484 5.05625 16.6475 5.05532 16.6468 5.05463C16.6464 5.05429 16.6461 5.05401 16.6459 5.0538C16.6458 5.05369 16.6457 5.05358 16.6456 5.05353C16.6455 5.05343 16.6454 5.05335 16.438 5.27005ZM20.1839 14.4376C20.0039 17.2588 18.6162 19.0015 17.1893 20.0656C15.7539 21.136 14.279 21.5176 13.961 21.5905L14.0951 22.1753C14.4518 22.0935 16.0179 21.6876 17.548 20.5465C19.0868 19.399 20.5893 17.506 20.7827 14.4758L20.1839 14.4376ZM13.9409 21.5958C12.7647 21.953 11.402 22.0345 10.129 21.8079L10.0238 22.3986C11.3879 22.6414 12.8464 22.5552 14.1152 22.17L13.9409 21.5958Z" fill="url(#paint1_linear_426_8211)" mask="url(#path-1-inside-1_426_8211)"/>
<g filter="url(#filter0_d_426_8211)">
<path d="M12.543 19.7714C9.15641 20.3358 7.90191 16.8126 9.2859 15.4286C10.3716 14.3428 12.0003 13.2571 12.0004 10C13.6289 11.6286 14.8456 13.6497 15.2575 14.8857C15.8002 16.5143 15.8002 19.2286 12.543 19.7714Z" fill="#393B42"/>
</g>
<defs>
<filter id="filter0_d_426_8211" x="4.73193" y="10" width="14.7944" height="17.832" filterUnits="userSpaceOnUse" color-interpolation-filters="sRGB">
<feFlood flood-opacity="0" result="BackgroundImageFix"/>
<feColorMatrix in="SourceAlpha" type="matrix" values="0 0 0 0 0 0 0 0 0 0 0 0 0 0 0 0 0 0 127 0" result="hardAlpha"/>
<feOffset dy="4"/>
<feGaussianBlur stdDeviation="2"/>
<feComposite in2="hardAlpha" operator="out"/>
<feColorMatrix type="matrix" values="0 0 0 0 0 0 0 0 0 0 0 0 0 0 0 0 0 0 0.25 0"/>
<feBlend mode="normal" in2="BackgroundImageFix" result="effect1_dropShadow_426_8211"/>
<feBlend mode="normal" in="SourceGraphic" in2="effect1_dropShadow_426_8211" result="shape"/>
</filter>
<linearGradient id="paint0_linear_426_8211" x1="-8.77778" y1="-17.0869" x2="13.4549" y2="21.3218" gradientUnits="userSpaceOnUse">
<stop stop-color="#F6D7B6"/>
<stop offset="1" stop-color="#53EFDE"/>
</linearGradient>
<linearGradient id="paint1_linear_426_8211" x1="12" y1="1.76514" x2="12" y2="22.2345" gradientUnits="userSpaceOnUse">
<stop stop-color="white"/>
<stop offset="1" stop-color="white" stop-opacity="0"/>
</linearGradient>
</defs>
</svg>
