<svg width="24" height="24" viewBox="0 0 24 24" fill="none" xmlns="http://www.w3.org/2000/svg">
<g clip-path="url(#clip0_426_8195)">
<path d="M3.15 9.51435V4.2403L12.0043 1.65626L20.85 4.24027V9.51685C20.85 15.0999 17.2877 20.0582 12.0013 21.842C6.71341 20.0582 3.15 15.0987 3.15 9.51435Z" fill="url(#paint0_linear_426_8195)" stroke="url(#paint1_linear_426_8195)" stroke-width="0.3"/>
<g filter="url(#filter0_d_426_8195)">
<path d="M15.2947 10.6696H12.651L13.1719 6.84388C13.1742 6.82579 13.1705 6.80744 13.1613 6.79164C13.1521 6.77584 13.1378 6.76347 13.1208 6.75643C13.1037 6.7494 13.0848 6.74809 13.0669 6.75271C13.049 6.75733 13.0332 6.76762 13.0218 6.782L8.54276 12.504C8.51932 12.534 8.50487 12.5698 8.50103 12.6075C8.49719 12.6452 8.50412 12.6831 8.52104 12.7171C8.53796 12.7511 8.56418 12.7797 8.59674 12.7997C8.6293 12.8197 8.66689 12.8304 8.70525 12.8304H11.349L10.8281 16.6561C10.8258 16.6742 10.8295 16.6926 10.8387 16.7084C10.8479 16.7242 10.8622 16.7365 10.8792 16.7436C10.8963 16.7506 10.9152 16.7519 10.9331 16.7473C10.951 16.7427 10.9668 16.7324 10.9782 16.718L15.4572 10.996C15.4807 10.966 15.4951 10.9302 15.499 10.8925C15.5028 10.8548 15.4959 10.8169 15.479 10.7829C15.462 10.7489 15.4358 10.7203 15.4033 10.7003C15.3707 10.6803 15.3331 10.6696 15.2947 10.6696Z" fill="#393B42"/>
</g>
</g>
<defs>
<filter id="filter0_d_426_8195" x="4.5" y="6.75" width="15" height="18" filterUnits="userSpaceOnUse" color-interpolation-filters="sRGB">
<feFlood flood-opacity="0" result="BackgroundImageFix"/>
<feColorMatrix in="SourceAlpha" type="matrix" values="0 0 0 0 0 0 0 0 0 0 0 0 0 0 0 0 0 0 127 0" result="hardAlpha"/>
<feOffset dy="4"/>
<feGaussianBlur stdDeviation="2"/>
<feComposite in2="hardAlpha" operator="out"/>
<feColorMatrix type="matrix" values="0 0 0 0 0 0 0 0 0 0 0 0 0 0 0 0 0 0 0.25 0"/>
<feBlend mode="normal" in2="BackgroundImageFix" result="effect1_dropShadow_426_8195"/>
<feBlend mode="normal" in="SourceGraphic" in2="effect1_dropShadow_426_8195" result="shape"/>
</filter>
<linearGradient id="paint0_linear_426_8195" x1="-10" y1="-17.5" x2="11.8436" y2="22.1451" gradientUnits="userSpaceOnUse">
<stop stop-color="#F6D7B6"/>
<stop offset="1" stop-color="#53EFDE"/>
</linearGradient>
<linearGradient id="paint1_linear_426_8195" x1="12" y1="1.5" x2="12" y2="22.0002" gradientUnits="userSpaceOnUse">
<stop stop-color="white"/>
<stop offset="1" stop-color="white" stop-opacity="0"/>
</linearGradient>
<clipPath id="clip0_426_8195">
<rect width="24" height="24" fill="white"/>
</clipPath>
</defs>
</svg>
