<svg width="12" height="12" viewBox="0 0 12 12" fill="none" xmlns="http://www.w3.org/2000/svg">
<g clip-path="url(#clip0_591_991)">
<path d="M9.33746 10.3358H2.67568V8.58736C1.93956 7.918 1.42292 7.04179 1.19353 6.07365C0.96413 5.10551 1.03268 4.09064 1.3902 3.16214C1.74771 2.23365 2.37749 1.43488 3.19694 0.870591C4.01639 0.306304 4.98725 0.00284721 5.98219 1.99372e-05C6.97714 -0.00280734 7.94971 0.295126 8.77235 0.854747C9.595 1.41437 10.2293 2.20955 10.5921 3.136C10.9549 4.06244 11.0292 5.07691 10.8053 6.04634C10.5814 7.01577 10.0698 7.8949 9.33746 8.56844V10.3358ZM8.73513 12H3.19541C3.05848 12 2.92716 11.9456 2.83034 11.8488C2.73352 11.752 2.67912 11.6206 2.67912 11.4837C2.67912 11.3468 2.73352 11.2155 2.83034 11.1186C2.92716 11.0218 3.05848 10.9674 3.19541 10.9674H8.73513C8.87205 10.9674 9.00337 11.0218 9.1002 11.1186C9.19702 11.2155 9.25141 11.3468 9.25141 11.4837C9.25141 11.6206 9.19702 11.752 9.1002 11.8488C9.00337 11.9456 8.87205 12 8.73513 12Z" fill="#F58721"/>
<path d="M8.5211 5.44577C8.38417 5.44577 8.25285 5.39138 8.15603 5.29455C8.05921 5.19773 8.00482 5.06641 8.00482 4.92949C8.00209 4.39984 7.78989 3.8928 7.41457 3.51908C7.03924 3.14537 6.53129 2.93536 6.00163 2.93491C5.86471 2.93491 5.73339 2.88052 5.63657 2.78369C5.53975 2.68687 5.48535 2.55555 5.48535 2.41863C5.48535 2.2817 5.53975 2.15038 5.63657 2.05356C5.73339 1.95674 5.86471 1.90234 6.00163 1.90234C6.805 1.90325 7.57533 2.22219 8.1442 2.78945C8.71307 3.35671 9.0342 4.12613 9.03738 4.92949C9.03738 4.99729 9.02403 5.06442 8.99808 5.12706C8.97214 5.1897 8.93411 5.24661 8.88617 5.29455C8.83823 5.3425 8.78131 5.38052 8.71867 5.40647C8.65603 5.43242 8.5889 5.44577 8.5211 5.44577Z" fill="#151734"/>
</g>
<defs>
<clipPath id="clip0_591_991">
<rect width="12" height="12" fill="white"/>
</clipPath>
</defs>
</svg>
