<svg width="147" height="113" viewBox="0 0 154 116" fill="none" xmlns="http://www.w3.org/2000/svg">
<path fill-rule="evenodd" clip-rule="evenodd" d="M141.076 95.2218C139.667 99.983 137.719 104.588 135.26 108.946C135.222 109.014 135.188 109.083 135.158 109.153C134.761 110.082 135.087 111.186 135.972 111.715L141.289 114.89C142.234 115.454 143.459 115.15 144.004 114.194C144.049 114.115 144.094 114.036 144.139 113.956C146.716 109.396 148.808 104.601 150.39 99.6491C150.523 99.2317 150.653 98.8131 150.779 98.3935C150.875 98.076 150.968 97.758 151.059 97.4393C151.06 97.4364 151.061 97.4335 151.062 97.4307C152.901 91.0056 153.894 84.3411 153.992 77.6038C153.992 77.6032 153.992 77.6026 153.992 77.6019C154.188 64.0923 150.779 50.772 144.112 38.996C144.103 38.9796 144.093 38.9631 144.084 38.9467C137.418 27.1926 127.741 17.3988 116.035 10.5589C116.019 10.5492 116.002 10.5395 115.985 10.5297C104.275 3.69913 90.9545 0.0665416 77.3746 0.00090552C77.3744 0.000904479 77.3742 0.00090344 77.3739 0.000902401C63.7941 -0.0646206 50.4386 3.43914 38.6621 10.1563C38.6455 10.1658 38.629 10.1752 38.6124 10.1847C26.8402 16.911 17.0683 26.6106 10.2874 38.2994C10.2778 38.316 10.2682 38.3325 10.2586 38.3491C3.47649 50.0601 -0.0627289 63.3467 0.000839233 76.8576C0.000839233 76.8578 0.000839233 76.858 0.000839233 76.8582C0.0325928 83.5962 0.959839 90.2701 2.73634 96.7126C2.73715 96.7155 2.73795 96.7185 2.73875 96.7214C2.82687 97.0408 2.91708 97.3596 3.00937 97.6779C3.13197 98.1007 3.25826 98.5225 3.38818 98.9431C4.92175 103.908 6.9653 108.721 9.49712 113.305C9.54131 113.385 9.58563 113.465 9.63011 113.545C10.1655 114.506 11.3878 114.821 12.3377 114.266L17.6858 111.143C18.5764 110.623 18.9128 109.522 18.5249 108.589C18.4956 108.519 18.4623 108.45 18.4248 108.382C16.0085 104 14.1064 99.3762 12.7437 94.6017C11.0986 88.8375 10.2397 82.8536 10.2112 76.8102C10.2112 76.81 10.2112 76.8098 10.2112 76.8096C10.1563 65.1096 13.2161 53.6035 19.08 43.4577C19.0896 43.4412 19.0992 43.4246 19.1087 43.4081C24.982 33.2664 33.4497 24.8483 43.6531 19.0068C43.6696 18.9973 43.6862 18.9878 43.7028 18.9784C53.9284 13.1358 65.529 10.088 77.3249 10.145C77.3251 10.145 77.3254 10.145 77.3256 10.145C89.1212 10.2021 100.691 13.3619 110.859 19.303C110.876 19.3127 110.892 19.3224 110.909 19.3322C121.054 25.272 129.439 33.7715 135.213 43.9692C135.222 43.9857 135.231 44.0022 135.241 44.0186C141.005 54.2204 143.952 65.7552 143.783 77.4539C143.783 77.4545 143.783 77.4552 143.783 77.4558C143.695 83.4986 142.777 89.4739 141.076 95.2218Z" fill="url(#paint0_linear_3084_7311)"/>
<defs>
<linearGradient id="paint0_linear_3084_7311" x1="110.5" y1="143.182" x2="9.44279" y2="103.886" gradientUnits="userSpaceOnUse">
<stop stop-color="#FF5592"/>
<stop offset="0.213542" stop-color="#7D6FFF"/>
<stop offset="0.845587" stop-color="#59C3FF"/>
<stop offset="1" stop-color="#6EDEC7"/>
</linearGradient>
</defs>
</svg>
