<svg width="154" height="116" viewBox="0 0 148 113" fill="none" xmlns="http://www.w3.org/2000/svg">
<mask id="path-1-inside-1_1099_24439" fill="white">
<path d="M134.409 112.37C135.334 112.965 136.569 112.703 137.144 111.765C143.589 101.266 147.284 89.3169 147.876 77.0119C148.501 64.0455 145.657 51.1461 139.635 39.6258C133.614 28.1054 124.628 18.375 113.593 11.4242C102.558 4.47346 89.8666 0.550315 76.8101 0.0537866C63.7536 -0.442742 50.7977 2.50507 39.26 8.5974C27.7223 14.6897 18.0144 23.7092 11.1238 34.7386C4.23325 45.7679 0.405704 58.4136 0.0305074 71.3894C-0.325535 83.7028 2.43932 95.8967 8.05646 106.855C8.55837 107.834 9.76975 108.19 10.7378 107.667L15.8368 104.912C16.8124 104.385 17.1699 103.166 16.6686 102.177C11.8834 92.7383 9.53049 82.2547 9.83657 71.6693C10.162 60.4141 13.482 49.4453 19.4589 39.8785C25.4358 30.3117 33.8563 22.4882 43.864 17.2038C53.8718 11.9193 65.1097 9.36237 76.4349 9.79306C87.76 10.2237 98.7684 13.6267 108.34 19.6557C117.912 25.6848 125.706 34.1249 130.929 44.1176C136.153 54.1104 138.619 65.2992 138.077 76.5462C137.568 87.1238 134.415 97.398 128.918 106.446C128.342 107.394 128.606 108.637 129.538 109.237L134.409 112.37Z"/>
</mask>
<path d="M134.409 112.37C135.334 112.965 136.569 112.703 137.144 111.765C143.589 101.266 147.284 89.3169 147.876 77.0119C148.501 64.0455 145.657 51.1461 139.635 39.6258C133.614 28.1054 124.628 18.375 113.593 11.4242C102.558 4.47346 89.8666 0.550315 76.8101 0.0537866C63.7536 -0.442742 50.7977 2.50507 39.26 8.5974C27.7223 14.6897 18.0144 23.7092 11.1238 34.7386C4.23325 45.7679 0.405704 58.4136 0.0305074 71.3894C-0.325535 83.7028 2.43932 95.8967 8.05646 106.855C8.55837 107.834 9.76975 108.19 10.7378 107.667L15.8368 104.912C16.8124 104.385 17.1699 103.166 16.6686 102.177C11.8834 92.7383 9.53049 82.2547 9.83657 71.6693C10.162 60.4141 13.482 49.4453 19.4589 39.8785C25.4358 30.3117 33.8563 22.4882 43.864 17.2038C53.8718 11.9193 65.1097 9.36237 76.4349 9.79306C87.76 10.2237 98.7684 13.6267 108.34 19.6557C117.912 25.6848 125.706 34.1249 130.929 44.1176C136.153 54.1104 138.619 65.2992 138.077 76.5462C137.568 87.1238 134.415 97.398 128.918 106.446C128.342 107.394 128.606 108.637 129.538 109.237L134.409 112.37Z" stroke="url(#paint0_linear_1099_24439)" stroke-opacity="0.3" stroke-width="40" stroke-linecap="square" mask="url(#path-1-inside-1_1099_24439)"/>
<defs>
<linearGradient id="paint0_linear_1099_24439" x1="116.737" y1="175.339" x2="-1.06063" y2="140.639" gradientUnits="userSpaceOnUse">
<stop stop-color="#FF5592"/>
<stop offset="0.213542" stop-color="#A99FFF"/>
<stop offset="0.845587" stop-color="#9ADBFF"/>
<stop offset="1" stop-color="#8FF6E2"/>
</linearGradient>
</defs>
</svg>
