<svg width="148" height="113" viewBox="0 0 154 116" fill="none" xmlns="http://www.w3.org/2000/svg">
<mask id="path-1-inside-1_1075_984" fill="white">
<path d="M10.6205 115.269C3.72853 103.622 0.0644141 90.3685 0.000839233 76.8576C-0.0627356 63.3467 3.47649 50.0601 10.2586 38.3491C17.0406 26.6381 26.8236 16.9205 38.6124 10.1847C50.4012 3.4489 63.7754 -0.064824 77.3746 0.00090552C90.9738 0.066635 104.313 3.70947 116.035 10.5589C127.758 17.4084 137.445 27.22 144.112 38.996C150.779 50.772 154.188 64.0923 153.992 77.6019C153.796 91.1116 150.002 104.329 142.997 115.909L134.245 110.683C140.322 100.638 143.613 89.174 143.783 77.4558C143.952 65.7376 140.996 54.1837 135.213 43.9692C129.43 33.7548 121.027 25.2441 110.859 19.303C100.691 13.3618 89.1208 10.202 77.3249 10.145C65.529 10.088 53.9284 13.1358 43.7028 18.9784C33.4772 24.821 24.9915 33.25 19.1087 43.4081C13.226 53.5661 10.1561 65.0909 10.2112 76.8102C10.2664 88.5295 13.4446 100.025 19.4227 110.128L10.6205 115.269Z"/>
</mask>
<path d="M10.6205 115.269L20.7072 132.539L3.5351 142.569L-6.59195 125.454L10.6205 115.269ZM142.997 115.909L160.109 126.261L149.816 143.275L132.743 133.081L142.997 115.909ZM134.245 110.683L123.992 127.855L106.721 117.542L117.133 100.331L134.245 110.683ZM19.4227 110.128L36.6352 99.9434L46.8781 117.254L29.5094 127.398L19.4227 110.128ZM-6.59195 125.454C-15.2893 110.756 -19.9186 94.0203 -19.9989 76.9517L20.0006 76.7635C20.0475 86.7167 22.7463 96.4879 27.833 105.084L-6.59195 125.454ZM-19.9989 76.9517C-20.0793 59.8831 -15.6076 43.1053 -7.04868 28.3261L27.5658 48.372C22.5606 57.0149 19.9538 66.8103 20.0006 76.7635L-19.9989 76.9517ZM-7.04868 28.3261C1.50967 13.5479 13.8452 1.3015 28.6904 -7.18059L48.5344 27.55C39.8019 32.5395 32.5716 39.7282 27.5658 48.372L-7.04868 28.3261ZM28.6904 -7.18059C43.5346 -15.6622 60.365 -20.0815 77.4713 -19.9989L77.2779 20.0007C67.1857 19.9519 57.2679 22.56 48.5344 27.55L28.6904 -7.18059ZM77.4713 -19.9989C94.5775 -19.9162 111.364 -15.3343 126.125 -6.70934L105.945 27.8272C97.2616 22.7533 87.3701 20.0495 77.2779 20.0007L77.4713 -19.9989ZM126.125 -6.70934C140.887 1.91617 153.103 14.2817 161.516 29.1425L126.708 48.8496C121.787 40.1583 114.628 32.9005 105.945 27.8272L126.125 -6.70934ZM161.516 29.1425C169.93 44.0043 174.237 60.8249 173.99 77.8919L133.994 77.3119C134.138 67.3597 131.628 57.5398 126.708 48.8496L161.516 29.1425ZM173.99 77.8919C173.742 94.9589 168.949 111.648 160.109 126.261L125.884 105.557C131.055 97.0092 133.85 87.2643 133.994 77.3119L173.99 77.8919ZM132.743 133.081L123.992 127.855L144.499 93.5117L153.25 98.7375L132.743 133.081ZM117.133 100.331C121.375 93.319 123.666 85.3267 123.785 77.1658L163.78 77.7458C163.559 93.0213 159.269 107.958 151.357 121.036L117.133 100.331ZM123.785 77.1658C123.903 69.005 121.844 60.9515 117.808 53.8227L152.617 34.1157C160.147 47.4159 164.002 62.4702 163.78 77.7458L123.785 77.1658ZM117.808 53.8227C113.772 46.6931 107.897 40.7363 100.769 36.5712L120.949 2.03472C134.156 9.75197 145.087 20.8165 152.617 34.1157L117.808 53.8227ZM100.769 36.5712C93.6398 32.4056 85.5171 30.1848 77.2283 30.1448L77.4216 -9.85476C92.7245 -9.7808 107.742 -5.68199 120.949 2.03472L100.769 36.5712ZM77.2283 30.1448C68.9394 30.1047 60.795 32.2468 53.6248 36.3437L33.7807 1.6131C47.0617 -5.97528 62.1187 -9.92873 77.4216 -9.85476L77.2283 30.1448ZM53.6248 36.3437C46.4555 40.44 40.5224 46.3401 36.416 53.431L1.80151 33.3851C9.46053 20.1598 20.4988 9.20199 33.7807 1.6131L53.6248 36.3437ZM36.416 53.431C32.3101 60.5209 30.1726 68.5545 30.211 76.7161L-9.78854 76.9043C-9.86042 61.6273 -5.85806 46.6114 1.80151 33.3851L36.416 53.431ZM30.211 76.7161C30.2494 84.8777 32.4624 92.8914 36.6352 99.9434L2.21024 120.313C-5.57317 107.159 -9.71665 92.1813 -9.78854 76.9043L30.211 76.7161ZM29.5094 127.398L20.7072 132.539L0.533795 97.9991L9.33598 92.8581L29.5094 127.398Z" fill="url(#paint0_linear_1075_984)" mask="url(#path-1-inside-1_1075_984)"/>
<defs>
<linearGradient id="paint0_linear_1075_984" x1="105" y1="257.501" x2="-2.83719" y2="236.57" gradientUnits="userSpaceOnUse">
<stop stop-color="#FF5592"/>
<stop offset="0.213542" stop-color="#A99FFF"/>
<stop offset="0.845587" stop-color="#9ADBFF"/>
<stop offset="1" stop-color="#8FF6E2"/>
</linearGradient>
</defs>
</svg>
