<svg width="11" height="11" viewBox="0 0 11 11" fill="none" xmlns="http://www.w3.org/2000/svg">
<mask id="path-1-inside-1_408_2355" fill="white">
<path d="M10.4453 5.5C10.7517 5.5 11.0029 5.74897 10.9721 6.05375C10.8757 7.00607 10.532 7.92024 9.97075 8.7035C9.30143 9.63759 8.35634 10.3386 7.26821 10.708C6.18008 11.0775 5.00356 11.0968 3.90388 10.7633C2.80419 10.4298 1.83658 9.76027 1.13693 8.84868C0.437279 7.93708 0.0407292 6.82924 0.00296998 5.68072C-0.0347893 4.53221 0.288139 3.40071 0.926405 2.44513C1.56467 1.48955 2.48621 0.757891 3.56162 0.352897C4.46337 0.013299 5.43533 -0.0823068 6.38018 0.07088C6.68257 0.119906 6.8581 0.426977 6.77888 0.722894C6.69966 1.01881 6.39553 1.19073 6.09199 1.14943C5.37272 1.05156 4.6373 1.1332 3.95259 1.39106C3.09409 1.71437 2.35842 2.29845 1.84889 3.06129C1.33937 3.82413 1.08157 4.72741 1.11171 5.64427C1.14186 6.56113 1.45842 7.44553 2.01696 8.17325C2.57549 8.90098 3.34793 9.43548 4.22581 9.7017C5.10369 9.96792 6.04291 9.95249 6.91156 9.65757C7.78022 9.36264 8.53468 8.80305 9.069 8.05736C9.49516 7.46262 9.76421 6.77333 9.85567 6.05322C9.89427 5.74932 10.139 5.5 10.4453 5.5Z"/>
</mask>
<path d="M3.95259 1.39106L5.00989 4.19857L3.95259 1.39106ZM9.85567 6.05322L12.8318 6.43121L9.85567 6.05322ZM6.38018 0.07088L5.90006 3.03221L6.38018 0.07088ZM10.9721 6.05375L13.9568 6.35577L10.9721 6.05375ZM7.9873 5.75172C7.9435 6.1846 7.78725 6.60014 7.53216 6.95614L12.4093 10.4509C13.2767 9.24035 13.8079 7.82755 13.9568 6.35577L7.9873 5.75172ZM7.53216 6.95614C7.22792 7.38072 6.79834 7.69935 6.30373 7.86728L8.23269 13.5488C9.91434 12.9778 11.3749 11.8945 12.4093 10.4509L7.53216 6.95614ZM6.30373 7.86728C5.80913 8.03521 5.27435 8.044 4.77449 7.89241L3.03326 13.6342C4.73277 14.1496 6.55103 14.1197 8.23269 13.5488L6.30373 7.86728ZM4.77449 7.89241C4.27463 7.74083 3.83481 7.43649 3.51679 7.02213L-1.24292 10.6752C-0.161644 12.0841 1.33375 13.1188 3.03326 13.6342L4.77449 7.89241ZM3.51679 7.02213C3.19876 6.60776 3.01851 6.1042 3.00135 5.58215L-2.99541 5.7793C-2.93705 7.55428 -2.3242 9.2664 -1.24292 10.6752L3.51679 7.02213ZM3.00135 5.58215C2.98419 5.06009 3.13097 4.54578 3.42109 4.11142L-1.56828 0.778839C-2.55469 2.25564 -3.05377 4.00432 -2.99541 5.7793L3.00135 5.58215ZM3.42109 4.11142C3.71121 3.67707 4.1301 3.3445 4.61892 3.16041L2.50432 -2.45461C0.842329 -1.82871 -0.581873 -0.697965 -1.56828 0.778839L3.42109 4.11142ZM4.61892 3.16041C5.02878 3.00606 5.47059 2.96258 5.90006 3.03221L6.86029 -2.89045C5.40007 -3.1272 3.89797 -2.97946 2.50432 -2.45461L4.61892 3.16041ZM6.49648 -1.82317C5.28578 -1.98792 4.04788 -1.85051 2.89529 -1.41645L5.00989 4.19857C5.22672 4.11691 5.45966 4.09103 5.6875 4.12204L6.49648 -1.82317ZM2.89529 -1.41645C1.45021 -0.872236 0.211878 0.110938 -0.645795 1.395L4.34358 4.72759C4.50497 4.48597 4.73797 4.30097 5.00989 4.19857L2.89529 -1.41645ZM-0.645795 1.395C-1.50347 2.67907 -1.9374 4.19952 -1.88667 5.74285L4.11009 5.5457C4.10055 5.2553 4.1822 4.9692 4.34358 4.72759L-0.645795 1.395ZM-1.88667 5.74285C-1.83593 7.28617 -1.30306 8.77484 -0.362898 9.9998L4.39681 6.3467C4.21991 6.11621 4.11964 5.83609 4.11009 5.5457L-1.88667 5.74285ZM-0.362898 9.9998C0.577262 11.2248 1.87749 12.1245 3.3552 12.5726L5.09643 6.83081C4.81838 6.74649 4.57372 6.5772 4.39681 6.3467L-0.362898 9.9998ZM3.3552 12.5726C4.8329 13.0207 6.41386 12.9947 7.87604 12.4983L5.94709 6.81683C5.67195 6.91024 5.37448 6.91513 5.09643 6.83081L3.3552 12.5726ZM7.87604 12.4983C9.33822 12.0019 10.6082 11.0599 11.5076 9.80472L6.63041 6.30999C6.46118 6.54618 6.22222 6.72342 5.94709 6.81683L7.87604 12.4983ZM11.5076 9.80472C12.225 8.80359 12.6778 7.64333 12.8318 6.43121L6.87958 5.67522C6.85061 5.90333 6.76537 6.12165 6.63041 6.30999L11.5076 9.80472ZM12.8318 6.43121C12.7101 7.38914 11.8769 8.5 10.4453 8.5V2.5C8.4011 2.5 7.07844 4.1095 6.87958 5.67522L12.8318 6.43121ZM3.88093 -0.0529161C4.25113 -1.43577 5.53967 -1.95337 6.49648 -1.82317L5.6875 4.12204C7.25139 4.33484 9.14818 3.47339 9.67683 1.4987L3.88093 -0.0529161ZM5.90006 3.03221C4.24763 2.76431 3.55525 1.16359 3.88093 -0.0529161L9.67683 1.4987C10.1609 -0.309639 9.11751 -2.52449 6.86029 -2.89045L5.90006 3.03221ZM13.9568 6.35577C14.187 4.08071 12.3174 2.5 10.4453 2.5V8.5C9.18598 8.5 7.81877 7.41723 7.9873 5.75172L13.9568 6.35577Z" fill="url(#paint0_angular_408_2355)" mask="url(#path-1-inside-1_408_2355)"/>
<defs>
<radialGradient id="paint0_angular_408_2355" cx="0" cy="0" r="1" gradientUnits="userSpaceOnUse" gradientTransform="translate(6.28571 4.87143) rotate(21.8014) scale(8.03928 9.73153)">
<stop offset="0.185369" stop-color="white" stop-opacity="0.3"/>
<stop offset="0.395833" stop-color="#9195FB"/>
<stop offset="0.590731" stop-color="#C6C8FF"/>
<stop offset="0.966983" stop-color="white" stop-opacity="0"/>
</radialGradient>
</defs>
</svg>
