<?xml version="1.0" standalone="no"?><!DOCTYPE svg PUBLIC "-//W3C//DTD SVG 1.1//EN" "http://www.w3.org/Graphics/SVG/1.1/DTD/svg11.dtd"><svg t="1665992839860" class="icon" viewBox="0 0 1024 1024" version="1.1" xmlns="http://www.w3.org/2000/svg" p-id="2881" xmlns:xlink="http://www.w3.org/1999/xlink" width="64" height="64"><path d="M799.1296 412.7232l12.5952-22.3232-12.5952 22.3232z m-10.752 0.4608l14.3872 21.1456-14.4384-21.1456z m155.1872 97.8944l-14.4896-21.1456 14.4896 21.1456z m-0.768-17.408l12.5952-22.272-12.5952 22.272zM529.92 794.9824l14.4896 21.0944-14.4896-21.0944z m0.4096 17.152l13.5168-21.76-13.5168 21.76z m121.6512 92.672l-13.824-21.6064 13.824 21.5552z m-0.1536-17.408l-13.4656 21.8112 13.4656-21.76z m-135.424 97.024l-14.2336 21.2992 14.2336-21.2992z m11.2128 0.1024l-13.824-21.504 13.824 21.504z m-284.5184-182.4768l-14.2336 21.2992 14.2336-21.2992z m-14.2336 21.2992l273.3056 182.3744 28.416-42.5984-273.3056-182.3744-28.416 42.5984z m312.576 182.784l124.3648-79.8208-27.648-43.1104-124.416 79.7696 27.648 43.1104z m2.9696-190.0544l413.696-283.904-28.9792-42.24-413.696 283.904 28.9792 42.24z m411.0336-344.6784l-143.6672-80.9984-25.1392 44.6464 143.6672 80.9472 25.088-44.5952z m-181.4528-79.36L228.5056 763.904l28.8768 42.2912 545.3824-371.8656-28.8256-42.2912z m-108.6464 473.6l-121.4976-75.264-26.9824 43.52 121.4976 75.264 26.9824-43.52z m146.432-475.2384a35.84 35.84 0 0 0-37.7856 1.6384l28.8256 42.2912a15.36 15.36 0 0 1-16.1792 0.7168l25.088-44.6464z m146.3296 141.7728a35.84 35.84 0 0 0-2.6624-60.7744l-25.1392 44.5952a15.36 15.36 0 0 1-1.1776-26.0608l28.9792 42.24z m-442.624 241.664a35.84 35.84 0 0 0 1.3824 60.0064l26.9824-43.52a15.36 15.36 0 0 1 0.5632 25.7536l-28.928-42.24z m150.3232 152.4736a35.84 35.84 0 0 0-0.512-60.6208l-26.9312 43.52a15.36 15.36 0 0 1-0.2048-26.0096l27.648 43.1104z m-163.6352 79.4112a35.84 35.84 0 0 0 39.2704 0.3584l-27.648-43.0592a15.36 15.36 0 0 1 16.7936 0.1024l-28.416 42.5984zM257.2288 780.8a15.36 15.36 0 0 1 0.1536 25.4464l-28.8768-42.2912a35.84 35.84 0 0 0 0.3072 59.392l28.416-42.5472zM194.4064 300.3904l-13.568-21.7088 13.568 21.7088z m158.6176 86.3232l13.2608 21.9136-13.2608-21.9136z m-10.752-0.1024l13.6704-21.7088-13.6192 21.7088z m326.656-198.7584l14.336-21.1968-14.336 21.1968z m-0.256 8.6016l-13.2096-21.9136 13.2096 21.9136z m-69.7344-64.7168l13.568 21.7088-13.568-21.7088z m-0.1536 8.5504l14.336-21.1456-14.336 21.1456z m134.7072-86.016l-12.9024 22.1696 12.9024-22.1184z m-10.5472 0.2048l13.5168 21.7088-13.5168-21.7088z m210.8928 133.8368l-14.4384-21.1456 14.4384 21.1456z m-0.6144-17.2544l-12.9024 22.0672 12.9024-22.0672z m-591.36 413.9008l14.336-21.2992-14.336 21.2992z m11.52-0.0512l14.4384 21.0944-14.4384-21.0944zM64.3072 398.7456l-14.2336 21.248 14.2336-21.248z m0.3072-17.152l-13.6192-21.7088 13.6192 21.7088z m-14.5408 38.4l277.5552 186.2144 28.5184-42.496-277.5552-186.2144-28.5184 42.496z m317.7472 186.0096L948.224 209.4592l-28.8768-42.2912L338.944 563.7632l28.8768 42.24zM946.1248 148.992l-199.68-116.736-25.856 44.2368 199.68 116.736 25.856-44.2368zM709.376 32.7168l-123.9552 77.312 27.0848 43.4176 123.9552-77.2608-27.0848-43.4688z m-124.928 128.768l70.0416 47.5648 28.7744-42.3936-70.144-47.5136-28.672 42.3424z m71.0144 13.056L339.8144 364.7488l26.4704 43.8784 315.5968-190.208-26.4192-43.8784z m-299.52 190.3616L218.9312 278.7328l-27.2896 43.3152L328.704 408.2688l27.2896-43.3664z m-175.104-86.2208L50.9952 359.8848l27.136 43.3664L208.0256 322.048l-27.136-43.3664z m38.0928 0a35.84 35.84 0 0 0-38.0928 0l27.136 43.3664a15.36 15.36 0 0 1-16.3328 0l27.2896-43.3152z m120.8832 86.0672a15.36 15.36 0 0 1 16.128 0.1536l-27.2896 43.3664a35.84 35.84 0 0 0 37.632 0.3584l-26.4704-43.8784z m314.6752-155.6992a20.48 20.48 0 0 1 0.9728-34.5088l26.4192 43.8784a30.72 30.72 0 0 0 1.3824-51.712l-28.7744 42.3424z m-69.12-99.072a30.72 30.72 0 0 0-0.9728 51.5072l28.7744-42.3424a20.48 20.48 0 0 1-0.6656 34.304l-27.136-43.4688zM746.496 32.256a35.84 35.84 0 0 0-37.0688 0.512l27.136 43.52a15.36 15.36 0 0 1-15.872 0.2048l25.8048-44.2368z m201.8304 177.2544a35.84 35.84 0 0 0-2.1504-60.5184l-25.8048 44.1856a15.36 15.36 0 0 1-0.9216-25.9584l28.8768 42.2912zM327.6288 606.208a35.84 35.84 0 0 0 40.192-0.2048l-28.8768-42.24a15.36 15.36 0 0 1 17.2032-0.1024l-28.5184 42.496zM78.592 377.4976a15.36 15.36 0 0 1-0.4096 25.7536l-27.136-43.3664a35.84 35.84 0 0 0-1.024 60.1088l28.5696-42.496z" fill="#3D56D6" p-id="2882"></path></svg>