<svg width="14" height="14" viewBox="0 0 14 14" fill="none" xmlns="http://www.w3.org/2000/svg">
<path d="M11.5208 11.0833H10.3542C10.1208 11.0833 9.91667 10.8792 9.91667 10.6458C9.91667 10.4125 10.1208 10.2083 10.3542 10.2083H11.0833V5.71665C11.0833 5.19165 10.6458 4.75415 10.1208 4.75415H6.125C5.89167 4.75415 5.6875 4.54998 5.6875 4.31665C5.6875 4.08332 5.89167 3.87915 6.125 3.87915H10.1208C11.1417 3.87915 11.9583 4.69582 11.9583 5.71665V10.6458C11.9583 10.8792 11.7833 11.0833 11.5208 11.0833Z" fill="#0F134F"/>
<path d="M7.08744 5.95008C6.97078 5.95008 6.85411 5.92091 6.76661 5.83341L5.57078 4.63758C5.39578 4.46258 5.39578 4.20008 5.57078 4.02508L6.76661 2.82925C6.94161 2.65425 7.20411 2.65425 7.37911 2.82925C7.55411 3.00425 7.55411 3.26675 7.37911 3.44175L6.50411 4.31675L7.37911 5.19175C7.55411 5.36675 7.55411 5.62925 7.37911 5.80425C7.32078 5.89175 7.20411 5.95008 7.08744 5.95008V5.95008ZM8.25411 11.0834H4.25828C3.23744 11.0834 2.42078 10.2667 2.42078 9.24591V4.31675C2.42078 4.08341 2.62494 3.87925 2.85828 3.87925H4.02494C4.25828 3.87925 4.46244 4.08341 4.46244 4.31675C4.46244 4.55008 4.25828 4.75425 4.02494 4.75425H3.29578V9.24591C3.29578 9.77091 3.73328 10.2084 4.25828 10.2084H8.25411C8.48744 10.2084 8.69161 10.4126 8.69161 10.6459C8.69161 10.8792 8.51661 11.0834 8.25411 11.0834V11.0834Z" fill="#0F134F"/>
<path d="M7.32086 12.2791C7.20419 12.2791 7.08752 12.2499 7.00002 12.1624C6.82502 11.9874 6.82502 11.7249 7.00002 11.5499L7.87502 10.6749L7.00002 9.7999C6.82502 9.6249 6.82502 9.3624 7.00002 9.1874C7.17502 9.0124 7.43752 9.0124 7.61252 9.1874L8.80836 10.3832C8.89586 10.4707 8.92502 10.5874 8.92502 10.7041C8.92502 10.8207 8.86669 10.9374 8.80836 11.0249L7.61252 12.2207C7.55419 12.2207 7.43752 12.2791 7.32086 12.2791V12.2791Z" fill="#0F134F"/>
</svg>
