<svg width="14" height="14" viewBox="0 0 14 14" fill="none" xmlns="http://www.w3.org/2000/svg">
<path d="M11.5208 11.0833H10.3542C10.1208 11.0833 9.91667 10.8792 9.91667 10.6458C9.91667 10.4125 10.1208 10.2083 10.3542 10.2083H11.0833V5.71665C11.0833 5.19165 10.6458 4.75415 10.1208 4.75415H6.125C5.89167 4.75415 5.6875 4.54998 5.6875 4.31665C5.6875 4.08332 5.89167 3.87915 6.125 3.87915H10.1208C11.1417 3.87915 11.9583 4.69582 11.9583 5.71665V10.6458C11.9583 10.8792 11.7833 11.0833 11.5208 11.0833Z" fill="#3D56D6"/>
<path d="M7.08757 5.95008C6.9709 5.95008 6.85423 5.92091 6.76673 5.83341L5.5709 4.63758C5.3959 4.46258 5.3959 4.20008 5.5709 4.02508L6.76673 2.82925C6.94173 2.65425 7.20423 2.65425 7.37923 2.82925C7.55423 3.00425 7.55423 3.26675 7.37923 3.44175L6.50423 4.31675L7.37923 5.19175C7.55423 5.36675 7.55423 5.62925 7.37923 5.80425C7.3209 5.89175 7.20423 5.95008 7.08757 5.95008ZM8.25423 11.0834H4.2584C3.23757 11.0834 2.4209 10.2667 2.4209 9.24591V4.31675C2.4209 4.08341 2.62507 3.87925 2.8584 3.87925H4.02507C4.2584 3.87925 4.46256 4.08341 4.46256 4.31675C4.46256 4.55008 4.2584 4.75425 4.02507 4.75425H3.2959V9.24591C3.2959 9.77091 3.7334 10.2084 4.2584 10.2084H8.25423C8.48757 10.2084 8.69173 10.4126 8.69173 10.6459C8.69173 10.8792 8.51673 11.0834 8.25423 11.0834Z" fill="#3D56D6"/>
<path d="M7.32074 12.2791C7.20407 12.2791 7.0874 12.2499 6.9999 12.1624C6.8249 11.9874 6.8249 11.7249 6.9999 11.5499L7.8749 10.6749L6.9999 9.7999C6.8249 9.6249 6.8249 9.3624 6.9999 9.1874C7.1749 9.0124 7.4374 9.0124 7.6124 9.1874L8.80824 10.3832C8.89574 10.4707 8.9249 10.5874 8.9249 10.7041C8.9249 10.8207 8.86657 10.9374 8.80824 11.0249L7.6124 12.2207C7.55407 12.2207 7.4374 12.2791 7.32074 12.2791Z" fill="#3D56D6"/>
</svg>
