<svg width="19" height="20" viewBox="0 0 19 20" fill="none" xmlns="http://www.w3.org/2000/svg">
<path d="M4.77112 8.04444C4.77112 8.19178 4.82672 8.33309 4.9257 8.43727C5.02468 8.54146 5.15892 8.59999 5.2989 8.59999H13.7433C13.8833 8.59999 14.0176 8.54146 14.1165 8.43727C14.2155 8.33309 14.2711 8.19178 14.2711 8.04444C14.2711 7.89709 14.2155 7.75579 14.1165 7.6516C14.0176 7.54741 13.8833 7.48888 13.7433 7.48888H5.27779C5.1415 7.49462 5.01262 7.55568 4.91816 7.65925C4.82371 7.76282 4.77101 7.90086 4.77112 8.04444ZM13.1733 6.14444C13.3133 6.14444 13.4476 6.0859 13.5465 5.98172C13.6455 5.87753 13.7011 5.73622 13.7011 5.58888C13.7011 5.44154 13.6455 5.30023 13.5465 5.19604C13.4476 5.09186 13.3133 5.03333 13.1733 5.03333H5.78445C5.64448 5.03333 5.51023 5.09186 5.41126 5.19604C5.31228 5.30023 5.25667 5.44154 5.25667 5.58888C5.25667 5.73622 5.31228 5.87753 5.41126 5.98172C5.51023 6.0859 5.64448 6.14444 5.78445 6.14444H13.1733Z" fill="#0F134F"/>
<path d="M16.5 11V17C16.5 17.2761 16.2761 17.5 16 17.5H3C2.72386 17.5 2.5 17.2761 2.5 17V11C2.5 10.7239 2.72386 10.5 3 10.5H5.55742C5.62103 10.5 5.68405 10.5121 5.74311 10.5358L8.94291 11.8157C9.30053 11.9587 9.69947 11.9587 10.0571 11.8157L13.2569 10.5358C13.3159 10.5121 13.379 10.5 13.4426 10.5H16C16.2761 10.5 16.5 10.7239 16.5 11Z" stroke="#0F134F"/>
<path d="M3 8L3.83922 3.80388C3.93271 3.33646 4.34312 3 4.8198 3H14.1802C14.6569 3 15.0673 3.33646 15.1608 3.80388L16 8" stroke="#0F134F" stroke-linecap="round"/>
</svg>
