<svg width="19" height="20" viewBox="0 0 19 20" fill="none" xmlns="http://www.w3.org/2000/svg">
<path d="M4.77112 8.04444C4.77112 8.19178 4.82672 8.33309 4.9257 8.43727C5.02468 8.54146 5.15892 8.59999 5.2989 8.59999H13.7433C13.8833 8.59999 14.0176 8.54146 14.1165 8.43727C14.2155 8.33309 14.2711 8.19178 14.2711 8.04444C14.2711 7.89709 14.2155 7.75579 14.1165 7.6516C14.0176 7.54741 13.8833 7.48888 13.7433 7.48888H5.27779C5.1415 7.49462 5.01262 7.55568 4.91816 7.65925C4.82371 7.76282 4.77101 7.90086 4.77112 8.04444ZM13.1733 6.14444C13.3133 6.14444 13.4476 6.0859 13.5465 5.98172C13.6455 5.87753 13.7011 5.73622 13.7011 5.58888C13.7011 5.44154 13.6455 5.30023 13.5465 5.19604C13.4476 5.09186 13.3133 5.03333 13.1733 5.03333H5.78445C5.64448 5.03333 5.51023 5.09186 5.41126 5.19604C5.31228 5.30023 5.25667 5.44154 5.25667 5.58888C5.25667 5.73622 5.31228 5.87753 5.41126 5.98172C5.51023 6.0859 5.64448 6.14444 5.78445 6.14444H13.1733Z" fill="#3D56D6"/>
<path d="M3 8L3.83922 3.80388C3.93271 3.33646 4.34312 3 4.8198 3H14.1802C14.6569 3 15.0673 3.33646 15.1608 3.80388L16 8" stroke="#3D56D6" stroke-width="1.2" stroke-linecap="round"/>
<path d="M17 17V11C17 10.4477 16.5523 10 16 10H13.4426C13.3154 10 13.1893 10.0243 13.0712 10.0715L9.87139 11.3514C9.63298 11.4468 9.36702 11.4468 9.12861 11.3514L5.92881 10.0715C5.81069 10.0243 5.68464 10 5.55742 10H3C2.44772 10 2 10.4477 2 11V17C2 17.5523 2.44772 18 3 18H16C16.5523 18 17 17.5523 17 17Z" stroke="#3D56D6" stroke-width="1.2"/>
</svg>
