<svg width="11" height="11" viewBox="0 0 11 11" fill="none" xmlns="http://www.w3.org/2000/svg">
<path d="M1.83338 0.133282C2.96234 -0.368476 4.51326 0.634084 5.3906 1.6798C5.70356 2.05283 5.37298 2.51645 4.89205 2.44028C0.700103 1.77635 0.813911 0.762603 1.83338 0.133282Z" fill="url(#paint0_linear_101_36095)" fill-opacity="0.8"/>
<path d="M8.70833 0.642438C7.59405 0.147204 6.60323 1.19416 5.97705 2.2618C5.73071 2.68181 6.09551 3.15852 6.57573 3.07797C10.6349 2.39708 9.72661 1.27103 8.70833 0.642438Z" fill="url(#paint1_linear_101_36095)" fill-opacity="0.8"/>
<rect y="4.07397" width="5.13333" height="6.9259" rx="1" fill="url(#paint2_linear_101_36095)" fill-opacity="0.5"/>
<rect y="4.07397" width="5.13333" height="6.9259" rx="1" fill="url(#paint3_linear_101_36095)" fill-opacity="0.8"/>
<rect x="5.86621" y="4.07397" width="5.13333" height="6.9259" rx="1" fill="url(#paint4_linear_101_36095)" fill-opacity="0.5"/>
<rect x="5.86621" y="4.07397" width="5.13333" height="6.9259" rx="1" fill="url(#paint5_linear_101_36095)" fill-opacity="0.8"/>
<g filter="url(#filter0_b_101_36095)">
<rect x="11" y="1.86475" width="1.62963" height="11" rx="0.640001" transform="rotate(90 11 1.86475)" fill="url(#paint6_linear_101_36095)"/>
</g>
<defs>
<filter id="filter0_b_101_36095" x="-4" y="-2.13525" width="19" height="9.62964" filterUnits="userSpaceOnUse" color-interpolation-filters="sRGB">
<feFlood flood-opacity="0" result="BackgroundImageFix"/>
<feGaussianBlur in="BackgroundImageFix" stdDeviation="2"/>
<feComposite in2="SourceAlpha" operator="in" result="effect1_backgroundBlur_101_36095"/>
<feBlend mode="normal" in="SourceGraphic" in2="effect1_backgroundBlur_101_36095" result="shape"/>
</filter>
<linearGradient id="paint0_linear_101_36095" x1="3.90055" y1="-0.375975" x2="3.90055" y2="2.37882" gradientUnits="userSpaceOnUse">
<stop stop-color="#EBEBEB"/>
<stop offset="1" stop-color="#DBDBDB" stop-opacity="0.16"/>
</linearGradient>
<linearGradient id="paint1_linear_101_36095" x1="7.28222" y1="0.121575" x2="7.28222" y2="3.01059" gradientUnits="userSpaceOnUse">
<stop stop-color="#F4F4F4"/>
<stop offset="0.620376" stop-color="#C9C9C9" stop-opacity="0.16"/>
</linearGradient>
<linearGradient id="paint2_linear_101_36095" x1="3.42222" y1="3.57927" x2="11.6561" y2="33.3594" gradientUnits="userSpaceOnUse">
<stop offset="0.0310084" stop-color="#737373"/>
<stop offset="0.075633" stop-color="#FDFDFD"/>
<stop offset="0.141085" stop-color="#4B4D48" stop-opacity="0"/>
<stop offset="0.141893" stop-color="#737373" stop-opacity="0.19"/>
</linearGradient>
<linearGradient id="paint3_linear_101_36095" x1="2.56667" y1="4.07397" x2="2.34047" y2="13.2396" gradientUnits="userSpaceOnUse">
<stop stop-color="#EDECEC"/>
<stop offset="1" stop-color="#F2F2F2" stop-opacity="0.1"/>
</linearGradient>
<linearGradient id="paint4_linear_101_36095" x1="9.28843" y1="3.57927" x2="17.5223" y2="33.3594" gradientUnits="userSpaceOnUse">
<stop offset="0.0310084" stop-color="#737373"/>
<stop offset="0.075633" stop-color="#FDFDFD"/>
<stop offset="0.141085" stop-color="#4B4D48" stop-opacity="0"/>
<stop offset="0.141893" stop-color="#737373" stop-opacity="0.19"/>
</linearGradient>
<linearGradient id="paint5_linear_101_36095" x1="8.43288" y1="4.07397" x2="8.20668" y2="13.2396" gradientUnits="userSpaceOnUse">
<stop stop-color="#EDECEC"/>
<stop offset="1" stop-color="#F2F2F2" stop-opacity="0.1"/>
</linearGradient>
<linearGradient id="paint6_linear_101_36095" x1="11.8148" y1="1.86475" x2="11.8148" y2="12.079" gradientUnits="userSpaceOnUse">
<stop stop-color="#CACACD"/>
<stop offset="0.538284" stop-color="#7D7E82"/>
<stop offset="1" stop-color="#CACACD"/>
</linearGradient>
</defs>
</svg>
