<svg width="40" height="40" viewBox="0 0 40 40" fill="none" xmlns="http://www.w3.org/2000/svg">
<g opacity="0.7">
<path d="M40 20C40 23.4369 39.1143 26.8158 37.4284 29.8108C35.7424 32.8058 33.3131 35.3158 30.3748 37.0986L26.3171 30.4112C28.1062 29.3256 29.5854 27.7973 30.612 25.9737C31.6385 24.1501 32.1778 22.0927 32.1778 20H40Z" fill="#3036A8"/>
<path d="M27.4046 35.7149C24.7368 37.0806 21.7434 37.6818 18.7553 37.4523C15.7671 37.2227 12.9006 36.1712 10.4728 34.4142L15.1235 27.988C16.3662 28.8874 17.8334 29.4256 19.3629 29.5431C20.8924 29.6606 22.4245 29.3528 23.79 28.6538L27.4046 35.7149Z" fill="#AEB2FF"/>
<path d="M8.88591 33.5177C6.91885 31.9004 5.32845 29.8732 4.22575 27.5778C3.12304 25.2823 2.53459 22.7739 2.50148 20.2275C2.46837 17.6812 2.9914 15.1583 4.03405 12.8349C5.0767 10.5116 6.61386 8.44379 8.53821 6.77588L13.021 11.948C11.8493 12.9635 10.9133 14.2226 10.2785 15.6372C9.64362 17.0519 9.32515 18.5881 9.34531 20.1385C9.36547 21.689 9.72377 23.2164 10.3952 24.614C11.0666 26.0117 12.035 27.246 13.2327 28.2308L8.88591 33.5177Z" fill="#8186FF"/>
<path d="M9.84723 5.74619C12.3604 3.95606 15.3023 2.86225 18.3745 2.57565C21.4468 2.28905 24.5402 2.81985 27.3411 4.11423C30.1421 5.40862 32.551 7.42057 34.3237 9.94611C36.0964 12.4717 37.1698 15.421 37.4352 18.4952L25.6463 19.5127C25.5604 18.5171 25.2128 17.562 24.6387 16.7441C24.0646 15.9262 23.2845 15.2746 22.3774 14.8554C21.4703 14.4362 20.4685 14.2644 19.4736 14.3572C18.4787 14.45 17.5259 14.8042 16.712 15.3839L9.84723 5.74619Z" fill="#4C54FF"/>
<circle cx="20" cy="20" r="12.5" fill="#26272F"/>
<circle cx="20" cy="20" r="10.95" stroke="white" stroke-opacity="0.2" stroke-width="0.6"/>
<path fill-rule="evenodd" clip-rule="evenodd" d="M16 17C16 16.7239 16.2239 16.5 16.5 16.5H19.7667C20.0428 16.5 20.2667 16.7239 20.2667 17V17.1668C20.2667 17.443 20.0428 17.6668 19.7667 17.6668H16.5C16.2239 17.6668 16 17.443 16 17.1668V17ZM16 19.918C16 19.6418 16.2239 19.418 16.5 19.418H23.5C23.7761 19.418 24 19.6418 24 19.918V20.0848C24 20.3609 23.7761 20.5848 23.5 20.5848H16.5C16.2239 20.5848 16 20.3609 16 20.0848V19.918ZM16.5 22.334C16.2239 22.334 16 22.5578 16 22.834V23.0008C16 23.2769 16.2239 23.5008 16.5 23.5008H23.5C23.7761 23.5008 24 23.2769 24 23.0008V22.834C24 22.5578 23.7761 22.334 23.5 22.334H16.5Z" fill="white" fill-opacity="0.6"/>
</g>
</svg>
