<svg width="111" height="43" viewBox="0 0 111 43" fill="none" xmlns="http://www.w3.org/2000/svg">
<g filter="url(#filter0_b_269_25829)">
<path d="M111 2.02193C111 0.905249 110.095 0 108.978 0H26.6969C25.5802 0 24.6749 0.905248 24.6749 2.02193V23.3703C24.6749 24.487 25.5802 25.3922 26.6969 25.3922H104.119L102.943 30.7351C102.804 31.3679 103.551 31.8135 104.041 31.3905L110.298 25.9972C110.744 25.6131 111 25.054 111 24.4657V2.02193Z" fill="white" fill-opacity="0.06"/>
</g>
<rect x="30.9731" y="6.19092" width="13.8558" height="13.6192" rx="1.79928" fill="#22232B"/>
<path d="M40.9254 9.55814C40.9254 9.55814 40.9797 9.46982 40.9216 9.22479C40.8635 8.97975 39.1902 7.08661 37.3968 8.10159C36.2767 8.73595 36.0216 9.74098 35.9243 10.5209C35.9193 10.5657 35.9142 10.6104 35.9092 10.654C35.8637 10.8468 35.7121 11.3182 35.2259 12.4526C35.0239 13.0596 35.1047 13.4763 35.1906 13.6616C35.1918 14.3731 35.3451 14.4894 35.3451 14.4894L35.5214 14.5601C35.4532 14.3324 35.505 14.1206 35.5619 13.8967C35.5619 13.8967 35.35 14.467 35.6165 14.4894L37.2452 13.6567L38.3309 13.9343L39.4167 14.1169L39.9596 14.4894L40.4215 14.8196C40.4215 14.8196 40.4215 14.8196 40.6513 14.1169C41.1211 13.0223 40.8888 11.6043 40.8888 11.6043H40.789L40.7764 11.0607L40.9822 10.7112C41.0984 9.65018 40.9254 9.55814 40.9254 9.55814ZM35.1906 13.628C35.1754 13.5733 35.1577 13.5011 35.1502 13.4651C35.1375 13.4029 35.0542 12.827 35.5214 12.072C35.2752 12.6727 35.1944 13.2001 35.1906 13.628ZM40.231 14.767C40.1982 14.3466 40.4215 14.2213 40.4215 14.2213C40.2636 14.5099 40.231 14.767 40.231 14.767Z" fill="#3054A8"/>
<path d="M37.054 13.6284C37.054 13.6284 34.6115 14.9792 34.1935 15.8873C33.7755 16.7953 33.6707 17.6722 33.6707 17.6722H41.7519C41.7519 17.6722 41.9174 15.6746 41.0813 15.1907C40.2453 14.7068 39.7932 14.575 39.5823 14.2143C39.3726 13.856 37.054 13.6284 37.054 13.6284Z" fill="url(#paint0_linear_269_25829)"/>
<path d="M37.2589 12.2158C37.2589 12.2158 37.3132 13.2246 37.0316 13.6239C37.0139 13.6487 37.0202 13.6823 37.0442 13.6997C38.3917 14.66 39.2391 14.4336 39.4892 14.3291C39.5347 14.3105 39.5624 14.2657 39.5599 14.2172C39.5549 14.1102 39.5561 13.9124 39.6332 13.7868C39.6812 13.7072 38.119 12.589 37.509 12.2158C37.365 12.1263 37.2589 12.2158 37.2589 12.2158Z" fill="#CF9C94"/>
<path d="M37.4836 12.4785C37.4836 12.4785 38.3285 14.3442 39.3224 14.047C40.3946 13.726 37.8878 11.9436 37.8878 11.9436L37.4836 12.4785Z" fill="#C7776A"/>
<path d="M37.4029 12.2763C37.4029 12.2763 37.658 13.1669 38.638 13.5711C38.9032 13.6818 39.4488 13.9094 39.6357 13.9455C39.7519 13.9679 40.2545 14.0264 40.3871 13.7005C40.4869 13.4753 40.5273 13.2116 40.5993 13.0487C40.6713 12.8857 40.8973 11.7613 40.9213 11.6282C40.9453 11.4951 40.9302 11.2538 40.9352 11.158C40.9403 11.0623 41.0224 10.8433 41.0224 10.7625C41.0224 10.6816 40.992 10.5796 40.9832 10.5063C40.9681 10.3856 40.9529 9.83706 40.9175 9.73383C40.8822 9.62934 40.8418 9.40794 40.6006 9.35196C39.2316 9.09075 37.6087 10.8197 37.4484 11.1307C37.4244 11.0846 37.3701 11.0013 37.3322 10.9553C37.2854 10.8856 37.0796 10.7401 36.9647 10.7314C36.851 10.7214 36.6843 10.7737 36.6186 10.8433C36.5542 10.913 36.5176 11.1817 36.5681 11.4578C36.6186 11.7339 36.9609 12.2016 37.0025 12.2402C37.2135 12.4442 37.4029 12.2763 37.4029 12.2763Z" fill="#EFBBB4"/>
<path d="M37.4121 10.9377C37.4121 10.9377 37.4361 11.1516 37.5056 11.271C37.5056 11.271 37.7481 10.9066 38.132 10.9377C38.5159 10.97 39.2736 10.6516 39.7043 10.2076C40.1349 9.7635 40.385 9.47742 40.6199 9.54085C40.6199 9.54085 40.606 9.46995 40.5681 9.4513C40.6022 9.43513 40.899 9.49483 40.9091 9.95879C40.9255 10.628 41.0164 10.6852 41.0164 10.6852C41.0164 10.6852 40.9773 10.4178 40.995 10.021C40.971 9.77096 40.9129 9.66026 40.9129 9.66026L40.8838 9.32691L39.9076 9.1167L38.3328 9.25477L37.3679 10.2287L37.4121 10.9377Z" fill="#3054A8"/>
<path d="M37.5825 11.0193C37.5825 11.0193 38.3137 11.7179 39.3038 10.5311L39.1017 10.4751C39.1017 10.4751 38.2506 11.5909 37.5976 10.9259C36.9447 10.2609 37.5825 11.0193 37.5825 11.0193Z" fill="#3054A8"/>
<rect x="49" y="8" width="43" height="2" rx="0.673976" fill="#22232B"/>
<rect x="96" y="6" width="5.5" height="5.5" rx="0.673976" fill="#22232B"/>
<rect x="96" y="13" width="5.5" height="5.5" rx="0.5" fill="#22232B"/>
<rect x="49" y="15" width="43" height="2" rx="0.673976" fill="#22232B"/>
<g filter="url(#filter1_b_269_25829)">
<path d="M0 19.5251C0 18.1018 1.1538 16.948 2.57708 16.948H60.2261C61.6494 16.948 62.8032 18.1018 62.8032 19.5251V36.1912C62.8032 37.6145 61.6494 38.7683 60.2261 38.7683H4.7853L6.68482 42.0143C6.84064 42.2806 6.5414 42.5803 6.27485 42.425L0.992997 39.3469C0.378144 38.9886 0 38.3306 0 37.619V19.5251Z" fill="white" fill-opacity="0.1"/>
</g>
<rect x="20.9126" y="23.5593" width="35.4371" height="1.95908" rx="0.859027" fill="#22232B"/>
<rect x="20.9126" y="29.6821" width="35.4371" height="1.95908" rx="0.859027" fill="#22232B"/>
<rect x="5.18945" y="22.0935" width="11.4158" height="11.2437" rx="1.79928" fill="#22232B"/>
<path d="M12.6472 26.9239L13.8391 26.2826L13.9794 26.0487C14.0838 25.1305 13.93 25.0518 13.93 25.0518C13.93 25.0518 13.9783 24.9753 13.9267 24.7629C13.8739 24.5506 12.3879 22.9103 10.7942 23.7897C10.3509 24.0344 10.0602 24.3426 9.86607 24.6692C9.0232 26.8549 10.7998 27.4078 10.7998 27.4078L11.4497 28.5082L12.6472 26.9239Z" fill="#187E6A"/>
<path d="M10.4896 28.5784C10.4896 28.5784 8.31904 29.7488 7.94755 30.5356C7.57606 31.3224 7.48291 32.0822 7.48291 32.0822H14.6647C14.6647 32.0822 14.8117 30.3513 14.0687 29.932C13.3257 29.5128 12.924 29.3985 12.7365 29.086C12.5502 28.7756 10.4896 28.5784 10.4896 28.5784Z" fill="url(#paint1_linear_269_25829)"/>
<path d="M10.6719 27.3568C10.6719 27.3568 10.7202 28.2308 10.4699 28.5768C10.4542 28.5983 10.4598 28.6274 10.4811 28.6425C11.6787 29.4746 12.4318 29.2784 12.654 29.1879C12.6944 29.1717 12.7191 29.1329 12.7168 29.0909C12.7123 28.9982 12.7135 28.8268 12.7819 28.718C12.8246 28.649 11.4362 27.6801 10.8942 27.3568C10.7662 27.2792 10.6719 27.3568 10.6719 27.3568Z" fill="#CF9C94"/>
<path d="M10.8711 27.5828C10.8711 27.5828 11.6219 29.1995 12.5052 28.9419C13.4581 28.6638 11.2302 27.1194 11.2302 27.1194L10.8711 27.5828Z" fill="#C7776A"/>
<path d="M10.8 27.4078C10.8 27.4078 11.0267 28.1795 11.8976 28.5298C12.1333 28.6257 12.6182 28.823 12.7843 28.8542C12.8875 28.8736 13.3342 28.9243 13.4521 28.6419C13.5407 28.4468 13.5766 28.2183 13.6406 28.0771C13.7046 27.936 13.9055 26.9617 13.9268 26.8463C13.9481 26.731 13.9347 26.5219 13.9392 26.4389C13.9436 26.3559 14.0166 26.1663 14.0166 26.0962C14.0166 26.0262 13.9897 25.9378 13.9818 25.8742C13.9683 25.7696 13.9549 25.2944 13.9234 25.2049C13.892 25.1154 13.8561 24.9225 13.6417 24.874C12.4251 24.6477 10.9829 26.1458 10.8404 26.4152C10.8191 26.3753 10.7708 26.3031 10.7372 26.2633C10.6956 26.2029 10.5127 26.0768 10.4106 26.0693C10.3096 26.0606 10.1614 26.1059 10.103 26.1663C10.0458 26.2266 10.0133 26.4594 10.0582 26.6987C10.103 26.9379 10.4072 27.3432 10.4442 27.3766C10.6317 27.5533 10.8 27.4078 10.8 27.4078Z" fill="#EFBBB4"/>
<path d="M13.3203 24.1387C13.3203 24.1387 14.0453 24.5838 14.2474 24.2033C14.2474 24.2033 14.2272 24.836 13.3731 25.1184" fill="#187E6A"/>
<path d="M13.9898 25.4537C13.9685 25.2371 13.9168 25.1411 13.9168 25.1411L13.891 24.8523L13.0235 24.6702L11.625 24.7898L10.7676 25.6337L10.8057 26.248C10.8057 26.248 10.8271 26.4334 10.8888 26.5369C10.8888 26.5369 11.1043 26.2211 11.4455 26.248C11.7867 26.276 12.46 26.0001 12.8428 25.6154C13.0874 25.3686 13.267 25.1789 13.4196 25.0883C13.4151 25.0851 13.4129 25.0829 13.4129 25.0829L13.5633 24.9612L13.6261 24.973C13.6217 24.9676 13.616 24.9633 13.6093 24.9601C13.6396 24.9461 13.9034 24.9978 13.9123 25.3998C13.9269 25.9797 14.0077 26.0292 14.0077 26.0292C14.0077 26.0292 13.9741 25.7964 13.9898 25.4537Z" fill="#187E6A"/>
<path d="M13.7837 24.7525C13.7837 24.7525 14.0146 24.7396 14.1592 24.6038C14.1592 24.6038 13.9675 24.9605 14.0012 25.2526C14.0348 25.5446 13.7837 24.7525 13.7837 24.7525Z" fill="#187E6A"/>
<defs>
<filter id="filter0_b_269_25829" x="12.0887" y="-12.5864" width="111.498" height="56.7294" filterUnits="userSpaceOnUse" color-interpolation-filters="sRGB">
<feFlood flood-opacity="0" result="BackgroundImageFix"/>
<feGaussianBlur in="BackgroundImageFix" stdDeviation="6.29318"/>
<feComposite in2="SourceAlpha" operator="in" result="effect1_backgroundBlur_269_25829"/>
<feBlend mode="normal" in="SourceGraphic" in2="effect1_backgroundBlur_269_25829" result="shape"/>
</filter>
<filter id="filter1_b_269_25829" x="-13.9831" y="2.96494" width="90.7693" height="53.4856" filterUnits="userSpaceOnUse" color-interpolation-filters="sRGB">
<feFlood flood-opacity="0" result="BackgroundImageFix"/>
<feGaussianBlur in="BackgroundImageFix" stdDeviation="6.99153"/>
<feComposite in2="SourceAlpha" operator="in" result="effect1_backgroundBlur_269_25829"/>
<feBlend mode="normal" in="SourceGraphic" in2="effect1_backgroundBlur_269_25829" result="shape"/>
</filter>
<linearGradient id="paint0_linear_269_25829" x1="41.1735" y1="13.8257" x2="41.3874" y2="17.7069" gradientUnits="userSpaceOnUse">
<stop offset="0.045688" stop-color="#49FFDA"/>
<stop offset="0.598615" stop-color="#4449B3" stop-opacity="0.6"/>
<stop offset="0.936631" stop-color="#282931" stop-opacity="0"/>
</linearGradient>
<linearGradient id="paint1_linear_269_25829" x1="14.1506" y1="28.7493" x2="14.3313" y2="32.1128" gradientUnits="userSpaceOnUse">
<stop offset="0.045688" stop-color="#49FFDA"/>
<stop offset="0.598615" stop-color="#4449B3" stop-opacity="0.6"/>
<stop offset="0.936631" stop-color="#282931" stop-opacity="0"/>
</linearGradient>
</defs>
</svg>
