<svg width="14" height="14" viewBox="0 0 14 14" fill="none" xmlns="http://www.w3.org/2000/svg">
<path d="M4.17301 9.82701C3.6132 9.26776 3.23184 8.55503 3.07717 7.779C2.9225 7.00297 3.00148 6.19849 3.30411 5.46735C3.60674 4.73621 4.11943 4.11126 4.77731 3.67156C5.4352 3.23185 6.20872 2.99716 7.00001 2.99716C7.79131 2.99716 8.56483 3.23185 9.22271 3.67156C9.8806 4.11126 10.3933 4.73621 10.6959 5.46735C10.9985 6.19849 11.0775 7.00297 10.9229 7.779C10.7682 8.55503 10.3868 9.26776 9.82701 9.82701L11.714 11.714C12.6464 10.7817 13.2813 9.59378 13.5386 8.30057C13.7958 7.00736 13.6638 5.66691 13.1592 4.44873C12.6546 3.23054 11.8002 2.18935 10.7038 1.4568C9.6075 0.724248 8.31856 0.333252 7.00001 0.333252C5.68147 0.333252 4.39253 0.724248 3.2962 1.4568C2.19987 2.18935 1.34538 3.23054 0.840804 4.44873C0.336224 5.66691 0.204209 7.00736 0.461454 8.30057C0.718699 9.59378 1.35365 10.7817 2.28601 11.714L4.17301 9.82701Z" fill="#6C5AFF"/>
<path opacity="0.2" d="M7.00001 13.6667C7.71636 13.6659 8.42788 13.5493 9.10701 13.3213L7.00001 7L4.89301 13.3213C5.57213 13.5493 6.28365 13.6659 7.00001 13.6667Z" fill="#6C5AFF"/>
</svg>
