<svg width="16" height="16" viewBox="0 0 16 16" fill="none" xmlns="http://www.w3.org/2000/svg">
<path d="M5.173 10.827C4.61319 10.2678 4.23182 9.55503 4.07715 8.779C3.92249 8.00297 4.00146 7.19849 4.3041 6.46735C4.60673 5.73621 5.11942 5.11126 5.7773 4.67156C6.43518 4.23185 7.2087 3.99716 8 3.99716C8.7913 3.99716 9.56482 4.23185 10.2227 4.67156C10.8806 5.11126 11.3933 5.73621 11.6959 6.46735C11.9985 7.19849 12.0775 8.00297 11.9228 8.779C11.7682 9.55503 11.3868 10.2678 10.827 10.827L12.714 12.714C13.6464 11.7817 14.2813 10.5938 14.5386 9.30057C14.7958 8.00736 14.6638 6.66691 14.1592 5.44873C13.6546 4.23054 12.8001 3.18935 11.7038 2.4568C10.6075 1.72425 9.31855 1.33325 8 1.33325C6.68145 1.33325 5.39252 1.72425 4.29618 2.4568C3.19985 3.18935 2.34537 4.23054 1.84079 5.44873C1.33621 6.66691 1.2042 8.00736 1.46144 9.30057C1.71869 10.5938 2.35364 11.7817 3.286 12.714L5.173 10.827Z" fill="#FF1F70"/>
<path opacity="0.2" d="M8 14.6667C8.71636 14.6659 9.42788 14.5493 10.107 14.3213L8 8L5.893 14.3213C6.57212 14.5493 7.28364 14.6659 8 14.6667Z" fill="#FF1F70"/>
</svg>
