<svg width="16" height="16" viewBox="0 0 16 16" fill="none" xmlns="http://www.w3.org/2000/svg">
<path d="M5.17301 10.827C4.6132 10.2678 4.23184 9.55503 4.07717 8.779C3.9225 8.00297 4.00148 7.19849 4.30411 6.46735C4.60674 5.73621 5.11943 5.11126 5.77731 4.67156C6.4352 4.23185 7.20872 3.99716 8.00001 3.99716C8.79131 3.99716 9.56483 4.23185 10.2227 4.67156C10.8806 5.11126 11.3933 5.73621 11.6959 6.46735C11.9985 7.19849 12.0775 8.00297 11.9229 8.779C11.7682 9.55503 11.3868 10.2678 10.827 10.827L12.714 12.714C13.6464 11.7817 14.2813 10.5938 14.5386 9.30057C14.7958 8.00736 14.6638 6.66691 14.1592 5.44873C13.6546 4.23054 12.8002 3.18935 11.7038 2.4568C10.6075 1.72425 9.31856 1.33325 8.00001 1.33325C6.68147 1.33325 5.39253 1.72425 4.2962 2.4568C3.19987 3.18935 2.34538 4.23054 1.8408 5.44873C1.33622 6.66691 1.20421 8.00736 1.46145 9.30057C1.7187 10.5938 2.35365 11.7817 3.28601 12.714L5.17301 10.827Z" fill="#18C19F"/>
<path opacity="0.2" d="M8.00001 14.6667C8.71636 14.6659 9.42788 14.5493 10.107 14.3213L8.00001 8L5.89301 14.3213C6.57213 14.5493 7.28365 14.6659 8.00001 14.6667Z" fill="#18C19F"/>
</svg>
