<svg width="10" height="10" viewBox="0 0 10 10" fill="none" xmlns="http://www.w3.org/2000/svg">
<path fill-rule="evenodd" clip-rule="evenodd" d="M7.27143 4.28571C7.27143 5.93468 5.93468 7.27143 4.28571 7.27143C2.63675 7.27143 1.3 5.93468 1.3 4.28571C1.3 2.63675 2.63675 1.3 4.28571 1.3C5.93468 1.3 7.27143 2.63675 7.27143 4.28571ZM6.80291 7.75468C6.09614 8.26841 5.22631 8.57143 4.28571 8.57143C1.91878 8.57143 0 6.65265 0 4.28571C0 1.91878 1.91878 0 4.28571 0C6.65265 0 8.57143 1.91878 8.57143 4.28571C8.57143 5.226 8.26862 6.09556 7.75519 6.8022L9.99996 9.04697L9.04758 9.99935L6.80291 7.75468Z" fill="white" fill-opacity="0.6"/>
</svg>
