<svg width="10" height="12" viewBox="0 0 10 12" fill="none" xmlns="http://www.w3.org/2000/svg">
<path fill-rule="evenodd" clip-rule="evenodd" d="M1.61513 10.3358H8.27691V8.56844C9.00921 7.8949 9.52086 7.01577 9.74475 6.04634C9.96865 5.07691 9.89433 4.06244 9.53154 3.136C9.16876 2.20955 8.53445 1.41437 7.7118 0.854747C6.88916 0.295126 5.91659 -0.00280734 4.92165 1.99372e-05C3.9267 0.00284721 2.95584 0.306304 2.13639 0.870591C1.31694 1.43488 0.687161 2.23365 0.329649 3.16214C-0.0278639 4.09064 -0.096417 5.10551 0.13298 6.07365C0.362377 7.04179 0.879014 7.918 1.61513 8.58736V10.3358ZM2.13486 12H7.67458C7.81151 12 7.94283 11.9456 8.03965 11.8488C8.13647 11.752 8.19086 11.6206 8.19086 11.4837C8.19086 11.3468 8.13647 11.2155 8.03965 11.1186C7.94283 11.0218 7.81151 10.9674 7.67458 10.9674H2.13486C1.99793 10.9674 1.86661 11.0218 1.76979 11.1186C1.67297 11.2155 1.61857 11.3468 1.61857 11.4837C1.61857 11.6206 1.67297 11.752 1.76979 11.8488C1.86661 11.9456 1.99793 12 2.13486 12ZM7.09451 5.29455C7.19133 5.39138 7.32265 5.44577 7.45958 5.44577C7.52737 5.44577 7.59451 5.43242 7.65715 5.40647C7.71979 5.38052 7.7767 5.3425 7.82464 5.29455C7.87258 5.24661 7.91061 5.1897 7.93656 5.12706C7.96251 5.06442 7.97586 4.99729 7.97586 4.92949C7.97268 4.12613 7.65154 3.35671 7.08267 2.78945C6.5138 2.22219 5.74348 1.90325 4.94011 1.90234C4.80318 1.90234 4.67187 1.95674 4.57504 2.05356C4.47822 2.15038 4.42383 2.2817 4.42383 2.41863C4.42383 2.55555 4.47822 2.68687 4.57504 2.78369C4.67187 2.88052 4.80318 2.93491 4.94011 2.93491C5.46976 2.93536 5.97772 3.14537 6.35304 3.51908C6.72837 3.8928 6.94057 4.39984 6.94329 4.92949C6.94329 5.06641 6.99769 5.19773 7.09451 5.29455Z" fill="#F58721"/>
</svg>
