<svg width="12" height="9" viewBox="0 0 12 9" fill="none" xmlns="http://www.w3.org/2000/svg">
<path d="M9.14873 3.14329C9.24787 3.04773 9.3719 2.9999 9.4959 2.9999C9.49994 2.9999 9.61151 2.98667 9.66944 3.02381C9.7438 3.07158 9.79337 3.1195 9.84298 3.16726L11.3471 4.71103C11.5454 4.90224 11.5454 5.18918 11.3471 5.35651C11.2479 5.4521 11.1239 5.4999 11 5.4999C10.876 5.4999 10.752 5.4521 10.6529 5.35651L9.94217 4.57757L9.94217 8.54573C9.94217 8.80869 9.71897 8.9999 9.47104 8.9999C9.22309 8.9999 8.99998 8.78471 8.99998 8.54573L8.99998 3.50193C8.99999 3.38233 9.04952 3.23894 9.14873 3.14329Z" fill="#0F134F"/>
<path d="M7.84706 8.85661C7.74792 8.95217 7.62389 9 7.49989 9C7.45035 9 7.40075 8.97609 7.35117 8.97609H7.32635C7.25199 8.92832 7.20242 8.8804 7.15281 8.83263L5.64872 7.28887C5.45037 7.09765 5.45037 6.81072 5.64872 6.64339C5.74789 6.5478 5.87186 6.5 5.99579 6.5C6.11978 6.5 6.24377 6.5478 6.34289 6.64339L7.05362 7.42232L7.05362 3.45417C7.05362 3.19121 7.27682 3 7.52475 3C7.7727 3 7.99581 3.21519 7.99581 3.45417L7.99581 8.49797C7.9958 8.61757 7.94627 8.76096 7.84706 8.85661Z" fill="#0F134F"/>
<rect width="11" height="1" rx="0.5" fill="#0F134F"/>
<rect y="4" width="5" height="1" rx="0.5" fill="#0F134F"/>
<rect y="8" width="5" height="1" rx="0.5" fill="#0F134F"/>
</svg>
