<svg width="11" height="9" viewBox="0 0 11 9" fill="none" xmlns="http://www.w3.org/2000/svg">
<path d="M8.14875 3.14339C8.2479 3.04783 8.37192 3 8.49592 3C8.54546 3 8.59507 3.02391 8.64464 3.02391L8.66946 3.02391C8.74382 3.07168 8.79339 3.1196 8.843 3.16736L10.8512 5.10356C11.0496 5.29477 11.0496 5.5817 10.8512 5.74903C10.7521 5.84462 10.6281 5.89242 10.5042 5.89242C10.3802 5.89242 10.2562 5.84462 10.1571 5.74903L8.94219 4.57768L8.94219 8.54583C8.94219 8.80879 8.71899 9 8.47106 9C8.22311 9 8 8.78481 8 8.54583L8 3.50203C8.00001 3.38243 8.04955 3.23904 8.14875 3.14339Z" fill="#18C19F"/>
<rect width="11" height="1" rx="0.5" fill="#0F134F"/>
<rect y="4" width="6" height="1" rx="0.5" fill="#0F134F"/>
<rect y="8" width="6" height="1" rx="0.5" fill="#0F134F"/>
</svg>
