<svg width="11" height="9" viewBox="0 0 11 9" fill="none" xmlns="http://www.w3.org/2000/svg">
<path d="M8.14875 8.85661C8.2479 8.95217 8.37192 9 8.49592 9C8.54546 9 8.59507 8.97609 8.64464 8.97609H8.66946C8.74382 8.92832 8.79339 8.8804 8.843 8.83263L10.8512 6.89644C11.0496 6.70523 11.0496 6.4183 10.8512 6.25097C10.7521 6.15538 10.6281 6.10758 10.5042 6.10758C10.3802 6.10758 10.2562 6.15538 10.1571 6.25097L8.94219 7.42232V3.45417C8.94219 3.19121 8.71899 3 8.47106 3C8.22311 3 8 3.21519 8 3.45417V8.49797C8.00001 8.61757 8.04955 8.76096 8.14875 8.85661Z" fill="#18C19F"/>
<rect width="11" height="1" rx="0.5" fill="#3D56D6"/>
<rect y="4" width="6" height="1" rx="0.5" fill="#3D56D6"/>
<rect y="8" width="6" height="1" rx="0.5" fill="#3D56D6"/>
</svg>
