<svg width="12" height="9" viewBox="0 0 12 9" fill="none" xmlns="http://www.w3.org/2000/svg">
<path d="M9.14875 3.14338C9.24789 3.04782 9.37192 2.99999 9.49592 2.99999C9.49996 2.99999 9.61152 2.98676 9.66946 3.0239C9.74381 3.07167 9.79338 3.11959 9.84299 3.16735L11.3471 4.71112C11.5454 4.90234 11.5454 5.18927 11.3471 5.3566C11.2479 5.45219 11.1239 5.49999 11 5.49999C10.876 5.49999 10.752 5.45219 10.6529 5.3566L9.94219 4.57767L9.94218 8.54582C9.94218 8.80878 9.71898 8.99999 9.47106 8.99999C9.2231 8.99999 8.99999 8.7848 8.99999 8.54582L8.99999 3.50202C9 3.38242 9.04954 3.23903 9.14875 3.14338Z" fill="white"/>
<path d="M7.84706 8.85661C7.74792 8.95217 7.62389 9 7.49989 9C7.45035 9 7.40075 8.97609 7.35117 8.97609H7.32635C7.25199 8.92832 7.20242 8.8804 7.15281 8.83263L5.64872 7.28887C5.45037 7.09765 5.45037 6.81072 5.64872 6.64339C5.74789 6.5478 5.87186 6.5 5.99579 6.5C6.11978 6.5 6.24377 6.5478 6.34289 6.64339L7.05362 7.42232L7.05362 3.45417C7.05362 3.19121 7.27682 3 7.52475 3C7.7727 3 7.99581 3.21519 7.99581 3.45417L7.99581 8.49797C7.9958 8.61757 7.94627 8.76096 7.84706 8.85661Z" fill="white"/>
<rect width="11" height="1" rx="0.5" fill="white"/>
<rect y="4" width="5" height="1" rx="0.5" fill="white"/>
<rect y="8" width="5" height="1" rx="0.5" fill="white"/>
</svg>
