<svg width="118" height="100" viewBox="0 0 118 100" fill="none" xmlns="http://www.w3.org/2000/svg">
<g filter="url(#filter0_f_998_1876)">
<path d="M32.2921 87C20.2867 89.1512 19.1513 81.1094 17.7921 81.6475L20.2867 79.5271L47.9662 77.7214L91.2921 81.6475L95.2921 83L86.2921 85.3488H62.2921C49.2921 84 34.543 86.5967 32.2921 87Z" fill="#202A4A" fill-opacity="0.8"/>
</g>
<g filter="url(#filter1_f_998_1876)">
<path d="M88.3453 82.4672C88.297 83.9476 77.8303 83.7765 73.5197 82.726C69.2091 81.6755 20.4758 80.9097 20.5241 79.4293C20.5725 77.9489 35.8546 76.1711 57.0173 76.8276C78.1801 77.484 88.5201 77.1171 88.3453 82.4672Z" fill="#2A2D49" fill-opacity="0.7"/>
</g>
<path d="M28.0808 23.44C28.0808 21.885 29.3805 20.6457 30.9337 20.7198L97.3634 23.8867C98.8154 23.956 99.9571 25.1533 99.9571 26.6069V76.6825C99.9571 78.2123 98.6973 79.442 97.1679 79.405L30.7382 77.7989C29.2603 77.7631 28.0808 76.5548 28.0808 75.0764V23.44Z" fill="#4A3C82" stroke="#5A4A96" stroke-width="0.783097"/>
<g filter="url(#filter2_b_998_1876)">
<path d="M106.893 65.9368L105.345 63.6923L86.8852 76.7042C86.8852 76.7042 87.0557 78.3633 89.0592 80.419C89.4734 80.844 90.0951 81.4731 91.3892 81.7636C95.9172 82.78 106.931 77.0787 107.651 69.0824C107.942 67.5787 107.267 66.3588 106.893 65.9368Z" fill="url(#paint0_linear_998_1876)" fill-opacity="0.8"/>
</g>
<g filter="url(#filter3_b_998_1876)">
<path d="M106.887 65.9432L105.34 63.6986L86.8795 76.7106C86.8795 76.7106 87.05 78.3697 89.0535 80.4254C89.4677 80.8503 90.0894 81.4795 91.3835 81.77C95.9114 82.7864 106.925 77.0851 107.645 69.0887C107.936 67.585 107.261 66.3652 106.887 65.9432Z" fill="url(#paint1_linear_998_1876)" fill-opacity="0.8"/>
</g>
<path d="M91.544 65.262C89.1088 67.2781 87.42 69.6975 86.6516 71.9705C85.8819 74.2471 86.0439 76.3422 87.2457 77.7624C88.4475 79.1826 90.504 79.7091 92.9053 79.3605C95.3027 79.0125 98.0078 77.7941 100.443 75.778C102.878 73.7619 104.567 71.3425 105.335 69.0695C106.105 66.7929 105.943 64.6978 104.741 63.2776C103.539 61.8574 101.483 61.3309 99.0817 61.6795C96.6843 62.0275 93.9792 63.2459 91.544 65.262Z" fill="url(#paint2_linear_998_1876)" stroke="url(#paint3_linear_998_1876)" stroke-width="0.417648"/>
<path d="M91.5216 65.2355C89.0822 67.2551 87.3892 69.6796 86.6184 71.9596C85.8466 74.2426 86.0063 76.3519 87.2188 77.7846C88.4313 79.2174 90.5023 79.7443 92.9103 79.3947C95.3151 79.0456 98.026 77.824 100.465 75.8045C102.905 73.7849 104.598 71.3604 105.369 69.0804C106.14 66.7974 105.981 64.6882 104.768 63.2554C103.556 61.8226 101.485 61.2957 99.0767 61.6453C96.6719 61.9944 93.9609 63.216 91.5216 65.2355Z" fill="url(#paint4_linear_998_1876)" stroke="url(#paint5_linear_998_1876)" stroke-width="0.348041"/>
<g filter="url(#filter4_i_998_1876)">
<ellipse cx="5.32097" cy="8.93415" rx="5.32097" ry="8.93415" transform="matrix(-0.644507 -0.761616 -0.77204 0.639179 106.148 68.7842)" fill="url(#paint6_linear_998_1876)"/>
</g>
<g opacity="0.9">
<mask id="mask0_998_1876" style="mask-type:alpha" maskUnits="userSpaceOnUse" x="92" y="70" width="6" height="5">
<path d="M92.0894 74.323L97.7016 72.5035L96.201 70.9356L93.522 71.2339L92.0894 74.323Z" fill="url(#paint7_linear_998_1876)"/>
</mask>
<g mask="url(#mask0_998_1876)">
<path opacity="0.3" d="M91.6165 74.5621L97.7022 72.508L96.2016 70.9401L90.975 74.396L91.6165 74.5621Z" fill="url(#paint8_linear_998_1876)"/>
</g>
<path opacity="0.5" d="M96.2057 71.0358L100.173 70.6968L97.001 67.3826L96.2057 71.0358Z" fill="url(#paint9_radial_998_1876)"/>
<path fill-rule="evenodd" clip-rule="evenodd" d="M96.6294 70.2235C96.5161 70.2333 96.4241 70.1356 96.4421 70.0247L97.1715 65.5289C97.1982 65.3643 97.4217 65.3273 97.4996 65.4746L99.7424 69.7115C99.8002 69.8208 99.7263 69.9537 99.6016 69.9646L96.6294 70.2235Z" fill="white"/>
<path fill-rule="evenodd" clip-rule="evenodd" d="M96.0696 70.3059C96.0627 70.3482 96.0402 70.3865 96.0065 70.4136L91.692 73.8678C91.5376 73.9914 91.328 73.8072 91.4345 73.6415L96.4584 65.8227C96.5605 65.6637 96.809 65.7557 96.7789 65.9413L96.0696 70.3059Z" fill="white"/>
<path fill-rule="evenodd" clip-rule="evenodd" d="M101.019 70.5185L101.024 70.6323L97.6266 71.3556C97.5731 71.367 97.5526 71.4318 97.59 71.4709L98.6494 72.5777C98.6853 72.6152 98.6681 72.6772 98.6178 72.6918L90.4156 75.0721L90.2609 74.9104L97.4889 72.5174C97.5375 72.5013 97.553 72.4408 97.5179 72.4041L96.2136 71.0413C96.1734 70.9993 96.2005 70.9297 96.259 70.9247L101.019 70.5185Z" fill="url(#paint10_linear_998_1876)"/>
</g>
<g filter="url(#filter5_f_998_1876)">
<ellipse cx="7.99217" cy="5.70987" rx="7.99217" ry="5.70987" transform="matrix(-0.677848 0.738829 -0.746245 -0.661737 109.106 72.8801)" fill="#7784E8" fill-opacity="0.26"/>
</g>
<path d="M80.7266 9.38734L84.8685 10.1415L77.6948 43.8296C77.6948 43.8296 75.2306 44.6226 71.0773 43.1184C70.2188 42.8074 68.9424 42.3352 67.7349 40.7198C63.5101 35.068 64.8576 16.2481 75.7877 10.2871C77.7476 8.95043 79.8969 9.13032 80.7266 9.38734Z" fill="url(#paint11_linear_998_1876)"/>
<g filter="url(#filter6_b_998_1876)">
<path d="M80.7256 9.38734L84.8676 10.1415L77.6939 43.8296C77.6939 43.8296 75.2297 44.6226 71.0764 43.1184C70.2178 42.8074 68.9414 42.3352 67.7339 40.7198C63.5091 35.068 64.8566 16.2481 75.7867 10.2871C77.7466 8.95043 79.896 9.13032 80.7256 9.38734Z" fill="url(#paint12_linear_998_1876)" fill-opacity="0.8"/>
</g>
<path d="M91.1379 30.272C89.7643 34.9068 87.3575 38.7566 84.5918 41.2377C81.8218 43.7225 78.7323 44.8039 75.9616 44.0137C73.1909 43.2234 71.174 40.6857 70.1938 37.1314C69.2151 33.5824 69.2876 29.0668 70.6611 24.4321C72.0347 19.7973 74.4414 15.9475 77.2072 13.4664C79.9772 10.9816 83.0667 9.90024 85.8374 10.6904C88.6081 11.4807 90.625 14.0184 91.6052 17.5727C92.5839 21.1217 92.5114 25.6373 91.1379 30.272Z" fill="url(#paint13_linear_998_1876)" stroke="url(#paint14_linear_998_1876)" stroke-width="0.580068"/>
<g filter="url(#filter7_i_998_1876)">
<ellipse cx="8.68769" cy="12.5731" rx="8.68769" ry="12.5731" transform="matrix(0.941667 0.348274 -0.359273 0.928913 77.5729 11.6626)" fill="url(#paint15_linear_998_1876)"/>
</g>
<g opacity="0.9">
<mask id="mask1_998_1876" style="mask-type:alpha" maskUnits="userSpaceOnUse" x="77" y="27" width="9" height="10">
<path d="M77.7643 36.3945L85.0914 28.7433L82.2621 27.5064L78.523 30.2474L77.7643 36.3945Z" fill="url(#paint16_linear_998_1876)"/>
</mask>
<g mask="url(#mask1_998_1876)">
<path opacity="0.3" d="M77.1809 37.1584L85.0918 28.7322L82.2626 27.4953L76.1849 37.4353L77.1809 37.1584Z" fill="url(#paint17_linear_998_1876)"/>
</g>
<path opacity="0.5" d="M82.3119 27.657L87.8923 23.7623L81.9119 21.1478L82.3119 27.657Z" fill="url(#paint18_radial_998_1876)"/>
<path fill-rule="evenodd" clip-rule="evenodd" d="M82.6635 25.9328C82.4821 26.0597 82.2309 25.9478 82.2071 25.7294L81.357 17.9437C81.3276 17.674 81.6551 17.5148 81.8503 17.7038L86.8714 22.5692C87.0014 22.6951 86.9837 22.9079 86.8345 23.0123L82.6635 25.9328Z" fill="white"/>
<path fill-rule="evenodd" clip-rule="evenodd" d="M81.8041 26.6345C81.8102 26.6909 81.7995 26.7479 81.7732 26.7984L77.1525 35.6922C76.9951 35.9953 76.5325 35.8281 76.6105 35.4964L80.4304 19.254C80.505 18.9369 80.968 18.9627 81.0032 19.2858L81.8041 26.6345Z" fill="white"/>
<path fill-rule="evenodd" clip-rule="evenodd" d="M89.0331 22.7607L89.0886 22.9384L84.465 26.9902C84.4012 27.0461 84.4169 27.1486 84.4944 27.1825L86.4796 28.0504C86.5544 28.083 86.5724 28.1802 86.5143 28.2378L75.6636 38.9978L75.3719 38.8702L84.8099 28.9136C84.865 28.8554 84.846 28.7608 84.7726 28.7287L82.3219 27.6573C82.2391 27.6211 82.2284 27.5089 82.3027 27.4571L89.0331 22.7607Z" fill="url(#paint19_linear_998_1876)"/>
</g>
<path d="M21.7672 26.3209C21.7672 24.7654 23.0678 23.5259 24.6215 23.6008L91.7 26.8325C93.1514 26.9024 94.2922 28.0996 94.2922 29.5526V79.8799C94.2922 81.4354 92.9915 82.6749 91.4379 82.6L24.3594 79.3683C22.908 79.2983 21.7672 78.1012 21.7672 76.6481V26.3209Z" fill="url(#paint20_linear_998_1876)" stroke="url(#paint21_linear_998_1876)" stroke-width="0.783097"/>
<mask id="mask2_998_1876" style="mask-type:alpha" maskUnits="userSpaceOnUse" x="21" y="23" width="74" height="60">
<path d="M21.7672 26.3147C21.7672 24.7592 23.0678 23.5197 24.6215 23.5945L91.7 26.8263C93.1514 26.8962 94.2922 28.0933 94.2922 29.5464V79.8737C94.2922 81.4291 92.9915 82.6686 91.4379 82.5938L24.3594 79.362C22.908 79.2921 21.7672 78.095 21.7672 76.6419V26.3147Z" fill="url(#paint22_linear_998_1876)" stroke="url(#paint23_linear_998_1876)" stroke-width="0.783097"/>
</mask>
<g mask="url(#mask2_998_1876)">
<g filter="url(#filter8_f_998_1876)">
<ellipse cx="72.7269" cy="26.5003" rx="23.061" ry="12.7228" fill="#6DC2E3"/>
</g>
</g>
<path d="M30.3586 64.0163C30.3586 63.3179 30.9712 62.7778 31.6641 62.8653L34.0205 63.1629C34.6005 63.2361 35.0353 63.7294 35.0353 64.3139V77.4698C35.0353 78.1105 34.5159 78.6299 33.8752 78.6299H31.5188C30.8781 78.6299 30.3586 78.1105 30.3586 77.4698V64.0163Z" fill="url(#paint24_linear_998_1876)" fill-opacity="0.3"/>
<path d="M51.8831 59.3082C51.8831 58.1272 52.925 57.2176 54.0952 57.377L55.9674 57.6321C56.9332 57.7636 57.6533 58.5885 57.6533 59.5632V76.3271C57.6533 77.4035 56.7807 78.2761 55.7043 78.2761H53.8321C52.7557 78.2761 51.8831 77.4035 51.8831 76.3271V59.3082Z" fill="url(#paint25_linear_998_1876)" fill-opacity="0.3"/>
<path d="M60.9502 51.0893C60.9502 49.9313 61.9539 49.0287 63.1054 49.1512L65.802 49.4381C66.793 49.5435 67.5448 50.3796 67.5448 51.3762V77.1427C67.5448 78.2191 66.6722 79.0917 65.5958 79.0917H62.8992C61.8228 79.0917 60.9502 78.2191 60.9502 77.1427V51.0893Z" fill="url(#paint26_linear_998_1876)" fill-opacity="0.3"/>
<path d="M24.8596 75.7441C24.6823 75.469 24.5555 75.1587 24.4918 74.8265L24.7481 74.7773C24.7205 74.6332 24.706 74.4844 24.706 74.3321V73.8215H24.4449V72.8003H24.706V71.7791H24.4449V70.7579H24.706V69.7367H24.4449V68.7156H24.706V67.6944H24.4449V66.6732H24.706V65.652H24.4449V64.6308H24.706V63.6096H24.4449V62.5884H24.706V61.5673H24.4449V60.5461H24.706V59.5249H24.4449V58.5037H24.706V57.4825H24.4449V56.4613H24.706V55.4401H24.4449V54.419H24.706V53.3978H24.4449V52.3766H24.706V51.3554H24.4449V50.3342H24.706V49.313H24.4449V48.2918H24.706V47.2707H24.4449V46.2495H24.706V45.2283H24.4449V44.2071H24.706V43.1859H24.4449V42.1647H24.706V41.1436H24.4449V40.1224H24.706V39.1012H24.4449V38.08H24.706V37.0588H24.4449V36.0376H24.706V35.0164H24.4449V33.9953H24.706V32.9741H24.4449V31.9529H24.706V30.9317H24.4449V29.9105H24.706V29.3999C24.706 29.2377 24.7223 29.0798 24.7533 28.9276L24.4976 28.8755C24.5694 28.5228 24.7123 28.1965 24.9103 27.9117L25.1246 28.0607C25.306 27.7999 25.5388 27.5778 25.8078 27.4088L25.669 27.1878C25.9627 27.0033 26.2953 26.8758 26.651 26.8205L26.6911 27.0784C26.8446 27.0546 27.0031 27.0456 27.1651 27.0532L27.6838 27.0775L27.6961 26.8167L28.7335 26.8653L28.7213 27.1261L29.7588 27.1746L29.771 26.9139L30.8085 26.9624L30.7963 27.2232L31.8338 27.2717L31.846 27.011L32.8834 27.0596L32.8712 27.3203L33.9087 27.3689L33.9209 27.1081L34.9584 27.1567L34.9462 27.4174L35.9837 27.466L35.9959 27.2053L37.0334 27.2538L37.0212 27.5146L38.0586 27.5631L38.0709 27.3024L39.1083 27.351L39.0961 27.6117L40.1336 27.6603L40.1458 27.3995L41.1833 27.4481L41.1711 27.7088L42.2086 27.7574L42.2208 27.4967L43.2583 27.5452L43.246 27.806L44.2835 27.8545L44.2957 27.5938L45.3332 27.6424L45.321 27.9031L46.3585 27.9517L46.3707 27.6909L47.4082 27.7395L47.396 28.0002L48.4334 28.0488L48.4457 27.7881L49.4831 27.8366L49.4709 28.0974L50.5084 28.1459L50.5206 27.8852L51.5581 27.9337L51.5459 28.1945L52.5834 28.2431L52.5956 27.9823L53.6331 28.0309L53.6208 28.2916L54.6583 28.3402L54.6705 28.0794L55.708 28.128L55.6958 28.3888L56.7333 28.4373L56.7455 28.1766L57.783 28.2251L57.7708 28.4859L58.8082 28.5345L58.8204 28.2737L59.8579 28.3223L59.8457 28.583L60.8832 28.6316L60.8954 28.3708L61.9329 28.4194L61.9207 28.6802L62.9582 28.7287L62.9704 28.468L64.0079 28.5165L63.9956 28.7773L65.0331 28.8258L65.0453 28.5651L66.0828 28.6137L66.0706 28.8744L67.1081 28.923L67.1203 28.6622L68.1578 28.7108L68.1456 28.9715L69.183 29.0201L69.1953 28.7594L70.2327 28.8079L70.2205 29.0687L71.258 29.1172L71.2702 28.8565L72.3077 28.9051L72.2955 29.1658L73.333 29.2144L73.3452 28.9536L74.3827 29.0022L74.3704 29.2629L75.4079 29.3115L75.4201 29.0508L76.4576 29.0993L76.4454 29.3601L77.4829 29.4086L77.4951 29.1479L78.5326 29.1965L78.5204 29.4572L79.5578 29.5058L79.5701 29.245L80.6075 29.2936L80.5953 29.5543L81.6328 29.6029L81.645 29.3422L82.6825 29.3907L82.6703 29.6515L83.7078 29.7L83.72 29.4393L84.7575 29.4878L84.7452 29.7486L85.7827 29.7972L85.7949 29.5364L86.8324 29.585L86.8202 29.8457L87.8577 29.8943L87.8699 29.6335L88.9074 29.6821L88.8952 29.9429L89.4139 29.9671C89.566 29.9743 89.714 29.9957 89.8567 30.0301L89.9178 29.7763C90.2467 29.8555 90.5507 29.9967 90.8172 30.1866L90.6657 30.3992C90.9094 30.5728 91.1183 30.7917 91.2803 31.0432L91.4998 30.9018C91.677 31.1769 91.8038 31.4872 91.8675 31.8194L91.6112 31.8686C91.6388 32.0127 91.6533 32.1615 91.6533 32.3139V32.8244H91.9144V33.8456H91.6533V34.8668H91.9144V35.888H91.6533V36.9092H91.9144V37.9304H91.6533V38.9516H91.9144V39.9728H91.6533V40.9939H91.9144V42.0151H91.6533V43.0363H91.9144V44.0575H91.6533V45.0787H91.9144V46.0999H91.6533V47.1211H91.9144V48.1422H91.6533V49.1634H91.9144V50.1846H91.6533V51.2058H91.9144V52.227H91.6533V53.2482H91.9144V54.2694H91.6533V55.2905H91.9144V56.3117H91.6533V57.3329H91.9144V58.3541H91.6533V59.3753H91.9144V60.3965H91.6533V61.4176H91.9144V62.4388H91.6533V63.46H91.9144V64.4812H91.6533V65.5024H91.9144V66.5236H91.6533V67.5448H91.9144V68.5659H91.6533V69.5871H91.9144V70.6083H91.6533V71.6295H91.9144V72.6507H91.6533V73.6719H91.9144V74.6931H91.6533V75.7142H91.9144V76.7354H91.6533V77.246C91.6533 77.4082 91.637 77.5661 91.606 77.7183L91.8618 77.7705C91.7899 78.1231 91.647 78.4495 91.449 78.7342L91.2347 78.5852C91.0533 78.846 90.8205 79.0682 90.5515 79.2371L90.6903 79.4582C90.3966 79.6427 90.064 79.7702 89.7083 79.8254L89.6682 79.5675C89.5147 79.5914 89.3562 79.6003 89.1942 79.5927L88.6755 79.5685L88.6633 79.8292L87.6258 79.7806L87.638 79.5199L86.6005 79.4713L86.5883 79.7321L85.5508 79.6835L85.563 79.4228L84.5256 79.3742L84.5134 79.6349L83.4759 79.5864L83.4881 79.3256L82.4506 79.2771L82.4384 79.5378L81.4009 79.4892L81.4131 79.2285L80.3756 79.1799L80.3634 79.4407L79.326 79.3921L79.3382 79.1314L78.3007 79.0828L78.2885 79.3435L77.251 79.295L77.2632 79.0342L76.2257 78.9857L76.2135 79.2464L75.176 79.1978L75.1882 78.9371L74.1508 78.8885L74.1386 79.1493L73.1011 79.1007L73.1133 78.84L72.0758 78.7914L72.0636 79.0522L71.0261 79.0036L71.0383 78.7428L70.0008 78.6943L69.9886 78.955L68.9512 78.9065L68.9634 78.6457L67.9259 78.5971L67.9137 78.8579L66.8762 78.8093L66.8884 78.5486L65.8509 78.5L65.8387 78.7608L64.8012 78.7122L64.8134 78.4514L63.776 78.4029L63.7638 78.6636L62.7263 78.6151L62.7385 78.3543L61.701 78.3057L61.6888 78.5665L60.6513 78.5179L60.6635 78.2572L59.626 78.2086L59.6138 78.4694L58.5764 78.4208L58.5886 78.16L57.5511 78.1115L57.5389 78.3722L56.5014 78.3237L56.5136 78.0629L55.4761 78.0144L55.4639 78.2751L54.4264 78.2265L54.4386 77.9658L53.4012 77.9172L53.389 78.178L52.3515 78.1294L52.3637 77.8687L51.3262 77.8201L51.314 78.0808L50.2765 78.0323L50.2887 77.7715L49.2512 77.723L49.239 77.9837L48.2016 77.9351L48.2138 77.6744L47.1763 77.6258L47.1641 77.8866L46.1266 77.838L46.1388 77.5773L45.1013 77.5287L45.0891 77.7894L44.0516 77.7409L44.0638 77.4801L43.0264 77.4316L43.0142 77.6923L41.9767 77.6437L41.9889 77.383L40.9514 77.3344L40.9392 77.5952L39.9017 77.5466L39.9139 77.2859L38.8764 77.2373L38.8642 77.4981L37.8268 77.4495L37.839 77.1887L36.8015 77.1402L36.7893 77.4009L35.7518 77.3524L35.764 77.0916L34.7265 77.043L34.7143 77.3038L33.6768 77.2552L33.689 76.9945L32.6516 76.9459L32.6394 77.2067L31.6019 77.1581L31.6141 76.8973L30.5766 76.8488L30.5644 77.1095L29.5269 77.061L29.5391 76.8002L28.5016 76.7516L28.4894 77.0124L27.452 76.9638L27.4642 76.7031L26.9454 76.6788C26.7933 76.6717 26.6453 76.6502 26.5027 76.6159L26.4415 76.8696C26.1126 76.7904 25.8086 76.6492 25.5421 76.4594L25.6936 76.2468C25.4499 76.0732 25.241 75.8543 25.079 75.6027L24.8596 75.7441Z" stroke="#3B416B" stroke-opacity="0.6" stroke-width="0.522065" stroke-dasharray="1.04 1.04"/>
<path d="M89.0333 43.8512L89.0184 44.1516L89.0192 44.1516C94.2991 44.4005 98.2398 44.0483 99.7205 43.839C99.9416 43.8077 100.174 43.7501 100.378 43.6813C100.576 43.6145 100.772 43.5293 100.906 43.4332C100.913 43.4284 100.92 43.4231 100.928 43.4173C100.94 43.4502 100.947 43.4856 100.947 43.5226V59.042C100.947 59.2029 100.874 59.3596 100.686 59.5207C100.492 59.6869 100.191 59.8413 99.7865 59.9777C98.979 60.2498 97.844 60.4219 96.565 60.5248C94.0144 60.7298 90.979 60.6532 89.0448 60.6015L76.5204 59.9817L76.513 59.9813H76.5056C74.627 59.9813 73.7035 59.7973 73.2407 59.5514C73.0226 59.4356 72.9165 59.3107 72.8542 59.1873C72.7887 59.0577 72.7601 58.9089 72.7348 58.7128V45.0913C72.7348 44.9978 72.7338 44.9114 72.7329 44.831C72.73 44.5651 72.7278 44.3648 72.7631 44.1885C72.8016 43.9969 72.8802 43.8629 73.0861 43.7516C73.3198 43.6251 73.7251 43.5251 74.4341 43.4821C75.1357 43.4396 76.1004 43.4542 77.4276 43.5315C80.0907 43.6865 82.9884 43.8415 85.2202 43.9578C86.3361 44.0159 87.2856 44.0644 87.9562 44.0983L88.7387 44.1376L88.9467 44.148L89.0003 44.1507L89.0139 44.1513L89.0173 44.1515L89.0182 44.1516L89.0184 44.1516L89.0333 43.8512Z" fill="url(#paint27_linear_998_1876)" stroke="#9D93C4" stroke-width="0.601499"/>
<path d="M88.8847 45.9177L88.8847 45.9177C89.0293 45.9237 89.1741 45.9292 89.3189 45.9344L89.3254 45.7518C89.6143 45.7621 89.9035 45.771 90.1922 45.7786L90.1874 45.9613C90.4778 45.9689 90.7677 45.9751 91.056 45.9801L91.0591 45.7974C91.35 45.8025 91.6393 45.8062 91.9262 45.8088L91.9245 45.9916C92.217 45.9942 92.5068 45.9956 92.7931 45.996L92.7933 45.8133C93.0865 45.8136 93.3759 45.8128 93.6605 45.811L93.6616 45.9937C93.9568 45.9918 94.2468 45.9887 94.5303 45.9847L94.5277 45.802C94.8243 45.7979 95.1138 45.7926 95.3949 45.7864L95.3989 45.9691C95.6983 45.9626 95.9882 45.955 96.2669 45.9465L96.2614 45.7639C96.5642 45.7547 96.8538 45.7445 97.1279 45.7335L97.1352 45.9161C97.2845 45.9102 97.4293 45.904 97.5692 45.8976C97.6895 45.8921 97.808 45.8989 97.9233 45.917L97.9515 45.7364C98.214 45.7774 98.4618 45.8708 98.6821 46.0057L98.5866 46.1615C98.7902 46.2862 98.9676 46.4496 99.1065 46.641L99.2543 46.5337C99.4064 46.7433 99.517 46.9836 99.573 47.2435L99.3943 47.282C99.4187 47.395 99.4315 47.5122 99.4315 47.6325V48.1176H99.6142V49.0879H99.4315V50.0581H99.6142V51.0284H99.4315V51.9986H99.6142V52.9689H99.4315V53.9391H99.6142V54.9094H99.4315V55.8796H99.6142V56.8498H99.4315V57.335C99.4315 57.4335 99.3926 57.529 99.2999 57.6265L99.4324 57.7524C99.2648 57.9289 98.9874 58.0767 98.6263 58.2003L98.5672 58.0275C98.3171 58.1131 98.0218 58.1877 97.6895 58.2522L97.7243 58.4316C97.4393 58.4869 97.1303 58.5344 96.803 58.5751L96.7805 58.3938C96.4877 58.4302 96.1797 58.4611 95.8608 58.4873L95.8757 58.6694C95.5739 58.6942 95.2629 58.7147 94.9461 58.7315L94.9364 58.549C94.6316 58.5652 94.3214 58.5779 94.0089 58.5878L94.0147 58.7704C93.705 58.7802 93.3933 58.7872 93.0827 58.7919L93.0799 58.6092C92.7679 58.6138 92.4569 58.6162 92.1501 58.6168L92.1505 58.7995C91.8341 58.8001 91.5224 58.7988 91.2186 58.7962L91.2202 58.6135C90.8999 58.6107 90.5885 58.6065 90.2901 58.6015L90.287 58.7842C89.9583 58.7787 89.6453 58.7723 89.3537 58.7659L89.3578 58.5832C89.1974 58.5796 89.0435 58.5761 88.8969 58.5727L88.4399 58.5505L88.4311 58.733L87.5125 58.6883L87.5214 58.5058L86.6028 58.4612L86.5939 58.6437L85.6754 58.5991L85.6842 58.4166L84.7657 58.3719L84.7568 58.5544L83.8383 58.5098L83.8471 58.3273L82.9286 58.2827L82.9197 58.4652L82.0011 58.4205L82.01 58.238L81.0914 58.1934L81.0826 58.3759L80.164 58.3313L80.1729 58.1488L79.2543 58.1041L79.2454 58.2866L78.3269 58.242L78.3357 58.0595L77.8765 58.0372L77.8765 58.037H77.8676C77.6963 58.037 77.5337 58.0356 77.3793 58.033L77.3762 58.2157C77.0061 58.2095 76.6819 58.196 76.3978 58.1759L76.4107 57.9936C76.019 57.9658 75.7087 57.9256 75.4623 57.8756L75.4259 58.0546C74.9541 57.9588 74.6926 57.8255 74.5415 57.6661L74.6742 57.5404C74.5847 57.4459 74.5447 57.337 74.5175 57.1939C74.5141 57.1764 74.5113 57.1585 74.509 57.1402L74.3278 57.1632C74.3222 57.1198 74.3192 57.0761 74.3178 57.0323L74.5004 57.0263C74.4999 57.0092 74.4996 56.9918 74.4995 56.9741C74.4995 56.9716 74.4995 56.9691 74.4995 56.9666L74.4995 56.4776H74.3168L74.3168 55.4997H74.4995L74.4995 54.5217H74.3168L74.3168 53.5438H74.4995L74.4995 52.5659L74.3168 52.5659L74.3168 51.5879H74.4995L74.4995 50.61H74.3168L74.3168 49.6321H74.4995L74.4995 48.6541H74.3168L74.3168 47.6762H74.4995L74.4995 47.1872C74.4995 47.0181 74.4995 46.8645 74.5061 46.7219L74.3236 46.7134C74.3402 46.3545 74.3972 46.057 74.5928 45.8246L74.7326 45.9422C74.8602 45.7905 75.075 45.6576 75.4578 45.5618L75.4134 45.3845C75.6637 45.3219 75.9711 45.277 76.3486 45.2502L76.3615 45.4325C76.6326 45.4133 76.9422 45.4036 77.2957 45.4037L77.2957 45.2209C77.5825 45.221 77.8968 45.2275 78.2414 45.2406L78.2345 45.4232C78.386 45.4289 78.5434 45.4359 78.7071 45.4442C78.7071 45.4442 78.7071 45.4442 78.7071 45.4442L79.131 45.4655L79.1401 45.283C79.4208 45.2971 79.7038 45.3112 79.9878 45.3251L79.9788 45.5076C80.261 45.5215 80.5441 45.5353 80.8268 45.549L80.8356 45.3665C81.1191 45.3802 81.4022 45.3938 81.6836 45.4073L81.6749 45.5898L82.5231 45.63L82.5317 45.4475C82.8182 45.461 83.1014 45.4742 83.3798 45.4872L83.3713 45.6697L84.2195 45.709L84.2279 45.5265C84.5185 45.5398 84.8017 45.5528 85.0756 45.5653L85.0673 45.7478L85.9148 45.7863L85.923 45.6037C86.2234 45.6173 86.5076 45.63 86.7724 45.6418L86.7642 45.8244L87.6125 45.8621L87.6206 45.6795C87.9684 45.6949 88.2555 45.7075 88.4681 45.7167L88.4602 45.8993L88.8823 45.9176L88.8826 45.9176L88.8831 45.9177L88.8906 45.7351L88.8917 45.7351L88.8842 45.9177L88.8847 45.9177Z" stroke="#3B416B" stroke-opacity="0.6" stroke-width="0.365445" stroke-dasharray="0.91 0.91"/>
<g filter="url(#filter9_b_998_1876)">
<ellipse cx="3.42219" cy="3.99337" rx="3.42219" ry="3.99337" transform="matrix(-1 -8.65356e-08 -0.000164897 1 83.7596 48.0811)" fill="url(#paint28_linear_998_1876)"/>
<path d="M77.2046 52.0744C77.2043 54.1633 78.6467 55.7778 80.3362 55.7778C82.0256 55.7778 83.4686 54.1633 83.4689 52.0744C83.4693 49.9855 82.0269 48.3711 80.3374 48.3711C78.6479 48.3711 77.205 49.9855 77.2046 52.0744Z" stroke="url(#paint29_linear_998_1876)" stroke-width="0.580071"/>
</g>
<g filter="url(#filter10_b_998_1876)">
<path d="M49.8227 41.0087L44.7962 37.4222L15.7524 79.033C15.7524 79.033 17.4034 82.4227 23.2507 85.2624C24.4595 85.8494 26.2671 86.712 29.2379 86.3459C39.6319 85.0652 58.5629 64.6126 53.8757 47.1051C53.3241 43.6949 50.9439 41.6199 49.8227 41.0087Z" fill="url(#paint30_linear_998_1876)" fill-opacity="0.8"/>
</g>
<g filter="url(#filter11_b_998_1876)">
<path d="M49.8227 41.0315L44.7962 37.4451L15.7524 79.0558C15.7524 79.0558 17.4034 82.4456 23.2507 85.2852C24.4595 85.8722 26.2671 86.7348 29.2379 86.3688C39.6319 85.088 58.5629 64.6354 53.8757 47.1279C53.3241 43.7178 50.9439 41.6428 49.8227 41.0315Z" fill="url(#paint31_linear_998_1876)" fill-opacity="0.8"/>
</g>
<path d="M16.6975 51.2004C13.0949 57.3322 11.3896 63.7552 11.5264 69.171C11.6634 74.5945 13.6394 78.9374 17.315 81.0506C20.9905 83.1638 25.7832 82.7126 30.6148 80.1458C35.4395 77.5826 40.2372 72.9375 43.8398 66.8057C47.4424 60.674 49.1476 54.2509 49.0108 48.8352C48.8738 43.4117 46.8978 39.0688 43.2223 36.9556C39.5468 34.8424 34.754 35.2936 29.9225 37.8604C25.0978 40.4236 20.3001 45.0687 16.6975 51.2004Z" fill="url(#paint32_linear_998_1876)" stroke="url(#paint33_linear_998_1876)" stroke-width="0.835295"/>
<path d="M16.6371 51.1657C13.029 57.3068 11.3193 63.7424 11.4565 69.173C11.5939 74.61 13.5755 78.9809 17.2797 81.1106C20.9839 83.2403 25.804 82.78 30.6476 80.2068C35.4855 77.6366 40.2921 72.9815 43.9002 66.8405C47.5082 60.6994 49.2179 54.2638 49.0807 48.8332C48.9434 43.3962 46.9617 39.0253 43.2575 36.8956C39.5533 34.7659 34.7332 35.2261 29.8896 37.7994C25.0517 40.3695 20.2452 45.0246 16.6371 51.1657Z" fill="url(#paint34_linear_998_1876)" stroke="url(#paint35_linear_998_1876)" stroke-width="0.696081"/>
<g filter="url(#filter12_i_998_1876)">
<ellipse cx="12.0154" cy="20.1335" rx="12.0154" ry="20.1335" transform="matrix(-0.86752 -0.498776 -0.506234 0.861625 50.4545 47.6031)" fill="url(#paint36_linear_998_1876)"/>
</g>
<g opacity="0.9">
<mask id="mask3_998_1876" style="mask-type:alpha" maskUnits="userSpaceOnUse" x="24" y="59" width="12" height="12">
<path d="M24.9434 70.0447L35.4344 61.9245L31.0327 59.7377L25.5816 62.4041L24.9434 70.0447Z" fill="url(#paint37_linear_998_1876)"/>
</mask>
<g mask="url(#mask3_998_1876)">
<path opacity="0.3" d="M24.122 70.8959L35.4352 61.9187L31.0335 59.7319L22.6321 71.0306L24.122 70.8959Z" fill="url(#paint38_linear_998_1876)"/>
</g>
<path opacity="0.5" d="M31.1188 59.9461L39.2706 56.2158L29.9664 51.5934L31.1188 59.9461Z" fill="url(#paint39_radial_998_1876)"/>
<path fill-rule="evenodd" clip-rule="evenodd" d="M31.326 57.9093C31.1199 58.004 30.8801 57.8825 30.8375 57.6619L28.8549 47.3843C28.7917 47.0567 29.1864 46.8361 29.4343 47.0605L37.6336 54.4807C37.8177 54.6474 37.77 54.9475 37.5427 55.0519L31.326 57.9093Z" fill="white"/>
<path fill-rule="evenodd" clip-rule="evenodd" d="M30.2597 58.4991C30.2759 58.5833 30.26 58.6708 30.2151 58.7444L23.5971 69.5934C23.3918 69.9299 22.8714 69.7249 22.9575 69.3415L27.6441 48.4677C27.7267 48.0998 28.2571 48.105 28.3282 48.4743L30.2597 58.4991Z" fill="white"/>
<path fill-rule="evenodd" clip-rule="evenodd" d="M40.9218 55.1895L41.0211 55.4272L34.3504 59.5565C34.2575 59.614 34.2633 59.7498 34.3607 59.7982L37.5225 61.369C37.6158 61.4153 37.626 61.5435 37.5414 61.6049L21.9696 72.8967L21.5158 72.6712L35.0097 62.0917C35.0901 62.0286 35.0778 61.9043 34.9866 61.859L31.1025 59.9293C30.9979 59.8774 31.001 59.7281 31.1077 59.6793L40.9218 55.1895Z" fill="url(#paint40_linear_998_1876)"/>
</g>
<g filter="url(#filter13_f_998_1876)">
<ellipse cx="18.0113" cy="12.8935" rx="18.0113" ry="12.8935" transform="matrix(-0.383203 0.923664 -0.928726 -0.370766 59.9031 54.0471)" fill="#7784E8" fill-opacity="0.26"/>
</g>
<defs>
<filter id="filter0_f_998_1876" x="13.7316" y="73.6609" width="85.621" height="17.7661" filterUnits="userSpaceOnUse" color-interpolation-filters="sRGB">
<feFlood flood-opacity="0" result="BackgroundImageFix"/>
<feBlend mode="normal" in="SourceGraphic" in2="BackgroundImageFix" result="shape"/>
<feGaussianBlur stdDeviation="2.03025" result="effect1_foregroundBlur_998_1876"/>
</filter>
<filter id="filter1_f_998_1876" x="20.0373" y="76.2005" width="68.797" height="7.83227" filterUnits="userSpaceOnUse" color-interpolation-filters="sRGB">
<feFlood flood-opacity="0" result="BackgroundImageFix"/>
<feBlend mode="normal" in="SourceGraphic" in2="BackgroundImageFix" result="shape"/>
<feGaussianBlur stdDeviation="0.243377" result="effect1_foregroundBlur_998_1876"/>
</filter>
<filter id="filter2_b_998_1876" x="84.7144" y="61.5214" width="25.1785" height="22.5305" filterUnits="userSpaceOnUse" color-interpolation-filters="sRGB">
<feFlood flood-opacity="0" result="BackgroundImageFix"/>
<feGaussianBlur in="BackgroundImageFix" stdDeviation="1.08545"/>
<feComposite in2="SourceAlpha" operator="in" result="effect1_backgroundBlur_998_1876"/>
<feBlend mode="normal" in="SourceGraphic" in2="effect1_backgroundBlur_998_1876" result="shape"/>
</filter>
<filter id="filter3_b_998_1876" x="86.4201" y="63.2392" width="21.7555" height="19.1075" filterUnits="userSpaceOnUse" color-interpolation-filters="sRGB">
<feFlood flood-opacity="0" result="BackgroundImageFix"/>
<feGaussianBlur in="BackgroundImageFix" stdDeviation="0.229706"/>
<feComposite in2="SourceAlpha" operator="in" result="effect1_backgroundBlur_998_1876"/>
<feBlend mode="normal" in="SourceGraphic" in2="effect1_backgroundBlur_998_1876" result="shape"/>
</filter>
<filter id="filter4_i_998_1876" x="88.1166" y="63.4392" width="15.4094" height="14.3539" filterUnits="userSpaceOnUse" color-interpolation-filters="sRGB">
<feFlood flood-opacity="0" result="BackgroundImageFix"/>
<feBlend mode="normal" in="SourceGraphic" in2="BackgroundImageFix" result="shape"/>
<feColorMatrix in="SourceAlpha" type="matrix" values="0 0 0 0 0 0 0 0 0 0 0 0 0 0 0 0 0 0 127 0" result="hardAlpha"/>
<feOffset dy="0.348041"/>
<feGaussianBlur stdDeviation="0.696081"/>
<feComposite in2="hardAlpha" operator="arithmetic" k2="-1" k3="1"/>
<feColorMatrix type="matrix" values="0 0 0 0 0 0 0 0 0 0 0 0 0 0 0 0 0 0 0.1 0"/>
<feBlend mode="normal" in2="shape" result="effect1_innerShadow_998_1876"/>
</filter>
<filter id="filter5_f_998_1876" x="84.1823" y="59.6424" width="30.4913" height="30.7282" filterUnits="userSpaceOnUse" color-interpolation-filters="sRGB">
<feFlood flood-opacity="0" result="BackgroundImageFix"/>
<feBlend mode="normal" in="SourceGraphic" in2="BackgroundImageFix" result="shape"/>
<feGaussianBlur stdDeviation="4.17648" result="effect1_foregroundBlur_998_1876"/>
</filter>
<filter id="filter6_b_998_1876" x="64.749" y="8.44098" width="20.8843" height="36.3632" filterUnits="userSpaceOnUse" color-interpolation-filters="sRGB">
<feFlood flood-opacity="0" result="BackgroundImageFix"/>
<feGaussianBlur in="BackgroundImageFix" stdDeviation="0.382844"/>
<feComposite in2="SourceAlpha" operator="in" result="effect1_backgroundBlur_998_1876"/>
<feBlend mode="normal" in="SourceGraphic" in2="effect1_backgroundBlur_998_1876" result="shape"/>
</filter>
<filter id="filter7_i_998_1876" x="71.8896" y="14.2998" width="18.6938" height="24.7157" filterUnits="userSpaceOnUse" color-interpolation-filters="sRGB">
<feFlood flood-opacity="0" result="BackgroundImageFix"/>
<feBlend mode="normal" in="SourceGraphic" in2="BackgroundImageFix" result="shape"/>
<feColorMatrix in="SourceAlpha" type="matrix" values="0 0 0 0 0 0 0 0 0 0 0 0 0 0 0 0 0 0 127 0" result="hardAlpha"/>
<feOffset dy="0.580067"/>
<feGaussianBlur stdDeviation="1.16013"/>
<feComposite in2="hardAlpha" operator="arithmetic" k2="-1" k3="1"/>
<feColorMatrix type="matrix" values="0 0 0 0 0 0 0 0 0 0 0 0 0 0 0 0 0 0 0.1 0"/>
<feBlend mode="normal" in2="shape" result="effect1_innerShadow_998_1876"/>
</filter>
<filter id="filter8_f_998_1876" x="26.463" y="-9.42539" width="92.5278" height="71.8514" filterUnits="userSpaceOnUse" color-interpolation-filters="sRGB">
<feFlood flood-opacity="0" result="BackgroundImageFix"/>
<feBlend mode="normal" in="SourceGraphic" in2="BackgroundImageFix" result="shape"/>
<feGaussianBlur stdDeviation="11.6014" result="effect1_foregroundBlur_998_1876"/>
</filter>
<filter id="filter9_b_998_1876" x="71.6939" y="42.8604" width="17.2858" height="18.428" filterUnits="userSpaceOnUse" color-interpolation-filters="sRGB">
<feFlood flood-opacity="0" result="BackgroundImageFix"/>
<feGaussianBlur in="BackgroundImageFix" stdDeviation="2.61032"/>
<feComposite in2="SourceAlpha" operator="in" result="effect1_backgroundBlur_998_1876"/>
<feBlend mode="normal" in="SourceGraphic" in2="effect1_backgroundBlur_998_1876" result="shape"/>
</filter>
<filter id="filter10_b_998_1876" x="11.4107" y="33.0805" width="47.5396" height="57.6949" filterUnits="userSpaceOnUse" color-interpolation-filters="sRGB">
<feFlood flood-opacity="0" result="BackgroundImageFix"/>
<feGaussianBlur in="BackgroundImageFix" stdDeviation="2.17089"/>
<feComposite in2="SourceAlpha" operator="in" result="effect1_backgroundBlur_998_1876"/>
<feBlend mode="normal" in="SourceGraphic" in2="effect1_backgroundBlur_998_1876" result="shape"/>
</filter>
<filter id="filter11_b_998_1876" x="14.8336" y="36.5262" width="40.6937" height="50.849" filterUnits="userSpaceOnUse" color-interpolation-filters="sRGB">
<feFlood flood-opacity="0" result="BackgroundImageFix"/>
<feGaussianBlur in="BackgroundImageFix" stdDeviation="0.459412"/>
<feComposite in2="SourceAlpha" operator="in" result="effect1_backgroundBlur_998_1876"/>
<feBlend mode="normal" in="SourceGraphic" in2="effect1_backgroundBlur_998_1876" result="shape"/>
</filter>
<filter id="filter12_i_998_1876" x="15.26" y="40.5991" width="29.1571" height="37.4132" filterUnits="userSpaceOnUse" color-interpolation-filters="sRGB">
<feFlood flood-opacity="0" result="BackgroundImageFix"/>
<feBlend mode="normal" in="SourceGraphic" in2="BackgroundImageFix" result="shape"/>
<feColorMatrix in="SourceAlpha" type="matrix" values="0 0 0 0 0 0 0 0 0 0 0 0 0 0 0 0 0 0 127 0" result="hardAlpha"/>
<feOffset dy="0.696081"/>
<feGaussianBlur stdDeviation="1.39216"/>
<feComposite in2="hardAlpha" operator="arithmetic" k2="-1" k3="1"/>
<feColorMatrix type="matrix" values="0 0 0 0 0 0 0 0 0 0 0 0 0 0 0 0 0 0 0.1 0"/>
<feBlend mode="normal" in2="shape" result="effect1_innerShadow_998_1876"/>
</filter>
<filter id="filter13_f_998_1876" x="10.4972" y="31.8831" width="61.0588" height="68.0399" filterUnits="userSpaceOnUse" color-interpolation-filters="sRGB">
<feFlood flood-opacity="0" result="BackgroundImageFix"/>
<feBlend mode="normal" in="SourceGraphic" in2="BackgroundImageFix" result="shape"/>
<feGaussianBlur stdDeviation="8.35295" result="effect1_foregroundBlur_998_1876"/>
</filter>
<linearGradient id="paint0_linear_998_1876" x1="112.293" y1="69.1009" x2="89.6399" y2="91.5255" gradientUnits="userSpaceOnUse">
<stop offset="0.0768632" stop-color="#737373"/>
<stop offset="0.134224" stop-color="#FDFDFD"/>
<stop offset="0.210088" stop-color="#737373" stop-opacity="0.19"/>
<stop offset="0.304868" stop-color="#626161"/>
<stop offset="0.473832" stop-color="#9A9DA0"/>
<stop offset="0.601534" stop-color="#737373" stop-opacity="0.27"/>
<stop offset="1" stop-color="#4B4D48" stop-opacity="0"/>
</linearGradient>
<linearGradient id="paint1_linear_998_1876" x1="87.6118" y1="74.6218" x2="105.713" y2="69.7963" gradientUnits="userSpaceOnUse">
<stop stop-color="#1F2C7E"/>
<stop offset="1" stop-color="#3A66A5"/>
</linearGradient>
<linearGradient id="paint2_linear_998_1876" x1="104.902" y1="63.1441" x2="87.2455" y2="78.0861" gradientUnits="userSpaceOnUse">
<stop stop-color="#A39DC4"/>
<stop offset="1" stop-color="#271C53"/>
</linearGradient>
<linearGradient id="paint3_linear_998_1876" x1="104.902" y1="63.1441" x2="87.2455" y2="78.0861" gradientUnits="userSpaceOnUse">
<stop stop-color="#EDE8FE"/>
<stop offset="0.0001" stop-color="#BCAFE9"/>
<stop offset="1" stop-color="#352A5C"/>
</linearGradient>
<linearGradient id="paint4_linear_998_1876" x1="108.661" y1="60.6391" x2="87.2715" y2="78.1247" gradientUnits="userSpaceOnUse">
<stop stop-color="#76E1E6"/>
<stop offset="1" stop-color="#4951D5"/>
</linearGradient>
<linearGradient id="paint5_linear_998_1876" x1="104.902" y1="63.1441" x2="87.2455" y2="78.0861" gradientUnits="userSpaceOnUse">
<stop stop-color="#83D8F4"/>
<stop offset="1" stop-color="#4C5BD5"/>
</linearGradient>
<linearGradient id="paint6_linear_998_1876" x1="7.05429" y1="-2.58681" x2="6.19327" y2="17.2847" gradientUnits="userSpaceOnUse">
<stop stop-color="#58B3CF"/>
<stop offset="1" stop-color="#3F47C0"/>
</linearGradient>
<linearGradient id="paint7_linear_998_1876" x1="97.2771" y1="72.7167" x2="92.5307" y2="72.1621" gradientUnits="userSpaceOnUse">
<stop stop-color="white"/>
<stop offset="1" stop-color="white" stop-opacity="0"/>
</linearGradient>
<linearGradient id="paint8_linear_998_1876" x1="94.5052" y1="73.5466" x2="93.9404" y2="72.344" gradientUnits="userSpaceOnUse">
<stop stop-color="#2D205F"/>
<stop offset="1" stop-color="#0012F0" stop-opacity="0"/>
<stop offset="1" stop-color="#2B2056" stop-opacity="0"/>
</linearGradient>
<radialGradient id="paint9_radial_998_1876" cx="0" cy="0" r="1" gradientUnits="userSpaceOnUse" gradientTransform="translate(96.8811 70.887) rotate(-63.4106) scale(1.4908 2.41284)">
<stop stop-color="#AFA1F0"/>
<stop offset="1" stop-color="white" stop-opacity="0"/>
</radialGradient>
<linearGradient id="paint10_linear_998_1876" x1="100.151" y1="70.8728" x2="90.974" y2="71.3555" gradientUnits="userSpaceOnUse">
<stop stop-color="white" stop-opacity="0"/>
<stop offset="0.124501" stop-color="white" stop-opacity="0.71"/>
<stop offset="0.256651" stop-color="white"/>
<stop offset="0.578781" stop-color="white" stop-opacity="0.97"/>
<stop offset="0.79384" stop-color="#9EBAFE"/>
<stop offset="0.986914" stop-color="#7DF7E9" stop-opacity="0"/>
</linearGradient>
<linearGradient id="paint11_linear_998_1876" x1="80.5217" y1="8.21179" x2="63.2454" y2="38.6859" gradientUnits="userSpaceOnUse">
<stop offset="0.0768632" stop-color="#737373"/>
<stop offset="0.134224" stop-color="#FDFDFD"/>
<stop offset="0.210088" stop-color="#737373" stop-opacity="0.19"/>
<stop offset="0.304868" stop-color="#626161"/>
<stop offset="0.473832" stop-color="#9A9DA0"/>
<stop offset="0.601534" stop-color="#737373" stop-opacity="0.27"/>
<stop offset="1" stop-color="#4B4D48" stop-opacity="0"/>
</linearGradient>
<linearGradient id="paint12_linear_998_1876" x1="80.2149" y1="41.5173" x2="75.7761" y2="13.4368" gradientUnits="userSpaceOnUse">
<stop stop-color="#1F2C7E"/>
<stop offset="1" stop-color="#3A66A5"/>
</linearGradient>
<linearGradient id="paint13_linear_998_1876" x1="87.1744" y1="3.64384" x2="76.2892" y2="44.4" gradientUnits="userSpaceOnUse">
<stop stop-color="#76E1E6"/>
<stop offset="1" stop-color="#4951D5"/>
</linearGradient>
<linearGradient id="paint14_linear_998_1876" x1="85.9195" y1="10.4136" x2="76.2293" y2="44.3903" gradientUnits="userSpaceOnUse">
<stop stop-color="#83D8F4"/>
<stop offset="1" stop-color="#4C5BD5"/>
</linearGradient>
<linearGradient id="paint15_linear_998_1876" x1="11.5177" y1="-3.64044" x2="10.4728" y2="24.3384" gradientUnits="userSpaceOnUse">
<stop stop-color="#58B3CF"/>
<stop offset="1" stop-color="#3F47C0"/>
</linearGradient>
<linearGradient id="paint16_linear_998_1876" x1="84.5691" y1="29.4427" x2="77.1829" y2="30.5527" gradientUnits="userSpaceOnUse">
<stop stop-color="white"/>
<stop offset="1" stop-color="white" stop-opacity="0"/>
</linearGradient>
<linearGradient id="paint17_linear_998_1876" x1="80.9188" y1="33.0941" x2="79.3948" y2="31.906" gradientUnits="userSpaceOnUse">
<stop stop-color="#2D205F"/>
<stop offset="1" stop-color="#0012F0" stop-opacity="0"/>
<stop offset="1" stop-color="#2B2056" stop-opacity="0"/>
</linearGradient>
<radialGradient id="paint18_radial_998_1876" cx="0" cy="0" r="1" gradientUnits="userSpaceOnUse" gradientTransform="translate(83.2234 26.8484) rotate(-81.595) scale(2.72319 3.51782)">
<stop stop-color="#AFA1F0"/>
<stop offset="1" stop-color="white" stop-opacity="0"/>
</radialGradient>
<linearGradient id="paint19_linear_998_1876" x1="87.9317" y1="24.06" x2="73.6315" y2="28.6581" gradientUnits="userSpaceOnUse">
<stop stop-color="white" stop-opacity="0"/>
<stop offset="0.124501" stop-color="white" stop-opacity="0.71"/>
<stop offset="0.256651" stop-color="white"/>
<stop offset="0.578781" stop-color="white" stop-opacity="0.97"/>
<stop offset="0.79384" stop-color="#9EBAFE"/>
<stop offset="0.986914" stop-color="#7DF7E9" stop-opacity="0"/>
</linearGradient>
<linearGradient id="paint20_linear_998_1876" x1="58.0297" y1="23.0524" x2="58.0297" y2="83.1484" gradientUnits="userSpaceOnUse">
<stop stop-color="#A6A2C1"/>
<stop offset="1" stop-color="#2D1E6A"/>
</linearGradient>
<linearGradient id="paint21_linear_998_1876" x1="58.0297" y1="23.0524" x2="58.0297" y2="83.1484" gradientUnits="userSpaceOnUse">
<stop stop-color="#EDE8FE"/>
<stop offset="0.0001" stop-color="#BCAFE9"/>
<stop offset="1" stop-color="#352A5C"/>
</linearGradient>
<linearGradient id="paint22_linear_998_1876" x1="58.0297" y1="23.0461" x2="58.0297" y2="83.1422" gradientUnits="userSpaceOnUse">
<stop stop-color="#A6A2C1"/>
<stop offset="1" stop-color="#2D1E6A"/>
</linearGradient>
<linearGradient id="paint23_linear_998_1876" x1="58.0297" y1="23.0461" x2="58.0297" y2="83.1422" gradientUnits="userSpaceOnUse">
<stop stop-color="#EDE8FE"/>
<stop offset="0.0001" stop-color="#BCAFE9"/>
<stop offset="1" stop-color="#352A5C"/>
</linearGradient>
<linearGradient id="paint24_linear_998_1876" x1="32.697" y1="63.291" x2="32.697" y2="77.5343" gradientUnits="userSpaceOnUse">
<stop stop-color="#2E2751"/>
<stop offset="1" stop-color="#363B5E" stop-opacity="0"/>
</linearGradient>
<linearGradient id="paint25_linear_998_1876" x1="54.7682" y1="57.8617" x2="54.7682" y2="76.8179" gradientUnits="userSpaceOnUse">
<stop stop-color="#2E2751"/>
<stop offset="1" stop-color="#363B5E" stop-opacity="0"/>
</linearGradient>
<linearGradient id="paint26_linear_998_1876" x1="64.2475" y1="50.0405" x2="64.2475" y2="77.0166" gradientUnits="userSpaceOnUse">
<stop stop-color="#2E2751"/>
<stop offset="1" stop-color="#363B5E" stop-opacity="0"/>
</linearGradient>
<linearGradient id="paint27_linear_998_1876" x1="100.615" y1="51.4241" x2="73.2757" y2="55.2204" gradientUnits="userSpaceOnUse">
<stop stop-color="#918AE2"/>
<stop offset="1" stop-color="#373083"/>
</linearGradient>
<linearGradient id="paint28_linear_998_1876" x1="3.42219" y1="0" x2="3.42219" y2="7.98673" gradientUnits="userSpaceOnUse">
<stop stop-color="white"/>
<stop offset="1" stop-color="white" stop-opacity="0"/>
</linearGradient>
<linearGradient id="paint29_linear_998_1876" x1="80.3375" y1="48.0811" x2="80.3375" y2="56.0678" gradientUnits="userSpaceOnUse">
<stop stop-color="#372A69"/>
<stop offset="1" stop-color="#9C8AE3"/>
</linearGradient>
<linearGradient id="paint30_linear_998_1876" x1="63.7352" y1="43.6216" x2="32.9416" y2="108.298" gradientUnits="userSpaceOnUse">
<stop offset="0.0768632" stop-color="#737373"/>
<stop offset="0.134224" stop-color="#FDFDFD"/>
<stop offset="0.210088" stop-color="#737373" stop-opacity="0.19"/>
<stop offset="0.304868" stop-color="#626161"/>
<stop offset="0.473832" stop-color="#9A9DA0"/>
<stop offset="0.601534" stop-color="#737373" stop-opacity="0.27"/>
<stop offset="1" stop-color="#4B4D48" stop-opacity="0"/>
</linearGradient>
<linearGradient id="paint31_linear_998_1876" x1="15.6825" y1="74.0695" x2="50.2023" y2="49.9157" gradientUnits="userSpaceOnUse">
<stop stop-color="#1F2C7E"/>
<stop offset="1" stop-color="#3A66A5"/>
</linearGradient>
<linearGradient id="paint32_linear_998_1876" x1="43.4337" y1="36.5957" x2="17.5276" y2="81.6542" gradientUnits="userSpaceOnUse">
<stop stop-color="#A39DC4"/>
<stop offset="1" stop-color="#271C53"/>
</linearGradient>
<linearGradient id="paint33_linear_998_1876" x1="43.4337" y1="36.5957" x2="17.5276" y2="81.6542" gradientUnits="userSpaceOnUse">
<stop stop-color="#EDE8FE"/>
<stop offset="0.0001" stop-color="#BCAFE9"/>
<stop offset="1" stop-color="#352A5C"/>
</linearGradient>
<linearGradient id="paint34_linear_998_1876" x1="49.4595" y1="28.4293" x2="17.6153" y2="81.7163" gradientUnits="userSpaceOnUse">
<stop stop-color="#76E1E6"/>
<stop offset="1" stop-color="#4951D5"/>
</linearGradient>
<linearGradient id="paint35_linear_998_1876" x1="43.4337" y1="36.5957" x2="17.5276" y2="81.6542" gradientUnits="userSpaceOnUse">
<stop stop-color="#83D8F4"/>
<stop offset="1" stop-color="#4C5BD5"/>
</linearGradient>
<linearGradient id="paint36_linear_998_1876" x1="15.9295" y1="-5.8295" x2="13.9931" y2="38.9523" gradientUnits="userSpaceOnUse">
<stop stop-color="#58B3CF"/>
<stop offset="1" stop-color="#3F47C0"/>
</linearGradient>
<linearGradient id="paint37_linear_998_1876" x1="34.6994" y1="62.6989" x2="24.2201" y2="65.2088" gradientUnits="userSpaceOnUse">
<stop stop-color="white"/>
<stop offset="1" stop-color="white" stop-opacity="0"/>
</linearGradient>
<linearGradient id="paint38_linear_998_1876" x1="29.4606" y1="66.5488" x2="27.3336" y2="64.4208" gradientUnits="userSpaceOnUse">
<stop stop-color="#2D205F"/>
<stop offset="1" stop-color="#0012F0" stop-opacity="0"/>
<stop offset="1" stop-color="#2B2056" stop-opacity="0"/>
</linearGradient>
<radialGradient id="paint39_radial_998_1876" cx="0" cy="0" r="1" gradientUnits="userSpaceOnUse" gradientTransform="translate(32.4359 59.1178) rotate(-83.5101) scale(3.35572 5.4552)">
<stop stop-color="#AFA1F0"/>
<stop offset="1" stop-color="white" stop-opacity="0"/>
</radialGradient>
<linearGradient id="paint40_linear_998_1876" x1="39.3573" y1="56.5995" x2="20.3244" y2="64.727" gradientUnits="userSpaceOnUse">
<stop stop-color="white" stop-opacity="0"/>
<stop offset="0.124501" stop-color="white" stop-opacity="0.71"/>
<stop offset="0.256651" stop-color="white"/>
<stop offset="0.578781" stop-color="white" stop-opacity="0.97"/>
<stop offset="0.79384" stop-color="#9EBAFE"/>
<stop offset="0.986914" stop-color="#7DF7E9" stop-opacity="0"/>
</linearGradient>
</defs>
</svg>
