<svg width="118" height="100" viewBox="0 0 118 100" fill="none" xmlns="http://www.w3.org/2000/svg">
<g filter="url(#filter0_f_1533_4100)">
<path d="M93.5739 82.0881C93.3574 86.4071 67.2676 80.9044 46.599 83.8145C25.9304 86.7245 26.6078 86.4049 26.682 84.9256C26.7561 83.4463 37.8367 74.9394 58.2653 75.9302C78.694 76.9209 93.7904 77.7691 93.5739 82.0881Z" fill="#2A2D49" fill-opacity="0.4"/>
</g>
<path d="M28.1721 24.2007C28.1721 22.284 29.7742 20.7564 31.6888 20.8477L96.6695 23.9456C98.4593 24.0309 99.8665 25.5068 99.8665 27.2986V75.9409C99.8665 77.8266 98.3137 79.3423 96.4286 79.2967L31.4478 77.7257C29.626 77.6816 28.1721 76.1921 28.1721 74.3698V24.2007Z" fill="url(#paint0_linear_1533_4100)" stroke="url(#paint1_linear_1533_4100)" stroke-width="0.965269"/>
<g filter="url(#filter1_b_1533_4100)">
<path d="M106.893 65.9368L105.346 63.6923L86.8857 76.7042C86.8857 76.7042 87.0562 78.3633 89.0598 80.419C89.4739 80.844 90.0956 81.4731 91.3898 81.7636C95.9177 82.78 106.932 77.0787 107.652 69.0824C107.943 67.5787 107.267 66.3588 106.893 65.9368Z" fill="url(#paint2_linear_1533_4100)" fill-opacity="0.8"/>
</g>
<g filter="url(#filter2_b_1533_4100)">
<path d="M106.888 65.9446L105.341 63.7001L86.8804 76.712C86.8804 76.712 87.0509 78.3712 89.0544 80.4268C89.4686 80.8518 90.0903 81.4809 91.3844 81.7714C95.9124 82.7878 106.926 77.0865 107.646 69.0902C107.937 67.5865 107.262 66.3666 106.888 65.9446Z" fill="url(#paint3_linear_1533_4100)" fill-opacity="0.6"/>
</g>
<path d="M91.576 65.3004C89.1466 67.3117 87.4637 69.7238 86.6986 71.987C85.9319 74.2548 86.0969 76.3301 87.2838 77.7327C88.4707 79.1352 90.5071 79.6613 92.899 79.3141C95.2861 78.9675 97.983 77.7536 100.412 75.7423C102.842 73.731 104.525 71.3189 105.29 69.0557C106.056 66.7879 105.891 64.7126 104.704 63.31C103.518 61.9075 101.481 61.3814 99.0893 61.7286C96.7023 62.0752 94.0054 63.2891 91.576 65.3004Z" fill="url(#paint4_linear_1533_4100)" stroke="url(#paint5_linear_1533_4100)" stroke-width="0.514805"/>
<path d="M91.8387 65.6108C89.458 67.5818 87.8247 69.9335 87.0873 72.1146C86.346 74.3074 86.5367 76.2174 87.5985 77.4722C88.6604 78.7269 90.5276 79.2489 92.8405 78.9131C95.1409 78.5791 97.769 77.4028 100.15 75.4319C102.53 73.4609 104.164 71.1092 104.901 68.9281C105.642 66.7353 105.452 64.8253 104.39 63.5705C103.328 62.3157 101.461 61.7938 99.1478 62.1296C96.8474 62.4636 94.2193 63.6398 91.8387 65.6108Z" fill="url(#paint6_linear_1533_4100)" stroke="url(#paint7_linear_1533_4100)" stroke-width="1.33"/>
<g filter="url(#filter3_i_1533_4100)">
<ellipse cx="5.32098" cy="8.93416" rx="5.32098" ry="8.93416" transform="matrix(-0.644507 -0.761614 -0.772042 0.639179 106.149 68.7852)" fill="url(#paint8_linear_1533_4100)"/>
</g>
<g opacity="0.9">
<mask id="mask0_1533_4100" style="mask-type:alpha" maskUnits="userSpaceOnUse" x="92" y="70" width="6" height="5">
<path d="M92.0894 74.3232L97.7016 72.5036L96.201 70.9358L93.522 71.234L92.0894 74.3232Z" fill="url(#paint9_linear_1533_4100)"/>
</mask>
<g mask="url(#mask0_1533_4100)">
<path opacity="0.3" d="M91.6169 74.5621L97.7026 72.508L96.202 70.9401L90.9753 74.396L91.6169 74.5621Z" fill="url(#paint10_linear_1533_4100)"/>
</g>
<path opacity="0.5" d="M96.2057 71.0361L100.173 70.697L97.001 67.3828L96.2057 71.0361Z" fill="url(#paint11_radial_1533_4100)"/>
<path fill-rule="evenodd" clip-rule="evenodd" d="M96.6815 70.2197C96.5419 70.2318 96.4285 70.1114 96.4507 69.9747L97.1524 65.6497C97.1853 65.4468 97.4608 65.4012 97.5568 65.5827L99.7144 69.6587C99.7857 69.7935 99.6946 69.9573 99.5408 69.9707L96.6815 70.2197Z" fill="white"/>
<path fill-rule="evenodd" clip-rule="evenodd" d="M96.0722 70.2911C96.0637 70.3433 96.036 70.3905 95.9944 70.4238L91.8851 73.7138C91.6948 73.8661 91.4365 73.6391 91.5677 73.4349L96.3527 65.9878C96.4786 65.7919 96.7849 65.9053 96.7478 66.1341L96.0722 70.2911Z" fill="white"/>
<path fill-rule="evenodd" clip-rule="evenodd" d="M101.018 70.5187L101.023 70.6326L97.6547 71.3498C97.5887 71.3638 97.5634 71.4437 97.6096 71.4919L98.6307 72.5589C98.675 72.6051 98.6538 72.6814 98.5918 72.6994L90.4152 75.0723L90.2605 74.9107L97.4642 72.5257C97.5242 72.5058 97.5433 72.4312 97.5001 72.386L96.2364 71.0658C96.1869 71.014 96.2202 70.9282 96.2923 70.9221L101.018 70.5187Z" fill="url(#paint12_linear_1533_4100)"/>
</g>
<g filter="url(#filter4_f_1533_4100)">
<ellipse cx="7.99218" cy="5.70989" rx="7.99218" ry="5.70989" transform="matrix(-0.67785 0.738829 -0.746246 -0.661735 109.107 72.8809)" fill="#7784E8" fill-opacity="0.26"/>
</g>
<path d="M80.7276 9.38783L84.8696 10.142L77.6959 43.8301C77.6959 43.8301 75.2317 44.6231 71.0783 43.1188C70.2198 42.8079 68.9434 42.3357 67.7359 40.7203C63.511 35.0685 64.8586 16.2486 75.7887 10.2876C77.7486 8.95092 79.898 9.1308 80.7276 9.38783Z" fill="url(#paint13_linear_1533_4100)"/>
<g filter="url(#filter5_b_1533_4100)">
<path d="M80.7267 9.38783L84.8686 10.142L77.6949 43.8301C77.6949 43.8301 75.2307 44.6231 71.0774 43.1188C70.2188 42.8079 68.9424 42.3357 67.7349 40.7203C63.5101 35.0685 64.8576 16.2486 75.7877 10.2876C77.7477 8.95092 79.897 9.1308 80.7267 9.38783Z" fill="url(#paint14_linear_1533_4100)" fill-opacity="0.6"/>
</g>
<path d="M90.7769 30.1691C89.4197 34.7487 87.046 38.5352 84.3398 40.9627C81.624 43.3989 78.6665 44.3969 76.0688 43.6561C73.4711 42.9152 71.52 40.5173 70.559 37.0325C69.6014 33.56 69.6671 29.1153 71.0243 24.5357C72.3815 19.9561 74.7552 16.1697 77.4614 13.7421C80.1772 11.3059 83.1348 10.3079 85.7324 11.0488C88.3301 11.7896 90.2812 14.1876 91.2422 17.6724C92.1999 21.1448 92.1341 25.5896 90.7769 30.1691Z" fill="url(#paint15_linear_1533_4100)" stroke="url(#paint16_linear_1533_4100)" stroke-width="1.33"/>
<g filter="url(#filter6_i_1533_4100)">
<ellipse cx="8.68772" cy="12.5731" rx="8.68772" ry="12.5731" transform="matrix(0.941668 0.348273 -0.359274 0.928912 77.573 11.6621)" fill="url(#paint17_linear_1533_4100)"/>
</g>
<g opacity="0.9">
<mask id="mask1_1533_4100" style="mask-type:alpha" maskUnits="userSpaceOnUse" x="77" y="27" width="9" height="10">
<path d="M77.7646 36.3945L85.0916 28.7433L82.2624 27.5064L78.5232 30.2474L77.7646 36.3945Z" fill="url(#paint18_linear_1533_4100)"/>
</mask>
<g mask="url(#mask1_1533_4100)">
<path opacity="0.3" d="M77.1811 37.1588L85.0921 28.7326L82.2628 27.4957L76.1851 37.4356L77.1811 37.1588Z" fill="url(#paint19_linear_1533_4100)"/>
</g>
<path opacity="0.5" d="M82.3126 27.6556L87.893 23.761L81.9126 21.1465L82.3126 27.6556Z" fill="url(#paint20_radial_1533_4100)"/>
<path fill-rule="evenodd" clip-rule="evenodd" d="M82.7581 25.8667C82.5346 26.0232 82.225 25.8853 82.1956 25.6161L81.3783 18.13C81.342 17.7977 81.7457 17.6013 81.9863 17.8344L86.8141 22.5125C86.9743 22.6677 86.9525 22.93 86.7687 23.0587L82.7581 25.8667Z" fill="white"/>
<path fill-rule="evenodd" clip-rule="evenodd" d="M81.8017 26.6144C81.8093 26.6839 81.7961 26.7541 81.7637 26.8164L77.4023 35.2111C77.2082 35.5847 76.6381 35.3787 76.7342 34.9698L80.3398 19.6388C80.4317 19.248 81.0024 19.2798 81.0458 19.6781L81.8017 26.6144Z" fill="white"/>
<path fill-rule="evenodd" clip-rule="evenodd" d="M89.0335 22.7606L89.089 22.9382L84.4972 26.9622C84.4185 27.0311 84.4378 27.1574 84.5334 27.1992L86.4439 28.0345C86.536 28.0747 86.5582 28.1945 86.4867 28.2654L75.664 38.9976L75.3722 38.8701L84.784 28.9411C84.852 28.8694 84.8285 28.7529 84.7381 28.7133L82.3661 27.6764C82.2641 27.6318 82.2508 27.4934 82.3423 27.4295L89.0335 22.7606Z" fill="url(#paint21_linear_1533_4100)"/>
</g>
<path d="M21.8581 27.0816C21.8581 25.1643 23.4614 23.6364 25.3765 23.7287L91.006 26.8906C92.795 26.9768 94.2013 28.4524 94.2013 30.2435V79.1199C94.2013 81.0373 92.598 82.5651 90.6829 82.4728L25.0534 79.3109C23.2643 79.2247 21.8581 77.7491 21.8581 75.958V27.0816Z" fill="url(#paint22_linear_1533_4100)" stroke="url(#paint23_linear_1533_4100)" stroke-width="0.965269"/>
<mask id="mask2_1533_4100" style="mask-type:alpha" maskUnits="userSpaceOnUse" x="21" y="23" width="74" height="60">
<path d="M21.8581 27.0758C21.8581 25.1584 23.4614 23.6306 25.3765 23.7228L91.006 26.8848C92.795 26.971 94.2013 28.4466 94.2013 30.2377V79.1141C94.2013 81.0314 92.598 82.5592 90.6829 82.467L25.0534 79.305C23.2643 79.2188 21.8581 77.7432 21.8581 75.9521V27.0758Z" fill="url(#paint24_linear_1533_4100)" stroke="url(#paint25_linear_1533_4100)" stroke-width="0.965269"/>
</mask>
<g mask="url(#mask2_1533_4100)">
<g filter="url(#filter7_f_1533_4100)">
<ellipse cx="32.0806" cy="22.3537" rx="23.0611" ry="12.7228" fill="#C0B5F5"/>
</g>
</g>
<path d="M30.3586 64.3232C30.3586 63.4623 31.1137 62.7965 31.9678 62.9044L33.7845 63.1338C34.4993 63.2241 35.0354 63.8321 35.0354 64.5526V77.2007C35.0354 77.9904 34.3951 78.6307 33.6053 78.6307H31.7887C30.9989 78.6307 30.3586 77.9904 30.3586 77.2007V64.3232Z" fill="url(#paint26_linear_1533_4100)" fill-opacity="0.3"/>
<path d="M51.8828 59.8281C51.8828 58.3723 53.1671 57.2511 54.6095 57.4476L55.5749 57.5791C56.7655 57.7413 57.6531 58.758 57.6531 59.9596V75.8741C57.6531 77.201 56.5775 78.2766 55.2507 78.2766H54.2852C52.9584 78.2766 51.8828 77.201 51.8828 75.8742V59.8281Z" fill="url(#paint27_linear_1533_4100)" fill-opacity="0.3"/>
<path d="M60.9507 51.5935C60.9507 50.1661 62.1879 49.0535 63.6073 49.2045L65.397 49.3949C66.6186 49.5249 67.5453 50.5555 67.5453 51.7839V76.6893C67.5453 78.0161 66.4697 79.0917 65.1429 79.0917H63.3531C62.0263 79.0917 60.9507 78.0161 60.9507 76.6893V51.5935Z" fill="url(#paint28_linear_1533_4100)" fill-opacity="0.3"/>
<path d="M24.9564 75.4926C24.7379 75.1535 24.5816 74.7711 24.503 74.3616L24.819 74.3009C24.7849 74.1233 24.7671 73.9399 24.7671 73.7521V73.1092H24.4453V71.8234H24.7671V70.5377H24.4453V69.2519H24.7671V67.9661H24.4453V66.6803H24.7671V65.3946H24.4453V64.1088H24.7671V62.823H24.4453V61.5372H24.7671V60.2515H24.4453V58.9657H24.7671V57.6799H24.4453V56.3941H24.7671V55.1084H24.4453V53.8226H24.7671V52.5368H24.4453V51.2511H24.7671V49.9653H24.4453V48.6795H24.7671V47.3937H24.4453V46.108H24.7671V44.8222H24.4453V43.5364H24.7671V42.2506H24.4453V40.9649H24.7671V39.6791H24.4453V38.3933H24.7671V37.1075H24.4453V35.8218H24.7671V34.536H24.4453V33.2502H24.7671V31.9644H24.4453V30.6787H24.7671V30.0358C24.7671 29.8359 24.7872 29.6412 24.8254 29.4536L24.5102 29.3893C24.5987 28.9546 24.7749 28.5524 25.019 28.2014L25.2831 28.3851C25.5067 28.0636 25.7937 27.7897 26.1252 27.5814L25.9541 27.309C26.3161 27.0816 26.7262 26.9244 27.1646 26.8563L27.214 27.1742C27.4032 27.1448 27.5986 27.1338 27.7983 27.1431L28.4341 27.1729L28.4491 26.8515L29.7207 26.911L29.7056 27.2324L30.9772 27.2919L30.9922 26.9705L32.2638 27.0301L32.2487 27.3515L33.5203 27.411L33.5353 27.0896L34.8069 27.1491L34.7918 27.4705L36.0634 27.53L36.0784 27.2086L37.35 27.2681L37.3349 27.5895L38.6065 27.6491L38.6215 27.3277L39.8931 27.3872L39.878 27.7086L41.1496 27.7681L41.1646 27.4467L42.4362 27.5062L42.4212 27.8276L43.6927 27.8872L43.7077 27.5658L44.9793 27.6253L44.9643 27.9467L46.2358 28.0062L46.2509 27.6848L47.5224 27.7443L47.5074 28.0657L48.7789 28.1253L48.794 27.8038L50.0655 27.8634L50.0505 28.1848L51.322 28.2443L51.3371 27.9229L52.6086 27.9824L52.5936 28.3038L53.8651 28.3633L53.8802 28.0419L55.1517 28.1015L55.1367 28.4229L56.4082 28.4824L56.4233 28.161L57.6948 28.2205L57.6798 28.5419L58.9513 28.6014L58.9664 28.28L60.2379 28.3396L60.2229 28.661L61.4944 28.7205L61.5095 28.3991L62.781 28.4586L62.766 28.78L64.0376 28.8395L64.0526 28.5181L65.3242 28.5776L65.3091 28.899L66.5807 28.9586L66.5957 28.6372L67.8673 28.6967L67.8522 29.0181L69.1238 29.0776L69.1388 28.7562L70.4104 28.8157L70.3953 29.1371L71.6669 29.1967L71.6819 28.8753L72.9535 28.9348L72.9384 29.2562L74.21 29.3157L74.225 28.9943L75.4966 29.0538L75.4815 29.3752L76.7531 29.4347L76.7681 29.1133L78.0397 29.1729L78.0246 29.4943L79.2962 29.5538L79.3112 29.2324L80.5828 29.2919L80.5677 29.6133L81.8393 29.6728L81.8543 29.3514L83.1259 29.411L83.1109 29.7324L84.3824 29.7919L84.3974 29.4705L85.669 29.53L85.654 29.8514L86.9255 29.9109L86.9406 29.5895L88.2121 29.649L88.1971 29.9705L88.8328 30.0002C89.0204 30.009 89.2028 30.0354 89.3786 30.0778L89.454 29.765C89.8594 29.8626 90.2341 30.0366 90.5626 30.2707L90.3759 30.5327C90.6763 30.7467 90.9337 31.0166 91.1335 31.3266L91.4039 31.1524C91.6224 31.4914 91.7787 31.8739 91.8573 32.2834L91.5413 32.3441C91.5754 32.5217 91.5932 32.7051 91.5932 32.8929V33.5358H91.915V34.8215H91.5932V36.1073H91.915V37.3931H91.5932V38.6789H91.915V39.9646H91.5932V41.2504H91.915V42.5362H91.5932V43.822H91.915V45.1077H91.5932V46.3935H91.915V47.6793H91.5932V48.9651H91.915V50.2508H91.5932V51.5366H91.915V52.8224H91.5932V54.1082H91.915V55.3939H91.5932V56.6797H91.915V57.9655H91.5932V59.2512H91.915V60.537H91.5932V61.8228H91.915V63.1086H91.5932V64.3943H91.915V65.6801H91.5932V66.9659H91.915V68.2517H91.5932V69.5374H91.915V70.8232H91.5932V72.109H91.915V73.3948H91.5932V74.6805H91.915V75.9663H91.5932V76.6092C91.5932 76.8091 91.5731 77.0038 91.5349 77.1914L91.8501 77.2556C91.7616 77.6904 91.5854 78.0926 91.3413 78.4436L91.0772 78.2599C90.8536 78.5814 90.5667 78.8552 90.2351 79.0635L90.4062 79.336C90.0442 79.5634 89.6342 79.7205 89.1957 79.7887L89.1463 79.4708C88.9571 79.5002 88.7617 79.5112 88.562 79.5019L87.9263 79.4721L87.9112 79.7935L86.6397 79.734L86.6547 79.4126L85.3831 79.353L85.3681 79.6744L84.0965 79.6149L84.1116 79.2935L82.84 79.234L82.825 79.5554L81.5534 79.4959L81.5685 79.1745L80.2969 79.115L80.2819 79.4364L79.0103 79.3768L79.0254 79.0554L77.7538 78.9959L77.7388 79.3173L76.4672 79.2578L76.4823 78.9364L75.2107 78.8769L75.1957 79.1983L73.9241 79.1387L73.9392 78.8173L72.6676 78.7578L72.6526 79.0792L71.381 79.0197L71.3961 78.6983L70.1245 78.6388L70.1095 78.9602L68.8379 78.9007L68.853 78.5792L67.5814 78.5197L67.5664 78.8411L66.2948 78.7816L66.3098 78.4602L65.0383 78.4007L65.0233 78.7221L63.7517 78.6626L63.7667 78.3412L62.4952 78.2816L62.4801 78.603L61.2086 78.5435L61.2236 78.2221L59.9521 78.1626L59.937 78.484L58.6655 78.4245L58.6805 78.1031L57.409 78.0435L57.3939 78.3649L56.1224 78.3054L56.1374 77.984L54.8659 77.9245L54.8508 78.2459L53.5793 78.1864L53.5943 77.865L52.3228 77.8055L52.3077 78.1269L51.0362 78.0673L51.0512 77.7459L49.7797 77.6864L49.7646 78.0078L48.4931 77.9483L48.5081 77.6269L47.2366 77.5674L47.2215 77.8888L45.95 77.8292L45.965 77.5078L44.6934 77.4483L44.6784 77.7697L43.4068 77.7102L43.4219 77.3888L42.1503 77.3293L42.1353 77.6507L40.8637 77.5912L40.8788 77.2697L39.6072 77.2102L39.5922 77.5316L38.3206 77.4721L38.3357 77.1507L37.0641 77.0912L37.0491 77.4126L35.7775 77.3531L35.7926 77.0317L34.521 76.9721L34.506 77.2935L33.2344 77.234L33.2495 76.9126L31.9779 76.8531L31.9629 77.1745L30.6913 77.115L30.7064 76.7936L29.4348 76.734L29.4198 77.0554L28.1482 76.9959L28.1633 76.6745L27.5275 76.6448C27.3399 76.636 27.1575 76.6096 26.9817 76.5672L26.9064 76.88C26.501 76.7824 26.1262 76.6083 25.7977 76.3743L25.9844 76.1122C25.6841 75.8982 25.4266 75.6284 25.2269 75.3184L24.9564 75.4926Z" stroke="#3B416B" stroke-opacity="0.3" stroke-width="0.643513" stroke-dasharray="1.29 1.29"/>
<mask id="path-32-inside-1_1533_4100" fill="white">
<path d="M100.543 42.9345C100.462 42.926 100.363 42.9213 100.242 42.9213H100.632C100.584 42.9213 100.555 42.9259 100.543 42.9345C100.834 42.9653 100.882 43.0464 100.789 43.1405C100.994 43.2745 101.248 43.459 101.248 43.6627V59.0422C101.248 61.2122 92.8962 61.0055 89.0334 60.9022L76.5057 60.2823C72.7473 60.2823 72.5385 59.5588 72.4341 58.7321V45.5558V45.5557C72.4341 44.0677 72.4341 42.8064 74.408 42.9213C79.7323 43.2313 89.0334 43.8514 89.0334 43.8514C94.2951 44.0994 98.217 43.748 99.6785 43.5413C100.127 43.4779 100.641 43.2923 100.789 43.1405C100.631 43.0367 100.502 42.9632 100.543 42.9345Z"/>
</mask>
<path d="M100.543 42.9345C100.462 42.926 100.363 42.9213 100.242 42.9213H100.632C100.584 42.9213 100.555 42.9259 100.543 42.9345C100.834 42.9653 100.882 43.0464 100.789 43.1405C100.994 43.2745 101.248 43.459 101.248 43.6627V59.0422C101.248 61.2122 92.8962 61.0055 89.0334 60.9022L76.5057 60.2823C72.7473 60.2823 72.5385 59.5588 72.4341 58.7321V45.5558V45.5557C72.4341 44.0677 72.4341 42.8064 74.408 42.9213C79.7323 43.2313 89.0334 43.8514 89.0334 43.8514C94.2951 44.0994 98.217 43.748 99.6785 43.5413C100.127 43.4779 100.641 43.2923 100.789 43.1405C100.631 43.0367 100.502 42.9632 100.543 42.9345Z" fill="url(#paint29_linear_1533_4100)"/>
<path d="M99.6785 43.5413L99.5747 42.8072V42.8072L99.6785 43.5413ZM89.0334 43.8514L88.9841 44.5911L88.9913 44.5916L88.9985 44.592L89.0334 43.8514ZM74.408 42.9213L74.4511 42.1812L74.408 42.9213ZM72.4341 58.7321H71.6927V58.7787L71.6985 58.825L72.4341 58.7321ZM76.5057 60.2823L76.5423 59.5418L76.524 59.5408H76.5057V60.2823ZM89.0334 60.9022L88.9968 61.6427L89.0052 61.6431L89.0136 61.6434L89.0334 60.9022ZM100.242 43.6627C100.345 43.6627 100.417 43.6668 100.465 43.6718L100.621 42.1973C100.507 42.1852 100.38 42.1799 100.242 42.1799V43.6627ZM100.465 43.6718C100.51 43.6767 100.517 43.6808 100.501 43.6757C100.496 43.6744 100.397 43.6465 100.292 43.5447C100.234 43.4876 100.168 43.4019 100.128 43.2844C100.086 43.1642 100.082 43.044 100.101 42.9386C100.136 42.7493 100.239 42.6431 100.26 42.6215L101.319 43.6595C101.386 43.5909 101.517 43.4392 101.56 43.2073C101.613 42.9159 101.502 42.6534 101.327 42.4829C101.186 42.3452 101.025 42.2854 100.933 42.2573C100.829 42.2254 100.721 42.2078 100.621 42.1973L100.465 43.6718ZM100.26 42.6215C100.303 42.5771 100.324 42.5744 100.273 42.6011C100.234 42.6216 100.173 42.6482 100.095 42.6767C99.9356 42.7341 99.7446 42.7832 99.5747 42.8072L99.7823 44.2755C100.061 44.2361 100.351 44.1606 100.598 44.0714C100.722 44.0266 100.847 43.9743 100.959 43.9154C101.06 43.8626 101.201 43.7798 101.319 43.6595L100.26 42.6215ZM99.5747 42.8072C98.1604 43.0072 94.285 43.3566 89.0684 43.1108L88.9985 44.592C94.3052 44.8421 98.2736 44.4888 99.7823 44.2755L99.5747 42.8072ZM89.0334 43.8514C89.0828 43.1116 89.0827 43.1116 89.0827 43.1116C89.0826 43.1116 89.0825 43.1116 89.0823 43.1115C89.082 43.1115 89.0816 43.1115 89.0811 43.1115C89.0799 43.1114 89.0782 43.1113 89.076 43.1111C89.0715 43.1108 89.0648 43.1104 89.0559 43.1098C89.0381 43.1086 89.0116 43.1068 88.9769 43.1045C88.9074 43.0999 88.8049 43.0931 88.6725 43.0843C88.4076 43.0667 88.0234 43.0413 87.5457 43.0098C86.5903 42.9468 85.261 42.8596 83.7653 42.7627C80.7743 42.5689 77.1159 42.3363 74.4511 42.1812L74.3649 43.6615C77.0244 43.8163 80.6787 44.0487 83.6694 44.2425C85.1645 44.3393 86.4932 44.4265 87.4482 44.4895C87.9257 44.5209 88.3097 44.5464 88.5743 44.5639C88.7066 44.5727 88.8091 44.5795 88.8785 44.5841C88.9132 44.5864 88.9396 44.5882 88.9573 44.5894C88.9662 44.59 88.9729 44.5904 88.9774 44.5907C88.9796 44.5908 88.9813 44.591 88.9824 44.591C88.983 44.5911 88.9834 44.5911 88.9837 44.5911C88.9838 44.5911 88.984 44.5911 88.984 44.5911C88.9841 44.5911 88.9841 44.5911 89.0334 43.8514ZM74.4511 42.1812C73.8869 42.1483 73.3857 42.208 72.9617 42.3995C72.5185 42.5996 72.2133 42.9197 72.0194 43.3023C71.8357 43.6649 71.7615 44.0639 71.7268 44.4303C71.692 44.7975 71.6927 45.1923 71.6927 45.5557H73.1755C73.1755 45.1752 73.1761 44.8543 73.203 44.5701C73.23 44.285 73.2792 44.0969 73.3422 43.9725C73.3951 43.8682 73.46 43.8015 73.5719 43.751C73.7031 43.6918 73.9421 43.6369 74.3649 43.6615L74.4511 42.1812ZM71.6927 45.5557V45.5558H73.1755V45.5557H71.6927ZM71.6927 45.5558V58.7321H73.1755V45.5558H71.6927ZM71.6985 58.825C71.725 59.0351 71.7682 59.3489 71.924 59.6574C72.0925 59.9909 72.3623 60.2651 72.7518 60.472C73.4649 60.8507 74.6249 61.0237 76.5057 61.0237V59.5408C74.628 59.5408 73.8045 59.3521 73.4474 59.1624C73.3019 59.0851 73.2651 59.0234 73.2476 58.9888C73.2174 58.9291 73.1953 58.8424 73.1697 58.6392L71.6985 58.825ZM76.469 61.0228L88.9968 61.6427L89.0701 60.1617L76.5423 59.5418L76.469 61.0228ZM89.0136 61.6434C90.9384 61.6949 94.0317 61.7741 96.6486 61.5638C97.9497 61.4592 99.1877 61.2794 100.119 60.9655C100.583 60.8092 101.025 60.6023 101.364 60.3128C101.717 60.0107 101.989 59.5856 101.989 59.0422H100.507C100.507 59.0534 100.505 59.0613 100.498 59.0757C100.488 59.0941 100.462 59.1324 100.4 59.186C100.266 59.3001 100.026 59.4323 99.6459 59.5602C98.8909 59.8146 97.7996 59.9836 96.5298 60.0857C94.0052 60.2886 90.9913 60.2129 89.0533 60.161L89.0136 61.6434ZM101.989 59.0422V43.6627H100.507V59.0422H101.989ZM100.632 42.1799H100.242V43.6627H100.632V42.1799ZM101.989 43.6627C101.989 43.2555 101.745 42.9759 101.618 42.8491C101.471 42.7038 101.302 42.5896 101.195 42.5201L100.383 43.7609C100.429 43.7907 100.469 43.8178 100.503 43.8438C100.539 43.8702 100.561 43.8896 100.573 43.9019C100.587 43.9156 100.576 43.9079 100.559 43.8773C100.54 43.8444 100.507 43.7695 100.507 43.6627H101.989ZM101.195 42.5201C101.158 42.4957 101.104 42.4613 101.082 42.4468C101.067 42.437 101.056 42.4295 101.047 42.4234C101.037 42.4171 101.034 42.4145 101.034 42.4145C101.034 42.4147 101.036 42.4163 101.04 42.4192C101.043 42.4221 101.05 42.4273 101.058 42.4347C101.069 42.445 101.108 42.4807 101.149 42.5391C101.182 42.5855 101.282 42.7383 101.276 42.9645C101.27 43.2473 101.109 43.4443 100.965 43.5442L100.121 42.3249C99.9663 42.4319 99.8007 42.6375 99.7939 42.9302C99.7884 43.1663 99.893 43.3304 99.9342 43.3893C100.018 43.5096 100.125 43.5863 100.149 43.6041C100.219 43.6567 100.335 43.729 100.383 43.7609L101.195 42.5201ZM100.965 43.5442C100.889 43.5965 100.821 43.6224 100.781 43.6351C100.739 43.6486 100.705 43.6548 100.685 43.6577C100.649 43.6633 100.626 43.6627 100.632 43.6627V42.1799C100.589 42.1799 100.529 42.1816 100.463 42.1917C100.416 42.1987 100.269 42.2224 100.121 42.3249L100.965 43.5442Z" fill="url(#paint30_linear_1533_4100)" mask="url(#path-32-inside-1_1533_4100)"/>
<path d="M88.8838 45.96L88.8838 45.96C89.0546 45.967 89.2257 45.9734 89.3968 45.9794L89.4047 45.7543C89.746 45.7662 90.0877 45.7761 90.4283 45.7842L90.4229 46.0094C90.7667 46.0176 91.1092 46.0238 91.449 46.0284L91.4521 45.8032C91.7967 45.8079 92.1385 45.8108 92.476 45.8122L92.475 46.0374C92.8223 46.0388 93.165 46.0386 93.5012 46.0369L93.5001 45.8116C93.849 45.8099 94.1909 45.8065 94.524 45.8019L94.5272 46.0271C94.8797 46.0221 95.2224 46.0156 95.5528 46.0079L95.5476 45.7828C95.9042 45.7744 96.2465 45.7646 96.5717 45.7537L96.5792 45.9788C96.7551 45.9729 96.9261 45.9667 97.0916 45.9602C97.2401 45.9543 97.3864 45.9636 97.5288 45.9867L97.5649 45.7644C97.8884 45.8168 98.1939 45.9335 98.4653 46.1011L98.347 46.2928C98.598 46.4477 98.8167 46.6502 98.9881 46.8868L99.1705 46.7547C99.3581 47.0138 99.4946 47.3106 99.5637 47.6312L99.3435 47.6787C99.3736 47.8183 99.3895 47.963 99.3895 48.1115V48.6879H99.6147V49.8408H99.3895V50.9937H99.6147V52.1466H99.3895V53.2996H99.6147V54.4525H99.3895V55.6054H99.6147V56.7583H99.3895V57.3347C99.3895 57.4332 99.345 57.5351 99.2189 57.6455L99.3673 57.8149C99.1515 58.0038 98.8037 58.1578 98.3597 58.283L98.2985 58.0662C97.9907 58.1531 97.6311 58.2265 97.2317 58.2882L97.266 58.5108C96.9196 58.5642 96.5466 58.6084 96.1555 58.6448L96.1346 58.4205C95.779 58.4536 95.4076 58.4802 95.0267 58.5013L95.0392 58.7262C94.6731 58.7465 94.2988 58.7618 93.922 58.7731L93.9153 58.5479C93.5447 58.5589 93.1716 58.566 92.8011 58.57L92.8036 58.7952C92.4257 58.7993 92.051 58.8002 91.6849 58.7989L91.6857 58.5736C91.3019 58.5722 90.9275 58.5684 90.5693 58.5632L90.566 58.7884C90.1705 58.7826 89.7947 58.7752 89.4474 58.7677L89.4523 58.5425C89.2585 58.5383 89.0735 58.534 88.8989 58.5299L88.3506 58.5033L88.3396 58.7283L87.2373 58.6747L87.2483 58.4497L86.146 58.3962L86.1351 58.6211L85.0328 58.5676L85.0437 58.3426L83.9414 58.2891L83.9305 58.514L82.8282 58.4605L82.8392 58.2355L81.7369 58.1819L81.7259 58.4069L80.6237 58.3534L80.6346 58.1284L79.5323 58.0748L79.5214 58.2998L78.4191 58.2462L78.43 58.0213L77.8789 57.9945L77.8789 57.9942H77.868C77.6984 57.9942 77.5373 57.9929 77.3843 57.9904L77.3806 58.2156C77.0136 58.2094 76.6918 58.1962 76.4093 58.1764L76.425 57.9517C76.0388 57.9247 75.7323 57.8856 75.4887 57.8372L75.4448 58.0581C74.9804 57.9658 74.7164 57.838 74.5607 57.6849L74.7186 57.5243C74.6326 57.4398 74.5922 57.3432 74.5648 57.2118C74.5605 57.1912 74.5569 57.17 74.554 57.1481L74.3308 57.1781C74.3236 57.1246 74.3199 57.0707 74.3183 57.0167L74.5434 57.0098C74.5427 56.9856 74.5424 56.9609 74.5424 56.9357L74.5424 56.3264H74.3171L74.3171 55.1078H74.5424L74.5424 53.8892H74.3171L74.3171 52.6707H74.5424L74.5424 51.4521H74.3171L74.3171 50.2335H74.5424L74.5424 49.0149H74.3171L74.3171 47.7963H74.5424L74.5424 47.187C74.5424 47.0176 74.5424 46.865 74.549 46.7236L74.324 46.7132C74.3406 46.3543 74.3976 46.0568 74.5932 45.8243L74.7655 45.9693C74.8853 45.8269 75.0907 45.6973 75.4685 45.6028L75.4138 45.3843C75.6641 45.3216 75.9714 45.2767 76.349 45.25L76.3649 45.4746C76.6348 45.4555 76.9433 45.4458 77.296 45.4459L77.2961 45.2207C77.5828 45.2208 77.8972 45.2273 78.2418 45.2403L78.2333 45.4654C78.3846 45.4711 78.5418 45.4781 78.7053 45.4864C78.7053 45.4864 78.7053 45.4864 78.7053 45.4864L79.2138 45.512L79.2251 45.287C79.5619 45.3039 79.9018 45.3207 80.2424 45.3374L80.2314 45.5623C80.5707 45.5789 80.9107 45.5954 81.2492 45.6117L81.26 45.3867C81.6014 45.4031 81.9412 45.4193 82.2772 45.4352L82.2666 45.6602C82.6109 45.6765 82.9512 45.6924 83.2849 45.708L83.2953 45.483C83.6424 45.4992 83.9824 45.5149 84.3125 45.5301L84.3022 45.7551C84.6541 45.7713 84.9947 45.7868 85.3207 45.8016L85.3309 45.5766C85.6894 45.5929 86.0301 45.6083 86.3486 45.6226L86.3385 45.8476C86.7106 45.8643 87.0523 45.8795 87.3563 45.893L87.3663 45.668C87.7825 45.6865 88.1281 45.7016 88.3844 45.7128L88.3745 45.9378L88.8807 45.9598L88.8812 45.9599L88.8818 45.9599L88.8911 45.7349L88.8924 45.7349L88.8831 45.9599L88.8838 45.96Z" stroke="#3B416B" stroke-opacity="0.3" stroke-width="0.450459" stroke-dasharray="1.12 1.12"/>
<g filter="url(#filter8_b_1533_4100)">
<ellipse cx="3.4222" cy="3.99337" rx="3.4222" ry="3.99337" transform="matrix(-1 -8.65353e-08 -0.000164897 1 83.76 48.082)" fill="url(#paint31_linear_1533_4100)"/>
<path d="M77.2725 52.0754C77.2721 54.1372 78.6937 55.7113 80.3365 55.7113C81.9794 55.7113 83.4015 54.1372 83.4018 52.0754C83.4022 50.0136 81.9806 48.4395 80.3377 48.4395C78.6949 48.4395 77.2728 50.0136 77.2725 52.0754Z" stroke="url(#paint32_linear_1533_4100)" stroke-width="0.715014"/>
</g>
<g filter="url(#filter9_b_1533_4100)">
<path d="M49.8231 41.0081L44.7966 37.4216L15.7527 79.0323C15.7527 79.0323 17.4038 82.4221 23.2511 85.2617C24.4598 85.8487 26.2674 86.7114 29.2382 86.3453C39.6323 85.0646 58.5634 64.612 53.8762 47.1045C53.3245 43.6943 50.9443 41.6193 49.8231 41.0081Z" fill="url(#paint33_linear_1533_4100)" fill-opacity="0.8"/>
</g>
<path d="M49.8231 41.0315L44.7966 37.4451L15.7527 79.0558C15.7527 79.0558 17.4038 82.4456 23.2511 85.2852C24.4598 85.8722 26.2674 86.7348 29.2382 86.3688C39.6323 85.088 58.5634 64.6354 53.8762 47.1279C53.3245 43.7178 50.9443 41.6428 49.8231 41.0315Z" fill="url(#paint34_linear_1533_4100)" fill-opacity="0.8"/>
<path d="M16.7819 51.2496C13.1869 57.3684 11.4878 63.7739 11.624 69.169C11.7606 74.5736 13.7287 78.8774 17.3642 80.9676C20.9997 83.0578 25.7543 82.6192 30.5691 80.0613C35.3754 77.5079 40.1607 72.8768 43.7557 66.758C47.3507 60.6393 49.0498 54.2338 48.9135 48.8386C48.777 43.4341 46.8088 39.1302 43.1733 37.04C39.5378 34.9498 34.7832 35.3885 29.9685 37.9464C25.1622 40.4998 20.3769 45.1309 16.7819 51.2496Z" fill="url(#paint35_linear_1533_4100)" stroke="url(#paint36_linear_1533_4100)" stroke-width="1.02961"/>
<path d="M16.9122 51.3245C13.329 57.4232 11.6394 63.8016 11.7749 69.1647C11.9106 74.5401 13.8667 78.7836 17.4403 80.8382C21.0139 82.8928 25.7094 82.4736 30.4981 79.9295C35.276 77.3913 40.0422 72.7818 43.6254 66.6831C47.2086 60.5844 48.8982 54.2061 48.7627 48.8429C48.6269 43.4676 46.6709 39.224 43.0973 37.1694C39.5237 35.1148 34.8281 35.534 30.0394 38.0781C25.2615 40.6164 20.4953 45.2259 16.9122 51.3245Z" fill="url(#paint37_linear_1533_4100)" stroke="url(#paint38_linear_1533_4100)" stroke-width="1.33"/>
<g filter="url(#filter10_i_1533_4100)">
<ellipse cx="12.0155" cy="20.1336" rx="12.0155" ry="20.1336" transform="matrix(-0.86752 -0.498774 -0.506236 0.861625 50.4556 47.6035)" fill="url(#paint39_linear_1533_4100)"/>
</g>
<g opacity="0.9">
<mask id="mask3_1533_4100" style="mask-type:alpha" maskUnits="userSpaceOnUse" x="24" y="59" width="12" height="12">
<path d="M24.9438 70.0462L35.4348 61.9259L31.0331 59.7391L25.5819 62.4055L24.9438 70.0462Z" fill="url(#paint40_linear_1533_4100)"/>
</mask>
<g mask="url(#mask3_1533_4100)">
<path opacity="0.3" d="M24.1215 70.8981L35.4347 61.9209L31.033 59.7341L22.6316 71.0328L24.1215 70.8981Z" fill="url(#paint41_linear_1533_4100)"/>
</g>
<path opacity="0.5" d="M31.1192 59.9465L39.271 56.2162L29.9668 51.5938L31.1192 59.9465Z" fill="url(#paint42_radial_1533_4100)"/>
<path fill-rule="evenodd" clip-rule="evenodd" d="M31.4202 57.8666C31.1662 57.9833 30.8705 57.8336 30.8181 57.5616L28.9011 47.624C28.8232 47.2201 29.3096 46.9482 29.6152 47.2248L37.5433 54.3996C37.7704 54.6051 37.7115 54.975 37.4313 55.1037L31.4202 57.8666Z" fill="white"/>
<path fill-rule="evenodd" clip-rule="evenodd" d="M30.2542 58.4699C30.2742 58.5737 30.2546 58.6815 30.1993 58.7722L23.8537 69.1745C23.6007 69.5893 22.9592 69.3367 23.0653 68.864L27.559 48.8496C27.6608 48.3963 28.3146 48.4026 28.4023 48.8578L30.2542 58.4699Z" fill="white"/>
<path fill-rule="evenodd" clip-rule="evenodd" d="M40.9219 55.1908L41.0211 55.4285L34.3997 59.5274C34.2852 59.5982 34.2924 59.7656 34.4124 59.8252L37.475 61.3467C37.59 61.4038 37.6026 61.5618 37.4983 61.6375L21.9696 72.898L21.5157 72.6725L34.9695 62.1245C35.0687 62.0468 35.0535 61.8935 34.941 61.8377L31.1628 59.9607C31.034 59.8966 31.0378 59.7127 31.1693 59.6525L40.9219 55.1908Z" fill="url(#paint43_linear_1533_4100)"/>
</g>
<defs>
<filter id="filter0_f_1533_4100" x="22.6633" y="71.8496" width="74.9128" height="18.1797" filterUnits="userSpaceOnUse" color-interpolation-filters="sRGB">
<feFlood flood-opacity="0" result="BackgroundImageFix"/>
<feBlend mode="normal" in="SourceGraphic" in2="BackgroundImageFix" result="shape"/>
<feGaussianBlur stdDeviation="2" result="effect1_foregroundBlur_1533_4100"/>
</filter>
<filter id="filter1_b_1533_4100" x="84.2098" y="61.0155" width="26.1885" height="23.5413" filterUnits="userSpaceOnUse" color-interpolation-filters="sRGB">
<feFlood flood-opacity="0" result="BackgroundImageFix"/>
<feGaussianBlur in="BackgroundImageFix" stdDeviation="1.33795"/>
<feComposite in2="SourceAlpha" operator="in" result="effect1_backgroundBlur_1533_4100"/>
<feBlend mode="normal" in="SourceGraphic" in2="effect1_backgroundBlur_1533_4100" result="shape"/>
</filter>
<filter id="filter2_b_1533_4100" x="85.1248" y="61.9436" width="24.3479" height="21.7006" filterUnits="userSpaceOnUse" color-interpolation-filters="sRGB">
<feFlood flood-opacity="0" result="BackgroundImageFix"/>
<feGaussianBlur in="BackgroundImageFix" stdDeviation="0.877796"/>
<feComposite in2="SourceAlpha" operator="in" result="effect1_backgroundBlur_1533_4100"/>
<feBlend mode="normal" in="SourceGraphic" in2="effect1_backgroundBlur_1533_4100" result="shape"/>
</filter>
<filter id="filter3_i_1533_4100" x="88.1169" y="63.4395" width="15.4094" height="15.3359" filterUnits="userSpaceOnUse" color-interpolation-filters="sRGB">
<feFlood flood-opacity="0" result="BackgroundImageFix"/>
<feBlend mode="normal" in="SourceGraphic" in2="BackgroundImageFix" result="shape"/>
<feColorMatrix in="SourceAlpha" type="matrix" values="0 0 0 0 0 0 0 0 0 0 0 0 0 0 0 0 0 0 127 0" result="hardAlpha"/>
<feOffset dy="1.33"/>
<feGaussianBlur stdDeviation="2.65999"/>
<feComposite in2="hardAlpha" operator="arithmetic" k2="-1" k3="1"/>
<feColorMatrix type="matrix" values="0 0 0 0 0 0 0 0 0 0 0 0 0 0 0 0 0 0 0.1 0"/>
<feBlend mode="normal" in2="shape" result="effect1_innerShadow_1533_4100"/>
</filter>
<filter id="filter4_f_1533_4100" x="82.2398" y="57.7" width="34.3776" height="34.6137" filterUnits="userSpaceOnUse" color-interpolation-filters="sRGB">
<feFlood flood-opacity="0" result="BackgroundImageFix"/>
<feBlend mode="normal" in="SourceGraphic" in2="BackgroundImageFix" result="shape"/>
<feGaussianBlur stdDeviation="5.14805" result="effect1_foregroundBlur_1533_4100"/>
</filter>
<filter id="filter5_b_1533_4100" x="63.76" y="7.45144" width="22.8642" height="38.3432" filterUnits="userSpaceOnUse" color-interpolation-filters="sRGB">
<feFlood flood-opacity="0" result="BackgroundImageFix"/>
<feGaussianBlur in="BackgroundImageFix" stdDeviation="0.877796"/>
<feComposite in2="SourceAlpha" operator="in" result="effect1_backgroundBlur_1533_4100"/>
<feBlend mode="normal" in="SourceGraphic" in2="effect1_backgroundBlur_1533_4100" result="shape"/>
</filter>
<filter id="filter6_i_1533_4100" x="71.8899" y="14.2988" width="18.6938" height="25.4667" filterUnits="userSpaceOnUse" color-interpolation-filters="sRGB">
<feFlood flood-opacity="0" result="BackgroundImageFix"/>
<feBlend mode="normal" in="SourceGraphic" in2="BackgroundImageFix" result="shape"/>
<feColorMatrix in="SourceAlpha" type="matrix" values="0 0 0 0 0 0 0 0 0 0 0 0 0 0 0 0 0 0 127 0" result="hardAlpha"/>
<feOffset dy="1.33"/>
<feGaussianBlur stdDeviation="2.65999"/>
<feComposite in2="hardAlpha" operator="arithmetic" k2="-1" k3="1"/>
<feColorMatrix type="matrix" values="0 0 0 0 0 0 0 0 0 0 0 0 0 0 0 0 0 0 0.1 0"/>
<feBlend mode="normal" in2="shape" result="effect1_innerShadow_1533_4100"/>
</filter>
<filter id="filter7_f_1533_4100" x="-19.581" y="-18.9697" width="103.323" height="82.6464" filterUnits="userSpaceOnUse" color-interpolation-filters="sRGB">
<feFlood flood-opacity="0" result="BackgroundImageFix"/>
<feBlend mode="normal" in="SourceGraphic" in2="BackgroundImageFix" result="shape"/>
<feGaussianBlur stdDeviation="14.3003" result="effect1_foregroundBlur_1533_4100"/>
</filter>
<filter id="filter8_b_1533_4100" x="70.4799" y="41.6469" width="19.7145" height="20.8566" filterUnits="userSpaceOnUse" color-interpolation-filters="sRGB">
<feFlood flood-opacity="0" result="BackgroundImageFix"/>
<feGaussianBlur in="BackgroundImageFix" stdDeviation="3.21756"/>
<feComposite in2="SourceAlpha" operator="in" result="effect1_backgroundBlur_1533_4100"/>
<feBlend mode="normal" in="SourceGraphic" in2="effect1_backgroundBlur_1533_4100" result="shape"/>
</filter>
<filter id="filter9_b_1533_4100" x="10.4009" y="32.0701" width="49.5598" height="59.7153" filterUnits="userSpaceOnUse" color-interpolation-filters="sRGB">
<feFlood flood-opacity="0" result="BackgroundImageFix"/>
<feGaussianBlur in="BackgroundImageFix" stdDeviation="2.67591"/>
<feComposite in2="SourceAlpha" operator="in" result="effect1_backgroundBlur_1533_4100"/>
<feBlend mode="normal" in="SourceGraphic" in2="effect1_backgroundBlur_1533_4100" result="shape"/>
</filter>
<filter id="filter10_i_1533_4100" x="15.261" y="40.5996" width="29.1572" height="38.0468" filterUnits="userSpaceOnUse" color-interpolation-filters="sRGB">
<feFlood flood-opacity="0" result="BackgroundImageFix"/>
<feBlend mode="normal" in="SourceGraphic" in2="BackgroundImageFix" result="shape"/>
<feColorMatrix in="SourceAlpha" type="matrix" values="0 0 0 0 0 0 0 0 0 0 0 0 0 0 0 0 0 0 127 0" result="hardAlpha"/>
<feOffset dy="1.33"/>
<feGaussianBlur stdDeviation="2.65999"/>
<feComposite in2="hardAlpha" operator="arithmetic" k2="-1" k3="1"/>
<feColorMatrix type="matrix" values="0 0 0 0 0 0 0 0 0 0 0 0 0 0 0 0 0 0 0.1 0"/>
<feBlend mode="normal" in2="shape" result="effect1_innerShadow_1533_4100"/>
</filter>
<linearGradient id="paint0_linear_1533_4100" x1="64.0193" y1="20.1738" x2="64.0193" y2="79.8743" gradientUnits="userSpaceOnUse">
<stop stop-color="#A8B4EF"/>
<stop offset="1" stop-color="#6858A6"/>
</linearGradient>
<linearGradient id="paint1_linear_1533_4100" x1="64.0193" y1="20.1738" x2="64.0193" y2="79.8743" gradientUnits="userSpaceOnUse">
<stop stop-color="#C1C9FF"/>
<stop offset="0.0001" stop-color="#CCD3FF"/>
<stop offset="1" stop-color="#6B5DA8"/>
</linearGradient>
<linearGradient id="paint2_linear_1533_4100" x1="112.293" y1="69.1009" x2="89.6405" y2="91.5255" gradientUnits="userSpaceOnUse">
<stop offset="0.0768632" stop-color="#737373"/>
<stop offset="0.134224" stop-color="#FDFDFD"/>
<stop offset="0.210088" stop-color="#737373" stop-opacity="0.19"/>
<stop offset="0.304868" stop-color="#626161"/>
<stop offset="0.473832" stop-color="#9A9DA0"/>
<stop offset="0.601534" stop-color="#737373" stop-opacity="0.27"/>
<stop offset="1" stop-color="#4B4D48" stop-opacity="0"/>
</linearGradient>
<linearGradient id="paint3_linear_1533_4100" x1="87.6127" y1="74.6233" x2="107.014" y2="69.7522" gradientUnits="userSpaceOnUse">
<stop stop-color="#4D59E4"/>
<stop offset="0.546875" stop-color="#3D58B8"/>
<stop offset="1" stop-color="#66B6FF"/>
</linearGradient>
<linearGradient id="paint4_linear_1533_4100" x1="104.903" y1="63.1455" x2="87.2462" y2="78.0875" gradientUnits="userSpaceOnUse">
<stop stop-color="#A39DC4"/>
<stop offset="1" stop-color="#271C53"/>
</linearGradient>
<linearGradient id="paint5_linear_1533_4100" x1="104.903" y1="63.1455" x2="87.2462" y2="78.0875" gradientUnits="userSpaceOnUse">
<stop stop-color="#EDE8FE"/>
<stop offset="0.0001" stop-color="#BCAFE9"/>
<stop offset="1" stop-color="#352A5C"/>
</linearGradient>
<linearGradient id="paint6_linear_1533_4100" x1="108.662" y1="60.6405" x2="87.2722" y2="78.1261" gradientUnits="userSpaceOnUse">
<stop stop-color="#8BFAFF"/>
<stop offset="1" stop-color="#5F68FF"/>
</linearGradient>
<linearGradient id="paint7_linear_1533_4100" x1="104.903" y1="63.1455" x2="87.2462" y2="78.0875" gradientUnits="userSpaceOnUse">
<stop stop-color="#B0ECFF"/>
<stop offset="1" stop-color="#6172FD"/>
</linearGradient>
<linearGradient id="paint8_linear_1533_4100" x1="7.05431" y1="-2.58681" x2="6.19329" y2="17.2847" gradientUnits="userSpaceOnUse">
<stop stop-color="#82E2FF"/>
<stop offset="1" stop-color="#5A62E9"/>
</linearGradient>
<linearGradient id="paint9_linear_1533_4100" x1="97.2771" y1="72.7168" x2="92.5307" y2="72.1623" gradientUnits="userSpaceOnUse">
<stop stop-color="white"/>
<stop offset="1" stop-color="white" stop-opacity="0"/>
</linearGradient>
<linearGradient id="paint10_linear_1533_4100" x1="94.5056" y1="73.5466" x2="93.9408" y2="72.344" gradientUnits="userSpaceOnUse">
<stop stop-color="#2D205F"/>
<stop offset="1" stop-color="#0012F0" stop-opacity="0"/>
<stop offset="1" stop-color="#2B2056" stop-opacity="0"/>
</linearGradient>
<radialGradient id="paint11_radial_1533_4100" cx="0" cy="0" r="1" gradientUnits="userSpaceOnUse" gradientTransform="translate(96.8811 70.8873) rotate(-63.4105) scale(1.4908 2.41285)">
<stop stop-color="#AFA1F0"/>
<stop offset="1" stop-color="white" stop-opacity="0"/>
</radialGradient>
<linearGradient id="paint12_linear_1533_4100" x1="100.151" y1="70.8731" x2="90.9736" y2="71.3558" gradientUnits="userSpaceOnUse">
<stop stop-color="white" stop-opacity="0"/>
<stop offset="0.124501" stop-color="white" stop-opacity="0.71"/>
<stop offset="0.256651" stop-color="white"/>
<stop offset="0.578781" stop-color="white" stop-opacity="0.97"/>
<stop offset="0.79384" stop-color="#9EBAFE"/>
<stop offset="0.986914" stop-color="#7DF7E9" stop-opacity="0"/>
</linearGradient>
<linearGradient id="paint13_linear_1533_4100" x1="80.5227" y1="8.21228" x2="63.2464" y2="38.6865" gradientUnits="userSpaceOnUse">
<stop offset="0.0768632" stop-color="#737373"/>
<stop offset="0.134224" stop-color="#FDFDFD"/>
<stop offset="0.210088" stop-color="#737373" stop-opacity="0.19"/>
<stop offset="0.304868" stop-color="#626161"/>
<stop offset="0.473832" stop-color="#9A9DA0"/>
<stop offset="0.601534" stop-color="#737373" stop-opacity="0.27"/>
<stop offset="1" stop-color="#4B4D48" stop-opacity="0"/>
</linearGradient>
<linearGradient id="paint14_linear_1533_4100" x1="80.2159" y1="41.5178" x2="75.0509" y2="11.607" gradientUnits="userSpaceOnUse">
<stop stop-color="#4D59E4"/>
<stop offset="0.546875" stop-color="#3D58B8"/>
<stop offset="1" stop-color="#66B6FF"/>
</linearGradient>
<linearGradient id="paint15_linear_1533_4100" x1="87.1755" y1="3.6442" x2="76.2904" y2="44.4004" gradientUnits="userSpaceOnUse">
<stop stop-color="#8BFAFF"/>
<stop offset="1" stop-color="#5F68FF"/>
</linearGradient>
<linearGradient id="paint16_linear_1533_4100" x1="85.9206" y1="10.4139" x2="76.2305" y2="44.3907" gradientUnits="userSpaceOnUse">
<stop stop-color="#B0ECFF"/>
<stop offset="1" stop-color="#6172FD"/>
</linearGradient>
<linearGradient id="paint17_linear_1533_4100" x1="11.5178" y1="-3.64045" x2="10.4728" y2="24.3384" gradientUnits="userSpaceOnUse">
<stop stop-color="#82E2FF"/>
<stop offset="1" stop-color="#5A62E9"/>
</linearGradient>
<linearGradient id="paint18_linear_1533_4100" x1="84.5693" y1="29.4427" x2="77.1832" y2="30.5527" gradientUnits="userSpaceOnUse">
<stop stop-color="white"/>
<stop offset="1" stop-color="white" stop-opacity="0"/>
</linearGradient>
<linearGradient id="paint19_linear_1533_4100" x1="80.9191" y1="33.0944" x2="79.3951" y2="31.9064" gradientUnits="userSpaceOnUse">
<stop stop-color="#2D205F"/>
<stop offset="1" stop-color="#0012F0" stop-opacity="0"/>
<stop offset="1" stop-color="#2B2056" stop-opacity="0"/>
</linearGradient>
<radialGradient id="paint20_radial_1533_4100" cx="0" cy="0" r="1" gradientUnits="userSpaceOnUse" gradientTransform="translate(83.2241 26.847) rotate(-81.5949) scale(2.72319 3.51783)">
<stop stop-color="#AFA1F0"/>
<stop offset="1" stop-color="white" stop-opacity="0"/>
</radialGradient>
<linearGradient id="paint21_linear_1533_4100" x1="87.932" y1="24.0599" x2="73.6319" y2="28.658" gradientUnits="userSpaceOnUse">
<stop stop-color="white" stop-opacity="0"/>
<stop offset="0.124501" stop-color="white" stop-opacity="0.71"/>
<stop offset="0.256651" stop-color="white"/>
<stop offset="0.578781" stop-color="white" stop-opacity="0.97"/>
<stop offset="0.79384" stop-color="#9EBAFE"/>
<stop offset="0.986914" stop-color="#7DF7E9" stop-opacity="0"/>
</linearGradient>
<linearGradient id="paint22_linear_1533_4100" x1="58.0297" y1="23.0527" x2="58.0297" y2="83.1488" gradientUnits="userSpaceOnUse">
<stop stop-color="#CFF1FF"/>
<stop offset="1" stop-color="#7A64D3"/>
</linearGradient>
<linearGradient id="paint23_linear_1533_4100" x1="58.0297" y1="23.0527" x2="58.0297" y2="83.1488" gradientUnits="userSpaceOnUse">
<stop stop-color="#EDE8FE"/>
<stop offset="0.0001" stop-color="#F5F2FF"/>
<stop offset="1" stop-color="#9180D2"/>
</linearGradient>
<linearGradient id="paint24_linear_1533_4100" x1="58.0297" y1="23.0469" x2="58.0297" y2="83.1429" gradientUnits="userSpaceOnUse">
<stop stop-color="#83DDFF"/>
<stop offset="1" stop-color="#9383D1"/>
</linearGradient>
<linearGradient id="paint25_linear_1533_4100" x1="58.0297" y1="23.0469" x2="58.0297" y2="83.1429" gradientUnits="userSpaceOnUse">
<stop stop-color="#EDE8FE"/>
<stop offset="0.0001" stop-color="#BCAFE9"/>
<stop offset="1" stop-color="#352A5C"/>
</linearGradient>
<linearGradient id="paint26_linear_1533_4100" x1="32.697" y1="63.2918" x2="32.697" y2="77.535" gradientUnits="userSpaceOnUse">
<stop stop-color="#2E2751"/>
<stop offset="1" stop-color="#363B5E" stop-opacity="0"/>
</linearGradient>
<linearGradient id="paint27_linear_1533_4100" x1="54.768" y1="57.8622" x2="54.768" y2="76.8184" gradientUnits="userSpaceOnUse">
<stop stop-color="white"/>
<stop offset="0.984375" stop-color="white" stop-opacity="0"/>
<stop offset="0.984475" stop-color="white" stop-opacity="0"/>
</linearGradient>
<linearGradient id="paint28_linear_1533_4100" x1="64.248" y1="50.0405" x2="64.248" y2="77.0166" gradientUnits="userSpaceOnUse">
<stop stop-color="white"/>
<stop offset="0.984375" stop-color="white" stop-opacity="0"/>
<stop offset="0.984475" stop-color="white" stop-opacity="0"/>
</linearGradient>
<linearGradient id="paint29_linear_1533_4100" x1="103.345" y1="51.852" x2="73.2724" y2="55.2067" gradientUnits="userSpaceOnUse">
<stop stop-color="#877CFF"/>
<stop offset="1" stop-color="#ADC3FF"/>
</linearGradient>
<linearGradient id="paint30_linear_1533_4100" x1="74.0327" y1="51.852" x2="101.466" y2="51.852" gradientUnits="userSpaceOnUse">
<stop stop-color="#BCCEFF"/>
<stop offset="1" stop-color="#B2A9DC" stop-opacity="0"/>
</linearGradient>
<linearGradient id="paint31_linear_1533_4100" x1="3.4222" y1="0" x2="3.4222" y2="7.98674" gradientUnits="userSpaceOnUse">
<stop stop-color="white"/>
<stop offset="1" stop-color="white" stop-opacity="0"/>
</linearGradient>
<linearGradient id="paint32_linear_1533_4100" x1="80.3378" y1="48.082" x2="80.3378" y2="56.0688" gradientUnits="userSpaceOnUse">
<stop stop-color="#5A63E4"/>
<stop offset="1" stop-color="#BAD6F9"/>
</linearGradient>
<linearGradient id="paint33_linear_1533_4100" x1="63.7357" y1="43.621" x2="32.9422" y2="108.297" gradientUnits="userSpaceOnUse">
<stop offset="0.0768632" stop-color="#737373"/>
<stop offset="0.134224" stop-color="#FDFDFD"/>
<stop offset="0.210088" stop-color="#737373" stop-opacity="0.19"/>
<stop offset="0.304868" stop-color="#626161"/>
<stop offset="0.473832" stop-color="#9A9DA0"/>
<stop offset="0.601534" stop-color="#737373" stop-opacity="0.27"/>
<stop offset="1" stop-color="#4B4D48" stop-opacity="0"/>
</linearGradient>
<linearGradient id="paint34_linear_1533_4100" x1="19.9178" y1="79.6296" x2="54.4066" y2="48.1535" gradientUnits="userSpaceOnUse">
<stop stop-color="#4D59E4"/>
<stop offset="0.546875" stop-color="#3D58B8" stop-opacity="0.51"/>
<stop offset="1" stop-color="#66B6FF"/>
<stop offset="1" stop-color="#66B6FF" stop-opacity="0.63"/>
</linearGradient>
<linearGradient id="paint35_linear_1533_4100" x1="43.4339" y1="36.5965" x2="17.5278" y2="81.6551" gradientUnits="userSpaceOnUse">
<stop stop-color="#A39DC4"/>
<stop offset="1" stop-color="#271C53"/>
</linearGradient>
<linearGradient id="paint36_linear_1533_4100" x1="43.4339" y1="36.5965" x2="17.5278" y2="81.6551" gradientUnits="userSpaceOnUse">
<stop stop-color="#EDE8FE"/>
<stop offset="0.0001" stop-color="#BCAFE9"/>
<stop offset="1" stop-color="#352A5C"/>
</linearGradient>
<linearGradient id="paint37_linear_1533_4100" x1="49.4597" y1="28.4301" x2="17.6155" y2="81.7171" gradientUnits="userSpaceOnUse">
<stop stop-color="#8BFAFF"/>
<stop offset="1" stop-color="#5F68FF"/>
</linearGradient>
<linearGradient id="paint38_linear_1533_4100" x1="43.4339" y1="36.5965" x2="17.5278" y2="81.6551" gradientUnits="userSpaceOnUse">
<stop stop-color="#B0ECFF"/>
<stop offset="1" stop-color="#6172FD"/>
</linearGradient>
<linearGradient id="paint39_linear_1533_4100" x1="15.9296" y1="-5.82951" x2="13.9931" y2="38.9523" gradientUnits="userSpaceOnUse">
<stop stop-color="#82E2FF"/>
<stop offset="1" stop-color="#5A62E9"/>
</linearGradient>
<linearGradient id="paint40_linear_1533_4100" x1="34.6998" y1="62.7004" x2="24.2205" y2="65.2103" gradientUnits="userSpaceOnUse">
<stop stop-color="white"/>
<stop offset="1" stop-color="white" stop-opacity="0"/>
</linearGradient>
<linearGradient id="paint41_linear_1533_4100" x1="29.4601" y1="66.551" x2="27.3331" y2="64.423" gradientUnits="userSpaceOnUse">
<stop stop-color="#2D205F"/>
<stop offset="1" stop-color="#0012F0" stop-opacity="0"/>
<stop offset="1" stop-color="#2B2056" stop-opacity="0"/>
</linearGradient>
<radialGradient id="paint42_radial_1533_4100" cx="0" cy="0" r="1" gradientUnits="userSpaceOnUse" gradientTransform="translate(32.4363 59.1182) rotate(-83.51) scale(3.35572 5.45522)">
<stop stop-color="#AFA1F0"/>
<stop offset="1" stop-color="white" stop-opacity="0"/>
</radialGradient>
<linearGradient id="paint43_linear_1533_4100" x1="39.3573" y1="56.6009" x2="20.3244" y2="64.7284" gradientUnits="userSpaceOnUse">
<stop stop-color="white" stop-opacity="0"/>
<stop offset="0.124501" stop-color="white" stop-opacity="0.71"/>
<stop offset="0.256651" stop-color="white"/>
<stop offset="0.578781" stop-color="white" stop-opacity="0.97"/>
<stop offset="0.79384" stop-color="#9EBAFE"/>
<stop offset="0.986914" stop-color="#7DF7E9" stop-opacity="0"/>
</linearGradient>
</defs>
</svg>
