<svg width="21" height="21" viewBox="0 0 21 21" fill="none" xmlns="http://www.w3.org/2000/svg">
<mask id="path-1-inside-1_2147_7165" fill="white">
<path d="M19 8C19 12.4183 15.4183 16 11 16C6.58172 16 3 12.4183 3 8C3 3.58172 6.58172 0 11 0C15.4183 0 19 3.58172 19 8Z"/>
</mask>
<path d="M19 8C19 12.4183 15.4183 16 11 16C6.58172 16 3 12.4183 3 8C3 3.58172 6.58172 0 11 0C15.4183 0 19 3.58172 19 8Z" fill="url(#paint0_linear_2147_7165)"/>
<path d="M18.2 8C18.2 11.9764 14.9764 15.2 11 15.2V16.8C15.8601 16.8 19.8 12.8601 19.8 8H18.2ZM11 15.2C7.02355 15.2 3.8 11.9764 3.8 8H2.2C2.2 12.8601 6.13989 16.8 11 16.8V15.2ZM3.8 8C3.8 4.02355 7.02355 0.8 11 0.8V-0.8C6.13989 -0.8 2.2 3.13989 2.2 8H3.8ZM11 0.8C14.9764 0.8 18.2 4.02355 18.2 8H19.8C19.8 3.13989 15.8601 -0.8 11 -0.8V0.8Z" fill="white" mask="url(#path-1-inside-1_2147_7165)"/>
<path d="M3.94104 13.9328L3.20182 12.4145C3.06901 12.1417 2.96126 11.8238 3.10222 11.5551C3.2448 11.2834 3.55476 11.0544 4.14286 10.9186C11.3679 9.25131 16.4308 10.6471 16.7028 10.7248L16.7272 10.7318C17.2008 10.8658 17.878 11.0951 18.2431 11.2858C18.4453 11.3913 18.461 11.6098 18.3846 11.8248L17.5081 14.2925C17.3637 14.699 17.1008 15.1469 16.6695 15.1385C16.4448 15.1341 16.2583 15.0264 16.0429 14.9187C14.519 14.1567 12.7143 14.1567 11 14.1567C8.37613 14.1567 6.79892 14.3311 5.46566 14.8465C5.34532 14.893 5.23474 14.9654 5.11088 15.0016C4.82743 15.0842 4.55869 14.9239 4.37661 14.7363C4.16529 14.5187 4.07384 14.2055 3.94104 13.9328Z" fill="url(#paint1_linear_2147_7165)" fill-opacity="0.6"/>
<g filter="url(#filter0_d_2147_7165)">
<path d="M4.03241 14.2407L3.11045 12.2431C3.03768 12.0854 2.98441 11.9095 3.03509 11.7435C3.13026 11.4316 3.4352 11.2147 4.14286 11.0514C9.65692 9.77888 13.9116 10.2768 15.7384 10.6281C16.31 10.7381 17.1383 10.9263 17.6787 11.1428C17.86 11.2154 18.0226 11.2927 18.1497 11.3662C18.3731 11.4954 18.387 11.7476 18.3054 11.9923L17.5461 14.2701C17.3774 14.7765 17.0321 15.371 16.512 15.2513C16.3528 15.2146 16.2062 15.133 16.0429 15.0514C14.6077 14.3338 11.403 14.4788 11.0347 14.4981C11.0108 14.4993 10.9891 14.5 10.9652 14.5001C10.6194 14.5018 7.76543 14.5285 5.69187 14.9591C5.42184 15.0152 5.16443 15.184 4.89041 15.1529C4.61906 15.122 4.38162 14.9042 4.25064 14.7171C4.15107 14.5748 4.10517 14.3983 4.03241 14.2407Z" fill="url(#paint2_linear_2147_7165)"/>
</g>
<path d="M8.569 13.5L7.714 12.111H7.705L7.717 13.5H7.219V11.376H7.804L8.656 12.762H8.665L8.653 11.376H9.151V13.5H8.569ZM11.8031 12.429C11.8031 12.597 11.7741 12.751 11.7161 12.891C11.6581 13.029 11.5771 13.148 11.4731 13.248C11.3711 13.346 11.2491 13.422 11.1071 13.476C10.9651 13.53 10.8111 13.557 10.6451 13.557C10.4791 13.557 10.3251 13.53 10.1831 13.476C10.0431 13.422 9.92112 13.346 9.81712 13.248C9.71512 13.148 9.63512 13.029 9.57712 12.891C9.51912 12.751 9.49012 12.597 9.49012 12.429C9.49012 12.259 9.51912 12.106 9.57712 11.97C9.63512 11.832 9.71512 11.715 9.81712 11.619C9.92112 11.523 10.0431 11.449 10.1831 11.397C10.3251 11.345 10.4791 11.319 10.6451 11.319C10.8111 11.319 10.9651 11.345 11.1071 11.397C11.2491 11.449 11.3711 11.523 11.4731 11.619C11.5771 11.715 11.6581 11.832 11.7161 11.97C11.7741 12.106 11.8031 12.259 11.8031 12.429ZM11.2541 12.429C11.2541 12.337 11.2391 12.251 11.2091 12.171C11.1791 12.091 11.1371 12.023 11.0831 11.967C11.0311 11.909 10.9671 11.864 10.8911 11.832C10.8171 11.798 10.7351 11.781 10.6451 11.781C10.5551 11.781 10.4731 11.798 10.3991 11.832C10.3251 11.864 10.2611 11.909 10.2071 11.967C10.1531 12.023 10.1111 12.091 10.0811 12.171C10.0531 12.251 10.0391 12.337 10.0391 12.429C10.0391 12.525 10.0541 12.614 10.0841 12.696C10.1141 12.776 10.1551 12.845 10.2071 12.903C10.2611 12.961 10.3251 13.007 10.3991 13.041C10.4731 13.073 10.5551 13.089 10.6451 13.089C10.7351 13.089 10.8171 13.073 10.8911 13.041C10.9651 13.007 11.0291 12.961 11.0831 12.903C11.1371 12.845 11.1791 12.776 11.2091 12.696C11.2391 12.614 11.2541 12.525 11.2541 12.429ZM12.5313 13.236C12.5313 13.32 12.5013 13.39 12.4413 13.446C12.3833 13.502 12.3133 13.53 12.2313 13.53C12.1893 13.53 12.1493 13.522 12.1113 13.506C12.0753 13.492 12.0433 13.472 12.0153 13.446C11.9873 13.42 11.9653 13.39 11.9493 13.356C11.9333 13.32 11.9253 13.281 11.9253 13.239C11.9253 13.199 11.9333 13.161 11.9493 13.125C11.9653 13.089 11.9873 13.058 12.0153 13.032C12.0433 13.004 12.0753 12.982 12.1113 12.966C12.1493 12.95 12.1893 12.942 12.2313 12.942C12.3133 12.942 12.3833 12.97 12.4413 13.026C12.5013 13.082 12.5313 13.152 12.5313 13.236ZM13.5267 13.5V11.94L13.1307 12.246L12.8697 11.889L13.5687 11.376H14.0307V13.5H13.5267Z" fill="white"/>
<path d="M10.3383 3.52201C10.4822 3.05951 11.1338 3.05131 11.2893 3.51005L11.6587 4.60012C11.7282 4.80527 11.9219 4.94232 12.1385 4.9396L13.2894 4.92512C13.7737 4.91903 13.9829 5.53626 13.5946 5.82586L12.6721 6.51404C12.4984 6.64355 12.4279 6.87014 12.4975 7.0753L12.8669 8.16536C13.0223 8.6241 12.4999 9.01376 12.1045 8.73401L11.165 8.06926C10.9881 7.94415 10.7508 7.94714 10.5772 8.07665L9.65466 8.76483C9.26641 9.05443 8.73439 8.67803 8.87826 8.21553L9.22014 7.11652C9.28448 6.90968 9.20831 6.68494 9.03148 6.55983L8.0919 5.89508C7.6965 5.61533 7.89007 4.99303 8.3744 4.98694L9.52527 4.97247C9.74186 4.96974 9.93207 4.82786 9.99641 4.62102L10.3383 3.52201Z" fill="#F6F6F7"/>
<path d="M15.1071 7.29892C15.2803 7.06557 15.651 7.19019 15.648 7.4808L15.6459 7.6839C15.6446 7.81386 15.7271 7.92989 15.8503 7.97132L16.0428 8.03605C16.3183 8.12868 16.3143 8.51968 16.037 8.60666L15.8432 8.66744C15.7192 8.70634 15.6343 8.82066 15.633 8.95062L15.6309 9.15372C15.6279 9.44433 15.2548 9.56135 15.0864 9.3245L14.9687 9.15897C14.8934 9.05305 14.7584 9.00767 14.6344 9.04656L14.4406 9.10735C14.1633 9.19432 13.9367 8.87564 14.11 8.64229L14.231 8.4792C14.3085 8.37484 14.3099 8.23247 14.2346 8.12655L14.1169 7.96102C13.9485 7.72417 14.1816 7.41019 14.457 7.50282L14.6496 7.56755C14.7727 7.60898 14.9086 7.56637 14.9861 7.46201L15.1071 7.29892Z" fill="#F6F6F7"/>
<path d="M6.58267 7.0492C6.40945 6.81585 6.03882 6.94048 6.04179 7.23108L6.04471 7.51607C6.04604 7.64603 5.96353 7.76207 5.84034 7.80349L5.5702 7.89433C5.29474 7.98696 5.29874 8.37796 5.57604 8.46494L5.84798 8.55023C5.97199 8.58913 6.05685 8.70345 6.05818 8.83341L6.0611 9.1184C6.06407 9.40901 6.43717 9.52603 6.60558 9.28918L6.77073 9.0569C6.84605 8.95098 6.981 8.9056 7.10501 8.9445L7.37696 9.02979C7.65425 9.11677 7.88084 8.79809 7.70763 8.56473L7.53776 8.33589C7.46029 8.23153 7.45883 8.08915 7.53415 7.98323L7.6993 7.75096C7.86771 7.51411 7.63465 7.20013 7.35919 7.29276L7.08905 7.3836C6.96586 7.42502 6.83 7.38241 6.75254 7.27805L6.58267 7.0492Z" fill="#F6F6F7"/>
<defs>
<filter id="filter0_d_2147_7165" x="0.615137" y="10.2305" width="20.1359" height="9.83613" filterUnits="userSpaceOnUse" color-interpolation-filters="sRGB">
<feFlood flood-opacity="0" result="BackgroundImageFix"/>
<feColorMatrix in="SourceAlpha" type="matrix" values="0 0 0 0 0 0 0 0 0 0 0 0 0 0 0 0 0 0 127 0" result="hardAlpha"/>
<feOffset dy="2.4"/>
<feGaussianBlur stdDeviation="1.2"/>
<feComposite in2="hardAlpha" operator="out"/>
<feColorMatrix type="matrix" values="0 0 0 0 0 0 0 0 0 0 0 0 0 0 0 0 0 0 0.2 0"/>
<feBlend mode="normal" in2="BackgroundImageFix" result="effect1_dropShadow_2147_7165"/>
<feBlend mode="normal" in="SourceGraphic" in2="effect1_dropShadow_2147_7165" result="shape"/>
</filter>
<linearGradient id="paint0_linear_2147_7165" x1="3.44651" y1="8" x2="19.2626" y2="8.03462" gradientUnits="userSpaceOnUse">
<stop stop-color="#9195FB"/>
<stop offset="1" stop-color="#3FFFD8"/>
</linearGradient>
<linearGradient id="paint1_linear_2147_7165" x1="3.57143" y1="13.5854" x2="17.2857" y2="13.5854" gradientUnits="userSpaceOnUse">
<stop stop-color="#9189F2"/>
<stop offset="1" stop-color="#53D7C4"/>
</linearGradient>
<linearGradient id="paint2_linear_2147_7165" x1="3.57143" y1="13.7182" x2="17.2857" y2="13.7182" gradientUnits="userSpaceOnUse">
<stop stop-color="#BAB5FF"/>
<stop offset="1" stop-color="#9AFDEF"/>
</linearGradient>
</defs>
</svg>
