<svg width="16" height="16" viewBox="0 0 16 16" fill="none" xmlns="http://www.w3.org/2000/svg">
<circle cx="8" cy="8" r="8" fill="#FF5266" fill-opacity="0.8"/>
<circle cx="8" cy="8" r="7.75" stroke="#FF7A8A" stroke-opacity="0.8" stroke-width="0.5"/>
<path d="M7.34424 4.45898L7.58555 9.27287H8.4144L8.65571 4.45898H7.34424ZM7.99552 10.0752C7.81708 10.0752 7.66542 10.1257 7.54051 10.2435C7.40669 10.3529 7.34424 10.496 7.34424 10.6727C7.34424 10.841 7.40669 10.9841 7.54051 11.1019C7.66542 11.2197 7.81708 11.2787 7.99552 11.2787C8.17395 11.2787 8.33454 11.2197 8.46836 11.1103C8.59326 10.9925 8.65571 10.8494 8.65571 10.6727C8.65571 10.496 8.59326 10.3529 8.46836 10.2435C8.34346 10.1257 8.18287 10.0752 7.99552 10.0752Z" fill="white"/>
</svg>
