<svg width="16" height="16" viewBox="0 0 16 16" fill="none" xmlns="http://www.w3.org/2000/svg">
<circle cx="8" cy="8" r="8" fill="#FF5266" fill-opacity="0.8"/>
<circle cx="8" cy="8" r="7.75" stroke="#FF7A8A" stroke-opacity="0.8" stroke-width="0.5"/>
<path d="M7.34436 4.45898L7.58567 9.27287H8.41452L8.65584 4.45898H7.34436ZM7.99564 10.0752C7.81721 10.0752 7.66554 10.1257 7.54064 10.2435C7.40681 10.3529 7.34436 10.496 7.34436 10.6727C7.34436 10.841 7.40681 10.9841 7.54064 11.1019C7.66554 11.2197 7.81721 11.2787 7.99564 11.2787C8.17407 11.2787 8.33466 11.2197 8.46848 11.1103C8.59338 10.9925 8.65584 10.8494 8.65584 10.6727C8.65584 10.496 8.59338 10.3529 8.46848 10.2435C8.34358 10.1257 8.18299 10.0752 7.99564 10.0752Z" fill="white"/>
</svg>
