<svg width="16" height="16" viewBox="0 0 16 16" fill="none" xmlns="http://www.w3.org/2000/svg">
<circle cx="8" cy="8" r="8" fill="#4C54FF"/>
<path fill-rule="evenodd" clip-rule="evenodd" d="M10.0113 4.69796H10.4595C10.574 4.69796 10.6668 4.60142 10.6668 4.48228C10.6668 4.36314 10.574 4.2666 10.4595 4.2666H5.54083C5.4263 4.2666 5.3335 4.36314 5.3335 4.48228C5.3335 4.60142 5.4263 4.69796 5.54083 4.69796H5.9553V6.41728L7.1825 7.68672C7.27333 7.78121 7.32368 7.90754 7.32467 8.04208C7.32566 8.17662 7.2763 8.30192 7.18645 8.39539L5.95432 9.66482V11.3018H5.54083C5.4263 11.3018 5.3335 11.3983 5.3335 11.5174C5.3335 11.6366 5.4263 11.7331 5.54083 11.7331H10.4595C10.574 11.7331 10.6668 11.6366 10.6668 11.5174C10.6668 11.3983 10.574 11.3018 10.4595 11.3018H10.0113V10.9064H10.0111V9.66687L8.79573 8.39641C8.70589 8.30295 8.65652 8.17765 8.65751 8.04311C8.6585 7.90754 8.70885 7.78121 8.80067 7.68569L10.0111 6.41626V5.19185H10.0113V4.69796Z" fill="white"/>
<path d="M6.88375 6.19727L7.95101 7.30751L9.01926 6.19727H6.88375ZM6.6626 10.401H9.25127V11.0254H6.6626V10.401Z" fill="#4C54FF"/>
</svg>
