<svg width="50" height="4" viewBox="0 0 50 4" fill="none" xmlns="http://www.w3.org/2000/svg">
<path d="M0 2H50" stroke="white" stroke-opacity="0.1" stroke-dasharray="2 2"/>
<path fill-rule="evenodd" clip-rule="evenodd" d="M28.1116 0.0652211C27.9266 -0.0556427 27.6788 -0.00371601 27.5579 0.181203C27.437 0.366121 27.489 0.614007 27.6739 0.734871L29.2135 1.74118L27.7077 2.63419C27.5177 2.74688 27.455 2.99226 27.5677 3.18228C27.6804 3.37229 27.9258 3.43497 28.1158 3.32229L30.1739 2.10172C30.2927 2.03126 30.3667 1.90449 30.3698 1.76639C30.3728 1.6283 30.3043 1.49842 30.1887 1.42285L28.1116 0.0652211ZM26 1.6748C26 2.22709 25.5523 2.6748 25 2.6748C24.4477 2.6748 24 2.22709 24 1.6748C24 1.12252 24.4477 0.674805 25 0.674805C25.5523 0.674805 26 1.12252 26 1.6748ZM22 1.6749C22 2.22719 21.5523 2.6749 21 2.6749C20.4477 2.6749 20 2.22719 20 1.6749C20 1.12262 20.4477 0.674901 21 0.674901C21.5523 0.674901 22 1.12262 22 1.6749Z" fill="#9195FB"/>
</svg>
