<svg width="30" height="30" viewBox="0 0 30 30" fill="none" xmlns="http://www.w3.org/2000/svg">
<rect width="30" height="30" rx="8" fill="white"/>
<path fill-rule="evenodd" clip-rule="evenodd" d="M15.5308 14.0136C15.4554 14.0768 15.3451 14.0758 15.2709 14.0111L11.862 11.0417C11.7039 10.9039 11.8374 10.6466 12.0411 10.6966L17.4166 12.0164C17.5756 12.0554 17.6229 12.2586 17.4974 12.3638L15.5308 14.0136Z" fill="#0F134F"/>
<path fill-rule="evenodd" clip-rule="evenodd" d="M15.0305 14.5469C15.0822 14.5903 15.1085 14.6568 15.1005 14.7239L14.5645 19.2113C14.5398 19.4177 14.2557 19.4541 14.1798 19.2606L11.2873 11.8957C11.2115 11.7027 11.4433 11.5361 11.6021 11.6694L15.0305 14.5469Z" fill="#0F134F"/>
<path fill-rule="evenodd" clip-rule="evenodd" d="M18.5997 12.5117L17.1453 14.0714C17.0261 14.1993 17.1168 14.4078 17.2916 14.4078H18.2943C18.4588 14.4078 18.553 14.5955 18.4545 14.7274L15 19.3559L17.2398 15.2226C17.312 15.0893 17.2155 14.9273 17.0639 14.9273H15.9968C15.8049 14.9273 15.7232 14.6833 15.8763 14.5677L18.5997 12.5117Z" fill="#0F134F" stroke="#0F134F" stroke-width="0.3" stroke-linejoin="round"/>
<path fill-rule="evenodd" clip-rule="evenodd" d="M8.88977 16.6553C8.59235 15.5574 8.59436 14.3919 8.90687 13.2829C9.32775 11.7894 10.2825 10.5025 11.5898 9.6666C12.8971 8.83071 14.4659 8.50408 15.9982 8.74874C17.5305 8.99341 18.9195 9.79233 19.9015 10.9938C20.8835 12.1952 21.39 13.7154 21.3249 15.2658C21.2597 16.8161 20.6275 18.2885 19.5481 19.4033C18.4688 20.5181 17.0177 21.1977 15.4703 21.313C14.3213 21.3985 13.1787 21.1686 12.1619 20.6586C11.982 20.5684 11.806 20.4694 11.6347 20.3618C11.6086 20.3455 11.5816 20.3311 11.5541 20.3186C11.2929 20.2009 10.9767 20.261 10.7992 20.493C10.603 20.7496 10.6508 21.1187 10.9219 21.2944C10.9521 21.3139 10.9825 21.3333 11.0129 21.3524C11.2099 21.4761 11.4121 21.5902 11.6186 21.6945C12.828 22.3054 14.1888 22.5812 15.5571 22.4793C17.3904 22.3427 19.1097 21.5376 20.3884 20.2168C21.6671 18.896 22.4162 17.1516 22.4934 15.3149C22.5706 13.4781 21.9704 11.677 20.807 10.2536C19.6436 8.83023 17.9979 7.88371 16.1826 7.59384C14.3672 7.30397 12.5086 7.69095 10.9598 8.68126C9.41097 9.67158 8.27981 11.1963 7.78117 12.9657C7.40898 14.2864 7.40853 15.6748 7.7665 16.9816C7.82764 17.2048 7.89923 17.4256 7.98122 17.6432C7.9939 17.6769 8.00682 17.7105 8.02 17.744C8.13817 18.0446 8.49042 18.1649 8.78087 18.0237C9.04361 17.896 9.1654 17.598 9.102 17.3186C9.09532 17.2892 9.08657 17.2599 9.07571 17.231C9.0044 17.0417 8.9424 16.8496 8.88977 16.6553Z" fill="#0F134F"/>
</svg>
