<svg width="40" height="40" viewBox="0 0 40 40" fill="none" xmlns="http://www.w3.org/2000/svg">
<rect width="40" height="40" rx="8" fill="white"/>
<mask id="mask0_1097_13" style="mask-type:alpha" maskUnits="userSpaceOnUse" x="18" y="19" width="7" height="7">
<path d="M20.4304 25.2607L24.3825 19.9031H20.9562L18.4119 22.0629L20.4304 25.2607Z" fill="url(#paint0_linear_1097_13)"/>
</mask>
<g mask="url(#mask0_1097_13)">
<path opacity="0.5" d="M20 25.5L24.3825 19.9031H20.9562L19 25.5H20Z" fill="url(#paint1_linear_1097_13)"/>
</g>
<path opacity="0.5" d="M21 19.5L25 16.5L16.5 15.5L21 19.5Z" fill="url(#paint2_radial_1097_13)"/>
<path fill-rule="evenodd" clip-rule="evenodd" d="M20.6305 18.8913C20.5552 18.954 20.4456 18.953 20.3716 18.8889L15.926 15.0417C15.7673 14.9043 15.9003 14.6464 16.1043 14.6962L23.1146 16.406C23.2741 16.4449 23.3214 16.6488 23.1953 16.754L20.6305 18.8913Z" fill="#0F134F"/>
<path fill-rule="evenodd" clip-rule="evenodd" d="M20.0587 19.5393C20.1107 19.5827 20.1372 19.6495 20.1292 19.7168L19.4325 25.5112C19.4077 25.7173 19.1242 25.7539 19.0479 25.5609L15.2884 16.0508C15.2122 15.8581 15.4433 15.6909 15.6024 15.8236L20.0587 19.5393Z" fill="#0F134F"/>
<path fill-rule="evenodd" clip-rule="evenodd" d="M24.5 17L22.606 19.0179C22.4861 19.1456 22.5766 19.3548 22.7518 19.3548H24.2164C24.3813 19.3548 24.4753 19.5431 24.3763 19.6749L20 25.4999L22.8387 20.2957C22.9114 20.1624 22.8149 19.9999 22.6631 19.9999H21.1C20.9078 19.9999 20.8262 19.7553 20.98 19.6399L24.5 17Z" fill="#0F134F" stroke="#0F134F" stroke-width="0.3" stroke-linejoin="round"/>
<mask id="path-8-inside-1_1097_13" fill="white">
<path d="M14.3989 27.3241C14.1373 27.6661 14.2011 28.1583 14.5625 28.3925C16.3888 29.5758 18.5585 30.1351 20.7428 29.9724C23.1872 29.7903 25.4796 28.7168 27.1845 26.9557C28.8895 25.1947 29.8883 22.8688 29.9912 20.4198C30.0941 17.9708 29.2939 15.5693 27.7427 13.6715C26.1915 11.7736 23.9973 10.5116 21.5768 10.1251C19.1563 9.7386 16.6781 10.2546 14.613 11.575C12.548 12.8954 11.0397 14.9283 10.3749 17.2876C9.78077 19.3958 9.89707 21.6334 10.6933 23.6587C10.8509 24.0595 11.3206 24.2199 11.7078 24.0316V24.0316C12.0951 23.8433 12.2527 23.3777 12.1009 22.9747C11.4685 21.2954 11.3854 19.4508 11.8758 17.7105C12.437 15.7192 13.71 14.0033 15.4531 12.8888C17.1962 11.7743 19.2879 11.3387 21.3309 11.665C23.3739 11.9912 25.226 13.0564 26.5353 14.6583C27.8447 16.2602 28.52 18.2872 28.4332 20.3543C28.3463 22.4214 27.5033 24.3846 26.0642 25.8711C24.6251 27.3575 22.6902 28.2636 20.627 28.4173C18.824 28.5516 17.0328 28.1031 15.5129 27.1491C15.1482 26.9202 14.6605 26.982 14.3989 27.3241V27.3241Z"/>
</mask>
<path d="M14.3989 27.3241C14.1373 27.6661 14.2011 28.1583 14.5625 28.3925C16.3888 29.5758 18.5585 30.1351 20.7428 29.9724C23.1872 29.7903 25.4796 28.7168 27.1845 26.9557C28.8895 25.1947 29.8883 22.8688 29.9912 20.4198C30.0941 17.9708 29.2939 15.5693 27.7427 13.6715C26.1915 11.7736 23.9973 10.5116 21.5768 10.1251C19.1563 9.7386 16.6781 10.2546 14.613 11.575C12.548 12.8954 11.0397 14.9283 10.3749 17.2876C9.78077 19.3958 9.89707 21.6334 10.6933 23.6587C10.8509 24.0595 11.3206 24.2199 11.7078 24.0316V24.0316C12.0951 23.8433 12.2527 23.3777 12.1009 22.9747C11.4685 21.2954 11.3854 19.4508 11.8758 17.7105C12.437 15.7192 13.71 14.0033 15.4531 12.8888C17.1962 11.7743 19.2879 11.3387 21.3309 11.665C23.3739 11.9912 25.226 13.0564 26.5353 14.6583C27.8447 16.2602 28.52 18.2872 28.4332 20.3543C28.3463 22.4214 27.5033 24.3846 26.0642 25.8711C24.6251 27.3575 22.6902 28.2636 20.627 28.4173C18.824 28.5516 17.0328 28.1031 15.5129 27.1491C15.1482 26.9202 14.6605 26.982 14.3989 27.3241V27.3241Z" stroke="#0F134F" stroke-width="3" stroke-linejoin="round" mask="url(#path-8-inside-1_1097_13)"/>
<defs>
<linearGradient id="paint0_linear_1097_13" x1="24.1706" y1="20.361" x2="20.5772" y2="25.0798" gradientUnits="userSpaceOnUse">
<stop stop-color="white"/>
<stop offset="1" stop-color="white" stop-opacity="0"/>
</linearGradient>
<linearGradient id="paint1_linear_1097_13" x1="22.1335" y1="22.9565" x2="20.3744" y2="22.0629" gradientUnits="userSpaceOnUse">
<stop stop-color="#1204D3"/>
<stop offset="1" stop-color="#0012F0" stop-opacity="0"/>
</linearGradient>
<radialGradient id="paint2_radial_1097_13" cx="0" cy="0" r="1" gradientUnits="userSpaceOnUse" gradientTransform="translate(21.3805 18.3723) rotate(-120.026) scale(1.6352 3.50237)">
<stop stop-color="#7E75FB"/>
<stop offset="1" stop-color="white" stop-opacity="0"/>
</radialGradient>
</defs>
</svg>
