<svg width="12" height="12" viewBox="0 0 12 12" fill="none" xmlns="http://www.w3.org/2000/svg">
<path d="M2.81532 9.33628C3.00842 9.53117 3.00842 9.84525 2.81532 10.0401L2.53721 10.3208C2.34159 10.5182 2.02249 10.5182 1.82687 10.3208L1.71259 10.2055C1.51949 10.0106 1.51949 9.69649 1.71259 9.50161L1.9907 9.22094C2.18632 9.02351 2.50541 9.02352 2.70104 9.22095L2.81532 9.33628ZM1.63632 6.05073C1.63632 6.32687 1.41246 6.55073 1.13632 6.55073H0.5C0.223857 6.55073 0 6.32687 0 6.05073V5.9501C0 5.67395 0.223858 5.4501 0.5 5.4501H1.13632C1.41246 5.4501 1.63632 5.67395 1.63632 5.9501V6.05073ZM6.54528 11.5C6.54528 11.7761 6.32143 12 6.04528 12H5.9547C5.67856 12 5.4547 11.7761 5.4547 11.5V10.9042C5.4547 10.6281 5.67856 10.4042 5.9547 10.4042H6.04528C6.32143 10.4042 6.54528 10.6281 6.54528 10.9042V11.5ZM10.2476 9.50253C10.4592 9.69371 10.4683 10.0229 10.2676 10.2255L10.1731 10.3208C9.9775 10.5182 9.65841 10.5182 9.46279 10.3208L9.18469 10.0402C8.99158 9.84527 8.99158 9.53116 9.1847 9.33628L9.26378 9.25649C9.45183 9.06672 9.75586 9.05831 9.95411 9.23741L10.2476 9.50253ZM9.18486 2.66386C8.99167 2.46892 8.99173 2.15471 9.18499 1.95984L9.46315 1.67934C9.65866 1.4822 9.97735 1.4821 10.173 1.67913L10.233 1.73957C10.4265 1.93446 10.4266 2.24894 10.2332 2.44394L9.95499 2.7245C9.75934 2.92177 9.44038 2.92172 9.24481 2.72437L9.18486 2.66386ZM10.3636 5.9501C10.3636 5.67395 10.5875 5.4501 10.8636 5.4501H11.5C11.7761 5.4501 12 5.67395 12 5.9501V6.05073C12 6.32687 11.7761 6.55073 11.5 6.55073H10.8636C10.5875 6.55073 10.3636 6.32687 10.3636 6.05073V5.9501ZM6.00042 9.30359C4.20033 9.30359 2.72776 7.81668 2.72776 6.00077C2.72776 4.18416 4.20033 2.69802 6.00042 2.69802C7.80051 2.69802 9.27302 4.18416 9.27302 6.00077C9.27302 7.81668 7.80051 9.30359 6.00042 9.30359ZM5.4547 0.499999C5.4547 0.223857 5.67856 -9.53674e-07 5.9547 -9.53674e-07H6.04528C6.32143 -9.53674e-07 6.54528 0.223857 6.54528 0.499999V1.09656C6.54528 1.3727 6.32143 1.59656 6.04528 1.59656H5.9547C5.67856 1.59656 5.4547 1.3727 5.4547 1.09656V0.499999ZM1.75303 2.49826C1.54113 2.30715 1.53188 1.97774 1.73273 1.77504L1.82702 1.67988C2.02259 1.48251 2.34156 1.48245 2.53721 1.67974L2.8152 1.96005C3.00837 2.15484 3.00852 2.46891 2.81552 2.66388L2.73676 2.74344C2.54885 2.93328 2.2449 2.94188 2.04654 2.76298L1.75303 2.49826Z" fill="white"/>
</svg>
