<svg width="16" height="16" viewBox="0 0 16 16" fill="none" xmlns="http://www.w3.org/2000/svg">
<path d="M3.87 12.5657C4.0631 12.7606 4.0631 13.0747 3.86999 13.2695L3.26456 13.8806C3.06893 14.078 2.74984 14.078 2.55421 13.8805L2.16721 13.49C1.97411 13.2951 1.97411 12.981 2.16722 12.7861L2.77265 12.1751C2.96828 11.9777 3.28737 11.9777 3.483 12.1751L3.87 12.5657ZM2.18176 8.2343C2.18176 8.51045 1.9579 8.7343 1.68176 8.7343H0.5C0.223857 8.7343 0 8.51045 0 8.2343V7.76679C0 7.49065 0.223858 7.26679 0.5 7.26679H1.68176C1.9579 7.26679 2.18176 7.49065 2.18176 7.76679V8.2343ZM8.72705 15.5C8.72705 15.7761 8.50319 16 8.22705 16H7.77293C7.49679 16 7.27293 15.7761 7.27293 15.5V14.3723C7.27293 14.0961 7.49679 13.8723 7.77293 13.8723H8.22705C8.50319 13.8723 8.72705 14.0961 8.72705 14.3723V15.5ZM13.793 12.787C14.0046 12.9782 14.0137 13.3074 13.813 13.51L13.4458 13.8806C13.2502 14.078 12.9311 14.078 12.7354 13.8806L12.13 13.2696C11.9369 13.0747 11.9369 12.7606 12.13 12.5657L12.4637 12.2289C12.6518 12.0392 12.9558 12.0308 13.1541 12.2099L13.793 12.787ZM12.1302 3.43446C11.937 3.23952 11.937 2.9253 12.1303 2.73043L12.7358 2.11987C12.9313 1.92272 13.25 1.92263 13.4456 2.11965L13.7605 2.43679C13.954 2.63167 13.9541 2.94616 13.7607 3.14116L13.1549 3.75204C12.9593 3.94932 12.6403 3.94926 12.4448 3.75191L12.1302 3.43446ZM13.8182 7.76679C13.8182 7.49065 14.042 7.26679 14.3182 7.26679H15.5C15.7761 7.26679 16 7.49065 16 7.76679V8.2343C16 8.51045 15.7761 8.7343 15.5 8.7343H14.3182C14.042 8.7343 13.8182 8.51045 13.8182 8.2343V7.76679ZM8.00056 12.4048C5.60045 12.4048 3.63701 10.4222 3.63701 8.00103C3.63701 5.57888 5.60045 3.59736 8.00056 3.59736C10.4007 3.59736 12.364 5.57888 12.364 8.00103C12.364 10.4222 10.4007 12.4048 8.00056 12.4048ZM7.27293 0.500001C7.27293 0.223858 7.49679 0 7.77293 0H8.22705C8.50319 0 8.72705 0.223858 8.72705 0.5V1.62875C8.72705 1.90489 8.50319 2.12875 8.22705 2.12875H7.77293C7.49679 2.12875 7.27293 1.90489 7.27293 1.62875V0.500001ZM2.20766 3.21403C1.99575 3.02291 1.98651 2.6935 2.18736 2.4908L2.55436 2.12042C2.74993 1.92305 3.06891 1.92298 3.26456 2.12027L3.86987 2.73065C4.06305 2.92545 4.06319 3.23951 3.8702 3.43448L3.53709 3.77099C3.34917 3.96083 3.04523 3.96943 2.84687 3.79053L2.20766 3.21403Z" fill="white"/>
</svg>
