<svg width="80" height="80" viewBox="0 0 80 80" fill="none" xmlns="http://www.w3.org/2000/svg">
<circle cx="40" cy="40" r="40" fill="white" fill-opacity="0.04"/>
<path d="M20 45.9721C20 42.3964 23.0346 40.8164 24.516 40.8164L28.8887 53.6325L59.9991 55.5498C59.9991 59.1255 57.5004 59.5709 56.2306 59.9966H22.5806C21.3108 59.9966 20 59.2666 20 57.351V45.9721Z" fill="url(#paint0_linear_341_9752)"/>
<path d="M20 45.9721C20 42.3964 23.0346 40.8164 24.516 40.8164L28.8887 53.6325L59.9991 55.5498C59.9991 59.1255 57.4595 59.5709 56.1897 59.9966H22.5396C21.2698 59.9966 20 59.2666 20 57.351V45.9721Z" fill="url(#paint1_linear_341_9752)"/>
<path d="M20 57.3526L21.2903 54.707C21.2903 56.2944 23.2257 58.014 23.8709 58.014L22.5806 59.9981C20.6451 59.9981 20 58.6753 20 57.3526Z" fill="url(#paint2_linear_341_9752)" fill-opacity="0.1"/>
<path fill-rule="evenodd" clip-rule="evenodd" d="M24.1583 40.8164C22.5748 40.8164 21.291 42.2162 21.291 43.943V54.8859C21.291 56.6126 22.5748 58.0124 24.1583 58.0124H57.1325C58.7161 58.0124 59.9998 56.6126 59.9998 54.8859V43.943C59.9998 42.2162 58.7161 40.8164 57.1325 40.8164L24.1583 40.8164ZM51.3979 47.0695H30.2238V51.7593H51.3979V47.0695Z" fill="url(#paint3_linear_341_9752)"/>
<path d="M40.2782 51.2188C40.129 51.2188 39.7972 51.2188 39.4737 51.2188C38.9594 51.2188 38.4649 51.0207 38.0929 50.6656L26.2394 39.3514C25.7223 38.8645 25.7223 38.06 26.2394 37.5519L43.4369 20.3811C43.6842 20.1482 44.0214 20 44.3811 20C44.7408 20 45.078 20.127 45.3253 20.3811L58.6338 33.8894C59.1508 34.3764 59.1508 35.1808 58.6338 35.6889L42.4593 50.6854C42.0895 51.0283 41.6038 51.2188 41.0995 51.2188C40.7708 51.2188 40.4301 51.2188 40.2782 51.2188Z" fill="url(#paint4_linear_341_9752)"/>
<path d="M36.4012 35.9998L40.4886 39.9991L48 32.7996" stroke="white" stroke-width="2.5"/>
<defs>
<linearGradient id="paint0_linear_341_9752" x1="44.5156" y1="32.6818" x2="62.8929" y2="90.5283" gradientUnits="userSpaceOnUse">
<stop offset="0.0768632" stop-color="#737373"/>
<stop offset="0.134224" stop-color="#FDFDFD"/>
<stop offset="0.210088" stop-color="#737373" stop-opacity="0.19"/>
<stop offset="0.304868" stop-color="#626161"/>
<stop offset="0.473832" stop-color="#9A9DA0"/>
<stop offset="0.601534" stop-color="#737373" stop-opacity="0.27"/>
<stop offset="1" stop-color="#4B4D48" stop-opacity="0"/>
</linearGradient>
<linearGradient id="paint1_linear_341_9752" x1="78.4114" y1="14.0445" x2="76.481" y2="65.5416" gradientUnits="userSpaceOnUse">
<stop offset="0.045688" stop-color="#49FFDA"/>
<stop offset="0.769023" stop-color="#4449B3" stop-opacity="0.6"/>
<stop offset="0.936631" stop-color="#282931" stop-opacity="0.83"/>
</linearGradient>
<linearGradient id="paint2_linear_341_9752" x1="22.5806" y1="56.6912" x2="21.2455" y2="58.6447" gradientUnits="userSpaceOnUse">
<stop stop-color="white"/>
<stop offset="1" stop-color="#D9D9D9" stop-opacity="0"/>
<stop offset="1" stop-color="white" stop-opacity="0"/>
</linearGradient>
<linearGradient id="paint3_linear_341_9752" x1="40.6454" y1="40.8164" x2="40.6454" y2="58.0124" gradientUnits="userSpaceOnUse">
<stop stop-color="#63688B"/>
<stop offset="1" stop-color="#383F4F"/>
</linearGradient>
<linearGradient id="paint4_linear_341_9752" x1="56.5965" y1="22.4509" x2="45.3046" y2="56.4456" gradientUnits="userSpaceOnUse">
<stop offset="0.045688" stop-color="#49FFDA"/>
<stop offset="0.769023" stop-color="#4449B3" stop-opacity="0.6"/>
<stop offset="0.936631" stop-color="#282931" stop-opacity="0.83"/>
</linearGradient>
</defs>
</svg>
