<svg width="11" height="11" viewBox="0 0 11 11" fill="none" xmlns="http://www.w3.org/2000/svg">
<g clip-path="url(#clip0_84_5397)">
<path d="M9.68157 6.25195C9.68157 5.96203 9.91659 5.72701 10.2065 5.72701C10.4964 5.72701 10.7314 5.96202 10.7314 6.25195V9.68157C10.7314 10.2614 10.2614 10.7314 9.68157 10.7314H1.32917C0.749343 10.7314 0.279297 10.2614 0.279297 9.68157V1.32917C0.279297 0.749343 0.749343 0.279297 1.32917 0.279297H4.75879C5.04871 0.279297 5.28373 0.514314 5.28373 0.804235C5.28373 1.09416 5.04871 1.32917 4.75879 1.32917H1.32917V9.68157H9.68157V6.25195ZM9.71779 2.05414L6.13946 5.62478C5.93148 5.83231 5.59428 5.83231 5.38629 5.62478C5.17833 5.41724 5.17833 5.08076 5.38629 4.87323L8.97645 1.29078H7.1949C6.91499 1.29078 6.68809 1.06437 6.68809 0.785039C6.68809 0.505731 6.91499 0.279308 7.1949 0.279308H9.76865C10.3004 0.279297 10.7314 0.709435 10.7314 1.24004V3.80826C10.7314 4.08757 10.5045 4.314 10.2246 4.314C9.9447 4.314 9.71779 4.08757 9.71779 3.80826V2.05414Z" fill="#0F134F"/>
</g>
<defs>
<clipPath id="clip0_84_5397">
<rect width="11" height="11" fill="white"/>
</clipPath>
</defs>
</svg>
