<svg width="12" height="12" viewBox="0 0 12 12" fill="none" xmlns="http://www.w3.org/2000/svg">
<rect width="12" height="12" rx="1" fill="#4C54FF" fill-opacity="0.2"/>
<path fill-rule="evenodd" clip-rule="evenodd" d="M5.45119 7.92574H6.55812V7.24665C6.55812 7.06709 6.57137 6.92122 6.59531 6.8063C6.61889 6.69314 6.65643 6.59569 6.70624 6.51181L6.70894 6.50696C6.76124 6.41301 6.82885 6.32317 6.9131 6.23766C7.01216 6.14438 7.13218 6.03996 7.27367 5.92422L7.27651 5.92181C7.40885 5.80919 7.53444 5.70004 7.65314 5.5942L7.65764 5.58992C7.78558 5.46824 7.89574 5.33435 7.98744 5.18822C8.0889 5.03764 8.16586 4.86907 8.21927 4.68405C8.27416 4.49387 8.2998 4.27855 8.2998 4.04097C8.2998 3.72241 8.23978 3.43058 8.11512 3.16983C8.00054 2.91589 7.84269 2.70108 7.64131 2.52848C7.44047 2.34937 7.20328 2.21875 6.93304 2.13489C6.67093 2.04447 6.39216 2 6.09796 2C5.52068 2 5.02058 2.16929 4.6093 2.51557C4.20367 2.85591 3.94852 3.32525 3.83751 3.9086L3.7998 4.1067L4.88713 4.3006L4.9177 4.10366C4.96707 3.78565 5.09125 3.53248 5.28673 3.3345C5.48076 3.14471 5.73502 3.04388 6.06686 3.04388C6.22727 3.04388 6.3713 3.06879 6.50067 3.11633L6.50316 3.11721C6.64088 3.16561 6.75723 3.2339 6.85472 3.32082C6.95059 3.4063 7.0279 3.51251 7.08626 3.64226C7.14198 3.76613 7.17214 3.91165 7.17214 4.08288C7.17214 4.32586 7.11988 4.51216 7.02804 4.6541L7.02523 4.65872C6.92702 4.81998 6.80036 4.96365 6.64391 5.09013L6.34585 5.35899L6.34275 5.36191C6.23741 5.46126 6.13215 5.56409 6.02696 5.67038C5.92044 5.77802 5.82248 5.89987 5.73305 6.03543L5.72902 6.04209C5.64325 6.18391 5.57454 6.34285 5.52194 6.5175L5.52041 6.52316C5.47338 6.69744 5.45119 6.89039 5.45119 7.09999V7.92574ZM6.45801 6.59074C6.43783 6.64614 6.42135 6.70453 6.40856 6.76591C6.38091 6.89861 6.36709 7.05924 6.36709 7.24781V7.72855H6.36751V7.24665C6.36751 7.05808 6.38133 6.89745 6.40898 6.76475C6.42167 6.7038 6.43802 6.6458 6.45801 6.59074ZM8.03662 4.62763C8.0256 4.66581 8.0135 4.70308 8.00033 4.73945C8.01334 4.70345 8.0253 4.66656 8.0362 4.62879C8.08458 4.46117 8.10877 4.26562 8.10877 4.04213C8.10877 3.7488 8.05348 3.4869 7.94289 3.25642C7.83922 3.02595 7.69754 2.83389 7.51784 2.68024C7.33815 2.5196 7.12389 2.40088 6.87508 2.32405C6.63318 2.24024 6.374 2.19834 6.09754 2.19834C5.55845 2.19834 5.1023 2.35548 4.72908 2.66976C4.46084 2.89479 4.26302 3.18348 4.13562 3.53584C4.26301 3.18296 4.46097 2.89388 4.7295 2.66861C5.10272 2.35432 5.55887 2.19718 6.09796 2.19718C6.37442 2.19718 6.6336 2.23909 6.8755 2.3229C7.12431 2.39972 7.33856 2.51845 7.51826 2.67908C7.69796 2.83273 7.83964 3.02479 7.94331 3.25527C8.0539 3.48574 8.10919 3.74764 8.10919 4.04097C8.10919 4.26446 8.085 4.46002 8.03662 4.62763ZM7.2872 4.55951C7.26064 4.63303 7.22708 4.70113 7.18651 4.76382C7.07593 4.94541 6.93424 5.10604 6.76146 5.24572L6.47118 5.50762C6.36751 5.6054 6.26384 5.70667 6.16016 5.81143C6.0634 5.90921 5.97356 6.02095 5.89062 6.14667C5.83291 6.24209 5.78316 6.34758 5.74138 6.46312C5.78308 6.34803 5.83268 6.24293 5.8902 6.14782C5.97314 6.02211 6.06299 5.91036 6.15975 5.81259C6.26342 5.70783 6.36709 5.60656 6.47076 5.50878L6.76104 5.24688C6.93383 5.1072 7.07551 4.94656 7.18609 4.76498C7.22687 4.70196 7.26057 4.63347 7.2872 4.55951ZM6.07723 10C6.28883 10 6.47539 9.92661 6.61907 9.77173L6.623 9.76737C6.7552 9.61597 6.82767 9.43722 6.82767 9.23711C6.82767 9.03746 6.75541 8.86088 6.62105 8.71509C6.47863 8.55322 6.29164 8.47422 6.07723 8.47422C5.86281 8.47422 5.67582 8.55322 5.53341 8.71509C5.39904 8.86088 5.32678 9.03746 5.32678 9.23711C5.32678 9.43722 5.39919 9.61603 5.53139 9.76743L5.53538 9.77173C5.67906 9.92661 5.86562 10 6.07723 10ZM5.54978 9.04725C5.5755 8.97617 5.61654 8.91025 5.67291 8.84949C5.77658 8.73076 5.91135 8.6714 6.07723 8.6714C6.2431 8.6714 6.37787 8.73076 6.48155 8.84949C6.58522 8.96124 6.63705 9.09044 6.63705 9.23711C6.63705 9.30539 6.62582 9.37064 6.60335 9.43287C6.62554 9.37099 6.63664 9.30612 6.63664 9.23826C6.63664 9.0916 6.5848 8.96239 6.48113 8.85065C6.37746 8.73192 6.24268 8.67256 6.07681 8.67256C5.91093 8.67256 5.77616 8.73192 5.67249 8.85065C5.61643 8.91108 5.57552 8.97661 5.54978 9.04725Z" fill="#4C54FF"/>
</svg>
