<svg width="14" height="14" viewBox="0 0 14 14" fill="none" xmlns="http://www.w3.org/2000/svg">
<rect width="14" height="14" rx="2" fill="#4B52DF" fill-opacity="0.08"/>
<path fill-rule="evenodd" clip-rule="evenodd" d="M6.35972 9.24539H7.65115V8.45313C7.65115 8.24363 7.6666 8.07346 7.69453 7.93938C7.72204 7.80737 7.76584 7.69367 7.82395 7.59581L7.82709 7.59016C7.88811 7.48054 7.96699 7.37574 8.06528 7.27597C8.18085 7.16714 8.32087 7.04532 8.48595 6.91029L8.48926 6.90747C8.64365 6.77609 8.79018 6.64874 8.92866 6.52527L8.93391 6.52028C9.08318 6.37832 9.2117 6.2221 9.31868 6.05162C9.43705 5.87595 9.52684 5.67928 9.58914 5.46342C9.65319 5.24154 9.68311 4.99034 9.68311 4.71317C9.68311 4.34151 9.61307 4.00104 9.46764 3.69684C9.33396 3.40057 9.1498 3.14996 8.91487 2.94859C8.68055 2.73963 8.40383 2.58724 8.08855 2.4894C7.78275 2.38391 7.45752 2.33203 7.11429 2.33203C6.4408 2.33203 5.85735 2.52953 5.37751 2.93353C4.90428 3.3306 4.60661 3.87816 4.47709 4.55873L4.43311 4.78985L5.70166 5.01607L5.73732 4.78631C5.79492 4.41529 5.93979 4.11992 6.16785 3.88895C6.39423 3.66753 6.69086 3.54989 7.078 3.54989C7.26515 3.54989 7.43318 3.57896 7.58412 3.63442L7.58702 3.63544C7.74769 3.69192 7.88344 3.77158 7.99717 3.87298C8.10903 3.97272 8.19921 4.09663 8.2673 4.248C8.33231 4.39252 8.36749 4.56229 8.36749 4.76205C8.36749 5.04553 8.30653 5.26288 8.19938 5.42848L8.1961 5.43387C8.08153 5.62201 7.93376 5.78963 7.75123 5.93718L7.4035 6.25085L7.39988 6.25426C7.27698 6.37017 7.15417 6.49013 7.03146 6.61414C6.90718 6.73973 6.79289 6.88188 6.68856 7.04003L6.68385 7.0478C6.58379 7.21326 6.50363 7.39869 6.44226 7.60245L6.44048 7.60905C6.38561 7.81238 6.35972 8.03748 6.35972 8.28202V9.24539ZM7.53434 7.68789C7.5108 7.75253 7.49157 7.82065 7.47665 7.89226C7.4444 8.04707 7.42827 8.23448 7.42827 8.45448V9.01534H7.42876V8.45313C7.42876 8.23313 7.44489 8.04572 7.47714 7.89091C7.49195 7.8198 7.51102 7.75213 7.53434 7.68789ZM9.37605 5.3976C9.3632 5.44214 9.34909 5.48563 9.33372 5.52806C9.3489 5.48606 9.36285 5.44302 9.37557 5.39895C9.43201 5.2034 9.46023 4.97525 9.46023 4.71451C9.46023 4.3723 9.39572 4.06674 9.26671 3.79786C9.14576 3.52897 8.98046 3.3049 8.77082 3.12564C8.56117 2.93824 8.31121 2.79972 8.02093 2.71009C7.73871 2.61231 7.43633 2.56343 7.1138 2.56343C6.48486 2.56343 5.95268 2.74676 5.51726 3.11342C5.20432 3.37595 4.97353 3.71276 4.82489 4.12384C4.97351 3.71215 5.20446 3.37489 5.51775 3.11207C5.95317 2.74541 6.48535 2.56208 7.11429 2.56208C7.43682 2.56208 7.7392 2.61097 8.02141 2.70874C8.31169 2.79837 8.56166 2.93689 8.7713 3.12429C8.98095 3.30355 9.14625 3.52762 9.2672 3.79651C9.39621 4.0654 9.46072 4.37095 9.46072 4.71317C9.46072 4.9739 9.4325 5.20205 9.37605 5.3976ZM8.50173 5.31813C8.47075 5.4039 8.43159 5.48335 8.38426 5.55649C8.25525 5.76834 8.08995 5.95575 7.88837 6.11871L7.54971 6.42426C7.42876 6.53833 7.30781 6.65648 7.18686 6.7787C7.07397 6.89277 6.96915 7.02314 6.87239 7.16981C6.80506 7.28114 6.74703 7.4042 6.69828 7.53901C6.74692 7.40473 6.8048 7.28211 6.8719 7.17116C6.96866 7.02449 7.07348 6.89412 7.18637 6.78005C7.30732 6.65783 7.42827 6.53968 7.54922 6.42561L7.88788 6.12006C8.08946 5.95709 8.25476 5.76969 8.38378 5.55784C8.43135 5.48431 8.47067 5.40441 8.50173 5.31813ZM7.0901 11.6654C7.33697 11.6654 7.55462 11.5797 7.72225 11.3991L7.72684 11.394C7.88106 11.2173 7.96562 11.0088 7.96562 10.7753C7.96562 10.5424 7.88131 10.3364 7.72456 10.1663C7.5584 9.97745 7.34025 9.88528 7.0901 9.88528C6.83995 9.88528 6.62179 9.97745 6.45564 10.1663C6.29888 10.3364 6.21458 10.5424 6.21458 10.7753C6.21458 11.0088 6.29906 11.2174 6.45329 11.394L6.45794 11.3991C6.62557 11.5797 6.84322 11.6654 7.0901 11.6654ZM6.47474 10.5538C6.50475 10.4709 6.55263 10.394 6.61839 10.3231C6.73934 10.1846 6.89658 10.1153 7.0901 10.1153C7.28362 10.1153 7.44085 10.1846 7.5618 10.3231C7.68275 10.4535 7.74323 10.6042 7.74323 10.7753C7.74323 10.855 7.73012 10.9311 7.7039 11.0037C7.7298 10.9315 7.74274 10.8558 7.74274 10.7767C7.74274 10.6056 7.68227 10.4548 7.56132 10.3245C7.44037 10.1859 7.28313 10.1167 7.08961 10.1167C6.89609 10.1167 6.73886 10.1859 6.61791 10.3245C6.5525 10.395 6.50478 10.4714 6.47474 10.5538Z" fill="#22232B" fill-opacity="0.6"/>
</svg>
