<svg width="10" height="6" viewBox="0 0 10 6" fill="none" xmlns="http://www.w3.org/2000/svg">
<g opacity="0.3">
<path d="M0.646447 4.64645C0.451184 4.84171 0.451184 5.15829 0.646447 5.35355C0.841709 5.54882 1.15829 5.54882 1.35355 5.35355L0.646447 4.64645ZM5 1L5.35355 0.646447C5.15829 0.451184 4.84171 0.451184 4.64645 0.646447L5 1ZM8.64645 5.35355C8.84171 5.54882 9.15829 5.54882 9.35355 5.35355C9.54882 5.15829 9.54882 4.84171 9.35355 4.64645L8.64645 5.35355ZM1.35355 5.35355L5.35355 1.35355L4.64645 0.646447L0.646447 4.64645L1.35355 5.35355ZM4.64645 1.35355L8.64645 5.35355L9.35355 4.64645L5.35355 0.646447L4.64645 1.35355Z" fill="#545669"/>
</g>
</svg>
