<svg width="11" height="11" viewBox="0 0 11 11" fill="none" xmlns="http://www.w3.org/2000/svg">
<g clip-path="url(#clip0_844_85)">
<path d="M9.68157 5.97266C9.68157 5.68274 9.91659 5.44772 10.2065 5.44772C10.4964 5.44772 10.7314 5.68272 10.7314 5.97266V9.40227C10.7314 9.9821 10.2614 10.4521 9.68157 10.4521H1.32917C0.749343 10.4521 0.279297 9.9821 0.279297 9.40227V1.04988C0.279297 0.470046 0.749343 0 1.32917 0H4.75879C5.04871 0 5.28373 0.235018 5.28373 0.524938C5.28373 0.814859 5.04871 1.04988 4.75879 1.04988H1.32917V9.40227H9.68157V5.97266ZM9.71779 1.77485L6.13946 5.34548C5.93148 5.55301 5.59428 5.55301 5.38629 5.34548C5.17833 5.13795 5.17833 4.80147 5.38629 4.59393L8.97645 1.01148H7.1949C6.91499 1.01148 6.68809 0.785071 6.68809 0.505742C6.68809 0.226435 6.91499 1.07363e-05 7.1949 1.07363e-05H9.76865C10.3004 -5.90137e-09 10.7314 0.430139 10.7314 0.960738V3.52896C10.7314 3.80828 10.5045 4.0347 10.2246 4.0347C9.9447 4.0347 9.71779 3.80828 9.71779 3.52896V1.77485Z" fill="#545669" fill-opacity="0.5"/>
</g>
<defs>
<clipPath id="clip0_844_85">
<rect width="11" height="11" fill="white"/>
</clipPath>
</defs>
</svg>
