<svg width="17" height="14" viewBox="0 0 17 14" fill="none" xmlns="http://www.w3.org/2000/svg">
<path d="M16.252 1.56836C15.6543 1.82617 15.0039 2.01172 14.334 2.08398C15.0254 1.67188 15.5508 1.02148 15.7988 0.248047C15.1602 0.628906 14.4375 0.908203 13.6855 1.05273C13.0762 0.402344 12.2109 0 11.252 0C9.40625 0 7.92188 1.49609 7.92188 3.33203C7.92188 3.58984 7.95313 3.84766 8.00391 4.0957C5.24024 3.95117 2.77539 2.63086 1.13672 0.609375C0.847656 1.10547 0.683594 1.67187 0.683594 2.29102C0.683594 3.44727 1.27148 4.4668 2.16797 5.06641C1.62109 5.04492 1.10547 4.89063 0.66211 4.64258V4.68359C0.66211 6.30273 1.80664 7.64453 3.33203 7.95313C3.05274 8.02539 2.75391 8.06641 2.45508 8.06641C2.23828 8.06641 2.0332 8.04492 1.82617 8.01563C2.24805 9.33594 3.47656 10.2949 4.93945 10.3262C3.79492 11.2227 2.36133 11.75 0.804688 11.75C0.525391 11.75 0.267578 11.7402 0 11.709C1.47656 12.6562 3.22852 13.2031 5.11524 13.2031C11.2402 13.2031 14.5918 8.12891 14.5918 3.72461C14.5918 3.58008 14.5918 3.43555 14.582 3.29102C15.2305 2.81641 15.7988 2.22852 16.252 1.56836Z" fill="#22232B"/>
</svg>
