<svg width="12" height="12" viewBox="0 0 12 12" fill="none" xmlns="http://www.w3.org/2000/svg">
<path d="M11.0769 6.46156C11.0769 7.55696 10.7521 8.62777 10.1435 9.53856C9.53495 10.4494 8.66996 11.1592 7.65794 11.5784C6.64592 11.9976 5.53232 12.1073 4.45796 11.8936C3.38361 11.6799 2.39675 11.1524 1.62218 10.3778C0.84761 9.60327 0.320123 8.61641 0.10642 7.54206C-0.107283 6.4677 0.00239725 5.3541 0.42159 4.34208C0.840783 3.33006 1.55066 2.46507 2.46146 1.85649C3.37225 1.24792 4.44306 0.923096 5.53846 0.923096V4.12957C5.07724 4.12957 4.62637 4.26634 4.24288 4.52258C3.85939 4.77882 3.56049 5.14303 3.38399 5.56915C3.20749 5.99526 3.16131 6.46414 3.25129 6.9165C3.34127 7.36887 3.56337 7.78439 3.8895 8.11052C4.21563 8.43665 4.63115 8.65875 5.08351 8.74873C5.53587 8.83871 6.00476 8.79253 6.43087 8.61603C6.85699 8.43953 7.22119 8.14063 7.47744 7.75714C7.73368 7.37365 7.87045 6.92278 7.87045 6.46156H11.0769Z" fill="#3E54CB"/>
<path d="M12 5.53846C12 4.81114 11.8567 4.09094 11.5784 3.41898C11.3001 2.74703 10.8921 2.13647 10.3778 1.62218C9.86353 1.10788 9.25298 0.699924 8.58102 0.42159C7.90906 0.143256 7.18886 -3.17922e-08 6.46154 0L6.46154 3.55837C6.72157 3.55837 6.97905 3.60959 7.21929 3.7091C7.45952 3.80861 7.67781 3.95446 7.86168 4.13833C8.04554 4.3222 8.1914 4.54048 8.2909 4.78071C8.39041 5.02095 8.44163 5.27843 8.44163 5.53846H12Z" fill="#3E54CB" fill-opacity="0.2"/>
</svg>
