<svg width="26" height="26" viewBox="0 0 26 26" fill="none" xmlns="http://www.w3.org/2000/svg">
<rect width="26" height="26" rx="6" fill="url(#paint0_radial_102_47)"/>
<path d="M7.89197 9.3456C10.9875 6.21813 16.0125 6.21813 19.108 9.3456L19.4807 9.72487C19.637 9.88031 19.637 10.1352 19.4807 10.2907L18.2064 11.5777C18.1283 11.6585 18.0021 11.6585 17.9239 11.5777L17.413 11.0617C15.2491 8.87927 11.7509 8.87927 9.587 11.0617L9.04002 11.615C8.96188 11.6959 8.83565 11.6959 8.75751 11.615L7.48323 10.328C7.32695 10.1725 7.32695 9.91762 7.48323 9.76218L7.89197 9.3456ZM21.7468 12.0067L22.8828 13.1508C23.0391 13.3062 23.0391 13.5611 22.8828 13.7166L17.7676 18.8834C17.6114 19.0389 17.3589 19.0389 17.2086 18.8834L13.5781 15.215C13.5421 15.1777 13.476 15.1777 13.4399 15.215L9.8094 18.8834C9.65312 19.0389 9.40066 19.0389 9.2504 18.8834L4.11721 13.7166C3.96093 13.5611 3.96093 13.3062 4.11721 13.1508L5.25324 12.0067C5.40952 11.8513 5.66198 11.8513 5.81224 12.0067L9.44274 15.6751C9.47881 15.7124 9.54492 15.7124 9.58099 15.6751L13.2115 12.0067C13.3678 11.8513 13.6202 11.8513 13.7705 12.0067L17.401 15.6751C17.437 15.7124 17.5032 15.7124 17.5392 15.6751L21.1697 12.0067C21.338 11.8513 21.5905 11.8513 21.7468 12.0067Z" fill="white"/>
<defs>
<radialGradient id="paint0_radial_102_47" cx="0" cy="0" r="1" gradientUnits="userSpaceOnUse" gradientTransform="translate(8.05855e-05 13.0004) scale(26)">
<stop stop-color="#5D9DF6"/>
<stop offset="1" stop-color="#006FFF"/>
</radialGradient>
</defs>
</svg>
