<svg width="12" height="10" viewBox="0 0 12 10" fill="none" xmlns="http://www.w3.org/2000/svg">
<path d="M6.85749 1.42916C6.46909 0.781817 5.53091 0.781816 5.14251 1.42915L0.908698 8.4855C0.508783 9.15203 0.988896 10 1.76619 10H10.2338C11.0111 10 11.4912 9.15203 11.0913 8.4855L6.85749 1.42916ZM6.6 8.5C6.6 8.77614 6.37614 9 6.1 9H5.9C5.62386 9 5.4 8.77614 5.4 8.5C5.4 8.22386 5.62386 8 5.9 8H6.1C6.37614 8 6.6 8.22386 6.6 8.5ZM6 7.25C5.66863 7.25 5.4 6.98137 5.4 6.65V4.35C5.4 4.01863 5.66863 3.75 6 3.75C6.33137 3.75 6.6 4.01863 6.6 4.35V6.65C6.6 6.98137 6.33137 7.25 6 7.25Z" fill="#FF5266"/>
</svg>
