<svg width="12" height="12" viewBox="0 0 12 12" fill="none" xmlns="http://www.w3.org/2000/svg">
<path fill-rule="evenodd" clip-rule="evenodd" d="M6 12C9.31371 12 12 9.31371 12 6C12 2.68629 9.31371 0 6 0C2.68629 0 0 2.68629 0 6C0 9.31371 2.68629 12 6 12ZM6.21818 9C6.51943 9 6.76364 8.75579 6.76364 8.45455C6.76364 8.1533 6.51943 7.90909 6.21818 7.90909H6C5.69875 7.90909 5.45455 8.1533 5.45455 8.45455C5.45455 8.75579 5.69875 9 6 9H6.21818ZM5.45455 6.43636C5.45455 6.79786 5.7476 7.09091 6.10909 7.09091C6.47059 7.09091 6.76364 6.79786 6.76364 6.43636V3.92727C6.76364 3.56578 6.47059 3.27273 6.10909 3.27273C5.7476 3.27273 5.45455 3.56578 5.45455 3.92727V6.43636Z" fill="#F58721"/>
</svg>
