<svg width="12" height="13" viewBox="0 0 12 13" fill="none" xmlns="http://www.w3.org/2000/svg">
<path fill-rule="evenodd" clip-rule="evenodd" d="M6 13C9.31371 13 12 10.3137 12 7C12 3.68629 9.31371 1 6 1C2.68629 1 0 3.68629 0 7C0 10.3137 2.68629 13 6 13ZM6.21818 10C6.51943 10 6.76364 9.75579 6.76364 9.45455C6.76364 9.1533 6.51943 8.90909 6.21818 8.90909H6C5.69875 8.90909 5.45455 9.1533 5.45455 9.45455C5.45455 9.75579 5.69875 10 6 10H6.21818ZM5.45455 7.43636C5.45455 7.79786 5.7476 8.09091 6.10909 8.09091C6.47059 8.09091 6.76364 7.79786 6.76364 7.43636V4.92727C6.76364 4.56578 6.47059 4.27273 6.10909 4.27273C5.7476 4.27273 5.45455 4.56578 5.45455 4.92727V7.43636Z" fill="#F58721"/>
</svg>
