<svg width="12" height="12" viewBox="0 0 12 12" fill="none" xmlns="http://www.w3.org/2000/svg">
<path d="M6.85749 2.42916C6.46909 1.78182 5.53091 1.78182 5.14251 2.42915L0.908698 9.4855C0.508783 10.152 0.988896 11 1.76619 11H10.2338C11.0111 11 11.4912 10.152 11.0913 9.4855L6.85749 2.42916ZM6.6 9.5C6.6 9.77614 6.37614 10 6.1 10H5.9C5.62386 10 5.4 9.77614 5.4 9.5C5.4 9.22386 5.62386 9 5.9 9H6.1C6.37614 9 6.6 9.22386 6.6 9.5ZM6 8.25C5.66863 8.25 5.4 7.98137 5.4 7.65V5.35C5.4 5.01863 5.66863 4.75 6 4.75C6.33137 4.75 6.6 5.01863 6.6 5.35V7.65C6.6 7.98137 6.33137 8.25 6 8.25Z" fill="#FF5266"/>
</svg>
