<svg width="16" height="14" viewBox="0 0 16 14" fill="none" xmlns="http://www.w3.org/2000/svg">
<path d="M15.8453 12.308L8.98868 0.563257C8.54927 -0.187752 7.45073 -0.187752 7.02048 0.563257L0.154652 12.308C-0.28476 13.059 0.264505 14 1.14333 14H14.8567C15.7355 13.991 16.2848 13.059 15.8453 12.308ZM7.4782 4.87025C7.4782 4.58071 7.71621 4.3545 8 4.3545C8.29294 4.3545 8.5218 4.58976 8.5218 4.87025V10.1364C8.5218 10.4259 8.28379 10.6521 8 10.6521C7.70706 10.6521 7.4782 10.4169 7.4782 10.1364V4.87025ZM8 12.2989C7.70706 12.2989 7.45989 12.0637 7.45989 11.7651C7.45989 11.4755 7.6979 11.2312 8 11.2312C8.29294 11.2312 8.54011 11.4665 8.54011 11.7651C8.54011 12.0637 8.29294 12.2989 8 12.2989Z" fill="#EE790D"/>
</svg>
