<svg width="80" height="80" viewBox="0 0 80 80" fill="none" xmlns="http://www.w3.org/2000/svg">
<circle cx="40" cy="40" r="40" fill="#4B52DF" fill-opacity="0.04"/>
<path d="M20 45.9708C20 42.3951 23.0346 40.8151 24.516 40.8151L28.8887 53.6311L59.9991 55.5485C59.9991 59.1242 57.5004 59.5696 56.2306 59.9952H22.5806C21.3108 59.9952 20 59.2652 20 57.3497V45.9708Z" fill="url(#paint0_linear_269_26751)" fill-opacity="0.5"/>
<path d="M20 45.9708C20 42.3951 23.0346 40.8151 24.516 40.8151L28.8887 53.6311L59.9991 55.5485C59.9991 59.1242 57.4595 59.5696 56.1897 59.9952H22.5396C21.2698 59.9952 20 59.2652 20 57.3497V45.9708Z" fill="url(#paint1_linear_269_26751)" fill-opacity="0.8"/>
<path d="M20 57.3532L21.2903 54.7076C21.2903 56.295 23.2257 58.0146 23.8709 58.0146L22.5806 59.9987C20.6451 59.9987 20 58.676 20 57.3532Z" fill="url(#paint2_linear_269_26751)" fill-opacity="0.1"/>
<path fill-rule="evenodd" clip-rule="evenodd" d="M24.1593 40.8151C22.5757 40.8151 21.292 42.2149 21.292 43.9416V54.8845C21.292 56.6113 22.5757 58.0111 24.1593 58.0111H57.1335C58.7171 58.0111 60.0008 56.6113 60.0008 54.8845V43.9416C60.0008 42.2149 58.7171 40.8151 57.1335 40.8151L24.1593 40.8151ZM51.3989 47.0682H30.2248V51.758H51.3989V47.0682Z" fill="url(#paint3_linear_269_26751)"/>
<g filter="url(#filter0_b_269_26751)">
<path d="M40.2792 51.2188C39.942 51.2188 38.6735 51.2188 38.6735 51.2188L26.2403 39.3514C25.7233 38.8645 25.7233 38.06 26.2403 37.5519L43.4379 20.3811C43.6852 20.1482 44.0224 20 44.3821 20C44.7418 20 45.079 20.127 45.3263 20.3811L58.6347 33.8894C59.1518 34.3764 59.1518 35.1808 58.6347 35.6889L41.885 51.2188C41.885 51.2188 40.6164 51.2188 40.2792 51.2188Z" fill="url(#paint4_linear_269_26751)"/>
</g>
<path d="M36.4002 35.9992L40.4876 39.9984L47.999 32.799" stroke="white" stroke-width="2.5"/>
<defs>
<filter id="filter0_b_269_26751" x="22.8525" y="17" width="39.1699" height="37.2189" filterUnits="userSpaceOnUse" color-interpolation-filters="sRGB">
<feFlood flood-opacity="0" result="BackgroundImageFix"/>
<feGaussianBlur in="BackgroundImageFix" stdDeviation="1.5"/>
<feComposite in2="SourceAlpha" operator="in" result="effect1_backgroundBlur_269_26751"/>
<feBlend mode="normal" in="SourceGraphic" in2="effect1_backgroundBlur_269_26751" result="shape"/>
</filter>
<linearGradient id="paint0_linear_269_26751" x1="44.5156" y1="32.6805" x2="54.3198" y2="63.4828" gradientUnits="userSpaceOnUse">
<stop offset="0.0768632" stop-color="#737373"/>
<stop offset="0.134224" stop-color="#FDFDFD"/>
<stop offset="0.210088" stop-color="#737373" stop-opacity="0.19"/>
<stop offset="0.304868" stop-color="#626161"/>
<stop offset="0.473832" stop-color="#9A9DA0"/>
<stop offset="0.601534" stop-color="#737373" stop-opacity="0.27"/>
<stop offset="1" stop-color="#4B4D48" stop-opacity="0"/>
</linearGradient>
<linearGradient id="paint1_linear_269_26751" x1="14.8388" y1="38.5332" x2="11.074" y2="59.2672" gradientUnits="userSpaceOnUse">
<stop stop-color="#3EBDA4"/>
<stop offset="1" stop-color="#4C54FF" stop-opacity="0"/>
</linearGradient>
<linearGradient id="paint2_linear_269_26751" x1="22.5806" y1="56.6918" x2="21.2455" y2="58.6453" gradientUnits="userSpaceOnUse">
<stop stop-color="white"/>
<stop offset="1" stop-color="#D9D9D9" stop-opacity="0"/>
<stop offset="1" stop-color="white" stop-opacity="0"/>
</linearGradient>
<linearGradient id="paint3_linear_269_26751" x1="40.6464" y1="40.8151" x2="40.6464" y2="58.0111" gradientUnits="userSpaceOnUse">
<stop stop-color="#969CCB"/>
<stop offset="1" stop-color="#E3E5F7"/>
</linearGradient>
<linearGradient id="paint4_linear_269_26751" x1="24.0098" y1="51.2188" x2="39.4873" y2="60.4739" gradientUnits="userSpaceOnUse">
<stop stop-color="#39E9C5" stop-opacity="0.69"/>
<stop offset="1" stop-color="#6167FF"/>
</linearGradient>
</defs>
</svg>
