<svg width="12" height="10" viewBox="0 0 12 10" fill="none" xmlns="http://www.w3.org/2000/svg">
<path d="M9.40094 9.31399C9.50009 9.40955 9.62411 9.45738 9.74811 9.45738C9.75215 9.45738 9.86372 9.47061 9.92165 9.43347C9.99601 9.3857 10.0456 9.33778 10.0952 9.29001L11.5993 7.74624C11.7976 7.55503 11.7976 7.2681 11.5993 7.10077C11.5001 7.00518 11.3761 6.95738 11.2522 6.95738C11.1282 6.95738 11.0042 7.00518 10.9051 7.10077L10.1944 7.8797L10.1944 3.91155C10.1944 3.64859 9.97118 3.45738 9.72325 3.45738C9.4753 3.45738 9.25219 3.67257 9.25219 3.91155L9.25219 8.95535C9.2522 9.07494 9.30174 9.21833 9.40094 9.31399Z" fill="#4C54FF"/>
<rect x="0.252075" y="0.459717" width="11" height="1" rx="0.5" fill="#4C54FF"/>
<rect x="0.252075" y="4.45972" width="7" height="1" rx="0.5" fill="#4C54FF"/>
<rect x="0.252075" y="8.45972" width="7" height="1" rx="0.5" fill="#4C54FF"/>
</svg>
