<svg width="117" height="52" viewBox="0 0 117 52" fill="none" xmlns="http://www.w3.org/2000/svg">
<path d="M117 2.02193C117 0.905249 116.095 0 114.978 0H32.6969C31.5802 0 30.6749 0.905248 30.6749 2.02193V23.3703C30.6749 24.487 31.5802 25.3922 32.6969 25.3922H110.119L108.943 30.7351C108.804 31.3679 109.551 31.8135 110.041 31.3905L116.298 25.9972C116.744 25.6131 117 25.054 117 24.4657V2.02193Z" fill="#4C54FF" fill-opacity="0.06"/>
<rect x="36.9727" y="6.19092" width="13.8558" height="13.6192" rx="1.2" fill="white"/>
<path d="M46.9244 9.55814C46.9244 9.55814 46.9787 9.46982 46.9206 9.22479C46.8625 8.97975 45.1892 7.08661 43.3959 8.10159C42.2757 8.73595 42.0206 9.74098 41.9233 10.5209C41.9183 10.5657 41.9132 10.6104 41.9082 10.654C41.8627 10.8468 41.7112 11.3182 41.2249 12.4526C41.0229 13.0596 41.1037 13.4763 41.1896 13.6616C41.1908 14.3731 41.3441 14.4894 41.3441 14.4894L41.5205 14.5601C41.4523 14.3324 41.504 14.1206 41.5609 13.8967C41.5609 13.8967 41.3491 14.467 41.6155 14.4894L43.2442 13.6567L44.33 13.9343L45.4157 14.1169L45.9586 14.4894L46.4205 14.8196C46.4205 14.8196 46.4205 14.8196 46.6504 14.1169C47.1202 13.0223 46.8878 11.6043 46.8878 11.6043H46.788L46.7754 11.0607L46.9812 10.7112C47.0974 9.65018 46.9244 9.55814 46.9244 9.55814ZM41.1896 13.628C41.1744 13.5733 41.1568 13.5011 41.1492 13.4651C41.1365 13.4029 41.0532 12.827 41.5205 12.072C41.2742 12.6727 41.1934 13.2001 41.1896 13.628ZM46.23 14.767C46.1972 14.3466 46.4205 14.2213 46.4205 14.2213C46.2627 14.5099 46.23 14.767 46.23 14.767Z" fill="#3054A8"/>
<path d="M43.0532 13.6284C43.0532 13.6284 40.6108 14.9792 40.1928 15.8873C39.7747 16.7953 39.6699 17.6722 39.6699 17.6722H47.7512C47.7512 17.6722 47.9167 15.6746 47.0806 15.1907C46.2446 14.7068 45.7925 14.575 45.5816 14.2143C45.3719 13.856 43.0532 13.6284 43.0532 13.6284Z" fill="url(#paint0_linear_269_26325)"/>
<path d="M43.2589 12.2158C43.2589 12.2158 43.3132 13.2246 43.0316 13.6239C43.0139 13.6487 43.0202 13.6823 43.0442 13.6997C44.3917 14.66 45.2391 14.4336 45.4892 14.3291C45.5347 14.3105 45.5624 14.2657 45.5599 14.2172C45.5549 14.1102 45.5561 13.9124 45.6332 13.7868C45.6812 13.7072 44.119 12.589 43.509 12.2158C43.365 12.1263 43.2589 12.2158 43.2589 12.2158Z" fill="#CF9C94"/>
<path d="M43.4834 12.4785C43.4834 12.4785 44.3283 14.3442 45.3222 14.047C46.3944 13.726 43.8875 11.9436 43.8875 11.9436L43.4834 12.4785Z" fill="#C7776A"/>
<path d="M43.4024 12.2763C43.4024 12.2763 43.6575 13.1669 44.6375 13.5711C44.9027 13.6818 45.4483 13.9094 45.6352 13.9455C45.7514 13.9679 46.254 14.0264 46.3866 13.7005C46.4864 13.4753 46.5268 13.2116 46.5988 13.0487C46.6708 12.8857 46.8968 11.7613 46.9208 11.6282C46.9448 11.4951 46.9297 11.2538 46.9347 11.158C46.9398 11.0623 47.0219 10.8433 47.0219 10.7625C47.0219 10.6816 46.9916 10.5796 46.9827 10.5063C46.9676 10.3856 46.9524 9.83706 46.917 9.73383C46.8817 9.62934 46.8413 9.40794 46.6001 9.35196C45.2311 9.09075 43.6083 10.8197 43.4479 11.1307C43.4239 11.0846 43.3696 11.0013 43.3317 10.9553C43.285 10.8856 43.0791 10.7401 42.9642 10.7314C42.8505 10.7214 42.6838 10.7737 42.6181 10.8433C42.5537 10.913 42.5171 11.1817 42.5676 11.4578C42.6181 11.7339 42.9604 12.2016 43.0021 12.2402C43.213 12.4442 43.4024 12.2763 43.4024 12.2763Z" fill="#EFBBB4"/>
<path d="M43.4114 10.9377C43.4114 10.9377 43.4354 11.1516 43.5048 11.271C43.5048 11.271 43.7473 10.9066 44.1312 10.9377C44.5152 10.97 45.2729 10.6516 45.7036 10.2076C46.1342 9.7635 46.3843 9.47742 46.6192 9.54085C46.6192 9.54085 46.6053 9.46995 46.5674 9.4513C46.6015 9.43513 46.8983 9.49483 46.9084 9.95879C46.9248 10.628 47.0157 10.6852 47.0157 10.6852C47.0157 10.6852 46.9766 10.4178 46.9942 10.021C46.9702 9.77096 46.9121 9.66026 46.9121 9.66026L46.8831 9.32691L45.9069 9.1167L44.332 9.25477L43.3672 10.2287L43.4114 10.9377Z" fill="#3054A8"/>
<path d="M43.5817 11.0193C43.5817 11.0193 44.313 11.7179 45.3031 10.5311L45.101 10.4751C45.101 10.4751 44.2498 11.5909 43.5969 10.9259C42.944 10.2609 43.5817 11.0193 43.5817 11.0193Z" fill="#3054A8"/>
<g filter="url(#filter0_d_269_26325)">
<rect x="55" y="8" width="43" height="2" rx="0.551467" fill="white"/>
</g>
<g filter="url(#filter1_d_269_26325)">
<rect x="102" y="6" width="5.5" height="5.5" rx="0.551467" fill="white"/>
</g>
<g filter="url(#filter2_d_269_26325)">
<rect x="102" y="13" width="5.5" height="5.5" rx="0.551467" fill="white"/>
</g>
<g filter="url(#filter3_d_269_26325)">
<rect x="55" y="15" width="43" height="2" rx="0.551467" fill="white"/>
</g>
<g filter="url(#filter4_d_269_26325)">
<g filter="url(#filter5_b_269_26325)">
<path d="M6 19.5251C6 18.1018 7.1538 16.948 8.57708 16.948H66.2261C67.6494 16.948 68.8032 18.1018 68.8032 19.5251V36.1912C68.8032 37.6145 67.6494 38.7683 66.2261 38.7683H10.7853L12.6848 42.0143C12.8406 42.2806 12.5414 42.5803 12.2748 42.425L6.993 39.3469C6.37814 38.9886 6 38.3306 6 37.619V19.5251Z" fill="white" fill-opacity="0.6"/>
</g>
<rect x="26.9121" y="23.5593" width="35.4371" height="1.95908" rx="0.551467" fill="#F0F2F7"/>
<rect x="26.9121" y="29.6821" width="35.4371" height="1.95908" rx="0.551467" fill="#F0F2F7"/>
</g>
<rect x="11.1895" y="22.0935" width="11.4158" height="11.2437" rx="1.2" fill="#F0F2F7"/>
<path d="M18.6467 26.9239L19.8386 26.2826L19.9789 26.0487C20.0833 25.1305 19.9295 25.0518 19.9295 25.0518C19.9295 25.0518 19.9778 24.9753 19.9262 24.7629C19.8734 24.5506 18.3875 22.9103 16.7937 23.7897C16.3504 24.0344 16.0597 24.3426 15.8656 24.6692C15.0227 26.8549 16.7994 27.4078 16.7994 27.4078L17.4492 28.5082L18.6467 26.9239Z" fill="#187E6A"/>
<path d="M16.4891 28.5784C16.4891 28.5784 14.3186 29.7488 13.9471 30.5356C13.5756 31.3224 13.4824 32.0822 13.4824 32.0822H20.6642C20.6642 32.0822 20.8112 30.3513 20.0682 29.932C19.3253 29.5128 18.9235 29.3985 18.736 29.086C18.5497 28.7756 16.4891 28.5784 16.4891 28.5784Z" fill="url(#paint1_linear_269_26325)"/>
<path d="M16.671 27.3568C16.671 27.3568 16.7192 28.2308 16.4689 28.5768C16.4532 28.5983 16.4588 28.6274 16.4802 28.6425C17.6777 29.4746 18.4308 29.2784 18.653 29.1879C18.6934 29.1717 18.7181 29.1329 18.7158 29.0909C18.7114 28.9982 18.7125 28.8268 18.7809 28.718C18.8236 28.649 17.4353 27.6801 16.8932 27.3568C16.7652 27.2792 16.671 27.3568 16.671 27.3568Z" fill="#CF9C94"/>
<path d="M16.8711 27.5828C16.8711 27.5828 17.6219 29.1995 18.5052 28.9419C19.4581 28.6638 17.2302 27.1194 17.2302 27.1194L16.8711 27.5828Z" fill="#C7776A"/>
<path d="M16.799 27.4078C16.799 27.4078 17.0257 28.1795 17.8967 28.5298C18.1324 28.6257 18.6172 28.823 18.7833 28.8542C18.8866 28.8736 19.3332 28.9243 19.4511 28.6419C19.5398 28.4468 19.5757 28.2183 19.6396 28.0771C19.7036 27.936 19.9045 26.9617 19.9258 26.8463C19.9472 26.731 19.9337 26.5219 19.9382 26.4389C19.9427 26.3559 20.0156 26.1663 20.0156 26.0962C20.0156 26.0262 19.9887 25.9378 19.9808 25.8742C19.9674 25.7696 19.9539 25.2944 19.9225 25.2049C19.891 25.1154 19.8551 24.9225 19.6408 24.874C18.4242 24.6477 16.982 26.1458 16.8394 26.4152C16.8181 26.3753 16.7699 26.3031 16.7362 26.2633C16.6947 26.2029 16.5117 26.0768 16.4096 26.0693C16.3086 26.0606 16.1604 26.1059 16.1021 26.1663C16.0448 26.2266 16.0123 26.4594 16.0572 26.6987C16.1021 26.9379 16.4062 27.3432 16.4433 27.3766C16.6307 27.5533 16.799 27.4078 16.799 27.4078Z" fill="#EFBBB4"/>
<path d="M19.3203 24.1387C19.3203 24.1387 20.0453 24.5838 20.2474 24.2033C20.2474 24.2033 20.2272 24.836 19.3731 25.1184" fill="#187E6A"/>
<path d="M19.9898 25.4537C19.9685 25.2371 19.9168 25.1411 19.9168 25.1411L19.891 24.8523L19.0235 24.6702L17.625 24.7898L16.7676 25.6337L16.8057 26.248C16.8057 26.248 16.8271 26.4334 16.8888 26.5369C16.8888 26.5369 17.1043 26.2211 17.4455 26.248C17.7867 26.276 18.46 26.0001 18.8428 25.6154C19.0874 25.3686 19.267 25.1789 19.4196 25.0883C19.4151 25.0851 19.4129 25.0829 19.4129 25.0829L19.5633 24.9612L19.6261 24.973C19.6217 24.9676 19.616 24.9633 19.6093 24.9601C19.6396 24.9461 19.9034 24.9978 19.9123 25.3998C19.9269 25.9797 20.0077 26.0292 20.0077 26.0292C20.0077 26.0292 19.9741 25.7964 19.9898 25.4537Z" fill="#187E6A"/>
<path d="M19.7832 24.7525C19.7832 24.7525 20.0141 24.7396 20.1587 24.6038C20.1587 24.6038 19.967 24.9605 20.0007 25.2526C20.0343 25.5446 19.7832 24.7525 19.7832 24.7525Z" fill="#187E6A"/>
<defs>
<filter id="filter0_d_269_26325" x="54" y="7.5" width="45" height="4" filterUnits="userSpaceOnUse" color-interpolation-filters="sRGB">
<feFlood flood-opacity="0" result="BackgroundImageFix"/>
<feColorMatrix in="SourceAlpha" type="matrix" values="0 0 0 0 0 0 0 0 0 0 0 0 0 0 0 0 0 0 127 0" result="hardAlpha"/>
<feOffset dy="0.5"/>
<feGaussianBlur stdDeviation="0.5"/>
<feComposite in2="hardAlpha" operator="out"/>
<feColorMatrix type="matrix" values="0 0 0 0 0 0 0 0 0 0 0 0 0 0 0 0 0 0 0.08 0"/>
<feBlend mode="normal" in2="BackgroundImageFix" result="effect1_dropShadow_269_26325"/>
<feBlend mode="normal" in="SourceGraphic" in2="effect1_dropShadow_269_26325" result="shape"/>
</filter>
<filter id="filter1_d_269_26325" x="101" y="5.5" width="7.5" height="7.5" filterUnits="userSpaceOnUse" color-interpolation-filters="sRGB">
<feFlood flood-opacity="0" result="BackgroundImageFix"/>
<feColorMatrix in="SourceAlpha" type="matrix" values="0 0 0 0 0 0 0 0 0 0 0 0 0 0 0 0 0 0 127 0" result="hardAlpha"/>
<feOffset dy="0.5"/>
<feGaussianBlur stdDeviation="0.5"/>
<feComposite in2="hardAlpha" operator="out"/>
<feColorMatrix type="matrix" values="0 0 0 0 0 0 0 0 0 0 0 0 0 0 0 0 0 0 0.08 0"/>
<feBlend mode="normal" in2="BackgroundImageFix" result="effect1_dropShadow_269_26325"/>
<feBlend mode="normal" in="SourceGraphic" in2="effect1_dropShadow_269_26325" result="shape"/>
</filter>
<filter id="filter2_d_269_26325" x="101" y="12.5" width="7.5" height="7.5" filterUnits="userSpaceOnUse" color-interpolation-filters="sRGB">
<feFlood flood-opacity="0" result="BackgroundImageFix"/>
<feColorMatrix in="SourceAlpha" type="matrix" values="0 0 0 0 0 0 0 0 0 0 0 0 0 0 0 0 0 0 127 0" result="hardAlpha"/>
<feOffset dy="0.5"/>
<feGaussianBlur stdDeviation="0.5"/>
<feComposite in2="hardAlpha" operator="out"/>
<feColorMatrix type="matrix" values="0 0 0 0 0 0 0 0 0 0 0 0 0 0 0 0 0 0 0.08 0"/>
<feBlend mode="normal" in2="BackgroundImageFix" result="effect1_dropShadow_269_26325"/>
<feBlend mode="normal" in="SourceGraphic" in2="effect1_dropShadow_269_26325" result="shape"/>
</filter>
<filter id="filter3_d_269_26325" x="54" y="14.5" width="45" height="4" filterUnits="userSpaceOnUse" color-interpolation-filters="sRGB">
<feFlood flood-opacity="0" result="BackgroundImageFix"/>
<feColorMatrix in="SourceAlpha" type="matrix" values="0 0 0 0 0 0 0 0 0 0 0 0 0 0 0 0 0 0 127 0" result="hardAlpha"/>
<feOffset dy="0.5"/>
<feGaussianBlur stdDeviation="0.5"/>
<feComposite in2="hardAlpha" operator="out"/>
<feColorMatrix type="matrix" values="0 0 0 0 0 0 0 0 0 0 0 0 0 0 0 0 0 0 0.08 0"/>
<feBlend mode="normal" in2="BackgroundImageFix" result="effect1_dropShadow_269_26325"/>
<feBlend mode="normal" in="SourceGraphic" in2="effect1_dropShadow_269_26325" result="shape"/>
</filter>
<filter id="filter4_d_269_26325" x="-3.8147e-06" y="13.948" width="74.8027" height="37.5195" filterUnits="userSpaceOnUse" color-interpolation-filters="sRGB">
<feFlood flood-opacity="0" result="BackgroundImageFix"/>
<feColorMatrix in="SourceAlpha" type="matrix" values="0 0 0 0 0 0 0 0 0 0 0 0 0 0 0 0 0 0 127 0" result="hardAlpha"/>
<feOffset dy="3"/>
<feGaussianBlur stdDeviation="3"/>
<feComposite in2="hardAlpha" operator="out"/>
<feColorMatrix type="matrix" values="0 0 0 0 0.151823 0 0 0 0 0.17154 0 0 0 0 0.220833 0 0 0 0.1 0"/>
<feBlend mode="normal" in2="BackgroundImageFix" result="effect1_dropShadow_269_26325"/>
<feBlend mode="normal" in="SourceGraphic" in2="effect1_dropShadow_269_26325" result="shape"/>
</filter>
<filter id="filter5_b_269_26325" x="-7.98305" y="2.96494" width="90.7688" height="53.4856" filterUnits="userSpaceOnUse" color-interpolation-filters="sRGB">
<feFlood flood-opacity="0" result="BackgroundImageFix"/>
<feGaussianBlur in="BackgroundImageFix" stdDeviation="6.99153"/>
<feComposite in2="SourceAlpha" operator="in" result="effect1_backgroundBlur_269_26325"/>
<feBlend mode="normal" in="SourceGraphic" in2="effect1_backgroundBlur_269_26325" result="shape"/>
</filter>
<linearGradient id="paint0_linear_269_26325" x1="48.0415" y1="13.9481" x2="47.8781" y2="18.2505" gradientUnits="userSpaceOnUse">
<stop offset="0.045688" stop-color="#49FFDA"/>
<stop offset="0.471744" stop-color="#9499FB" stop-opacity="0.6"/>
<stop offset="0.936631" stop-color="#F0F2F7" stop-opacity="0"/>
</linearGradient>
<linearGradient id="paint1_linear_269_26325" x1="20.9222" y1="28.8554" x2="20.7841" y2="32.5835" gradientUnits="userSpaceOnUse">
<stop offset="0.045688" stop-color="#49FFDA"/>
<stop offset="0.471744" stop-color="#9499FB" stop-opacity="0.6"/>
<stop offset="0.936631" stop-color="#F0F2F7" stop-opacity="0"/>
</linearGradient>
</defs>
</svg>
