<svg width="329" height="83" viewBox="0 0 329 83" fill="none" xmlns="http://www.w3.org/2000/svg">
<ellipse cx="190.5" cy="65.5" rx="137.5" ry="16.5" fill="white" fill-opacity="0.8"/>
<path d="M190.5 82.28C228.477 82.28 262.864 80.4329 287.761 77.4453C300.207 75.9517 310.292 74.1719 317.271 72.1919C320.758 71.2025 323.486 70.1587 325.348 69.0669C327.188 67.9882 328.28 66.8039 328.28 65.5C328.28 64.196 327.188 63.0118 325.348 61.9331C323.486 60.8413 320.758 59.7975 317.271 58.8081C310.292 56.8281 300.207 55.0483 287.761 53.5547C262.864 50.5671 228.477 48.72 190.5 48.72C152.523 48.72 118.136 50.5671 93.2395 53.5547C80.793 55.0483 70.7078 56.8281 63.729 58.8081C60.2417 59.7975 57.5138 60.8413 55.6519 61.9331C53.8125 63.0118 52.72 64.196 52.72 65.5C52.72 66.8039 53.8125 67.9882 55.6519 69.0669C57.5138 70.1587 60.2417 71.2025 63.729 72.1919C70.7078 74.1719 80.793 75.9517 93.2395 77.4453C118.136 80.4329 152.523 82.28 190.5 82.28Z" stroke="url(#paint0_angular_214_19746)" stroke-opacity="0.8" stroke-width="0.56" stroke-linecap="round" stroke-linejoin="round"/>
<g filter="url(#filter0_d_214_19746)">
<path d="M96.4629 9.02193C96.4629 7.90525 95.5576 7 94.441 7H8.02168C6.90499 7 5.99975 7.90525 5.99975 9.02193V32.0498C5.99975 33.1665 6.90499 34.0717 8.02168 34.0717H91.6999L95.2635 38.5072C95.6621 39.0033 96.4629 38.7214 96.4629 38.0851V34.0717V9.02193Z" fill="white" fill-opacity="0.6" shape-rendering="crispEdges"/>
</g>
<rect x="12" y="13" width="16" height="16" rx="1.2" fill="#F0F2F7"/>
<ellipse cx="20" cy="20.9995" rx="5" ry="4.99953" fill="#DA6F6F"/>
<path d="M24.82 21.0005C24.82 23.6622 22.662 25.82 20 25.82C17.338 25.82 15.18 23.6622 15.18 21.0005C15.18 18.3388 17.338 16.181 20 16.181C22.662 16.181 24.82 18.3388 24.82 21.0005Z" stroke="white" stroke-opacity="0.2" stroke-width="0.36"/>
<path fill-rule="evenodd" clip-rule="evenodd" d="M20.4839 18.9766C20.4839 19.2396 20.2707 19.4528 20.0076 19.4528C19.7445 19.4528 19.5312 19.2396 19.5312 18.9766C19.5312 18.7136 19.7445 18.5004 20.0076 18.5004C20.2707 18.5004 20.4839 18.7136 20.4839 18.9766ZM20.0027 20.0482C18.9755 20.0482 18.2165 19.3168 18.2165 18.5004H17.502C17.502 19.7881 18.6623 20.7625 20.0027 20.7625C21.3431 20.7625 22.5034 19.7881 22.5034 18.5004H21.789C21.789 19.3168 21.0299 20.0482 20.0027 20.0482ZM22.3874 21.3517H17.624V22.0661H22.3874V21.3517ZM20.0076 23.4993C20.2707 23.4993 20.4839 23.2861 20.4839 23.023C20.4839 22.76 20.2707 22.5468 20.0076 22.5468C19.7445 22.5468 19.5312 22.76 19.5312 23.023C19.5312 23.2861 19.7445 23.4993 20.0076 23.4993Z" fill="white"/>
<rect x="31.5332" y="15.5858" width="42.0988" height="2.36771" rx="0.6" fill="#F0F2F7"/>
<rect x="81.0996" y="13.806" width="6.14581" height="5.91928" rx="1.15508" fill="#F0F2F7"/>
<rect x="81.0996" y="21.2035" width="6.14581" height="5.91928" rx="1.15508" fill="#F0F2F7"/>
<rect x="31.5332" y="22.986" width="42.0988" height="2.36771" rx="0.6" fill="#F0F2F7"/>
<g filter="url(#filter1_d_214_19746)">
<path d="M180 6.57708C180 5.1538 181.154 4 182.577 4H248.423C249.846 4 251 5.1538 251 6.57708V22.8137C251 24.237 249.846 25.3908 248.423 25.3908H184.611L181.469 28.5633C180.929 29.1085 180 28.7262 180 27.9589V25.3908V6.57708Z" fill="white" fill-opacity="0.6" shape-rendering="crispEdges"/>
</g>
<rect x="200.15" y="10.4803" width="34.1465" height="1.92053" rx="0.551467" fill="#F0F2F7"/>
<rect x="239.878" y="9.04089" width="4.98489" height="4.80132" rx="0.551467" fill="#F0F2F7"/>
<rect x="239.878" y="15.0417" width="4.98489" height="4.80132" rx="0.551467" fill="#F0F2F7"/>
<rect x="200.15" y="16.4833" width="34.1465" height="1.92053" rx="0.551467" fill="#F0F2F7"/>
<rect x="185" y="9" width="11" height="11" rx="1.2" fill="#F0F2F7"/>
<ellipse cx="190.584" cy="14.6041" rx="3.58439" ry="3.60415" fill="#DA6F6F"/>
<path d="M193.989 14.605C193.989 16.497 192.464 18.0292 190.584 18.0292C188.705 18.0292 187.18 16.497 187.18 14.605C187.18 12.713 188.705 11.1809 190.584 11.1809C192.464 11.1809 193.989 12.713 193.989 14.605Z" stroke="white" stroke-opacity="0.2" stroke-width="0.36"/>
<path fill-rule="evenodd" clip-rule="evenodd" d="M190.587 13.9183C189.85 13.9183 189.306 13.391 189.306 12.8025H188.794C188.794 13.7308 189.626 14.4333 190.587 14.4333C191.548 14.4333 192.379 13.7308 192.379 12.8025H191.867C191.867 13.391 191.323 13.9183 190.587 13.9183ZM192.296 14.8581H188.881V15.373H192.296V14.8581ZM190.931 13.1459C190.931 13.3355 190.779 13.4892 190.59 13.4892C190.401 13.4892 190.248 13.3355 190.248 13.1459C190.248 12.9562 190.401 12.8025 190.59 12.8025C190.779 12.8025 190.931 12.9562 190.931 13.1459ZM190.59 16.4063C190.779 16.4063 190.931 16.2526 190.931 16.063C190.931 15.8733 190.779 15.7196 190.59 15.7196C190.401 15.7196 190.248 15.8733 190.248 16.063C190.248 16.2526 190.401 16.4063 190.59 16.4063Z" fill="white"/>
<g filter="url(#filter2_d_214_19746)">
<rect x="146" y="31" width="28.3123" height="27.2693" rx="13.6346" fill="white" fill-opacity="0.5" shape-rendering="crispEdges"/>
</g>
<path d="M164.108 42.6542L166.986 41.101L167.325 40.5345C167.577 38.3105 167.205 38.1199 167.205 38.1199C167.205 38.1199 167.322 37.9346 167.197 37.4203C167.07 36.9061 163.482 32.9331 159.633 35.0631C158.563 35.6557 157.861 36.4023 157.392 37.1932C155.356 42.4871 159.647 43.8262 159.647 43.8262L161.216 46.4914L164.108 42.6542Z" fill="#187E6A"/>
<path d="M158.898 46.6611C158.898 46.6611 153.657 49.496 152.76 51.4016C151.863 53.3072 151.638 55.1475 151.638 55.1475H168.98C168.98 55.1475 169.335 50.9552 167.541 49.9398C165.747 48.9243 164.777 48.6476 164.324 47.8906C163.874 47.1388 158.898 46.6611 158.898 46.6611Z" fill="url(#paint1_linear_214_19746)"/>
<path d="M159.337 43.7022C159.337 43.7022 159.453 45.8192 158.849 46.6571C158.811 46.7093 158.824 46.7798 158.876 46.8164C161.768 48.8316 163.586 48.3565 164.123 48.1372C164.221 48.0981 164.28 48.0041 164.275 47.9023C164.264 47.6778 164.267 47.2628 164.432 46.9991C164.535 46.832 161.182 44.4853 159.873 43.7022C159.564 43.5142 159.337 43.7022 159.337 43.7022Z" fill="#CF9C94"/>
<path d="M159.819 44.2502C159.819 44.2502 161.632 48.1657 163.765 47.5419C166.066 46.8684 160.687 43.1277 160.687 43.1277L159.819 44.2502Z" fill="#C7776A"/>
<path d="M159.646 43.8261C159.646 43.8261 160.193 45.6952 162.297 46.5435C162.866 46.7759 164.037 47.2536 164.438 47.3293C164.687 47.3763 165.766 47.4989 166.05 46.815C166.264 46.3425 166.351 45.7891 166.506 45.4472C166.66 45.1052 167.145 42.7454 167.197 42.4661C167.248 42.1868 167.216 41.6804 167.226 41.4794C167.237 41.2784 167.413 40.819 167.413 40.6493C167.413 40.4796 167.348 40.2656 167.329 40.1115C167.297 39.8583 167.264 38.7072 167.189 38.4905C167.113 38.2738 167.026 37.8066 166.508 37.6891C163.57 37.1409 160.088 40.7694 159.744 41.422C159.692 41.3254 159.576 41.1505 159.494 41.0539C159.394 40.9077 158.952 40.6023 158.706 40.584C158.462 40.5631 158.104 40.6728 157.963 40.819C157.825 40.9651 157.746 41.529 157.855 42.1085C157.963 42.688 158.697 43.6695 158.787 43.7504C159.239 44.1785 159.646 43.8261 159.646 43.8261Z" fill="#EFBBB4"/>
<path d="M165.733 35.9078C165.733 35.9078 167.484 36.9859 167.972 36.0645C167.972 36.0645 167.923 37.5968 165.861 38.2807" fill="#187E6A"/>
<path d="M167.35 39.0932C167.299 38.5685 167.174 38.3362 167.174 38.3362L167.112 37.6366L165.017 37.1954L161.64 37.4852L159.569 39.5291L159.661 41.017C159.661 41.017 159.713 41.466 159.862 41.7166C159.862 41.7166 160.382 40.9518 161.206 41.017C162.03 41.0849 163.656 40.4167 164.581 39.4847C165.171 38.887 165.605 38.4275 165.974 38.2083C165.963 38.2004 165.957 38.1952 165.957 38.1952L166.321 37.9002L166.472 37.929C166.461 37.9159 166.448 37.9055 166.432 37.8976C166.505 37.8637 167.142 37.989 167.163 38.9627C167.199 40.3671 167.394 40.4871 167.394 40.4871C167.394 40.4871 167.312 39.9233 167.35 39.0932Z" fill="#187E6A"/>
<path d="M166.852 37.3945C166.852 37.3945 167.41 37.3632 167.759 37.0343C167.759 37.0343 167.296 37.8983 167.377 38.6058C167.459 39.3132 166.852 37.3945 166.852 37.3945Z" fill="#187E6A"/>
<g filter="url(#filter3_d_214_19746)">
<rect x="209" y="43" width="30.0241" height="30.1019" rx="15.012" fill="white" fill-opacity="0.5" shape-rendering="crispEdges"/>
</g>
<path d="M229.279 51.1172C229.279 51.1172 229.379 50.9581 229.272 50.5167C229.165 50.0753 226.083 46.6651 222.779 48.4934C220.716 49.6361 220.246 51.4465 220.067 52.8514C220.058 52.932 220.048 53.0127 220.039 53.0911C219.955 53.4384 219.676 54.2876 218.781 56.331C218.408 57.4244 218.557 58.175 218.715 58.5089C218.718 59.7905 219 60 219 60L219.325 60.1273C219.199 59.7173 219.295 59.3356 219.399 58.9323C219.399 58.9323 219.009 59.9597 219.5 60L222.5 58.5L224.5 59L226.5 59.3289L227.5 60L228.351 60.5948C228.351 60.5948 228.351 60.5948 228.774 59.3289C229.64 57.3572 229.212 54.8029 229.212 54.8029H229.028L229.005 53.8238L229.384 53.1942C229.598 51.283 229.279 51.1172 229.279 51.1172ZM218.715 58.4484C218.687 58.3498 218.655 58.2198 218.641 58.1548C218.618 58.0428 218.464 57.0054 219.325 55.6454C218.871 56.7276 218.722 57.6776 218.715 58.4484ZM228 60.5C227.94 59.7427 228.351 59.5171 228.351 59.5171C228.06 60.0369 228 60.5 228 60.5Z" fill="#187E6A"/>
<path d="M222.148 58.449C222.148 58.449 217.649 60.8822 216.879 62.5179C216.109 64.1535 215.916 65.7331 215.916 65.7331H230.802C230.802 65.7331 231.107 62.1347 229.567 61.2631C228.027 60.3916 227.194 60.1541 226.805 59.5043C226.419 58.859 222.148 58.449 222.148 58.449Z" fill="url(#paint2_linear_214_19746)"/>
<path d="M222.526 55.9047C222.526 55.9047 222.626 57.7218 222.107 58.441C222.075 58.4859 222.087 58.5464 222.131 58.5777C224.613 60.3075 226.174 59.8997 226.634 59.7115C226.718 59.6779 226.769 59.5972 226.765 59.5098C226.755 59.3171 226.758 58.9609 226.9 58.7346C226.988 58.5912 224.11 56.5769 222.987 55.9047C222.722 55.7434 222.526 55.9047 222.526 55.9047Z" fill="#CF9C94"/>
<path d="M222.939 56.3778C222.939 56.3778 224.496 59.7386 226.327 59.2031C228.302 58.6251 223.684 55.4143 223.684 55.4143L222.939 56.3778Z" fill="#C7776A"/>
<path d="M222.791 56.0136C222.791 56.0136 223.261 57.6178 225.066 58.346C225.555 58.5454 226.56 58.9555 226.904 59.0205C227.118 59.0608 228.044 59.1661 228.288 58.5791C228.472 58.1735 228.546 57.6985 228.679 57.405C228.812 57.1115 229.228 55.086 229.272 54.8462C229.316 54.6065 229.289 54.1718 229.298 53.9993C229.307 53.8268 229.458 53.4324 229.458 53.2868C229.458 53.1412 229.403 52.9574 229.386 52.8252C229.358 52.6079 229.33 51.6198 229.265 51.4338C229.2 51.2456 229.126 50.8468 228.681 50.746C226.16 50.2754 223.17 53.3899 222.875 53.95C222.831 53.8671 222.731 53.717 222.661 53.6341C222.575 53.5086 222.196 53.2465 221.984 53.2308C221.775 53.2129 221.468 53.307 221.347 53.4324C221.228 53.5579 221.161 54.0419 221.254 54.5393C221.347 55.0367 221.977 55.8792 222.054 55.9486C222.442 56.3161 222.791 56.0136 222.791 56.0136Z" fill="#EFBBB4"/>
<path d="M222.808 53.6024C222.808 53.6024 222.852 53.9877 222.98 54.2028C222.98 54.2028 223.427 53.5463 224.134 53.6024C224.841 53.6606 226.237 53.087 227.03 52.2871C227.823 51.4872 228.284 50.9719 228.717 51.0862C228.717 51.0862 228.691 50.9585 228.621 50.9249C228.684 50.8957 229.231 51.0033 229.249 51.839C229.28 53.0445 229.447 53.1475 229.447 53.1475C229.447 53.1475 229.375 52.6658 229.408 51.951C229.363 51.5007 229.256 51.3013 229.256 51.3013L229.203 50.7008L227.405 50.3221L224.504 50.5708L222.727 52.3252L222.808 53.6024Z" fill="#187E6A"/>
<path d="M223.121 53.7482C223.121 53.7482 224.468 55.0051 226.292 52.8699L225.92 52.769C225.92 52.769 224.352 54.7766 223.149 53.5801C221.947 52.3837 223.121 53.7482 223.121 53.7482Z" fill="#187E6A"/>
<g filter="url(#filter4_d_214_19746)">
<rect x="90" y="42" width="28.3123" height="27.2693" rx="13.6346" fill="white" fill-opacity="0.5" shape-rendering="crispEdges"/>
</g>
<path d="M110.279 50.1172C110.279 50.1172 110.379 49.9581 110.272 49.5167C110.165 49.0753 107.083 45.6651 103.779 47.4934C101.716 48.6361 101.246 50.4465 101.067 51.8514C101.058 51.932 101.048 52.0127 101.039 52.0911C100.955 52.4384 100.676 53.2876 99.7805 55.331C99.4083 56.4244 99.5572 57.175 99.7154 57.5089C99.7177 58.7905 100 59 100 59L100.325 59.1273C100.199 58.7173 100.295 58.3356 100.399 57.9323C100.399 57.9323 100.009 58.9597 100.5 59L103.5 57.5L105.5 58L107.5 58.3289L108.5 59L109.351 59.5948C109.351 59.5948 109.351 59.5948 109.774 58.3289C110.64 56.3572 110.212 53.8029 110.212 53.8029H110.028L110.005 52.8238L110.384 52.1942C110.598 50.283 110.279 50.1172 110.279 50.1172ZM99.7154 57.4484C99.6875 57.3498 99.6549 57.2198 99.6409 57.1548C99.6177 57.0428 99.4642 56.0054 100.325 54.6454C99.8713 55.7276 99.7224 56.6776 99.7154 57.4484ZM109 59.5C108.94 58.7427 109.351 58.5171 109.351 58.5171C109.06 59.0369 109 59.5 109 59.5Z" fill="#3054A8"/>
<path d="M103.148 57.449C103.148 57.449 98.6491 59.8822 97.8791 61.5179C97.1091 63.1535 96.916 64.7331 96.916 64.7331H111.802C111.802 64.7331 112.107 61.1347 110.567 60.2631C109.027 59.3916 108.194 59.1541 107.805 58.5043C107.419 57.859 103.148 57.449 103.148 57.449Z" fill="url(#paint3_linear_214_19746)"/>
<path d="M103.526 54.9047C103.526 54.9047 103.626 56.7218 103.107 57.441C103.075 57.4859 103.087 57.5464 103.131 57.5777C105.613 59.3075 107.174 58.8997 107.634 58.7115C107.718 58.6779 107.769 58.5972 107.765 58.5098C107.755 58.3171 107.758 57.9609 107.9 57.7346C107.988 57.5912 105.11 55.5769 103.987 54.9047C103.722 54.7434 103.526 54.9047 103.526 54.9047Z" fill="#CF9C94"/>
<path d="M103.939 55.3778C103.939 55.3778 105.496 58.7386 107.327 58.2031C109.302 57.6251 104.684 54.4143 104.684 54.4143L103.939 55.3778Z" fill="#C7776A"/>
<path d="M103.791 55.0136C103.791 55.0136 104.261 56.6178 106.066 57.346C106.555 57.5454 107.56 57.9555 107.904 58.0205C108.118 58.0608 109.044 58.1661 109.288 57.5791C109.472 57.1735 109.546 56.6985 109.679 56.405C109.812 56.1115 110.228 54.086 110.272 53.8462C110.316 53.6065 110.289 53.1718 110.298 52.9993C110.307 52.8268 110.458 52.4324 110.458 52.2868C110.458 52.1412 110.403 51.9574 110.386 51.8252C110.358 51.6079 110.33 50.6198 110.265 50.4338C110.2 50.2456 110.126 49.8468 109.681 49.746C107.16 49.2754 104.17 52.3899 103.875 52.95C103.831 52.8671 103.731 52.717 103.661 52.6341C103.575 52.5086 103.196 52.2465 102.984 52.2308C102.775 52.2129 102.468 52.307 102.347 52.4324C102.228 52.5579 102.161 53.0419 102.254 53.5393C102.347 54.0367 102.977 54.8792 103.054 54.9486C103.442 55.3161 103.791 55.0136 103.791 55.0136Z" fill="#EFBBB4"/>
<path d="M103.808 52.6024C103.808 52.6024 103.852 52.9877 103.98 53.2028C103.98 53.2028 104.427 52.5463 105.134 52.6024C105.841 52.6606 107.237 52.087 108.03 51.2871C108.823 50.4872 109.284 49.9719 109.717 50.0862C109.717 50.0862 109.691 49.9585 109.621 49.9249C109.684 49.8957 110.231 50.0033 110.249 50.839C110.28 52.0445 110.447 52.1475 110.447 52.1475C110.447 52.1475 110.375 51.6658 110.408 50.951C110.363 50.5007 110.256 50.3013 110.256 50.3013L110.203 49.7008L108.405 49.3221L105.504 49.5708L103.727 51.3252L103.808 52.6024Z" fill="#3054A8"/>
<path d="M104.121 52.7482C104.121 52.7482 105.468 54.0051 107.292 51.8699L106.92 51.769C106.92 51.769 105.352 53.7766 104.149 52.5801C102.947 51.3837 104.121 52.7482 104.121 52.7482Z" fill="#3054A8"/>
<g filter="url(#filter5_d_214_19746)">
<rect x="270" y="35" width="29.5432" height="28.4549" rx="14.2275" fill="white" fill-opacity="0.5" shape-rendering="crispEdges"/>
</g>
<path d="M288.017 46.1538L290.835 44.633L291.167 44.0783C291.414 41.9006 291.05 41.714 291.05 41.714C291.05 41.714 291.164 41.5326 291.042 41.029C290.917 40.5255 287.404 36.6352 283.635 38.7209C282.587 39.3012 281.9 40.0322 281.441 40.8066C279.448 45.9902 283.649 47.3015 283.649 47.3015L285.185 49.9111L288.017 46.1538Z" fill="#3054A8"/>
<path d="M282.628 50.3375C282.628 50.3375 277.496 53.1133 276.617 54.9792C275.739 56.8451 275.519 58.6471 275.519 58.6471H292.5C292.5 58.6471 292.848 54.5422 291.091 53.5479C289.334 52.5536 288.384 52.2826 287.941 51.5414C287.5 50.8053 282.628 50.3375 282.628 50.3375Z" fill="url(#paint4_linear_214_19746)"/>
<path d="M283.059 47.4384C283.059 47.4384 283.174 49.5113 282.582 50.3318C282.545 50.3829 282.558 50.4519 282.608 50.4877C285.44 52.4609 287.221 51.9957 287.746 51.781C287.842 51.7427 287.9 51.6507 287.895 51.551C287.884 51.3312 287.887 50.9248 288.049 50.6666C288.149 50.503 284.867 48.2052 283.585 47.4384C283.282 47.2543 283.059 47.4384 283.059 47.4384Z" fill="#CF9C94"/>
<path d="M283.531 47.9753C283.531 47.9753 285.307 51.8093 287.395 51.1984C289.648 50.539 284.38 46.8762 284.38 46.8762L283.531 47.9753Z" fill="#C7776A"/>
<path d="M283.362 47.5611C283.362 47.5611 283.898 49.3912 285.957 50.2219C286.514 50.4494 287.661 50.9172 288.053 50.9913C288.298 51.0373 289.354 51.1574 289.632 50.4877C289.842 50.0251 289.927 49.4832 290.078 49.1484C290.229 48.8136 290.704 46.5029 290.755 46.2294C290.805 45.9559 290.773 45.4601 290.784 45.2633C290.795 45.0665 290.967 44.6166 290.967 44.4505C290.967 44.2843 290.904 44.0747 290.885 43.9239C290.853 43.676 290.821 42.5488 290.747 42.3366C290.673 42.1245 290.588 41.667 290.081 41.552C287.204 41.0152 283.794 44.568 283.457 45.207C283.407 45.1125 283.293 44.9412 283.213 44.8466C283.115 44.7035 282.682 44.4045 282.441 44.3866C282.202 44.3661 281.852 44.4735 281.714 44.6166C281.578 44.7597 281.501 45.3118 281.607 45.8793C281.714 46.4467 282.433 47.4078 282.52 47.487C282.963 47.9062 283.362 47.5611 283.362 47.5611Z" fill="#EFBBB4"/>
<path d="M289.322 39.8093C289.322 39.8093 291.037 40.865 291.514 39.9627C291.514 39.9627 291.467 41.4631 289.447 42.1327" fill="#3054A8"/>
<path d="M290.905 42.9285C290.855 42.4148 290.733 42.1873 290.733 42.1873L290.672 41.5023L288.62 41.0703L285.314 41.354L283.286 43.3554L283.376 44.8123C283.376 44.8123 283.427 45.2519 283.573 45.4973C283.573 45.4973 284.082 44.7484 284.889 44.8123C285.696 44.8788 287.288 44.2244 288.193 43.3119C288.771 42.7266 289.196 42.2767 289.557 42.062C289.546 42.0544 289.541 42.0493 289.541 42.0493L289.897 41.7604L290.045 41.7885C290.035 41.7758 290.021 41.7655 290.005 41.7579C290.077 41.7246 290.701 41.8473 290.722 42.8007C290.756 44.1759 290.948 44.2934 290.948 44.2934C290.948 44.2934 290.868 43.7413 290.905 42.9285Z" fill="#3054A8"/>
<path d="M290.418 41.2647C290.418 41.2647 290.965 41.234 291.307 40.912C291.307 40.912 290.853 41.758 290.933 42.4507C291.012 43.1434 290.418 41.2647 290.418 41.2647Z" fill="#3054A8"/>
<defs>
<filter id="filter0_d_214_19746" x="-3.8147e-06" y="3.4" width="102.463" height="43.7604" filterUnits="userSpaceOnUse" color-interpolation-filters="sRGB">
<feFlood flood-opacity="0" result="BackgroundImageFix"/>
<feColorMatrix in="SourceAlpha" type="matrix" values="0 0 0 0 0 0 0 0 0 0 0 0 0 0 0 0 0 0 127 0" result="hardAlpha"/>
<feOffset dy="2.4"/>
<feGaussianBlur stdDeviation="3"/>
<feComposite in2="hardAlpha" operator="out"/>
<feColorMatrix type="matrix" values="0 0 0 0 0.151823 0 0 0 0 0.17154 0 0 0 0 0.220833 0 0 0 0.03 0"/>
<feBlend mode="normal" in2="BackgroundImageFix" result="effect1_dropShadow_214_19746"/>
<feBlend mode="normal" in="SourceGraphic" in2="effect1_dropShadow_214_19746" result="shape"/>
</filter>
<filter id="filter1_d_214_19746" x="174" y="0.399997" width="83" height="36.8196" filterUnits="userSpaceOnUse" color-interpolation-filters="sRGB">
<feFlood flood-opacity="0" result="BackgroundImageFix"/>
<feColorMatrix in="SourceAlpha" type="matrix" values="0 0 0 0 0 0 0 0 0 0 0 0 0 0 0 0 0 0 127 0" result="hardAlpha"/>
<feOffset dy="2.4"/>
<feGaussianBlur stdDeviation="3"/>
<feComposite in2="hardAlpha" operator="out"/>
<feColorMatrix type="matrix" values="0 0 0 0 0.151823 0 0 0 0 0.17154 0 0 0 0 0.220833 0 0 0 0.03 0"/>
<feBlend mode="normal" in2="BackgroundImageFix" result="effect1_dropShadow_214_19746"/>
<feBlend mode="normal" in="SourceGraphic" in2="effect1_dropShadow_214_19746" result="shape"/>
</filter>
<filter id="filter2_d_214_19746" x="140" y="26.2" width="40.3125" height="39.2693" filterUnits="userSpaceOnUse" color-interpolation-filters="sRGB">
<feFlood flood-opacity="0" result="BackgroundImageFix"/>
<feColorMatrix in="SourceAlpha" type="matrix" values="0 0 0 0 0 0 0 0 0 0 0 0 0 0 0 0 0 0 127 0" result="hardAlpha"/>
<feOffset dy="1.2"/>
<feGaussianBlur stdDeviation="3"/>
<feComposite in2="hardAlpha" operator="out"/>
<feColorMatrix type="matrix" values="0 0 0 0 0 0 0 0 0 0 0 0 0 0 0 0 0 0 0.03 0"/>
<feBlend mode="normal" in2="BackgroundImageFix" result="effect1_dropShadow_214_19746"/>
<feBlend mode="normal" in="SourceGraphic" in2="effect1_dropShadow_214_19746" result="shape"/>
</filter>
<filter id="filter3_d_214_19746" x="203" y="38.2" width="42.0244" height="42.1019" filterUnits="userSpaceOnUse" color-interpolation-filters="sRGB">
<feFlood flood-opacity="0" result="BackgroundImageFix"/>
<feColorMatrix in="SourceAlpha" type="matrix" values="0 0 0 0 0 0 0 0 0 0 0 0 0 0 0 0 0 0 127 0" result="hardAlpha"/>
<feOffset dy="1.2"/>
<feGaussianBlur stdDeviation="3"/>
<feComposite in2="hardAlpha" operator="out"/>
<feColorMatrix type="matrix" values="0 0 0 0 0 0 0 0 0 0 0 0 0 0 0 0 0 0 0.03 0"/>
<feBlend mode="normal" in2="BackgroundImageFix" result="effect1_dropShadow_214_19746"/>
<feBlend mode="normal" in="SourceGraphic" in2="effect1_dropShadow_214_19746" result="shape"/>
</filter>
<filter id="filter4_d_214_19746" x="84" y="37.2" width="40.3125" height="39.2693" filterUnits="userSpaceOnUse" color-interpolation-filters="sRGB">
<feFlood flood-opacity="0" result="BackgroundImageFix"/>
<feColorMatrix in="SourceAlpha" type="matrix" values="0 0 0 0 0 0 0 0 0 0 0 0 0 0 0 0 0 0 127 0" result="hardAlpha"/>
<feOffset dy="1.2"/>
<feGaussianBlur stdDeviation="3"/>
<feComposite in2="hardAlpha" operator="out"/>
<feColorMatrix type="matrix" values="0 0 0 0 0 0 0 0 0 0 0 0 0 0 0 0 0 0 0.03 0"/>
<feBlend mode="normal" in2="BackgroundImageFix" result="effect1_dropShadow_214_19746"/>
<feBlend mode="normal" in="SourceGraphic" in2="effect1_dropShadow_214_19746" result="shape"/>
</filter>
<filter id="filter5_d_214_19746" x="264" y="30.2" width="41.543" height="40.455" filterUnits="userSpaceOnUse" color-interpolation-filters="sRGB">
<feFlood flood-opacity="0" result="BackgroundImageFix"/>
<feColorMatrix in="SourceAlpha" type="matrix" values="0 0 0 0 0 0 0 0 0 0 0 0 0 0 0 0 0 0 127 0" result="hardAlpha"/>
<feOffset dy="1.2"/>
<feGaussianBlur stdDeviation="3"/>
<feComposite in2="hardAlpha" operator="out"/>
<feColorMatrix type="matrix" values="0 0 0 0 0 0 0 0 0 0 0 0 0 0 0 0 0 0 0.03 0"/>
<feBlend mode="normal" in2="BackgroundImageFix" result="effect1_dropShadow_214_19746"/>
<feBlend mode="normal" in="SourceGraphic" in2="effect1_dropShadow_214_19746" result="shape"/>
</filter>
<radialGradient id="paint0_angular_214_19746" cx="0" cy="0" r="1" gradientUnits="userSpaceOnUse" gradientTransform="translate(210.143 63.6143) rotate(2.4819) scale(195.958 32.1181)">
<stop offset="0.095705" stop-color="#B9C4FF" stop-opacity="0.34"/>
<stop offset="0.226547" stop-color="#78FFE4" stop-opacity="0.95"/>
<stop offset="0.370431" stop-color="#546FFA"/>
<stop offset="0.587672" stop-color="#F0F2F7"/>
<stop offset="0.798701" stop-color="#F0F2F7"/>
</radialGradient>
<linearGradient id="paint1_linear_214_19746" x1="169.603" y1="47.332" x2="169.268" y2="56.3617" gradientUnits="userSpaceOnUse">
<stop offset="0.045688" stop-color="#49FFDA"/>
<stop offset="0.471744" stop-color="#9499FB" stop-opacity="0.6"/>
<stop offset="0.936631" stop-color="#F0F2F7" stop-opacity="0"/>
</linearGradient>
<linearGradient id="paint2_linear_214_19746" x1="231.337" y1="59.0248" x2="231.049" y2="66.7753" gradientUnits="userSpaceOnUse">
<stop offset="0.045688" stop-color="#49FFDA"/>
<stop offset="0.471744" stop-color="#9499FB" stop-opacity="0.6"/>
<stop offset="0.936631" stop-color="#F0F2F7" stop-opacity="0"/>
</linearGradient>
<linearGradient id="paint3_linear_214_19746" x1="112.337" y1="58.0248" x2="112.049" y2="65.7753" gradientUnits="userSpaceOnUse">
<stop offset="0.045688" stop-color="#49FFDA"/>
<stop offset="0.471744" stop-color="#9499FB" stop-opacity="0.6"/>
<stop offset="0.936631" stop-color="#F0F2F7" stop-opacity="0"/>
</linearGradient>
<linearGradient id="paint4_linear_214_19746" x1="293.11" y1="50.9944" x2="292.782" y2="59.836" gradientUnits="userSpaceOnUse">
<stop offset="0.045688" stop-color="#49FFDA"/>
<stop offset="0.471744" stop-color="#9499FB" stop-opacity="0.6"/>
<stop offset="0.936631" stop-color="#F0F2F7" stop-opacity="0"/>
</linearGradient>
</defs>
</svg>
