<svg width="20" height="20" viewBox="0 0 20 20" fill="none" xmlns="http://www.w3.org/2000/svg">
<circle cx="10" cy="10" r="9.75" fill="#FF97A3" stroke="#FFBAC2" stroke-width="0.5"/>
<path d="M9.18066 5.57373L9.4823 11.5911H10.5184L10.82 5.57373H9.18066ZM9.99476 12.594C9.77172 12.594 9.58214 12.6571 9.42601 12.8044C9.25873 12.9411 9.18066 13.12 9.18066 13.3409C9.18066 13.5513 9.25873 13.7301 9.42601 13.8774C9.58214 14.0247 9.77172 14.0983 9.99476 14.0983C10.2178 14.0983 10.4185 14.0247 10.5858 13.8879C10.7419 13.7406 10.82 13.5618 10.82 13.3409C10.82 13.12 10.7419 12.9411 10.5858 12.8044C10.4297 12.6571 10.229 12.594 9.99476 12.594Z" fill="white"/>
</svg>
