<svg xmlns="http://www.w3.org/2000/svg" width="16" height="16" viewBox="0 0 16 16" fill="none">
<circle cx="8" cy="8" r="7.75" fill="#FF97A3" stroke="#FFBAC2" stroke-width="0.5"/>
<path d="M7.34375 4.45898L7.58506 9.27287H8.41391L8.65523 4.45898H7.34375ZM7.99503 10.0752C7.8166 10.0752 7.66493 10.1257 7.54002 10.2435C7.4062 10.3529 7.34375 10.496 7.34375 10.6727C7.34375 10.841 7.4062 10.9841 7.54002 11.1019C7.66493 11.2197 7.8166 11.2787 7.99503 11.2787C8.17346 11.2787 8.33405 11.2197 8.46787 11.1103C8.59277 10.9925 8.65523 10.8494 8.65523 10.6727C8.65523 10.496 8.59277 10.3529 8.46787 10.2435C8.34297 10.1257 8.18238 10.0752 7.99503 10.0752Z" fill="white"/>
</svg>