<svg width="12" height="10" viewBox="0 0 12 10" fill="none" xmlns="http://www.w3.org/2000/svg">
<path d="M9.40082 9.31399C9.49996 9.40955 9.62399 9.45738 9.74799 9.45738C9.75203 9.45738 9.8636 9.47061 9.92153 9.43347C9.99589 9.3857 10.0455 9.33778 10.0951 9.29001L11.5992 7.74624C11.7975 7.55503 11.7975 7.2681 11.5992 7.10077C11.5 7.00518 11.376 6.95738 11.2521 6.95738C11.1281 6.95738 11.0041 7.00518 10.905 7.10077L10.1943 7.8797L10.1943 3.91155C10.1943 3.64859 9.97106 3.45738 9.72313 3.45738C9.47518 3.45738 9.25207 3.67257 9.25207 3.91155L9.25207 8.95535C9.25208 9.07494 9.30161 9.21833 9.40082 9.31399Z" fill="#22232B"/>
<rect x="0.252075" y="0.459717" width="11" height="1" rx="0.5" fill="#22232B"/>
<rect x="0.252075" y="4.45972" width="7" height="1" rx="0.5" fill="#22232B"/>
<rect x="0.252075" y="8.45972" width="7" height="1" rx="0.5" fill="#22232B"/>
</svg>
