<svg width="12" height="10" viewBox="0 0 12 10" fill="none" xmlns="http://www.w3.org/2000/svg">
<path d="M9.40082 3.64329C9.49996 3.54773 9.62399 3.4999 9.74799 3.4999C9.75203 3.4999 9.8636 3.48667 9.92153 3.52381C9.99589 3.57158 10.0455 3.6195 10.0951 3.66726L11.5992 5.21103C11.7975 5.40224 11.7975 5.68918 11.5992 5.85651C11.5 5.9521 11.376 5.9999 11.2521 5.9999C11.1281 5.9999 11.0041 5.9521 10.905 5.85651L10.1943 5.07757L10.1943 9.04573C10.1943 9.30869 9.97106 9.4999 9.72313 9.4999C9.47518 9.4999 9.25207 9.28471 9.25207 9.04573L9.25207 4.00193C9.25208 3.88233 9.30161 3.73894 9.40082 3.64329Z" fill="#22232B"/>
<rect x="0.252075" y="0.5" width="11" height="1" rx="0.5" fill="#22232B"/>
<rect x="0.252075" y="4.5" width="7" height="1" rx="0.5" fill="#22232B"/>
<rect x="0.252075" y="8.5" width="7" height="1" rx="0.5" fill="#22232B"/>
</svg>
