<svg width="13" height="14" viewBox="0 0 13 14" fill="none" xmlns="http://www.w3.org/2000/svg">
<path fill-rule="evenodd" clip-rule="evenodd" d="M3 4H2C0.895431 4 0 4.89543 0 6V12C0 13.1046 0.89543 14 2 14H11C12.1046 14 13 13.1046 13 12V6C13 4.89543 12.1046 4 11 4H10C10 5.10457 9.10457 6 8 6H5C3.89543 6 3 5.10457 3 4Z" fill="#FF8718"/>
<path d="M4.95703 2.42347L5.89453 1.64796L5.89453 4.51531C5.89453 4.77381 6.16797 5 6.48047 5C6.79297 5 7.06641 4.77381 7.06641 4.51531L7.06641 1.64796L8.00391 2.42347C8.23828 2.61735 8.58984 2.61735 8.82422 2.42347C9.05859 2.22959 9.05859 1.93878 8.82422 1.7449L6.91016 0.161564C6.87109 0.129252 6.79297 0.0969388 6.71484 0.0646258C6.63672 -1.82463e-08 6.55859 -1.5132e-08 6.48047 0C6.40234 1.51613e-08 6.32422 -9.73137e-08 6.28516 0.0323128C6.20703 0.0646257 6.12891 0.0969388 6.08984 0.129252L4.17578 1.71259C3.94141 1.90646 3.94141 2.19728 4.17578 2.39116C4.37109 2.61735 4.72266 2.61735 4.95703 2.42347Z" fill="#FF8718"/>
<path d="M3.59971 12.06C3.28304 12.06 3.03471 11.9717 2.85471 11.795C2.67471 11.6183 2.58471 11.3733 2.58471 11.06H3.00971C3.00971 11.2367 3.05304 11.385 3.13971 11.505C3.22637 11.625 3.37804 11.685 3.59471 11.685C3.80471 11.685 3.94971 11.6267 4.02971 11.51C4.11304 11.3933 4.15471 11.2483 4.15471 11.075V8.5H4.57471V11.075C4.57471 11.385 4.48804 11.6267 4.31471 11.8C4.14471 11.9733 3.90637 12.06 3.59971 12.06ZM6.42982 12.06C6.17316 12.06 5.94982 12.0133 5.75982 11.92C5.56982 11.8267 5.42316 11.6967 5.31982 11.53C5.21649 11.3633 5.16482 11.17 5.16482 10.95H5.60482C5.60482 11.0867 5.63649 11.2133 5.69982 11.33C5.76316 11.4433 5.85482 11.535 5.97482 11.605C6.09816 11.6717 6.24982 11.705 6.42982 11.705C6.66649 11.705 6.84982 11.6483 6.97982 11.535C7.10982 11.4217 7.17482 11.28 7.17482 11.11C7.17482 10.97 7.14482 10.8583 7.08482 10.775C7.02482 10.6883 6.94316 10.6183 6.83982 10.565C6.73982 10.5117 6.62316 10.465 6.48982 10.425C6.35982 10.385 6.22316 10.34 6.07982 10.29C5.80982 10.1967 5.60982 10.0817 5.47982 9.945C5.34982 9.805 5.28482 9.62333 5.28482 9.4C5.28149 9.21333 5.32482 9.04833 5.41482 8.905C5.50482 8.75833 5.63149 8.645 5.79482 8.565C5.96149 8.48167 6.15816 8.44 6.38482 8.44C6.60816 8.44 6.80149 8.48167 6.96482 8.565C7.13149 8.64833 7.25982 8.76333 7.34982 8.91C7.44316 9.05667 7.49149 9.22333 7.49482 9.41H7.05482C7.05482 9.31333 7.02982 9.21833 6.97982 9.125C6.92982 9.02833 6.85316 8.95 6.74982 8.89C6.64982 8.83 6.52316 8.8 6.36982 8.8C6.17982 8.79667 6.02316 8.845 5.89982 8.945C5.77982 9.045 5.71982 9.18333 5.71982 9.36C5.71982 9.51 5.76149 9.625 5.84482 9.705C5.93149 9.785 6.05149 9.85167 6.20482 9.905C6.35816 9.955 6.53482 10.0133 6.73482 10.08C6.90149 10.14 7.05149 10.21 7.18482 10.29C7.31816 10.37 7.42149 10.4733 7.49482 10.6C7.57149 10.7267 7.60982 10.8883 7.60982 11.085C7.60982 11.2517 7.56649 11.41 7.47982 11.56C7.39316 11.7067 7.26149 11.8267 7.08482 11.92C6.91149 12.0133 6.69316 12.06 6.42982 12.06ZM8.94244 12V8.845H7.89744V8.5H10.4074V8.845H9.36244V12H8.94244Z" fill="white"/>
<path d="M2.85471 11.795L2.74964 11.9021L2.85471 11.795ZM2.58471 11.06V10.91H2.43471V11.06H2.58471ZM3.00971 11.06H3.15971V10.91H3.00971V11.06ZM3.13971 11.505L3.26131 11.4172H3.26131L3.13971 11.505ZM4.02971 11.51L3.90762 11.4228L3.906 11.4252L4.02971 11.51ZM4.15471 8.5V8.35H4.00471V8.5H4.15471ZM4.57471 8.5H4.72471V8.35H4.57471V8.5ZM4.31471 11.8L4.20864 11.6939L4.20762 11.695L4.31471 11.8ZM3.59971 11.91C3.31178 11.91 3.105 11.8305 2.95978 11.6879L2.74964 11.9021C2.96441 12.1129 3.2543 12.21 3.59971 12.21V11.91ZM2.95978 11.6879C2.81515 11.546 2.73471 11.3434 2.73471 11.06H2.43471C2.43471 11.4032 2.53426 11.6907 2.74964 11.9021L2.95978 11.6879ZM2.58471 11.21H3.00971V10.91H2.58471V11.21ZM2.85971 11.06C2.85971 11.2619 2.90962 11.4426 3.01811 11.5928L3.26131 11.4172C3.19646 11.3274 3.15971 11.2114 3.15971 11.06H2.85971ZM3.01811 11.5928C3.14439 11.7677 3.35341 11.835 3.59471 11.835V11.535C3.40267 11.535 3.30836 11.4823 3.26131 11.4172L3.01811 11.5928ZM3.59471 11.835C3.82882 11.835 4.03365 11.7695 4.15342 11.5948L3.906 11.4252C3.86576 11.4838 3.7806 11.535 3.59471 11.535V11.835ZM4.15177 11.5972C4.2568 11.4501 4.30471 11.2729 4.30471 11.075H4.00471C4.00471 11.2237 3.96928 11.3365 3.90765 11.4228L4.15177 11.5972ZM4.30471 11.075V8.5H4.00471V11.075H4.30471ZM4.15471 8.65H4.57471V8.35H4.15471V8.65ZM4.42471 8.5V11.075H4.72471V8.5H4.42471ZM4.42471 11.075C4.42471 11.3563 4.34688 11.5557 4.20864 11.6939L4.42077 11.9061C4.62921 11.6976 4.72471 11.4137 4.72471 11.075H4.42471ZM4.20762 11.695C4.0728 11.8324 3.87728 11.91 3.59971 11.91V12.21C3.93547 12.21 4.21661 12.1142 4.4218 11.905L4.20762 11.695ZM5.75982 11.92L5.69369 12.0546L5.75982 11.92ZM5.31982 11.53L5.19234 11.609H5.19234L5.31982 11.53ZM5.16482 10.95V10.8H5.01482V10.95H5.16482ZM5.60482 10.95H5.75482V10.8H5.60482V10.95ZM5.69982 11.33L5.56799 11.4016L5.56888 11.4032L5.69982 11.33ZM5.97482 11.605L5.8992 11.7346L5.9035 11.737L5.97482 11.605ZM6.97982 11.535L6.88125 11.4219H6.88125L6.97982 11.535ZM7.08482 10.775L6.96147 10.8604L6.96309 10.8626L7.08482 10.775ZM6.83982 10.565L6.76923 10.6974L6.77103 10.6983L6.83982 10.565ZM6.48982 10.425L6.44571 10.5684L6.44672 10.5687L6.48982 10.425ZM6.07982 10.29L6.12923 10.1484L6.12883 10.1482L6.07982 10.29ZM5.47982 9.945L5.3699 10.0471L5.37114 10.0484L5.47982 9.945ZM5.28482 9.4H5.43485L5.4348 9.39732L5.28482 9.4ZM5.41482 8.905L5.54186 8.98477L5.54267 8.98345L5.41482 8.905ZM5.79482 8.565L5.86081 8.69971L5.86191 8.69916L5.79482 8.565ZM6.96482 8.565L6.89665 8.69862L6.89774 8.69916L6.96482 8.565ZM7.34982 8.91L7.22196 8.98846L7.22328 8.99053L7.34982 8.91ZM7.49482 9.41V9.56H7.64753L7.6448 9.40732L7.49482 9.41ZM7.05482 9.41H6.90482V9.56H7.05482V9.41ZM6.97982 9.125L6.84658 9.19392L6.8476 9.19583L6.97982 9.125ZM6.74982 8.89L6.67264 9.01864L6.6745 9.01972L6.74982 8.89ZM6.36982 8.8L6.36719 8.95H6.36982V8.8ZM5.89982 8.945L5.80535 8.82848L5.8038 8.82977L5.89982 8.945ZM5.84482 9.705L5.74092 9.81323L5.74308 9.81522L5.84482 9.705ZM6.20482 9.905L6.15554 10.0467L6.15832 10.0476L6.20482 9.905ZM6.73482 10.08L6.78565 9.93883L6.78226 9.9377L6.73482 10.08ZM7.18482 10.29L7.10765 10.4186L7.18482 10.29ZM7.49482 10.6L7.36499 10.6752L7.3665 10.6777L7.49482 10.6ZM7.47982 11.56L7.60897 11.6363L7.6097 11.635L7.47982 11.56ZM7.08482 11.92L7.01475 11.7874L7.01371 11.7879L7.08482 11.92ZM6.42982 11.91C6.19129 11.91 5.99146 11.8667 5.82596 11.7854L5.69369 12.0546C5.90818 12.16 6.15503 12.21 6.42982 12.21V11.91ZM5.82596 11.7854C5.65913 11.7034 5.53463 11.5918 5.44731 11.451L5.19234 11.609C5.31168 11.8015 5.48052 11.9499 5.69369 12.0546L5.82596 11.7854ZM5.44731 11.451C5.36043 11.3108 5.31482 11.1456 5.31482 10.95H5.01482C5.01482 11.1944 5.07255 11.4158 5.19234 11.609L5.44731 11.451ZM5.16482 11.1H5.60482V10.8H5.16482V11.1ZM5.45482 10.95C5.45482 11.1109 5.49238 11.2623 5.568 11.4016L5.83165 11.2584C5.78061 11.1644 5.75482 11.0624 5.75482 10.95H5.45482ZM5.56888 11.4032C5.64622 11.5416 5.75776 11.652 5.89924 11.7346L6.05041 11.4754C5.95188 11.418 5.8801 11.3451 5.83077 11.2568L5.56888 11.4032ZM5.9035 11.737C6.05409 11.8184 6.23181 11.855 6.42982 11.855V11.555C6.26784 11.555 6.14223 11.525 6.04615 11.473L5.9035 11.737ZM6.42982 11.855C6.68921 11.855 6.91237 11.7928 7.07839 11.6481L6.88125 11.4219C6.78728 11.5039 6.64377 11.555 6.42982 11.555V11.855ZM7.07839 11.6481C7.24053 11.5067 7.32482 11.3241 7.32482 11.11H7.02482C7.02482 11.2359 6.97912 11.3366 6.88125 11.4219L7.07839 11.6481ZM7.32482 11.11C7.32482 10.9498 7.29055 10.804 7.20655 10.6874L6.96309 10.8626C6.9991 10.9127 7.02482 10.9902 7.02482 11.11H7.32482ZM7.20815 10.6896C7.13277 10.5807 7.03148 10.4951 6.90862 10.4317L6.77103 10.6983C6.85483 10.7415 6.91688 10.7959 6.9615 10.8604L7.20815 10.6896ZM6.91041 10.4326C6.79993 10.3737 6.67371 10.3236 6.53293 10.2813L6.44672 10.5687C6.57261 10.6064 6.67972 10.6496 6.76924 10.6974L6.91041 10.4326ZM6.53394 10.2816C6.4059 10.2422 6.27101 10.1978 6.12923 10.1484L6.03042 10.4316C6.17531 10.4822 6.31375 10.5278 6.44571 10.5684L6.53394 10.2816ZM6.12883 10.1482C5.87084 10.059 5.69564 9.95424 5.58851 9.84162L5.37114 10.0484C5.52401 10.2091 5.74881 10.3343 6.03082 10.4318L6.12883 10.1482ZM5.58974 9.84293C5.4898 9.7353 5.43482 9.5923 5.43482 9.4H5.13482C5.13482 9.65437 5.20985 9.8747 5.36991 10.0471L5.58974 9.84293ZM5.4348 9.39732C5.43193 9.23666 5.46893 9.10091 5.54186 8.98477L5.28779 8.82523C5.18072 8.99575 5.13105 9.19 5.13485 9.40268L5.4348 9.39732ZM5.54267 8.98345C5.61694 8.86243 5.72149 8.76795 5.8608 8.69971L5.72884 8.43029C5.5415 8.52205 5.39271 8.65424 5.28698 8.82655L5.54267 8.98345ZM5.86191 8.69916C6.00372 8.62826 6.17648 8.59 6.38482 8.59V8.29C6.13984 8.29 5.91927 8.33507 5.72774 8.43084L5.86191 8.69916ZM6.38482 8.59C6.58956 8.59 6.75854 8.62815 6.89665 8.69861L7.03299 8.43139C6.84444 8.33518 6.62676 8.29 6.38482 8.29V8.59ZM6.89774 8.69916C7.04151 8.77105 7.14784 8.86764 7.22198 8.98845L7.47767 8.83155C7.37181 8.65902 7.22148 8.52562 7.03191 8.43084L6.89774 8.69916ZM7.22328 8.99053C7.30068 9.11217 7.34197 9.2515 7.34485 9.41268L7.6448 9.40732C7.64101 9.19516 7.58563 9.00116 7.47637 8.82947L7.22328 8.99053ZM7.49482 9.26H7.05482V9.56H7.49482V9.26ZM7.20482 9.41C7.20482 9.28632 7.17258 9.16716 7.11205 9.05417L6.8476 9.19583C6.88707 9.2695 6.90482 9.34035 6.90482 9.41H7.20482ZM7.11306 9.05609C7.04866 8.93159 6.95067 8.83317 6.82514 8.76028L6.6745 9.01972C6.75565 9.06683 6.81099 9.12507 6.84659 9.19391L7.11306 9.05609ZM6.827 8.76138C6.69744 8.68364 6.542 8.65 6.36982 8.65V8.95C6.50431 8.95 6.60221 8.97636 6.67265 9.01862L6.827 8.76138ZM6.37246 8.65002C6.15441 8.6462 5.96126 8.70208 5.80535 8.82849L5.99429 9.06151C6.08505 8.98792 6.20524 8.94714 6.36719 8.94998L6.37246 8.65002ZM5.8038 8.82977C5.64487 8.96221 5.56982 9.14537 5.56982 9.36H5.86982C5.86982 9.2213 5.91478 9.12779 5.99585 9.06023L5.8038 8.82977ZM5.56982 9.36C5.56982 9.53805 5.62004 9.69714 5.74094 9.81321L5.9487 9.59679C5.90294 9.55286 5.86982 9.48195 5.86982 9.36H5.56982ZM5.74308 9.81522C5.84945 9.9134 5.98962 9.98896 6.15555 10.0467L6.2541 9.76333C6.11337 9.71437 6.01353 9.65659 5.94657 9.59478L5.74308 9.81522ZM6.15832 10.0476C6.31127 10.0975 6.48761 10.1557 6.68739 10.2223L6.78226 9.9377C6.58204 9.87096 6.40505 9.81252 6.25133 9.76239L6.15832 10.0476ZM6.68402 10.2211C6.84275 10.2783 6.98374 10.3443 7.10765 10.4186L7.262 10.1614C7.11924 10.0757 6.96023 10.0017 6.78563 9.93887L6.68402 10.2211ZM7.10765 10.4186C7.2206 10.4864 7.30521 10.5719 7.36501 10.6752L7.62464 10.5248C7.53778 10.3748 7.41572 10.2536 7.262 10.1614L7.10765 10.4186ZM7.3665 10.6777C7.42506 10.7744 7.45982 10.907 7.45982 11.085H7.75982C7.75982 10.8697 7.71792 10.6789 7.62315 10.5223L7.3665 10.6777ZM7.45982 11.085C7.45982 11.2243 7.42397 11.3568 7.34994 11.485L7.6097 11.635C7.70901 11.4632 7.75982 11.2791 7.75982 11.085H7.45982ZM7.35069 11.4837C7.28041 11.6026 7.1712 11.7047 7.01476 11.7874L7.15489 12.0526C7.35178 11.9486 7.50591 11.8107 7.60896 11.6363L7.35069 11.4837ZM7.01371 11.7879C6.86836 11.8662 6.67638 11.91 6.42982 11.91V12.21C6.70993 12.21 6.95462 12.1605 7.15594 12.0521L7.01371 11.7879ZM8.94244 12H8.79244V12.15H8.94244V12ZM8.94244 8.845H9.09244V8.695H8.94244V8.845ZM7.89744 8.845H7.74744V8.995H7.89744V8.845ZM7.89744 8.5V8.35H7.74744V8.5H7.89744ZM10.4074 8.5H10.5574V8.35H10.4074V8.5ZM10.4074 8.845V8.995H10.5574V8.845H10.4074ZM9.36244 8.845V8.695H9.21244V8.845H9.36244ZM9.36244 12V12.15H9.51244V12H9.36244ZM9.09244 12V8.845H8.79244V12H9.09244ZM8.94244 8.695H7.89744V8.995H8.94244V8.695ZM8.04744 8.845V8.5H7.74744V8.845H8.04744ZM7.89744 8.65H10.4074V8.35H7.89744V8.65ZM10.2574 8.5V8.845H10.5574V8.5H10.2574ZM10.4074 8.695H9.36244V8.995H10.4074V8.695ZM9.21244 8.845V12H9.51244V8.845H9.21244ZM9.36244 11.85H8.94244V12.15H9.36244V11.85Z" fill="white"/>
</svg>
